<svg width="80" height="80" fill="none" xmlns="http://www.w3.org/2000/svg"><rect width="80" height="80" rx="40" fill="#464FFF"/><path d="m17.832 32.767 21 12.133c.467.233.7.233 1.167.233.467 0 .7 0 1.167-.233l21-12.133c.467-.234.7-.467.933-.934.467-1.166.234-2.566-.933-3.266l-21-12.134a2.12 2.12 0 0 0-2.333 0l-21 12.134c-.467.233-.7.466-.934.933-.466 1.167-.233 2.567.933 3.267ZM62.166 37.9l-.467-.233-20.533 11.9a2.12 2.12 0 0 1-2.333 0l-20.534-11.9-.466.233c-1.167.7-1.4 2.1-.934 3.267.233.466.467.7.933.933l21 12.133a2.12 2.12 0 0 0 2.334 0l21-12.133c1.167-.7 1.4-2.1.933-3.267-.233-.466-.466-.7-.933-.933Zm0 9.334L61.699 47 41.166 58.9a2.12 2.12 0 0 1-2.333 0L18.299 47l-.466.233c-1.167.7-1.4 2.1-.934 3.267.233.467.467.7.933.934l21 12.133a2.12 2.12 0 0 0 2.334 0l21-12.133c1.167-.7 1.4-2.1.933-3.267-.233-.467-.466-.7-.933-.934Z" fill="#fff"/></svg>