<?xml version="1.0" encoding="utf-8"?>
<!-- Generator: Adobe Illustrator 23.0.2, SVG Export Plug-In . SVG Version: 6.00 Build 0)  -->
<svg version="1.1" id="Layer_1" xmlns="http://www.w3.org/2000/svg" xmlns:xlink="http://www.w3.org/1999/xlink" x="0px" y="0px"
	 viewBox="0 0 800 800" style="enable-background:new 0 0 800 800;" xml:space="preserve">
<style type="text/css">
	.st0{fill:#FABF4D;}
	.st1{fill:#EBA830;}
	.st2{fill:#EBF2FF;}
	.st3{fill:#B8D4EA;}
	.st4{fill:#25CE9E;}
	.st5{fill:#4088DA;}
	.st6{opacity:0.57;}
	.st7{fill:#263357;}
</style>
<g>
	<g>
		<g>
			<g>
				<path class="st0" d="M573.4,589.3H59c-15.1,0-27.4-12.3-27.4-27.4V146.8c0-15.1,12.3-27.4,27.4-27.4h514.4
					c15.1,0,27.4,12.3,27.4,27.4v415.1C600.8,577,588.5,589.3,573.4,589.3z"/>
			</g>
		</g>
		<g>
			<g>
				<path class="st1" d="M587.6,586.5v-418c0-8.8-4.3-16-11.5-16h-27c1.8,4.9,5.4,10.3,5.4,16v418c0,5.7-3.5,11.1-5.4,16h27
					C583.3,602.5,587.6,595.3,587.6,586.5z"/>
			</g>
		</g>
		<g>
			<g>
				<path class="st2" d="M600.8,198.8v-71.9c0-15.1-12.3-27.4-27.4-27.4H59c-15.1,0-27.4,12.3-27.4,27.4v71.9H600.8z"/>
			</g>
		</g>
		<g>
			<g>
				<path class="st3" d="M587.6,185.5v-56.8c0-8.8-7.2-16-16-16h-20.9c2.4,4.7,3.9,9.8,3.9,15.3v57.5H587.6z"/>
			</g>
		</g>
		<g>
			<g>
				<g>
					<path class="st4" d="M726.2,558.1c0,92.3-74.8,167.1-167.1,167.1c-92.3,0-167.1-74.8-167.1-167.1S466.9,391,559.2,391
						C651.4,391,726.2,465.8,726.2,558.1z"/>
				</g>
			</g>
			<g>
				<g>
					<path class="st5" d="M547.9,562.8V391.4C438,392.2,342.5,509,394.1,632c19,45.2,57.7,79.6,104.7,93.5
						c116.4,34.4,224.6-49,225.4-162.8H547.9z"/>
				</g>
			</g>
		</g>
		<g>
			<g>
				<path class="st0" d="M665.6,695.1c32.3-27.1,54.5-66,59.7-110.8c0.8-6.4,6.1-55.3-16.1-99.7l-159,87.5L665.6,695.1z"/>
			</g>
		</g>
		<g class="st6">
			<g>
				<path d="M593.3,404c52.3,32.7,86.2,91.8,86.2,158.2c0,66.4-34,125.5-86.2,158.2c70.5-15.8,123.4-80.8,123.4-158.2
					C716.7,484.7,663.8,419.8,593.3,404z"/>
			</g>
		</g>
	</g>
	<g>
		<g>
			<path class="st7" d="M375.8,615.8H52.6c-22.5,0-40.8-18.3-40.8-40.8V133.7c0-22.5,18.3-40.8,40.8-40.8h520.7
				c22.5,0,40.8,18.3,40.8,40.8v250.4c0,7.3-5.9,13.2-13.2,13.2c-7.3,0-13.2-5.9-13.2-13.2V133.7c0-7.9-6.4-14.3-14.4-14.3H52.6
				c-7.9,0-14.3,6.4-14.3,14.3v441.2c0,7.9,6.4,14.3,14.4,14.3h323.2c7.3,0,13.2,5.9,13.2,13.2C389,609.8,383.1,615.8,375.8,615.8z"
				/>
		</g>
		<g>
			<path class="st7" d="M342.5,405.1c-4.2,0-8.4-2-10.9-5.7c-4.1-6-2.6-14.3,3.4-18.4l77.2-53.1c6-4.1,14.3-2.6,18.4,3.4
				c4.1,6,2.6,14.3-3.4,18.4L350,402.7C347.7,404.3,345.1,405.1,342.5,405.1z"/>
		</g>
		<g>
			<path class="st7" d="M294.5,401.5c-3.6,0-7.2-1.5-9.9-4.4L255,364c-4.9-5.4-4.4-13.8,1-18.7c5.4-4.9,13.8-4.4,18.7,1l29.7,33.1
				c4.9,5.4,4.4,13.8-1,18.7C300.8,400.4,297.7,401.5,294.5,401.5z"/>
		</g>
		<g>
			<path class="st7" d="M147.8,417.7c-3.7,0-7.4-1.6-10-4.6c-4.8-5.5-4.2-13.9,1.4-18.7l64.8-55.9c5.5-4.8,13.9-4.2,18.7,1.4
				c4.8,5.5,4.2,13.9-1.4,18.7l-64.8,55.9C153.9,416.6,150.8,417.7,147.8,417.7z"/>
		</g>
		<g>
			<path class="st7" d="M240.9,377.6c-23.4,0-42.5-19.1-42.5-42.5s19.1-42.5,42.5-42.5c23.4,0,42.5,19.1,42.5,42.5
				S264.3,377.6,240.9,377.6z M240.9,319.1c-8.8,0-16,7.2-16,16s7.2,16,16,16c8.8,0,16-7.2,16-16S249.7,319.1,240.9,319.1z"/>
		</g>
		<g>
			<path class="st7" d="M118.5,463.6C95,463.6,76,444.5,76,421.1s19.1-42.5,42.5-42.5c23.4,0,42.5,19.1,42.5,42.5
				S141.9,463.6,118.5,463.6z M118.5,405.1c-8.8,0-16,7.2-16,16s7.2,16,16,16c8.8,0,16-7.2,16-16S127.3,405.1,118.5,405.1z"/>
		</g>
		<g>
			<path class="st7" d="M317,453.7c-23.4,0-42.5-19.1-42.5-42.5s19.1-42.5,42.5-42.5c23.4,0,42.5,19.1,42.5,42.5
				S340.4,453.7,317,453.7z M317,395.1c-8.8,0-16,7.2-16,16s7.2,16,16,16c8.8,0,16-7.2,16-16S325.8,395.1,317,395.1z"/>
		</g>
		<g>
			<path class="st7" d="M447.7,363.8c-23.4,0-42.5-19.1-42.5-42.5s19.1-42.5,42.5-42.5s42.5,19.1,42.5,42.5S471.2,363.8,447.7,363.8
				z M447.7,305.2c-8.8,0-16,7.2-16,16s7.2,16,16,16c8.8,0,16-7.2,16-16S456.6,305.2,447.7,305.2z"/>
		</g>
		<g>
			<path class="st7" d="M749.6,678.2c-2.1,0-4.3-0.5-6.3-1.6c-6.4-3.5-8.8-11.5-5.3-17.9c16.4-30.3,25.1-64.8,25.1-99.8
				c0-63.4-27.7-122.1-75.9-161.2c-5.7-4.6-6.6-12.9-1.9-18.6c4.6-5.7,12.9-6.6,18.6-1.9c54.5,44.1,85.7,110.4,85.7,181.8
				c0,39.4-9.8,78.2-28.2,112.4C758.8,675.7,754.3,678.2,749.6,678.2z"/>
		</g>
		<g>
			<path class="st7" d="M657.4,376c-2,0-4-0.4-5.9-1.4c-2.9-1.4-5.7-2.8-8.7-4.1c-6.7-2.9-9.7-10.8-6.8-17.5
				c3-6.7,10.8-9.7,17.4-6.8c3.3,1.5,6.6,3,9.8,4.6c6.5,3.3,9.2,11.2,5.9,17.8C666.9,373.3,662.3,376,657.4,376z"/>
		</g>
		<g>
			<path class="st7" d="M71.2,176.1c-12.3,0-22.4-10-22.4-22.4c0-12.3,10-22.4,22.4-22.4c12.3,0,22.4,10,22.4,22.4
				C93.6,166,83.6,176.1,71.2,176.1z"/>
		</g>
		<g>
			<path class="st7" d="M132.5,176.1c-12.3,0-22.4-10-22.4-22.4c0-12.3,10-22.4,22.4-22.4c12.3,0,22.4,10,22.4,22.4
				C154.9,166,144.8,176.1,132.5,176.1z"/>
		</g>
		<g>
			<path class="st7" d="M193.7,176.1c-12.3,0-22.4-10-22.4-22.4c0-12.3,10-22.4,22.4-22.4c12.3,0,22.4,10,22.4,22.4
				C216.1,166,206.1,176.1,193.7,176.1z"/>
		</g>
		<g>
			<path class="st7" d="M554.4,743.6c-102.7,0-186.2-83.5-186.2-186.2c0-102.7,83.5-186.2,186.2-186.2
				c102.7,0,186.2,83.5,186.2,186.2C740.6,660.1,657.1,743.6,554.4,743.6z M554.4,397.7c-88.1,0-159.7,71.6-159.7,159.7
				c0,88.1,71.6,159.7,159.7,159.7c88.1,0,159.7-71.6,159.7-159.7C714.1,469.4,642.5,397.7,554.4,397.7z"/>
		</g>
		<g>
			<path class="st7" d="M661.9,700.3c-3.7,0-7.3-1.5-10-4.5L541.2,569.4V397.3c0-7.3,5.9-13.2,13.2-13.2c7.3,0,13.2,5.9,13.2,13.2
				v162.1l104.2,118.8c4.8,5.5,4.3,13.9-1.2,18.7C668.1,699.2,665,700.3,661.9,700.3z"/>
		</g>
		<g>
			<path class="st7" d="M470.9,679.2c-2.6,0-5.2-0.7-7.5-2.3c-33.6-23.1-55.8-59.5-61-99.9c-0.9-7.3,4.2-13.9,11.5-14.8
				c7.3-0.9,13.9,4.2,14.8,11.5c4.2,32.9,22.3,62.6,49.7,81.4c6,4.1,7.6,12.4,3.4,18.4C479.2,677.2,475.1,679.2,470.9,679.2z"/>
		</g>
		<g>
			<path class="st7" d="M322.8,562.8H164c-7.3,0-13.2-5.9-13.2-13.2c0-7.3,5.9-13.2,13.2-13.2h158.9c7.3,0,13.2,5.9,13.2,13.2
				C336.1,556.9,330.1,562.8,322.8,562.8z"/>
		</g>
		<g>
			<path class="st7" d="M117.6,562.8h-13.2c-7.3,0-13.2-5.9-13.2-13.2c0-7.3,5.9-13.2,13.2-13.2h13.2c7.3,0,13.2,5.9,13.2,13.2
				C130.9,556.9,125,562.8,117.6,562.8z"/>
		</g>
		<g>
			<path class="st7" d="M561.1,582.7c-4.3,0-8.6-2.1-11.1-6c-4-6.1-2.2-14.3,3.9-18.3l145.5-94.2c6.1-4,14.3-2.2,18.3,3.9
				c4,6.1,2.2,14.3-3.9,18.3l-145.5,94.2C566.1,582,563.6,582.7,561.1,582.7z"/>
		</g>
		<g>
			<path class="st7" d="M587.6,212h-556c-7.3,0-13.2-5.9-13.2-13.2s5.9-13.2,13.2-13.2h556c7.3,0,13.2,5.9,13.2,13.2
				S594.9,212,587.6,212z"/>
		</g>
	</g>
</g>
</svg>
