<?xml version="1.0" encoding="utf-8"?>
<!-- Generator: Adobe Illustrator 23.0.2, SVG Export Plug-In . SVG Version: 6.00 Build 0)  -->
<svg version="1.1" id="Layer_1" xmlns="http://www.w3.org/2000/svg" xmlns:xlink="http://www.w3.org/1999/xlink" x="0px" y="0px"
	 viewBox="0 0 800 800" style="enable-background:new 0 0 800 800;" xml:space="preserve">
<style type="text/css">
	.st0{fill:#4088DA;}
	.st1{fill:#263357;}
	.st2{fill:#25CE9E;}
	.st3{opacity:0.2;fill:#303030;}
	.st4{opacity:0.15;fill:#262E45;}
	.st5{fill:#C9F2FF;}
	.st6{opacity:0.2;fill:#262E45;}
	.st7{fill:#EBF2FF;}
	.st8{fill:#FABF4D;}
</style>
<g>
	<g>
		<polygon class="st0" points="779.6,489.9 715.7,489.9 737,387.7 758.3,387.7 		"/>
		<path class="st1" d="M779.6,501.4h-63.9c-3.5,0-6.7-1.6-8.9-4.2c-2.2-2.7-3-6.2-2.3-9.6l21.3-102.2c1.1-5.3,5.8-9.2,11.3-9.2h21.3
			c5.5,0,10.1,3.8,11.3,9.2l21.3,102.2c0.7,3.4-0.2,6.9-2.3,9.6C786.3,499.8,783,501.4,779.6,501.4z M729.9,478.4h35.6l-16.5-79.2
			h-2.6L729.9,478.4z"/>
	</g>
	<g>
		<polygon class="st2" points="436.5,760 387.8,724.5 334.3,760 334.3,628.6 436.5,628.6 		"/>
		<path class="st1" d="M436.5,771.5c-2.4,0-4.8-0.7-6.8-2.2l-42.3-30.8l-46.8,31.1c-3.5,2.3-8.1,2.6-11.8,0.5
			c-3.7-2-6.1-5.9-6.1-10.1V628.6c0-6.4,5.2-11.5,11.5-11.5h102.2c6.3,0,11.5,5.2,11.5,11.5V760c0,4.3-2.4,8.3-6.3,10.3
			C440.1,771.1,438.3,771.5,436.5,771.5z M345.8,640.1v98.4l35.6-23.6c4-2.7,9.2-2.5,13.1,0.3l30.5,22.2v-97.3H345.8z"/>
	</g>
	<g>
		<polygon class="st0" points="275.8,402.3 20.4,235.3 385.8,40 747.6,231.8 470.9,402.3 		"/>
		<path class="st1" d="M470.9,413.8H275.8c-2.2,0-4.4-0.7-6.3-1.9l-255.4-167c-3.4-2.2-5.4-6.1-5.2-10.1c0.2-4.1,2.5-7.7,6.1-9.6
			L380.4,29.9c3.4-1.8,7.4-1.8,10.8,0L753,221.6c3.6,1.9,6,5.7,6.1,9.8c0.1,4.1-1.9,8-5.5,10.2L477,412.1
			C475.2,413.2,473.1,413.8,470.9,413.8z M279.3,390.8h188.4l256.8-158.3L385.8,53L43,236.3L279.3,390.8z"/>
	</g>
	<path class="st3" d="M725.6,232.5L385.8,52.4l-20.3,10.9l299.7,158.8c3.5,1.8,5.7,5.4,5.8,9.3c0.1,3.9-1.8,7.6-5.2,9.7L422,391.4
		h45.9L725.6,232.5z"/>
	<g>
		<path class="st0" d="M586.6,395.6c-10.6,14.2-30.6,14-30.6,14H194.3c0,0-22.1,1.4-32.7-10.2c-7.7-8.3-9.7-33.2-9.7-33.2V249.2
			c0,0,105.6-39,233.3-39c101.7,0,212,39,212,39v117.1C597.1,366.2,596.7,382.2,586.6,395.6z"/>
		<path class="st1" d="M192,421.2c-7.9,0-27.4-1.4-39-13.9c-9.6-10.4-12.1-33.3-12.7-40.1c0-0.3,0-0.6,0-0.9V249.2
			c0-4.8,3-9.1,7.5-10.8c4.4-1.6,109-39.7,237.3-39.7c102.5,0,211.2,38.1,215.8,39.7c4.6,1.6,7.7,6,7.7,10.8v117.1
			c-0.1,2.3-0.9,20.4-12.7,36.3c-13.6,18.1-37.1,18.6-39.7,18.6H194.5C194.3,421.1,193.4,421.2,192,421.2z M163.3,365.7
			c1,10.9,4.1,23.2,6.6,25.9c4.4,4.8,14.7,6.5,22.1,6.5c0.9,0,1.4,0,1.5,0l362.5,0c0.2,0,14.4-0.2,21.4-9.4
			c7.6-10.1,8.1-22.7,8.2-22.8l0-108.4c-26.5-8.6-117.1-35.8-200.5-35.8c-104.9,0-195.7,27.1-221.8,35.7V365.7z"/>
	</g>
	<path class="st4" d="M532.1,395.7h27.6c-0.2,0,12.8,1.4,20-8.2c7.3-9.7,5.4-21,5.4-21.1c0-0.3-1.1,0.1-1.1-0.2V257
		c-7.7-2.9-21.9-7.9-42.5-13.3c0.9,1.6,4.2,3.5,4.2,5.4v117.1C545.7,367.2,541.8,380.4,532.1,395.7z"/>
	<g>
		<path class="st5" d="M622.6,635.9H150.5c-44.4,0-64.4-32.5-64.4-76.9v-2.4c0-44.4,20-81.3,64.4-81.3h464.8L622.6,635.9z"/>
		<path class="st1" d="M622.6,647.4H150.5c-47.5,0-75.9-33.1-75.9-88.4v-2.4c0-57.2,29.1-92.8,75.9-92.8h464.8v23H150.5
			c-49.1,0-52.9,53.4-52.9,69.8v2.4c0,24.4,6.9,65.4,52.9,65.4h472.1V647.4z"/>
	</g>
	<path class="st6" d="M91.6,551.7c0,1.3,1.7,3.5,1.7,4.9v2.4c0,24.6,3.4,66.8,49.9,66.8h460.7l-2.3-53.7H143.2
		C121,572.1,104.5,565.6,91.6,551.7z"/>
	<path class="st7" d="M673.1,557.5c0,40-24.2,72.4-54.1,72.4c-29.9,0-54.1-32.4-54.1-72.4c0-40,24.2-72.5,54.1-72.5
		C648.9,485.1,673.1,517.5,673.1,557.5z"/>
	<path class="st1" d="M617.6,649.7c-40.3,0-73-41.8-73-93.1c0-51.3,32.8-93.1,73-93.1c6.4,0,11.5,5.2,11.5,11.5
		c0,6.3-5.2,11.5-11.5,11.5c-27.6,0-50,31.4-50,70.1c0,38.6,22.4,70.1,50,70.1c19.7,0,37.7-16.4,45.8-41.8l0.3-1
		c5.2-16.1,5.8-30.4,1.7-42.5c-4.2-12.4-13.4-21.4-23.4-23.1c-7.3-1.2-13.9,1.8-19.1,8.6c-11.7,15.4-11.7,37-4.8,49.1
		c0.7,1.3,3.3,5.4,6.1,5.7c1.5-0.8,4.8-3.3,6.2-7c1.2-3.3,0.5-6.9-1.9-11.2c-3.2-5.5-1.3-12.5,4.2-15.7c5.5-3.2,12.5-1.3,15.7,4.2
		c6.6,11.5,7.4,23.7,2,34.3c-5.5,10.9-16,17.6-23,18.3c-11.6,1.3-22.3-5-29.2-17.3c-10.4-18.3-11.6-50.6,6.5-74.4
		c10.4-13.6,25.3-19.9,41.1-17.4c18.6,3,34.5,17.8,41.4,38.4c5.7,16.9,5.2,36.1-1.6,57l-0.3,0.8C674.1,627,647.5,649.7,617.6,649.7z
		"/>
	<g>
		<path class="st2" d="M417.7,635.9H304.2c0,0-19.5-30.6-19.5-76.7c0-40.8,19.5-83.8,19.5-83.8h113.5c0,0-17.7,41.3-17.7,78.5
			C400,601.7,417.7,635.9,417.7,635.9z"/>
		<path class="st1" d="M417.7,647.4H297.9l-3.4-5.3c-0.9-1.4-21.3-34-21.3-82.9c0-42.8,19.7-86.7,20.5-88.6l3.1-6.8h138.4l-6.9,16
			c-0.2,0.4-16.8,39.6-16.8,74c0,44.3,16.3,76.5,16.5,76.8l8.6,16.8L417.7,647.4z M311.1,624.4h89.5c-5.4-15.4-12-40.4-12-70.6
			c0-24.8,7.2-50.8,12.7-67h-89.2c-5.2,13.2-15.7,43.7-15.7,72.3C296.2,590.5,306,614.3,311.1,624.4z"/>
	</g>
	<rect x="731.6" y="230.8" class="st1" width="23" height="131.4"/>
	<g>
		<path class="st0" d="M766.6,378.1c0,11.7-9.5,21.3-21.3,21.3s-21.3-9.5-21.3-21.3c0-11.8,9.5-21.3,21.3-21.3
			S766.6,366.3,766.6,378.1z"/>
		<path class="st1" d="M745.3,410.8c-18.1,0-32.8-14.7-32.8-32.8c0-18.1,14.7-32.8,32.8-32.8c18.1,0,32.8,14.7,32.8,32.8
			C778.1,396.1,763.4,410.8,745.3,410.8z M745.3,368.3c-5.4,0-9.8,4.4-9.8,9.8c0,5.4,4.4,9.8,9.8,9.8c5.4,0,9.8-4.4,9.8-9.8
			C755.1,372.7,750.7,368.3,745.3,368.3z"/>
	</g>
	<g>
		<path class="st1" d="M158.8,292.6c-5,0-9.6-3.2-11-8.3c-1.8-6.1,1.7-12.5,7.8-14.3c5-1.5,123.8-36,231-28.8
			c6.3,0.4,11.1,5.9,10.7,12.2c-0.4,6.3-6,11-12.2,10.7c-103.2-6.9-221.8,27.6-223,27.9C160.9,292.4,159.9,292.6,158.8,292.6z"/>
	</g>
	<path class="st1" d="M290.8,141.4c-4.1,0-8-2.2-10.1-6c-3-5.6-1-12.6,4.6-15.6l78-42.6c5.6-3,12.6-1,15.6,4.6
		c3,5.6,1,12.6-4.6,15.6l-78,42.6C294.5,140.9,292.7,141.4,290.8,141.4z"/>
	<path class="st1" d="M238.8,169.7c-4.1,0-8.1-2.2-10.2-6.2c-3-5.6-0.8-12.6,4.8-15.5l23.6-12.4c5.6-3,12.6-0.8,15.5,4.8
		c3,5.6,0.8,12.6-4.8,15.5l-23.6,12.4C242.4,169.3,240.6,169.7,238.8,169.7z"/>
	<path class="st1" d="M246.3,529.1c-0.3,0-0.6,0-0.9,0c-6.3-0.5-11.1-6-10.6-12.3c1.3-17,11.7-39.4,12.9-41.9
		c2.7-5.7,9.6-8.2,15.3-5.5c5.7,2.7,8.2,9.6,5.5,15.3c-2.7,5.7-9.9,23-10.8,33.8C257.3,524.5,252.2,529.1,246.3,529.1z"/>
	<path class="st1" d="M374,523.2c-0.3,0-0.6,0-0.9,0c-6.3-0.5-11.1-6-10.6-12.3c1.3-17.4,9.1-33.2,9.5-33.8c2.8-5.7,9.7-8,15.4-5.1
		c5.7,2.8,8,9.7,5.2,15.4c-0.2,0.4-6.1,12.6-7.1,25.3C385,518.6,379.9,523.2,374,523.2z"/>
	<path class="st1" d="M331.4,523.2c-0.3,0-0.6,0-0.9,0c-6.3-0.5-11.1-6-10.6-12.4c1.3-17.4,9.1-33.2,9.5-33.8
		c2.8-5.7,9.8-8,15.4-5.2c5.7,2.8,8,9.7,5.2,15.4l0,0c-0.1,0.1-6.1,12.5-7.1,25.3C342.4,518.6,337.4,523.2,331.4,523.2z"/>
	<path class="st1" d="M363.5,680.2c-6.4,0-11.5-5.2-11.5-11.5v-21.9c0-6.3,5.2-11.5,11.5-11.5c6.4,0,11.5,5.2,11.5,11.5v21.9
		C375,675.1,369.9,680.2,363.5,680.2z"/>
	<path class="st1" d="M400,665.6c-6.3,0-11.5-5.2-11.5-11.5v-14.6c0-6.4,5.2-11.5,11.5-11.5c6.4,0,11.5,5.2,11.5,11.5v14.6
		C411.5,660.5,406.3,665.6,400,665.6z"/>
	<g>
		<path class="st8" d="M598.6,394.6c0,19.6-96.9,35.5-216.4,35.5c-119.5,0-216.4-15.9-216.4-35.5c0-19.6,96.9-35.5,216.4-35.5
			C501.8,359.1,598.6,375,598.6,394.6z"/>
		<path class="st1" d="M382.3,441.6c-38.1,0-227.9-2.3-227.9-47c0-44.7,189.8-47,227.9-47s227.9,2.3,227.9,47
			C610.2,439.3,420.3,441.6,382.3,441.6z M179.8,394.6c17.3,10.6,92.3,24,202.5,24c110.1,0,185.1-13.4,202.5-24
			c-17.3-10.6-92.3-24-202.5-24C272.1,370.6,197.1,384,179.8,394.6z"/>
	</g>
</g>
</svg>
