<svg xmlns="http://www.w3.org/2000/svg" width="20" height="20" fill="none" viewBox="0 0 20 20"><path fill="#206aff" d="M18.216 10.419a.284.284 0 0 0 .284-.285V6.556c0-.06-.049-.11-.108-.113-.746-.038-1.318-.46-1.318-.877 0-.329.121-.56.238-.708a.113.113 0 0 0-.102-.183c-1.504.193-1.134 1.77-2.957 1.77-.797 0-1.426-.442-1.426-.88 0-.328.121-.56.238-.707a.113.113 0 0 0-.102-.183c-1.504.193-1.134 1.77-2.957 1.77-.797 0-1.426-.442-1.426-.88 0-.328.121-.56.239-.707a.113.113 0 0 0-.103-.183c-1.504.193-1.134 1.77-2.957 1.77-.797 0-1.426-.442-1.426-.88 0-.328.121-.56.239-.707a.113.113 0 0 0-.103-.183c-1.504.193-1.134 1.77-2.957 1.77L1.5 10.09a.324.324 0 0 0 .324.329z"/><path fill="#20b1ff" d="M18.216 13.291a.285.285 0 0 0 .284-.284V9.429c0-.06-.049-.11-.108-.114-.746-.037-1.318-.46-1.318-.877 0-.328.121-.56.238-.707a.113.113 0 0 0-.102-.184c-1.504.194-1.134 1.771-2.957 1.771-.797 0-1.426-.442-1.426-.88 0-.328.121-.56.238-.707a.113.113 0 0 0-.102-.184c-1.504.194-1.134 1.771-2.957 1.771-.797 0-1.426-.442-1.426-.88 0-.328.121-.56.239-.707a.113.113 0 0 0-.103-.184c-1.504.194-1.134 1.771-2.957 1.771-.797 0-1.426-.442-1.426-.88 0-.328.121-.56.239-.707a.113.113 0 0 0-.103-.184c-1.504.194-1.134 1.771-2.957 1.771L1.5 12.963a.324.324 0 0 0 .324.328z"/><path fill="#206aff" d="M13.785 5.612c.138-.138-.112-.388-.341-.388 0 0 .202.527.34.388m-.983-1.618c-.127-.329-.72-.099-.886.279 0 0 1.013.05.886-.28"/><path fill="#4ff5fe" d="M18.216 16.164a.284.284 0 0 0 .284-.285v-3.578c0-.06-.049-.11-.108-.113-.746-.038-1.318-.46-1.318-.878 0-.328.121-.56.238-.707a.113.113 0 0 0-.102-.183c-1.504.193-1.134 1.77-2.957 1.77-.797 0-1.426-.442-1.426-.88 0-.328.121-.56.238-.707a.113.113 0 0 0-.102-.183c-1.504.193-1.134 1.77-2.957 1.77-.797 0-1.426-.442-1.426-.88 0-.328.121-.56.239-.707a.113.113 0 0 0-.103-.183c-1.504.193-1.134 1.77-2.957 1.77-.797 0-1.426-.442-1.426-.88 0-.328.121-.56.239-.707a.113.113 0 0 0-.103-.183c-1.504.193-1.134 1.77-2.957 1.77L1.5 15.835a.324.324 0 0 0 .324.328z"/></svg>