<svg xmlns="http://www.w3.org/2000/svg" width="24" height="24" fill="none" viewBox="0 0 24 24"><path fill="#fc4f4f" d="m18.398 17.634-4.973-3.399h-2.924l.66 4.62a1.93 1.93 0 0 1-3.82.546l-.738-5.166a3.899 3.899 0 1 1 0-7.797h6.822l4.973-3.4a.584.584 0 0 1 .875.508v13.581a.584.584 0 0 1-.875.507"/><path fill="#d64343" d="M21.296 10.714c0-.463-.863-.85-2.023-.953v1.905c1.16-.102 2.023-.49 2.023-.952M6.604 14.249h3.895l.117.904H6.728z"/><path fill="#ffc107" d="M12.809 6.445h.618v7.804h-.618z"/></svg>