<svg xmlns="http://www.w3.org/2000/svg" width="20" height="20" fill="none" viewBox="0 0 20 20"><path fill="#0362fa" stroke="#409cff" stroke-width="1.3" d="M16.413 2C15.522 2 14.8 4.149 14.8 6.8h1.613c.777 0 1.166 0 1.406-.268.24-.269.199-.622.115-1.329C17.713 3.337 17.115 2 16.413 2Z"/><path fill="#409cff" d="M14.8 6.843v8.474c0 1.209 0 1.814-.37 2.052-.603.389-1.537-.427-2.007-.723-.388-.245-.582-.367-.797-.374-.232-.008-.43.11-.85.374l-1.528.964c-.412.26-.618.39-.848.39s-.435-.13-.848-.39l-1.529-.964c-.388-.245-.582-.367-.797-.374-.232-.008-.43.11-.85.374-.469.296-1.402 1.112-2.006.723C2 17.13 2 16.526 2 15.317V6.843C2 4.56 2 3.42 2.703 2.71 3.406 2 4.537 2 6.8 2h9.6"/><path stroke="#409cff" stroke-linecap="round" stroke-linejoin="round" stroke-width="1.3" d="M14.8 6.843v8.474c0 1.209 0 1.814-.37 2.052-.603.389-1.537-.427-2.007-.723-.388-.245-.582-.367-.797-.374-.232-.008-.43.11-.85.374l-1.528.964c-.412.26-.618.39-.848.39s-.435-.13-.848-.39l-1.529-.964c-.388-.245-.582-.367-.797-.374-.232-.008-.43.11-.85.374-.469.296-1.402 1.112-2.006.723C2 17.13 2 16.526 2 15.317V6.843C2 4.56 2 3.42 2.703 2.71 3.406 2 4.537 2 6.8 2h9.6c-1.36.808-1.633 3.566-1.6 4.843"/><path stroke="#fff" stroke-linecap="round" stroke-linejoin="round" stroke-width="1.3" d="M5.2 6.006h6.4M9.596 9.283H5.199M7.398 12.735H5.199"/></svg>