<svg xmlns="http://www.w3.org/2000/svg" width="24" height="24" fill="none" viewBox="0 0 24 24"><path fill="#0362fa" stroke="#409cff" stroke-width="1.3" d="M19.695 2.398c-1.069 0-1.935 2.58-1.935 5.76h1.935c.933 0 1.4 0 1.688-.322s.238-.746.138-1.594c-.265-2.239-.983-3.844-1.826-3.844Z"/><path fill="#409cff" d="M17.76 8.21v10.168c0 1.452 0 2.177-.444 2.463-.724.467-1.845-.512-2.408-.868-.466-.293-.698-.44-.957-.448-.28-.01-.516.131-1.019.448l-1.835 1.157c-.494.312-.742.468-1.017.468s-.523-.156-1.018-.468l-1.834-1.157c-.466-.293-.699-.44-.957-.448-.279-.01-.516.131-1.02.448-.563.356-1.683 1.335-2.408.868-.443-.286-.443-1.011-.443-2.463V8.211c0-2.74 0-4.11.843-4.961.844-.852 2.202-.852 4.917-.852h11.52"/><path stroke="#409cff" stroke-linecap="round" stroke-linejoin="round" stroke-width="1.3" d="M17.76 8.21v10.168c0 1.452 0 2.177-.444 2.463-.724.467-1.845-.512-2.408-.868-.466-.293-.698-.44-.957-.448-.28-.01-.516.131-1.019.448l-1.835 1.157c-.494.312-.742.468-1.017.468s-.523-.156-1.018-.468l-1.834-1.157c-.466-.293-.699-.44-.957-.448-.279-.01-.516.131-1.02.448-.563.356-1.683 1.335-2.408.868-.443-.286-.443-1.011-.443-2.463V8.211c0-2.74 0-4.11.843-4.961.844-.852 2.202-.852 4.917-.852h11.52c-1.632.97-1.96 4.28-1.92 5.813"/><path stroke="#fff" stroke-linecap="round" stroke-linejoin="round" stroke-width="1.3" d="M6.24 7.207h7.68M11.515 11.137H6.239M8.877 15.281H6.24"/></svg>