<svg xmlns="http://www.w3.org/2000/svg" width="24" height="24" fill="none" viewBox="0 0 24 24"><path fill="#ffc107" d="M17.252 12.49c-.284 2.365-1.833 3.31-2.502 3.996-.67.688-.55.825-.505 1.834a.917.917 0 0 1-.916.97H10.67a.92.92 0 0 1-.917-.97c0-.99.092-1.22-.504-1.834-.76-.76-2.548-1.833-2.548-4.784a5.307 5.307 0 1 1 10.55.788"/><path stroke="#fa4715" stroke-linecap="round" stroke-linejoin="round" d="M19.332 11.904h1.834m-3.68-6.012 1.3-1.301M18.487 17l1.3 1.3M12 2.377V3.86m-6.76.73 1.292 1.302M4.24 18.3 5.531 17m-.864-5.096H2.834"/><path fill="#fa9d03" d="M10.46 20.748v-1.512h3.08v1.512c0 .412-.229.752-.514.752h-2.053c-.283 0-.513-.34-.513-.752"/><path stroke="#fff" stroke-linecap="round" stroke-linejoin="round" d="M11.228 8.684A2.227 2.227 0 0 0 9 10.91"/></svg>