<svg xmlns="http://www.w3.org/2000/svg" width="12" height="12" fill="none" viewBox="0 0 12 12"><path fill="#ee0097" d="M5.501 7.212a1.19 1.19 0 0 0 1.087-.004l3.644-1.887.24.12a.596.596 0 0 1 .007 1.06L6.588 8.517a1.19 1.19 0 0 1-1.087.004L1.526 6.496a.595.595 0 0 1 0-1.06l.243-.123z"/><path fill="#ee0097" d="M5.501 9.072a1.19 1.19 0 0 0 1.087-.004l3.644-1.887.24.12a.596.596 0 0 1 .007 1.06l-3.891 2.015a1.19 1.19 0 0 1-1.087.004L1.526 8.356a.595.595 0 0 1 0-1.06l.243-.123zm4.978-4.403-3.89 2.014a1.19 1.19 0 0 1-1.088.004L1.525 4.664a.595.595 0 0 1 .002-1.062L5.44 1.621a1.19 1.19 0 0 1 1.072-.002l3.96 1.99a.595.595 0 0 1 .007 1.06"/><path fill="#d20a89" d="m10.479 4.669-3.89 2.014a1.19 1.19 0 0 1-1.088.004L1.525 4.664a.595.595 0 0 1 .002-1.062c.321 1.345 6.102 1.271 8.952 1.067"/></svg>