<svg width="24" height="24" viewBox="0 0 24 24" fill="none" xmlns="http://www.w3.org/2000/svg">
<path d="M1.80493 5.34266C1.80493 4.77318 2.26659 4.31152 2.83606 4.31152H21.1637C21.7331 4.31152 22.1948 4.77318 22.1948 5.34266V20.5696C22.1948 21.1391 21.7331 21.6007 21.1637 21.6007H2.83606C2.26659 21.6007 1.80493 21.1391 1.80493 20.5696V5.34266Z" fill="#A3D0F0"/>
<path d="M1.80493 5.34266C1.80493 4.77318 2.26659 4.31152 2.83606 4.31152H21.1637C21.7331 4.31152 22.1948 4.77318 22.1948 5.34266V19.9434C22.1948 20.5129 21.7331 20.9745 21.1637 20.9745H2.83606C2.26659 20.9745 1.80493 20.5129 1.80493 19.9434V5.34266Z" fill="#CAE9FF"/>
<path d="M1.80493 5.34265C1.80493 4.77318 2.26659 4.31152 2.83606 4.31152H21.1637C21.7331 4.31152 22.1948 4.77318 22.1948 5.34266V9.41451H1.80493V5.34265Z" fill="#0588E2"/>
<path d="M21.2252 18.8876L22.1724 5.62718C22.2479 4.57037 21.0468 3.91366 20.1979 4.54756L2.31786 17.8982C1.3613 18.6125 1.87099 20.1334 3.06477 20.127L19.9976 20.0368C20.6442 20.0333 21.1792 19.5326 21.2252 18.8876Z" fill="#70B6E8"/>
<path d="M1.80493 5.34266C1.80493 4.77318 2.26659 4.31152 2.83606 4.31152H20.9962C21.627 4.31152 22.11 4.8729 22.0158 5.49665L20.1141 18.0876C20.0409 18.5724 19.6365 18.9385 19.1469 18.9634L2.88843 19.7901C2.29914 19.8201 1.80493 19.3504 1.80493 18.7603V5.34266Z" fill="white"/>
<path d="M1.80493 5.34265C1.80493 4.77318 2.26659 4.31152 2.83606 4.31152H20.9966C21.6273 4.31152 22.1102 4.8727 22.0162 5.49636L21.4255 9.41451H1.80493V5.34265Z" fill="#0588E2"/>
<rect x="3.50635" y="13.3594" width="2.4723" height="2.03408" rx="0.304517" fill="#4EB5FE"/>
<rect opacity="0.5" x="6.9043" y="13.3574" width="2.4723" height="2.03408" rx="0.304517" fill="#4EB5FE"/>
<rect opacity="0.5" x="10.1025" y="13.3604" width="2.4723" height="2.03408" rx="0.304517" fill="#4EB5FE"/>
<rect x="13.4946" y="10.6006" width="2.4723" height="2.03408" rx="0.304517" fill="#4EB5FE"/>
<rect x="10.1016" y="10.6006" width="2.4723" height="2.03408" rx="0.304517" fill="#4EB5FE"/>
<rect opacity="0.5" x="3.50635" y="16.1182" width="2.4723" height="2.03408" rx="0.304517" fill="#4EB5FE"/>
<rect opacity="0.5" x="6.9043" y="16.1113" width="2.4723" height="2.03408" rx="0.304517" fill="#4EB5FE"/>
<ellipse cx="5.82669" cy="5.57368" rx="0.648467" ry="0.650825" fill="#0E538E"/>
<ellipse cx="12.2022" cy="5.57368" rx="0.648467" ry="0.650825" fill="#0E538E"/>
<ellipse cx="18.1714" cy="5.57368" rx="0.648467" ry="0.650825" fill="#0E538E"/>
<rect x="17.6812" y="2.40039" width="0.9727" height="3.63289" rx="0.48635" fill="#FFA221"/>
<mask id="mask0_15807_29726" style="mask-type:alpha" maskUnits="userSpaceOnUse" x="17" y="2" width="2" height="5">
<rect x="17.6797" y="2.40039" width="0.9727" height="3.63289" rx="0.48635" fill="#FFA221"/>
</mask>
<g mask="url(#mask0_15807_29726)">
<rect x="18.0034" y="1.6582" width="0.9727" height="3.63289" rx="0.48635" fill="#FFC343"/>
</g>
<rect x="11.7173" y="2.40039" width="0.9727" height="3.63289" rx="0.48635" fill="#FFA221"/>
<mask id="mask1_15807_29726" style="mask-type:alpha" maskUnits="userSpaceOnUse" x="11" y="2" width="2" height="5">
<rect x="11.7163" y="2.40039" width="0.9727" height="3.63289" rx="0.48635" fill="#FFA221"/>
</mask>
<g mask="url(#mask1_15807_29726)">
<rect x="12.04" y="1.6582" width="0.9727" height="3.63289" rx="0.48635" fill="#FFC343"/>
</g>
<rect x="5.34424" y="2.40039" width="0.9727" height="3.63289" rx="0.48635" fill="#FFA221"/>
<mask id="mask2_15807_29726" style="mask-type:alpha" maskUnits="userSpaceOnUse" x="5" y="2" width="2" height="5">
<rect x="5.34619" y="2.40039" width="0.9727" height="3.63289" rx="0.48635" fill="#FFA221"/>
</mask>
<g mask="url(#mask2_15807_29726)">
<rect x="5.6748" y="1.6582" width="0.9727" height="3.63289" rx="0.48635" fill="#FFC343"/>
</g>
</svg>
