<svg xmlns="http://www.w3.org/2000/svg" width="24" height="24" fill="none" viewBox="0 0 24 24"><path fill="#a3d0f0" d="M1.805 5.342c0-.57.462-1.031 1.031-1.031h18.328c.57 0 1.03.461 1.03 1.03V20.57c0 .57-.46 1.03-1.03 1.03H2.836a1.03 1.03 0 0 1-1.031-1.03z"/><path fill="#cae9ff" d="M1.805 5.342c0-.57.462-1.031 1.031-1.031h18.328c.57 0 1.03.461 1.03 1.03v14.601c0 .57-.46 1.032-1.03 1.032H2.836c-.57 0-1.031-.462-1.031-1.032z"/><path fill="#0588e2" d="M1.805 5.342c0-.57.462-1.031 1.031-1.031h18.328c.57 0 1.03.461 1.03 1.03v4.073H1.805z"/><path fill="#70b6e8" d="m21.225 18.888.947-13.26c.076-1.058-1.125-1.714-1.974-1.08l-17.88 13.35c-.957.715-.447 2.235.747 2.229l16.933-.09a1.237 1.237 0 0 0 1.227-1.15"/><path fill="#fff" d="M1.805 5.342c0-.57.462-1.031 1.031-1.031h18.16c.631 0 1.114.56 1.02 1.185l-1.902 12.59a1.03 1.03 0 0 1-.967.876l-16.259.827a1.03 1.03 0 0 1-1.083-1.03z"/><path fill="#0588e2" d="M1.805 5.342c0-.57.462-1.031 1.031-1.031h18.16c.631 0 1.114.56 1.02 1.184l-.59 3.919H1.805z"/><rect width="2.472" height="2.034" x="3.506" y="13.359" fill="#4eb5fe" rx=".305"/><rect width="2.472" height="2.034" x="6.904" y="13.357" fill="#4eb5fe" opacity=".5" rx=".305"/><rect width="2.472" height="2.034" x="10.102" y="13.359" fill="#4eb5fe" opacity=".5" rx=".305"/><rect width="2.472" height="2.034" x="13.494" y="10.602" fill="#4eb5fe" rx=".305"/><rect width="2.472" height="2.034" x="10.101" y="10.602" fill="#4eb5fe" rx=".305"/><rect width="2.472" height="2.034" x="3.506" y="16.117" fill="#4eb5fe" opacity=".5" rx=".305"/><rect width="2.472" height="2.034" x="6.904" y="16.111" fill="#4eb5fe" opacity=".5" rx=".305"/><ellipse cx="5.827" cy="5.573" fill="#0e538e" rx=".648" ry=".651"/><ellipse cx="12.202" cy="5.573" fill="#0e538e" rx=".648" ry=".651"/><ellipse cx="18.171" cy="5.573" fill="#0e538e" rx=".648" ry=".651"/><rect width=".973" height="3.633" x="17.681" y="2.4" fill="#ffa221" rx=".486"/><mask id="a" width="2" height="5" x="17" y="2" maskUnits="userSpaceOnUse" style="mask-type:alpha"><rect width=".973" height="3.633" x="17.679" y="2.4" fill="#ffa221" rx=".486"/></mask><g mask="url(#a)"><rect width=".973" height="3.633" x="18.003" y="1.658" fill="#ffc343" rx=".486"/></g><rect width=".973" height="3.633" x="11.717" y="2.4" fill="#ffa221" rx=".486"/><mask id="b" width="2" height="5" x="11" y="2" maskUnits="userSpaceOnUse" style="mask-type:alpha"><rect width=".973" height="3.633" x="11.716" y="2.4" fill="#ffa221" rx=".486"/></mask><g mask="url(#b)"><rect width=".973" height="3.633" x="12.04" y="1.658" fill="#ffc343" rx=".486"/></g><rect width=".973" height="3.633" x="5.344" y="2.4" fill="#ffa221" rx=".486"/><mask id="c" width="2" height="5" x="5" y="2" maskUnits="userSpaceOnUse" style="mask-type:alpha"><rect width=".973" height="3.633" x="5.346" y="2.4" fill="#ffa221" rx=".486"/></mask><g mask="url(#c)"><rect width=".973" height="3.633" x="5.675" y="1.658" fill="#ffc343" rx=".486"/></g></svg>