<svg xmlns="http://www.w3.org/2000/svg" width="20" height="20" fill="none" viewBox="0 0 20 20"><path fill="#fc4f4f" d="M10 6.626c2.177 0 4.324.48 6.314 1.402C17.396 8.531 18 9.668 18 10.862v.737a1.514 1.514 0 0 1-1.514 1.514h-1.73a1.514 1.514 0 0 1-1.513-1.514v-.425a1.297 1.297 0 0 0-1.297-1.297H8.054a1.297 1.297 0 0 0-1.297 1.297v.425a1.513 1.513 0 0 1-1.514 1.514h-1.73A1.514 1.514 0 0 1 2 11.599v-.737c0-1.194.604-2.331 1.686-2.834A15 15 0 0 1 10 6.626"/><ellipse cx="16.96" cy="9.763" fill="#fd8383" rx=".243" ry=".846" transform="rotate(-21.192 16.96 9.763)"/><mask id="a" width="16" height="8" x="2" y="6" maskUnits="userSpaceOnUse" style="mask-type:alpha"><path fill="#fc4f4f" d="M10 6.626c2.177 0 4.324.48 6.314 1.402C17.396 8.531 18 9.668 18 10.862v.737a1.514 1.514 0 0 1-1.514 1.514h-1.73a1.514 1.514 0 0 1-1.513-1.514v-.425a1.297 1.297 0 0 0-1.297-1.297H8.054a1.297 1.297 0 0 0-1.297 1.297v.425a1.513 1.513 0 0 1-1.514 1.514h-1.73A1.514 1.514 0 0 1 2 11.599v-.737c0-1.194.604-2.331 1.686-2.834A15 15 0 0 1 10 6.626"/></mask><g fill="#d64343" mask="url(#a)"><ellipse cx="4.395" cy="12.563" rx="3.024" ry=".55"/><ellipse cx="15.616" cy="12.563" rx="3.024" ry=".55"/></g></svg>