<svg xmlns="http://www.w3.org/2000/svg" width="20" height="20" viewBox="0 0 20 20" fill="none"><path fill="#fc4f4f" d="M7.78 1.407c.936 0 1.694.758 1.694 1.694V7.81c0 .935-.758 1.693-1.694 1.693H3.094A1.693 1.693 0 0 1 1.4 7.81V3.1c0-.935.758-1.693 1.694-1.693z"/><path fill="#ffd740" d="M16.906 1.407c.936 0 1.694.758 1.694 1.694V7.81c0 .935-.759 1.693-1.694 1.693H12.22a1.694 1.694 0 0 1-1.694-1.693V3.1c0-.935.759-1.693 1.694-1.693z"/><path fill="#2196f3" d="M7.78 10.497c.936 0 1.694.758 1.694 1.693v4.71c0 .935-.758 1.693-1.694 1.693H3.094A1.694 1.694 0 0 1 1.4 16.899V12.19c0-.935.759-1.693 1.694-1.693z"/><path fill="#0bb01b" d="M14.563 10.497a4.046 4.046 0 0 1 4.037 4.048 4.047 4.047 0 0 1-4.038 4.048 4.046 4.046 0 0 1-4.036-4.048 4.046 4.046 0 0 1 4.037-4.048"/></svg>