<svg width="24" height="24" viewBox="0 0 24 24" fill="none" xmlns="http://www.w3.org/2000/svg">
<path d="M21.5999 16.3218C21.5999 16.8311 21.3976 17.3194 21.0375 17.6795C20.6775 18.0395 20.1891 18.2418 19.6799 18.2418H7.03478C6.52561 18.2419 6.03733 18.4443 5.67734 18.8044L3.56342 20.9183C3.4681 21.0136 3.34666 21.0785 3.21445 21.1048C3.08225 21.1311 2.94521 21.1176 2.82068 21.066C2.69614 21.0144 2.5897 20.9271 2.5148 20.815C2.4399 20.703 2.39992 20.5712 2.3999 20.4364V4.80184C2.3999 4.29262 2.60219 3.80426 2.96226 3.44419C3.32233 3.08412 3.81069 2.88184 4.3199 2.88184H19.6799C20.1891 2.88184 20.6775 3.08412 21.0375 3.44419C21.3976 3.80426 21.5999 4.29262 21.5999 4.80184V16.3218Z" fill="#8361FF"/>
<path d="M6.05566 7.24707H16.6973" stroke="white" stroke-linecap="round"/>
<path d="M6.05566 10.1445L12.856 10.129" stroke="white" stroke-linecap="round"/>
</svg>
