<svg xmlns="http://www.w3.org/2000/svg" width="24" height="24" fill="none" viewBox="0 0 24 24"><path fill="#41a5ee" d="M5.298 2.4v12.396l7.809 1.688C13.57 6.778 8.094 3.05 5.297 2.4"/><path fill="#41a5ee" d="M18.51 2.4v12.396l-7.809 1.688C10.237 6.778 15.714 3.05 18.51 2.4"/><path fill="#e6eef3" d="M4.651 3.434 3.534 4.71v3.35l8.365 6.094V9.601C11.63 6.173 6.955 4.06 4.65 3.434m14.497 0 1.117 1.276v3.35L11.9 14.155V9.601c.268-3.428 4.943-5.54 7.247-6.167"/><path fill="#ff8ae0" d="m10.462 8.795-7.401-4.19a.415.415 0 0 0-.62.361v12.085c0 .154.086.296.223.368l7.401 3.864a.415.415 0 0 0 .608-.368V9.157c0-.15-.08-.288-.211-.362m3.076 0 7.401-4.19a.415.415 0 0 1 .62.361v12.085a.42.42 0 0 1-.223.368l-7.401 3.864a.415.415 0 0 1-.608-.368V9.157c0-.15.08-.288.211-.362"/><path fill="#ffd740" d="m20.142 7.527-5.29 3.127a.16.16 0 0 0-.078.137v2.472c0 .12.13.197.236.14l5.29-2.9a.16.16 0 0 0 .083-.139v-2.7a.16.16 0 0 0-.24-.137"/><rect width="2.666" height="12.614" x="10.663" y="8.795" fill="#ff70d9" rx=".415"/><path fill="#960b71" d="M10.663 19.965c-6.592-3.11-7.5-6.866-8.217-9.008v4.8c0 1.514-.077 1.47.394 1.716 2.272 1.192 6.886 3.773 7.338 3.793.654.03.463-1.084.485-1.3" opacity=".2"/></svg>