<svg width="24" height="24" viewBox="0 0 24 24" fill="none" xmlns="http://www.w3.org/2000/svg">
<path d="M5.29761 2.40039V14.7964L13.1066 16.4838C13.5708 6.77796 8.09401 3.05076 5.29761 2.40039Z" fill="#41A5EE"/>
<path d="M18.51 2.40039V14.7964L10.701 16.4838C10.2368 6.77796 15.7136 3.05076 18.51 2.40039Z" fill="#41A5EE"/>
<path d="M4.65116 3.43359L3.53418 4.71015V8.06084L11.8986 14.1543V9.60095C11.6307 6.17253 6.95536 4.06087 4.65116 3.43359Z" fill="#E6EEF3"/>
<path d="M19.1472 3.43359L20.2642 4.71015V8.06084L11.8998 14.1543V9.60096C12.1676 6.17253 16.843 4.06087 19.1472 3.43359Z" fill="#E6EEF3"/>
<path d="M10.462 8.79526L3.06084 4.60476C2.7841 4.44807 2.44116 4.64799 2.44116 4.96602V17.0508C2.44116 17.2054 2.5271 17.3473 2.66417 17.4188L10.0653 21.283C10.3417 21.4273 10.6726 21.2268 10.6726 20.915V9.15651C10.6726 9.00695 10.5922 8.86895 10.462 8.79526Z" fill="#FF8AE0"/>
<path d="M13.538 8.79526L20.9392 4.60476C21.2159 4.44807 21.5588 4.64799 21.5588 4.96602V17.0508C21.5588 17.2054 21.4729 17.3473 21.3358 17.4188L13.9347 21.283C13.6583 21.4273 13.3274 21.2268 13.3274 20.915V9.15651C13.3274 9.00695 13.4078 8.86895 13.538 8.79526Z" fill="#FF8AE0"/>
<path d="M20.1423 7.52689L14.8526 10.6542C14.8042 10.6829 14.7744 10.735 14.7744 10.7914V13.2626C14.7744 13.3836 14.9041 13.4605 15.0103 13.4023L20.3 10.5038C20.351 10.4758 20.3827 10.4223 20.3827 10.3641V7.66403C20.3827 7.54065 20.2485 7.4641 20.1423 7.52689Z" fill="#FFD740"/>
<rect x="10.6633" y="8.79492" width="2.66597" height="12.6138" rx="0.41514" fill="#FF70D9"/>
<path opacity="0.2" d="M10.663 19.9651C4.07108 16.8544 3.16336 13.0989 2.44551 10.957V15.7563C2.44548 17.2713 2.36918 17.2268 2.83993 17.4732C5.11221 18.6647 9.72575 21.2458 10.1784 21.2663C10.8322 21.296 10.6406 20.1816 10.663 19.9651Z" fill="#960B71"/>
</svg>
