<svg xmlns="http://www.w3.org/2000/svg" width="20" height="20" fill="none" viewBox="0 0 20 20"><circle cx="10" cy="10" r="8" fill="#fc4f4f"/><path fill="#d64343" d="M11.794 7.829a.75.75 0 1 1 1.06 1.06l-1.47 1.47 1.47 1.47a.75.75 0 1 1-1.06 1.06l-1.47-1.47-1.47 1.47a.75.75 0 1 1-1.06-1.06l1.47-1.47-1.47-1.47a.75.75 0 1 1 1.06-1.06l1.47 1.47z"/><path fill="#fff" d="M11.47 7.47a.75.75 0 1 1 1.06 1.06L11.06 10l1.47 1.47a.75.75 0 1 1-1.06 1.06L10 11.06l-1.47 1.47a.75.75 0 1 1-1.06-1.06L8.94 10 7.47 8.53a.75.75 0 1 1 1.06-1.06L10 8.94z"/></svg>