<svg xmlns="http://www.w3.org/2000/svg" width="20" height="20" fill="none" viewBox="0 0 20 20"><rect width="7.737" height="4.221" x="6.131" y="2.748" stroke="#c9273a" stroke-width="1.495" rx="1.246"/><path fill="#e63946" d="M3.879 5.183h12.246l-.587 10.002A2.99 2.99 0 0 1 12.552 18H7.45a2.99 2.99 0 0 1-2.985-2.816z"/><path fill="#e63946" d="M2.399 5.83c0-.413.335-.748.749-.748h13.704a.749.749 0 1 1 0 1.497H3.148a.75.75 0 0 1-.75-.749"/><rect width="6.127" height="1.497" x="7.755" y="14.604" fill="#fff" rx=".749" transform="rotate(-90 7.755 14.604)"/><rect width="6.127" height="1.497" x="10.742" y="14.604" fill="#fff" rx=".749" transform="rotate(-90 10.742 14.604)"/></svg>