<svg width="20" height="20" viewBox="0 0 20 20" fill="none" xmlns="http://www.w3.org/2000/svg">
<rect x="6.13143" y="2.74765" width="7.73735" height="4.22108" rx="1.24608" stroke="#C9273A" stroke-width="1.49529"/>
<path d="M3.87864 5.18327H16.1246L15.5378 15.1849C15.445 16.7658 14.136 18.0003 12.5523 18.0003H7.45034C5.86666 18.0003 4.55755 16.7657 4.46488 15.1847L3.87864 5.18327Z" fill="#E63946"/>
<path d="M2.39893 5.83065C2.39893 5.4172 2.73409 5.08203 3.14754 5.08203H16.8524C17.2659 5.08203 17.601 5.4172 17.601 5.83065C17.601 6.2441 17.2659 6.57927 16.8524 6.57927H3.14754C2.73409 6.57927 2.39893 6.2441 2.39893 5.83065Z" fill="#E63946"/>
<rect x="7.75488" y="14.6045" width="6.12719" height="1.49724" rx="0.748619" transform="rotate(-90 7.75488 14.6045)" fill="white"/>
<rect x="10.7417" y="14.6045" width="6.12719" height="1.49724" rx="0.748619" transform="rotate(-90 10.7417 14.6045)" fill="white"/>
</svg>
