<svg xmlns="http://www.w3.org/2000/svg" width="24" height="24" fill="none" viewBox="0 0 24 24"><path fill="#ffd740" d="M17.019 3.797a2.23 2.23 0 0 1 2.229 2.23l.006.744-.002 1.486-.004 6.688a2.23 2.23 0 0 1-2.23 2.23h-6.222v1.54h1.115a.744.744 0 0 1 0 1.487H8.194a.743.743 0 0 1 0-1.486H9.31v-1.54H3.646a2.23 2.23 0 0 1-2.23-2.23v-8.92a2.224 2.224 0 0 1 2.225-2.23z"/><path fill="#fc4f4f" fill-rule="evenodd" d="M19.193 6.547h1.49a2.235 2.235 0 0 1 2.234 2.234v8.938a2.235 2.235 0 0 1-2.235 2.235h-4.468a2.234 2.234 0 0 1-2.235-2.235V8.781a2.234 2.234 0 0 1 2.235-2.234h2.979" clip-rule="evenodd"/><path fill="#ffd740" d="M20.74 17.98c0 .3-.12.586-.335.797-.216.21-.507.33-.811.33h-2.292c-.304 0-.596-.12-.81-.33a1.115 1.115 0 0 1 0-1.592c.214-.211.506-.33.81-.33h2.292c.304 0 .595.119.81.33s.336.497.336.796"/></svg>