<svg xmlns="http://www.w3.org/2000/svg" width="20" height="20" fill="none" viewBox="0 0 20 20"><path fill="#29b6f6" d="m7.434 16.683 9.416-9.416c.65-.65.777-1.33.289-1.818-.45-.45-1.527-1.544-2.268-2.285-.856-.856-1.685-.27-2.065.059L3.39 12.639c-.377.377-.514.764-.536.91-.05.527-.168 1.802-.232 2.697-.063.895.787 1.186 1.22 1.22.673-.073 2.146-.231 2.65-.278.505-.047.839-.357.942-.505"/><mask id="a" width="16" height="16" x="2" y="2" maskUnits="userSpaceOnUse" style="mask-type:alpha"><path fill="#d9d9d9" d="m7.433 16.683 9.416-9.416c.65-.65.777-1.33.289-1.818-.45-.45-1.527-1.544-2.268-2.285-.855-.856-1.685-.27-2.065.059L3.39 12.639c-.378.377-.515.764-.537.91-.05.527-.168 1.802-.232 2.697-.063.895.787 1.186 1.22 1.22.673-.073 2.146-.231 2.65-.278.505-.047.839-.357.942-.505"/></mask><g mask="url(#a)"><path fill="#1565c0" d="m18.83 7.125-5.876-5.876-3.42 3.42 5.875 5.877z"/></g></svg>