<svg xmlns="http://www.w3.org/2000/svg" width="24" height="24" fill="none" viewBox="0 0 24 24"><path fill="#eff3f9" d="M5.162 17.596H19.07v3.523H5.162z"/><path fill="#0588e2" d="m4.48 19.685.063-15.342c.051-1.56 1.369-1.945 2.021-1.943 3.578.003 10.964.007 11.882 0 .918-.006 1.098.758 1.073 1.14v14.068c0 .524-.444.65-.666.647H6.563c-.382.026-1.164.31-1.226 1.235s.792 1.232 1.227 1.27h12.54c.127.03.38.15.376.4-.004.251-.215.398-.32.44H6.564c-1.754 0-2.12-1.277-2.084-1.915"/><mask id="a" width="16" height="20" x="4" y="2" maskUnits="userSpaceOnUse" style="mask-type:alpha"><path fill="#0588e2" d="m4.48 19.685.064-15.342c.051-1.56 1.369-1.945 2.02-1.943 3.579.003 10.965.007 11.883 0 .919-.006 1.098.758 1.073 1.14v14.068c0 .524-.444.65-.666.647H6.564c-.382.026-1.164.31-1.226 1.235s.792 1.232 1.227 1.27h12.54c.127.03.38.15.376.4-.004.251-.215.398-.32.44H6.565c-1.754 0-2.12-1.277-2.084-1.915"/></mask><g mask="url(#a)"><path fill="#0ca0f2" d="M6.336 1.5H19.52v15.603H6.336z"/></g><rect width="9.207" height="3.374" x="8.396" y="5.059" fill="#eff3f9" rx=".521"/><rect width="6.587" height=".911" x="7.462" y="19.082" fill="#cfe0f3" rx=".456"/><rect width="2.15" height=".911" x="14.925" y="19.082" fill="#cfe0f3" rx=".456"/></svg>