<svg width="24" height="24" viewBox="0 0 24 24" fill="none" xmlns="http://www.w3.org/2000/svg">
<path d="M20 22H6C4.89543 22 4 21.1046 4 20M4 20C4 18.8954 4.89543 18 6 18H20V6C20 4.11438 20 3.17157 19.4142 2.58579C18.8284 2 17.8856 2 16 2H10C7.17157 2 5.75736 2 4.87868 2.87868C4 3.75736 4 5.17157 4 8V20Z" fill="#208CDA"/>
<path d="M11.5176 2V10L14.5176 7L17.5176 10V2" fill="white"/>
<path d="M4 19.6393C4 18.7054 4.7581 17.9489 5.69199 17.9508L20 17.9808L19.4327 18.6763C18.8611 19.3771 18.8308 20.3743 19.359 21.1084L20 21.9995H5.68845C4.75594 21.9995 4 21.2436 4 20.3111V19.6393Z" fill="#1D77B7"/>
</svg>
