<svg xmlns="http://www.w3.org/2000/svg" width="20" height="20" fill="none" viewBox="0 0 20 20"><path fill="#eff3f9" d="M4.301 14.663h11.59v2.936H4.301z"/><path fill="#1d77b7" d="m3.733 16.404.053-12.785C3.828 2.319 4.926 1.998 5.47 2c2.982.002 9.136.005 9.902 0 .765-.005.915.631.894.95v11.723c0 .437-.37.541-.555.54H5.47c-.32.021-.97.257-1.023 1.028s.66 1.027 1.023 1.059h10.45c.105.024.316.125.313.334-.003.208-.179.33-.266.366H5.47c-1.461 0-1.767-1.064-1.737-1.596"/><mask id="a" width="14" height="16" x="3" y="2" maskUnits="userSpaceOnUse" style="mask-type:alpha"><path fill="#d64343" d="m3.734 16.404.053-12.785C3.83 2.32 4.927 1.998 5.471 2c2.982.002 9.137.005 9.902 0s.915.631.894.95v11.723c0 .437-.37.542-.555.54H5.472c-.32.021-.971.257-1.024 1.028-.052.771.66 1.027 1.023 1.059h10.45c.106.024.317.125.313.334-.003.208-.179.33-.266.366H5.471c-1.461 0-1.766-1.064-1.737-1.596"/></mask><g mask="url(#a)"><path fill="#208cda" d="M5.28 2h10.987v12.254H5.28z"/></g><rect width="5.489" height=".759" x="6.218" y="15.902" fill="#cfe0f3" rx=".38"/><rect width="1.792" height=".759" x="12.437" y="15.902" fill="#cfe0f3" rx=".38"/><path fill="#fff" d="M9.228 2v6.667l2.5-2.5 2.5 2.5V2"/></svg>