<svg xmlns="http://www.w3.org/2000/svg" viewBox="0 0 20 20" width="20" height="20" fill="none"><circle cx="10" cy="9.993" r="9" fill="#ffd740"/><path fill="#ffbf40" fill-rule="evenodd" d="M18.045 6.011c.61 1.21.955 2.575.955 4.02 0 4.957-4.03 8.976-9 8.976s-9-4.019-9-8.975v-.034a8.9 8.9 0 0 0 .849 3.78 9 9 0 0 0 7.868 4.613c4.97 0 9-4.019 9-8.975 0-1.206-.24-2.355-.672-3.405" clip-rule="evenodd"/><path fill="#ffb217" d="M6.067 15.174 11.88 13.3q.525-.177.888-.542a2.3 2.3 0 0 0 .541-.887l1.878-5.819a.52.52 0 0 0-.144-.553.52.52 0 0 0-.555-.137L8.674 7.237q-.524.177-.888.542a2.3 2.3 0 0 0-.542.887l-1.878 5.819a.515.515 0 0 0 .145.554.52.52 0 0 0 .555.136m4.204-3.385q-.636 0-1.075-.445a1.48 1.48 0 0 1-.44-1.083q0-.635.445-1.075.447-.44 1.082-.44.637 0 1.077.446t.44 1.082q0 .636-.447 1.077a1.5 1.5 0 0 1-1.082.438"/><path fill="#fa4715" d="m5.749 14.855 5.811-1.873q.525-.177.888-.541a2.3 2.3 0 0 0 .541-.888l1.878-5.819a.52.52 0 0 0-.144-.553.52.52 0 0 0-.555-.137L8.355 6.918q-.524.177-.888.542a2.3 2.3 0 0 0-.541.888l-1.878 5.818a.515.515 0 0 0 .144.554.52.52 0 0 0 .555.136m4.204-3.385q-.636 0-1.075-.445a1.48 1.48 0 0 1-.44-1.083q0-.635.445-1.074.446-.44 1.082-.44.638 0 1.077.445.44.446.44 1.082-.001.636-.446 1.077a1.5 1.5 0 0 1-1.083.438"/><circle cx="9.957" cy="9.95" r=".699" fill="#fa4715"/></svg>