<svg xmlns="http://www.w3.org/2000/svg" width="24" height="24" fill="none" viewBox="0 0 24 24"><path fill="#ffd740" d="M5.17 20.202c-.85-1.055-.85-2.612-.85-5.727V5.434a3 3 0 0 1 3-3h5.673c2.968.01 4.545.105 5.562 1.123 1.125 1.125 1.125 2.935 1.125 6.554v3.21c0 .785 0 1.178-.146 1.53-.147.353-.424.63-.98 1.186l-4.546 4.547-.013.013c-.47.47-.708.706-1.003.847q-.093.045-.189.078c-.31.11-.649.11-1.326.11-3.115 0-4.67 0-5.728-.851a4 4 0 0 1-.579-.58"/><path fill="#fa9d03" d="M13.16 21.359v-.477c0-2.695 0-4.042.837-4.879.837-.838 2.185-.838 4.88-.838h.476"/><path fill="#fa4715" d="M4.392 5.266a2.8 2.8 0 0 1 .869-2.042 2.8 2.8 0 0 1 2.06-.823 2.8 2.8 0 0 1 2.043.87q.836.855.823 2.06l-.048 4.289a2.01 2.01 0 0 1-.626 1.47 2 2 0 0 1-1.484.592 2.02 2.02 0 0 1-1.471-.624 2 2 0 0 1-.592-1.485l.046-4.057a1.23 1.23 0 0 1 .38-.9 1.23 1.23 0 0 1 .909-.36q.533.005.9.38.366.375.36.909L8.52 9.37a.45.45 0 0 1-.138.329.45.45 0 0 1-.331.129.45.45 0 0 1-.459-.469l.043-3.825a.337.337 0 0 0-.344-.351.337.337 0 0 0-.351.344l-.046 4.056q.006.487.333.827a1.1 1.1 0 0 0 .813.345q.487.006.827-.327.339-.332.345-.819l.049-4.288a1.85 1.85 0 0 0-.553-1.403 1.92 1.92 0 0 0-1.396-.59 1.87 1.87 0 0 0-1.385.559 2 2 0 0 0-.607 1.39l-.046 4.056a.45.45 0 0 1-.137.33.45.45 0 0 1-.332.129.45.45 0 0 1-.458-.47z"/></svg>