<svg xmlns="http://www.w3.org/2000/svg" width="24" height="24" fill="none" viewBox="0 0 24 24"><path fill="#2196f3" d="M22.002 11.998c0 5.524-4.478 10.002-10 10.002-5.525 0-10.004-4.478-10.004-10.002S6.477 1.996 12 1.996s10.002 4.477 10.002 10.002"/><mask id="a" width="22" height="21" x="1" y="1" maskUnits="userSpaceOnUse" style="mask-type:luminance"><path fill="#fff" d="M22.002 11.998c0 5.524-4.478 10.002-10 10.002-5.525 0-10.004-4.478-10.004-10.002S6.477 1.996 12 1.996s10.002 4.477 10.002 10.002"/></mask><g fill="#6bffa4" mask="url(#a)"><path d="M21.804 7.666c-.094-.209-.144-.471-.264-.666-.177-.29-.495-.476-.693-.751-.31-.431-.305-1.003-.599-1.44-.237-.355-.483-.63-.765-.955-.192-.223-.583-.66-.834-.802-.175-.097-.41-.092-.597-.135-.363-.083-.733-.159-1.096-.236-.106-.023-.213-.023-.322-.023-.147 0-.287.025-.433.023-.602-.001-1.083.481-1.685.495a2.4 2.4 0 0 1-.398-.022c-.158-.023-.224-.094-.334-.205a.7.7 0 0 0-.346-.195c-.132-.033-.281-.022-.423-.022s-.232 0-.322-.1c-.05-.059-.092-.116-.17-.142-.072-.025-.136-.007-.212-.016-.356-.046-.685-.027-1.045-.013-.403.018-.78.176-1.139.356-.306.154-1.296.449-1.362.832-.029.162.033.172.149.238.267.149.569.196.878.204.109.003.203.027.313.027.171 0 .316-.013.442-.134.097-.094.17-.209.242-.322.146-.228.305-.478.594-.528.067-.013.149.005.193.064.055.077 0 .145-.03.216-.113.275-.163.635-.405.836-.32.264-.849.118-1.218.072-.396-.049-.517.005-.802.303-.147.157-.312.318-.518.398-.184.072-.374-.035-.55.028-.066.024-.1.082-.18.038-.067-.035-.089-.113-.072-.182.02-.076.05-.106.062-.183.036-.251-.107-.356-.252-.537-.048-.063-.055-.102-.135-.137-.171-.074-.292-.019-.38.127-.043.07-.08.16-.15.206-.092.063-.17.013-.268.036-.105.027-.223.16-.255.261-.014.047-.01.39.027.398.105.02.214.001.319.02.031.178-.046.464.152.555.107.05.305.096.415.044.068-.031.231-.247.315-.178.128.112.036.395-.002.535-.058.209-.264.185-.446.171-.073-.005-.143-.017-.216-.028-.06-.01-.127-.07-.188-.068-.143.003-.258.297-.299.406-.072.191-.136.48-.036.675.107.208.31.142.505.162.196.02.364.033.559-.022a1.1 1.1 0 0 0 .418-.242c.302-.289 1.373-1.312 1.64-.48.056.172.008.37.078.534.116.282.425-.002.543-.126.256-.267.18-.294-.012-.53-.107-.132-.033-.292.124-.306.298-.027.432.226.543.459.05.102.057.251.165.303a.63.63 0 0 0 .4.031c.173-.05.254-.213.44-.23.125-.013.232.047.333.111.085.053.129.115.12.218-.007.084-.065.142-.046.227.033.14.184.218.31.245.3.063.601-.044.895-.077a.55.55 0 0 1 .423.111c.18.147.3.426.105.615-.165.159-.599.083-.806.083-.414 0-.872-.225-1.28-.104a6 6 0 0 0-.358.123c-.404.154-.963.171-1.367.014-.319-.126-.845-.358-1.087-.605-.08-.083-.102-.173-.217-.237-.23-.127-.506-.076-.742.006-.333.115-.697.203-1.013.338-.447.192-1.074.638-1.364 1.028-.35.468-.55 1.2-.648 1.758-.047.277-.177.519-.108.819.072.3.207.713.399.941.405.48.971.668 1.584.625.548-.039 1.133-.152 1.633.15.543.328.603.918.782 1.466.154.468.42.828.41 1.339-.007.562-.17 1.152.114 1.676.25.462.498 1.077.931 1.397.538.395 1.688.48 2.178-.012.21-.21.43-.51.579-.77.177-.31.227-.643.375-.945.14-.289.473-.454.618-.748.118-.237.162-.556.15-.82-.009-.278-.128-.48-.135-.751-.01-.352.022-.567.27-.823.467-.484 2.526-1.853 1.033-2.296-.503-.15-.721-.434-1.05-.828a12 12 0 0 1-.787-1.04 2.6 2.6 0 0 1-.38-.832c-.05-.23.165-.473.386-.26.098.095.188.282.249.395.171.327.391.596.602.886.273.382.539.9.972 1.12.685.342 2.595-1.343 1.4-1.641-.226-.057-.474-.102-.656-.261-.118-.102-.42-.512-.192-.597a.4.4 0 0 1 .242-.025c.082.017.174.088.243.129.103.06.183.132.274.207.075.061.159.096.243.143.095.052.176.137.272.184.282.135.582.061.875.093.282.03.546.229.703.458.363.533.332 1.05.493 1.64.082.293.26.534.613.55.35.015.47-.328.478-.62.006-.253-.046-.547.052-.767.107-.239.317-.369.512-.53.494-.41.745-.835.736-1.487-.008-.451-.228-.712-.414-1.116M13.9 6.599a.6.6 0 0 0-.139-.04c-.058-.009-.097-.026-.16-.015-.07.011-.143.04-.212.052-.076.014-.151.075-.231.055-.255-.065.015-.501.12-.59.098-.08.21-.087.33-.094.183-.01.32-.114.494-.01a.4.4 0 0 1 .1.101c.057.08.086.172.127.261a.6.6 0 0 1 .055.24c.001.197-.19.167-.316.115-.063-.026-.115-.053-.168-.075m2.517.588c-.162-.112-.258-.322-.29-.503-.015-.094-.026-.19-.043-.281-.018-.085-.01-.194.048-.263.046-.052.153-.08.22-.077.208.01.162.281.275.388.101.095.255.195.29.337.048.21-.103.53-.359.465a.5.5 0 0 1-.141-.066"/><path d="M16.125 16.435c-.182-.072-.4.06-.542.163-.07.05-.148.096-.212.15-.079.062-.095.165-.121.257-.032.113-.102.222-.118.333-.04.275-.008.725.396.654.29-.05.473-.402.577-.64.058-.128.23-.834.02-.917"/></g></svg>