<svg xmlns="http://www.w3.org/2000/svg" width="20" height="20" fill="none" viewBox="0 0 20 20"><path fill="#eff3f9" d="M3.801 14.663h12.967v2.936H3.801z"/><path fill="#d64343" d="M3.233 16.404 3.29 3.619C3.336 2.32 4.522 1.998 5.11 2c3.22.002 9.866.005 10.693 0 .826-.005.987.631.965.95v11.723c0 .437-.4.542-.6.54H5.11c-.345.021-1.048.257-1.105 1.028s.713 1.027 1.105 1.059h11.284c.114.024.342.125.339.334-.004.208-.194.33-.288.366H5.109C3.53 18 3.2 16.936 3.233 16.404"/><mask id="a" width="14" height="16" x="3" y="2" maskUnits="userSpaceOnUse" style="mask-type:alpha"><path fill="#d64343" d="m3.234 16.404.053-12.785C3.33 2.32 4.427 1.998 4.971 2c2.982.002 10.137.005 10.902 0s.915.631.894.95v11.723c0 .437-.37.542-.555.54H4.972c-.32.021-.971.257-1.024 1.028-.052.771.66 1.027 1.023 1.059h11.45c.106.024.317.125.313.334-.003.208-.179.33-.266.366H4.97c-1.461 0-1.767-1.064-1.737-1.596"/></mask><g mask="url(#a)"><path fill="#fa4715" d="M4.78 2h11.987v12.254H4.78z"/></g><rect width="5.489" height=".759" x="5.718" y="15.902" fill="#f3cfd4" rx=".38"/><rect width="1.792" height=".759" x="11.937" y="15.902" fill="#f3cfd4" rx=".38"/><path fill="#ffd740" d="M10.026 4.885c.25 0 .424.157.563.338.139.18.286.446.465.767l.094.17c.114.204.142.244.174.268.024.018.052.03.159.056l.135.032.184.042c.347.078.635.143.844.225.2.08.38.195.463.404l.015.043c.073.234-.01.449-.133.645a5 5 0 0 1-.385.5l-.17.199-.125.146c-.15.175-.178.215-.191.258s-.014.096.009.33l.02.195c.035.37.065.674.055.904s-.063.458-.259.607c-.2.151-.431.133-.65.07a4.5 4.5 0 0 1-.576-.229l-.405-.185c-.209-.097-.249-.11-.286-.11s-.077.013-.285.11l-.172.079c-.325.15-.595.274-.81.336-.218.062-.45.08-.649-.07-.196-.15-.249-.377-.26-.608-.01-.23.02-.534.056-.904l.02-.195.012-.145a.5.5 0 0 0-.003-.184v-.001c-.013-.043-.041-.082-.191-.258l-.126-.146c-.237-.278-.433-.505-.554-.699-.124-.196-.206-.41-.134-.645.074-.237.265-.363.479-.447.209-.082.497-.147.844-.225l.184-.042.135-.031c.106-.026.135-.04.159-.057.032-.025.059-.063.173-.269L9 5.99l.129-.23c.123-.218.232-.4.336-.536.138-.181.313-.338.562-.338"/></svg>