<svg xmlns="http://www.w3.org/2000/svg" width="24" height="24" fill="none" viewBox="0 0 24 24"><path fill="#07c" d="M11.5 2.917a.78.78 0 0 1 1.086.003l8.798 8.607a.78.78 0 0 1-.545 1.336h-1.212a.78.78 0 0 0-.775.711l-.648 7.316a.78.78 0 0 1-.776.71H6.52a.78.78 0 0 1-.779-.734l-.422-7.269a.78.78 0 0 0-.777-.734H3.164a.78.78 0 0 1-.542-1.339zm.405 12.054c-.86 0-1.558.697-1.558 1.558v1.973c0 .86.698 1.558 1.558 1.558h.196c.86 0 1.558-.698 1.558-1.558v-1.973a1.56 1.56 0 0 0-1.558-1.559z"/><path fill="#005999" d="M5.319 13.607c-.11-.662-1.074-.816-1.574-1.007 5.717 0 17.164-.262 16.605.002-.556.262-1.311.318-1.497 1.005z"/><path fill="#41a5ee" d="m12.59 2.931 8.798 8.608a.78.78 0 0 1-.545 1.336H3.17a.78.78 0 0 1-.542-1.339l8.876-8.607a.78.78 0 0 1 1.088.002"/><path fill="#97d0f9" d="M13.62 6.628a.467.467 0 0 1 .66-.04l2.385 2.12a.469.469 0 0 1-.622.7l-2.385-2.12a.467.467 0 0 1-.038-.66"/></svg>