<svg xmlns="http://www.w3.org/2000/svg" width="20" height="20" fill="none" viewBox="0 0 20 20"><path fill="#fff" d="M2.292 2.292h15.417v15.417H2.292z"/><circle cx="10.316" cy="9.319" r="3.373" fill="#fc4f4f"/><path fill="#ffd740" d="M16.966 9.335a.603.603 0 0 1 .742.587v6.723c0 .333-.27.603-.603.603H2.895a.603.603 0 0 1-.41-1.045c2.815-2.61 8.895-5.546 14.481-6.868"/><path stroke="#0bb01b" stroke-linecap="round" stroke-linejoin="round" stroke-width="1.3" d="M16.042 2.292H3.958c-.92 0-1.666.746-1.666 1.666v12.084c0 .92.746 1.666 1.666 1.666h12.084c.92 0 1.666-.746 1.666-1.666V3.958c0-.92-.746-1.666-1.666-1.666"/></svg>