<svg xmlns="http://www.w3.org/2000/svg" width="20" height="20" fill="none" viewBox="0 0 20 20"><path fill="#fa4715" fill-rule="evenodd" d="M12.824 2.842c2.54 0 4.601 2.051 4.601 4.582s-2.06 4.582-4.601 4.582c-.464 0-1.518-.107-2.031-.533l-1.4 1.419.913.914a1.275 1.275 0 1 1-1.804 1.804l-.9-.902-.499.508.72.72a1.215 1.215 0 1 1-1.719 1.72l-.707-.709-.17.174c-.513.512-1.14.213-1.39 0l-.642-.64c-.6-.597-.25-1.243 0-1.492l5.563-5.54a4.16 4.16 0 0 1-.534-2.025c0-2.53 2.059-4.582 4.6-4.582m.05 1.875a2.726 2.726 0 0 0-2.73 2.72 2.726 2.726 0 0 0 2.73 2.72 2.727 2.727 0 0 0 2.732-2.72 2.73 2.73 0 0 0-2.731-2.72" clip-rule="evenodd"/><path fill="#ffc107" fill-rule="evenodd" d="M12.535 2.249c2.54 0 4.6 2.051 4.601 4.582 0 2.53-2.06 4.582-4.601 4.582-.464 0-1.518-.107-2.032-.533l-1.545 1.567 1.076 1.076a1.102 1.102 0 1 1-1.559 1.56L7.41 14.018l-.744.755.832.832a1.005 1.005 0 1 1-1.42 1.42l-.822-.821-.318.324c-.513.512-1.141.214-1.39 0l-.642-.64c-.6-.596-.25-1.243 0-1.492l5.563-5.54a4.16 4.16 0 0 1-.534-2.025c0-2.53 2.059-4.582 4.6-4.582m.05 1.875a2.726 2.726 0 0 0-2.73 2.72 2.726 2.726 0 0 0 2.73 2.72 2.727 2.727 0 0 0 2.732-2.72 2.73 2.73 0 0 0-2.732-2.72" clip-rule="evenodd"/><ellipse cx="6.116" cy="12.351" fill="#fee486" rx=".263" ry="3.914" transform="rotate(45.302 6.116 12.351)"/><path fill="#fee486" d="M16.559 6.225c-.141.14-.337-1.02-1.288-1.981-.95-.961-2.295-1.358-2.155-1.498s1.597.08 2.548 1.041c.95.96 1.036 2.299.895 2.438"/></svg>