<svg xmlns="http://www.w3.org/2000/svg" width="20" height="20" fill="none" viewBox="0 0 20 20"><path fill="#fc4f4f" d="M1.068 13.426v3.046c0 .684.555 1.24 1.24 1.24h15.384a1.24 1.24 0 0 0 1.24-1.24V3.24A1.24 1.24 0 0 0 17.692 2h-4.989a.96.96 0 0 0-.97.952v4.285H7.37a.96.96 0 0 0-.968.953v4.286H2.036a.96.96 0 0 0-.968.95"/><path fill="#d64343" d="M17.76 2h.172a1 1 0 0 1 1 1v13.712a1 1 0 0 1-1 1h-.172zM1.068 13.324c0-.462.375-.837.837-.837h4.501v.837zM6.433 8.098c0-.463.375-.838.837-.838h4.5v.838z"/></svg>