<svg xmlns="http://www.w3.org/2000/svg" width="24" height="24" fill="none" viewBox="0 0 24 24"><circle cx="5.4" cy="5.195" r="2.795" fill="#159ce4"/><rect width="12.19" height="3.447" x="9.205" y="3.472" fill="#159ce4" rx="1.724"/><mask id="a" width="13" height="4" x="9" y="3" maskUnits="userSpaceOnUse" style="mask-type:alpha"><rect width="12.19" height="3.447" x="9.205" y="3.471" fill="#159ce4" rx="1.724"/></mask><g mask="url(#a)"><path fill="#4dbbeb" d="M9.205 3.471h6.205v3.447H9.205z"/></g><circle cx="5.4" cy="12" r="2.795" fill="#159ce4"/><rect width="12.19" height="3.447" x="9.205" y="10.276" fill="#159ce4" rx="1.724"/><mask id="b" width="13" height="4" x="9" y="10" maskUnits="userSpaceOnUse" style="mask-type:alpha"><rect width="12.19" height="3.447" x="9.205" y="10.276" fill="#159ce4" rx="1.724"/></mask><g mask="url(#b)"><path fill="#4dbbeb" d="M9.205 10.276h6.205v3.447H9.205z"/></g><circle cx="5.4" cy="18.805" r="2.795" fill="#159ce4"/><rect width="12.19" height="3.447" x="9.205" y="17.081" fill="#159ce4" rx="1.724"/><mask id="c" width="13" height="4" x="9" y="17" maskUnits="userSpaceOnUse" style="mask-type:alpha"><rect width="12.19" height="3.447" x="9.205" y="17.081" fill="#159ce4" rx="1.724"/></mask><g mask="url(#c)"><path fill="#4dbbeb" d="M9.205 17.081h6.205v3.447H9.205z"/></g></svg>