<svg xmlns="http://www.w3.org/2000/svg" width="24" height="24" fill="none" viewBox="0 0 24 24"><path fill="#0362fa" d="M10.359 4.967c-.376-.384-1.815-1.73-2.03-1.931-.5-.47-.898-.728-1.39-.607l-2.952.539c-.493.123-.898.663-.898 1.202v15.659c0 .538.405 1.079.898 1.202l2.951.538c.493.123.891-.135 1.391-.605.214-.201 1.653-1.546 2.03-1.93.248-.255.4-.62.4-1V16.79a.18.18 0 0 0-.308-.126l-2.565 2.624V4.712l2.565 2.626a.18.18 0 0 0 .309-.126V5.967a1.44 1.44 0 0 0-.402-1"/><path fill="#409cff" d="M16.111 10.081v-2.88l4.8 4.8-4.8 4.8v-2.88h-5.76v-3.84z"/><path fill="#0362fa" d="M10.357 10.744v-.665h5.766v.665zM16.13 8.135l-.027-.935 4.796 4.798-.47.47z"/></svg>