<svg xmlns="http://www.w3.org/2000/svg" width="20" height="20" fill="none" viewBox="0 0 20 20"><path fill="#24983f" d="M18.284 10.997a2.19 2.19 0 0 1-.95 1.801 7.569 7.569 0 0 1-14.67 0 2.184 2.184 0 0 1-.614-2.961c.159-.253.367-.47.611-.637a7.57 7.57 0 0 1 7.316-5.77c3.32-.233 5.509 2.009 6.232 3.211a7.6 7.6 0 0 1 1.13 2.56 2.18 2.18 0 0 1 .945 1.796"/><path stroke="#24983f" stroke-linecap="round" stroke-linejoin="round" stroke-width="1.036" d="M10.3 1.5c-.351 0-.688.137-.937.382a1.3 1.3 0 0 0-.388.922c0 .346.14.678.388.922.249.245.586.383.938.383"/><path fill="#fff" d="M8.747 8.708a1.792 1.792 0 1 0-3.583 0h.664a1.128 1.128 0 1 1 2.255 0zM14.722 8.694a1.792 1.792 0 0 0-3.584 0h.664a1.128 1.128 0 0 1 2.255 0zM14.722 11.28a4.721 4.721 0 1 1-9.443 0h9.443"/></svg>