<svg xmlns="http://www.w3.org/2000/svg" width="20" height="20" fill="none" viewBox="0 0 20 20"><rect width="12.118" height="14.898" x="5.188" y="3.102" fill="#1fa5bc" rx="1.042"/><rect width="12.118" height="14.898" x="4.793" y="2.499" fill="#e7f2f1" rx="1.042"/><mask id="a" width="13" height="16" x="4" y="2" maskUnits="userSpaceOnUse" style="mask-type:alpha"><rect width="12.118" height="14.898" x="4.793" y="2.499" fill="#e7f2f1" rx="1.042"/></mask><g mask="url(#a)"><path fill="#d6eae8" d="m17.646 18.528-3.15-3.938-10.8.3v3.637z"/></g><rect width="12.118" height="14.898" x="4.376" y="2" fill="#1fa5bc" rx="1.042"/><circle cx="5.796" cy="12.407" r=".547" fill="#168598"/><circle cx="5.796" cy="8.518" r=".547" fill="#168598"/><circle cx="5.796" cy="4.627" r=".547" fill="#168598"/><path fill="#655f68" d="M5.61 12.67a.334.334 0 0 0 .3-.596l-.15.297zm-1.562 1.66h.334v-.667h-.334v.667M5.76 12.37l.15-.297c-1.683-.851-2.955-.51-3.403.342-.215.41-.2.903.084 1.293.282.39.79.621 1.457.62v-.666c-.518 0-.794-.176-.918-.346a.55.55 0 0 1-.032-.59c.194-.37.963-.84 2.511-.058zM5.61 8.78a.333.333 0 0 0 .3-.596l-.15.298zm-1.562 1.66h.334v-.667h-.334v.667M5.76 8.482l.15-.298c-1.683-.85-2.955-.51-3.403.343-.215.41-.2.903.084 1.292.282.39.79.621 1.457.621v-.667c-.518 0-.794-.175-.918-.346a.55.55 0 0 1-.032-.59c.194-.37.963-.84 2.511-.058zM5.61 4.889a.333.333 0 0 0 .3-.595l-.15.297zm-1.562 1.66h.334v-.666h-.334v.667M5.76 4.592l.15-.297c-1.683-.852-2.955-.51-3.403.342-.215.41-.2.903.084 1.293.282.39.79.62 1.457.62v-.666c-.518 0-.794-.176-.918-.346a.55.55 0 0 1-.032-.59c.194-.37.963-.84 2.511-.058z"/><rect width="6.526" height=".987" x="8.11" y="4.133" fill="#f5f5f5" rx=".494"/><rect width="4.671" height=".987" x="8.11" y="6.058" fill="#f5f5f5" rx=".494"/></svg>
