<svg xmlns="http://www.w3.org/2000/svg" width="24" height="24" fill="none" viewBox="0 0 24 24"><rect width="12.08" height="14.855" x="7.992" y="3.258" fill="#07c" rx=".727" transform="rotate(22.45 7.992 3.258)"/><path fill="#005999" d="M7.337 7.116 7.01 18.93l2.359.95V6.08c-1.726-.02-2.036.177-2.032 1.035"/><rect width="13.628" height="15.288" x="8.053" y="6.09" fill="#ffd740" rx=".727"/><rect width="11.511" height="1.407" x="9.117" y="9.572" fill="#ffa000" rx=".703"/><rect width="9.427" height="1.407" x="9.113" y="12.59" fill="#ffa000" rx=".703"/><rect width="5.819" height="1.407" x="9.113" y="15.396" fill="#ffa000" rx=".703"/><path fill="#07c" d="M14.862 7.422a.16.16 0 0 1-.153-.16c0-.043.014-.085.042-.115l.166-.177 2.985-3.196.166-.179a.4.4 0 0 1 .303-.13c.115.003.23.056.314.145a.45.45 0 0 1 .129.32.4.4 0 0 1-.143.296l-.184.158-3.325 2.842-.185.158a.17.17 0 0 1-.115.038"/><circle cx="18.132" cy="3.911" r="1.511" fill="#ff736c"/></svg>