<svg width="20" height="20" viewBox="0 0 20 20" fill="none" xmlns="http://www.w3.org/2000/svg">
<rect x="5.18799" y="3.10156" width="12.118" height="14.8982" rx="1.04158" fill="#1FA5BC"/>
<rect x="4.79346" y="2.49902" width="12.118" height="14.8982" rx="1.04158" fill="#E7F2F1"/>
<mask id="mask0_15807_10310" style="mask-type:alpha" maskUnits="userSpaceOnUse" x="4" y="2" width="13" height="16">
<rect x="4.79346" y="2.49902" width="12.118" height="14.8982" rx="1.04158" fill="#E7F2F1"/>
</mask>
<g mask="url(#mask0_15807_10310)">
<path d="M17.6459 18.5275L14.4958 14.5898L3.69531 14.8899V18.5275H17.6459Z" fill="#D6EAE8"/>
</g>
<rect x="4.37646" y="2" width="12.118" height="14.8982" rx="1.04158" fill="#1FA5BC"/>
<circle cx="5.79607" cy="12.4074" r="0.547046" fill="#168598"/>
<circle cx="5.79607" cy="8.51775" r="0.547046" fill="#168598"/>
<circle cx="5.79607" cy="4.62712" r="0.547046" fill="#168598"/>
<path d="M5.60937 12.6691C5.77373 12.7522 5.97435 12.6863 6.05746 12.522C6.14057 12.3576 6.0747 12.157 5.91034 12.0739L5.75985 12.3715L5.60937 12.6691ZM4.04839 14.3299L4.38188 14.3298L4.38177 13.6629L4.04828 13.6629L4.04833 13.9964L4.04839 14.3299ZM5.75985 12.3715L5.91034 12.0739C4.22699 11.2227 2.95464 11.5644 2.50735 12.4163C2.29215 12.8262 2.30789 13.3194 2.59053 13.7088C2.8733 14.0984 3.38069 14.33 4.04839 14.3299L4.04833 13.9964L4.04828 13.6629C3.52968 13.663 3.25395 13.4874 3.13031 13.317C3.00653 13.1465 2.99256 12.927 3.09789 12.7264C3.29166 12.3573 4.06137 11.8863 5.60937 12.6691L5.75985 12.3715Z" fill="#655F68"/>
<path d="M5.60937 8.77944C5.77373 8.86255 5.97435 8.79668 6.05746 8.63232C6.14057 8.46796 6.0747 8.26734 5.91034 8.18423L5.75985 8.48184L5.60937 8.77944ZM4.04839 10.4402L4.38188 10.4402L4.38177 9.77322L4.04828 9.77327L4.04833 10.1068L4.04839 10.4402ZM5.75985 8.48184L5.91034 8.18423C4.22699 7.33305 2.95464 7.67475 2.50735 8.5267C2.29215 8.9366 2.30789 9.42975 2.59053 9.81915C2.8733 10.2087 3.38069 10.4404 4.04839 10.4402L4.04833 10.1068L4.04828 9.77327C3.52968 9.77335 3.25395 9.59771 3.13031 9.42736C3.00653 9.25683 2.99256 9.03736 3.09789 8.83674C3.29166 8.46765 4.06137 7.9967 5.60937 8.77944L5.75985 8.48184Z" fill="#655F68"/>
<path d="M5.60937 4.88882C5.77373 4.97193 5.97435 4.90606 6.05746 4.7417C6.14057 4.57733 6.0747 4.37672 5.91034 4.29361L5.75985 4.59121L5.60937 4.88882ZM4.04839 6.54962L4.38188 6.54957L4.38177 5.88259L4.04828 5.88264L4.04833 6.21613L4.04839 6.54962ZM5.75985 4.59121L5.91034 4.29361C4.22699 3.44243 2.95464 3.78412 2.50735 4.63607C2.29215 5.04598 2.30789 5.53912 2.59053 5.92852C2.8733 6.31811 3.38069 6.54973 4.04839 6.54962L4.04833 6.21613L4.04828 5.88264C3.52968 5.88273 3.25395 5.70708 3.13031 5.53674C3.00653 5.3662 2.99256 5.14673 3.09789 4.94612C3.29166 4.57703 4.06137 4.10608 5.60937 4.88882L5.75985 4.59121Z" fill="#655F68"/>
<rect x="8.10986" y="4.13281" width="6.52564" height="0.987353" rx="0.493676" fill="#F5F5F5"/>
<rect x="8.10986" y="6.05762" width="4.67147" height="0.987353" rx="0.493676" fill="#F5F5F5"/>
</svg>
