<svg xmlns="http://www.w3.org/2000/svg" width="16" height="16" fill="none" viewBox="0 0 16 16"><rect width="1.268" height="2.278" x="7.369" y=".8" fill="#fa9d03" rx=".634"/><circle cx="8.005" cy="12.804" r="2.395" fill="#fa9d03"/><path fill="#ffc107" d="M3.7 6.24a4.3 4.3 0 0 1 8.602 0v2.265a4.3 4.3 0 0 1-8.601 0z"/><path fill="#ffc107" fill-rule="evenodd" d="m8.001 5.147 4.27 2.692c-.059.813.113 2.626 1.267 3.375 1.444.936.449 1.951 0 1.99-.36.031-3.84.116-5.537.154-1.698-.038-5.18-.123-5.539-.154-.448-.04-1.443-1.054 0-1.99 1.155-.75 1.327-2.562 1.269-3.375z" clip-rule="evenodd"/></svg>
