<svg width="16" height="16" viewBox="0 0 16 16" fill="none" xmlns="http://www.w3.org/2000/svg">
<rect x="7.36865" y="0.800781" width="1.26804" height="2.27777" rx="0.634019" fill="#FA9D03"/>
<circle cx="8.00456" cy="12.8053" r="2.39518" fill="#FA9D03"/>
<path d="M3.70068 6.24031C3.70068 3.86502 5.62624 1.93945 8.00154 1.93945C10.3768 1.93945 12.3024 3.86501 12.3024 6.24031V8.50543C12.3024 10.8807 10.3768 12.8063 8.00154 12.8063C5.62624 12.8063 3.70068 10.8807 3.70068 8.50544V6.24031Z" fill="#FFC107"/>
<path fill-rule="evenodd" clip-rule="evenodd" d="M8.00116 5.14844L12.2707 7.83984C12.2123 8.65261 12.3836 10.4657 13.5383 11.2148C14.9818 12.1512 13.9867 13.1661 13.5383 13.2051C13.1776 13.2363 9.69783 13.3206 8.00116 13.3594H8.00019C6.3031 13.3206 2.82078 13.2363 2.4621 13.2051C2.01359 13.1658 1.019 12.151 2.4621 11.2148C3.61695 10.4657 3.78908 8.65266 3.73065 7.83984L8.00019 5.14844H8.00116Z" fill="#FFC107"/>
</svg>
