<svg xmlns="http://www.w3.org/2000/svg" width="20" height="20" fill="none" viewBox="0 0 20 20"><rect width="1.585" height="2.847" x="9.211" y="1" fill="#fa9d03" rx=".793"/><circle cx="10.005" cy="16.006" r="2.994" fill="#fa9d03"/><path fill="#ffc107" d="M4.626 7.8a5.376 5.376 0 1 1 10.752 0v2.831a5.376 5.376 0 1 1-10.752 0z"/><path fill="#ffc107" fill-rule="evenodd" d="M10.001 6.435 15.337 9.8c-.073 1.016.143 3.282 1.586 4.219 1.804 1.17.56 2.438 0 2.487-.448.039-4.8.145-6.922.193l-.002.001c-2.121-.05-6.473-.155-6.922-.194-.56-.05-1.804-1.317 0-2.487 1.444-.937 1.658-3.203 1.585-4.22z" clip-rule="evenodd"/></svg>