<svg xmlns="http://www.w3.org/2000/svg" width="20" height="20" fill="none" viewBox="0 0 20 20"><path fill="#0bb01b" d="M4.747 9.437v4.734s.473 1.893 5.206 1.893 5.207-1.893 5.207-1.893V9.437"/><mask id="a" width="12" height="10" x="4" y="7" maskUnits="userSpaceOnUse" style="mask-type:alpha"><path fill="#0bb01b" d="M4.747 7.314v6.25s.473 2.5 5.206 2.5 5.207-2.5 5.207-2.5v-6.25"/></mask><g mask="url(#a)"><path fill="#007e0c" fill-rule="evenodd" d="M4.747 9.164v1.296l4.582 2.036a1.9 1.9 0 0 0 1.544 0l4.334-1.926V9.274L10.873 11.2a1.9 1.9 0 0 1-1.544 0z" clip-rule="evenodd"/></g><path fill="#15d441" d="m2.231 7.189 6.954-3.09a1.9 1.9 0 0 1 1.537 0l6.954 3.09a.389.389 0 0 1 0 .71l-6.954 3.09a1.9 1.9 0 0 1-1.537 0L2.23 7.899a.388.388 0 0 1 0-.71m15.77.355v3.787z"/><path stroke="#15d441" stroke-linecap="round" stroke-linejoin="round" d="M18 7.544v3.787M2.231 7.189l6.954-3.09a1.9 1.9 0 0 1 1.537 0l6.954 3.09a.389.389 0 0 1 0 .71l-6.954 3.09a1.9 1.9 0 0 1-1.537 0L2.23 7.899a.388.388 0 0 1 0-.71"/></svg>