<svg xmlns="http://www.w3.org/2000/svg" width="20" height="20" fill="none" viewBox="0 0 20 20"><path fill="#7450f9" d="M15.929 12.536c1.973-1.115 1.973-3.957 0-5.072l-8.99-5.082C4.995 1.284 2.59 2.687 2.59 4.918v10.164c0 2.231 2.405 3.634 4.347 2.537z"/><mask id="a" width="16" height="16" x="2" y="2" maskUnits="userSpaceOnUse" style="mask-type:alpha"><path fill="#d9d9d9" d="M15.93 12.536c1.972-1.115 1.972-3.957 0-5.072L6.938 2.38c-1.942-1.097-4.347.306-4.347 2.537v10.164c0 2.231 2.405 3.634 4.347 2.536z"/></mask><g mask="url(#a)"><path fill="#8361ff" fill-rule="evenodd" d="M2.592 12.333V4.917c0-2.231 2.405-3.634 4.347-2.536l6.632 3.75a7.616 7.616 0 0 1-10.98 6.2" clip-rule="evenodd"/></g></svg>