<svg xmlns="http://www.w3.org/2000/svg" width="24" height="24" fill="none" viewBox="0 0 24 24"><path fill="#07c" d="M17.252 14.615a6.193 6.193 0 1 1 1.702-.692l1.214 2.491z"/><path fill="#fff" d="M13.18 11.115q0-.12.033-.239a.8.8 0 0 1 .123-.246q.063-.108.172-.328.111-.22.25-.518.138-.3.294-.65l.325-.72q.164-.369.324-.734l.31-.69q.145-.325.265-.586t.201-.421a.6.6 0 0 1 .134-.306.4.4 0 0 1 .135-.105.4.4 0 0 1 .182-.04q.135 0 .217.037.085.037.138.104a.5.5 0 0 1 .09.15q.033.084.066.182.031.086.056.164.027.074.049.116.25.5.485 1.007.239.507.47 1.033.235.522.474 1.06.238.536.496 1.092l.07.105q.03.04.071.1a1 1 0 0 1 .075.124.7.7 0 0 1 .086.29q0 .224-.127.318a.5.5 0 0 1-.31.097.5.5 0 0 1-.186-.034.5.5 0 0 1-.146-.082.45.45 0 0 1-.149-.284 97 97 0 0 1-.53-1.175l-.156-.358h-.168l-.242-.01q-.213 0-.433-.005l-.444-.003a15 15 0 0 0-.47 0q-.242 0-.507.01l-.079.008h-.078a65 65 0 0 0-.5 1.254q-.056.15-.086.242v-.004a2 2 0 0 1-.052.16.4.4 0 0 1-.078.143.4.4 0 0 1-.146.097.6.6 0 0 1-.238.04.54.54 0 0 1-.336-.1q-.13-.1-.13-.295m1.906-2.35h.2q.128 0 .325.004.202 0 .493.004.291 0 .705.003a294 294 0 0 0-.9-1.932q-.084.19-.182.418l-.205.474-.216.507q-.108.261-.22.522"/><path fill="#005a9a" d="M11.703 3.94a6.224 6.224 0 0 0-.796 8.543 6.225 6.225 0 0 1 10.376-6.79 6.224 6.224 0 0 0-9.58-1.752"/><path fill="#ff736c" d="M8.372 19.737q-.536 0-1.048-.087L4.162 21.6 5.43 19a6.224 6.224 0 1 1 2.942.738"/><path fill="#c22119" d="M4.14 8.671a6.224 6.224 0 0 0-.387 9.01 6.224 6.224 0 0 1 9.577-7.893 6.224 6.224 0 0 0-9.19-1.117"/><path fill="#fff" d="M5.145 13.516q0-.825.232-1.507.237-.682.663-1.174a3 3 0 0 1 1.035-.76A3.2 3.2 0 0 1 8.42 9.8q.78 0 1.373.273.598.27 1.002.761.408.492.617 1.174.208.682.208 1.507 0 .705-.18 1.322a3.7 3.7 0 0 1-.53 1.104q.122.12.242.204a.42.42 0 0 0 .241.074.4.4 0 0 0 .111-.018 5 5 0 0 1 .242-.093.46.46 0 0 1 .31.01q.084.027.149.092.065.06.107.153.04.088.041.213a.56.56 0 0 1-.074.293.6.6 0 0 1-.19.204.8.8 0 0 1-.288.12 1.4 1.4 0 0 1-.343.042q-.171 0-.33-.05a1.5 1.5 0 0 1-.305-.13 2 2 0 0 1-.279-.205 4 4 0 0 1-.26-.246q-.39.301-.867.469a3.2 3.2 0 0 1-1.034.162q-.492 0-.923-.13a2.96 2.96 0 0 1-1.433-.946 3.6 3.6 0 0 1-.483-.751 4 4 0 0 1-.297-.891 4.8 4.8 0 0 1-.102-1.002m1.058 0q0 .348.065.691.064.338.19.65.13.306.315.57.19.26.432.455.246.19.542.301.302.107.65.107.376 0 .686-.111.31-.117.557-.325a4 4 0 0 0-.213-.232 2 2 0 0 0-.214-.185 1 1 0 0 0-.209-.126.54.54 0 0 0-.31-.037 1.5 1.5 0 0 1-.297-.01 1 1 0 0 1-.223-.069.6.6 0 0 1-.185-.153.4.4 0 0 1-.08-.264q.001-.157.056-.255a.44.44 0 0 1 .153-.158.6.6 0 0 1 .214-.084q.115-.023.232-.023.264 0 .478.056t.403.167q.19.106.371.269.186.158.39.362a3.2 3.2 0 0 0 .264-.76 4.14 4.14 0 0 0-.042-1.888 2.7 2.7 0 0 0-.398-.882 1.94 1.94 0 0 0-.673-.603q-.405-.223-.96-.223-.524 0-.933.2a1.96 1.96 0 0 0-.69.561 2.6 2.6 0 0 0-.427.872 4 4 0 0 0-.144 1.127"/></svg>