<svg xmlns="http://www.w3.org/2000/svg" width="20" height="20" fill="none" viewBox="0 0 20 20"><path fill="#d64343" fill-rule="evenodd" d="M2 10a8 8 0 1 1 16 0 8 8 0 0 1-16 0" clip-rule="evenodd"/><mask id="a" width="16" height="16" x="2" y="2" maskUnits="userSpaceOnUse" style="mask-type:alpha"><path fill="#fc4f4f" fill-rule="evenodd" d="M2 10a8 8 0 1 1 16 0 8 8 0 0 1-16 0" clip-rule="evenodd"/></mask><g mask="url(#a)"><path fill="#fc4f4f" fill-rule="evenodd" d="M2.553 9.447a7.447 7.447 0 1 1 14.894 0 7.447 7.447 0 0 1-14.894 0" clip-rule="evenodd"/></g><path fill="#fff" d="M11.198 13.696a1.198 1.198 0 1 1-2.395 0 1.198 1.198 0 0 1 2.395 0"/><path fill="#fff" fill-rule="evenodd" d="M9.138 9.829a.8.8 0 0 0-.022.196v.899a.868.868 0 0 0 1.736 0v-.408l.945-.566.06-.038c.706-.454 1.245-1.21 1.245-2.138 0-1.644-1.588-2.668-3.118-2.668-.74 0-1.438.22-1.99.609-.528.374-.946.924-1.082 1.598a.868.868 0 0 0 1.701.344c.034-.166.15-.358.383-.523a1.7 1.7 0 0 1 .988-.291c.953 0 1.381.588 1.381.931 0 .215-.127.48-.468.69l-.037.024-1.322.791a.87.87 0 0 0-.396.534z" clip-rule="evenodd"/></svg>