<svg xmlns="http://www.w3.org/2000/svg" width="20" height="20" fill="none" viewBox="0 0 20 20"><path fill="#ffc830" d="M12.824 3.658a.833.833 0 0 0 1.4-.395 2.083 2.083 0 1 1 2.512 2.513.833.833 0 0 0-.395 1.4l1.402 1.402a2.01 2.01 0 0 1 0 2.845l-1.402 1.402a.832.832 0 0 1-1.4-.395 2.083 2.083 0 1 0-2.512 2.513.833.833 0 0 1 .395 1.4l-1.402 1.401a2.01 2.01 0 0 1-2.845 0l-1.403-1.402a.834.834 0 0 0-1.4.395 2.084 2.084 0 1 1-2.511-2.513.834.834 0 0 0 .395-1.4l-1.403-1.401a2.01 2.01 0 0 1 0-2.845l1.403-1.403a.833.833 0 0 1 1.4.395 2.083 2.083 0 1 0 2.511-2.512.833.833 0 0 1-.395-1.4l1.403-1.402a2.01 2.01 0 0 1 2.845 0z"/><path fill="#e5a800" fill-rule="evenodd" d="M2.418 17.853a2.083 2.083 0 0 0 3.356-1.116.833.833 0 0 1 1.4-.395l1.403 1.402a2.01 2.01 0 0 0 2.845 0l1.402-1.401a.832.832 0 0 0-.395-1.4 2.084 2.084 0 1 1 2.512-2.513.834.834 0 0 0 1.4.395l1.402-1.402a2.01 2.01 0 0 0 0-2.845l-1.402-1.402a.833.833 0 0 1 .395-1.4 2.083 2.083 0 0 0 1.117-3.357z" clip-rule="evenodd"/></svg>