<svg xmlns="http://www.w3.org/2000/svg" width="24" height="24" fill="none" viewBox="0 0 24 24"><path fill="#fdcd3b" d="M5.75 20.4h12.5c.796 0 1.559-.288 2.121-.8s.879-1.206.879-1.93V9.176H2.75v8.495c0 .724.316 1.418.879 1.93s1.325.799 2.121.799"/><path fill="#fa9d03" d="m21.25 9.176-8.205 5.292c-.108.07-.222.134-.347.173a2.26 2.26 0 0 1-1.361 0 1.4 1.4 0 0 1-.346-.173L2.786 9.176"/><path fill="#fa9d03" d="m21.25 9.17-8.221 5.303c-.108.07-.222.134-.347.174a2.26 2.26 0 0 1-1.364 0 1.4 1.4 0 0 1-.347-.174L2.75 9.171"/><path fill="#fa9d03" d="m21.25 9.182-8.221-5.303a1.4 1.4 0 0 0-.347-.174 2.26 2.26 0 0 0-1.364 0c-.125.04-.24.104-.347.174L2.75 9.182"/></svg>