<svg xmlns="http://www.w3.org/2000/svg" width="20" height="20" fill="none" viewBox="0 0 20 20"><path fill="#0bb01b" d="M2.5 10.65a.65.65 0 0 1-.65-.65A8.15 8.15 0 0 1 10 1.85h.002a8.78 8.78 0 0 1 6.066 2.467l.008.007.773.773V2.5a.65.65 0 0 1 1.301 0v4.176a.7.7 0 0 1-.048.238q-.019.041-.043.08-.008.016-.017.03l-.003.007a.65.65 0 0 1-.414.274q-.013.002-.027.003a1 1 0 0 1-.098.01h-4.167a.65.65 0 0 1 0-1.3h2.597l-.765-.767a7.47 7.47 0 0 0-5.166-2.1 6.85 6.85 0 0 0-6.849 6.85.65.65 0 0 1-.65.65"/><path fill="#0bb01b" d="m10.003 1.85.001-.4h-.002zm6.065 2.467-.278.287.015.014zm.008.007.283-.283-.02-.018zm.773.773-.283.283a.4.4 0 0 0 .683-.283zm0-2.597h-.4zm1.301 0h.4zm0 4.176.4.006v-.006zm-.048.238.37.151zm-.043.08-.345-.202zm-.017.03.333.223.001-.002zm-.003.007.331.224.002-.002zm-.414.274.078.393zm-.027.003-.06-.395zm-4.265.01v.4zm0-1.3v-.4zm2.597 0v.399a.4.4 0 0 0 .283-.683zm-.765-.767.283-.282-.005-.005zm-5.166-2.1.001-.4H10zM5.156 5.158l-.283-.283zM2.5 10.65v-.4a.25.25 0 0 1-.25-.25h-.8c0 .58.47 1.05 1.05 1.05zM1.85 10h.4a7.75 7.75 0 0 1 2.27-5.48l-.283-.283-.283-.283A8.55 8.55 0 0 0 1.449 10zm2.387-5.763.283.283A7.75 7.75 0 0 1 10 2.25v-.8a8.55 8.55 0 0 0-6.046 2.504zM10 1.85v.4h.002v-.8H10zm.002 0-.001.4a8.38 8.38 0 0 1 5.789 2.354l.278-.287.278-.288a9.18 9.18 0 0 0-6.342-2.579zm6.066 2.467-.264.3.008.008.264-.301.263-.301-.008-.007zm.008.007-.283.283.773.773.283-.283.283-.283-.773-.773zm.773.773h.4V2.5h-.8v2.597zm0-2.597h.4a.25.25 0 0 1 .25-.249v-.8c-.579 0-1.05.47-1.05 1.05zm.65-.649v.4a.25.25 0 0 1 .251.25h.8c0-.58-.471-1.05-1.05-1.05zm.651.65h-.4v4.175h.8V2.5zm0 4.175-.4-.005a.3.3 0 0 1-.018.091l.37.152.37.15c.051-.123.076-.254.078-.382zm-.048.238-.37-.152q.003-.007 0 0l-.007.012-.01.018.344.203.345.202c.01-.017.044-.071.068-.132zm-.043.08-.345-.202-.014.025-.003.007-.002.003q0 .003.003-.004l.01-.019.335.22.333.221c.016-.024.028-.046.031-.053l.002-.004q0-.002 0 0l-.005.009zm-.017.03-.332-.221-.004.006.333.222.332.222.004-.006zm-.003.007-.332-.224a.25.25 0 0 1-.159.106l.078.392.077.393a1.05 1.05 0 0 0 .667-.443zm-.414.274-.076-.392.026-.004.007-.001h-.004l-.04.005.06.395.06.395-.018.003h.002l.02-.002.04-.006zm-.027.003-.06-.395-.033.004H17.5v.8c.068 0 .129-.009.159-.014zm-.098.01v-.4h-4.167v.8H17.5zm-4.167 0v-.4a.25.25 0 0 1-.25-.25h-.8c0 .579.47 1.05 1.05 1.05zm-.65-.65h.4a.25.25 0 0 1 .25-.251v-.8c-.58 0-1.05.471-1.05 1.05zm.65-.65v.399h2.597v-.8h-2.597zm2.597 0 .283-.284-.766-.765-.282.282-.283.283.765.766zm-.765-.767.278-.287A7.87 7.87 0 0 0 10 2.752l-.001.4-.002.4a7.07 7.07 0 0 1 4.89 1.987zm-5.166-2.1v-.4a7.25 7.25 0 0 0-5.126 2.123l.283.283.283.283a6.45 6.45 0 0 1 4.56-1.888zM5.156 5.158l-.283-.283A7.25 7.25 0 0 0 2.75 10h.8c0-1.71.68-3.35 1.889-4.56zM3.15 10h-.4a.25.25 0 0 1-.25.25v.8c.58 0 1.05-.47 1.05-1.05zM17.5 9.35a.65.65 0 0 1 .65.65A8.15 8.15 0 0 1 10 18.15h-.003a8.78 8.78 0 0 1-6.065-2.466l-.008-.007-.774-.773V17.5a.65.65 0 0 1-1.3 0v-4.175a.7.7 0 0 1 .047-.238q.02-.042.043-.08.008-.015.017-.031l.004-.006a.65.65 0 0 1 .413-.274l.027-.003a1 1 0 0 1 .099-.01h4.167a.65.65 0 0 1 0 1.3H4.069l.766.766a7.48 7.48 0 0 0 5.166 2.1A6.85 6.85 0 0 0 16.85 10a.65.65 0 0 1 .65-.65"/><path fill="#0bb01b" d="m9.997 18.15-.001.3h.001zm-6.065-2.466.208-.216-.01-.01zm-.008-.007-.212.212.014.014zm-.774-.773.213-.212a.3.3 0 0 0-.513.212zm0 2.596h.3zm-1.3 0h-.3zm0-4.175-.3-.005v.005zm.047-.238-.277-.113zm.043-.08.26.151zm.017-.031-.25-.166zm.004-.006-.249-.168v.002zm.413-.274-.058-.295zm.027-.003.046.296zm4.266-.01v-.3zm0 1.3v.3zm-2.598 0v-.3a.3.3 0 0 0-.212.513zm.766.766-.212.213.003.003zm5.166 2.1-.001.3H10zm4.843-2.005.212.212zM17.5 9.35v.3a.35.35 0 0 1 .35.35h.6a.95.95 0 0 0-.95-.95zm.65.65h-.3a7.85 7.85 0 0 1-2.3 5.551l.213.212.212.212A8.45 8.45 0 0 0 18.45 10zm-2.387 5.763-.212-.212a7.85 7.85 0 0 1-5.551 2.3v.6a8.45 8.45 0 0 0 5.975-2.476zM10 18.151v-.3h-.003v.6H10zm-.003 0 .001-.3a8.48 8.48 0 0 1-5.858-2.383l-.208.216-.209.216a9.07 9.07 0 0 0 6.273 2.55zm-6.065-2.467.197-.226-.008-.007-.197.226-.198.226.008.007zm-.008-.007.212-.212-.773-.773-.213.212-.212.212.774.773zm-.774-.773h-.3V17.5h.6v-2.596zm0 2.596h-.3a.35.35 0 0 1-.35.35v.6a.95.95 0 0 0 .95-.95zm-.65.65v-.3a.35.35 0 0 1-.35-.35h-.6c0 .525.426.95.95.95zm-.65-.65h.3v-4.175h-.6V17.5zm0-4.175.3.004q0-.068.025-.128l-.278-.114-.277-.113a1 1 0 0 0-.07.346zm.047-.238.278.114.001-.003.005-.008.018-.032-.259-.152-.258-.151c-.012.02-.04.066-.062.119zm.043-.08.26.151.014-.027.001-.003v.001l-.008.012-.25-.165-.25-.165-.025.043-.003.006q0 0 .003-.005zm.017-.031.25.166.004-.005-.25-.167-.25-.166-.004.006zm.004-.006.249.168a.35.35 0 0 1 .222-.148l-.058-.294-.058-.295a.95.95 0 0 0-.604.401zm.413-.274.058.294-.019.003H2.41h.011l.026-.004-.046-.296-.045-.297.012-.001h-.002l-.05.006zm.027-.003.046.296.053-.006v-.6c-.06 0-.114.009-.144.013zm.099-.01v.3h4.167v-.6H2.5zm4.167 0v.3a.35.35 0 0 1 .35.35h.6a.95.95 0 0 0-.95-.95zm.65.65h-.3a.35.35 0 0 1-.35.35v.6a.95.95 0 0 0 .95-.95zm-.65.65v-.3H4.069v.6h2.598zm-2.598 0-.212.213.766.766.212-.213.212-.212-.766-.765zm.766.766-.209.216A7.78 7.78 0 0 0 10 17.15l.001-.3.001-.3a7.17 7.17 0 0 1-4.959-2.015zm5.166 2.1v.3a7.15 7.15 0 0 0 5.055-2.093l-.212-.212-.212-.212A6.55 6.55 0 0 1 10 16.55zm4.843-2.005.212.212A7.15 7.15 0 0 0 17.15 10h-.6a6.55 6.55 0 0 1-1.918 4.632zM16.85 10h.3a.35.35 0 0 1 .35-.35v-.6a.95.95 0 0 0-.95.95z"/></svg>