<svg xmlns="http://www.w3.org/2000/svg" width="24" height="24" fill="none" viewBox="0 0 24 24"><path fill="#2196f3" d="M3.833 5.4a3 3 0 0 1 3-3h5.051a3 3 0 0 1 2.131.888l5.283 5.331a3 3 0 0 1 .869 2.112V18.6a3 3 0 0 1-3 3H6.833a3 3 0 0 1-3-3z"/><path fill="#3fa5f6" d="M6.833 21.6h10.334a3 3 0 0 0 3-3v-7.87a3 3 0 0 0-.87-2.11l-1.651-1.668s.617 5.333-3.86 8.638c-4.478 3.306-9.953 1.292-9.953 1.292V18.6a3 3 0 0 0 3 3"/><path fill="#0f80da" d="M19.81 9.465h-3.683a3 3 0 0 1-3-3V2.746c.401.138.862.524 1.042.7l4.836 4.85c.336.338.61.734.805 1.17"/><rect width="7.539" height="1.256" x="7.171" y="10.172" fill="#c7e4fc" rx=".5"/><rect width="9.714" height="1.256" x="7.171" y="13.021" fill="#c7e4fc" rx=".5"/><rect width="9.714" height="1.256" x="7.171" y="15.87" fill="#c7e4fc" rx=".5"/></svg>