<svg width="24" height="24" viewBox="0 0 24 24" fill="none" xmlns="http://www.w3.org/2000/svg"><path d="M20.6498 13.0812C20.6498 18.4872 16.8656 21.1902 12.3678 22.7579C12.1323 22.8377 11.8764 22.8339 11.6434 22.7471C7.13478 21.1902 3.35059 18.4872 3.35059 13.0812V5.51278C3.35059 5.22603 3.4645 4.95103 3.66726 4.74826C3.87003 4.5455 4.14503 4.43159 4.43179 4.43159C6.59418 4.43159 9.29718 3.13415 11.1785 1.49072C11.4075 1.29502 11.6989 1.1875 12.0002 1.1875C12.3015 1.1875 12.5928 1.29502 12.8219 1.49072C14.714 3.14496 17.4062 4.43159 19.5686 4.43159C19.8553 4.43159 20.1303 4.5455 20.3331 4.74826C20.5359 4.95103 20.6498 5.22603 20.6498 5.51278V13.0812Z" fill="#24983F"/><mask id="mask0_16347_42143" style="mask-type:alpha" maskUnits="userSpaceOnUse" x="3" y="1" width="18" height="22"><path d="M20.6498 13.0812C20.6498 18.4872 16.8656 21.1902 12.3678 22.7579C12.1323 22.8377 11.8764 22.8339 11.6434 22.7471C7.13478 21.1902 3.35059 18.4872 3.35059 13.0812V5.51278C3.35059 5.22603 3.4645 4.95103 3.66726 4.74826C3.87003 4.5455 4.14503 4.43159 4.43179 4.43159C6.59418 4.43159 9.29718 3.13415 11.1785 1.49072C11.4075 1.29502 11.6989 1.1875 12.0002 1.1875C12.3015 1.1875 12.5928 1.29502 12.8219 1.49072C14.714 3.14496 17.4062 4.43159 19.5686 4.43159C19.8553 4.43159 20.1303 4.5455 20.3331 4.74826C20.5359 4.95103 20.6498 5.22603 20.6498 5.51278V13.0812Z" fill="#0BB01B"/></mask><g mask="url(#mask0_16347_42143)"><path d="M6.67015 21.3605C12.8403 21.3605 18.9941 16.7725 18.9941 10.49V1.95788L13.0808 0.0507812L3.67644 1.09202L-3.3501 10.49C-3.3501 16.6602 0.499962 21.3605 6.67015 21.3605Z" fill="#0BB01B"/><path d="M7.98291 12.0023L10.661 14.6803L16.0171 9.32422" stroke="#007E0C" stroke-width="2.00854" stroke-linecap="round" stroke-linejoin="round"/><path d="M7.82227 10.8577L10.5003 13.5358L15.8564 8.17969" stroke="white" stroke-width="2.00854" stroke-linecap="round" stroke-linejoin="round"/></g></svg>