<svg xmlns="http://www.w3.org/2000/svg" width="20" height="20" fill="none" viewBox="0 0 20 20"><path fill="#24983f" d="M17.208 10.901c0 4.505-3.153 6.758-6.902 8.064a.9.9 0 0 1-.603-.01c-3.757-1.296-6.911-3.549-6.911-8.054V4.594a.9.9 0 0 1 .901-.901c1.802 0 4.055-1.081 5.622-2.45a1.054 1.054 0 0 1 1.37 0c1.576 1.378 3.82 2.45 5.622 2.45a.9.9 0 0 1 .901.901z"/><mask id="a" width="16" height="20" x="2" y="0" maskUnits="userSpaceOnUse" style="mask-type:alpha"><path fill="#0bb01b" d="M17.208 10.901c0 4.505-3.153 6.758-6.902 8.064a.9.9 0 0 1-.603-.01c-.986-.34-1.931-.746-2.788-1.241-2.408-1.393-4.123-3.49-4.123-6.813V4.594a.9.9 0 0 1 .901-.901c1.802 0 4.055-1.081 5.622-2.45a1.054 1.054 0 0 1 1.37 0c1.44 1.258 3.435 2.261 5.143 2.426q.245.024.479.024a.9.9 0 0 1 .901.901z"/></mask><g mask="url(#a)"><path fill="#0bb01b" d="M15.828 8.742V3.67c-1.708-.165-3.703-1.168-5.143-2.427a1.054 1.054 0 0 0-1.37 0c-1.567 1.37-3.82 2.451-5.622 2.451a.9.9 0 0 0-.901.901v6.307c0 3.323 1.715 5.42 4.123 6.813 4.65-.598 8.913-4.198 8.913-8.972"/><path stroke="#007e0c" stroke-linecap="round" stroke-linejoin="round" stroke-width="2.009" d="m6.652 10.001 2.232 2.232 4.464-4.464"/><path stroke="#fff" stroke-linecap="round" stroke-linejoin="round" stroke-width="2.009" d="M6.519 9.048 8.75 11.28l4.464-4.463"/></g></svg>