<svg xmlns="http://www.w3.org/2000/svg" width="24" height="24" fill="none" viewBox="0 0 24 24"><path fill="#fc4f4f" d="M9.76 4.438a2.25 2.25 0 0 1 4.481 0 2.25 2.25 0 0 0 3.192 1.842 2.25 2.25 0 0 1 2.24 3.878 2.25 2.25 0 0 0 0 3.685 2.25 2.25 0 0 1-2.24 3.878 2.25 2.25 0 0 0-3.192 1.842 2.25 2.25 0 0 1-4.48 0 2.25 2.25 0 0 0-3.194-1.842 2.25 2.25 0 0 1-2.24-3.878 2.25 2.25 0 0 0 0-3.685 2.25 2.25 0 0 1 2.24-3.878 2.25 2.25 0 0 0 3.191-1.842"/><path fill="#ffc107" d="M12 14.886a2.885 2.885 0 1 0 0-5.77 2.885 2.885 0 0 0 0 5.77"/></svg>