<svg xmlns="http://www.w3.org/2000/svg" width="20" height="20" fill="none" viewBox="0 0 20 20"><path fill="#ffc107" d="M7.722 4.727C8.736 2.909 9.242 2 10 2s1.264.909 2.278 2.727l.262.47c.288.517.432.775.656.946s.504.233 1.064.36l.509.115c1.968.445 2.95.668 3.185 1.42s-.437 1.537-1.778 3.106l-.347.406c-.381.445-.572.668-.658.944-.085.276-.057.573 0 1.168l.054.541c.202 2.094.304 3.14-.31 3.605-.612.465-1.533.04-3.375-.807l-.478-.22c-.523-.241-.784-.361-1.062-.361s-.54.12-1.062.361l-.477.22c-1.843.848-2.764 1.272-3.376.808-.614-.466-.512-1.512-.31-3.606l.053-.54c.058-.596.087-.893 0-1.169-.085-.276-.276-.499-.657-.944l-.347-.406C2.483 9.576 1.812 8.791 2.046 8.039c.233-.753 1.218-.976 3.186-1.421l.509-.115c.56-.127.838-.19 1.063-.36s.368-.43.656-.946z"/><mask id="a" width="16" height="16" x="2" y="2" maskUnits="userSpaceOnUse" style="mask-type:alpha"><path fill="#ffc107" d="M7.722 4.727C8.736 2.909 9.242 2 10 2s1.264.909 2.278 2.727l.262.47c.288.517.432.775.656.946s.504.233 1.064.36l.509.115c1.968.445 2.95.668 3.185 1.42s-.437 1.537-1.778 3.106l-.347.406c-.381.445-.572.668-.658.944-.085.276-.057.573 0 1.168l.054.541c.202 2.094.304 3.14-.31 3.605-.612.465-1.533.04-3.375-.807l-.478-.22c-.523-.241-.784-.361-1.062-.361s-.54.12-1.062.361l-.477.22c-1.843.848-2.764 1.272-3.376.808-.614-.466-.512-1.512-.31-3.606l.053-.54c.058-.596.087-.893 0-1.169-.085-.276-.276-.499-.657-.944l-.347-.406C2.483 9.576 1.812 8.791 2.046 8.039c.233-.753 1.218-.976 3.186-1.421l.509-.115c.56-.127.838-.19 1.063-.36s.368-.43.656-.946z"/></mask><g mask="url(#a)"><mask id="b" width="13" height="13" x="2" y="2" maskUnits="userSpaceOnUse" style="mask-type:alpha"><path fill="#ffc107" fill-rule="evenodd" d="m7.724 4.724-.264.473-.005.01c-.285.51-.428.766-.65.936-.226.17-.505.233-1.064.36l-.509.115c-1.968.445-2.953.668-3.186 1.42-.234.753.437 1.538 1.778 3.106l.347.406c.38.444.572.669.657.944.087.276.058.573 0 1.168a.37.37 0 0 0 .28.4c.57.135 1.165.207 1.777.207 4.138 0 7.512-3.28 7.68-7.377a.39.39 0 0 0-.305-.39c-.56-.126-.84-.19-1.064-.36s-.368-.428-.656-.945l-.262-.47C11.265 2.91 10.758 2 10 2c-.757 0-1.263.908-2.276 2.724" clip-rule="evenodd"/></mask><g mask="url(#b)"><path fill="#fdcd3b" fill-rule="evenodd" d="M6.885 14.269a7.686 7.686 0 0 0 7.686-7.686c0-.004 0 .003 0 0l-.311-.08c-.56-.127-.84-.19-1.064-.36s-.368-.43-.656-.946l-.262-.47C11.265 2.91 10.758 2 10 2c-.757 0-1.263.908-2.276 2.724l-.264.473-.005.01c-.285.51-.428.766-.65.936-.226.17-.505.233-1.064.36l-.509.115c-1.968.445-2.953.668-3.186 1.42-.234.753.437 1.538 1.778 3.106l.347.406c.38.444.572.669.657.944.087.276.058.573 0 1.168l-.031.32a7.7 7.7 0 0 0 2.088.287" clip-rule="evenodd"/></g></g></svg>