<svg xmlns="http://www.w3.org/2000/svg" width="24" height="24" fill="none" viewBox="0 0 24 24"><path fill="#ffc107" d="M9.267 5.672C10.483 3.491 11.09 2.4 12 2.4s1.517 1.09 2.733 3.272l.315.564c.345.62.518.93.787 1.135s.605.28 1.277.432l.61.138c2.362.535 3.542.802 3.823 1.705.28.903-.524 1.844-2.134 3.727l-.417.487c-.457.534-.686.802-.789 1.132-.102.332-.068.689.001 1.402l.064.65c.242 2.512.364 3.768-.371 4.325s-1.841.05-4.051-.968l-.573-.263c-.628-.29-.942-.434-1.275-.434s-.647.144-1.275.434l-.572.263c-2.21 1.018-3.317 1.526-4.051.97-.737-.56-.615-1.815-.372-4.327l.064-.65c.069-.713.103-1.07 0-1.4-.102-.332-.332-.6-.788-1.133l-.417-.488c-1.61-1.882-2.414-2.823-2.134-3.727s1.462-1.17 3.823-1.705l.611-.138c.671-.152 1.006-.227 1.276-.432.27-.204.441-.514.787-1.135z"/><mask id="a" width="20" height="20" x="2" y="2" maskUnits="userSpaceOnUse" style="mask-type:alpha"><path fill="#ffc107" d="M9.267 5.672C10.483 3.491 11.09 2.4 12 2.4s1.517 1.09 2.733 3.272l.315.564c.345.62.518.93.787 1.135s.605.28 1.277.432l.61.138c2.362.535 3.542.802 3.823 1.705.28.903-.524 1.844-2.134 3.727l-.417.487c-.457.534-.686.802-.789 1.132-.102.332-.068.689.001 1.402l.064.65c.242 2.512.364 3.768-.371 4.325s-1.841.05-4.051-.968l-.573-.263c-.628-.29-.942-.434-1.275-.434s-.647.144-1.275.434l-.572.263c-2.21 1.018-3.317 1.526-4.051.97-.737-.56-.615-1.815-.372-4.327l.064-.65c.069-.713.103-1.07 0-1.4-.102-.332-.332-.6-.788-1.133l-.417-.488c-1.61-1.882-2.414-2.823-2.134-3.727s1.462-1.17 3.823-1.705l.611-.138c.671-.152 1.006-.227 1.276-.432.27-.204.441-.514.787-1.135z"/></mask><g mask="url(#a)"><circle cx="8.42" cy="7.899" r="9.381" fill="#fdcd3b"/></g></svg>