<svg xmlns="http://www.w3.org/2000/svg" width="20" height="20" fill="none" viewBox="0 0 20 20"><path stroke="#fa4715" stroke-linecap="round" stroke-linejoin="round" stroke-width="1.1" d="M17.273 10H18m-8-7.273V2m0 16v-.727m5.818-1.455-.727-.727m.727-10.91-.727.728M4.18 15.82l.728-.728M4.182 4.18l.727.728M2 10h.727"/><path fill="#ffc107" d="M8.434 6.375C9.131 5.125 9.48 4.5 10 4.5c.52 0 .869.625 1.566 1.875l.18.323c.198.355.297.533.451.65s.347.16.732.247l.35.08c1.352.306 2.028.459 2.19.976.16.517-.3 1.057-1.223 2.136l-.239.278c-.262.307-.393.46-.452.65s-.039.394 0 .802l.037.373c.14 1.439.209 2.158-.212 2.478-.422.32-1.055.028-2.321-.555l-.329-.15c-.36-.167-.54-.25-.73-.25s-.37.083-.73.25l-.328.15c-1.267.583-1.9.874-2.321.555-.422-.32-.352-1.039-.213-2.478l.036-.372c.04-.41.06-.614 0-.803-.058-.19-.19-.343-.451-.65l-.239-.278C4.832 9.709 4.371 9.169 4.531 8.65c.161-.517.838-.67 2.191-.976l.35-.08c.384-.086.576-.13.73-.247s.254-.295.452-.65z"/><mask id="a" width="12" height="12" x="4" y="4" maskUnits="userSpaceOnUse" style="mask-type:alpha"><path fill="#ffc107" d="M8.434 6.375C9.131 5.125 9.48 4.5 10 4.5c.52 0 .869.625 1.566 1.875l.18.323c.198.355.297.533.451.65s.347.16.732.247l.35.08c1.352.306 2.028.459 2.19.976.16.517-.3 1.057-1.223 2.136l-.239.278c-.262.307-.393.46-.452.65s-.039.394 0 .802l.037.373c.14 1.439.209 2.158-.212 2.478-.422.32-1.055.028-2.321-.555l-.329-.15c-.36-.167-.54-.25-.73-.25s-.37.083-.73.25l-.328.15c-1.267.583-1.9.874-2.321.555-.422-.32-.352-1.039-.213-2.478l.036-.372c.04-.41.06-.614 0-.803-.058-.19-.19-.343-.451-.65l-.239-.278C4.832 9.709 4.371 9.169 4.531 8.65c.161-.517.838-.67 2.191-.976l.35-.08c.384-.086.576-.13.73-.247s.254-.295.452-.65z"/></mask><g mask="url(#a)"><mask id="b" width="10" height="9" x="4" y="4" maskUnits="userSpaceOnUse" style="mask-type:alpha"><path fill="#ffc107" fill-rule="evenodd" d="m8.435 6.373-.181.325-.004.006c-.195.351-.294.528-.447.644-.155.117-.347.16-.731.247l-.35.08c-1.353.305-2.03.459-2.19.976-.161.518.3 1.058 1.222 2.136l.239.279c.261.305.393.46.451.649.06.19.04.394 0 .803a.254.254 0 0 0 .192.274 5.29 5.29 0 0 0 6.502-4.929.266.266 0 0 0-.21-.268c-.384-.086-.577-.13-.73-.247-.155-.117-.254-.295-.452-.65l-.18-.323C10.87 5.126 10.52 4.5 10 4.5c-.52 0-.869.624-1.565 1.873" clip-rule="evenodd"/></mask><g mask="url(#b)"><path fill="#fdcd3b" fill-rule="evenodd" d="M7.859 12.935a5.284 5.284 0 0 0 5.284-5.284c0-.003 0 .002 0 0l-.214-.056c-.385-.086-.578-.13-.732-.247s-.253-.295-.45-.65l-.181-.323C10.87 5.126 10.52 4.5 10 4.5c-.52 0-.869.624-1.565 1.873l-.181.325-.004.006c-.195.351-.294.528-.447.644-.155.117-.347.16-.731.247l-.35.08c-1.353.305-2.03.459-2.19.976-.161.518.3 1.058 1.222 2.136l.239.279c.261.305.393.46.451.649.06.19.04.394 0 .803l-.021.22c.456.128.938.197 1.436.197" clip-rule="evenodd"/></g></g></svg>