<svg xmlns="http://www.w3.org/2000/svg" width="20" height="20" fill="none" viewBox="0 0 20 20"><path fill="#989b9f" d="M6.057 14.34a.85.85 0 0 1 1.47.849L6.26 17.385a.849.849 0 1 1-1.47-.849zM13.83 14.34a.85.85 0 0 0-1.471.849l1.268 2.196a.849.849 0 1 0 1.47-.849z"/><circle cx="9.906" cy="9.871" r="7.275" fill="#989b9f"/><path fill="#a5a7aa" d="M9.906 17.146a7.275 7.275 0 0 0 5.248-12.312L4.869 15.119a7.25 7.25 0 0 0 5.037 2.026"/><path fill="#989b9f" d="M4.122 2.249a.85.85 0 0 1 1.2 1.2L3.53 5.241a.849.849 0 1 1-1.2-1.2z"/><path fill="#fff" d="M10.266 7.238a.849.849 0 0 0-1.698 0v2.536c0 .303.162.583.425.735l1.723.994a.849.849 0 0 0 .85-1.47l-1.3-.75z"/><path fill="#989b9f" d="M15.878 2.249a.85.85 0 0 0-1.2 1.2l1.793 1.793a.849.849 0 1 0 1.2-1.2z"/></svg>