<svg xmlns="http://www.w3.org/2000/svg" width="20" height="20" fill="none" viewBox="0 0 20 20"><path fill="#7450f9" d="M2 10c0-3.771 0-5.657 1.171-6.829C4.344 2 6.23 2 10 2s5.657 0 6.828 1.171C18 4.344 18 6.23 18 10s0 5.657-1.172 6.828C15.658 18 13.771 18 10 18s-5.657 0-6.829-1.172C2 15.658 2 13.771 2 10"/><mask id="a" width="16" height="16" x="2" y="2" maskUnits="userSpaceOnUse" style="mask-type:alpha"><path fill="#7450f9" d="M2 10c0-3.771 0-5.657 1.171-6.829C4.344 2 6.23 2 10 2c1.916 0 3.345 0 4.441.154 1.062.148 1.81.441 2.387 1.017C18 4.344 18 6.23 18 10s0 5.657-1.172 6.828C15.658 18 13.771 18 10 18s-5.657 0-6.829-1.172c-.617-.617-.91-1.433-1.047-2.62C2 13.145 2 11.783 2 10"/></mask><g mask="url(#a)"><path fill="#8361ff" fill-rule="evenodd" d="M6.198 15.168a9.116 9.116 0 0 0 8.243-13.014C13.345 2 11.916 2 10 2 6.229 2 4.344 2 3.171 3.171 2 4.343 2 6.23 2 10c0 1.783 0 3.145.124 4.208 1.226.614 2.61.96 4.074.96" clip-rule="evenodd"/></g><path stroke="#fff" stroke-linecap="round" stroke-linejoin="round" stroke-width="1.3" d="M7.16 5.456v9.088m5.68-9.088v9.088M5.456 7.16h9.088m-9.088 5.68h9.088"/></svg>