<svg xmlns="http://www.w3.org/2000/svg" width="24" height="24" fill="none" viewBox="0 0 24 24"><path fill="#fdcd3b" d="M5.75 19.17h12.5a3 3 0 0 0 3-3.001V6.83a2 2 0 0 0-2-2H4.75a2 2 0 0 0-2 2v9.34a3 3 0 0 0 3 3"/><mask id="a" width="20" height="16" x="2" y="4" maskUnits="userSpaceOnUse" style="mask-type:alpha"><path fill="#fdcd3b" d="M5.75 19.17h12.5a3 3 0 0 0 3-3.001V6.83a2 2 0 0 0-2-2H4.75a2 2 0 0 0-2 2v9.34a3 3 0 0 0 3 3"/></mask><g mask="url(#a)"><path fill="#fa9d03" d="M23.732 5.148c-.029-1.385-1.02-1.558-2.412-1.558H2.82A2.55 2.55 0 0 0 .267 6.09l.672-.49 9.843 7.914c.137.098.282.187.441.243a2.64 2.64 0 0 0 1.737 0c.16-.056.305-.145.442-.243z"/></g><path fill="#fdcd3b" d="M21.25 6.789a2 2 0 0 0-2-1.959H4.75a2 2 0 0 0-2 1.959h.036l8.205 5.818c.107.077.22.147.346.19a2.07 2.07 0 0 0 1.361 0c.125-.043.239-.113.346-.19z"/></svg>