<svg xmlns="http://www.w3.org/2000/svg" width="24" height="24" fill="none" viewBox="0 0 24 24"><path fill="#ffd740" d="M12 22.691c5.904 0 10.69-4.785 10.69-10.689S17.904 1.312 12 1.312 1.31 6.099 1.31 12.003 6.097 22.692 12 22.692"/><mask id="a" width="22" height="22" x="1" y="1" maskUnits="userSpaceOnUse" style="mask-type:alpha"><path fill="#ffd740" d="M12 22.691c5.904 0 10.69-4.785 10.69-10.689S17.904 1.312 12 1.312 1.31 6.099 1.31 12.003 6.097 22.692 12 22.692"/></mask><g mask="url(#a)"><path fill="#0bb01b" d="M19.66 22.692a7.66 7.66 0 0 0-15.32 0"/></g><path stroke="#0bb01b" stroke-linecap="round" stroke-linejoin="round" stroke-width="1.408" d="M12 15.89a4.693 4.693 0 1 0 0-9.386 4.693 4.693 0 0 0 0 9.386"/><path stroke="#0bb01b" stroke-linecap="round" stroke-linejoin="round" stroke-width="1.122" d="M12 6.691c-.457 0-.895.179-1.218.497-.324.318-.505.75-.505 1.199s.181.88.505 1.199c.323.318.761.496 1.218.496"/></svg>