<svg xmlns="http://www.w3.org/2000/svg" width="20" height="20" fill="none" viewBox="0 0 20 20"><path fill="#ffd740" d="M10 18.908a8.908 8.908 0 1 0 0-17.816 8.908 8.908 0 0 0 0 17.816"/><mask id="a" width="18" height="18" x="1" y="1" maskUnits="userSpaceOnUse" style="mask-type:alpha"><path fill="#ffd740" d="M10 18.908a8.908 8.908 0 1 0 0-17.816 8.908 8.908 0 0 0 0 17.816"/></mask><g mask="url(#a)"><path fill="#0bb01b" d="M16.384 18.908a6.384 6.384 0 0 0-12.768 0"/></g><path stroke="#0bb01b" stroke-linecap="round" stroke-linejoin="round" stroke-width="1.408" d="M10 13.24a3.911 3.911 0 1 0 0-7.822 3.911 3.911 0 0 0 0 7.821"/><path stroke="#0bb01b" stroke-linecap="round" stroke-linejoin="round" stroke-width="1.122" d="M10 5.573c-.38 0-.746.15-1.016.414a1.401 1.401 0 0 0 0 1.998c.27.265.635.414 1.016.414"/></svg>