<svg xmlns="http://www.w3.org/2000/svg" width="24" height="24" fill="none" viewBox="0 0 24 24"><path fill="#d64343" d="M17.01 2.4c-2.18 0-4.063 1.277-5.01 3.14-.945-1.863-2.828-3.14-5.008-3.14-3.126 0-5.658 2.621-5.658 5.847 0 3.225 1.938 6.182 4.443 8.611S12 21.6 12 21.6s3.599-2.275 6.224-4.742c2.8-2.63 4.442-5.376 4.442-8.611S20.135 2.4 17.01 2.4"/><mask id="a" width="22" height="20" x="1" y="2" maskUnits="userSpaceOnUse" style="mask-type:alpha"><path fill="#d64343" d="M17.008 2.4c-2.18 0-4.063 1.277-5.009 3.14C11.053 3.677 9.17 2.4 6.99 2.4c-3.125 0-5.657 2.621-5.657 5.847 0 3.225 1.938 6.182 4.442 8.611S12 21.6 12 21.6s3.6-2.275 6.224-4.742c2.8-2.63 4.443-5.376 4.443-8.611S20.134 2.4 17.008 2.4"/></mask><g mask="url(#a)"><circle cx="8.427" cy="5.695" r="11.169" fill="#fc4f4f"/></g><ellipse cx="4.807" cy="6.139" fill="#fd8383" rx="1.32" ry="2.194" transform="rotate(37.348 4.807 6.139)"/></svg>