<svg width="24" height="24" viewBox="0 0 24 24" fill="none" xmlns="http://www.w3.org/2000/svg">
<path d="M17.0097 2.40039C14.8294 2.40039 12.9468 3.67719 12.0007 5.53959C11.0545 3.67719 9.17185 2.40039 6.99158 2.40039C3.86625 2.40039 1.33398 5.02119 1.33398 8.24679C1.33398 11.4724 3.27212 14.4292 5.77665 16.858C8.28118 19.2868 12.0007 21.6004 12.0007 21.6004C12.0007 21.6004 15.5996 19.3252 18.2246 16.858C21.0246 14.2276 22.6673 11.482 22.6673 8.24679C22.6673 5.01159 20.135 2.40039 17.0097 2.40039Z" fill="#D64343"/>
<mask id="mask0_17010_55470" style="mask-type:alpha" maskUnits="userSpaceOnUse" x="1" y="2" width="22" height="20">
<path d="M17.0083 2.40039C14.828 2.40039 12.9453 3.67719 11.9992 5.53959C11.0531 3.67719 9.17039 2.40039 6.99012 2.40039C3.86479 2.40039 1.33252 5.02119 1.33252 8.24679C1.33252 11.4724 3.27065 14.4292 5.77519 16.858C8.27972 19.2868 11.9992 21.6004 11.9992 21.6004C11.9992 21.6004 15.5981 19.3252 18.2232 16.858C21.0232 14.2276 22.6659 11.482 22.6659 8.24679C22.6659 5.01159 20.1336 2.40039 17.0083 2.40039Z" fill="#D64343"/>
</mask>
<g mask="url(#mask0_17010_55470)">
<circle cx="8.42652" cy="5.69458" r="11.1692" fill="#FC4F4F"/>
</g>
<ellipse cx="4.80673" cy="6.13876" rx="1.32003" ry="2.19406" transform="rotate(37.3479 4.80673 6.13876)" fill="#FD8383"/>
</svg>
