<svg width="783" height="229" viewBox="0 0 783 229" fill="none" xmlns="http://www.w3.org/2000/svg">
<path d="M0 229C0 229 351.583 36.1066 783 228.092L0 229Z" fill="url(#paint0_linear_12192:214659)"/>
<path d="M267.323 158.534V177.586" stroke="#C1C3CA" stroke-width="5" stroke-miterlimit="10"/>
<path d="M276.607 148.912C270.127 126.96 267.468 124.687 267.468 124.687C267.468 124.687 265.437 127.105 258.378 148.912C252.188 167.915 263.116 168.012 266.066 167.722C266.017 167.722 282.893 170.236 276.607 148.912Z" fill="#E5E7EA"/>
<path d="M477.901 144.367V164.095" stroke="#C1C3CA" stroke-width="5" stroke-miterlimit="10"/>
<path d="M487.476 134.406C480.755 111.68 477.999 109.359 477.999 109.359C477.999 109.359 475.919 111.874 468.57 134.406C462.187 154.086 473.502 154.183 476.5 153.893C476.548 153.893 494.004 156.455 487.476 134.406Z" fill="#E5E7EA"/>
<path d="M507.736 158.583V173.573" stroke="#C1C3CA" stroke-width="5" stroke-miterlimit="10"/>
<path d="M515.038 151.04C509.912 133.778 507.881 131.989 507.881 131.989C507.881 131.989 506.286 133.874 500.725 151.04C495.89 165.933 504.448 166.029 506.769 165.836C506.721 165.836 519.97 167.77 515.038 151.04Z" fill="#E5E7EA"/>
<path d="M332.358 42.873L427.76 34.4111C427.76 34.4111 450.824 35.5233 453.29 63.9068C455.756 92.2902 458.077 108.827 458.077 108.827L370.509 119.368L364.852 71.5949C364.127 65.4057 361.757 59.5549 357.889 54.6712C353.15 48.7237 345.269 42.5829 332.358 42.873Z" fill="#E3E5EA"/>
<path d="M373.41 118.837L314.564 125.509L308.617 75.8987C306.634 59.3619 318.626 44.4689 335.211 42.8249C351.265 41.2776 365.625 52.8341 367.511 68.8875L373.41 118.837Z" fill="#C1C3CA"/>
<path d="M384.483 117.192V134.648H400.053L399.86 115.79L384.483 117.192Z" fill="#C1C3CA"/>
<path d="M313.935 126.041L306.44 150.895C305.28 154.328 304.796 157.954 305.038 161.581C305.522 168.399 308.761 177.005 322.204 176.667C330.52 176.425 337.58 173.331 343.189 169.607C351.022 164.385 357.067 156.939 360.838 148.332L373.894 119.417L313.935 126.041Z" fill="#D0D2D6"/>
<path d="M401.31 133.826H383.468V174.782H401.31V133.826Z" fill="#CDCFD4"/>
<path d="M362.772 56.9924L311.034 94.0312" stroke="#CDCFD4" stroke-width="3" stroke-miterlimit="10"/>
<path d="M363.933 57.7666L314.758 124.784" stroke="#CDCFD4" stroke-width="3" stroke-miterlimit="10"/>
<path d="M342.464 122.125L363.788 60.1843" stroke="#CDCFD4" stroke-width="3" stroke-miterlimit="10"/>
<path d="M332.842 78.5586C332.842 78.5586 343.334 75.7056 343.286 84.506C343.286 84.506 353.392 82.2335 352.812 92.3393" stroke="#CDCFD4" stroke-width="3" stroke-miterlimit="10"/>
<path d="M318.916 88.7612C318.916 88.7612 332.213 85.9085 332.455 99.8343C332.455 99.8343 343.093 95.9176 347.203 107.184" stroke="#CDCFD4" stroke-width="3" stroke-miterlimit="10"/>
<path fill-rule="evenodd" clip-rule="evenodd" d="M260.167 21.2591L259.394 21.2107V22.4679L260.167 22.5162V21.2591Z" fill="#C1C3CA"/>
<path fill-rule="evenodd" clip-rule="evenodd" d="M260.312 18.9868L259.538 18.9385L259.441 20.1956L260.215 20.244L260.312 18.9868Z" fill="#C1C3CA"/>
<path fill-rule="evenodd" clip-rule="evenodd" d="M260.409 16.7141L259.635 16.6658L259.587 17.9229L260.361 17.9713L260.409 16.7141Z" fill="#C1C3CA"/>
<path fill-rule="evenodd" clip-rule="evenodd" d="M260.215 28.0288L259.441 28.0771C259.49 28.5123 259.49 28.9475 259.538 29.3343L260.312 29.2859C260.215 28.8991 260.215 28.464 260.215 28.0288Z" fill="#C1C3CA"/>
<path fill-rule="evenodd" clip-rule="evenodd" d="M260.118 25.7561H259.345C259.345 26.1913 259.345 26.6265 259.393 27.0133H260.167C260.167 26.6265 260.118 26.1913 260.118 25.7561Z" fill="#C1C3CA"/>
<path fill-rule="evenodd" clip-rule="evenodd" d="M260.118 23.532H259.345V24.7891H260.118V23.532Z" fill="#C1C3CA"/>
<path fill-rule="evenodd" clip-rule="evenodd" d="M261.037 34.7498L260.312 34.9431L260.602 36.2004L261.327 36.007L261.037 34.7498Z" fill="#C1C3CA"/>
<path fill-rule="evenodd" clip-rule="evenodd" d="M260.651 32.5256L259.877 32.6224C259.925 33.0576 260.022 33.4927 260.07 33.8796L260.844 33.7345C260.747 33.396 260.699 32.9608 260.651 32.5256Z" fill="#C1C3CA"/>
<path fill-rule="evenodd" clip-rule="evenodd" d="M260.361 30.3015L259.587 30.3982C259.635 30.8334 259.684 31.2686 259.732 31.6554L260.506 31.5586C260.457 31.1235 260.409 30.7367 260.361 30.3015Z" fill="#C1C3CA"/>
<path fill-rule="evenodd" clip-rule="evenodd" d="M263.213 41.1323L262.536 41.4708C262.73 41.8576 262.923 42.2445 263.116 42.6313L263.793 42.2445C263.552 41.906 263.407 41.5192 263.213 41.1323Z" fill="#C1C3CA"/>
<path fill-rule="evenodd" clip-rule="evenodd" d="M262.342 39.1016L261.617 39.3433L262.101 40.5522L262.778 40.262L262.342 39.1016Z" fill="#C1C3CA"/>
<path fill-rule="evenodd" clip-rule="evenodd" d="M261.617 36.9741L260.892 37.2159C260.988 37.6511 261.133 38.0379 261.278 38.4247L262.004 38.183C261.859 37.7478 261.714 37.3609 261.617 36.9741Z" fill="#C1C3CA"/>
<path fill-rule="evenodd" clip-rule="evenodd" d="M266.888 46.8381L266.26 47.3217L267.13 48.2887L267.71 47.7568L266.888 46.8381Z" fill="#C1C3CA"/>
<path fill-rule="evenodd" clip-rule="evenodd" d="M265.486 45.0493L264.857 45.4845C265.099 45.8229 265.389 46.1614 265.631 46.4999L266.26 46.0164C266.018 45.7263 265.728 45.3878 265.486 45.0493Z" fill="#C1C3CA"/>
<path fill-rule="evenodd" clip-rule="evenodd" d="M264.277 43.1633L263.6 43.5502C263.793 43.937 264.035 44.2755 264.277 44.6623L264.905 44.2272C264.712 43.8887 264.47 43.5018 264.277 43.1633Z" fill="#C1C3CA"/>
<path fill-rule="evenodd" clip-rule="evenodd" d="M271.772 51.4802L271.288 52.1087C271.627 52.3988 272.013 52.5923 272.352 52.834L272.787 52.2055C272.449 51.9638 272.11 51.722 271.772 51.4802Z" fill="#C1C3CA"/>
<path fill-rule="evenodd" clip-rule="evenodd" d="M270.031 50.0298L269.499 50.61C269.837 50.9001 270.128 51.1902 270.466 51.432L270.95 50.8518C270.66 50.61 270.321 50.3199 270.031 50.0298Z" fill="#C1C3CA"/>
<path fill-rule="evenodd" clip-rule="evenodd" d="M268.387 48.4822L267.807 49.0141C268.097 49.3042 268.387 49.6427 268.725 49.9328L269.257 49.3526C268.967 49.1108 268.677 48.7723 268.387 48.4822Z" fill="#C1C3CA"/>
<path fill-rule="evenodd" clip-rule="evenodd" d="M277.622 54.8164L277.332 55.5417C277.719 55.6868 278.106 55.8802 278.541 56.0252L278.831 55.2999C278.396 55.1549 278.009 55.0098 277.622 54.8164Z" fill="#C1C3CA"/>
<path fill-rule="evenodd" clip-rule="evenodd" d="M275.592 53.8494L275.205 54.5747L276.366 55.1549L276.704 54.4296L275.592 53.8494Z" fill="#C1C3CA"/>
<path fill-rule="evenodd" clip-rule="evenodd" d="M273.657 52.7373L273.222 53.4143L274.334 54.0428L274.721 53.4143L273.657 52.7373Z" fill="#C1C3CA"/>
<path fill-rule="evenodd" clip-rule="evenodd" d="M284.102 56.7024L284.005 57.4761C284.44 57.5244 284.875 57.6212 285.31 57.6212L285.359 56.8475C284.924 56.7991 284.488 56.7507 284.102 56.7024Z" fill="#C1C3CA"/>
<path fill-rule="evenodd" clip-rule="evenodd" d="M281.877 56.2671L281.684 57.0408L282.989 57.2826L283.134 56.5089L281.877 56.2671Z" fill="#C1C3CA"/>
<path fill-rule="evenodd" clip-rule="evenodd" d="M279.75 55.6384L279.508 56.3637C279.895 56.5088 280.33 56.6055 280.717 56.7506L280.91 56.0253C280.523 55.8802 280.136 55.7835 279.75 55.6384Z" fill="#C1C3CA"/>
<path fill-rule="evenodd" clip-rule="evenodd" d="M290.774 56.5089L290.919 57.2826C291.355 57.1859 291.79 57.0891 292.177 56.9924L291.983 56.2671C291.596 56.3154 291.21 56.4122 290.774 56.5089Z" fill="#C1C3CA"/>
<path fill-rule="evenodd" clip-rule="evenodd" d="M288.55 56.8475L288.598 57.6212C289.033 57.5728 289.469 57.5244 289.904 57.4761L289.807 56.7024C289.42 56.7507 288.985 56.7991 288.55 56.8475Z" fill="#C1C3CA"/>
<path fill-rule="evenodd" clip-rule="evenodd" d="M286.326 56.896V57.6696C286.761 57.6696 287.197 57.7179 287.632 57.6696V56.896C287.197 56.9443 286.761 56.896 286.326 56.896Z" fill="#C1C3CA"/>
<path fill-rule="evenodd" clip-rule="evenodd" d="M296.818 53.7527L297.302 54.3329C297.64 54.0428 297.93 53.7044 298.269 53.4143L297.689 52.8823C297.399 53.1724 297.108 53.4626 296.818 53.7527Z" fill="#C1C3CA"/>
<path fill-rule="evenodd" clip-rule="evenodd" d="M294.981 55.0101L295.368 55.6871C295.755 55.4453 296.094 55.2035 296.48 55.0101L296.045 54.3816C295.658 54.575 295.32 54.8167 294.981 55.0101Z" fill="#C1C3CA"/>
<path fill-rule="evenodd" clip-rule="evenodd" d="M292.95 55.9288L293.192 56.6541C293.579 56.5091 294.014 56.3157 294.401 56.1706L294.062 55.4453C293.724 55.5904 293.337 55.7838 292.95 55.9288Z" fill="#C1C3CA"/>
<path fill-rule="evenodd" clip-rule="evenodd" d="M299.865 48.0954L300.638 48.1437C300.687 47.7085 300.638 47.225 300.59 46.7898L299.816 46.8866C299.913 47.2734 299.913 47.7086 299.865 48.0954Z" fill="#C1C3CA"/>
<path fill-rule="evenodd" clip-rule="evenodd" d="M299.382 50.2229L300.107 50.5131C300.301 50.0779 300.397 49.6426 300.494 49.2075L299.72 49.0625C299.672 49.4493 299.527 49.8361 299.382 50.2229Z" fill="#C1C3CA"/>
<path fill-rule="evenodd" clip-rule="evenodd" d="M298.317 52.1087L298.946 52.5439C299.188 52.1571 299.43 51.8186 299.671 51.4318L298.994 51.0449C298.753 51.4317 298.559 51.7702 298.317 52.1087Z" fill="#C1C3CA"/>
<path fill-rule="evenodd" clip-rule="evenodd" d="M296.431 43.3086L296.625 42.535C296.19 42.4383 295.755 42.3416 295.271 42.2932L295.223 43.0668C295.658 43.1635 296.045 43.2119 296.431 43.3086Z" fill="#C1C3CA"/>
<path fill-rule="evenodd" clip-rule="evenodd" d="M298.366 44.2752L298.849 43.695C298.462 43.4049 298.075 43.1631 297.64 42.9697L297.302 43.695C297.689 43.8401 298.027 44.0335 298.366 44.2752Z" fill="#C1C3CA"/>
<path fill-rule="evenodd" clip-rule="evenodd" d="M299.623 45.9679L300.348 45.6778C300.203 45.2426 299.961 44.8075 299.671 44.469L299.091 44.9525C299.284 45.2426 299.478 45.5811 299.623 45.9679Z" fill="#C1C3CA"/>
<path fill-rule="evenodd" clip-rule="evenodd" d="M290.097 44.469L289.71 43.792C289.517 43.8887 289.323 44.0338 289.178 44.1788C288.985 44.3239 288.792 44.4206 288.646 44.5657L289.13 45.1943C289.275 45.0493 289.468 44.9525 289.614 44.8075C289.759 44.6624 289.904 44.5657 290.097 44.469Z" fill="#C1C3CA"/>
<path fill-rule="evenodd" clip-rule="evenodd" d="M292.129 43.5019L291.887 42.7766C291.645 42.825 291.452 42.9217 291.258 43.0184C291.065 43.1151 290.872 43.2117 290.63 43.3084L290.968 43.9854C291.162 43.8887 291.355 43.792 291.549 43.7437C291.742 43.647 291.887 43.5503 292.129 43.5019Z" fill="#C1C3CA"/>
<path fill-rule="evenodd" clip-rule="evenodd" d="M294.256 43.115L294.207 42.3413C293.966 42.3413 293.772 42.3897 293.53 42.3897C293.289 42.3897 293.095 42.438 292.854 42.4864L292.999 43.2601C293.192 43.2117 293.385 43.1633 293.579 43.1633C293.772 43.1633 294.062 43.115 294.256 43.115Z" fill="#C1C3CA"/>
<path fill-rule="evenodd" clip-rule="evenodd" d="M285.794 49.401L285.068 49.1108C284.875 49.4977 284.73 49.9328 284.585 50.3197L285.31 50.5614C285.504 50.1746 285.649 49.7878 285.794 49.401Z" fill="#C1C3CA"/>
<path fill-rule="evenodd" clip-rule="evenodd" d="M286.907 47.467L286.278 47.0317C286.133 47.2252 286.036 47.4186 285.891 47.5637C285.795 47.7571 285.649 47.9505 285.553 48.1439L286.23 48.5307C286.326 48.3373 286.423 48.1922 286.568 47.9988C286.665 47.8054 286.762 47.6604 286.907 47.467Z" fill="#C1C3CA"/>
<path fill-rule="evenodd" clip-rule="evenodd" d="M288.357 45.8226L287.825 45.2424C287.68 45.3875 287.487 45.5326 287.341 45.726C287.196 45.871 287.051 46.0644 286.906 46.2095L287.486 46.693C287.632 46.548 287.728 46.3546 287.873 46.2579C288.067 46.1128 288.212 45.9677 288.357 45.8226Z" fill="#C1C3CA"/>
<path fill-rule="evenodd" clip-rule="evenodd" d="M284.682 55.9771L283.908 56.0255C283.908 56.4606 283.957 56.8958 284.005 57.331L284.779 57.2343C284.73 56.7991 284.682 56.3639 284.682 55.9771Z" fill="#C1C3CA"/>
<path fill-rule="evenodd" clip-rule="evenodd" d="M284.731 53.7043L283.957 53.6077C283.909 54.0428 283.909 54.478 283.86 54.9132H284.634C284.682 54.5264 284.682 54.1395 284.731 53.7043Z" fill="#C1C3CA"/>
<path fill-rule="evenodd" clip-rule="evenodd" d="M285.069 51.5286L284.343 51.3352C284.247 51.7704 284.15 52.2055 284.102 52.6407L284.875 52.7374C284.924 52.3506 284.972 51.9154 285.069 51.5286Z" fill="#C1C3CA"/>
<path fill-rule="evenodd" clip-rule="evenodd" d="M285.987 62.553L285.262 62.7947C285.407 63.1816 285.552 63.6168 285.697 64.0036L286.422 63.7134C286.277 63.3266 286.132 62.9398 285.987 62.553Z" fill="#C1C3CA"/>
<path fill-rule="evenodd" clip-rule="evenodd" d="M285.31 60.377L284.585 60.5703C284.682 61.0055 284.827 61.3924 284.923 61.8276L285.649 61.5858C285.552 61.199 285.407 60.8121 285.31 60.377Z" fill="#C1C3CA"/>
<path fill-rule="evenodd" clip-rule="evenodd" d="M284.875 58.2012L284.102 58.2979C284.15 58.733 284.247 59.1683 284.343 59.5551L285.117 59.41C285.02 59.0232 284.924 58.6364 284.875 58.2012Z" fill="#C1C3CA"/>
<path fill-rule="evenodd" clip-rule="evenodd" d="M289.034 68.5491L288.405 68.9843L289.131 70.0481L289.759 69.5645L289.034 68.5491Z" fill="#C1C3CA"/>
<path fill-rule="evenodd" clip-rule="evenodd" d="M287.873 66.6147L287.196 67.0016L287.825 68.1138L288.502 67.7269L287.873 66.6147Z" fill="#C1C3CA"/>
<path fill-rule="evenodd" clip-rule="evenodd" d="M286.858 64.6326L286.133 64.971C286.326 65.3578 286.471 65.7446 286.665 66.1315L287.342 65.793L286.858 64.6326Z" fill="#C1C3CA"/>
<path fill-rule="evenodd" clip-rule="evenodd" d="M293.482 73.626L292.95 74.2063L293.917 75.0766L294.401 74.4964L293.482 73.626Z" fill="#C1C3CA"/>
<path fill-rule="evenodd" clip-rule="evenodd" d="M291.887 72.0786L291.307 72.6105L292.177 73.5292L292.757 72.949L291.887 72.0786Z" fill="#C1C3CA"/>
<path fill-rule="evenodd" clip-rule="evenodd" d="M290.388 70.3862L289.808 70.8698L290.63 71.8368L291.21 71.3533L290.388 70.3862Z" fill="#C1C3CA"/>
<path fill-rule="evenodd" clip-rule="evenodd" d="M298.946 77.5911L298.56 78.268L299.672 78.8966L300.059 78.2196L298.946 77.5911Z" fill="#C1C3CA"/>
<path fill-rule="evenodd" clip-rule="evenodd" d="M297.012 76.4304L296.577 77.059L297.689 77.7843L298.076 77.1074L297.012 76.4304Z" fill="#C1C3CA"/>
<path fill-rule="evenodd" clip-rule="evenodd" d="M295.223 75.1248L294.739 75.705L295.755 76.4787L296.19 75.8501L295.223 75.1248Z" fill="#C1C3CA"/>
<path fill-rule="evenodd" clip-rule="evenodd" d="M305.136 80.2019L304.942 80.9756L306.2 81.3141L306.345 80.5404L305.136 80.2019Z" fill="#C1C3CA"/>
<path fill-rule="evenodd" clip-rule="evenodd" d="M303.008 79.5254L302.767 80.2507L303.975 80.6858L304.217 79.9121L303.008 79.5254Z" fill="#C1C3CA"/>
<path fill-rule="evenodd" clip-rule="evenodd" d="M300.929 78.655L300.639 79.3319L301.799 79.8639L302.089 79.1386L300.929 78.655Z" fill="#C1C3CA"/>
<path fill-rule="evenodd" clip-rule="evenodd" d="M267.371 8.05912C267.371 8.05912 266.695 12.0241 270.466 12.6527C270.466 12.6527 272.739 11.0087 271.675 8.78442C270.659 6.60851 267.371 8.05912 267.371 8.05912Z" fill="#C1C3CA"/>
<path fill-rule="evenodd" clip-rule="evenodd" d="M266.84 8.34878C266.84 8.34878 266.453 12.4589 270.08 13.0392C270.08 13.0392 268.532 14.7799 267.082 13.7645C265.728 12.8458 264.761 11.105 265.099 9.50934C265.196 9.12251 265.389 8.73564 265.728 8.49387C266.018 8.39716 266.405 8.25208 266.84 8.34878Z" fill="#C1C3CA"/>
<path fill-rule="evenodd" clip-rule="evenodd" d="M264.277 9.79957C264.277 9.70286 262.391 11.8305 262.826 13.3778C262.826 13.3778 261.714 13.958 261.762 14.6349C261.762 14.6349 262.584 13.813 263.31 14.1998C263.31 14.1998 264.76 15.8438 267.033 14.6349C267.081 14.5866 264.47 13.136 264.277 9.79957Z" fill="#C1C3CA"/>
<path fill-rule="evenodd" clip-rule="evenodd" d="M267.13 7.38179C265.969 6.46307 265.099 5.20593 264.567 3.80368C264.422 3.4652 264.325 3.12675 264.325 2.73992C264.277 2.15968 264.47 1.57944 264.809 1.04755C265.05 0.660724 265.292 0.322179 265.727 0.128765C266.549 -0.258063 267.613 0.273826 268.048 1.09583C268.484 1.91784 268.435 2.88496 268.29 3.80368C268.145 4.86745 267.855 5.97963 267.468 6.99505C267.371 7.18847 267.275 7.38179 267.13 7.38179C266.985 7.43014 266.84 7.28513 266.695 7.18842C265.341 5.78617 263.503 5.01256 261.714 4.33561C261.327 4.19055 260.892 4.0454 260.505 3.99704C260.022 3.99704 259.587 4.1422 259.151 4.33561C258.571 4.62573 258.039 5.06082 257.797 5.68942C257.556 6.31801 257.701 7.04336 258.184 7.43019C258.474 7.67196 258.861 7.72033 259.248 7.81704C261.811 8.25222 264.422 8.15554 266.936 7.47859" fill="#C1C3CA"/>
<path d="M372.83 118.643L314.612 125.268L308.713 76.1406C306.731 59.7972 318.626 45.0009 335.017 43.4536C350.926 41.9063 365.142 53.3661 366.979 69.2261L372.83 118.643Z" stroke="#C1C3CA" stroke-width="5" stroke-miterlimit="10"/>
<path d="M435.206 23.29L450.727 34.7014C451.356 35.1366 451.162 36.1521 450.389 36.3455L444.151 37.7961L444.683 44.3238C444.731 45.1458 443.813 45.6293 443.184 45.0974L427.518 31.4134L435.206 23.29Z" fill="#1973AA"/>
<path d="M421.425 56.9917C423.321 56.9917 424.858 55.433 424.858 53.5102C424.858 51.5875 423.321 50.0288 421.425 50.0288C419.529 50.0288 417.992 51.5875 417.992 53.5102C417.992 55.433 419.529 56.9917 421.425 56.9917Z" fill="#949BA9"/>
<path d="M422.682 51.7694C423.262 48.8682 423.843 45.967 424.423 43.0658C424.81 41.035 425.245 39.0041 425.632 36.9249C425.825 36.0546 426.309 34.749 426.212 33.8786C426.26 34.5072 425.438 34.8458 426.309 34.0721C426.792 33.6369 427.276 33.1051 427.711 32.6215C429.161 31.1709 430.612 29.6719 432.014 28.2213C434.094 26.0938 436.221 23.9178 438.3 21.7903C439.848 20.243 437.43 17.8253 435.931 19.421C433.707 21.6936 431.531 23.9179 429.307 26.1905C427.904 27.6411 426.502 29.0916 425.051 30.4939C424.374 31.1708 423.407 31.8962 422.972 32.8149C422.585 33.6852 422.537 34.8457 422.344 35.7161C421.957 37.6986 421.57 39.7294 421.135 41.7119C420.506 44.7581 419.926 47.8528 419.297 50.899C419.007 52.9782 422.295 53.897 422.682 51.7694Z" fill="#949BA9"/>
<path d="M530.269 20.9209C533.074 20.9209 533.074 16.5691 530.269 16.5691C527.465 16.5691 527.465 20.9209 530.269 20.9209Z" fill="url(#paint1_linear_12192:214659)"/>
<defs>
<linearGradient id="paint0_linear_12192:214659" x1="384" y1="134" x2="380.501" y2="269.41" gradientUnits="userSpaceOnUse">
<stop offset="0.1653" stop-color="white"/>
<stop offset="0.618236" stop-color="white" stop-opacity="0"/>
<stop offset="1" stop-color="white" stop-opacity="0"/>
</linearGradient>
<linearGradient id="paint1_linear_12192:214659" x1="530.241" y1="20.9073" x2="530.298" y2="16.5557" gradientUnits="userSpaceOnUse">
<stop offset="0.1653" stop-color="#E3E5EA"/>
<stop offset="0.2826" stop-color="#EDEFF1" stop-opacity="0.8497"/>
<stop offset="0.4662" stop-color="#F4F5F7" stop-opacity="0.6143"/>
<stop offset="0.9455" stop-color="#F6F7F8" stop-opacity="0"/>
</linearGradient>
</defs>
</svg>
