<svg width="350" height="198" viewBox="0 0 350 198" fill="none" xmlns="http://www.w3.org/2000/svg">
<rect width="350" height="198" fill="#F5F5FF"/>
<path d="M189.041 143.523C225.573 135.197 250.598 108.307 244.936 83.4617C239.274 58.6168 205.069 45.2253 168.537 53.551C132.004 61.8767 106.979 88.7669 112.641 113.612C118.304 138.457 152.509 151.848 189.041 143.523Z" fill="#F9C521"/>
<path d="M114.401 89.5589C113.601 75.2451 123.941 62.9564 137.496 62.1105L208.736 57.6673C222.292 56.822 233.93 67.7399 234.731 82.0537L236.004 104.81C236.805 119.124 226.465 131.413 212.909 132.259L191.814 133.574C192.681 141.939 194.892 148.807 198.978 157.732C199.409 158.674 198.652 159.733 197.689 159.488C182.926 155.731 166.917 143.947 160.427 135.532L141.669 136.702C137.204 136.98 132.947 135.983 129.216 134.007" stroke="black" stroke-width="1.48402" stroke-linecap="round"/>
<path d="M192.586 118.661C192.472 117.255 191.962 110.711 191.879 109.303C191.877 109.272 191.865 109.058 191.861 108.996C191.821 108.323 192.104 107.907 192.778 107.867C193.115 107.847 193.892 108.017 193.921 108.506L194.077 111.139C194.867 109.956 196.041 109.026 197.113 108.963C199.011 108.851 199.804 110.831 200.26 112.31C200.562 113.275 201.865 117.652 202.166 118.587C202.168 118.618 202.172 118.679 202.172 118.679C202.212 119.352 201.798 119.623 201.217 119.688C199.051 119.939 198.495 111.554 197.192 111.354C196.51 111.241 194.385 113.24 194.413 113.7L194.756 119.516C194.783 119.976 194.095 120.293 193.759 120.313C192.871 120.365 192.541 119.463 192.586 118.661Z" fill="black"/>
<path d="M185.909 121.114C178.99 121.523 179.291 108.418 185.895 108.397C191.393 108.379 192.246 120.74 185.909 121.114ZM185.633 110.716C182.572 110.897 182.019 119.224 185.662 119.009C188.968 118.814 188.883 110.617 185.633 110.716Z" fill="black"/>
<path d="M174.518 121.787C167.599 122.196 167.9 109.091 174.504 109.07C180.002 109.052 180.855 121.413 174.518 121.787ZM174.242 111.389C171.18 111.57 170.628 119.897 174.271 119.682C177.577 119.487 177.492 111.289 174.242 111.389Z" fill="black"/>
<path d="M158.867 120.868C158.842 120.44 159.391 119.854 159.759 119.833C160.738 119.775 161.781 120.266 163.097 120.189C163.281 120.178 164.259 120.089 164.474 120.076C165.05 119.95 165.849 119.442 165.809 118.769C165.576 114.82 157.25 111.686 156.992 107.308C156.813 104.278 159.749 101.462 162.719 101.287C167.127 101.027 168.358 104.702 168.533 107.671C168.585 108.559 168.73 111.008 167.291 111.093C166.863 111.118 166.222 110.665 166.193 110.175C166.148 109.41 166.29 108.695 166.243 107.899C166.13 106.001 165.352 103.22 162.964 103.361C161.188 103.466 159.17 105.183 159.282 107.081C159.351 108.244 160.262 109.112 161.044 109.865C161.433 110.211 164.394 113.015 164.782 113.331C166.217 114.751 167.824 116.469 167.947 118.55C168.037 120.081 166.804 122.089 165.151 122.187L161.233 122.419C160.375 122.469 158.929 121.909 158.867 120.868Z" fill="black"/>
<path d="M202.764 98.2029C202.728 97.5905 203.106 97.2304 203.749 97.1923C204.545 97.1453 205.348 98.2652 207.063 98.1643C209.818 98.0016 210.309 93.8251 209.924 90.9599C209.897 91.0232 209.84 91.088 209.814 91.1815C208.992 92.8585 207.788 95.3566 205.676 95.4812C203.257 95.6242 202.278 93.1014 202.159 91.0806C201.967 87.8356 203.301 83.3637 207.133 83.2297C209.8 83.1337 212.073 84.1666 212.239 93.2196C212.303 96.38 210.62 100.135 207.221 100.336C205.752 100.423 202.849 99.6419 202.764 98.2029ZM204.352 90.767C204.356 90.8283 204.36 90.8892 204.365 90.9812C204.414 91.8078 204.472 93.3096 205.612 93.365C206.968 93.4387 209.037 87.9098 209.116 87.1677C209.115 87.1371 209.111 87.0757 209.109 87.0451C209.05 86.0349 208.118 85.3528 207.231 85.4052C204.72 85.5536 204.235 88.7769 204.352 90.767Z" fill="black"/>
<path d="M192.129 94.4073C192.015 93.001 191.505 86.4569 191.422 85.0486C191.42 85.0179 191.408 84.8037 191.404 84.7424C191.364 84.0692 191.647 83.6531 192.321 83.6131C192.658 83.5933 193.435 83.7625 193.464 84.2522L193.62 86.8848C194.41 85.7016 195.584 84.7721 196.655 84.7088C198.554 84.597 199.346 86.5776 199.802 88.0557C200.105 89.0208 201.408 93.3987 201.709 94.3331C201.711 94.3638 201.714 94.4251 201.714 94.4251C201.755 95.0984 201.34 95.3685 200.76 95.4338C198.594 95.6846 198.037 87.2999 196.735 87.1005C196.052 86.9872 193.928 88.9867 193.956 89.4458L194.299 95.2621C194.326 95.7217 193.638 96.0388 193.302 96.0585C192.414 96.111 192.084 95.2087 192.129 94.4073Z" fill="black"/>
<path d="M188.481 84.0241C188.818 84.0043 189.169 84.2294 189.369 84.494L189.959 94.4741C189.971 94.6883 190.029 95.6682 190.042 95.8824C189.921 96.4424 189.471 96.6224 188.951 96.6536C188.4 96.6858 187.928 96.4988 187.89 95.8557L187.307 84.9536C187.284 84.5559 188.114 84.0459 188.481 84.0241ZM186.975 79.8431C186.938 79.2307 187.592 78.8543 188.204 78.8182C188.878 78.7781 189.235 79.0952 189.274 79.7684C189.312 80.4115 188.999 80.8295 188.387 80.8656C187.805 80.8997 187.011 80.4555 186.975 79.8431Z" fill="black"/>
<path d="M177.552 96.4973C177.496 96.0704 177.441 95.6741 177.387 95.2784C177.377 95.0944 177.337 94.9435 177.326 94.7595C176.851 90.8862 176.579 88.8749 176.105 88.6567C176.105 88.6567 176.044 88.6607 176.014 88.6622C174.867 89.0064 173.037 91.3265 173.066 91.8162C173.13 92.8877 173.244 94.8164 173.696 96.2336C173.883 96.806 173.52 97.4114 172.816 97.453C172.111 97.4945 171.861 96.895 171.674 96.3222C171.046 93.5025 170.753 90.1096 170.452 87.0861C170.65 86.7977 171.063 86.497 171.43 86.4752C171.859 86.45 172.406 86.8784 172.493 87.3033L172.738 88.8556C173.602 87.3607 174.63 86.5628 176.038 86.4797C178.089 86.3585 178.734 88.9624 178.899 90.7037C179.282 88.8684 180.24 86.8764 182.444 86.7463C184.005 86.6543 184.616 88.6765 184.868 89.8286C185.044 90.7096 185.875 94.9 186.051 95.8112C186.05 96.3024 185.468 96.8594 184.978 96.8881C184.519 96.9153 183.858 96.6472 183.887 96.0926C183.595 94.7887 182.699 90.5409 182.301 88.9975C181.533 89.5343 179.474 92.1135 179.562 96.7164C179.362 96.9741 179.07 97.2373 178.733 97.2571C178.305 97.2823 177.699 96.9187 177.552 96.4973Z" fill="black"/>
<path d="M164.435 98.1015C157.516 98.5101 157.817 85.4057 164.421 85.384C169.918 85.3666 170.771 97.7275 164.435 98.1015ZM164.158 87.7035C161.096 87.8845 160.544 96.2119 164.187 95.9967C167.494 95.8013 167.409 87.6041 164.158 87.7035Z" fill="black"/>
<path d="M144.273 88.817C144.048 84.9902 145.418 78.0276 150.286 77.7402C153.378 77.5572 154.596 80.4961 154.749 83.098C154.831 84.4757 155.135 89.6188 153.022 89.744C152.471 89.7761 152.324 89.3552 152.354 88.8308C152.462 87.0119 152.782 85.1499 152.66 83.099C152.584 81.8129 152.128 79.8124 150.383 79.9153C147.138 80.1072 146.221 85.3839 146.353 88.6631C146.473 91.7281 148.052 96.6115 151.722 96.3335C155.3 96.0604 155.304 92.4968 156.525 92.3633C157.136 92.2965 157.502 92.7664 157.536 93.3482C157.71 96.287 154.368 98.4814 151.854 98.5684C146.702 98.7188 144.516 92.9188 144.273 88.817Z" fill="black"/>
<path fill-rule="evenodd" clip-rule="evenodd" d="M191.879 109.303C191.962 110.711 192.472 117.255 192.586 118.661C192.541 119.463 192.871 120.365 193.759 120.313C194.095 120.293 194.783 119.976 194.756 119.516L194.413 113.7C194.385 113.24 196.51 111.241 197.192 111.354C197.75 111.44 198.17 113.024 198.639 114.789C199.265 117.148 199.978 119.831 201.217 119.688C201.798 119.623 202.212 119.352 202.172 118.679L202.166 118.587C201.998 118.064 201.516 116.464 201.071 114.986C200.72 113.823 200.393 112.735 200.26 112.31C199.804 110.831 199.011 108.851 197.113 108.963C196.159 109.019 195.125 109.761 194.352 110.758C194.256 110.881 194.164 111.008 194.077 111.139L193.921 108.506C193.892 108.017 193.115 107.847 192.778 107.867C192.104 107.907 191.821 108.323 191.861 108.996L191.879 109.303ZM201.872 118.642C201.694 118.086 201.22 116.51 200.782 115.058C200.433 113.897 200.107 112.815 199.976 112.399L199.976 112.397C199.749 111.662 199.448 110.839 198.988 110.216C198.536 109.605 197.95 109.211 197.13 109.259C196.67 109.286 196.163 109.503 195.666 109.87C195.17 110.235 194.702 110.737 194.324 111.304L193.833 112.039L193.625 108.524C193.621 108.455 193.561 108.358 193.35 108.269C193.152 108.186 192.918 108.156 192.795 108.163C192.518 108.18 192.37 108.269 192.286 108.376C192.197 108.491 192.14 108.681 192.157 108.979L192.176 109.285C192.259 110.689 192.768 117.23 192.882 118.638L192.883 118.658L192.882 118.678C192.862 119.04 192.929 119.403 193.078 119.657C193.218 119.894 193.424 120.035 193.741 120.016C193.849 120.01 194.055 119.947 194.23 119.831C194.414 119.71 194.464 119.6 194.46 119.534L194.116 113.717C194.111 113.633 194.131 113.555 194.152 113.497C194.174 113.435 194.205 113.373 194.239 113.314C194.307 113.196 194.402 113.067 194.51 112.935C194.728 112.67 195.024 112.37 195.34 112.09C195.654 111.811 195.998 111.546 196.312 111.355C196.469 111.26 196.627 111.178 196.775 111.125C196.916 111.074 197.08 111.036 197.239 111.061C197.547 111.109 197.76 111.377 197.907 111.631C198.067 111.906 198.211 112.272 198.348 112.682C198.542 113.268 198.733 113.985 198.928 114.722C199.007 115.018 199.086 115.316 199.167 115.611C199.454 116.657 199.76 117.662 200.123 118.387C200.305 118.749 200.49 119.021 200.676 119.191C200.857 119.356 201.021 119.412 201.183 119.393L201.185 119.393C201.444 119.363 201.619 119.293 201.724 119.195C201.817 119.108 201.891 118.965 201.875 118.697L201.872 118.642Z" fill="#F9C521"/>
<path fill-rule="evenodd" clip-rule="evenodd" d="M185.909 121.114C178.99 121.523 179.291 108.418 185.895 108.397C191.393 108.379 192.246 120.74 185.909 121.114ZM185.633 110.716C182.572 110.897 182.019 119.224 185.662 119.009C188.968 118.814 188.883 110.617 185.633 110.716ZM185.619 110.42H185.624C186.587 110.39 187.289 110.984 187.734 111.8C188.178 112.613 188.395 113.686 188.403 114.75C188.41 115.814 188.207 116.904 187.774 117.752C187.339 118.601 186.648 119.248 185.679 119.306C184.627 119.367 183.883 118.8 183.429 117.972C182.983 117.157 182.803 116.073 182.836 115.002C182.87 113.928 183.12 112.831 183.571 111.979C184.019 111.134 184.701 110.474 185.615 110.42H185.619ZM182.301 119.129C183.088 120.225 184.271 120.914 185.891 120.818C187.363 120.731 188.416 119.955 189.099 118.814C189.787 117.664 190.097 116.145 190.044 114.619C189.991 113.093 189.578 111.593 188.859 110.486C188.143 109.382 187.142 108.689 185.896 108.693C184.358 108.698 183.185 109.46 182.383 110.62C181.574 111.787 181.145 113.353 181.128 114.92C181.11 116.488 181.505 118.022 182.301 119.129Z" fill="#F9C521"/>
<path fill-rule="evenodd" clip-rule="evenodd" d="M174.518 121.787C167.599 122.196 167.9 109.091 174.504 109.07C180.002 109.052 180.855 121.413 174.518 121.787ZM174.242 111.389C171.18 111.57 170.628 119.897 174.271 119.682C177.577 119.487 177.492 111.289 174.242 111.389ZM174.228 111.092H174.233C175.196 111.063 175.898 111.657 176.343 112.473C176.786 113.286 177.004 114.359 177.012 115.423C177.019 116.487 176.816 117.577 176.382 118.425C175.948 119.274 175.257 119.921 174.288 119.978C173.236 120.04 172.492 119.473 172.038 118.645C171.592 117.83 171.412 116.746 171.445 115.675C171.479 114.601 171.729 113.503 172.18 112.652C172.628 111.807 173.31 111.147 174.224 111.093L174.228 111.092ZM170.909 119.802C171.696 120.897 172.88 121.586 174.5 121.491C175.972 121.404 177.025 120.627 177.708 119.487C178.396 118.337 178.705 116.818 178.653 115.292C178.6 113.766 178.187 112.266 177.468 111.158C176.752 110.055 175.751 109.362 174.505 109.367C172.967 109.371 171.794 110.133 170.991 111.292C170.183 112.459 169.754 114.025 169.737 115.593C169.719 117.161 170.114 118.695 170.909 119.802Z" fill="#F9C521"/>
<path fill-rule="evenodd" clip-rule="evenodd" d="M159.759 119.833C159.391 119.854 158.842 120.44 158.867 120.868C158.929 121.909 160.375 122.469 161.233 122.419L165.151 122.187C166.804 122.089 168.037 120.081 167.947 118.55C167.824 116.469 166.217 114.751 164.782 113.331C164.544 113.137 163.336 112.005 162.349 111.08C161.728 110.498 161.194 109.998 161.044 109.865L161.024 109.846C160.247 109.097 159.35 108.234 159.282 107.081C159.17 105.183 161.188 103.466 162.964 103.361C165.352 103.22 166.13 106.001 166.243 107.899C166.266 108.301 166.242 108.682 166.217 109.06C166.194 109.43 166.17 109.796 166.193 110.175C166.222 110.665 166.863 111.118 167.291 111.093C168.73 111.008 168.585 108.559 168.533 107.671C168.358 104.702 167.127 101.027 162.719 101.287C159.749 101.462 156.813 104.278 156.992 107.308C157.124 109.554 159.379 111.472 161.575 113.34C163.662 115.115 165.696 116.845 165.809 118.769C165.849 119.442 165.05 119.95 164.474 120.076C164.362 120.083 164.045 120.11 163.74 120.136C163.458 120.16 163.186 120.183 163.097 120.189C162.391 120.23 161.763 120.108 161.182 119.995C160.68 119.897 160.213 119.806 159.759 119.833ZM164.582 113.551C164.359 113.366 163.526 112.59 162.711 111.826C162.518 111.645 162.325 111.465 162.141 111.292C161.522 110.712 160.994 110.217 160.847 110.086L160.842 110.083L160.811 110.052C160.431 109.686 160 109.272 159.656 108.802C159.302 108.318 159.025 107.756 158.986 107.099C158.923 106.037 159.456 105.054 160.21 104.334C160.964 103.615 161.977 103.122 162.947 103.065C164.289 102.986 165.173 103.742 165.716 104.722C166.253 105.69 166.481 106.909 166.539 107.881C166.564 108.3 166.538 108.695 166.515 109.067L166.514 109.07C166.49 109.446 166.468 109.797 166.489 110.158C166.496 110.284 166.592 110.45 166.776 110.595C166.959 110.739 167.157 110.804 167.274 110.797C167.535 110.781 167.719 110.665 167.861 110.472C168.011 110.268 168.115 109.975 168.18 109.629C168.309 108.936 168.263 108.137 168.237 107.689C168.151 106.229 167.805 104.631 166.97 103.438C166.149 102.266 164.839 101.459 162.736 101.583C161.335 101.666 159.926 102.375 158.886 103.435C157.847 104.495 157.204 105.878 157.287 107.291C157.347 108.293 157.87 109.249 158.672 110.199C159.474 111.149 160.528 112.059 161.603 112.973C161.659 113.022 161.716 113.07 161.773 113.119C162.784 113.978 163.802 114.844 164.591 115.73C165.423 116.664 166.041 117.663 166.106 118.751C166.133 119.219 165.868 119.596 165.565 119.854C165.259 120.114 164.87 120.294 164.537 120.366L164.514 120.371L164.491 120.373C164.389 120.379 164.096 120.404 163.799 120.429L163.759 120.433C163.481 120.456 163.208 120.48 163.115 120.485C162.417 120.526 161.795 120.416 161.245 120.309C161.208 120.302 161.172 120.295 161.135 120.288C160.622 120.188 160.191 120.105 159.776 120.129C159.753 120.13 159.699 120.145 159.619 120.195C159.543 120.243 159.462 120.312 159.388 120.395C159.228 120.576 159.158 120.753 159.164 120.851C159.186 121.226 159.46 121.552 159.895 121.793C160.327 122.032 160.847 122.144 161.215 122.122L165.134 121.891C165.841 121.849 166.49 121.394 166.961 120.734C167.432 120.073 167.691 119.255 167.65 118.568C167.594 117.6 167.19 116.702 166.612 115.861C166.035 115.022 165.296 114.258 164.582 113.551Z" fill="#F9C521"/>
<path fill-rule="evenodd" clip-rule="evenodd" d="M203.749 97.1923C203.106 97.2304 202.728 97.5905 202.764 98.2029C202.849 99.6419 205.752 100.423 207.221 100.336C210.62 100.135 212.303 96.38 212.239 93.2196C212.073 84.1666 209.8 83.1337 207.133 83.2297C203.301 83.3637 201.967 87.8356 202.159 91.0806C202.278 93.1014 203.257 95.6242 205.676 95.4812C207.677 95.363 208.863 93.1132 209.682 91.4511C209.719 91.3774 209.754 91.3042 209.789 91.233L209.814 91.1815C209.83 91.1227 209.859 91.0752 209.885 91.0326C209.9 91.0074 209.914 90.9837 209.924 90.9599C209.936 91.0455 209.947 91.1321 209.956 91.2196C209.957 91.231 209.959 91.2419 209.96 91.2528C209.969 91.3369 209.978 91.4214 209.985 91.507C210.239 94.3276 209.647 98.0115 207.063 98.1643C206.043 98.2242 205.346 97.8527 204.78 97.5514C204.395 97.3461 204.071 97.1735 203.749 97.1923ZM209.537 91.0727C209.56 91.0029 209.59 90.9475 209.612 90.9095C209.619 90.8986 209.625 90.8882 209.63 90.8798C209.635 90.8709 209.639 90.8644 209.643 90.8585C209.65 90.8471 209.651 90.8432 209.651 90.8432L210.075 89.8533L210.219 90.9208C210.414 92.3801 210.39 94.1852 209.955 95.6593C209.524 97.1255 208.647 98.3676 207.08 98.4606C206.148 98.5155 205.463 98.2361 204.927 97.9635C204.816 97.9071 204.718 97.8547 204.627 97.8062C204.488 97.7315 204.365 97.6662 204.239 97.6093C204.041 97.5193 203.894 97.4812 203.767 97.4886C203.494 97.5049 203.316 97.587 203.212 97.6914C203.113 97.7918 203.046 97.9467 203.06 98.1856C203.076 98.4409 203.216 98.6917 203.488 98.934C203.76 99.1769 204.142 99.3911 204.583 99.5657C205.468 99.916 206.518 100.08 207.204 100.04C208.783 99.9461 209.975 99.031 210.776 97.732C211.579 96.428 211.973 94.7565 211.942 93.2255V93.225C211.859 88.7052 211.248 86.2605 210.377 84.959C209.949 84.3189 209.457 83.9563 208.927 83.7545C208.389 83.5497 207.793 83.5032 207.144 83.5265C205.365 83.5888 204.156 84.6489 203.401 86.124C202.642 87.607 202.362 89.4813 202.455 91.0633C202.513 92.0408 202.779 93.1216 203.304 93.9309C203.821 94.7273 204.577 95.2487 205.658 95.1849C206.591 95.13 207.35 94.5507 207.995 93.7301C208.63 92.9223 209.118 91.9275 209.528 91.0915L209.537 91.0727ZM204.365 90.9812L204.352 90.767C204.235 88.7769 204.72 85.5536 207.231 85.4052C208.118 85.3528 209.05 86.0349 209.109 87.0451L209.116 87.1677C209.037 87.9098 206.968 93.4387 205.612 93.365C204.501 93.3111 204.418 91.8825 204.369 91.045C204.368 91.0232 204.366 91.002 204.365 90.9812ZM205.596 93.6618C205.868 93.6762 206.119 93.55 206.331 93.3843C206.547 93.2161 206.758 92.9797 206.959 92.7091C207.361 92.1669 207.76 91.4397 208.111 90.6997C208.464 89.9572 208.776 89.19 209.005 88.5607C209.119 88.2461 209.214 87.9642 209.283 87.7356C209.349 87.5145 209.398 87.3226 209.412 87.1989L209.414 87.1747L209.405 87.0278C209.335 85.8341 208.244 85.0481 207.213 85.1089C205.799 85.1925 204.974 86.1537 204.53 87.287C204.088 88.4143 203.996 89.7648 204.056 90.7843L204.069 90.999C204.07 91.0217 204.071 91.0455 204.073 91.0697C204.096 91.4714 204.13 92.0561 204.298 92.5567C204.388 92.8258 204.524 93.0924 204.736 93.2987C204.955 93.5104 205.24 93.644 205.596 93.6618Z" fill="#F9C521"/>
<path fill-rule="evenodd" clip-rule="evenodd" d="M191.422 85.0486C191.505 86.4569 192.015 93.001 192.129 94.4073C192.084 95.2087 192.414 96.111 193.302 96.0585C193.638 96.0388 194.326 95.7217 194.299 95.2621L193.956 89.4458C193.928 88.9867 196.052 86.9872 196.735 87.1005C197.293 87.1856 197.713 88.7695 198.182 90.5345C198.808 92.8941 199.521 95.5772 200.76 95.4338C201.34 95.3685 201.755 95.0984 201.714 94.4251L201.709 94.3331C201.541 93.8103 201.059 92.2095 200.614 90.7319C200.263 89.5684 199.936 88.4811 199.802 88.0557C199.346 86.5776 198.554 84.597 196.655 84.7088C195.702 84.7652 194.668 85.5072 193.895 86.5034C193.799 86.6271 193.707 86.7547 193.62 86.8848L193.464 84.2522C193.435 83.7625 192.658 83.5933 192.321 83.6131C191.647 83.6531 191.364 84.0692 191.404 84.7424L191.422 85.0486ZM201.415 94.388C201.237 93.8315 200.763 92.2555 200.325 90.8036C199.976 89.6426 199.65 88.5613 199.519 88.1448L199.519 88.1433C199.292 87.4077 198.991 86.5851 198.531 85.9623C198.079 85.3509 197.493 84.9566 196.673 85.0051C196.213 85.0323 195.706 85.2485 195.209 85.6155C194.713 85.9811 194.245 86.4832 193.867 87.0501L193.376 87.7851L193.168 84.2695C193.164 84.2012 193.104 84.1043 192.893 84.0152C192.694 83.9316 192.461 83.9024 192.338 83.9094C192.061 83.9257 191.913 84.0147 191.829 84.1221C191.74 84.2373 191.683 84.4273 191.7 84.7251L191.719 85.0308C191.801 86.4352 192.311 92.9757 192.425 94.3836L192.426 94.4039L192.425 94.4241C192.405 94.7862 192.472 95.1488 192.621 95.4026C192.761 95.6401 192.967 95.781 193.284 95.7622C193.392 95.7558 193.598 95.693 193.773 95.5777C193.957 95.456 194.006 95.3462 194.003 95.2799L193.659 89.4631C193.654 89.379 193.674 89.3013 193.695 89.2424C193.717 89.1806 193.748 89.1188 193.782 89.0599C193.85 88.9422 193.945 88.8131 194.053 88.681C194.271 88.4158 194.567 88.1156 194.883 87.8361C195.197 87.5571 195.54 87.2915 195.855 87.1005C196.012 87.0055 196.17 86.9244 196.318 86.871C196.459 86.8195 196.623 86.7814 196.782 86.8072C197.09 86.8556 197.303 87.1233 197.45 87.377C197.61 87.6516 197.754 88.0181 197.891 88.4282C198.085 89.0139 198.276 89.7307 198.471 90.4682C198.55 90.7636 198.629 91.0623 198.71 91.3577C198.997 92.4039 199.303 93.4081 199.666 94.1328C199.848 94.4954 200.033 94.7665 200.219 94.9366C200.4 95.1018 200.563 95.1577 200.726 95.1389L200.727 95.1384C200.987 95.1098 201.162 95.0385 201.267 94.9406C201.36 94.8535 201.434 94.7111 201.418 94.4424L201.415 94.388Z" fill="#F9C521"/>
<path fill-rule="evenodd" clip-rule="evenodd" d="M189.369 84.494C189.169 84.2294 188.818 84.0043 188.481 84.0241C188.114 84.0459 187.284 84.5559 187.307 84.9536L187.89 95.8557C187.928 96.4988 188.4 96.6858 188.951 96.6536C189.471 96.6224 189.921 96.4424 190.042 95.8824L189.369 84.494ZM189.078 84.6083C188.915 84.4282 188.683 84.3095 188.499 84.3204C188.458 84.3229 188.375 84.3432 188.26 84.3941C188.149 84.4426 188.03 84.5109 187.921 84.589C187.811 84.6682 187.722 84.7508 187.664 84.825C187.61 84.8952 187.604 84.9313 187.604 84.9363C187.604 84.9368 187.604 84.9368 187.604 84.9363V84.9378L188.186 95.8384C188.186 95.8389 188.186 95.8389 188.186 95.8394C188.201 96.0808 188.288 96.194 188.388 96.2584C188.505 96.3335 188.688 96.3716 188.933 96.3573C189.17 96.3429 189.357 96.2964 189.49 96.2138C189.605 96.1431 189.696 96.0367 189.743 95.8567L189.078 84.6083ZM188.204 78.8182C187.592 78.8543 186.938 79.2307 186.975 79.8431C187.011 80.4555 187.805 80.8997 188.387 80.8656C188.999 80.8295 189.312 80.4115 189.274 79.7684C189.235 79.0952 188.878 78.7781 188.204 78.8182ZM187.524 79.3524C187.346 79.4845 187.26 79.6443 187.271 79.8253C187.282 80.0039 187.407 80.1948 187.64 80.3497C187.871 80.503 188.152 80.5822 188.37 80.5693C188.608 80.555 188.754 80.4709 188.842 80.3601C188.933 80.2443 188.994 80.0588 188.978 79.7862C188.961 79.4949 188.879 79.3356 188.78 79.2475C188.681 79.16 188.513 79.0972 188.222 79.1145C187.964 79.1298 187.706 79.2169 187.524 79.3524Z" fill="#F9C521"/>
<path fill-rule="evenodd" clip-rule="evenodd" d="M177.387 95.2784C177.441 95.6741 177.496 96.0704 177.552 96.4973C177.699 96.9187 178.305 97.2823 178.733 97.2571C179.07 97.2373 179.362 96.9741 179.562 96.7164C179.482 92.5542 181.159 90.0467 182.048 89.2078C182.142 89.1187 182.227 89.049 182.301 88.9975C182.325 89.092 182.351 89.1969 182.379 89.3107C182.679 90.535 183.168 92.7882 183.526 94.4424C183.678 95.1389 183.805 95.7295 183.887 96.0926C183.858 96.6472 184.519 96.9153 184.978 96.8881C185.468 96.8594 186.05 96.3024 186.051 95.8112C185.875 94.9 185.044 90.7096 184.868 89.8286C184.616 88.6765 184.005 86.6543 182.444 86.7463C180.552 86.8581 179.578 88.3421 179.098 89.9206C179.019 90.1808 178.953 90.444 178.899 90.7037C178.875 90.4509 178.841 90.1798 178.794 89.9013C178.517 88.2634 177.792 86.3763 176.038 86.4797C174.758 86.5553 173.791 87.2222 172.977 88.4668C172.896 88.5904 172.816 88.7205 172.738 88.8556L172.493 87.3033C172.406 86.8784 171.859 86.45 171.43 86.4752C171.063 86.497 170.65 86.7977 170.452 87.0861C170.483 87.3992 170.514 87.7158 170.546 88.0359C170.818 90.8061 171.111 93.7944 171.674 96.3222C171.861 96.895 172.111 97.4945 172.816 97.453C173.52 97.4114 173.883 96.806 173.696 96.2336C173.244 94.8164 173.13 92.8877 173.066 91.8162C173.037 91.3265 174.867 89.0064 176.014 88.6622L176.105 88.6567C176.579 88.8749 176.851 90.8862 177.326 94.7595C177.332 94.8515 177.344 94.9351 177.357 95.0187C177.369 95.1028 177.382 95.1864 177.387 95.2784ZM177.683 95.2487C177.676 95.1483 177.663 95.0573 177.651 94.9791L177.65 94.9747C177.637 94.8896 177.627 94.8184 177.622 94.7422L177.622 94.7328L177.62 94.7234C177.384 92.7897 177.196 91.3087 177.007 90.2837C176.913 89.7722 176.817 89.3606 176.709 89.0579C176.655 88.907 176.595 88.772 176.524 88.6622C176.455 88.5548 176.361 88.4475 176.229 88.3871L176.162 88.3559L175.961 88.3678L175.928 88.3782C175.585 88.4811 175.219 88.7205 174.877 89.0025C174.529 89.2884 174.181 89.6386 173.875 89.9894C173.569 90.3406 173.298 90.6992 173.103 91.0059C173.006 91.1593 172.924 91.3047 172.867 91.4333C172.815 91.5491 172.762 91.696 172.77 91.834L172.771 91.8483C172.834 92.9139 172.949 94.8713 173.413 96.3237L173.414 96.3261C173.54 96.713 173.308 97.1265 172.798 97.1567C172.553 97.171 172.403 97.082 172.282 96.9321C172.148 96.7654 172.053 96.5255 171.96 96.2435C171.404 93.7375 171.113 90.7739 170.841 88.0057C170.814 87.7262 170.787 87.4487 170.759 87.1737C170.833 87.0886 170.93 87.0015 171.04 86.9288C171.188 86.8324 171.333 86.7784 171.447 86.7715C171.565 86.7646 171.739 86.8239 171.907 86.9545C172.071 87.0832 172.174 87.2375 172.201 87.3572L172.575 89.7297L172.995 89.0045C173.828 87.5625 174.78 86.8512 176.056 86.776C176.918 86.725 177.503 87.2311 177.912 88.029C178.325 88.8328 178.523 89.8751 178.603 90.7314L179.19 90.7645C179.377 89.8687 179.699 88.9595 180.225 88.2649C180.744 87.5788 181.459 87.102 182.461 87.0426C183.082 87.006 183.539 87.378 183.892 87.9726C184.246 88.5672 184.453 89.3206 184.578 89.8894C184.752 90.7665 185.564 94.8614 185.753 95.8344C185.743 95.9695 185.655 96.148 185.489 96.3118C185.315 96.4844 185.111 96.5829 184.961 96.5918C184.787 96.6021 184.568 96.5542 184.403 96.4547C184.245 96.3583 184.176 96.2425 184.183 96.108L184.185 96.0669L184.176 96.0273C184.096 95.6692 183.969 95.083 183.819 94.39C183.427 92.5814 182.877 90.0433 182.588 88.9233L182.481 88.5088L182.13 88.7542C181.691 89.0618 180.956 89.8889 180.341 91.2067C179.733 92.5132 179.236 94.3173 179.263 96.613C179.089 96.8144 178.894 96.9504 178.716 96.9608C178.582 96.9687 178.385 96.9128 178.195 96.7936C178.017 96.6813 177.893 96.5433 177.841 96.4236C177.787 96.0135 177.735 95.6306 177.683 95.2487Z" fill="#F9C521"/>
<path fill-rule="evenodd" clip-rule="evenodd" d="M164.435 98.1015C157.516 98.5101 157.817 85.4057 164.421 85.384C169.918 85.3666 170.771 97.7275 164.435 98.1015ZM164.421 85.6808C162.883 85.6857 161.711 86.4475 160.908 87.6065C160.099 88.774 159.671 90.3401 159.654 91.9077C159.636 93.4758 160.03 95.0093 160.826 96.1169C161.612 97.2121 162.797 97.9012 164.417 97.8052C165.889 97.7186 166.942 96.942 167.624 95.8018C168.313 94.6517 168.621 93.1325 168.569 91.606C168.516 90.0804 168.103 88.5805 167.384 87.473C166.668 86.3693 165.668 85.6768 164.421 85.6808ZM164.158 87.7035C161.096 87.8845 160.544 96.2119 164.187 95.9967C167.494 95.8013 167.409 87.6041 164.158 87.7035ZM164.145 87.4072H164.149C165.112 87.3775 165.814 87.9716 166.259 88.7878C166.703 89.6001 166.921 90.6735 166.928 91.7375C166.936 92.8016 166.732 93.8918 166.299 94.7392C165.865 95.5886 165.174 96.2356 164.205 96.293C163.153 96.3548 162.409 95.7879 161.955 94.9593C161.509 94.1446 161.328 93.0603 161.362 91.9893C161.396 90.9159 161.646 89.8182 162.097 88.9669C162.544 88.1215 163.227 87.4616 164.141 87.4072H164.145Z" fill="#F9C521"/>
<path fill-rule="evenodd" clip-rule="evenodd" d="M151.744 96.6293C149.744 96.7812 148.342 95.5143 147.447 93.8958C146.551 92.2772 146.118 90.2426 146.057 88.675C145.99 87.0094 146.188 84.8309 146.822 83.0327C147.45 81.2524 148.554 79.7263 150.366 79.619C150.864 79.5898 151.284 79.711 151.63 79.9415C151.971 80.1696 152.224 80.4936 152.41 80.8478C152.781 81.5507 152.918 82.4213 152.957 83.0812C153.041 84.5153 152.912 85.8756 152.79 87.1662C152.736 87.7405 152.683 88.3015 152.65 88.8486C152.636 89.09 152.669 89.2523 152.723 89.3413C152.759 89.3997 152.82 89.4585 153.005 89.4477C153.387 89.4249 153.689 89.182 153.931 88.7111C154.174 88.2362 154.327 87.5798 154.414 86.8551C154.588 85.4116 154.494 83.8069 154.453 83.1158C154.378 81.8465 154.044 80.5203 153.374 79.5423C152.715 78.5802 151.732 77.952 150.303 78.0365C148.037 78.1701 146.549 79.853 145.644 82.0637C144.741 84.2699 144.459 86.9214 144.57 88.7991C144.689 90.8144 145.286 93.2378 146.474 95.1295C147.657 97.0132 149.404 98.3429 151.844 98.2716C153.029 98.2306 154.431 97.6879 155.514 96.798C156.597 95.9091 157.319 94.7095 157.24 93.3655C157.226 93.128 157.145 92.9371 157.031 92.8164C156.924 92.7036 156.773 92.6348 156.558 92.6581C156.404 92.6749 156.241 92.8045 156.013 93.1612C155.912 93.32 155.81 93.5025 155.695 93.7083C155.687 93.7221 155.679 93.7365 155.672 93.7508C155.549 93.971 155.413 94.2124 155.258 94.4557C154.628 95.4431 153.66 96.4834 151.744 96.6293ZM151.854 98.5684C154.368 98.4814 157.71 96.287 157.536 93.3482C157.502 92.7664 157.136 92.2965 156.525 92.3633C156.078 92.4122 155.794 92.9218 155.438 93.5614C154.821 94.667 153.989 96.1604 151.722 96.3335C148.052 96.6115 146.473 91.7281 146.353 88.6631C146.221 85.3839 147.138 80.1072 150.383 79.9153C152.128 79.8124 152.584 81.8129 152.66 83.099C152.744 84.5098 152.618 85.8311 152.497 87.1108C152.442 87.6911 152.387 88.2634 152.354 88.8308C152.324 89.3552 152.471 89.7761 153.022 89.744C155.135 89.6188 154.831 84.4757 154.749 83.098C154.596 80.4961 153.378 77.5572 150.286 77.7402C145.418 78.0276 144.048 84.9902 144.273 88.817C144.516 92.9188 146.702 98.7188 151.854 98.5684Z" fill="#F9C521"/>
<path d="M105.98 143.367L95.0661 131.049C94.684 130.618 94.74 129.952 95.1805 129.58C108.636 118.235 113.549 109.222 119.396 92.341C119.651 91.6039 120.606 91.409 121.126 91.9908L147.912 121.959C148.424 122.532 148.142 123.444 147.397 123.632C130.755 127.831 121.365 131.754 107.411 143.465C106.986 143.822 106.348 143.782 105.98 143.367Z" stroke="black" stroke-width="1.61825" stroke-linecap="round"/>
<path d="M128.971 100.206C132.356 97.9486 136.973 98.4571 139.773 101.571C142.574 104.685 142.593 109.33 139.991 112.457" stroke="black" stroke-width="1.61825"/>
<path d="M97.6204 134.533C96.8517 136.125 97.0887 138.093 98.3661 139.465C99.6436 140.837 101.59 141.214 103.233 140.561" stroke="black" stroke-width="1.61825"/>
<path d="M111.565 140.446L114.028 156.04C114.193 157.088 115.441 157.551 116.25 156.865L120.841 152.971C121.212 152.656 121.386 152.167 121.298 151.688L118.329 135.573" stroke="black" stroke-width="1.61825" stroke-linecap="round"/>
<path d="M103.97 126.876C109.334 122.52 111.697 119.832 114.853 114.756" stroke="black" stroke-width="1.48402" stroke-linecap="round"/>
<path d="M147.254 51.1906C149.303 51.1906 150.964 49.5296 150.964 47.4806C150.964 45.4316 149.303 43.7705 147.254 43.7705C145.205 43.7705 143.543 45.4316 143.543 47.4806C143.543 49.5296 145.205 51.1906 147.254 51.1906Z" stroke="black" stroke-width="1.48402"/>
<path d="M99.0069 82.6864C99.9352 82.1482 101.273 84.5761 101.922 85.1652C103.579 86.672 104.606 86.3183 106.192 87.0648C107.778 87.8113 105.753 88.8471 105.106 89.6811C104.284 90.7382 103.969 91.6628 103.696 92.8881C103.544 93.5598 103.712 96.7678 102.142 95.399C101.252 94.6239 100.614 93.2843 99.4779 92.4795C98.2683 91.6242 97.1688 91.6559 95.9204 91.2388C94.3576 90.718 96.5172 89.2963 97.1086 88.4979C97.367 88.1486 97.6014 87.793 97.788 87.4121C98.2258 86.5241 98.7771 82.8259 99.0077 82.6889L99.0069 82.6864Z" fill="#F9C521"/>
<path d="M221.207 136.027C226.043 135.751 233.974 130.068 235.8 125.886" stroke="black" stroke-width="1.48402" stroke-linecap="round"/>
<path d="M246.188 115.498C247.418 115.498 248.414 114.501 248.414 113.272C248.414 112.043 247.418 111.046 246.188 111.046C244.959 111.046 243.962 112.043 243.962 113.272C243.962 114.501 244.959 115.498 246.188 115.498Z" stroke="black" stroke-width="1.48402"/>
</svg>
