<svg width="133" height="167" viewBox="0 0 133 167" fill="none" xmlns="http://www.w3.org/2000/svg">
    <path d="M130.742 40.6562L131.993 20.4626C132.12 18.4195 130.566 16.6605 128.523 16.5339L33.9427 10.6713C31.8997 10.5447 30.1407 12.0983 30.014 14.1415L23.3471 121.703C23.2204 123.746 24.7738 125.505 26.8174 125.631L121.398 131.494C123.441 131.621 125.2 130.067 125.326 128.024L128.456 77.5299L129.222 65.1807L130.065 51.5672" stroke="black" stroke-width="1.08757" stroke-linecap="round"/>
    <path d="M130.427 46.1138L130.633 42.793" stroke="black" stroke-width="1.08757" stroke-linecap="round"/>
    <path d="M130.222 49.435L130.31 48.0117" stroke="black" stroke-width="1.08757" stroke-linecap="round"/>
    <path d="M101.575 30.3047H4.25317C2.05522 30.3047 0.273438 32.0865 0.273438 34.2844V162.396C0.273438 164.594 2.05522 166.376 4.25317 166.376H101.575C103.773 166.376 105.555 164.594 105.555 162.396V34.2844C105.555 32.0865 103.773 30.3047 101.575 30.3047Z" fill="#C7CEFF"/>
    <path d="M0.273438 34.2845C0.273438 32.0865 2.05522 30.3047 4.25316 30.3047H101.575C103.773 30.3047 105.555 32.0865 105.555 34.2845V82.9452H0.273438V34.2845Z" fill="#A0ABFF"/>
    <mask id="mask0_13828_39450" style="mask-type:alpha" maskUnits="userSpaceOnUse" x="0" y="30" width="106" height="53">
        <path d="M0.273438 34.2845C0.273438 32.0865 2.05522 30.3047 4.25316 30.3047H101.575C103.773 30.3047 105.555 32.0865 105.555 34.2845V82.9452H0.273438V34.2845Z" fill="#A0ABFF"/>
    </mask>
    <g mask="url(#mask0_13828_39450)">
        <path d="M100.339 118.204C119.126 118.204 134.357 102.084 134.357 82.1995C134.357 62.3149 119.126 46.1953 100.339 46.1953C81.5515 46.1953 66.3213 62.3149 66.3213 82.1995C66.3213 102.084 81.5515 118.204 100.339 118.204Z" fill="#7E8EFF"/>
        <path d="M30.399 62.0939C29.5076 55.2497 29.4391 48.972 30.0405 44.3595C30.3419 42.0498 30.8077 40.1821 31.4086 38.8745C32.0195 37.5441 32.7103 36.9134 33.3976 36.824C34.0844 36.7341 34.9142 37.1666 35.8458 38.2964C36.7611 39.4064 37.6902 41.0928 38.5732 43.2481C40.3362 47.5522 41.8777 53.6382 42.7691 60.4829C43.6605 67.3272 43.73 73.6053 43.1286 78.2178C42.8272 80.5271 42.3609 82.3948 41.7605 83.7024C41.1496 85.0333 40.4578 85.664 39.771 85.7539C39.0842 85.8433 38.2544 85.4102 37.3233 84.2804C36.4075 83.1705 35.4783 81.4845 34.5959 79.3293C32.8324 75.0251 31.2909 68.9387 30.399 62.0939Z" stroke="#544AF6" stroke-width="0.831626"/>
        <path d="M30.399 62.0939C29.5076 55.2497 29.4391 48.972 30.0405 44.3595C30.3419 42.0498 30.8077 40.1821 31.4086 38.8745C32.0195 37.5441 32.7103 36.9134 33.3976 36.824C34.0844 36.7341 34.9142 37.1666 35.8458 38.2964C36.7611 39.4064 37.6902 41.0928 38.5732 43.2481C40.3362 47.5522 41.8777 53.6382 42.7691 60.4829C43.6605 67.3272 43.73 73.6053 43.1286 78.2178C42.8272 80.5271 42.3609 82.3948 41.7605 83.7024C41.1496 85.0333 40.4578 85.664 39.771 85.7539C39.0842 85.8433 38.2544 85.4102 37.3233 84.2804C36.4075 83.1705 35.4783 81.4845 34.5959 79.3293C32.8324 75.0251 31.2909 68.9387 30.399 62.0939Z" stroke="#544AF6" stroke-width="0.831626"/>
        <path d="M30.399 62.0939C29.5076 55.2497 29.4391 48.972 30.0405 44.3595C30.3419 42.0498 30.8077 40.1821 31.4086 38.8745C32.0195 37.5441 32.7103 36.9134 33.3976 36.824C34.0844 36.7341 34.9142 37.1666 35.8458 38.2964C36.7611 39.4064 37.6902 41.0928 38.5732 43.2481C40.3362 47.5522 41.8777 53.6382 42.7691 60.4829C43.6605 67.3272 43.73 73.6053 43.1286 78.2178C42.8272 80.5271 42.3609 82.3948 41.7605 83.7024C41.1496 85.0333 40.4578 85.664 39.771 85.7539C39.0842 85.8433 38.2544 85.4102 37.3233 84.2804C36.4075 83.1705 35.4783 81.4845 34.5959 79.3293C32.8324 75.0251 31.2909 68.9387 30.399 62.0939Z" stroke="#544AF6" stroke-width="0.831626"/>
        <path d="M32.297 56.76C37.3103 52.0154 42.3489 48.27 46.434 46.0452C48.479 44.9318 50.2643 44.2107 51.6752 43.9281C53.1109 43.6406 54.0271 43.8288 54.5034 44.3319C54.9796 44.8349 55.1177 45.7606 54.7512 47.1784C54.3911 48.5714 53.5732 50.3145 52.3486 52.295C49.9023 56.2515 45.8847 61.076 40.8714 65.8201C35.8582 70.5647 30.8196 74.3112 26.7345 76.5355C24.6894 77.6489 22.9041 78.3694 21.4933 78.6525C20.0576 78.9401 19.1408 78.7518 18.6646 78.2488C18.1883 77.7452 18.0513 76.82 18.4178 75.4022C18.7778 74.0092 19.5952 72.2666 20.8199 70.2856C23.2662 66.3292 27.2837 61.5041 32.297 56.76Z" stroke="#544AF6" stroke-width="0.831626"/>
        <path d="M32.297 56.76C37.3103 52.0154 42.3489 48.27 46.434 46.0452C48.479 44.9318 50.2643 44.2107 51.6752 43.9281C53.1109 43.6406 54.0271 43.8288 54.5034 44.3319C54.9796 44.8349 55.1177 45.7606 54.7512 47.1784C54.3911 48.5714 53.5732 50.3145 52.3486 52.295C49.9023 56.2515 45.8847 61.076 40.8714 65.8201C35.8582 70.5647 30.8196 74.3112 26.7345 76.5355C24.6894 77.6489 22.9041 78.3694 21.4933 78.6525C20.0576 78.9401 19.1408 78.7518 18.6646 78.2488C18.1883 77.7452 18.0513 76.82 18.4178 75.4022C18.7778 74.0092 19.5952 72.2666 20.8199 70.2856C23.2662 66.3292 27.2837 61.5041 32.297 56.76Z" stroke="#544AF6" stroke-width="0.831626"/>
        <path d="M32.297 56.76C37.3103 52.0154 42.3489 48.27 46.434 46.0452C48.479 44.9318 50.2643 44.2107 51.6752 43.9281C53.1109 43.6406 54.0271 43.8288 54.5034 44.3319C54.9796 44.8349 55.1177 45.7606 54.7512 47.1784C54.3911 48.5714 53.5732 50.3145 52.3486 52.295C49.9023 56.2515 45.8847 61.076 40.8714 65.8201C35.8582 70.5647 30.8196 74.3112 26.7345 76.5355C24.6894 77.6489 22.9041 78.3694 21.4933 78.6525C20.0576 78.9401 19.1408 78.7518 18.6646 78.2488C18.1883 77.7452 18.0513 76.82 18.4178 75.4022C18.7778 74.0092 19.5952 72.2666 20.8199 70.2856C23.2662 66.3292 27.2837 61.5041 32.297 56.76Z" stroke="#544AF6" stroke-width="0.831626"/>
        <path d="M39.4539 55.9301C45.5155 59.2316 50.6345 62.8662 54.0125 66.0639C55.7039 67.665 56.941 69.1404 57.6462 70.3948C58.3633 71.6711 58.4671 72.6008 58.1358 73.2091C57.8046 73.8175 56.9668 74.2346 55.5053 74.3245C54.0691 74.4124 52.1586 74.173 49.8966 73.6203C45.3779 72.5168 39.5482 70.1863 33.4866 66.8843C27.4255 63.5828 22.3055 59.9487 18.9275 56.7505C17.2361 55.1499 15.9995 53.6745 15.2944 52.4201C14.5772 51.1438 14.473 50.2136 14.8042 49.6053C15.1359 48.9969 15.9737 48.5803 17.4352 48.4904C18.8714 48.4025 20.7814 48.6419 23.0434 49.1941C27.5626 50.2981 33.3928 52.6281 39.4539 55.9301Z" stroke="#544AF6" stroke-width="0.831626"/>
        <path d="M39.4539 55.9301C45.5155 59.2316 50.6345 62.8662 54.0125 66.0639C55.7039 67.665 56.941 69.1404 57.6462 70.3948C58.3633 71.6711 58.4671 72.6008 58.1358 73.2091C57.8046 73.8175 56.9668 74.2346 55.5053 74.3245C54.0691 74.4124 52.1586 74.173 49.8966 73.6203C45.3779 72.5168 39.5482 70.1863 33.4866 66.8843C27.4255 63.5828 22.3055 59.9487 18.9275 56.7505C17.2361 55.1499 15.9995 53.6745 15.2944 52.4201C14.5772 51.1438 14.473 50.2136 14.8042 49.6053C15.1359 48.9969 15.9737 48.5803 17.4352 48.4904C18.8714 48.4025 20.7814 48.6419 23.0434 49.1941C27.5626 50.2981 33.3928 52.6281 39.4539 55.9301Z" stroke="#544AF6" stroke-width="0.831626"/>
        <path d="M39.4539 55.9301C45.5155 59.2316 50.6345 62.8662 54.0125 66.0639C55.7039 67.665 56.941 69.1404 57.6462 70.3948C58.3633 71.6711 58.4671 72.6008 58.1358 73.2091C57.8046 73.8175 56.9668 74.2346 55.5053 74.3245C54.0691 74.4124 52.1586 74.173 49.8966 73.6203C45.3779 72.5168 39.5482 70.1863 33.4866 66.8843C27.4255 63.5828 22.3055 59.9487 18.9275 56.7505C17.2361 55.1499 15.9995 53.6745 15.2944 52.4201C14.5772 51.1438 14.473 50.2136 14.8042 49.6053C15.1359 48.9969 15.9737 48.5803 17.4352 48.4904C18.8714 48.4025 20.7814 48.6419 23.0434 49.1941C27.5626 50.2981 33.3928 52.6281 39.4539 55.9301Z" stroke="#544AF6" stroke-width="0.831626"/>
        <path d="M20.1396 59.5171C21.43 59.349 22.3399 58.1667 22.1718 56.8762C22.0037 55.5858 20.8213 54.676 19.5309 54.8441C18.2404 55.0122 17.3306 56.1945 17.4987 57.485C17.6668 58.7754 18.8492 59.6852 20.1396 59.5171Z" fill="#544AF6"/>
        <path d="M47.5881 48.1132C48.8026 47.955 49.6509 46.7806 49.4828 45.4902C49.3147 44.1997 48.1939 43.2819 46.9794 43.4401C45.7648 43.5983 44.9165 44.7727 45.0846 46.0631C45.2527 47.3535 46.3736 48.2714 47.5881 48.1132Z" fill="#544AF6"/>
        <path d="M43.1945 81.5311C44.409 81.3729 45.2573 80.1986 45.0892 78.9081C44.9212 77.6177 43.8003 76.6999 42.5858 76.8581C41.3713 77.0163 40.523 78.1906 40.6911 79.4811C40.8592 80.7715 41.98 81.6893 43.1945 81.5311Z" fill="#544AF6"/>
    </g>
    <path d="M92.7426 159.492L13.5813 159.492C11.7425 159.492 10.252 158.002 10.252 156.163L10.252 149.01C10.252 147.171 11.7425 145.681 13.5813 145.681L92.7426 145.681C94.5814 145.681 96.0719 147.171 96.0719 149.01L96.0719 156.163C96.0719 158.002 94.5814 159.492 92.7426 159.492Z" stroke="black" stroke-width="1.08663"/>
    <path opacity="0.29" d="M0.273438 138.609H105.555" stroke="#A0ABFF" stroke-width="1.13585"/>
    <path d="M8.23145 103.266C8.9997 103.266 52.2186 103.266 73.7317 103.266" stroke="white" stroke-width="3.47626" stroke-linecap="round"/>
    <path d="M8.22461 114.645C8.80316 114.645 41.3678 114.645 57.5771 114.645" stroke="white" stroke-width="3.47626" stroke-linecap="round"/>
    <path d="M15.1719 16.3945C16.8013 16.3945 18.1446 17.719 18.1446 19.3806C18.1446 21.0418 16.8013 22.3668 15.1719 22.3668C13.5425 22.3668 12.1992 21.0418 12.1992 19.3806C12.1992 17.719 13.5425 16.3945 15.1719 16.3945Z" stroke="black" stroke-width="0.993218"/>
    <path d="M42.237 1C43.1806 1 43.9682 1.76875 43.9682 2.74464C43.9682 3.72047 43.1806 4.48878 42.237 4.48878C41.293 4.48868 40.5059 3.72042 40.5059 2.74464C40.5059 1.7688 41.293 1.00015 42.237 1Z" stroke="black" stroke-width="0.993218"/>
</svg>