<svg width="80" height="80" viewBox="0 0 80 80" fill="none" xmlns="http://www.w3.org/2000/svg">
<rect width="79.9991" height="80" fill="none"/>
<path d="M23.8313 17.6314C24.2423 17.5247 24.5978 17.7089 24.904 17.9481C25.21 18.1871 25.5658 18.5607 25.9988 19.0137L26.2272 19.253C26.5032 19.542 26.5652 19.5951 26.6296 19.622C26.6753 19.6411 26.7276 19.6491 26.9147 19.6467L27.1516 19.6411L27.4723 19.631C28.0787 19.612 28.5811 19.5954 28.9609 19.6417C29.3246 19.6861 29.672 19.7988 29.8977 20.1085L29.9411 20.173C30.1612 20.5279 30.117 20.9174 29.9974 21.2935C29.9089 21.5721 29.7603 21.9004 29.5766 22.2828L29.382 22.6834L29.2375 22.9779C29.0649 23.3324 29.0361 23.4102 29.0325 23.4861C29.0289 23.5643 29.0518 23.6493 29.1892 24.025L29.3048 24.3389C29.5224 24.9341 29.7015 25.4221 29.7833 25.8066C29.8652 26.1917 29.8758 26.5891 29.6164 26.9181C29.352 27.2532 28.9626 27.3227 28.5757 27.313C28.2894 27.3059 27.9383 27.253 27.5275 27.1818L26.7797 27.049C26.7794 27.049 26.7791 27.0489 26.7789 27.0488C26.7786 27.0486 26.7783 27.0485 26.7781 27.0485C26.3941 26.9792 26.3219 26.9753 26.2615 26.991C26.201 27.0067 26.1398 27.0452 25.838 27.2925C25.8378 27.2927 25.8376 27.2929 25.8375 27.2932C25.8374 27.2934 25.8372 27.2936 25.837 27.2938L25.5874 27.4975C25.1153 27.8834 24.725 28.2042 24.3962 28.3982C24.0631 28.5948 23.6894 28.7239 23.2956 28.5599C22.9088 28.3986 22.7244 28.0467 22.6084 27.6702C22.4927 27.2943 22.412 26.7811 22.3124 26.155L22.2602 25.8248L22.22 25.5814C22.1856 25.3871 22.1663 25.3272 22.1356 25.278L22.1346 25.2764C22.0951 25.2124 22.032 25.1588 21.7092 24.9338L21.4394 24.7457C20.9296 24.3901 20.5096 24.0984 20.2257 23.8313C19.9381 23.5607 19.7103 23.2423 19.7298 22.8249C19.7496 22.4026 20.0114 22.1129 20.3274 21.8828C20.637 21.6573 21.0844 21.4278 21.6235 21.1496L21.9086 21.0024L22.1179 20.8928C22.2824 20.8038 22.3241 20.7707 22.3552 20.7312C22.3984 20.6766 22.4261 20.6013 22.5269 20.2137L22.6101 19.8936L22.7239 19.4594C22.8338 19.0463 22.9348 18.6983 23.0481 18.43C23.1992 18.072 23.4202 17.7381 23.8313 17.6314Z" fill="#6B84FF"/>
<path d="M44.6073 24.4454C44.8992 24.4984 45.0705 24.7195 45.1943 24.961C45.3181 25.2023 45.434 25.5435 45.5754 25.9578L45.65 26.1764C45.7401 26.4406 45.7638 26.4925 45.7967 26.5285C45.8201 26.554 45.8509 26.5744 45.9702 26.6278L46.122 26.6937L46.3282 26.7815C46.7181 26.9474 47.0415 27.0844 47.2686 27.2252C47.4861 27.3601 47.6732 27.5335 47.7253 27.7961L47.7339 27.8497C47.7693 28.1392 47.6269 28.3731 47.4407 28.5764C47.3028 28.727 47.1123 28.8915 46.8836 29.08L46.6427 29.2768L46.4647 29.421C46.2512 29.595 46.2101 29.6359 46.1856 29.6829C46.1603 29.7315 46.1499 29.792 46.1267 30.0705L46.1079 30.3034C46.071 30.7445 46.0414 31.1064 45.9804 31.3741C45.9192 31.6423 45.8093 31.8973 45.5483 32.0296C45.2824 32.1644 45.0152 32.0942 44.7728 31.9745C44.5934 31.8859 44.3864 31.7493 44.1469 31.5836L43.7119 31.28C43.7117 31.2799 43.7116 31.2797 43.7114 31.2796C43.7113 31.2794 43.7112 31.2793 43.711 31.2792C43.488 31.1225 43.4434 31.0989 43.4004 31.0911C43.3575 31.0833 43.3074 31.0897 43.0436 31.1579C43.0434 31.158 43.0432 31.1581 43.043 31.1582C43.0429 31.1583 43.0427 31.1584 43.0425 31.1584L42.8245 31.2142C42.412 31.3203 42.0705 31.4091 41.8052 31.4356C41.5364 31.4624 41.2616 31.4345 41.0601 31.2149C40.8623 30.9992 40.8487 30.722 40.8857 30.4493C40.9226 30.1772 41.0221 29.8281 41.1428 29.4021L41.2066 29.1775L41.2526 29.0114C41.2878 28.8781 41.2932 28.8345 41.2882 28.7944L41.288 28.793C41.2817 28.7409 41.2575 28.6884 41.1189 28.451L41.0031 28.2526C40.7844 27.8776 40.6038 27.5694 40.5023 27.3168C40.3994 27.0609 40.3484 26.7922 40.4833 26.5333C40.6198 26.2715 40.8708 26.1647 41.1386 26.1116C41.401 26.0595 41.7519 26.0454 42.1753 26.0273L42.3993 26.0177L42.5641 26.0097C42.6944 26.0016 42.7306 25.9928 42.7619 25.9769C42.8053 25.955 42.845 25.9154 43.0226 25.6993L43.1693 25.5208L43.3689 25.279C43.5598 25.0494 43.726 24.8585 43.8765 24.7217C44.0774 24.5392 44.3155 24.3924 44.6073 24.4454Z" fill="#6B84FF"/>
<path d="M26.0248 28.6664C25.8452 28.9024 25.8679 29.1812 25.9393 29.443C26.0108 29.7046 26.1555 30.0347 26.3305 30.4359L26.423 30.6476C26.5347 30.9034 26.5522 30.9577 26.5521 31.0065C26.5521 31.041 26.5431 31.0769 26.4911 31.1968L26.4235 31.3479L26.3305 31.5518C26.1546 31.9373 26.0083 32.2565 25.9357 32.5137C25.8661 32.76 25.845 33.0142 25.9836 33.2432L26.0134 33.2886C26.1827 33.5262 26.4456 33.6028 26.7202 33.6273C26.9236 33.6454 27.1752 33.6383 27.4711 33.6231L27.7817 33.6059L28.0104 33.5922C28.2854 33.5767 28.3433 33.5791 28.3931 33.5973C28.4445 33.6161 28.4931 33.6537 28.6981 33.8437L28.8691 34.0029C29.1939 34.3036 29.4599 34.5508 29.6855 34.7072C29.9116 34.8639 30.1648 34.978 30.4467 34.8996C30.734 34.8197 30.8838 34.5876 30.982 34.3357C31.0546 34.1493 31.1153 33.9089 31.1803 33.625L31.2966 33.1074C31.2966 33.1072 31.2966 33.107 31.2966 33.1068C31.2966 33.1066 31.2966 33.1064 31.2966 33.1062C31.3556 32.8401 31.3726 32.7926 31.399 32.7579C31.4255 32.7231 31.4668 32.6941 31.7075 32.5664C31.7077 32.5664 31.7079 32.5663 31.7081 32.5663C31.7083 32.5662 31.7085 32.5662 31.7087 32.5661L31.9072 32.4602C32.2833 32.2603 32.5953 32.0953 32.809 31.9359C33.0255 31.7744 33.2096 31.5684 33.2101 31.2704C33.2106 30.9778 33.0337 30.7639 32.8224 30.5876C32.6115 30.4116 32.3026 30.2211 31.9261 29.9881L31.7274 29.8653L31.5815 29.7737C31.4656 29.6991 31.4322 29.6705 31.4088 29.6375L31.4081 29.6364C31.3775 29.5937 31.36 29.5386 31.3021 29.2699L31.2537 29.0453C31.1622 28.6209 31.0876 28.2716 30.9922 28.0166C30.8954 27.7583 30.7518 27.5256 30.4776 27.4255C30.2002 27.3243 29.9429 27.4148 29.7093 27.5563C29.4806 27.6949 29.212 27.9212 28.8873 28.1935L28.7154 28.3374L28.5884 28.4427C28.4867 28.5246 28.4541 28.5426 28.4202 28.552C28.3734 28.565 28.3174 28.5626 28.0405 28.5229L27.8118 28.4901L27.5014 28.4463C27.2056 28.4056 26.9541 28.3767 26.7507 28.3773C26.4793 28.3781 26.2045 28.4304 26.0248 28.6664Z" fill="#6B84FF"/>
<path d="M19.8812 32.1885C19.7429 32.3701 19.7604 32.5847 19.8154 32.7862C19.8704 32.9876 19.9818 33.2416 20.1165 33.5505L20.1877 33.7134C20.2736 33.9103 20.2871 33.9521 20.2871 33.9897C20.2871 34.0163 20.2801 34.0439 20.2401 34.1361L20.1881 34.2524L20.1165 34.4094C19.9811 34.7061 19.8685 34.9518 19.8126 35.1498C19.7591 35.3394 19.7428 35.5351 19.8495 35.7113L19.8725 35.7462C20.0028 35.9291 20.2051 35.9881 20.4164 36.0069C20.573 36.0209 20.7666 36.0154 20.9945 36.0037L21.2335 35.9904L21.4095 35.98C21.6212 35.968 21.6658 35.9699 21.7041 35.9838C21.7437 35.9983 21.7811 36.0273 21.9389 36.1735L22.0705 36.296C22.3205 36.5275 22.5252 36.7178 22.6989 36.8382C22.8729 36.9588 23.0678 37.0466 23.2848 36.9863C23.5059 36.9248 23.6212 36.7461 23.6968 36.5522C23.7527 36.4088 23.7994 36.2237 23.8494 36.0052L23.939 35.6068C23.939 35.6066 23.939 35.6064 23.939 35.6063C23.939 35.6062 23.939 35.606 23.939 35.6058C23.9844 35.401 23.9975 35.3645 24.0178 35.3377C24.0382 35.311 24.0699 35.2887 24.2553 35.1904C24.2554 35.1903 24.2556 35.1903 24.2557 35.1903C24.2559 35.1902 24.256 35.1902 24.2561 35.1901L24.409 35.1086C24.6984 34.9547 24.9386 34.8278 25.1031 34.7051C25.2697 34.5807 25.4114 34.4222 25.4119 34.1928C25.4122 33.9676 25.276 33.803 25.1134 33.6673C24.9511 33.5318 24.7133 33.3852 24.4235 33.2058L24.2706 33.1113L24.1582 33.0408C24.0691 32.9834 24.0434 32.9614 24.0254 32.9359L24.0248 32.9351C24.0012 32.9022 23.9877 32.8598 23.9432 32.653L23.906 32.4801C23.8355 32.1535 23.7781 31.8846 23.7046 31.6883C23.6302 31.4895 23.5196 31.3104 23.3086 31.2334C23.095 31.1555 22.897 31.2251 22.7172 31.334C22.5412 31.4407 22.3344 31.6149 22.0845 31.8245L21.9522 31.9353L21.8544 32.0163C21.7761 32.0793 21.751 32.0932 21.725 32.1004C21.689 32.1104 21.6459 32.1086 21.4327 32.078L21.2567 32.0528L21.0177 32.019C20.7901 31.9877 20.5965 31.9655 20.4399 31.966C20.231 31.9666 20.0195 32.0068 19.8812 32.1885Z" fill="#6B84FF"/>
<path d="M52.3632 32.6231C52.6551 32.6761 52.8263 32.8972 52.9502 33.1387C53.074 33.38 53.1898 33.7213 53.3313 34.1355L53.4059 34.3542C53.496 34.6184 53.5197 34.6702 53.5526 34.7062C53.5759 34.7317 53.6068 34.7521 53.726 34.8055L53.8778 34.8715L54.0841 34.9593C54.474 35.1252 54.7973 35.2621 55.0245 35.403C55.242 35.5379 55.4291 35.7113 55.4812 35.9738L55.4898 36.0274C55.5251 36.317 55.3828 36.5509 55.1966 36.7542C55.0587 36.9048 54.8682 37.0692 54.6395 37.2577L54.3986 37.4545L54.2206 37.5987C54.0071 37.7728 53.966 37.8136 53.9414 37.8606C53.9162 37.9092 53.9057 37.9698 53.8826 38.2483L53.8637 38.4811C53.8269 38.9222 53.7972 39.2841 53.7362 39.5518C53.6751 39.82 53.5651 40.075 53.3042 40.2073C53.0382 40.3422 52.771 40.2719 52.5286 40.1522C52.3492 40.0636 52.1422 39.9271 51.9027 39.7613L51.4677 39.4577C51.4676 39.4576 51.4674 39.4575 51.4673 39.4573C51.4672 39.4571 51.4671 39.457 51.4669 39.4569C51.2439 39.3003 51.1993 39.2766 51.1563 39.2688C51.1134 39.261 51.0633 39.2675 50.7994 39.3357C50.7992 39.3357 50.7991 39.3358 50.7989 39.3359C50.7987 39.336 50.7986 39.3361 50.7984 39.3362L50.5804 39.392C50.1679 39.4981 49.8263 39.5868 49.561 39.6133C49.2922 39.6401 49.0174 39.6123 48.816 39.3927C48.6182 39.177 48.6045 38.8998 48.6415 38.6271C48.6785 38.3549 48.778 38.0059 48.8987 37.5799L48.9625 37.3552L49.0084 37.1891C49.0437 37.0559 49.049 37.0123 49.044 36.9721L49.0438 36.9708C49.0376 36.9186 49.0134 36.8661 48.8748 36.6288L48.759 36.4303C48.5403 36.0553 48.3597 35.7472 48.2581 35.4945C48.1553 35.2386 48.1043 34.9699 48.2392 34.7111C48.3757 34.4492 48.6267 34.3424 48.8945 34.2893C49.1569 34.2373 49.5078 34.2231 49.9312 34.2051L50.1551 34.1954L50.3199 34.1874C50.4503 34.1793 50.4865 34.1705 50.5178 34.1547C50.5612 34.1327 50.6008 34.0931 50.7785 33.877L50.9252 33.6985L51.1247 33.4567C51.3157 33.2272 51.4818 33.0362 51.6324 32.8994C51.8333 32.7169 52.0713 32.5701 52.3632 32.6231Z" fill="#6B84FF"/>
<path d="M19.0038 35.0856C17.3857 35.9513 16.8851 38.8998 18.3572 39.7846H54.3974C55.8704 38.8992 55.3688 35.9513 53.7507 35.0856C52.8075 34.5825 51.0967 34.62 50.11 34.9956C49.7626 34.2428 49.2123 33.1599 48.3849 32.7182C47.0017 31.9789 44.4996 32.0329 43.0469 32.5834C42.7551 32.1455 42.5469 31.6764 42.1703 31.2761C40.4501 29.4574 32.3045 29.4574 30.5843 31.2761C30.2077 31.6764 29.9995 32.1455 29.7077 32.5834C28.2549 32.0328 25.7529 31.9789 24.3697 32.7182C23.5424 33.1599 22.9919 34.2428 22.6446 34.9956C21.6579 34.62 19.947 34.5825 19.0038 35.0856Z" fill="#6B84FF"/>
<ellipse cx="41.8361" cy="73.7304" rx="21.5998" ry="3.99995" fill="#6B84FF"/>
<mask id="path-8-outside-1_15313_96531" maskUnits="userSpaceOnUse" x="15.2744" y="34.4473" width="42" height="43" fill="black">
<rect fill="white" x="15.2744" y="34.4473" width="42" height="43"/>
<path d="M55.1501 37.3557C55.2158 36.8753 54.8471 36.4473 54.3621 36.4473C51.9476 36.4473 44.9464 36.4473 35.8375 36.4473C26.7421 36.4473 19.8533 36.4473 17.4706 36.4473C16.9877 36.4473 16.6197 36.8718 16.6821 37.3506L21.3593 73.2366C21.3593 73.2366 21.4963 75.5839 35.8375 75.5839C50.1787 75.5839 50.2398 73.2366 50.2398 73.2366L55.1501 37.3557Z"/>
</mask>
<path d="M55.1501 37.3557C55.2158 36.8753 54.8471 36.4473 54.3621 36.4473C51.9476 36.4473 44.9464 36.4473 35.8375 36.4473C26.7421 36.4473 19.8533 36.4473 17.4706 36.4473C16.9877 36.4473 16.6197 36.8718 16.6821 37.3506L21.3593 73.2366C21.3593 73.2366 21.4963 75.5839 35.8375 75.5839C50.1787 75.5839 50.2398 73.2366 50.2398 73.2366L55.1501 37.3557Z" fill="white"/>
<path d="M16.0871 37.4282C16.4838 37.3765 16.8804 37.3248 17.277 37.2731C17.7149 39.6011 18.1396 41.9309 18.551 44.2623C20.1968 53.5882 21.631 62.9416 22.8536 72.3226C22.8844 72.5584 22.9151 72.7941 22.9458 73.0299L22.9565 73.1434C22.9175 72.7787 22.9007 72.8363 22.8749 72.7393C22.8565 72.689 22.8342 72.641 22.8193 72.6124C22.7871 72.5506 22.7628 72.5158 22.7432 72.4891C22.7073 72.4417 22.6932 72.4313 22.6933 72.431C22.6952 72.4335 22.7433 72.4718 22.8146 72.5137C22.9538 72.5973 23.1736 72.6972 23.4016 72.7813C23.8702 72.9551 24.413 73.0963 24.9732 73.2146C26.1063 73.4516 27.2904 73.5997 28.4987 73.7119C30.9105 73.9302 33.3495 73.9967 35.8375 74.0056C38.3144 74.0104 40.7437 73.9585 43.148 73.7551C44.3482 73.6509 45.5355 73.5098 46.6651 73.2802C47.224 73.1656 47.7695 73.027 48.2377 72.8561C48.469 72.772 48.688 72.6736 48.8299 72.5894C48.9018 72.5476 48.9516 72.5086 48.9552 72.5055C48.9563 72.5055 48.9432 72.5157 48.9098 72.5624C48.8913 72.589 48.8687 72.6231 48.8391 72.6842C48.8256 72.7119 48.805 72.7596 48.7889 72.8083C48.7669 72.9022 48.7488 72.849 48.723 73.1972L48.7365 73.0309C50.4379 61.0795 52.1775 49.1332 53.9554 37.1922C53.9223 37.4176 54.1307 37.6492 54.3621 37.6369C48.1905 37.5625 42.0151 37.4781 35.8375 37.3836C31.6261 37.3191 27.4157 37.25 23.2059 37.1761C21.2923 37.1426 19.3841 37.1081 17.4706 37.0726C17.3728 37.0597 17.2677 37.1524 17.277 37.2731C16.8804 37.3248 16.4838 37.3765 16.0871 37.4282C15.9484 36.6354 16.6406 35.8061 17.4706 35.8219C19.3841 35.7864 21.2923 35.7519 23.2059 35.7184C27.4157 35.6446 31.6261 35.5754 35.8375 35.511C42.0151 35.4164 48.1905 35.332 54.3621 35.2577C55.5251 35.2164 56.5327 36.3775 56.3448 37.5192C54.8491 49.4988 53.3152 61.4732 51.7431 73.4424L51.7566 73.2761C51.7284 73.6575 51.7009 73.6425 51.6651 73.7778C51.6387 73.8578 51.6 73.949 51.571 74.0082C51.5079 74.138 51.4463 74.2358 51.3798 74.3297C51.2591 74.4984 51.1382 74.6254 51.0247 74.7318C50.7945 74.9444 50.6015 75.074 50.4001 75.1978C50.0144 75.4302 49.652 75.5855 49.3054 75.7176C48.6131 75.977 47.9531 76.1447 47.297 76.287C45.9809 76.5666 44.7049 76.7257 43.427 76.848C40.8758 77.0842 38.3766 77.1527 35.8375 77.1621C33.287 77.1665 30.7767 77.1112 28.2116 76.887C26.922 76.7703 25.6453 76.6178 24.3162 76.3428C23.6539 76.2027 22.9918 76.0386 22.2883 75.7802C21.9416 75.6506 21.5712 75.4949 21.1803 75.2643C20.974 75.1401 20.7799 75.0127 20.5433 74.8007C20.4258 74.6936 20.3028 74.5688 20.1766 74.4C20.1078 74.3071 20.0425 74.2085 19.9753 74.079C19.9439 74.0187 19.9024 73.9281 19.8727 73.8465C19.8319 73.7083 19.8044 73.7278 19.762 73.3299L19.7727 73.4434C19.742 73.2077 19.7112 72.9719 19.6805 72.7362C18.4578 63.3552 17.4467 53.9466 16.6471 44.5105C16.4472 42.1514 16.2606 39.7907 16.0871 37.4282ZM17.277 37.2731L16.0871 37.4282L17.277 37.2731V37.2731Z" fill="#6B84FF" mask="url(#path-8-outside-1_15313_96531)"/>
<path fill-rule="evenodd" clip-rule="evenodd" d="M48.3007 70.4912C48.3741 72.2424 48.4471 73.9939 48.5204 75.7451C48.5245 75.8423 48.529 75.9399 48.5331 76.0371C48.5476 76.362 48.4316 76.6521 48.1718 76.8369C47.914 77.0221 47.533 77.0868 47.1523 77.0234C46.7716 76.96 46.4328 76.7753 46.2489 76.5166C46.2378 76.5011 46.2286 76.4846 46.2187 76.4688C46.2048 76.4803 46.1919 76.4941 46.1767 76.5049C45.92 76.69 45.4813 76.7453 45.0341 76.6709C44.5867 76.5964 44.1886 76.402 44.0058 76.1436C43.8187 75.8844 43.8612 75.5816 44.0468 75.29C44.0743 75.2465 44.1023 75.2028 44.1298 75.1592C44.6258 74.3721 45.1221 73.5839 45.6181 72.7969C45.6455 72.7533 45.6727 72.7096 45.7001 72.666C45.7119 72.716 45.7234 72.7664 45.7353 72.8164C45.9281 73.6312 46.1216 74.4468 46.3144 75.2617C46.937 73.665 47.5599 72.0684 48.1825 70.4717C48.2179 70.381 48.2536 70.2899 48.289 70.1992C48.293 70.2964 48.2966 70.394 48.3007 70.4912Z" fill="#6B84FF"/>
<mask id="path-11-outside-2_15313_96531" maskUnits="userSpaceOnUse" x="31.6796" y="4.86416" width="15.9784" height="14.873" fill="black">
<rect fill="white" x="31.6796" y="4.86416" width="15.9784" height="14.873"/>
<path d="M35.1434 11.7364C34.4548 14.0501 35.7865 16.4333 38.118 17.0594C40.4494 17.6855 42.8977 16.3174 43.5864 14.0037L43.7245 13.5396C44.4132 11.2259 43.0814 8.84266 40.75 8.21656C38.4185 7.59046 35.9702 8.95857 35.2815 11.2723L35.1434 11.7364Z"/>
</mask>
<path d="M35.1434 11.7364C34.4548 14.0501 35.7865 16.4333 38.118 17.0594C40.4494 17.6855 42.8977 16.3174 43.5864 14.0037L43.7245 13.5396C44.4132 11.2259 43.0814 8.84266 40.75 8.21656C38.4185 7.59046 35.9702 8.95857 35.2815 11.2723L35.1434 11.7364Z" fill="white"/>
<path d="M38.118 17.0594C38.118 17.0594 38.0501 16.4548 38.2891 16.4844C38.705 16.5271 39.1143 16.5032 39.5022 16.4203C41.0033 16.1064 42.0861 14.9055 42.2993 13.658C42.334 13.5003 42.3691 13.3427 42.4046 13.1852C42.7284 11.6198 41.7112 10.1006 40.2935 9.75006C40.2935 9.75006 40.2935 9.75006 40.2935 9.75006C40.2935 9.75006 40.2935 9.75006 40.2935 9.75006C38.8925 9.34362 37.1885 10.1321 36.6015 11.6268C36.5449 11.7786 36.4879 11.9304 36.4305 12.082C35.9246 13.2508 36.185 14.8125 37.2909 15.8264C37.5757 16.0901 37.9112 16.314 38.2891 16.4844C38.175 16.8678 38.0609 17.2511 37.9468 17.6345C37.4079 17.5591 36.873 17.3907 36.3764 17.1305C34.4476 16.1627 33.2675 13.714 33.8564 11.3907C33.8911 11.233 33.9261 11.0754 33.9616 10.9179C34.5936 7.92014 38.1425 5.77327 41.2064 6.68307C41.2064 6.68307 41.2064 6.68307 41.2064 6.68307C41.2064 6.68307 41.2064 6.68307 41.2064 6.68307C44.3183 7.43176 46.1584 11.0258 45.0445 13.8941C44.9878 14.0459 44.9308 14.1977 44.8735 14.3493C44.0945 16.6215 41.7394 18.1209 39.5626 17.9862C38.9961 17.9608 38.4476 17.8383 37.9468 17.6345L38.118 17.0594ZM38.118 17.0594C38.118 17.0594 38.1668 17.7282 37.9468 17.6345L38.2891 16.4844C38.5282 16.514 38.118 17.0594 38.118 17.0594Z" fill="#6B84FF" mask="url(#path-11-outside-2_15313_96531)"/>
<mask id="path-13-outside-3_15313_96531" maskUnits="userSpaceOnUse" x="15.3888" y="4.25427" width="47.2365" height="23.515" fill="black">
<rect fill="white" x="15.3888" y="4.25427" width="47.2365" height="23.515"/>
<path d="M18.4919 7.23514C18.5945 6.8054 19.0238 6.54925 19.4508 6.663L59.4536 17.3215C59.8805 17.4352 60.1434 17.8758 60.0408 18.3055L58.6702 24.0451C58.5694 24.4672 58.1598 24.7248 57.7382 24.6232C54.8864 23.9362 44.5424 21.4301 37.703 19.5887C30.8601 17.7464 20.526 14.7698 17.6853 13.9489C17.2672 13.8281 17.0209 13.3952 17.122 12.9721L18.4919 7.23514Z"/>
</mask>
<path d="M18.4919 7.23514C18.5945 6.8054 19.0238 6.54925 19.4508 6.663L59.4536 17.3215C59.8805 17.4352 60.1434 17.8758 60.0408 18.3055L58.6702 24.0451C58.5694 24.4672 58.1598 24.7248 57.7382 24.6232C54.8864 23.9362 44.5424 21.4301 37.703 19.5887C30.8601 17.7464 20.526 14.7698 17.6853 13.9489C17.2672 13.8281 17.0209 13.3952 17.122 12.9721L18.4919 7.23514Z" fill="white"/>
<path d="M19.5901 6.07941C19.4972 6.46847 19.4043 6.85753 19.3114 7.24658C20.885 7.80379 22.4617 8.34803 24.0414 8.8793C30.3606 11.0044 36.7292 12.922 43.1474 14.632C48.4589 16.0473 53.7742 17.4467 59.0933 18.8303C58.7036 18.7317 58.4468 18.2921 58.5493 17.9081C58.1045 19.8245 57.6617 21.7415 57.221 23.659C57.2911 23.3208 57.6947 23.065 58.0495 23.166C51.3599 21.6101 44.6454 20.0558 37.9914 18.3947C31.2948 16.6988 24.5844 14.9217 17.8903 13.1638C17.899 13.1761 17.8857 13.1968 17.8779 13.1735C18.0292 12.4643 18.1803 11.7551 18.3311 11.0459C18.5895 9.83019 18.8471 8.6143 19.1039 7.39821C19.1098 7.30958 19.2062 7.22762 19.3114 7.24658C19.4043 6.85753 19.4972 6.46847 19.5901 6.07941C18.8766 5.8588 18.052 6.32643 17.8799 7.07208C17.56 8.27136 17.2408 9.47084 16.9224 10.6705C16.7367 11.3705 16.5512 12.0705 16.366 12.7706C16.1435 13.5536 16.6603 14.5098 17.4804 14.7341C24.0994 16.8127 30.7374 18.858 37.4146 20.7828C44.0665 22.6758 50.7449 24.3998 57.4269 26.0804C58.5899 26.3983 59.8767 25.5849 60.1195 24.4313C60.5924 22.5224 61.0634 20.6129 61.5323 18.703C61.8528 17.4954 61.0319 16.1105 59.8139 15.8126C54.5099 14.3658 49.2022 12.9348 43.8907 11.5196C37.4725 9.80951 31.0047 8.30692 24.4874 7.01183C22.8581 6.68805 21.2256 6.37725 19.5901 6.07941ZM19.3114 7.24658L19.5901 6.07941L19.3114 7.24658Z" fill="#6B84FF" mask="url(#path-13-outside-3_15313_96531)"/>
<path fill-rule="evenodd" clip-rule="evenodd" d="M55.7193 15.3365C56.0907 15.4412 56.4074 15.6621 56.5619 15.9394C56.5711 15.9557 56.5782 15.9733 56.5862 15.9899C56.6012 15.98 56.6159 15.9692 56.6321 15.9602C56.9076 15.8041 57.3502 15.7974 57.7868 15.9206C58.2234 16.0437 58.5974 16.2806 58.7507 16.5577C58.908 16.8358 58.8328 17.1321 58.6162 17.4015C58.5841 17.4418 58.5513 17.482 58.5192 17.5223C57.94 18.2501 57.3602 18.9789 56.781 19.7067C56.749 19.7469 56.717 19.7875 56.6849 19.8277C56.6787 19.7768 56.6726 19.7253 56.6663 19.6743C56.5639 18.8425 56.4611 18.0097 56.3588 17.1778C55.5644 18.6972 54.7707 20.217 53.9763 21.7365C53.9312 21.8227 53.8864 21.9094 53.8413 21.9957C53.8479 21.8986 53.855 21.8012 53.8616 21.7041C53.9808 19.9554 54.0998 18.2064 54.219 16.4577C54.2256 16.3606 54.2318 16.2629 54.2384 16.1658C54.2597 15.8413 54.4073 15.5655 54.6859 15.4103C54.9624 15.2545 55.3479 15.2318 55.7193 15.3365Z" fill="#6B84FF"/>
</svg>
