<svg width="176" height="159" viewBox="0 0 176 159" fill="none" xmlns="http://www.w3.org/2000/svg">
<path d="M126.362 48.707C101.177 48.707 80.7773 69.209 80.7773 94.5205C80.7773 107.966 86.5409 120.042 95.6928 128.433C95.553 135.033 94.2256 148.022 86.4012 154.762C86.4012 154.762 105.334 156.623 118.223 139.632C120.878 140.123 123.602 140.369 126.362 140.369C151.547 140.369 171.946 119.867 171.946 94.5555C171.946 69.244 151.512 48.707 126.362 48.707Z" fill="#E3E5EA"/>
<path d="M107.781 83.7781C118.26 83.7781 128.705 83.7781 139.184 83.7781C140.686 83.7781 142.153 83.7781 143.655 83.7781C147.707 83.7781 147.707 77.459 143.655 77.459C133.176 77.459 122.731 77.459 112.252 77.459C110.75 77.459 109.283 77.459 107.781 77.459C103.729 77.459 103.729 83.7781 107.781 83.7781Z" fill="white"/>
<path d="M98.8397 94.5906C114.524 94.5906 130.242 94.5906 145.926 94.5906C148.162 94.5906 150.397 94.5906 152.633 94.5906C156.685 94.5906 156.685 88.2715 152.633 88.2715C136.949 88.2715 121.23 88.2715 105.546 88.2715C103.311 88.2715 101.075 88.2715 98.8397 88.2715C94.7878 88.2715 94.7878 94.5906 98.8397 94.5906Z" fill="white"/>
<path d="M109.32 107.335C118.891 107.335 128.462 107.335 138.033 107.335C139.395 107.335 140.723 107.335 142.085 107.335C146.137 107.335 146.137 101.016 142.085 101.016C132.514 101.016 122.943 101.016 113.372 101.016C112.01 101.016 110.683 101.016 109.32 101.016C105.268 101.016 105.268 107.335 109.32 107.335Z" fill="white"/>
<path d="M109.147 109.695C129.24 89.5006 129.24 56.7591 109.147 36.5648C89.0535 16.3705 56.4757 16.3706 36.3823 36.5649C16.2889 56.7592 16.2889 89.5006 36.3823 109.695C56.4757 129.889 89.0536 129.889 109.147 109.695Z" fill="#C1C3CA"/>
<path d="M67.9264 86.7621C66.2498 86.8323 64.8176 85.4983 64.7827 83.7781C64.7827 83.6026 64.7827 83.3919 64.7478 83.1812C64.5731 77.6696 65.4114 74.4398 67.8566 71.2451C69.7079 68.9281 70.3017 68.4367 75.8557 64.8208C79.6632 62.3634 80.8857 60.6432 80.8158 58.0102C80.7111 54.2539 77.8468 52.1123 73.0613 52.2527C69.4983 52.358 66.9135 53.7273 65.4813 56.2549C65.0621 56.9922 64.7827 57.6942 64.5731 58.5718C64.2587 60.0463 62.8964 61.0645 61.3944 60.9943L51.0899 60.3271C49.2385 60.2218 47.9461 58.5016 48.2954 56.6761C48.994 52.99 50.2166 50.4975 52.4871 47.7943C56.9233 42.3529 63.9094 39.4039 73.0613 39.1231C87.6972 38.6316 97.0586 45.3017 97.4429 56.3251C97.6175 61.2048 96.1155 64.9962 92.9019 68.226C91.0506 70.0515 90.2821 70.6484 83.5055 75.1771C80.222 77.459 79.1042 79.5654 79.244 83.2515V83.2866C79.3138 85.0068 77.9865 86.4109 76.2749 86.4812L67.9264 86.7621ZM80.5364 98.8737L80.5713 99.8215C80.7111 103.718 77.6372 107.018 73.7599 107.124L71.8387 107.194C67.9614 107.334 64.6779 104.245 64.5731 100.348L64.5382 99.4003C64.3984 95.5035 67.4723 92.2034 71.3496 92.0981L73.2708 92.028C77.1481 91.8876 80.3967 94.9769 80.5364 98.8737Z" fill="#FCFCFD"/>
<path d="M172.226 143.458C174.309 143.458 175.998 141.76 175.998 139.666C175.998 137.572 174.309 135.875 172.226 135.875C170.142 135.875 168.453 137.572 168.453 139.666C168.453 141.76 170.142 143.458 172.226 143.458Z" fill="#C1C3CA"/>
<path d="M155.424 139.983C156.215 139.983 156.857 139.339 156.857 138.544C156.857 137.749 156.215 137.104 155.424 137.104C154.633 137.104 153.992 137.749 153.992 138.544C153.992 139.339 154.633 139.983 155.424 139.983Z" fill="#C1C3CA"/>
<path d="M143.863 153.288C145.252 153.288 146.378 152.156 146.378 150.76C146.378 149.364 145.252 148.232 143.863 148.232C142.474 148.232 141.348 149.364 141.348 150.76C141.348 152.156 142.474 153.288 143.863 153.288Z" stroke="#C1C3CA" stroke-width="2" stroke-miterlimit="10"/>
<path d="M18.042 52.1115C18.7944 52.1115 19.4043 51.5457 19.4043 50.8477C19.4043 50.1497 18.7944 49.584 18.042 49.584C17.2896 49.584 16.6797 50.1497 16.6797 50.8477C16.6797 51.5457 17.2896 52.1115 18.042 52.1115Z" stroke="#C1C3CA" stroke-width="2" stroke-miterlimit="10"/>
<path d="M3.40916 45.1263C4.16153 45.1263 4.77146 44.5605 4.77146 43.8625C4.77146 43.1645 4.16153 42.5986 3.40916 42.5986C2.65678 42.5986 2.04688 43.1645 2.04688 43.8625C2.04688 44.5605 2.65678 45.1263 3.40916 45.1263Z" fill="#C1C3CA"/>
<path d="M162.272 153.604C161.294 155.009 160.316 156.448 159.338 157.852C158.744 158.695 160.107 159.467 160.7 158.66C161.678 157.255 162.657 155.816 163.635 154.412C164.193 153.569 162.831 152.762 162.272 153.604Z" fill="#C1C3CA"/>
<path d="M163.915 156.589C162.518 155.711 161.156 154.833 159.758 153.956C158.885 153.429 158.117 154.763 158.955 155.325C160.352 156.202 161.715 157.08 163.112 157.958C163.985 158.484 164.788 157.115 163.915 156.589Z" fill="#C1C3CA"/>
<path d="M26.4601 23.1145C28.4162 24.3783 30.3723 25.6422 32.3284 26.8709C33.1668 27.4326 33.9702 26.0635 33.1318 25.5018C31.1757 24.238 29.2196 22.9741 27.2635 21.7454C26.4252 21.2188 25.6217 22.5879 26.4601 23.1145Z" fill="#C1C3CA"/>
<path d="M30.7218 21.2892C29.4992 23.0796 28.2767 24.8348 27.089 26.6252C26.5301 27.4678 27.8924 28.2402 28.4513 27.4327C29.6739 25.6423 30.8964 23.887 32.0841 22.0966C32.643 21.254 31.2807 20.4817 30.7218 21.2892Z" fill="#C1C3CA"/>
<path d="M0.612428 72.1228C2.11445 73.0707 3.58155 74.0186 5.08357 74.9665C5.92191 75.5282 6.72531 74.1591 5.88697 73.5974C4.38495 72.6495 2.91787 71.7016 1.41585 70.7537C0.577514 70.192 -0.225908 71.5611 0.612428 72.1228Z" fill="#C1C3CA"/>
<path d="M3.78995 70.4726C2.88175 71.8067 1.93861 73.1758 1.03041 74.5098C0.471524 75.3524 1.83383 76.1246 2.39272 75.3172C3.30092 73.9832 4.24403 72.614 5.15223 71.28C5.71112 70.4375 4.34884 69.6301 3.78995 70.4726Z" fill="#C1C3CA"/>
</svg>
