<svg width="560" height="282" viewBox="0 0 560 282" fill="none" xmlns="http://www.w3.org/2000/svg">
<path d="M10 204.208C10 204.208 258.55 61.4637 560 205L10 204.208Z" fill="url(#paint0_linear_39051_6436)"/>
<g clip-path="url(#clip0_39051_6436)">
<path d="M340.573 61.5833L324.949 117.816C324.09 120.888 322.253 123.596 319.716 125.529C317.179 127.463 314.08 128.516 310.891 128.529H250.66C247.461 128.528 244.35 127.48 241.802 125.546C239.254 123.612 237.409 120.897 236.547 117.816L215.17 40.7792H204.25C202.957 40.7792 201.717 40.2656 200.803 39.3513C199.889 38.4371 199.375 37.1971 199.375 35.9042C199.375 34.6113 199.889 33.3713 200.803 32.4571C201.717 31.5428 202.957 31.0292 204.25 31.0292H218.875C219.941 31.029 220.977 31.3781 221.826 32.023C222.674 32.6679 223.288 33.5732 223.573 34.6001L229.35 55.4042H335.875C336.627 55.4041 337.368 55.5777 338.041 55.9115C338.715 56.2453 339.302 56.7303 339.757 57.3285C340.211 57.9268 340.522 58.6221 340.664 59.3602C340.805 60.0983 340.774 60.8591 340.573 61.5833ZM248.125 138.279C246.197 138.279 244.312 138.851 242.708 139.922C241.105 140.994 239.855 142.517 239.117 144.298C238.379 146.08 238.186 148.04 238.562 149.931C238.939 151.823 239.867 153.56 241.231 154.924C242.594 156.287 244.332 157.216 246.223 157.592C248.114 157.968 250.075 157.775 251.856 157.037C253.638 156.299 255.16 155.05 256.232 153.446C257.303 151.843 257.875 149.958 257.875 148.029C257.875 145.443 256.848 142.964 255.019 141.135C253.191 139.307 250.711 138.279 248.125 138.279ZM311.5 138.279C309.572 138.279 307.687 138.851 306.083 139.922C304.48 140.994 303.23 142.517 302.492 144.298C301.754 146.08 301.561 148.04 301.937 149.931C302.314 151.823 303.242 153.56 304.606 154.924C305.969 156.287 307.707 157.216 309.598 157.592C311.489 157.968 313.45 157.775 315.231 157.037C317.013 156.299 318.535 155.05 319.607 153.446C320.678 151.843 321.25 149.958 321.25 148.029C321.25 145.443 320.223 142.964 318.394 141.135C316.566 139.307 314.086 138.279 311.5 138.279Z" fill="#CDCFD4"/>
<path d="M205.476 38.5299C208.845 38.5299 211.577 36.3861 211.577 33.7415C211.577 31.0969 208.845 28.953 205.476 28.953C202.106 28.953 199.375 31.0969 199.375 33.7415C199.375 36.3861 202.106 38.5299 205.476 38.5299Z" fill="#E3E5EA"/>
<path d="M245.708 139.922C247.312 138.851 249.197 138.279 251.125 138.279C253.711 138.279 256.191 139.307 258.019 141.135C259.848 142.963 260.875 145.443 260.875 148.029C260.875 149.958 260.303 151.843 259.232 153.446C258.161 155.049 256.638 156.299 254.856 157.037C253.075 157.775 251.114 157.968 249.223 157.592C247.332 157.216 245.594 156.287 244.231 154.924C242.867 153.56 241.939 151.823 241.562 149.931C241.186 148.04 241.379 146.08 242.117 144.298C242.855 142.517 244.105 140.994 245.708 139.922Z" fill="#E3E5EA"/>
<path d="M308.478 139.922C310.081 138.851 311.966 138.279 313.895 138.279C316.48 138.279 318.96 139.307 320.789 141.135C322.617 142.963 323.645 145.443 323.645 148.029C323.645 149.958 323.073 151.843 322.001 153.446C320.93 155.049 319.407 156.299 317.626 157.037C315.844 157.775 313.884 157.968 311.992 157.592C310.101 157.216 308.364 156.287 307 154.924C305.637 153.56 304.708 151.823 304.332 149.931C303.956 148.04 304.149 146.08 304.887 144.298C305.625 142.517 306.874 140.994 308.478 139.922Z" fill="#E3E5EA"/>
<path d="M343.011 59.5071L327.386 115.74C326.527 118.812 324.69 121.52 322.153 123.453C319.616 125.387 316.518 126.44 313.328 126.453H253.097C249.898 126.452 246.788 125.404 244.24 123.47C241.692 121.536 239.846 118.821 238.984 115.74L217.608 38.703H206.688C205.395 38.703 204.155 38.1894 203.24 37.2752C202.326 36.3609 201.812 35.121 201.812 33.828C201.812 32.5351 202.326 31.2951 203.24 30.3809C204.155 29.4666 205.395 28.953 206.688 28.953H221.312C222.378 28.9528 223.415 29.3019 224.263 29.9468C225.112 30.5918 225.726 31.497 226.011 32.524L231.788 53.328H338.313C339.064 53.3279 339.805 53.5015 340.479 53.8353C341.152 54.1691 341.739 54.6541 342.194 55.2524C342.649 55.8506 342.959 56.546 343.101 57.284C343.243 58.0221 343.212 58.7829 343.011 59.5071Z" fill="#E3E5EA"/>
<path d="M251.125 68.7889L259.202 110.789" stroke="white" stroke-width="5" stroke-linecap="round"/>
<path d="M313.895 68.7889L305.818 110.789" stroke="white" stroke-width="5" stroke-linecap="round"/>
<path d="M283.313 110.789L281.705 68.0496" stroke="white" stroke-width="5" stroke-linecap="round"/>
<path d="M293.954 18.6053L271.062 39.2994" stroke="#CDCFD4" stroke-width="6" stroke-linecap="round"/>
<path d="M271.062 18.6053L293.954 39.2994" stroke="#CDCFD4" stroke-width="6" stroke-linecap="round"/>
</g>
<path d="M155.42 152.222V168.026" stroke="#C1C3CA" stroke-width="5" stroke-miterlimit="10"/>
<path d="M163.077 144.243C157.681 126.019 155.522 124.166 155.522 124.166C155.522 124.166 153.878 126.174 147.967 144.243C142.828 159.995 151.925 160.098 154.289 159.841C154.34 159.892 168.32 161.951 163.077 144.243Z" fill="#E5E7EA"/>
<path d="M187.027 139.455V160.922" stroke="#C1C3CA" stroke-width="5" stroke-miterlimit="10"/>
<path d="M197.46 128.593C190.162 103.832 187.181 101.31 187.181 101.31C187.181 101.31 184.92 104.038 176.953 128.593C170.015 150.008 182.298 150.111 185.588 149.802C185.588 149.802 204.552 152.634 197.46 128.593Z" fill="#E5E7EA"/>
<path d="M363.209 137.242V157.524" stroke="#C1C3CA" stroke-width="5" stroke-miterlimit="10"/>
<path d="M373.076 126.998C366.189 103.575 363.362 101.207 363.362 101.207C363.362 101.207 361.204 103.781 353.7 126.998C347.122 147.229 358.737 147.332 361.872 147.023C361.821 147.023 379.757 149.7 373.076 126.998Z" fill="#E5E7EA"/>
<path d="M395.021 151.707V166.07" stroke="#C1C3CA" stroke-width="5" stroke-miterlimit="10"/>
<path d="M402.011 144.449C397.129 127.873 395.125 126.174 395.125 126.174C395.125 126.174 393.634 128.027 388.289 144.449C383.612 158.76 391.887 158.863 394.045 158.657C394.045 158.657 406.74 160.51 402.011 144.449Z" fill="#E5E7EA"/>
<defs>
<linearGradient id="paint0_linear_39051_6436" x1="283.479" y1="128.919" x2="283.922" y2="220.577" gradientUnits="userSpaceOnUse">
<stop offset="0.2387" stop-color="#EFF1F5"/>
<stop offset="0.3659" stop-color="#F1F3F6" stop-opacity="0.8329"/>
<stop offset="0.895833" stop-color="#F6F7F8" stop-opacity="0"/>
</linearGradient>
<clipPath id="clip0_39051_6436">
<rect width="145" height="143" fill="white" transform="translate(199 14.9999)"/>
</clipPath>
</defs>
</svg>
