<svg width="110" height="110" viewBox="0 0 110 110" fill="none" xmlns="http://www.w3.org/2000/svg">
<path d="M31.4102 11.7949L35.7314 7.47371L37.892 9.63432L33.5708 13.9555L31.4102 11.7949Z" fill="#A4AFC1"/>
<path d="M18.9883 24.2168L23.3095 19.8956L25.4701 22.0562L21.1489 26.3774L18.9883 24.2168Z" fill="#A4AFC1"/>
<path d="M18.9844 9.08594L21.145 6.92533L25.4662 11.2465L23.3056 13.4071L18.9844 9.08594Z" fill="#A4AFC1"/>
<path d="M92.431 56.7135C89.904 56.7135 87.8477 54.6572 87.8477 52.1302C87.8477 49.6033 89.904 47.5469 92.431 47.5469C94.9579 47.5469 97.0143 49.6033 97.0143 52.1302C97.0143 54.6572 94.9579 56.7135 92.431 56.7135ZM92.431 50.6024C91.5907 50.6024 90.9032 51.2899 90.9032 52.1302C90.9032 52.9705 91.5907 53.658 92.431 53.658C93.2713 53.658 93.9588 52.9705 93.9588 52.1302C93.9588 51.2899 93.2713 50.6024 92.431 50.6024Z" fill="#A4AFC1"/>
<path d="M74.1985 20.625H35.8024C34.1707 20.625 32.8477 21.9542 32.8477 23.5919V45.8333C32.9668 63.6258 55.0004 71.0417 55.0004 71.0417C55.0004 71.0417 77.1532 63.6289 77.1532 45.8333V23.5919C77.1532 21.9542 75.8302 20.625 74.1985 20.625Z" fill="#6180E4"/>
<path d="M55.0017 51.3266L46.9748 55.7632L48.5087 46.3674L42.0156 39.7124L50.9898 38.3405L55.0017 29.791L59.0137 38.3405L67.9879 39.7124L61.4948 46.3674L63.0287 55.7632L55.0017 51.3266Z" fill="white"/>
<path d="M67.9879 89.3752H42.0156V87.8474C42.0156 84.4711 44.7503 81.7363 48.1267 81.7363H61.8767C65.2531 81.7363 67.9879 84.4711 67.9879 87.8474V89.3752Z" fill="#F3F3F1"/>
<path d="M54.2379 81.7363H48.1267C44.7503 81.7363 42.0156 84.4711 42.0156 87.8474V89.3752H48.1267V87.8474C48.1267 84.4711 50.8615 81.7363 54.2379 81.7363Z" fill="#D5DBE1"/>
<path d="M38.9588 45.8333V23.5919C38.9588 21.9542 40.2818 20.625 41.9135 20.625H35.8024C34.1707 20.625 32.8477 21.9542 32.8477 23.5919V45.8333C32.9668 63.6258 55.0004 71.0417 55.0004 71.0417C55.0004 71.0417 56.2257 70.623 58.0621 69.7828C52.0243 67.0144 39.0504 59.4917 38.9588 45.8333Z" fill="#395BCA"/>
<path d="M53.694 52.0507L54.6198 46.3674L48.1267 39.7124L57.1009 38.3405L58.0573 36.2994L55.0017 29.791L50.9898 38.3405L42.0156 39.7124L48.5087 46.3674L46.9748 55.7632L53.694 52.0507Z" fill="#D5DBE1"/>
<path d="M63.0275 58.0557C62.6456 58.0557 62.2637 57.961 61.9184 57.7685L55.0006 53.946L48.0828 57.7685C47.3159 58.1901 46.3687 58.1443 45.6537 57.6371C44.9356 57.1299 44.572 56.2621 44.7095 55.3943L46.057 47.1413L40.3706 41.3143C39.7717 40.7001 39.5639 39.8018 39.8389 38.986C40.1109 38.1701 40.8137 37.5774 41.6662 37.449L49.4303 36.2604L52.9259 28.8171C53.6775 27.2068 56.3206 27.2068 57.0723 28.8171L60.5678 36.2604L68.332 37.449C69.1814 37.5774 69.8873 38.1701 70.1592 38.986C70.4342 39.8018 70.2264 40.7001 69.6275 41.3143L63.9412 47.1413L65.2887 55.3943C65.4292 56.2621 65.0656 57.1299 64.3445 57.6371C63.9534 57.9151 63.4889 58.0557 63.0275 58.0557ZM55.0006 49.0357C55.3825 49.0357 55.7645 49.1304 56.1098 49.3229L60.0025 51.4771L59.2295 46.7379C59.1134 46.0199 59.3425 45.2865 59.8498 44.7671L63.2292 41.3021L58.6673 40.6054C57.9125 40.4893 57.2648 40.0065 56.9409 39.3129L55.0006 35.1849L53.0603 39.316C52.7364 40.0096 52.0887 40.4924 51.3339 40.6085L46.7689 41.3082L50.1484 44.7732C50.6556 45.2926 50.8848 46.0229 50.7687 46.744L49.9956 51.4832L53.8884 49.329C54.2367 49.1304 54.6187 49.0357 55.0006 49.0357Z" fill="black"/>
<path d="M67.9865 91.6675H42.0143C40.7493 91.6675 39.7227 90.6409 39.7227 89.3759V87.8481C39.7227 83.2128 43.4902 79.4453 48.1254 79.4453H61.8754C66.5107 79.4453 70.2782 83.2128 70.2782 87.8481V89.3759C70.2782 90.6409 69.2515 91.6675 67.9865 91.6675ZM44.3824 87.0842H65.6154C65.261 85.3425 63.7179 84.0286 61.8724 84.0286H48.1224C46.2799 84.0286 44.7399 85.3425 44.3824 87.0842Z" fill="black"/>
<path d="M52.707 71.041H57.2904V81.7355H52.707V71.041Z" fill="black"/>
<path d="M55.0001 73.334C54.7526 73.334 54.5082 73.2943 54.2698 73.2148C53.3073 72.8909 30.684 65.0565 30.5557 45.8493V23.5926C30.5557 20.6898 32.9115 18.334 35.8021 18.334H74.1982C77.0887 18.334 79.4445 20.6898 79.4445 23.5926V29.1506H74.8612V23.5926C74.8612 23.2198 74.5618 22.9173 74.1982 22.9173H35.8021C35.4384 22.9173 35.139 23.2198 35.139 23.5926V45.834C35.2337 60.0087 51.3457 67.1587 55.0032 68.5948C58.6698 67.1587 74.8612 60.0118 74.8612 45.834V32.8479H79.4445V45.834C79.4445 65.0565 56.6959 72.8909 55.7273 73.2148C55.4921 73.2943 55.2446 73.334 55.0001 73.334Z" fill="black"/>
</svg>
