<svg width="36" height="36" viewBox="0 0 36 36" fill="none" xmlns="http://www.w3.org/2000/svg">
<path fill-rule="evenodd" clip-rule="evenodd" d="M10.7792 7.5C11.6109 7.5 12.2852 8.13932 12.2852 8.92797L12.2852 27.0716C12.2852 27.8602 11.6109 28.4996 10.7792 28.4996C9.9475 28.4996 9.27326 27.8602 9.27326 27.0716L9.27326 8.92797C9.27326 8.13932 9.9475 7.5 10.7792 7.5Z" fill="#3E64DE"/>
<path fill-rule="evenodd" clip-rule="evenodd" d="M7.5 21.5276C7.5 20.7389 8.17424 20.0996 9.00595 20.0996H12.5494C13.3811 20.0996 14.0553 20.7389 14.0553 21.5276C14.0553 22.3162 13.3811 22.9555 12.5494 22.9555H9.00595C8.17424 22.9555 7.5 22.3162 7.5 21.5276Z" fill="#3E64DE"/>
<path fill-rule="evenodd" clip-rule="evenodd" d="M26.7245 7.5C27.5562 7.5 28.2305 8.13932 28.2305 8.92797L28.2305 27.0716C28.2305 27.8602 27.5562 28.4996 26.7245 28.4996C25.8928 28.4996 25.2186 27.8602 25.2186 27.0716L25.2186 8.92797C25.2186 8.13932 25.8928 7.5 26.7245 7.5Z" fill="#3E64DE"/>
<path fill-rule="evenodd" clip-rule="evenodd" d="M23.4453 21.5276C23.4453 20.7389 24.1195 20.0996 24.9513 20.0996H28.4947C29.3264 20.0996 30.0006 20.7389 30.0006 21.5276C30.0006 22.3162 29.3264 22.9555 28.4947 22.9555H24.9513C24.1195 22.9555 23.4453 22.3162 23.4453 21.5276Z" fill="#3E64DE"/>
<path fill-rule="evenodd" clip-rule="evenodd" d="M18.7519 28.5C19.5836 28.5 20.2578 27.8607 20.2578 27.072L20.2578 8.92841C20.2578 8.13976 19.5836 7.50044 18.7519 7.50044C17.9202 7.50044 17.2459 8.13976 17.2459 8.92841L17.2459 27.072C17.2459 27.8607 17.9202 28.5 18.7519 28.5Z" fill="#3E64DE"/>
<path fill-rule="evenodd" clip-rule="evenodd" d="M15.4727 15.3123C15.4727 16.1009 16.1469 16.7402 16.9786 16.7402H20.522C21.3537 16.7402 22.028 16.1009 22.028 15.3123C22.028 14.5236 21.3537 13.8843 20.522 13.8843L16.9786 13.8843C16.1469 13.8843 15.4727 14.5236 15.4727 15.3123Z" fill="#3E64DE"/>
</svg>
