<svg width="18" height="16" viewBox="0 0 18 16" fill="none" xmlns="http://www.w3.org/2000/svg">
<path d="M10.1553 8.18023L11.8515 10.1187L14.1454 11.5888L14.5492 8.19638L14.1454 4.88477L11.8192 6.1771L10.1553 8.18023Z" fill="#00832D"/>
<path d="M0.268555 11.2657V14.1573C0.268555 14.8196 0.801644 15.3527 1.46397 15.3527H4.35557L4.95328 13.1719L4.37173 11.2657L2.38476 10.668L0.268555 11.2657Z" fill="#0066DA"/>
<path d="M4.37172 0.991211L0.268555 5.07823L2.3686 5.67593L4.35557 5.07823L4.93712 3.20434L4.37172 0.991211Z" fill="#E94235"/>
<path d="M4.37173 5.07812H0.268555V11.2652H4.35557V5.07812H4.37173Z" fill="#2684FC"/>
<path d="M16.7462 2.72004L14.1292 4.86855V11.5887L16.7462 13.7372C17.1339 14.0441 17.7155 13.7695 17.7155 13.2687V3.18851C17.7316 2.68773 17.1501 2.39696 16.7462 2.72004ZM10.1553 8.18017V11.2656H4.37207V15.3526H12.95C13.6123 15.3526 14.1454 14.8196 14.1454 14.1572V11.5887L10.1553 8.18017Z" fill="#00AC47"/>
<path d="M12.95 0.991211H4.37207V5.07823H10.1553V8.16369L14.1454 4.85207V2.18662C14.1454 1.5243 13.6123 0.991211 12.95 0.991211Z" fill="#FFBA00"/>
</svg>
