<svg width="18" height="16" viewBox="0 0 18 16" fill="none" xmlns="http://www.w3.org/2000/svg">
<path d="M1.81543 2.30469H16.1811V14.365H1.81543V2.30469Z" fill="#0F9D58"/>
<path d="M12.1908 8.73955C12.6881 8.73955 13.0884 8.33317 13.0884 7.83511C13.0884 7.33705 12.6851 6.93066 12.1908 6.93066C11.6964 6.93066 11.2931 7.33705 11.2931 7.83511C11.2931 8.33317 11.6964 8.73955 12.1908 8.73955ZM12.1908 9.3415C11.2294 9.3415 10.1953 9.85483 10.1953 10.4904V11.1504H14.1862V10.4904C14.1862 9.85483 13.1521 9.3415 12.1908 9.3415ZM5.80701 8.73955C6.30437 8.73955 6.70468 8.33317 6.70468 7.83511C6.70468 7.33705 6.30134 6.93066 5.80701 6.93066C5.31269 6.93066 4.90935 7.33705 4.90935 7.83511C4.90935 8.33317 5.31269 8.73955 5.80701 8.73955ZM5.80701 9.3415C4.84566 9.3415 3.81152 9.85483 3.81152 10.4904V11.1504H7.8025V10.4904C7.8025 9.85483 6.76837 9.3415 5.80701 9.3415Z" fill="#57BB8A"/>
<path d="M9.00011 7.93233C9.66123 7.93233 10.198 7.3915 10.195 6.72539C10.195 6.05928 9.6582 5.51844 8.99708 5.5215C8.33596 5.5215 7.80221 6.06233 7.80221 6.72844C7.80221 7.39455 8.33899 7.93233 9.00011 7.93233ZM9.00011 8.739C7.65361 8.739 6.20703 9.46011 6.20703 10.3462V11.1498H11.7932V10.3462C11.7932 9.45706 10.3466 8.739 9.00011 8.739Z" fill="#F7F7F7"/>
<path d="M10.5957 13.5645H14.1864V14.3681H10.5957V13.5645Z" fill="#F1F1F1"/>
<path d="M16.5819 0.697266H1.4186C0.757484 0.697266 0.220703 1.2381 0.220703 1.90421V14.7712C0.220703 15.4342 0.757484 15.9751 1.4186 15.9751H16.5819C17.243 15.9751 17.7798 15.4342 17.7798 14.7681V1.90421C17.7768 1.2381 17.243 0.697266 16.5819 0.697266ZM16.1816 14.3678H1.81588V2.30449H16.1816V14.3678Z" fill="#F4B400"/>
<path opacity="0.2" d="M16.5819 0.697266H1.4186C0.757484 0.697266 0.220703 1.2381 0.220703 1.90421V2.00504C0.220703 1.33893 0.757484 0.798099 1.4186 0.798099H16.5819C17.243 0.798099 17.7798 1.33893 17.7798 2.00504V1.90421C17.7768 1.2381 17.243 0.697266 16.5819 0.697266Z" fill="white"/>
<path opacity="0.2" d="M16.5819 15.8739H1.4186C0.757484 15.8739 0.220703 15.3331 0.220703 14.667V14.7678C0.220703 15.4339 0.757484 15.9748 1.4186 15.9748H16.5819C17.243 15.9748 17.7798 15.4339 17.7798 14.7678V14.667C17.7768 15.3331 17.243 15.8739 16.5819 15.8739Z" fill="#BF360C"/>
<path d="M14.1805 14.3682H10.5898L12.185 15.9754H15.7727L14.1805 14.3682Z" fill="url(#paint0_linear_15780_20291)"/>
<path opacity="0.2" d="M1.81543 2.20312H16.1811V2.30396H1.81543V2.20312Z" fill="#263238"/>
<path opacity="0.2" d="M1.81543 14.3682H16.1811V14.469H1.81543V14.3682Z" fill="white"/>
<path d="M16.5819 0.697266H1.4186C0.757484 0.697266 0.220703 1.2381 0.220703 1.90421V14.7712C0.220703 15.4342 0.757484 15.9751 1.4186 15.9751H16.5819C17.243 15.9751 17.7798 15.4342 17.7798 14.7681V1.90421C17.7768 1.2381 17.243 0.697266 16.5819 0.697266Z" fill="url(#paint1_radial_15780_20291)"/>
<defs>
<linearGradient id="paint0_linear_15780_20291" x1="13.1822" y1="14.3895" x2="13.1822" y2="15.9922" gradientUnits="userSpaceOnUse">
<stop stop-color="#BF360C" stop-opacity="0.2"/>
<stop offset="1" stop-color="#BF360C" stop-opacity="0.02"/>
</linearGradient>
<radialGradient id="paint1_radial_15780_20291" cx="0" cy="0" r="1" gradientUnits="userSpaceOnUse" gradientTransform="translate(0.825545 1.05536) scale(20.9701 21.1283)">
<stop stop-color="white" stop-opacity="0.1"/>
<stop offset="1" stop-color="white" stop-opacity="0"/>
</radialGradient>
</defs>
</svg>
