<svg width="70" height="70" viewBox="0 0 70 70" fill="none" xmlns="http://www.w3.org/2000/svg">
<path d="M17.9849 36.1651C17.8321 36.0062 17.7104 35.82 17.6261 35.6163C17.458 35.1623 17.458 34.6631 17.6261 34.2091C17.7087 34.0045 17.8306 33.818 17.9849 33.6603L20.5319 31.2188C20.6818 31.0432 20.8694 30.9037 21.0807 30.8108C21.2841 30.7187 21.5047 30.6708 21.728 30.67C21.97 30.6653 22.2101 30.7133 22.4316 30.8108C22.6506 30.9081 22.8489 31.0467 23.0156 31.2188L30.6988 38.9161L47.191 22.4239C47.3533 22.2528 47.5467 22.1143 47.7609 22.0158C47.983 21.9201 48.2227 21.8722 48.4645 21.8751C48.6914 21.8764 48.9155 21.926 49.1217 22.0206C49.328 22.1152 49.5117 22.2527 49.6606 22.4239L52.2076 24.9006C52.362 25.0583 52.4839 25.2448 52.5665 25.4494C52.7346 25.9034 52.7346 26.4026 52.5665 26.8566C52.4822 27.0603 52.3605 27.2464 52.2076 27.4054L31.9371 47.5703C31.7861 47.7464 31.5989 47.888 31.3883 47.9854C30.9377 48.1715 30.4318 48.1715 29.9812 47.9854C29.7706 47.888 29.5834 47.7464 29.4324 47.5703L17.9849 36.1651Z" fill="#3AAA5A"/>
</svg>
