<svg width="30" height="30" viewBox="0 0 30 30" fill="none" xmlns="http://www.w3.org/2000/svg">
<path d="M8.35751 9.49888C8.0475 9.18458 8.0475 8.67501 8.35751 8.36072C8.66752 8.04643 9.17015 8.04643 9.48016 8.36072L15 13.9568L20.5198 8.36074C20.8298 8.04645 21.3324 8.04645 21.6425 8.36074C21.9525 8.67504 21.9525 9.18461 21.6425 9.4989L16.1227 15.0949L21.4551 20.501C21.7652 20.8153 21.7652 21.3249 21.4551 21.6392C21.1451 21.9535 20.6425 21.9535 20.3325 21.6392L15 16.2331L9.66748 21.6392C9.35747 21.9535 8.85484 21.9535 8.54483 21.6392C8.23481 21.3249 8.23481 20.8154 8.54483 20.5011L13.8773 15.0949L8.35751 9.49888Z" fill="#1A1B1E"/>
</svg>
