<svg xmlns="http://www.w3.org/2000/svg" width="110" height="108" fill="none"><path fill="#A4AFC1" d="M77.343 12.768h3.055v6.11h-3.055v-6.11ZM84.218 21.934h6.11v3.056h-6.11v-3.056Z"/><path fill="#F3F3F1" d="m77.153 28.556-28.264 9.93-28.264-9.93 28.264-9.9 28.264 9.9Z"/><path fill="#F3F3F1" d="M77.153 28.556v36.666l-28.264 9.93V38.487l28.264-9.93ZM48.889 38.486v36.667l-28.264-9.93V28.555l28.264 9.93Z"/><path fill="#6180E4" d="M71.806 87.375c9.703 0 17.57-7.866 17.57-17.57 0-9.703-7.867-17.569-17.57-17.569-9.704 0-17.57 7.866-17.57 17.57 0 9.703 7.866 17.57 17.57 17.57Z"/><path fill="#D5DBE1" d="m55.764 38.486 21.389-7.513v-2.417l-28.264 9.93v36.667l6.875-2.417v-34.25ZM27.5 65.222v-34.25l-6.875-2.416v36.666l28.264 9.93v-2.416L27.5 65.222Z"/><path fill="#395BCA" d="M61.111 69.806c0-8.525 6.075-15.63 14.132-17.227a17.698 17.698 0 0 0-3.437-.343c-9.705 0-17.57 7.865-17.57 17.57 0 9.704 7.865 17.57 17.57 17.57 1.176 0 2.325-.12 3.437-.343-8.057-1.598-14.132-8.702-14.132-17.227Z"/><path fill="#fff" d="M71.806 80.5a2.273 2.273 0 0 1-1.62-.672l-8.497-8.495 3.242-3.242 6.875 6.875 6.875-6.875 3.242 3.242-8.495 8.495c-.449.449-1.036.672-1.622.672Z"/><path fill="#fff" d="M69.514 61.402h4.583V76.68h-4.583V61.402Z"/><path fill="#353535" d="M71.805 89.667c-10.95 0-19.86-8.91-19.86-19.862 0-10.95 8.91-19.86 19.86-19.86 10.952 0 19.862 8.91 19.862 19.86 0 10.952-8.91 19.862-19.862 19.862Zm0-35.14c-8.424 0-15.277 6.854-15.277 15.278 0 8.425 6.853 15.278 15.277 15.278 8.425 0 15.278-6.853 15.278-15.278 0-8.424-6.853-15.277-15.278-15.277ZM48.889 40.778c-.257 0-.513-.043-.76-.128l-28.265-9.931a2.293 2.293 0 0 1 0-4.327l28.264-9.93a2.28 2.28 0 0 1 1.522 0l28.264 9.93a2.293 2.293 0 0 1 0 4.327l-28.264 9.93a2.328 2.328 0 0 1-.761.129Zm-21.35-12.222 21.35 7.501 21.35-7.501-21.35-7.502-21.35 7.502Z"/><path fill="#353535" d="M74.861 28.556h4.584v12.986H74.86V28.556ZM43.823 75.788l-23.956-8.402a2.292 2.292 0 0 1-1.534-2.164V28.556h4.584V63.6l22.422 7.862-1.516 4.326ZM46.597 38.486h4.584v15.278h-4.584V38.486Z"/></svg>