<svg width="262" height="181" viewBox="0 0 262 181" fill="none" xmlns="http://www.w3.org/2000/svg">
<g clip-path="url(#clip0_5839_86774)">
<mask id="mask0_5839_86774" style="mask-type:luminance" maskUnits="userSpaceOnUse" x="0" y="11" width="339" height="171">
<path d="M0 11H338.201V181.253H0V11Z" fill="white"/>
</mask>
<g mask="url(#mask0_5839_86774)">
<path d="M63.2647 103.508C58.7948 98.8962 53.5976 94.9111 50.3694 89.235C50.1151 88.7916 50.0205 88.3304 49.8727 87.8633H9.77347C8.59371 87.8633 7.46217 88.3315 6.62739 89.1652C5.79262 89.9989 5.32286 91.1298 5.32129 92.3096V169.741C5.32286 170.921 5.79262 172.052 6.62739 172.885C7.46217 173.719 8.59371 174.187 9.77347 174.187H68.864C70.0437 174.187 71.1753 173.719 72.01 172.885C72.8448 172.052 73.3146 170.921 73.3161 169.741V113.376C69.8631 110.191 66.511 106.898 63.2647 103.502V103.508Z" fill="#FDCC40"/>
<path opacity="0.3" d="M38.1363 149.356C41.8214 149.356 45.3555 147.892 47.9613 145.286C50.567 142.68 52.0309 139.146 52.0309 135.461C52.0309 131.776 50.567 128.242 47.9613 125.636C45.3555 123.03 41.8214 121.566 38.1363 121.566C34.4512 121.566 30.9171 123.03 28.3113 125.636C25.7056 128.242 24.2417 131.776 24.2417 135.461C24.2417 139.146 25.7056 142.68 28.3113 145.286C30.9171 147.892 34.4512 149.356 38.1363 149.356Z" fill="#EC8D03"/>
<path d="M38.0002 127.479C37.5894 127.479 37.1954 127.642 36.9049 127.932C36.6144 128.223 36.4511 128.617 36.4511 129.028V137.731L33.9915 135.52C33.8305 135.377 33.6428 135.267 33.4393 135.196C33.2357 135.126 33.0202 135.096 32.8052 135.109C32.5901 135.122 32.3797 135.177 32.1861 135.271C31.9924 135.366 31.8193 135.497 31.6765 135.659C31.5338 135.82 31.4244 136.008 31.3544 136.212C31.2844 136.416 31.2554 136.631 31.2688 136.846C31.2823 137.061 31.3381 137.271 31.4329 137.465C31.5278 137.658 31.6598 137.831 31.8216 137.973L37.5391 142.922C37.8761 143.218 38.3846 143.206 38.7098 142.893L44.3149 137.542C44.4613 137.4 44.5783 137.231 44.6593 137.044C44.7403 136.857 44.7836 136.656 44.7869 136.452C44.7902 136.249 44.7534 136.046 44.6785 135.857C44.6036 135.667 44.4921 135.495 44.3504 135.348C44.2087 135.202 44.0395 135.085 43.8526 135.004C43.6657 134.923 43.4646 134.879 43.2609 134.876C43.0572 134.873 42.8549 134.91 42.6655 134.985C42.476 135.06 42.3032 135.171 42.1568 135.313L39.4961 137.914L39.5553 129.039C39.5568 128.835 39.5177 128.631 39.4402 128.442C39.3627 128.252 39.2483 128.079 39.1037 127.934C38.959 127.789 38.787 127.674 38.5976 127.596C38.4082 127.518 38.2052 127.478 38.0002 127.479Z" fill="#EC8D03"/>
<path d="M188.848 69.1389C188.848 69.1389 187.465 69.3931 185.046 68.0155C182.628 66.6378 179.696 65.6859 178.661 65.7687C177.626 65.8574 177.809 66.8802 180.464 68.79C183.119 70.6998 180.139 71.09 179.879 71.4448C179.619 71.7995 179.134 72.7692 182.143 72.6096C185.153 72.444 185.898 72.0242 186.513 72.2193C187.128 72.4144 188.227 73.254 188.227 73.254L189.067 73.2245L188.842 69.1389H188.848Z" fill="#7B443D"/>
<path d="M226.364 48.3438C226.364 48.3438 245.343 68.0977 250.428 98.116L232.318 98.2047C232.318 98.2047 232.661 89.318 231.797 86.3026L207.65 86.3854L209.377 81.2119C209.377 81.2119 197.818 88.2006 186.773 85.4394L188.842 69.1384C188.842 69.1384 202.382 71.0363 209.199 64.3964C209.199 64.3964 215.839 57.4078 216.791 51.8854L226.37 48.3438H226.364Z" fill="#0A4EDC"/>
<path d="M216.791 51.8857L209.371 81.2122C209.371 81.2122 197.292 88.6325 186.767 85.4397L188.836 69.1387C188.842 69.1387 209.885 72.2428 216.791 51.8857Z" fill="#022E74"/>
<path d="M232.353 86.9827C232.596 90.3706 233.14 105.767 233.009 119.041C233.009 119.283 233.116 119.514 233.305 119.662L258.304 139.646C258.575 139.859 258.617 140.255 258.404 140.533L254.809 144.985C254.72 145.096 254.592 145.17 254.452 145.193C254.311 145.216 254.167 145.186 254.046 145.109C250.398 142.815 225.146 126.881 223.863 124.078C222.597 121.311 213.001 91.9493 211.405 87.0655C211.38 86.9865 211.374 86.9027 211.387 86.8209C211.4 86.7391 211.433 86.6616 211.482 86.5948C211.531 86.5279 211.595 86.4736 211.669 86.4362C211.743 86.3988 211.824 86.3794 211.907 86.3796L231.117 86.3027C231.502 86.3027 232.324 86.5984 232.359 86.9827H232.353Z" fill="#FEDC7A"/>
<path d="M218.784 110.119L201.235 158.874C201.156 159.093 201.009 159.28 200.815 159.408C200.621 159.536 200.391 159.597 200.159 159.584L194.838 159.264C194.246 159.229 193.827 158.673 193.951 158.094L209.235 87.1071C209.312 86.7346 209.631 86.4567 210.009 86.4449L211.18 86.3857L218.796 109.232C218.896 109.516 218.89 109.835 218.784 110.119Z" fill="#F1B400"/>
<path d="M201.318 158.449L201.412 165.237C201.418 165.438 201.253 165.68 201.052 165.674L198.356 165.639C198.161 165.627 198.078 165.367 198.072 165.178V164.888C198.066 164.829 198.013 164.746 197.954 164.758C197.315 164.858 194.4 165.32 193.283 165.302C192.526 165.284 184.538 165.562 181.694 165.444C181.46 165.431 181.239 165.333 181.072 165.168C180.906 165.004 180.805 164.784 180.79 164.55C180.775 164.316 180.846 164.085 180.989 163.9C181.133 163.715 181.34 163.589 181.57 163.546C183.71 163.15 189.711 161.654 193.886 158.52L201.318 158.449Z" fill="#181338"/>
<path d="M218.861 51.1292L218.169 47.0495C218.169 47.0495 215.283 50.3546 213.616 50.5261C211.961 50.7035 211.251 48.9297 210.187 47.3156C210.187 47.3156 207.278 41.8582 208.182 37.2405C208.182 37.2405 211.878 37.2169 213.734 36.1585C213.734 36.1585 213.835 35.6855 215.195 39.8953C215.195 39.8953 215.349 37.8081 218.039 38.9552C220.818 40.1377 217.95 43.0881 217.95 43.0881C217.95 43.0881 218.435 44.5662 222.39 45.2639L224.679 48.9297L218.861 51.1292Z" fill="#7B443D"/>
<path d="M208.182 37.2406C208.182 37.2406 205.581 36.945 205.362 33.8113C205.149 30.6894 209.761 28.2535 212.398 32.5637C212.398 32.5637 219.789 28.6378 222.828 33.6221C222.828 33.6221 227.055 28.892 231.389 28.419C235.723 27.946 237.834 31.1979 237.302 34.781C236.758 38.364 233.163 40.5635 228.522 38.0211C223.886 35.4786 223.951 36.0758 223.951 36.0758C223.951 36.0758 227.186 42.4378 222.396 45.264C222.396 45.264 218.476 44.7023 217.956 43.0822C217.956 43.0822 220.025 40.8177 218.665 39.5051C217.306 38.1925 215.366 38.7069 215.195 39.8954C215.195 39.8954 214.071 36.2887 213.728 36.2887C213.386 36.2887 212.759 37.2406 208.188 37.2406H208.182Z" fill="#181338"/>
<path d="M209.98 41.5331C210.394 41.5331 210.394 40.8887 209.98 40.8887C209.566 40.8887 209.566 41.5331 209.98 41.5331ZM207.739 41.7815C208.153 41.7815 208.153 41.137 207.739 41.137C207.325 41.137 207.325 41.7815 207.739 41.7815ZM209.016 42.6092L208.839 43.7622C208.78 44.1229 208.691 44.5013 208.726 44.8738C208.756 45.1517 208.874 45.3409 209.123 45.4768C209.335 45.5951 209.584 45.6779 209.832 45.7134C210.069 45.7547 210.175 45.3822 209.933 45.3409C209.736 45.3133 209.544 45.2555 209.365 45.1694C209.285 45.1368 209.215 45.0862 209.158 45.0216C209.093 44.9329 209.099 44.7732 209.099 44.6668C209.111 44.3535 209.176 44.0401 209.229 43.7267L209.383 42.7098C209.4 42.6092 209.359 42.5028 209.253 42.4732C209.164 42.4496 209.034 42.5087 209.016 42.6092ZM211.967 46.7894C211.553 47.1205 211.02 47.3216 210.488 47.3452C210.438 47.3468 210.39 47.368 210.354 47.4044C210.319 47.4409 210.299 47.4896 210.299 47.5403C210.299 47.6409 210.382 47.7355 210.488 47.7355C211.127 47.6974 211.739 47.4619 212.238 47.0614C212.321 46.9964 212.304 46.8545 212.238 46.7894C212.156 46.7067 212.049 46.7244 211.967 46.7894Z" fill="#231F20"/>
<path d="M232.01 85.9717C231.987 84.2393 231.88 82.501 231.75 80.7686C231.517 77.1762 231.047 73.6032 230.343 70.0727C229.963 68.1161 229.405 66.1983 228.676 64.3434C228.599 64.1542 228.285 64.237 228.362 64.4262C229.74 67.7964 230.378 71.4681 230.851 75.063C231.323 78.6839 231.603 82.3272 231.691 85.9776C231.691 86.1846 232.01 86.1846 232.01 85.9776V85.9717Z" fill="#181338"/>
<path d="M101.011 45.9434C101.011 45.9434 118.246 60.039 121.634 67.7608C124.827 75.0452 140.542 95.9758 146.644 99.5706C147.147 99.8662 147.295 100.517 146.958 100.99L144.072 105.117C143.824 105.477 143.416 105.696 142.978 105.708C140.099 105.785 129.107 105.601 122.426 98.8552C122.426 98.8552 123.952 97.1228 119.446 87.2369C114.941 77.3511 100.213 54.6644 101.011 45.9434Z" fill="#F19F00"/>
<path d="M90.7998 45.27C90.8589 45.4651 90.6697 39.5347 90.6697 39.5347L92.5617 35.8098C92.5617 35.8098 89.162 34.4381 91.5802 30.6422C91.5802 30.6422 92.2306 29.6607 93.4722 29.7258L99.9465 45.808L90.7998 45.27Z" fill="#7B443D"/>
<path d="M101.011 45.9434C100.751 46.718 118.926 82.2882 118.926 82.2882L126.394 98.465L122.095 98.7725C122.095 98.7725 122.663 99.8131 121.622 100.842L109.135 111.396L103.009 67.6427L96.5349 45.1748" fill="#B7E4FF"/>
<path d="M83.8879 59.4832C76.5268 58.7559 74.144 41.4379 82.9537 43.5192C91.7635 45.5886 96.535 45.1806 96.535 45.1806C113.073 96.7089 109.129 111.402 109.129 111.402L83.4622 113.01C83.4622 113.01 73.3162 106.985 71.8381 94.6277C70.7578 85.2797 73.0289 75.8517 78.2473 68.021L83.8879 59.4832Z" fill="#F1B400"/>
<path d="M108.733 92.3756C108.892 92.4347 113.185 91.2403 115.384 90.7792C118.069 90.2293 121.918 88.4851 127.068 88.4496C132.211 88.4082 123.419 91.7843 123.236 93.7118C123.047 95.6511 126.252 95.0894 125.607 96.1892C124.957 97.2889 117.596 95.9468 116.431 95.5388C115.266 95.1426 112.718 96.1123 112.718 96.1123L108.733 92.3756Z" fill="#7B443D"/>
<path d="M82.9064 66.8327C82.1851 66.9149 81.5131 67.2391 80.9998 67.7524C80.4865 68.2656 80.1624 68.9377 80.0801 69.6589C79.4475 75.1872 77.2953 83.9319 77.0411 93.463C76.925 96.7712 78.0227 100.008 80.1274 102.563C84.3549 107.588 91.184 111.585 112.883 97.3949C113.238 97.1643 113.338 96.6972 113.12 96.3365L110.625 92.1741C110.476 91.9196 110.234 91.7337 109.95 91.6563C109.665 91.5789 109.362 91.6162 109.105 91.7602C105.51 93.7882 99.3138 93.2561 93.5195 91.8962C89.1087 90.8674 89.7886 77.7355 89.2979 71.7283C89.2392 71.0042 89.0353 70.2992 88.6984 69.6556C88.3614 69.0119 87.8982 68.4428 87.3365 67.982C86.7747 67.5212 86.1259 67.1783 85.4288 66.9738C84.7317 66.7692 84.0005 66.7071 83.2788 66.7913L82.9064 66.8327Z" fill="#F1B400"/>
<path d="M97.8652 41.1182C97.8652 41.1182 99.166 43.5188 102.826 43.1285C105.173 42.8743 106.58 42.9748 107.597 42.626C108.03 42.477 108.389 42.1694 108.603 41.7655C108.817 41.3615 108.87 40.8914 108.75 40.4501C108.573 39.7938 108.378 39.0488 108.378 38.9424C108.378 38.7473 109.164 36.9853 108.774 34.9573C108.378 32.9352 106.746 26.3959 102.495 21.0391C102.495 21.0391 100.863 22.4108 98.6398 22.801C96.4166 23.1972 94.9799 27.8977 94.9799 27.8977C94.9799 27.8977 99.0359 35.0874 98.2495 35.4185C97.4631 35.7437 96.1565 36.3941 96.1565 36.3941L97.8711 41.1242L97.8652 41.1182Z" fill="#7B443D"/>
<path d="M98.3915 35.3542C98.3915 35.3542 99.101 34.9226 94.9799 27.9043C94.9799 27.9043 95.985 24.7647 97.676 23.3812C98.8526 22.4233 98.8822 23.0028 98.7462 23.393C98.7167 23.4876 98.8172 23.5704 98.8999 23.529C99.5917 23.1565 101.49 22.0981 102.495 21.0398C103.736 19.7331 102.82 17.51 102.365 17.3148C101.909 17.1138 94.974 16.4634 89.0969 19.1477C83.2197 21.8261 83.4799 26.3966 83.61 29.4711C83.7401 32.5457 84.6506 37.1812 90.6696 39.5344L92.5616 35.8094C92.5616 35.8094 89.2506 34.4909 91.5802 30.6418C91.5802 30.6418 92.1714 29.8495 93.4722 29.7313L96.1565 36.3948L98.3915 35.3542Z" fill="#181338"/>
<path d="M104.062 28.8919V28.8801V28.9687V28.9451C104.054 28.965 104.046 28.9847 104.038 29.0042L103.985 29.0633C103.991 29.0633 103.997 29.0633 104.002 29.0515L103.943 29.1047L103.961 29.087L103.884 29.1225C103.898 29.1169 103.911 29.1129 103.926 29.1106L103.843 29.1225C103.858 29.1193 103.875 29.1193 103.89 29.1225L103.801 29.1106L103.843 29.1225C103.817 29.1118 103.791 29.1 103.766 29.087L103.79 29.1047L103.731 29.0515L103.742 29.0693L103.689 29.0042L103.701 29.022C103.692 28.996 103.682 28.9703 103.671 28.9451V28.9687L103.665 28.8801V28.8919C103.665 28.9392 103.671 28.9806 103.689 29.016C103.703 29.0574 103.727 29.0942 103.76 29.1225C103.784 29.152 103.819 29.1757 103.861 29.1816C103.902 29.2052 103.943 29.2171 103.985 29.2171L104.068 29.2052C104.127 29.1875 104.174 29.1639 104.209 29.1225L104.263 29.0633C104.291 29.0128 104.305 28.9557 104.304 28.8978V28.8387L104.298 28.7914L104.292 28.7736C104.271 28.7058 104.233 28.6446 104.181 28.596C104.129 28.5473 104.066 28.5128 103.997 28.4957C103.954 28.4838 103.91 28.4778 103.867 28.478L103.748 28.4957H103.725L103.636 28.5371C103.604 28.5548 103.574 28.5766 103.547 28.6022L103.506 28.6495L103.47 28.6968C103.438 28.7587 103.422 28.8279 103.423 28.8978C103.423 28.9392 103.429 28.9806 103.453 29.016C103.464 29.0569 103.486 29.0941 103.516 29.1241C103.546 29.1541 103.583 29.176 103.624 29.1875C103.66 29.2112 103.701 29.2171 103.742 29.2171L103.825 29.2052C103.884 29.1934 103.932 29.1639 103.967 29.1225L104.026 29.0633C104.056 29.0042 104.068 28.9451 104.068 28.8919H104.062ZM107.136 28.1646H107.077C107.032 28.1615 106.986 28.1717 106.947 28.1942C106.908 28.2086 106.873 28.233 106.846 28.2651C106.817 28.2925 106.794 28.3271 106.781 28.3657C106.762 28.4021 106.752 28.4427 106.752 28.4839L106.764 28.5726C106.776 28.6317 106.805 28.6731 106.846 28.7145L106.906 28.7677C106.959 28.7914 107.012 28.8091 107.071 28.8091H107.13C107.178 28.8091 107.219 28.8032 107.26 28.7795C107.299 28.7671 107.334 28.7446 107.361 28.7145C107.39 28.6849 107.42 28.6554 107.426 28.614C107.446 28.5758 107.456 28.533 107.455 28.4898L107.444 28.4011C107.428 28.3495 107.399 28.3028 107.361 28.2651L107.302 28.206C107.251 28.178 107.194 28.1637 107.136 28.1646ZM107.047 30.8016C107.373 31.3456 107.704 31.8836 108.023 32.4335C108.242 32.8119 108.526 33.4978 108.041 33.8052C107.828 33.9412 108.023 34.2783 108.236 34.1423C108.792 33.7875 108.762 33.078 108.514 32.5399C108.366 32.2148 108.159 31.9132 107.982 31.6117L107.379 30.6065C107.254 30.3878 106.917 30.5829 107.047 30.8016ZM106.935 37.1932C107.615 37.3587 108.342 37.3173 108.993 37.0631C109.093 37.0276 109.158 36.9389 109.129 36.8266C109.105 36.7379 108.993 36.6551 108.892 36.6965C108.301 36.9271 107.651 36.9744 107.036 36.8266C106.799 36.7675 106.693 37.134 106.935 37.1932Z" fill="#231F20"/>
<path d="M102.465 34.7694C102.665 34.7694 102.857 34.69 102.998 34.5486C103.14 34.4073 103.219 34.2155 103.219 34.0156C103.219 33.8156 103.14 33.6239 102.998 33.4825C102.857 33.3411 102.665 33.2617 102.465 33.2617C102.266 33.2617 102.075 33.3408 101.934 33.4817C101.793 33.6225 101.714 33.8135 101.714 34.0126C101.714 34.2118 101.793 34.4028 101.934 34.5436C102.075 34.6844 102.266 34.7635 102.465 34.7635V34.7694Z" fill="#AB573A"/>
<path d="M130.84 65.561C130.881 65.3718 130.739 65.1885 130.544 65.2063C129.929 65.2477 128.593 66.1759 127.032 72.3428C124.986 80.4135 121.102 95.9459 120.729 97.4654C120.719 97.5029 120.7 97.5378 120.676 97.5683C120.652 97.5987 120.622 97.624 120.587 97.6428L105.563 106.039C104.951 106.372 104.41 106.823 103.972 107.366C103.533 107.909 103.206 108.533 103.009 109.202C102.773 110.059 102.808 110.804 103.707 110.727C103.748 110.727 103.79 110.71 103.825 110.686L123.307 99.523C123.556 99.3811 123.467 99.0027 123.189 98.979C123.148 98.9749 123.108 98.9622 123.072 98.9416C123.036 98.921 123.004 98.8931 122.98 98.8597C122.955 98.8262 122.938 98.7879 122.929 98.7474C122.92 98.7068 122.92 98.6649 122.929 98.6243L130.84 65.561Z" fill="black"/>
<path d="M166.416 99.8131L147.596 109.924L103.772 110.722L122.763 98.9854L166.416 99.8131Z" fill="#779ED8"/>
<path d="M122.805 98.4588L130.668 65.7976C130.733 65.5197 130.982 65.3246 131.271 65.3364L174.865 66.0992C175.261 66.1051 175.551 66.4835 175.444 66.8678L166.576 99.5586C166.516 99.7951 166.292 99.9606 166.043 99.9547L123.384 99.2097C123 99.2038 122.716 98.8372 122.811 98.4588H122.805Z" fill="#0A4EDC"/>
<path d="M151.587 36.4238H173.606C174.055 36.4238 174.422 36.749 174.422 37.1511V55.7994C174.422 56.2015 174.055 56.5267 173.606 56.5267H151.587C151.138 56.5267 150.771 56.2015 150.771 55.7994V37.1511C150.771 36.749 151.138 36.4238 151.587 36.4238Z" fill="#F1B400"/>
<path d="M150.771 58.6913V55.3447L155.797 56.5272L151.682 59.1879C151.592 59.2452 151.489 59.2774 151.383 59.2812C151.277 59.2849 151.172 59.2601 151.079 59.2093C150.986 59.1586 150.908 59.0837 150.854 58.9925C150.8 58.9014 150.771 58.7973 150.771 58.6913Z" fill="#F1B400"/>
<path d="M155.992 42.9044C156.224 42.9044 156.447 42.8122 156.611 42.6481C156.775 42.484 156.867 42.2614 156.867 42.0294C156.867 41.7973 156.775 41.5747 156.611 41.4106C156.447 41.2465 156.224 41.1543 155.992 41.1543C155.76 41.1543 155.537 41.2465 155.373 41.4106C155.209 41.5747 155.117 41.7973 155.117 42.0294C155.117 42.2614 155.209 42.484 155.373 42.6481C155.537 42.8122 155.76 42.9044 155.992 42.9044ZM155.992 47.6345C156.224 47.6345 156.447 47.5423 156.611 47.3782C156.775 47.2141 156.867 46.9915 156.867 46.7594C156.867 46.5274 156.775 46.3048 156.611 46.1407C156.447 45.9766 156.224 45.8844 155.992 45.8844C155.76 45.8844 155.537 45.9766 155.373 46.1407C155.209 46.3048 155.117 46.5274 155.117 46.7594C155.117 46.9915 155.209 47.2141 155.373 47.3782C155.537 47.5423 155.76 47.6345 155.992 47.6345ZM158.824 42.4255H169.124C169.561 42.4255 169.561 41.7456 169.124 41.7456H158.824C158.387 41.7456 158.387 42.4255 158.824 42.4255ZM158.824 47.1556H169.124C169.561 47.1556 169.561 46.4756 169.124 46.4756H158.824C158.387 46.4756 158.387 47.1556 158.824 47.1556ZM155.992 51.7733C156.107 51.7733 156.221 51.7507 156.327 51.7067C156.433 51.6627 156.53 51.5983 156.611 51.517C156.692 51.4358 156.756 51.3393 156.8 51.2331C156.844 51.127 156.867 51.0132 156.867 50.8983C156.867 50.7833 156.844 50.6695 156.8 50.5634C156.756 50.4572 156.692 50.3607 156.611 50.2795C156.53 50.1982 156.433 50.1338 156.327 50.0898C156.221 50.0458 156.107 50.0232 155.992 50.0232C155.76 50.0232 155.537 50.1154 155.373 50.2795C155.209 50.4436 155.117 50.6662 155.117 50.8983C155.117 51.1303 155.209 51.3529 155.373 51.517C155.537 51.6811 155.76 51.7733 155.992 51.7733ZM158.824 51.2944H169.124C169.561 51.2944 169.561 50.6145 169.124 50.6145H158.824C158.387 50.6145 158.387 51.2944 158.824 51.2944Z" fill="#F3F7F8"/>
<path d="M103.902 104.52L129.208 97.9156C130.603 97.5573 131.98 97.1331 133.335 96.6444C135.712 95.7752 140.755 94.4567 143.008 97.7973C145.722 101.818 161.568 130.494 164.559 135.916C164.855 136.448 164.459 137.223 164.423 137.832C164.317 139.599 160.639 140.776 159.729 140.776C158.487 140.776 136.078 110.101 136.078 110.101C136.078 110.101 114.87 129.14 97.2858 128.312C84.0948 127.686 83.1251 117.877 83.4621 113.005C83.5209 112.224 83.8177 111.481 84.3126 110.875C84.8075 110.269 85.4765 109.83 86.2292 109.617L103.902 104.52Z" fill="#1AADFF"/>
<path d="M101.348 128.129H95.8728C69.0532 113.359 67.9949 128.129 67.9949 128.129V170.64H118.843V128.135C108.62 124.794 103.648 126.42 101.348 128.135V128.129Z" fill="#022E74"/>
<path d="M136.078 110.101C136.078 110.101 138.331 107.251 137.474 103.254M83.8879 59.4833C83.8879 59.4833 90.3503 61.2689 93.7737 58.4131M90.0606 73.5552C90.0606 73.5552 93.2002 89.5429 90.918 94.6869M81.2095 94.9707C81.2095 94.9707 82.0668 106.4 94.0575 101.829" stroke="#231F20" stroke-miterlimit="10"/>
<path d="M101.578 133.816C101.578 133.816 95.7722 125.627 83.2079 122.582" stroke="#181338" stroke-miterlimit="10"/>
<path d="M232.986 112.596C232.986 112.596 233.991 122.387 229.468 124.894" stroke="black" stroke-miterlimit="10"/>
<path d="M160.042 139.658C160.042 139.658 163.365 138.322 163.335 133.403C163.335 133.403 165.47 133.497 167.421 133.846C169.171 134.165 175.687 133.905 178.336 133.775C179.067 133.741 179.785 133.568 180.452 133.267C181.375 132.853 182.634 132.066 183.089 132.102C183.994 132.167 184.568 133.55 185.035 134.384C185.177 134.638 185.112 134.94 184.899 135.058L163.188 146.635C162.697 146.895 162.052 146.659 161.709 146.091C160.793 144.554 158.635 141.39 158.972 139.942C158.985 139.878 159.019 139.82 159.068 139.777C159.117 139.735 159.179 139.709 159.244 139.705L160.042 139.652V139.658Z" fill="#181238"/>
<path d="M109.383 126.343L132.353 126.142C132.708 126.142 133.069 126.107 133.424 126.083C133.873 126.06 134.783 126.367 134.937 129.241C135.126 132.741 138.089 159.986 138.591 164.58C138.627 164.935 138.964 165.166 139.307 165.077L145.237 163.551C145.427 163.502 145.596 163.39 145.716 163.233C145.836 163.077 145.9 162.885 145.899 162.688L145.485 117.445C145.485 117.445 145.391 113.933 136.474 110.267C136.226 110.161 135.942 110.19 135.718 110.332C132.566 112.325 109.868 126.633 109.383 126.343Z" fill="#0092D3"/>
<path d="M139.094 162.894C139.094 162.894 143.676 163.178 145.881 158.779C145.881 158.779 147.738 159.832 149.317 161.026C150.736 162.108 156.66 164.822 159.084 165.904C159.764 166.211 160.48 166.377 161.201 166.412C162.218 166.454 163.684 166.33 164.08 166.566C164.849 167.039 164.743 169.038 164.778 169.99C164.79 170.279 164.601 170.522 164.352 170.522L139.756 170.51C139.2 170.522 138.733 170.013 138.686 169.357C138.562 167.565 137.06 163.799 138.012 162.664C138.053 162.612 138.111 162.576 138.175 162.561C138.239 162.546 138.307 162.553 138.367 162.581L139.094 162.894Z" fill="#181238"/>
<path d="M49.6658 112.767L49.8728 87.8633L73.3162 113.287L50.0265 113.14C49.9783 113.139 49.9308 113.129 49.8866 113.109C49.8425 113.09 49.8025 113.063 49.769 113.028C49.7355 112.994 49.7091 112.953 49.6914 112.908C49.6737 112.863 49.665 112.815 49.6658 112.767Z" fill="#EC8D03"/>
</g>
</g>
<defs>
<clipPath id="clip0_5839_86774">
<rect width="262" height="181" fill="white"/>
</clipPath>
</defs>
</svg>
