<svg width="161" height="100" viewBox="0 0 161 100" fill="none" xmlns="http://www.w3.org/2000/svg">
<g clip-path="url(#clip0_12448:209283)">
<path d="M84.4235 91.9095H72.9237C71.4586 91.9095 70.271 93.0972 70.271 94.5622V97.3482C70.271 98.8133 71.4586 100.001 72.9237 100.001H84.4235C85.8885 100.001 87.0761 98.8133 87.0761 97.3482V94.5622C87.0761 93.0972 85.8885 91.9095 84.4235 91.9095Z" fill="#D0CDE1"/>
<path d="M130.55 98.9824H27.5269V99.3477H130.55V98.9824Z" fill="#3F3D56"/>
<path d="M81.8349 91.2002L81.7432 91.0118C81.7153 90.9545 78.9689 85.2134 80.5002 79.553C82.0315 73.8923 87.2977 70.3188 87.3507 70.2834L87.5247 70.167L87.6164 70.3553C87.6443 70.4126 90.3907 76.1537 88.8593 81.8142C87.3281 87.4748 82.0619 91.0484 82.0089 91.0837L81.8349 91.2002ZM87.3773 70.7119C86.4553 71.3826 82.19 74.7054 80.8528 79.6482C79.5147 84.595 81.524 89.6117 81.9823 90.6552C82.9043 89.9845 87.1696 86.6617 88.5067 81.7189C89.8449 76.7721 87.8356 71.7555 87.3773 70.7119Z" fill="#3F3D56"/>
<path d="M74.7544 81.7675C76.2855 87.4275 81.53 90.9328 81.53 90.9328C81.53 90.9328 84.292 85.2616 82.7608 79.6016C81.2297 73.9416 75.9852 70.4362 75.9852 70.4362C75.9852 70.4362 73.2232 76.1075 74.7544 81.7675Z" fill="#3E64DE"/>
<path d="M81.9181 91.1199L81.709 91.1085C81.6454 91.1051 75.2934 90.7136 71.0914 86.6232C66.8896 82.5329 66.3274 76.1937 66.3222 76.13L66.3052 75.9214L66.5142 75.9329C66.5779 75.9363 72.9299 76.3278 77.1318 80.4181C81.3337 84.5087 81.8959 90.8477 81.9011 90.9114L81.9181 91.1199ZM66.7098 76.3151C66.8476 77.4468 67.6771 82.7898 71.3463 86.3613C75.0155 89.9333 80.3785 90.6188 81.5135 90.7262C81.3757 89.5944 80.5462 84.2518 76.8769 80.68C73.2051 77.1054 67.8443 76.422 66.7098 76.3151Z" fill="#3F3D56"/>
<path d="M86.4329 80.5503C82.2314 84.6402 81.7183 90.9274 81.7183 90.9274C81.7183 90.9274 88.017 90.5835 92.2184 86.4936C96.4199 82.4036 96.933 76.1165 96.933 76.1165C96.933 76.1165 90.6343 76.4604 86.4329 80.5503Z" fill="#41454F"/>
<path d="M81.6316 57.9928C83.1448 57.9928 84.3716 56.766 84.3716 55.2528C84.3716 53.7395 83.1448 52.5128 81.6316 52.5128C80.1183 52.5128 78.8916 53.7395 78.8916 55.2528C78.8916 56.766 80.1183 57.9928 81.6316 57.9928Z" fill="#3E64DE"/>
<path d="M88.7542 99.4241H75.168C74.3054 99.4231 73.4785 99.0801 72.8686 98.4701C72.2587 97.8602 71.9156 97.0333 71.9146 96.1708V92.8137C71.9155 91.9512 72.2586 91.1242 72.8685 90.5143C73.4785 89.9043 74.3054 89.5612 75.168 89.5602H88.7542C89.6168 89.5612 90.4438 89.9043 91.0537 90.5143C91.6636 91.1242 92.0067 91.9512 92.0077 92.8137V96.1708C92.0067 97.0333 91.6636 97.8602 91.0536 98.4701C90.4437 99.0801 89.6168 99.4231 88.7542 99.4241ZM75.168 89.9256C74.4023 89.9264 73.6682 90.231 73.1267 90.7724C72.5853 91.3139 72.2807 92.048 72.2799 92.8137V96.1708C72.2808 96.9365 72.5853 97.6705 73.1268 98.212C73.6682 98.7534 74.4023 99.0579 75.168 99.0588H88.7542C89.5199 99.0579 90.254 98.7534 90.7954 98.212C91.3369 97.6705 91.6415 96.9365 91.6423 96.1708V92.8137C91.6415 92.048 91.3369 91.3139 90.7955 90.7724C90.2541 90.231 89.5199 89.9264 88.7542 89.9256H75.168Z" fill="#3F3D56"/>
<path d="M54.9559 15.8614H0V62.5444H54.9559V15.8614Z" fill="#3E64DE"/>
<path d="M10.4199 12.7452C12.0117 12.7452 13.3022 11.4547 13.3022 9.8629C13.3022 8.27105 12.0117 6.98061 10.4199 6.98061C8.82804 6.98061 7.5376 8.27105 7.5376 9.8629C7.5376 11.4547 8.82804 12.7452 10.4199 12.7452Z" fill="#3E64DE"/>
<path d="M65.7617 56.3439H10.2095V9.06471H65.7617V56.3439ZM10.8059 55.7475H65.1652V9.66116H10.8059V55.7475Z" fill="#3F3D56"/>
<path d="M59.2594 27.2946C59.2585 31.1404 58.2158 34.9142 56.2421 38.2149C54.2683 41.5157 51.4372 44.22 48.0496 46.0406C47.7955 46.1785 47.5374 46.3105 47.2754 46.4366C44.3683 47.8448 41.179 48.5736 37.9488 48.5678C34.7185 48.562 31.5319 47.8218 28.6298 46.4031C28.1295 46.1588 27.641 45.8949 27.1644 45.6112C26.6798 45.3276 26.209 45.0223 25.7521 44.6992C22.7468 42.5863 20.3399 39.7312 18.7656 36.412C17.1913 33.0927 16.5032 29.4224 16.7684 25.7583C17.0336 22.0942 18.2429 18.5612 20.2787 15.5032C22.3146 12.4452 25.1075 9.96647 28.3856 8.30822C29.6805 7.65005 31.0404 7.12854 32.4433 6.75212C33.0618 6.5847 33.6908 6.4455 34.3303 6.33454C35.5376 6.12516 36.7608 6.02038 37.9861 6.02135C38.2383 6.02135 38.4884 6.02529 38.7386 6.0371C38.9218 6.04105 39.1049 6.04893 39.2881 6.06075C41.2032 6.17521 43.0937 6.54961 44.9078 7.17365C45.0634 7.22684 45.219 7.28198 45.3727 7.33911C45.9084 7.53609 46.4324 7.75538 46.9445 7.997C50.6236 9.70454 53.7378 12.4285 55.9197 15.8476C58.1016 19.2668 59.2604 23.2386 59.2594 27.2946Z" fill="#6180E4"/>
<path d="M46.2886 5.53984C44.3531 0.973157 39.4263 0.110694 39.4263 0.110694C39.4263 0.110694 34.6825 -1.15484 30.7209 4.87222C27.0283 10.4899 22.2664 15.7532 28.3054 17.9956L29.9006 14.6454L30.0919 18.5009C30.9701 18.6838 31.8576 18.8184 32.7505 18.9043C39.4488 19.5848 45.7631 20.7163 45.88 18.2955C46.0355 15.0775 48.1508 9.9339 46.2886 5.53984Z" fill="#2F2E41"/>
<path d="M29.0862 42.758L28.9287 44.0226L28.6293 46.4021C28.1289 46.1578 27.6404 45.8939 27.1638 45.6102C26.6792 45.3266 26.2084 45.0213 25.7515 44.6982L25.7987 43.4711L25.8519 42.11L28.0383 42.5492L29.0862 42.758Z" fill="#FFB8B8"/>
<path d="M51.0941 44.0515C50.1376 44.8003 49.1188 45.4659 48.0489 46.0409L47.0167 42.4658L46.8808 41.9951L46.542 40.8191L46.9064 40.762L50.6371 40.1731L50.7573 41.1875L51.0941 44.0515Z" fill="#FFB8B8"/>
<path d="M39.4301 14.9554C42.6437 14.9554 45.2488 12.3503 45.2488 9.13664C45.2488 5.92302 42.6437 3.31787 39.4301 3.31787C36.2165 3.31787 33.6113 5.92302 33.6113 9.13664C33.6113 12.3503 36.2165 14.9554 39.4301 14.9554Z" fill="#FFB8B8"/>
<path d="M35.4433 11.4005C35.4433 11.4005 35.8743 18.7278 34.5813 19.1588C33.2882 19.5899 41.2621 19.1588 41.2621 19.1588C41.2621 19.1588 40.1845 14.6331 41.2621 13.3401C42.3396 12.047 35.4433 11.4005 35.4433 11.4005Z" fill="#FFB8B8"/>
<path d="M41.3697 17.9739C41.3697 17.9739 35.7665 17.5428 34.6889 17.9739C33.6114 18.4049 30.5942 20.56 30.5942 20.56L32.1028 34.1371L44.3869 36.7232L46.3265 33.9216L48.266 29.8269L47.404 24.6547L47.1885 21.6375L41.3697 17.9739Z" fill="#D0CDE1"/>
<path d="M29.5171 21.4219C29.5171 21.4219 26.7154 22.0684 26.4999 24.2235C26.2844 26.3786 26.2844 31.7663 26.4999 32.6284C26.7154 33.4904 26.4999 33.9214 26.2844 34.137C26.0689 34.3525 25.6379 33.9214 26.0689 34.568C26.4999 35.2145 26.4999 35.2145 26.2844 35.861C26.0689 36.5076 25.4224 35.6455 25.8534 36.7231C26.2844 37.8006 26.4999 38.0161 26.2844 38.2316C26.0689 38.4471 25.4224 43.4039 25.4224 43.4039L29.086 44.0504L32.7497 31.3353L29.5171 21.4219Z" fill="#D0CDE1"/>
<path d="M46.3264 21.4219C46.7357 21.4447 47.1314 21.5767 47.4725 21.804C47.8135 22.0314 48.0875 22.3459 48.266 22.7149C48.9126 24.008 50.6366 32.4129 50.4211 33.0594C50.2056 33.7059 49.7746 32.8439 50.2056 34.137C50.6366 35.43 50.2056 35.2145 50.4211 36.0765C50.6366 36.9386 49.5591 36.0765 50.4211 36.9386C51.2832 37.8006 51.7142 38.0161 51.2832 38.4472C50.8521 38.8782 50.2056 38.0161 50.8521 38.8782C51.4987 39.7402 51.4987 41.0333 51.4987 41.0333L46.3264 42.1108L44.8179 30.0423L46.3264 21.4219Z" fill="#D0CDE1"/>
<path d="M47.0166 42.4639L47.2747 46.4349C44.3675 47.8432 41.1783 48.572 37.948 48.5662C34.7178 48.5604 31.5311 47.8201 28.6291 46.4014C28.1288 46.1572 27.6403 45.8932 27.1636 45.6096C27.329 45.0009 27.4965 44.3943 27.6678 43.7994C27.79 43.3759 27.9134 42.959 28.0381 42.5486C29.0053 39.3832 30.0473 36.6906 31.0243 35.6447C31.0243 35.6447 31.0243 33.2751 31.4556 33.0584C31.6132 32.9776 31.7747 32.7235 31.9126 32.432C32.0732 32.0762 32.2088 31.7096 32.3184 31.3349L31.6053 29.6763L28.4144 22.2465C28.3235 22.0339 28.3172 21.7948 28.3966 21.5777C28.476 21.3607 28.6352 21.1821 28.8418 21.0784L29.8995 20.5485C30.0067 20.4954 30.1233 20.4638 30.2427 20.4559C30.3621 20.4479 30.4819 20.4635 30.5952 20.502C30.7085 20.5404 30.813 20.6009 30.9029 20.6798C30.9928 20.7588 31.0662 20.8548 31.1188 20.9622L35.9821 30.9035L41.3694 34.3525L45.1473 32.6723L45.2478 32.627C45.2478 32.627 48.0507 28.3172 47.188 26.1623C46.8196 25.2424 46.4139 24.0133 46.0652 22.9044C45.8623 22.2504 45.6811 21.6378 45.5393 21.1572C45.517 21.0808 45.5186 20.9995 45.5441 20.9241C45.5696 20.8488 45.6177 20.7831 45.6818 20.736C45.7459 20.6889 45.8229 20.6626 45.9024 20.6608C45.982 20.659 46.0601 20.6817 46.1263 20.7258L46.861 21.2163C47.0275 21.328 47.1593 21.4843 47.2412 21.6674C47.2752 21.7389 47.3003 21.8143 47.316 21.8919L48.9115 29.6113L46.7566 34.1358V38.4456L46.9063 40.7601L46.9851 41.9715L47.0166 42.4639Z" fill="#2F2E41"/>
<path d="M45.1952 3.88087L40.2576 1.29446L33.439 2.35248L32.0283 8.5833L35.54 8.44823L36.521 6.15911V8.41051L38.1414 8.34819L39.082 4.70377L39.6698 8.5833L45.4303 8.46574L45.1952 3.88087Z" fill="#2F2E41"/>
<path d="M33.5035 10.2696C33.8605 10.2696 34.15 9.763 34.15 9.13813C34.15 8.51326 33.8605 8.0067 33.5035 8.0067C33.1464 8.0067 32.8569 8.51326 32.8569 9.13813C32.8569 9.763 33.1464 10.2696 33.5035 10.2696Z" fill="#FFB8B8"/>
<path d="M96.9423 23.6854C98.5342 23.6854 99.8246 22.395 99.8246 20.8031C99.8246 19.2113 98.5342 17.9208 96.9423 17.9208C95.3505 17.9208 94.0601 19.2113 94.0601 20.8031C94.0601 22.395 95.3505 23.6854 96.9423 23.6854Z" fill="#3E64DE"/>
<path d="M105.679 73.7814H160.635V27.0985L105.679 27.0985V73.7814Z" fill="#3E64DE"/>
<path d="M152.069 67.5791H96.5166V20.2997H152.069V67.5791ZM97.113 66.9826H151.472V20.8961H97.113V66.9826Z" fill="#3F3D56"/>
<path d="M145.419 34.7587C145.418 38.6046 144.375 42.3784 142.401 45.6792C140.428 48.9799 137.596 51.6843 134.209 53.505C133.955 53.6422 133.696 53.7764 133.433 53.9016C130.527 55.3133 127.338 56.0441 124.107 56.0384C120.876 56.0327 117.69 55.2907 114.789 53.8688C114.288 53.6243 113.801 53.3589 113.324 53.0756C112.838 52.7922 112.367 52.4881 111.911 52.163C108.906 50.0502 106.499 47.1953 104.924 43.8762C103.35 40.5572 102.662 36.887 102.927 33.223C103.192 29.5591 104.402 26.0262 106.437 22.9684C108.473 19.9105 111.266 17.4319 114.544 15.7738C115.182 15.4488 115.841 15.1565 116.515 14.8941C117.199 14.6327 117.896 14.4068 118.603 14.2171C119.22 14.0501 119.849 13.9109 120.491 13.7996C120.675 13.7668 120.863 13.737 121.051 13.7101C122.076 13.5614 123.111 13.4866 124.147 13.4865C124.397 13.4865 124.648 13.4894 124.898 13.5014C125.08 13.5044 125.265 13.5133 125.447 13.5252C127.264 13.6349 129.059 13.9776 130.788 14.5452C130.884 14.575 130.976 14.6048 131.069 14.6376C131.224 14.6913 131.379 14.7479 131.531 14.8046C132.068 15.0014 132.591 15.2201 133.102 15.4607C133.675 15.7261 134.233 16.0174 134.775 16.3345C138.012 18.199 140.701 20.8839 142.569 24.1185C144.438 27.3531 145.421 31.0231 145.419 34.7587Z" fill="#6180E4"/>
<path d="M133.412 9.16031C131.018 5.11453 126.281 4.92598 126.281 4.92598C126.281 4.92598 121.665 4.33569 118.703 10.4975C115.943 16.2407 112.134 21.786 118.09 23.1304L119.166 19.782L119.832 23.3797C120.68 23.4407 121.531 23.4553 122.381 23.4233C128.759 23.2174 134.833 23.4835 134.638 21.1947C134.378 18.152 135.716 13.0532 133.412 9.16031Z" fill="#2F2E41"/>
<path d="M120.996 47.6207L119.105 45.8222L115.231 40.8415L112.42 42.1622L116.983 48.0358L118.961 50.6499L118.966 50.6645C118.966 50.6645 122.195 54.5383 124.408 52.8781C126.622 51.2179 120.996 47.6207 120.996 47.6207Z" fill="#A0616A"/>
<path d="M137.321 41.4402L135.43 39.6416L133.309 41.8552L135.286 44.4694L135.292 44.4839C135.292 44.4839 138.52 48.3578 140.734 46.6975C142.948 45.0373 137.321 41.4402 137.321 41.4402Z" fill="#A0616A"/>
<path d="M133.402 37.1506L136.722 40.1943L134.601 41.3934L131.557 37.704L133.402 37.1506Z" fill="#CFCCE0"/>
<path d="M133.586 22.8556C133.586 22.8556 134.877 21.7488 135.431 25.346C135.984 28.9431 134.508 30.2344 134.508 30.2344L133.586 22.8556Z" fill="#CFCCE0"/>
<path d="M125.93 18.888C128.63 18.888 130.819 16.6994 130.819 13.9996C130.819 11.2998 128.63 9.11116 125.93 9.11116C123.231 9.11116 121.042 11.2998 121.042 13.9996C121.042 16.6994 123.231 18.888 125.93 18.888Z" fill="#A0616A"/>
<path d="M122.979 16.7668C122.979 16.7668 122.333 19.9028 119.751 20.2717C117.168 20.6406 113.11 21.9319 113.663 24.4223C114.216 26.9126 129.712 26.6359 129.712 26.6359L132.479 22.3931C132.479 22.3931 126.76 20.9173 127.314 17.5969L122.979 16.7668Z" fill="#A0616A"/>
<path d="M130.589 21.7011C130.589 21.7011 126.945 24.422 118.368 24.2376C118.368 24.2376 113.52 25.0187 114.238 22.5067C114.238 22.5067 113.664 21.655 113.11 24.3298C112.557 27.0046 108.406 36.1358 108.775 36.5048L110.159 37.8883L113.202 43.7913L116.431 41.9466L115.324 39.5485C115.324 39.5485 117.445 41.301 118.46 38.7184C118.46 38.7184 119.29 41.2087 121.042 41.301C122.795 41.3932 134.14 38.165 134.14 38.165C134.14 38.165 133.494 35.5824 134.14 34.4756C134.785 33.3688 135.8 31.1552 135.339 29.4949L134.509 22.854C134.509 22.854 131.05 21.4244 130.589 21.7011Z" fill="#CFCCE0"/>
<path d="M140.505 46.8387V46.8477L140.406 48.476C138.677 50.5293 136.574 52.2364 134.209 53.507C133.956 53.6442 133.696 53.7784 133.434 53.9036C128.844 56.126 123.61 56.6306 118.681 55.3261L119.012 53.9394C118.946 52.8677 118.948 51.793 119.018 50.7216C119.093 49.2887 119.368 47.8734 119.835 46.5166C120.571 44.4947 121.505 43.7939 121.505 43.7939L121.198 41.3037L121.18 41.1635L132.059 38.3125L133.678 37.8891C133.678 37.8891 133.717 38.0322 133.807 38.2619C134.063 38.9627 134.432 39.6166 134.901 40.1973C135.1 40.4383 135.325 40.6563 135.572 40.8474C135.702 40.9485 135.84 41.0392 135.984 41.1188C137.645 42.0403 140.505 46.8387 140.505 46.8387Z" fill="#2F2E41"/>
<path d="M132.354 8.95426L127.674 6.50276L121.211 7.5057L119.874 13.4115L123.202 13.2833L124.132 11.1137V13.2477L125.668 13.1885L126.559 9.73423L127.116 13.4115L132.577 13.2999L132.354 8.95426Z" fill="#2F2E41"/>
</g>
<defs>
<clipPath id="clip0_12448:209283">
<rect width="160.635" height="100" fill="white"/>
</clipPath>
</defs>
</svg>
