<svg xmlns="http://www.w3.org/2000/svg" width="1920" height="140" fill="none" viewBox="0 0 1920 140"><g clip-path="url(#a)"><path fill="#000001" d="M0 0h1920v140H0z"/><g filter="url(#b)"><ellipse cx="923.959" cy="430.13" fill="#031dba" rx="778.345" ry="360.13"/></g><g filter="url(#c)"><path fill="#fff" d="m317.378 111.848.556 1.827 1.827.556-1.827.556-.556 1.827-.556-1.827-1.827-.556 1.827-.556z"/></g><g filter="url(#d)"><path fill="#fff" d="m331.271 23.613.269.883.882.268-.882.269-.269.882-.268-.882-.882-.269.882-.268z"/></g></g><defs><filter id="b" width="1766.63" height="930.202" x="40.643" y="-34.971" color-interpolation-filters="sRGB" filterUnits="userSpaceOnUse"><feFlood flood-opacity="0" result="BackgroundImageFix"/><feBlend in="SourceGraphic" in2="BackgroundImageFix" result="shape"/><feGaussianBlur result="effect1_foregroundBlur_23166_223627" stdDeviation="52.486"/></filter><filter id="c" width="13.015" height="13.014" x="310.87" y="107.723" color-interpolation-filters="sRGB" filterUnits="userSpaceOnUse"><feFlood flood-opacity="0" result="BackgroundImageFix"/><feColorMatrix in="SourceAlpha" result="hardAlpha" values="0 0 0 0 0 0 0 0 0 0 0 0 0 0 0 0 0 0 127 0"/><feOffset/><feGaussianBlur stdDeviation="2.062"/><feComposite in2="hardAlpha" operator="out"/><feColorMatrix values="0 0 0 0 1 0 0 0 0 1 0 0 0 0 1 0 0 0 1 0"/><feBlend in2="BackgroundImageFix" result="effect1_dropShadow_23166_223627"/><feBlend in="SourceGraphic" in2="effect1_dropShadow_23166_223627" result="shape"/></filter><filter id="d" width="10.551" height="10.55" x="325.996" y="19.489" color-interpolation-filters="sRGB" filterUnits="userSpaceOnUse"><feFlood flood-opacity="0" result="BackgroundImageFix"/><feColorMatrix in="SourceAlpha" result="hardAlpha" values="0 0 0 0 0 0 0 0 0 0 0 0 0 0 0 0 0 0 127 0"/><feOffset/><feGaussianBlur stdDeviation="2.062"/><feComposite in2="hardAlpha" operator="out"/><feColorMatrix values="0 0 0 0 1 0 0 0 0 1 0 0 0 0 1 0 0 0 1 0"/><feBlend in2="BackgroundImageFix" result="effect1_dropShadow_23166_223627"/><feBlend in="SourceGraphic" in2="effect1_dropShadow_23166_223627" result="shape"/></filter><clipPath id="a"><path fill="#fff" d="M0 0h1920v140H0z"/></clipPath></defs></svg>