<svg xmlns="http://www.w3.org/2000/svg" width="403" height="186" fill="none"><path fill="url(#a)" d="M10.42 137.79s172.7-99.23 382.16.55l-382.16-.55Z"/><path stroke="#C1C3CA" stroke-miterlimit="10" stroke-width="5" d="M269.8 96.39v9.18"/><path fill="#E5E7EA" d="M274.26 91.75c-3.15-10.6-4.4-11.7-4.4-11.7s-.98 1.15-4.4 11.7c-2.96 9.15 2.3 9.21 3.72 9.1 0 0 8.14 1.18 5.08-9.1Z"/><path stroke="#C1C3CA" stroke-miterlimit="10" stroke-width="5" d="M253.06 89.85v10.6"/><path fill="#E5E7EA" d="M258.22 84.5c-3.62-12.24-5.08-13.49-5.08-13.49s-1.12 1.37-5.07 13.5c-3.45 10.57 2.64 10.63 4.27 10.48 0 0 9.39 1.37 5.88-10.49Z"/><path stroke="#C1C3CA" stroke-miterlimit="10" stroke-width="5" d="M146.8 89.26v10.6"/><path fill="#E5E7EA" d="M151.93 83.9c-3.62-12.23-5.07-13.48-5.07-13.48s-1.13 1.37-5.05 13.49c-3.45 10.58 2.64 10.64 4.27 10.49-.03 0 9.36 1.36 5.85-10.5Z"/><path stroke="#C1C3CA" stroke-miterlimit="10" stroke-width="5" d="M128.56 96.92v9.18"/><path fill="#E5E7EA" d="M133.02 92.29c-3.15-10.61-4.4-11.71-4.4-11.71s-.98 1.16-4.4 11.7c-2.96 9.19 2.3 9.22 3.72 9.1 0 0 8.14 1.19 5.08-9.1Z"/><path fill="#E3E5EA" d="M171.27 0c-3.69 0-6.69 3.15-6.69 7.01V94.4c0 3.86 3 7 6.69 7h62.93c3.68 0 6.68-3.14 6.68-7V26.6L215.55 0h-44.28Z"/><path fill="#EFF1F5" d="m221.28 25.2 19.6.14L215.55 0l-.5 17.98c0 3.68 2.46 7.22 6.23 7.22Z"/><path fill="#FCFCFD" d="M175.87 14.95h34.18c1.72 0 1.72-2.68 0-2.68h-34.18c-1.72 0-1.72 2.68 0 2.68ZM175.87 22.31h13.19c1.72 0 1.72-2.67 0-2.67h-13.19c-1.72 0-1.72 2.67 0 2.67ZM175.87 40.85h55.18c1.72 0 1.72-2.67 0-2.67h-55.18c-1.72 0-1.72 2.67 0 2.67ZM175.87 49.14h55.18c1.72 0 1.72-2.67 0-2.67h-55.18c-1.72 0-1.72 2.67 0 2.67ZM175.87 57.82h55.18c1.72 0 1.72-2.67 0-2.67h-55.18c-1.72 0-1.72 2.67 0 2.67ZM175.87 66.97h55.18c1.72 0 1.72-2.67 0-2.67h-55.18c-1.72 0-1.72 2.67 0 2.67ZM175.87 76.12h24.8c1.72 0 1.72-2.67 0-2.67h-24.8c-1.72 0-1.72 2.67 0 2.67Z"/><path fill="#E5E7EA" d="M178.19 84.41h18.91c1.73 0 1.73-2.67 0-2.67H178.2c-1.72 0-1.72 2.67 0 2.67Z"/><path fill="#C1C3CA" d="m170.26 81.26.06-7.87a6.13 6.13 0 0 1 5.9-6.12h.33s3.15.2 4.7 2.88c.47.83.68 1.78.68 2.73v9.48h4.9v-9.15c0-2.94-1.1-5.8-3.18-7.87a10.39 10.39 0 0 0-6.68-3.06 9.6 9.6 0 0 0-8.55 3.6 11.5 11.5 0 0 0-2.56 7.33v8.08l4.4-.03Z"/><path fill="#C1C3CA" d="M190.19 105.06h-27.62a3.26 3.26 0 0 1-3.27-3.27V83.89a3.26 3.26 0 0 1 3.27-3.27h27.62a3.26 3.26 0 0 1 3.26 3.27v17.92a3.26 3.26 0 0 1-3.26 3.26Z"/><path fill="#FCFCFD" d="M178.99 90.92a2.66 2.66 0 0 0-2.67-2.67 2.66 2.66 0 0 0-1.01 5.14v2.46c0 .54.44.98.98.98.53 0 .98-.44.98-.98V93.4a2.61 2.61 0 0 0 1.72-2.47Z"/><defs><linearGradient id="a" x1="200.44" x2="200.75" y1="85.45" y2="149.17" gradientUnits="userSpaceOnUse"><stop offset=".24" stop-color="#EFF1F5"/><stop offset=".37" stop-color="#F1F3F6" stop-opacity=".83"/><stop offset=".9" stop-color="#F6F7F8" stop-opacity="0"/></linearGradient></defs></svg>