<svg xmlns="http://www.w3.org/2000/svg" width="80" height="80" fill="none"><g clip-path="url(#a)"><path fill="#fff" d="M0 0h80v80H0z"/><circle cx="-1.012" cy="6.396" r=".773" fill="#ff3b65" transform="rotate(45 -1.012 6.396)"/><circle cx="46.359" cy="45.535" r="20.416" fill="#fff" stroke="#6b84ff" stroke-width="4" transform="rotate(-21.815 46.359 45.535)"/><path fill="#6b84ff" d="M25.647 30.455c.208-.512-.038-1.1-.568-1.256a9.973 9.973 0 0 0-7.459 18.39c.489.258 1.075.007 1.282-.505zM50.945 20.329c-.503-.227-.731-.823-.455-1.3a9.974 9.974 0 0 1 18.088 8.164c-.176.523-.773.746-1.276.519z"/><path fill="#d92d20" d="M41.844 35.863a1.281 1.281 0 0 1 2.457-.702l3.914 10.673a2.115 2.115 0 1 1-4.057 1.159z"/><path fill="#d92d20" d="M38.004 40.881a1.072 1.072 0 0 1 1.455-1.566l7.421 5.947a1.77 1.77 0 1 1-2.402 2.585z"/><path fill="#6b84ff" d="M72.497 16.666a.87.87 0 0 1 .118.7.97.97 0 0 1-.45.583.97.97 0 0 1-.73.111.87.87 0 0 1-.553-.442 8 8 0 0 0-.463-.773c-3.17-4.645-9.795-7.23-15.45-4.807-.312.122-.613.25-.924.396.296-.173.584-.33.887-.482 5.417-2.97 12.798-1.132 16.91 3.824.228.277.454.58.654.89"/><path fill="#6b84ff" d="M76.283 13.258c.135.209.178.46.116.7a.96.96 0 0 1-.448.583.96.96 0 0 1-.727.11.88.88 0 0 1-.556-.441 9 9 0 0 0-.538-.883c-3.653-5.283-11.207-8.161-17.596-5.38-.354.14-.694.288-1.045.454.336-.194.664-.37 1.007-.54 6.151-3.328 14.462-1.197 19.059 4.397.253.312.505.653.727 1M7.585 39.723c.01.244.118.47.305.626a.95.95 0 0 0 .693.208.95.95 0 0 0 .645-.328.85.85 0 0 0 .19-.67 8 8 0 0 1-.073-.88c-.126-5.517 3.682-11.365 9.577-12.663.32-.081.633-.15.964-.212-.335.031-.655.07-.982.122-6.019.726-10.857 6.41-11.306 12.713-.023.351-.03.722-.013 1.084"/><path fill="#6b84ff" d="M2.432 36.789c-.02.243.06.48.225.66s.403.286.656.296c.254.01.5-.076.679-.241a.87.87 0 0 0 .278-.64c0-.35.024-.727.064-1.091.79-6.734 6.401-13.139 13.704-13.709.398-.044.786-.075 1.194-.093a19 19 0 0 0-1.2.002C10.68 21.96 4.068 28.068 2.606 35.507c-.08.413-.142.852-.175 1.282"/><ellipse cx="45.265" cy="74.674" fill="#6b84ff" rx="25.199" ry="2.759"/></g><defs><clipPath id="a"><path fill="#fff" d="M0 0h80v80H0z"/></clipPath></defs></svg>