<svg width="157" height="77" viewBox="0 0 157 77" fill="none" xmlns="http://www.w3.org/2000/svg"><path d="M62.142 34.488a7.3 7.3 0 0 1 7.298 7.3v20.034a7.3 7.3 0 0 1-7.298 7.3H38.747a.635.635 0 0 0-.588.395l-2.849 6.967a.635.635 0 0 1-1.175 0l-2.85-6.967a.635.635 0 0 0-.587-.395h-23.4A7.3 7.3 0 0 1 0 61.822V41.788a7.3 7.3 0 0 1 7.299-7.3h54.843Z" fill="#83A7F7"/><path d="M5.327 53.057c2.067-.736 7.973-1.766 15.06 0 8.856 2.207 18.895 1.189 22.144 0 3.247-1.189 14.763-1.528 19.192 0m-56.396 4.73c2.067-.735 7.973-1.766 15.06 0 8.856 2.208 18.895 1.19 22.144 0 3.247-1.188 14.763-1.528 19.192 0M5.327 48.696c2.067-.736 7.973-1.766 15.06 0 8.856 2.208 18.895 1.189 22.144 0 3.247-1.189 14.763-1.528 19.192 0m-56.92-4.73c2.068-.737 7.974-1.767 15.06 0 8.857 2.207 18.896 1.188 22.144 0 3.248-1.19 14.763-1.529 19.193 0" stroke="#CCDAFF" stroke-width="1.764" stroke-linecap="round"/><path d="M148.759 0a7.3 7.3 0 0 1 7.3 7.299v41.276a7.3 7.3 0 0 1-7.3 7.3h-97.22a7.3 7.3 0 0 1-7.3-7.3V7.3A7.299 7.299 0 0 1 51.54 0h97.22Z" fill="#0049F8"/><path d="M111.314 14.801a4.272 4.272 0 0 1-.739 8.364l6.222 1.75a1.641 1.641 0 0 1 1.135 2.023l-1.08 3.842a4.272 4.272 0 1 1 1.153 7.705 4.259 4.259 0 0 1-2.686-2.257l-1.623 5.77a1.64 1.64 0 0 1-2.023 1.135l-3.405-.958a4.272 4.272 0 1 0-8.226-2.314l-3.428-.964a1.64 1.64 0 0 1-1.135-2.024l1.558-5.539a4.258 4.258 0 0 1-3.438.504 4.273 4.273 0 0 1 2.314-8.226 4.26 4.26 0 0 1 2.67 2.222l1.132-4.02a1.641 1.641 0 0 1 2.023-1.135l5.848 1.645a4.273 4.273 0 0 1-1.543-4.567 4.275 4.275 0 0 1 5.271-2.956ZM73.106 22.647c-.472-.265-.553-.71-.243-1.336.327-.652.976-1.304 1.946-1.955.971-.651 2.221-1.017 3.751-1.099 2.084-.11 3.643.279 4.678 1.167 1.044.888 1.609 2.15 1.696 3.785.066 1.24-.593 2.62-1.976 4.14-1.375 1.51-2.037 2.73-1.988 3.663l.011.21c.03.572-.24.873-.811.904l-1.979.105c-.571.03-.872-.24-.902-.812l-.022-.396c-.076-1.442.53-2.911 1.816-4.408 1.296-1.497 1.926-2.589 1.89-3.274-.038-.713-.234-1.253-.589-1.623-.346-.378-.946-.544-1.799-.5-.756.041-1.358.245-1.806.613a4.34 4.34 0 0 0-1.08 1.314c-.265.498-.652.603-1.161.312l-1.432-.81Zm5.362 15.031c-.616.033-.941-.28-.976-.94l-.094-1.767c-.035-.66.255-1.006.87-1.038l2.005-.107c.616-.032.941.28.976.94l.094 1.768c.035.66-.255 1.005-.87 1.038l-2.005.106Z" fill="#fff"/></svg>