<svg xmlns="http://www.w3.org/2000/svg" width="80" height="80" fill="none"><g clip-path="url(#a)"><path fill="#fff" d="M0 0h80v80H0z"/><circle cx="-1.012" cy="6.396" r=".773" fill="#ff3b65" transform="rotate(45 -1.012 6.396)"/><ellipse cx="40.001" cy="71.437" fill="#6b84ff" rx="32.54" ry="3.562"/><mask id="b" width="68" height="70" x="6.54" y="3" fill="#000" maskUnits="userSpaceOnUse"><path fill="#fff" d="M6.54 3h68v70h-68z"/><circle cx="32.54" cy="32.54" r="32.54" transform="matrix(-1 0 0 1 72.54 5)"/></mask><circle cx="32.54" cy="32.54" r="32.54" fill="#fff" transform="matrix(-1 0 0 1 72.54 5)"/><path fill="#6b84ff" d="M6.71 37.54h1.5a32.6 32.6 0 0 0 1.977 9.688C14.669 59.662 27.133 68.246 40 68.079c16.256.393 30.972-14.202 30.678-30.54C71.174 21.218 56.569 6.246 40 6.445 26.88 6.098 14.09 15.09 9.912 27.762a31.8 31.8 0 0 0-1.701 9.778zA33.3 33.3 0 0 1 8.179 27.2C12.17 13.667 25.64 3.495 40 3.555c18.097-.644 34.748 15.641 34.4 33.984.549 18.327-15.991 34.99-34.4 34.54-14.613.239-28.409-10.341-32.097-24.111a32.5 32.5 0 0 1-1.193-10.43m1.5 0h-1.5z" mask="url(#b)"/><path fill="#05ac6d" d="M35.593 54.628a3.6 3.6 0 0 1-2.87-1.428L23.49 41a3.59 3.59 0 0 1 .697-5.04 3.59 3.59 0 0 1 5.047.697l6.075 8.02 15.273-24.526A3.607 3.607 0 0 1 55.546 19a3.6 3.6 0 0 1 1.153 4.961L38.652 52.928a3.59 3.59 0 0 1-2.894 1.695z"/><circle cx="68.766" cy="65.713" r="1.472" fill="#6b84ff"/><circle cx="74.126" cy="59.553" r="2.981" fill="#6b84ff"/></g><defs><clipPath id="a"><path fill="#fff" d="M0 0h80v80H0z"/></clipPath></defs></svg>