<svg xmlns="http://www.w3.org/2000/svg" width="165" height="141" fill="none"><ellipse cx="85.683" cy="131.478" fill="#6b84ff" rx="66.164" ry="6.42"/><path fill="#6b84ff" d="M130.32 92.157c25.912 3.35 25.153-21.89 21.142-31.068l-45.05 10.763c5.896 14.817 16.191 46.372 20.573 44.39 6.479-2.931 6.003-10.212 5.509-12.171z"/><path fill="#6b84ff" fill-rule="evenodd" d="M162.721 80.578c.416-.06.836.038 1.154.276.319.238.511.596.546.993.046.49.068.998.066 1.483.432 9.073-8.074 16.43-16.265 15.764a29 29 0 0 1-1.351-.02q.69-.05 1.341-.13c8.311-.416 14.627-7.897 13.428-15.476-.045-.4-.107-.81-.188-1.19-.079-.39.002-.788.24-1.107a1.56 1.56 0 0 1 1.029-.593M43.371 45.204q-.683.094-1.324.216c-8.194.968-14.213 8.614-12.652 16.106.063.397.146.8.245 1.174.098.386.036.788-.186 1.118-.221.33-.585.562-.997.643a1.56 1.56 0 0 1-1.167-.219c-.33-.222-.54-.57-.594-.964-.07-.487-.116-.99-.138-1.474-.854-9.06 7.33-16.632 15.47-16.532q.654-.048 1.343-.068" clip-rule="evenodd"/><mask id="a" width="165.907" height="145.758" x="-2.186" y="-1.716" fill="#000" maskUnits="userSpaceOnUse"><path fill="#fff" d="M-2.186-1.716h165.907v145.758H-2.186z"/><path d="M65.53 17.26c9.252-2.378 18.68 3.196 21.06 12.447 1.353 5.268.127 10.587-2.887 14.632-.66.887.302 2.663 1.373 2.388l20.205-5.193a6.644 6.644 0 0 1 8.086 4.78l3.365 13.093c.229.892 1.492 1.053 2.031.307a17.2 17.2 0 0 1 9.708-6.623c9.254-2.378 18.681 3.194 21.06 12.448 2.376 9.252-3.196 18.682-12.448 21.06a17.18 17.18 0 0 1-11.703-1.137c-.831-.396-1.861.355-1.632 1.246l5.383 20.944a6.643 6.643 0 0 1-4.779 8.086l-12.713 3.472c-.539.147-1.091-.177-1.261-.708-2.781-8.677-12.03-13.941-20.954-11.647-8.923 2.294-14.446 11.371-12.696 20.313.107.548-.22 1.098-.764 1.229l-12.951 3.106a6.643 6.643 0 0 1-8.087-4.78l-5.15-20.04c-.228-.887-1.481-1.052-2.021-.312a17.2 17.2 0 0 1-9.64 6.54c-9.253 2.378-18.681-3.195-21.06-12.448-2.377-9.252 3.196-18.68 12.448-21.06a17.2 17.2 0 0 1 11.6 1.083c.83.388 1.848-.36 1.62-1.248l-3.561-13.854a6.644 6.644 0 0 1 4.78-8.086l18.676-4.8c1.07-.275 1.057-2.296.05-2.754-4.591-2.09-8.232-6.157-9.586-11.425-2.376-9.252 3.196-18.681 12.448-21.06"/></mask><path fill="#fff" d="M65.53 17.26c9.252-2.378 18.68 3.196 21.06 12.447 1.353 5.268.127 10.587-2.887 14.632-.66.887.302 2.663 1.373 2.388l20.205-5.193a6.644 6.644 0 0 1 8.086 4.78l3.365 13.093c.229.892 1.492 1.053 2.031.307a17.2 17.2 0 0 1 9.708-6.623c9.254-2.378 18.681 3.194 21.06 12.448 2.376 9.252-3.196 18.682-12.448 21.06a17.18 17.18 0 0 1-11.703-1.137c-.831-.396-1.861.355-1.632 1.246l5.383 20.944a6.643 6.643 0 0 1-4.779 8.086l-12.713 3.472c-.539.147-1.091-.177-1.261-.708-2.781-8.677-12.03-13.941-20.954-11.647-8.923 2.294-14.446 11.371-12.696 20.313.107.548-.22 1.098-.764 1.229l-12.951 3.106a6.643 6.643 0 0 1-8.087-4.78l-5.15-20.04c-.228-.887-1.481-1.052-2.021-.312a17.2 17.2 0 0 1-9.64 6.54c-9.253 2.378-18.681-3.195-21.06-12.448-2.377-9.252 3.196-18.68 12.448-21.06a17.2 17.2 0 0 1 11.6 1.083c.83.388 1.848-.36 1.62-1.248l-3.561-13.854a6.644 6.644 0 0 1 4.78-8.086l18.676-4.8c1.07-.275 1.057-2.296.05-2.754-4.591-2.09-8.232-6.157-9.586-11.425-2.376-9.252 3.196-18.681 12.448-21.06"/><path fill="#6b84ff" d="m65.343 16.533.373 1.453c7.718-1.963 16.237 2.57 18.964 9.794q.434 1.092.708 2.236c1.144 4.65.033 9.72-2.86 13.448-.837 1.217-.52 2.361-.112 3.181a3.2 3.2 0 0 0 1.025 1.167c.471.338 1.28.575 2.01.376a6049 6049 0 0 0 20.262-4.97c2.521-.68 5.338 1.048 5.885 3.55q1.633 6.56 3.281 13.116c.768 2.635 4.035 2.904 5.446.957a15.35 15.35 0 0 1 8.638-5.839c5.146-1.356 10.9.247 14.631 4.021a15.24 15.24 0 0 1 4 7.014c2.222 7.84-3.062 16.795-11.006 18.636a15.25 15.25 0 0 1-10.358-.998c-2.211-1.05-5.001.786-4.396 3.525q2.701 10.47 5.407 20.938c.687 2.399-.933 5.157-3.372 5.724l-.028.008-12.707 3.492c.502-.133.952.172 1.065.556-2.891-9.472-13.675-15.51-23.238-12.864-9.652 2.334-16.059 12.858-13.992 22.458-.072-.334.142-.748.578-.854l-12.942 3.143-.028.007c-2.5.722-5.387-.96-5.987-3.512q-2.608-10.012-5.22-20.023c-.688-2.378-3.67-2.623-4.938-.868a15.6 15.6 0 0 1-8.714 5.963c-8.037 2.316-17.29-3.071-19.228-11.273-2.336-8.093 3.086-17.418 11.351-19.378 3.534-.942 7.382-.6 10.712.945 1.716.81 3.9-.67 3.414-2.744q-1.815-6.917-3.634-13.835c-.808-2.776 1.051-5.99 3.895-6.669q9.325-2.451 18.65-4.907c1.288-.375 1.587-1.591 1.576-2.36-.027-.803-.283-1.795-1.362-2.333-4.437-1.958-7.898-5.998-9.112-10.726a16.5 16.5 0 0 1-.442-2.347c-1.028-7.8 4.446-15.869 12.179-17.755zC56.886 18.473 50.7 27.24 51.726 35.935q.134 1.322.458 2.615c1.282 5.274 5.101 9.865 10.062 12.124-.03-.048.16.194.145.49a.75.75 0 0 1-.068.331c-.04.061-.007.003.036-.005q-9.353 2.345-18.704 4.692c-4.051.918-6.782 5.47-5.664 9.503l3.487 13.873c-.039-.107.049-.261.053-.247-.002-.005.047-.03.12 0-3.841-1.833-8.346-2.282-12.485-1.22-9.693 2.194-16.228 13.097-13.545 22.741 2.214 9.758 13.191 16.326 22.89 13.622 4.198-1.045 8.012-3.617 10.566-7.118a.47.47 0 0 1-.427.206.5.5 0 0 1-.25-.113.68.68 0 0 1-.219-.336l5.082 20.058c.996 4.343 5.876 7.251 10.185 6.046l-.027.007 12.96-3.068c1.5-.338 2.407-1.928 2.106-3.312-1.65-7.798 3.668-16.368 11.4-18.169 7.658-2.109 16.412 2.85 18.67 10.431.418 1.412 2.041 2.414 3.586 1.972l12.719-3.451-.028.007c4.456-1.028 7.427-6.036 6.188-10.448q-2.678-10.474-5.359-20.95c.049.172.036.43-.041.609a.82.82 0 0 1-.275.364c-.177.137-.504.208-.817.06 4.012 1.93 8.731 2.4 13.047 1.275 10.016-2.312 16.685-13.586 13.89-23.482a19.25 19.25 0 0 0-5.048-8.85c-4.696-4.759-11.987-6.757-18.439-5.012-4.313 1.102-8.211 3.785-10.78 7.407.193-.263.492-.348.694-.314.111.016.242.06.385.176.143.112.27.32.306.482a5912 5912 0 0 0-3.45-13.072c-1.048-4.393-5.998-7.256-10.287-6.009A6079 6079 0 0 0 84.7 45.266c.183-.052.398.034.407.056.025.025-.036-.02-.074-.089a.6.6 0 0 1-.07-.18c-.005-.031.002.05-.085.161 3.305-4.498 4.404-10.502 2.913-15.815a19 19 0 0 0-.897-2.546c-3.426-8.218-13.24-12.813-21.55-10.32m.373 1.453-.373-1.453z" mask="url(#a)"/><path fill="#6b84ff" fill-rule="evenodd" d="M50.888 93.981c.09.187.174.37.254.561 1.44 3.434 1.262 7.516-.267 11.143-.088.199-.19.411-.298.612a.88.88 0 0 1-.59.463 1.06 1.06 0 0 1-.79-.152 1.06 1.06 0 0 1-.475-.647.88.88 0 0 1 .164-.732 7 7 0 0 0 .314-.443c1.815-2.874 2.703-6.64 1.846-10.213-.048-.2-.1-.393-.158-.592M120.69 77.01q.079.298.173.59c1.135 3.498 3.86 6.2 6.815 7.629.158.071.324.141.473.194.372.147.652.431.764.813.113.381.047.83-.167 1.223-.214.392-.556.69-.937.8a1.25 1.25 0 0 1-1.098-.202 9 9 0 0 1-.574-.429c-3.13-2.624-5.155-6.259-5.423-10-.015-.208-.023-.41-.026-.618" clip-rule="evenodd"/><path fill="#6b84ff" d="M119.304 26.03a2.683 2.683 0 1 1 0 5.367 2.683 2.683 0 0 1 0-5.367m7.082-14.164a4.398 4.398 0 1 1 0 8.797 4.398 4.398 0 0 1 0-8.797"/></svg>