<svg width="22" height="22" viewBox="0 0 22 22" fill="none" xmlns="http://www.w3.org/2000/svg">
<path d="M18.5852 10.2395L16.0254 12.8363C15.8771 12.9847 15.6916 13.0589 15.4875 13.0589C15.2835 13.0589 15.098 12.9847 14.9496 12.8363L12.3899 10.2395C12.1117 9.94272 12.1117 9.479 12.3899 9.18222C12.6867 8.90399 13.1504 8.90399 13.4472 9.18222L14.8754 10.629C14.6899 7.93945 12.4826 5.80634 9.79306 5.80634C6.97365 5.80634 4.69215 8.14349 4.69215 11C4.69215 13.8565 6.97365 16.1937 9.79306 16.1937C10.8318 16.1937 11.8334 15.8783 12.6681 15.2848C13.002 15.0436 13.4657 15.1364 13.7068 15.4702C13.948 15.8041 13.8552 16.2678 13.5214 16.509C12.427 17.2695 11.1286 17.6776 9.79306 17.6776C6.15751 17.6776 3.20825 14.6912 3.20825 11C3.20825 7.30879 6.15751 4.32244 9.79306 4.32244C13.206 4.32244 16.0255 6.97492 16.3408 10.3693L17.5093 9.18222C17.8061 8.88544 18.2699 8.88544 18.5666 9.18222C18.8634 9.479 18.8634 9.94272 18.5852 10.2395Z" fill="#5B616F"/>
</svg>
