<svg width="150" height="120" viewBox="0 0 150 120" fill="none" xmlns="http://www.w3.org/2000/svg">
<g clip-path="url(#clip0_12448:209250)">
<path d="M123.923 41.4273H48.4614V105.281H123.923V41.4273Z" fill="#F2F2F2"/>
<path d="M113.39 97.8681H37.6138V33.6777H113.39V97.8681ZM37.9282 97.5312H113.075V34.0146H37.9282V97.5312Z" fill="#41454F"/>
<path d="M90.8129 117.623H3.38623V118.02H90.8129V117.623Z" fill="#3F3D56"/>
<path d="M64.969 84.782L64.9248 51.4231L100.162 68.0491L64.969 84.782Z" fill="#D0CDE1"/>
<path d="M57.8105 52.8753C57.8105 52.8753 61.1303 48.8774 61.8197 50.401C62.509 51.9245 58.4457 54.2407 58.4457 54.2407L57.8105 52.8753Z" fill="#A0616A"/>
<path d="M59.5505 54.5261C59.5505 54.5261 58.0743 55.1074 57.6467 55.8133C57.2191 56.5209 55.7963 57.2588 55.7963 57.2588L55.6721 57.338L54.3295 58.1956L52.5703 59.3176L47.0019 62.8725L39.6523 66.0264C39.5957 64.9263 39.5406 63.8261 39.4888 62.7849C39.473 62.4732 39.4699 62.1632 39.4762 61.8532C39.5689 61.8229 39.6633 61.796 39.7592 61.7741C41.9334 61.277 42.8578 60.5543 42.8578 60.5543L47.1088 57.8064C47.1088 57.8064 50.4464 55.5269 52.5641 54.457C52.8612 54.3054 53.1347 54.179 53.3705 54.0864C55.2885 53.3316 58.3887 52.1118 58.3887 52.1118L58.4249 52.1876L59.1921 53.7798L59.5505 54.5261Z" fill="#D0CDE1"/>
<path opacity="0.1" d="M59.5505 54.5261C59.5505 54.5261 58.0743 55.1074 57.6467 55.8133C57.2191 56.5209 55.7963 57.2588 55.7963 57.2588L55.6721 57.338L54.3295 58.1956L52.5703 59.3176L47.0019 62.8725L39.6523 66.0264C39.5957 64.9263 39.5406 63.8261 39.4888 62.7849C39.473 62.4732 39.4699 62.1632 39.4762 61.8532C39.5689 61.8229 39.6633 61.796 39.7592 61.7741C41.9334 61.277 42.8578 60.5543 42.8578 60.5543L47.1088 57.8064C47.1088 57.8064 50.4464 55.5269 52.5641 54.457C52.8612 54.3054 53.1347 54.179 53.3705 54.0864C55.2885 53.3316 58.3887 52.1118 58.3887 52.1118L58.4249 52.1876L59.1921 53.7798L59.5505 54.5261Z" fill="black"/>
<path d="M58.3873 84.7493L58.3433 51.3904L93.5807 68.0163L58.3873 84.7493Z" fill="#3E64DE"/>
<path opacity="0.2" d="M91.3295 66.9592L58.3848 82.623L58.3876 84.7546L93.5811 68.0215L91.3295 66.9592Z" fill="black"/>
<path d="M48.5405 112.272V115.81H51.0559L50.7415 112.103L48.5405 112.272Z" fill="#A0616A"/>
<path d="M38.7934 112.103L38.0073 116.147L41.1515 116.315V112.103H38.7934Z" fill="#A0616A"/>
<path d="M40.0501 80.0948C40.0501 80.0948 39.2641 79.7579 39.1069 82.7905C38.9496 85.8231 38.7924 96.2688 38.7924 96.2688C38.7924 96.2688 37.2203 105.535 37.8492 108.231C38.478 110.926 38.478 112.78 38.478 112.78H41.3078L41.465 111.095L41.6222 106.546C41.6222 106.546 43.1944 102.334 42.7227 98.459L46.4958 86.16L48.3824 99.3014C48.3824 99.3014 47.5963 102.502 47.7535 105.872C47.9107 109.242 47.9107 113.622 47.9107 113.622L51.055 113.285L53.5704 97.4481C53.5704 97.4481 54.9853 81.6111 53.5704 80.7687C52.1554 79.9263 40.0501 80.0948 40.0501 80.0948Z" fill="#2F2E41"/>
<path d="M49.4828 114.632C49.4828 114.632 48.0679 112.61 47.439 114.126C46.8102 115.642 45.3953 117.664 46.4957 118.675C47.5962 119.686 49.0111 120.023 49.4828 119.686C49.9544 119.349 54.828 116.653 54.828 116.653C54.828 116.653 55.7713 113.789 53.8847 113.621C51.9982 113.452 51.3693 112.947 51.3693 112.947L49.4828 114.632Z" fill="#2F2E41"/>
<path d="M38.634 115.132C38.634 115.132 38.634 113.447 38.0051 113.952C37.3763 114.458 36.9047 116.648 36.9047 116.648C36.9047 116.648 33.1316 119.849 36.7474 119.849C40.3633 119.849 42.7214 120.523 42.407 119.007C42.0926 117.49 41.621 114.963 41.621 114.963C41.621 114.963 40.0489 112.773 38.634 115.132Z" fill="#2F2E41"/>
<path d="M48.5402 50.9472C50.7108 50.9472 52.4705 49.0614 52.4705 46.7352C52.4705 44.409 50.7108 42.5233 48.5402 42.5233C46.3695 42.5233 44.6099 44.409 44.6099 46.7352C44.6099 49.0614 46.3695 50.9472 48.5402 50.9472Z" fill="#A0616A"/>
<path d="M45.4744 48.1658C45.4744 48.1658 44.8455 53.0517 43.9022 53.7256C42.959 54.3996 50.1907 54.568 50.1907 54.568C50.1907 54.568 49.7191 50.693 50.1907 49.6821L45.4744 48.1658Z" fill="#A0616A"/>
<path d="M57.8153 81.6093C57.8153 81.6093 60.1735 86.3268 58.6013 86.4953C57.0292 86.6638 56.4004 81.7778 56.4004 81.7778L57.8153 81.6093Z" fill="#A0616A"/>
<path d="M44.9099 49.7882C45.5063 50.0998 46.1837 50.1854 46.8313 50.0311C47.479 49.8768 48.0588 49.4916 48.4758 48.9386C49.0046 48.198 49.3112 47.1195 50.1544 46.8892C50.7049 46.7388 51.3398 47.0226 51.8314 46.7173C52.7487 46.1477 52.1044 44.342 52.9562 43.6655C52.5898 43.66 52.2386 43.5073 51.9724 43.2375C51.7061 42.9677 51.5441 42.6006 51.5185 42.2089C51.4967 42.5242 51.1098 42.6656 50.8275 42.5734C50.5453 42.4811 50.3237 42.2485 50.0601 42.1062C49.5997 41.8576 49.0548 41.9028 48.5414 41.954C47.2296 42.0848 45.8143 42.2633 44.8507 43.2261C43.9452 44.1307 43.6442 45.5774 43.8205 46.8905C43.9969 48.2036 44.3083 48.6346 44.9673 49.7577L44.9099 49.7882Z" fill="#2F2E41"/>
<path d="M54.6704 55.4949L54.6484 55.6634L54.3277 58.199L53.0118 68.5874L52.9411 69.1417C52.9411 69.1417 53.0967 69.5478 53.2917 70.1947C53.6218 71.2848 54.0683 73.0589 54.0856 74.7302C54.0909 75.0583 54.0762 75.3864 54.0416 75.7124C53.8057 77.8605 53.746 80.0086 53.7319 80.9487C53.7271 81.2621 53.7271 81.4407 53.7271 81.4407L39.4209 80.9353C39.5103 80.7195 39.5895 80.4991 39.6583 80.2748C40.1752 78.6465 40.3622 76.9189 40.207 75.207C40.067 73.7816 39.8485 69.8982 39.6504 66.0299C39.5938 64.9297 39.5388 63.8296 39.4869 62.7884C39.4712 62.4767 39.4681 62.1667 39.4743 61.8567C39.5127 60.045 39.9221 58.2645 40.6736 56.6412C41.425 55.0178 42.5001 53.5912 43.8228 52.4623C43.8228 52.4623 44.1121 52.4758 44.568 52.5044C46.0018 52.5937 49.0894 52.8262 50.0594 53.2086C50.104 53.2255 50.1475 53.2451 50.1899 53.2676C50.6584 53.5153 51.6378 54.0056 52.5622 54.4604C53.6548 54.9996 54.6704 55.4949 54.6704 55.4949Z" fill="#D0CDE1"/>
<path d="M52.4702 55.6628H54.6712C54.6712 55.6628 56.5577 58.0215 56.2433 60.3802C55.9289 62.7389 56.2433 63.9182 56.2433 63.9182L57.1866 69.1411C57.1866 69.1411 58.2871 74.5324 58.2871 76.7227V82.451L55.7717 82.7879C55.7717 82.7879 55.7717 81.1031 55.3 80.4292C54.8284 79.7553 54.6712 78.0705 54.6712 78.0705L52.7846 67.2878L52.4702 55.6628Z" fill="#D0CDE1"/>
<path d="M20.3261 52.6372L15.7935 54.5159L17.4858 59.2052L22.0184 57.3265L20.3261 52.6372Z" fill="#3E64DE"/>
<path d="M21.1996 56.9515L16.4284 58.9291L14.647 53.993L19.4182 52.0154L21.1996 56.9515ZM16.5778 58.5834L20.8719 56.8036L19.2687 52.3611L14.9746 54.1409L16.5778 58.5834Z" fill="#41454F"/>
<path d="M137.572 20.5031L135.992 15.5779L131.555 17.2126L133.135 22.1377L137.572 20.5031Z" fill="#3E64DE"/>
<path d="M133.51 21.2843L131.847 16.0999L136.517 14.3792L138.18 19.5636L133.51 21.2843ZM132.163 16.2731L133.66 20.939L137.863 19.3904L136.367 14.7245L132.163 16.2731Z" fill="#41454F"/>
<path d="M13.2819 117.88L13.0827 117.8C13.0389 117.782 8.68195 115.993 6.64095 111.937C4.59987 107.88 5.59929 102.996 5.60962 102.947L5.65666 102.725L5.85578 102.805C5.89956 102.823 10.2564 104.612 12.2975 108.668C14.3386 112.725 13.3392 117.609 13.3289 117.657L13.2819 117.88ZM6.96778 111.748C8.69337 115.178 12.1364 116.936 13.0087 117.337C13.1746 116.335 13.6948 112.283 11.9707 108.857C10.2468 105.431 6.80246 103.67 5.92975 103.268C5.76379 104.27 5.24383 108.322 6.96778 111.748Z" fill="#41454F"/>
<path d="M8.20221 110.509C11.8702 112.874 13.2828 117.572 13.2828 117.572C13.2828 117.572 8.74852 118.435 5.08058 116.07C1.41264 113.705 0 109.008 0 109.008C0 109.008 4.53427 108.145 8.20221 110.509Z" fill="#3E64DE"/>
<path d="M91.322 15.7496H57.7725V16.1536H91.322V15.7496Z" fill="#41454F"/>
<path d="M91.322 18.5751H57.7725V18.9791H91.322V18.5751Z" fill="#41454F"/>
<path d="M91.322 21.4004H57.7725V21.8044H91.322V21.4004Z" fill="#41454F"/>
</g>
<defs>
<clipPath id="clip0_12448:209250">
<rect width="150" height="120" fill="white"/>
</clipPath>
</defs>
</svg>
