<svg width="40" height="54" viewBox="0 0 40 54" fill="none" xmlns="http://www.w3.org/2000/svg">
<mask id="mask0_12448:209586" style="mask-type:alpha" maskUnits="userSpaceOnUse" x="0" y="0" width="40" height="54">
<path fill-rule="evenodd" clip-rule="evenodd" d="M0 0H40V53.0013H0V0Z" fill="white"/>
</mask>
<g mask="url(#mask0_12448:209586)">
<path fill-rule="evenodd" clip-rule="evenodd" d="M5.50624 20.9106C6.5439 18.7056 8.69753 17.1515 11.1779 17.1515C14.6714 17.1515 17.5042 20.1581 17.5042 23.8669V24.9009V35.9175C17.5042 37.2476 18.5822 38.3269 19.9135 38.3269C21.2449 38.3269 22.3241 37.2476 22.3241 35.9175V24.9009V23.8669C22.3241 20.1581 25.1569 17.1515 28.6504 17.1515C31.1014 17.1515 33.151 18.4547 34.2009 20.6181C35.3365 22.8195 35.9764 25.3158 35.9764 27.9637C35.9764 36.8267 28.7911 44.0119 19.927 44.0119C11.0641 44.0119 3.87878 36.8267 3.87878 27.9637C3.87878 25.4332 4.46369 23.0398 5.50624 20.9106ZM15.6078 5.21656H24.62V8.7003C23.137 8.34911 21.5903 8.16312 20.0007 8.16312C18.4907 8.16312 17.0211 8.33076 15.6078 8.64768V5.21656ZM39.9425 29.7017C39.9804 29.1939 40 28.68 40 28.1624C40 20.6932 35.9044 14.1809 29.8376 10.7461V5.21643H36.3229V0H3.87898V5.21643H10.39V10.6189C4.19835 14.0182 0 20.6002 0 28.1624C0 32.1698 1.1796 35.902 3.20842 39.0309H3.2072C12.1386 54.2862 40 52.9732 40 52.9732V28.1624C40 28.68 39.9804 29.1939 39.9425 29.7017Z" fill="#163BD7"/>
</g>
<path fill-rule="evenodd" clip-rule="evenodd" d="M10.6915 33.7519C9.27085 33.7519 8.11816 32.6004 8.11816 31.1797V25.3637C8.11816 23.9431 9.27085 22.7916 10.6915 22.7916C12.1122 22.7916 13.2648 23.9431 13.2648 25.3637V31.1797C13.2648 32.6004 12.1122 33.7519 10.6915 33.7519Z" fill="#163BD7"/>
<path fill-rule="evenodd" clip-rule="evenodd" d="M29.1629 33.7519C27.7435 33.7519 26.5908 32.6004 26.5908 31.1797V25.3637C26.5908 23.9431 27.7435 22.7916 29.1629 22.7916C30.5836 22.7916 31.7363 23.9431 31.7363 25.3637V31.1797C31.7363 32.6004 30.5836 33.7519 29.1629 33.7519Z" fill="#163BD7"/>
</svg>
