<svg xmlns="http://www.w3.org/2000/svg" width="498" height="95" fill="none"><path fill="#2b80f9" d="M55.818 85.901C46.408 50.23 69.222 39.397 81.805 38.44c27.399-3.061 34.362 15.569 34.418 25.266-.174 9.848-.545 30.012-.638 31.883-.094 1.87-1.677 2.893-2.457 3.17-38.736 8.317-54.747-3.14-57.31-12.857"/><path fill="#2b80f9" d="M126.61 71.432c-8.325.568-10.453-6.033-10.437-9.58l-.513 23.943a.12.12 0 0 0 .042.095c.893.725 3.651 1.882 7.952.97 4.285-.91 4.969-3.885 4.773-5.344a.13.13 0 0 1 .07-.131c4.081-2.102 2.546-4.443 1.192-5.414a.13.13 0 0 1-.043-.152c1.603-4.08-1.347-4.627-3.036-4.387M44.502 68.983c8.325.567 10.452-6.033 10.436-9.58l.514 23.943a.12.12 0 0 1-.043.095c-.892.725-3.65 1.882-7.951.969-4.286-.91-4.97-3.884-4.774-5.343a.13.13 0 0 0-.07-.132c-4.08-2.101-2.546-4.442-1.192-5.413a.13.13 0 0 0 .044-.153c-1.604-4.08 1.346-4.626 3.036-4.386"/><path fill="#fff" d="M88.907 59.887a5.208 5.208 0 0 1-10.33-.051l-.439-3.567c-.578-4.69-5.055-8.275-9.326-6.252-7.664 3.63-8.215 10.302-8.215 18.271 0 11.705 6.595 19.898 24.357 19.898 13.451 0 24.966-3.839 24.355-19.898-.36-9.484-2.897-16.718-11.034-19.743-4.134-1.537-8.11 1.904-8.692 6.276z"/><path fill="#000" d="M89.302 76.735c-3.958 8.172-10.19 4.09-11.985-.102-.143-.335.24-.607.552-.42 3.448 2.064 7.487 1.792 10.874.014.335-.176.724.168.56.508"/><ellipse cx="4.058" cy="5.746" fill="#000" rx="4.058" ry="5.746" transform="rotate(14.79 -169.84 320.68)scale(-1 1)"/><ellipse cx="4.239" cy="6.454" fill="#000" rx="4.239" ry="6.454" transform="rotate(9.55 -268.507 632.87)scale(-1 1)"/><ellipse cx="1.148" cy="1.748" fill="#fff" rx="1.148" ry="1.748" transform="rotate(9.55 -292.683 597.21)scale(-1 1)"/><ellipse cx="1.148" cy="1.748" fill="#fff" rx="1.148" ry="1.748" transform="rotate(9.55 -305.08 447.103)scale(-1 1)"/><ellipse cx=".513" cy=".781" fill="#fff" rx=".513" ry=".781" transform="rotate(-170.45 37.437 26.56)scale(1 -1)"/><ellipse cx=".513" cy=".781" fill="#fff" rx=".513" ry=".781" transform="rotate(-170.45 49.947 25.5)scale(1 -1)"/><path fill="#2b80f9" d="M56.94 22.465a.746.746 0 0 1 .54-.855c13.559-3.659 21.29-4.515 34.072-3.869a.742.742 0 0 1 .671.96l-2.31 7.455a.74.74 0 0 1-.614.517l-30.115 3.933a.743.743 0 0 1-.826-.599z"/><path fill="#2b80f9" d="m66.879 32.602-.882-5.288a.984.984 0 0 1 .603-1.076c6.056-2.424 9.902-3.074 16.376-2.86a.985.985 0 0 1 .946.886l.557 5.571a.99.99 0 0 1-.83 1.077l-15.637 2.505a.99.99 0 0 1-1.133-.815"/><path fill="#000" d="M83.83 23.549a.14.14 0 0 0 .098-.039.14.14 0 0 0 .008-.193.14.14 0 0 0-.094-.046c-.313-.03-.61-.055-.923-.08-2.76-.214-5.57-.225-8.332.259-2.765.472-5.409 1.428-7.932 2.568-.286.13-.557.255-.841.388a.14.14 0 0 0-.073.076.14.14 0 0 0 .074.179.14.14 0 0 0 .105.003c.295-.105.575-.203.87-.305 2.608-.904 5.232-1.718 7.923-2.178 2.69-.47 5.435-.586 8.195-.623.312-.003.609-.007.922-.009"/><path fill="#2b80f9" d="M137.098 45.649a.57.57 0 0 0 .315-.061l1.503-.776a.57.57 0 0 1 .83.56l-.157 1.684a.57.57 0 0 0 .061.314l.776 1.504a.57.57 0 0 1-.56.83l-1.684-.158a.57.57 0 0 0-.315.062l-1.503.776a.571.571 0 0 1-.83-.56l.157-1.685a.57.57 0 0 0-.061-.314l-.776-1.503a.57.57 0 0 1 .56-.83zM140.676 30.131a.8.8 0 0 0 .451-.088l2.156-1.113a.818.818 0 0 1 1.19.803l-.225 2.416a.8.8 0 0 0 .088.451l1.113 2.157a.818.818 0 0 1-.803 1.19l-2.416-.225a.8.8 0 0 0-.451.087l-2.156 1.114a.818.818 0 0 1-1.19-.803l.225-2.416a.8.8 0 0 0-.088-.452l-1.113-2.156a.818.818 0 0 1 .803-1.19z"/><path fill="#41a5ee" d="m123.739 47.148-5.475 21.063 12.524 6.316c5.076-16.287-2.585-25.04-7.049-27.38"/><path fill="#41a5ee" d="m146.188 52.979-5.474 21.063-14.015-.581c3.498-16.698 14.45-20.612 19.489-20.482"/><path fill="#fff" d="m122.191 48.624-2.462 1.676-1.48 5.694 11.522 14.048 2.011-7.737c1.059-5.944-5.953-11.597-9.591-13.68"/><path fill="#fff" d="m146.812 55.02 1.335 2.662-1.48 5.694-16.904 6.66 2.011-7.737c1.969-5.708 10.846-7.231 15.038-7.28"/><path fill="#ff8ae0" d="m129.67 60.3-10.672-10.337a.762.762 0 0 0-1.267.355l-5.318 20.462a.76.76 0 0 0 .226.756l10.815 9.785a.762.762 0 0 0 1.248-.373l5.175-19.91a.76.76 0 0 0-.207-.738M134.928 61.668l14.354-3.833a.762.762 0 0 1 .934.928l-5.318 20.46a.76.76 0 0 1-.566.551l-14.211 3.281a.76.76 0 0 1-.908-.933l5.174-19.91a.76.76 0 0 1 .541-.544"/><path fill="#ffd740" d="m146.666 62.44-10.341 2.97a.29.29 0 0 0-.203.207l-1.084 4.171a.293.293 0 0 0 .355.358l10.24-2.583a.29.29 0 0 0 .212-.21l1.185-4.56a.292.292 0 0 0-.364-.353"/><rect width="4.681" height="22.146" x="130.02" y="60.407" fill="#ff70d9" rx=".762" transform="rotate(14.569 130.02 60.407)"/><path fill="#960b71" d="M125.095 79.37c-9.827-8.197-9.711-14.98-9.985-18.936l-2.119 8.155c-.67 2.574-.779 2.465-.088 3.091 3.335 3.028 10.034 9.452 10.794 9.687 1.098.339 1.265-1.64 1.398-1.998" opacity=".2"/><path fill="#000" d="M13.81 45.656a.547.547 0 0 0-.306.959l1.93 1.678 34.724 30.209 1.928 1.678c.293.254.673.38 1.06.346a1.48 1.48 0 0 0 1-.526c.253-.303.379-.691.345-1.077a1.42 1.42 0 0 0-.526-.981l-1.988-1.609-35.78-28.95-1.988-1.609a.55.55 0 0 0-.398-.118"/><path fill="#2b80f9" d="M17.822 43.247a.57.57 0 0 1-.185-.261l-1.829-5.292a.57.57 0 0 0-.986-.167L11.35 41.92a.57.57 0 0 1-.262.185l-5.291 1.829a.57.57 0 0 0-.168.987l4.393 3.47a.57.57 0 0 1 .186.262l1.828 5.291a.57.57 0 0 0 .987.168l3.47-4.393a.57.57 0 0 1 .262-.186l5.292-1.828a.57.57 0 0 0 .167-.987zM50.138 69.406a3.558 3.558 0 1 1 4.359 5.624l-1.701 1.319a3.558 3.558 0 0 1-4.359-5.625z"/><path fill="#03b591" d="M287.848 97.89c2.587.516 8.082 1.066 15.775 1.033 5.511-.023 17.485-1.034 18.43-2.521.55-1.1-1.83-2.433-2.348-2.527-2.121-.385-3.446-.43-5.581-.593-.759-.059-1.52-.046-2.283-.046-.338 0-1.004.137-1.004.137s.59-.35.913-.457c.615-.205 1.179-.49 1.78-.73 2.265-.906 4.643-1.653 6.802-2.83.822-.449 1.665-1.486.776-2.374-.733-.734-1.945-.46-2.876-.274-2.124.424-4.221 1.403-6.183 2.32l-.117.054c-1.095.51-2.922 1.734-2.922 1.734s1.983-1.96 2.1-2.1c.481-.567 1.111-.994 1.598-1.552.381-.435.73-.867 1.142-1.278 1.086-1.087 4.839-4.953 1.46-5.798-1.013-.253-2.204.355-3.104.73-2.542 1.06-4.169 3.463-5.706 5.616-.549.768-1.064 1.671-1.233 2.602-.066.361-.183.73-.183 1.096v-.913c0-.627-.054-1.247-.091-1.872-.153-2.594-.454-5.014-1.278-7.487-.257-.77-.388-2.215-1.507-2.055-1.074.154-1.688 1.446-2.009 2.329-.594 1.633-1.056 7.03.137 11.459a53 53 0 0 0-2.556-3.06c-1.027-1.128-1.975-2.383-3.15-3.378-.846-.715-1.831-1.2-2.694-1.871-.942-.733-2.174-1.648-3.378-.96-1.572.9.222 2.756.867 3.562 1.459 1.823 3.025 3.762 4.748 5.341.941.863 2.117 1.524 3.013 2.42.093.092-.21-.156-.319-.228a13 13 0 0 1-.776-.548c-.76-.59-1.5-1.166-2.283-1.735-1.935-1.407-4.623-2.538-6.985-2.968-.728-.132-1.815-.417-2.511 0-.971.583.449 1.821.867 2.1 1.995 1.33 3.339 2.632 5.532 3.607l3.873 1.735s-2.982-.8-3.196-.863c-2.225-.668-3.817-.872-6.117-.872-.651 0-2.141.684-1.878 1.735.325 1.299 3.244 2.037 4.455 2.28"/><path fill="#4d78ff" d="M189.128.002c.227.007.45.029.659.07q.253.048.498.087c.576.093 1.128.183 1.651.53.271.18.475.38.641.597a3.4 3.4 0 0 1 .329.524c.086.161.165.33.247.506l.058.122.096.197.007.012a3 3 0 0 1 .202-.09q.111-.045.164-.056l.798-.165c.501-.1 1.103-.144 1.608-.044l.242.044.149.024c.454.074.888.144 1.3.417.518.343.722.78.956 1.28l.01.024.157.322c.114.228.225.48.324.744.116-.055.21-.092.252-.1l.544-.113c.341-.069.753-.097 1.096-.03q.134.026.267.047c.309.05.605.098.885.283.353.235.493.533.653.873q.053.115.113.236c.548 1.091.934 2.923-.214 3.787-.326.246-.69.253-1.056.26a3.5 3.5 0 0 0-.525.036c-.601.101-1.381.143-1.998.06a1 1 0 0 1-.21-.05 2.5 2.5 0 0 1-.652-.343q-.082.045-.168.08l-.058.022q-.149.053-.302.083c-.266.053-.54.057-.816.062h-.014a5 5 0 0 0-.754.053c-.882.149-2.026.209-2.931.087-.282-.038-.601-.167-.929-.36-.447.162-.919.171-1.393.18h-.02q-.252.004-.506.017a5 5 0 0 0-.307.027l-.083.01-.081.013c-.335.057-.7.1-1.078.134l-.013.003a8 8 0 0 1-1.223.056c-.49.002-.972-.022-1.409-.081a2.3 2.3 0 0 1-.376-.087q-.04-.005-.08-.007-.187-.01-.372-.012l-.015-.002c-.349-.006-.696-.012-1.025-.13-.241.14-.477.236-.684.264-.666.09-1.509.045-2.159-.065-.182-.031-.369-.035-.554-.039l-.01.001c-.203-.004-.405-.007-.601-.045a1.5 1.5 0 0 1-.223-.062l-.042-.017a1 1 0 0 1-.124-.058 1.9 1.9 0 0 1-.48.253 1 1 0 0 1-.155.036c-.454.06-1.028.03-1.471-.044a2.6 2.6 0 0 0-.385-.026c-.27-.005-.538-.01-.778-.191-.845-.637-.561-1.985-.158-2.789q.044-.089.083-.173c.118-.25.221-.47.481-.643.207-.136.424-.172.652-.209q.098-.014.197-.033c.252-.05.555-.03.806.021l.204.043.196.04c.031.006.101.033.186.074q.111-.294.239-.548l.115-.237.007-.017c.173-.368.323-.69.704-.943.303-.2.624-.253.957-.307l.11-.018.178-.032c.345-.068.751-.045 1.103.018.495-1.226 1.435-2.39 2.237-3.196.448-.45 1.456-.918 1.674-.962l1.014-.209c.428-.086.915-.14 1.383-.126" opacity=".5"/><path fill="#6b89fc" d="M324.028 71.013a3.085 3.085 0 1 1 5.088 2.91l-3.024 2.726-2.895-1.572z"/><path fill="#6b89fc" d="M319.868 70.109a3.085 3.085 0 0 1 3.141-3.85c2.119.106 3.501 2.27 2.707 4.236l-1.524 3.776-3.291-.145z"/><ellipse cx="323.783" cy="75.478" fill="#4d78ff" rx="8.016" ry="1.111" transform="rotate(28.833 323.783 75.478)"/><path fill="#6b89fc" d="M488.508 10.938a3.085 3.085 0 1 0-5.088 2.909l3.024 2.727 2.896-1.572z"/><path fill="#6b89fc" d="M492.668 10.034a3.084 3.084 0 0 0-3.141-3.85c-2.118.106-3.501 2.269-2.707 4.236l1.524 3.776 3.292-.145z"/><ellipse cx="8.016" cy="1.111" fill="#4d78ff" rx="8.016" ry="1.111" transform="rotate(151.167 246.262 68.937)scale(1 -1)"/></svg>