<svg xmlns="http://www.w3.org/2000/svg" width="242" height="57" fill="none"><path fill="#fff" fill-rule="evenodd" d="M95.96 36.505h6.825v1.435h-8.318V22.728h1.493zM117.916 22.728V37.94h-1.493V25.031l-5.225 8.91h-.213l-5.225-8.91v12.91h-1.493V22.727h1.831l4.994 8.515 4.993-8.515zM125.176 38.213q-2.048 0-3.508-.99-1.461-.987-2.037-2.726l1.279-.761q.405 1.413 1.493 2.206t2.794.793q1.664 0 2.591-.75.93-.75.929-1.988 0-1.195-.854-1.804-.853-.608-2.815-1.26-2.325-.783-3.071-1.26-1.707-1.044-1.706-3.021 0-1.934 1.322-3.054 1.322-1.118 3.263-1.119 1.75 0 3.029.924a5.6 5.6 0 0 1 1.898 2.358l-1.259.717q-1.023-2.52-3.668-2.521-1.386 0-2.239.695-.855.696-.854 1.934 0 1.13.769 1.696.767.565 2.537 1.151.811.283 1.163.403.351.12 1.024.39.671.272.991.479.32.205.779.565.458.358.661.717.202.359.362.869t.16 1.097q0 1.935-1.386 3.097-1.387 1.163-3.647 1.163M80.223 37.95V23.049h2.828v1.49h.047c1.273-1.85 3.347-1.897 4.1-1.922v3.17a5.4 5.4 0 0 0-2.19.6c-.967.529-1.768 1.777-1.768 4.13v7.459zM75.82 30.515c0 2.535-2.008 4.597-4.477 4.597-2.468 0-4.475-2.062-4.475-4.597s2.007-4.597 4.475-4.597c2.469 0 4.477 2.062 4.477 4.597m.775-5.272a7.4 7.4 0 0 0-2.353-1.612 7.3 7.3 0 0 0-2.898-.595c-1.004 0-1.978.2-2.896.595a7.47 7.47 0 0 0-4.504 6.881 7.47 7.47 0 0 0 4.504 6.883 7.3 7.3 0 0 0 2.897.594c1.004 0 1.978-.2 2.897-.594a7.4 7.4 0 0 0 2.353-1.612 7.47 7.47 0 0 0 2.15-5.27c0-1.989-.763-3.86-2.15-5.27M60.618 37.93H57.6V25.828h-2.192v-2.81h2.192v-6.382h3.017v6.382h2.639v2.81h-2.64zM42.115 23.045v6.988c0 4.058 1.767 5.138 4.006 5.138 2.499 0 4.218-1.633 4.218-5.234v-6.892h3.017v14.912H50.6v-2.185h-.07c-.826 1.416-2.711 2.185-4.738 2.185-1.838 0-3.44-.6-4.595-1.633-1.343-1.177-2.121-3.026-2.121-6.315v-6.964zM34.387 37.971h-3.018V25.817h-2.191v-2.81h2.191v-6.371h3.017v6.372h2.64v2.809h-2.64zM6.111 31.412c-.717-.047-1.255-.596-1.3-1.326v-3.019c0-.73.583-1.326 1.3-1.326s1.301.596 1.301 1.326v3.018c0 .73-.538 1.325-1.212 1.325-.042.002-.089.002-.089.002M15.444 31.412c-.717 0-1.301-.548-1.301-1.279v-3.066c0-.73.584-1.326 1.301-1.326s1.301.596 1.301 1.326v3.018c-.001.731-.585 1.327-1.3 1.327" clip-rule="evenodd"/><path fill="#fff" fill-rule="evenodd" d="M3.081 24.809c.58-1.235 1.743-2.023 3.098-2.074 1.934.051 3.485 1.725 3.439 3.7v6.664c.096.74.774 1.234 1.5 1.132.58-.098 1.066-.54 1.111-1.132v-6.66c-.05-1.971 1.5-3.648 3.44-3.7 1.308 0 2.47.74 3 1.926 2.178 4.39.485 9.718-3.824 11.94s-9.537.49-11.714-3.901c-1.211-2.467-1.257-5.427-.05-7.895m5.472-8.781h4.89v1.925a10.7 10.7 0 0 0-2.516-.298c-.824 0-1.646.098-2.42.247zm13.314 13.664c0-.298.05-.54.05-.89 0-4.046-2.13-7.746-5.616-9.719v-3.055h2.13c.825 0 1.455-.643 1.455-1.482 0-.84-.63-1.478-1.454-1.478H3.566c-.824.051-1.45.69-1.45 1.529 0 .84.63 1.482 1.454 1.482h2.131v3.01C.42 22.044-1.565 28.806 1.34 34.181c.146.247.242.443.39.69 4.115 7.055 15.153 7.745 18.88 7.793.34 0 .632-.149.92-.346.242-.246.34-.591.34-.937-.002.005-.002-11.69-.002-11.69" clip-rule="evenodd"/><path fill="#fff" d="M201.698 52.382a4.371 4.371 0 1 1-8.742 0 4.371 4.371 0 0 1 8.742 0M172.43 1.202a1.202 1.202 0 1 1-2.404 0 1.202 1.202 0 0 1 2.404 0M175.291 1.202a1.202 1.202 0 1 1-2.404 0 1.202 1.202 0 0 1 2.404 0M178.151 1.202a1.202 1.202 0 1 1-2.403 0 1.202 1.202 0 0 1 2.403 0M181.012 1.202a1.202 1.202 0 1 1-2.404 0 1.202 1.202 0 0 1 2.404 0M183.873 1.202a1.202 1.202 0 1 1-2.404 0 1.202 1.202 0 0 1 2.404 0M172.43 38.39a1.202 1.202 0 1 1-2.404 0 1.202 1.202 0 0 1 2.404 0M175.291 38.39a1.202 1.202 0 1 1-2.404 0 1.202 1.202 0 0 1 2.404 0M178.151 38.39a1.202 1.202 0 1 1-2.403 0 1.202 1.202 0 0 1 2.403 0M181.012 38.39a1.202 1.202 0 1 1-2.404 0 1.202 1.202 0 0 1 2.404 0M183.873 38.39a1.202 1.202 0 1 1-2.404 0 1.202 1.202 0 0 1 2.404 0M175.291 12.644a1.202 1.202 0 1 1-2.404 0 1.202 1.202 0 0 1 2.404 0M178.152 12.644a1.202 1.202 0 1 1-2.404 0 1.202 1.202 0 0 1 2.404 0M181.012 12.644a1.202 1.202 0 1 1-2.404 0 1.202 1.202 0 0 1 2.404 0M183.873 12.644a1.202 1.202 0 1 1-2.404 0 1.202 1.202 0 0 1 2.404 0M175.291 41.25a1.202 1.202 0 1 1-2.404 0 1.202 1.202 0 0 1 2.404 0M178.152 41.25a1.202 1.202 0 1 1-2.404 0 1.202 1.202 0 0 1 2.404 0M181.012 41.25a1.202 1.202 0 1 1-2.404 0 1.202 1.202 0 0 1 2.404 0M183.873 41.25a1.202 1.202 0 1 1-2.404 0 1.202 1.202 0 0 1 2.404 0M160.988 12.644a1.202 1.202 0 1 1-2.404 0 1.202 1.202 0 0 1 2.404 0M163.848 12.644a1.202 1.202 0 1 1-2.403 0 1.202 1.202 0 0 1 2.403 0M166.709 12.644a1.202 1.202 0 1 1-2.404 0 1.202 1.202 0 0 1 2.404 0M169.57 12.644a1.202 1.202 0 1 1-2.404 0 1.202 1.202 0 0 1 2.404 0M158.127 15.505a1.202 1.202 0 1 1-2.404 0 1.202 1.202 0 0 1 2.404 0M160.988 15.505a1.202 1.202 0 1 1-2.404 0 1.202 1.202 0 0 1 2.404 0M163.848 15.505a1.202 1.202 0 1 1-2.404 0 1.202 1.202 0 0 1 2.404 0M166.709 15.505a1.202 1.202 0 1 1-2.404 0 1.202 1.202 0 0 1 2.404 0M155.266 18.366a1.202 1.202 0 1 1-2.403 0 1.202 1.202 0 0 1 2.403 0M158.127 18.366a1.202 1.202 0 1 1-2.404 0 1.202 1.202 0 0 1 2.404 0M160.988 18.366a1.202 1.202 0 1 1-2.404 0 1.202 1.202 0 0 1 2.404 0M163.848 18.366a1.202 1.202 0 1 1-2.403 0 1.202 1.202 0 0 1 2.403 0M152.406 21.226a1.202 1.202 0 1 1-2.404 0 1.202 1.202 0 0 1 2.404 0M155.267 21.226a1.202 1.202 0 1 1-2.405-.001 1.202 1.202 0 0 1 2.405.001M158.127 21.226a1.202 1.202 0 1 1-2.404 0 1.202 1.202 0 0 1 2.404 0M160.988 21.226a1.202 1.202 0 1 1-2.404 0 1.202 1.202 0 0 1 2.404 0M149.545 24.087a1.202 1.202 0 1 1-2.404 0 1.202 1.202 0 0 1 2.404 0M152.406 24.087a1.202 1.202 0 1 1-2.404 0 1.202 1.202 0 0 1 2.404 0M155.266 24.087a1.202 1.202 0 1 1-2.403 0 1.202 1.202 0 0 1 2.403 0M158.127 24.087a1.202 1.202 0 1 1-2.404 0 1.202 1.202 0 0 1 2.404 0M146.685 26.948a1.202 1.202 0 1 1-2.405-.002 1.202 1.202 0 0 1 2.405.002M149.545 26.948a1.202 1.202 0 1 1-2.404 0 1.202 1.202 0 0 1 2.404 0M152.406 26.948a1.202 1.202 0 1 1-2.404 0 1.202 1.202 0 0 1 2.404 0M155.266 26.948a1.202 1.202 0 1 1-2.403 0 1.202 1.202 0 0 1 2.403 0"/><path fill="#002170" d="M158.127 26.948a1.202 1.202 0 1 1-2.404 0 1.202 1.202 0 0 1 2.404 0"/><path fill="#fff" d="M146.685 29.808a1.202 1.202 0 1 1-2.405-.001 1.202 1.202 0 0 1 2.405.001M169.57 29.808a1.202 1.202 0 1 1-2.404 0 1.202 1.202 0 0 1 2.404 0M158.127 29.808a1.202 1.202 0 1 1-2.404 0 1.202 1.202 0 0 1 2.404 0M181.012 29.808a1.202 1.202 0 1 1-2.404 0 1.202 1.202 0 0 1 2.404 0M149.545 29.808a1.202 1.202 0 1 1-2.404 0 1.202 1.202 0 0 1 2.404 0M172.43 29.808a1.202 1.202 0 1 1-2.404 0 1.202 1.202 0 0 1 2.404 0M160.988 29.808a1.202 1.202 0 1 1-2.404 0 1.202 1.202 0 0 1 2.404 0M183.873 29.808a1.202 1.202 0 1 1-2.404 0 1.202 1.202 0 0 1 2.404 0M152.406 29.808a1.202 1.202 0 1 1-2.404 0 1.202 1.202 0 0 1 2.404 0M175.291 29.808a1.202 1.202 0 1 1-2.404 0 1.202 1.202 0 0 1 2.404 0M163.848 29.808a1.202 1.202 0 1 1-2.403 0 1.202 1.202 0 0 1 2.403 0M186.734 29.808a1.202 1.202 0 1 1-2.405-.001 1.202 1.202 0 0 1 2.405.001M155.266 29.808a1.202 1.202 0 1 1-2.403 0 1.202 1.202 0 0 1 2.403 0M178.152 29.808a1.202 1.202 0 1 1-2.404 0 1.202 1.202 0 0 1 2.404 0M166.709 29.808a1.202 1.202 0 1 1-2.404 0 1.202 1.202 0 0 1 2.404 0M189.594 29.808a1.202 1.202 0 1 1-2.404 0 1.202 1.202 0 0 1 2.404 0M192.455 29.808a1.202 1.202 0 1 1-2.404 0 1.202 1.202 0 0 1 2.404 0M146.685 32.669a1.202 1.202 0 1 1-2.405-.001 1.202 1.202 0 0 1 2.405 0M169.57 32.669a1.202 1.202 0 1 1-2.404 0 1.202 1.202 0 0 1 2.404 0M158.127 32.669a1.202 1.202 0 1 1-2.404 0 1.202 1.202 0 0 1 2.404 0M181.012 32.669a1.202 1.202 0 1 1-2.404 0 1.202 1.202 0 0 1 2.404 0M149.545 32.669a1.202 1.202 0 1 1-2.404 0 1.202 1.202 0 0 1 2.404 0M172.43 32.669a1.202 1.202 0 1 1-2.404 0 1.202 1.202 0 0 1 2.404 0M160.988 32.669a1.202 1.202 0 1 1-2.404 0 1.202 1.202 0 0 1 2.404 0M183.873 32.669a1.202 1.202 0 1 1-2.404 0 1.202 1.202 0 0 1 2.404 0M152.406 32.669a1.202 1.202 0 1 1-2.404 0 1.202 1.202 0 0 1 2.404 0M175.291 32.669a1.202 1.202 0 1 1-2.404 0 1.202 1.202 0 0 1 2.404 0M163.848 32.669a1.202 1.202 0 1 1-2.403 0 1.202 1.202 0 0 1 2.403 0M186.734 32.669a1.202 1.202 0 1 1-2.405-.001 1.202 1.202 0 0 1 2.405 0M155.266 32.669a1.202 1.202 0 1 1-2.403 0 1.202 1.202 0 0 1 2.403 0M178.152 32.669a1.202 1.202 0 1 1-2.404 0 1.202 1.202 0 0 1 2.404 0M166.709 32.669a1.202 1.202 0 1 1-2.404 0 1.202 1.202 0 0 1 2.404 0M189.594 32.669a1.202 1.202 0 1 1-2.404 0 1.202 1.202 0 0 1 2.404 0M192.455 32.669a1.202 1.202 0 1 1-2.404 0 1.202 1.202 0 0 1 2.404 0M146.685 35.53a1.202 1.202 0 1 1-2.405-.002 1.202 1.202 0 0 1 2.405.002M169.57 35.53a1.202 1.202 0 1 1-2.404 0 1.202 1.202 0 0 1 2.404 0M158.127 35.53a1.202 1.202 0 1 1-2.404 0 1.202 1.202 0 0 1 2.404 0M181.012 35.53a1.202 1.202 0 1 1-2.404 0 1.202 1.202 0 0 1 2.404 0M149.545 35.53a1.202 1.202 0 1 1-2.404 0 1.202 1.202 0 0 1 2.404 0M172.43 35.53a1.202 1.202 0 1 1-2.404 0 1.202 1.202 0 0 1 2.404 0M160.988 35.53a1.202 1.202 0 1 1-2.404 0 1.202 1.202 0 0 1 2.404 0M183.873 35.53a1.202 1.202 0 1 1-2.404 0 1.202 1.202 0 0 1 2.404 0M152.406 35.53a1.202 1.202 0 1 1-2.404 0 1.202 1.202 0 0 1 2.404 0M175.291 35.53a1.202 1.202 0 1 1-2.404 0 1.202 1.202 0 0 1 2.404 0M163.848 35.53a1.202 1.202 0 1 1-2.403 0 1.202 1.202 0 0 1 2.403 0M186.734 35.53a1.202 1.202 0 1 1-2.405-.002 1.202 1.202 0 0 1 2.405.002M155.266 35.53a1.202 1.202 0 1 1-2.403 0 1.202 1.202 0 0 1 2.403 0M178.152 35.53a1.202 1.202 0 1 1-2.404 0 1.202 1.202 0 0 1 2.404 0M166.709 35.53a1.202 1.202 0 1 1-2.404 0 1.202 1.202 0 0 1 2.404 0M189.594 35.53a1.202 1.202 0 1 1-2.404 0 1.202 1.202 0 0 1 2.404 0M192.455 35.53a1.202 1.202 0 1 1-2.404 0 1.202 1.202 0 0 1 2.404 0M175.291 18.366a1.202 1.202 0 1 1-2.404 0 1.202 1.202 0 0 1 2.404 0M178.152 18.366a1.202 1.202 0 1 1-2.404 0 1.202 1.202 0 0 1 2.404 0M181.012 18.366a1.202 1.202 0 1 1-2.404 0 1.202 1.202 0 0 1 2.404 0M183.873 18.366a1.202 1.202 0 1 1-2.404 0 1.202 1.202 0 0 1 2.404 0M175.291 46.972a1.202 1.202 0 1 1-2.404 0 1.202 1.202 0 0 1 2.404 0M178.152 46.972a1.202 1.202 0 1 1-2.404 0 1.202 1.202 0 0 1 2.404 0M181.012 46.972a1.202 1.202 0 1 1-2.404 0 1.202 1.202 0 0 1 2.404 0M183.873 46.972a1.202 1.202 0 1 1-2.404 0 1.202 1.202 0 0 1 2.404 0M175.291 24.087a1.202 1.202 0 1 1-2.404 0 1.202 1.202 0 0 1 2.404 0M178.152 24.087a1.202 1.202 0 1 1-2.404 0 1.202 1.202 0 0 1 2.404 0M181.012 24.087a1.202 1.202 0 1 1-2.404 0 1.202 1.202 0 0 1 2.404 0M183.873 24.087a1.202 1.202 0 1 1-2.404 0 1.202 1.202 0 0 1 2.404 0M175.291 52.693a1.202 1.202 0 1 1-2.404 0 1.202 1.202 0 0 1 2.404 0M178.152 52.693a1.202 1.202 0 1 1-2.404 0 1.202 1.202 0 0 1 2.404 0M181.012 52.693a1.202 1.202 0 1 1-2.404 0 1.202 1.202 0 0 1 2.404 0M183.873 52.693a1.202 1.202 0 1 1-2.404 0 1.202 1.202 0 0 1 2.404 0M175.291 15.505a1.202 1.202 0 1 1-2.404 0 1.202 1.202 0 0 1 2.404 0M178.152 15.505a1.202 1.202 0 1 1-2.404 0 1.202 1.202 0 0 1 2.404 0M181.012 15.505a1.202 1.202 0 1 1-2.404 0 1.202 1.202 0 0 1 2.404 0M183.873 15.505a1.202 1.202 0 1 1-2.404 0 1.202 1.202 0 0 1 2.404 0M175.291 44.111a1.202 1.202 0 1 1-2.404 0 1.202 1.202 0 0 1 2.404 0M178.152 44.111a1.202 1.202 0 1 1-2.404 0 1.202 1.202 0 0 1 2.404 0M181.012 44.111a1.202 1.202 0 1 1-2.404 0 1.202 1.202 0 0 1 2.404 0M183.873 44.111a1.202 1.202 0 1 1-2.404 0 1.202 1.202 0 0 1 2.404 0M175.291 21.226a1.202 1.202 0 1 1-2.404 0 1.202 1.202 0 0 1 2.404 0M178.152 21.226a1.202 1.202 0 1 1-2.404 0 1.202 1.202 0 0 1 2.404 0M181.012 21.226a1.202 1.202 0 1 1-2.404 0 1.202 1.202 0 0 1 2.404 0M183.873 21.226a1.202 1.202 0 1 1-2.404 0 1.202 1.202 0 0 1 2.404 0M175.291 49.833a1.202 1.202 0 1 1-2.404 0 1.202 1.202 0 0 1 2.404 0M178.152 49.833a1.202 1.202 0 1 1-2.404 0 1.202 1.202 0 0 1 2.404 0M181.012 49.833a1.202 1.202 0 1 1-2.404 0 1.202 1.202 0 0 1 2.404 0M183.873 49.833a1.202 1.202 0 1 1-2.404 0 1.202 1.202 0 0 1 2.404 0M175.291 26.948a1.202 1.202 0 1 1-2.404 0 1.202 1.202 0 0 1 2.404 0M178.152 26.948a1.202 1.202 0 1 1-2.404 0 1.202 1.202 0 0 1 2.404 0M181.012 26.948a1.202 1.202 0 1 1-2.404 0 1.202 1.202 0 0 1 2.404 0M183.873 26.948a1.202 1.202 0 1 1-2.404 0 1.202 1.202 0 0 1 2.404 0M175.291 55.554a1.202 1.202 0 1 1-2.404 0 1.202 1.202 0 0 1 2.404 0M178.152 55.554a1.202 1.202 0 1 1-2.404 0 1.202 1.202 0 0 1 2.404 0M181.012 55.554a1.202 1.202 0 1 1-2.404 0 1.202 1.202 0 0 1 2.404 0M183.873 55.554a1.202 1.202 0 1 1-2.404 0 1.202 1.202 0 0 1 2.404 0M172.43 4.062a1.202 1.202 0 1 1-2.404 0 1.202 1.202 0 0 1 2.404 0M169.57 4.062a1.202 1.202 0 1 1-2.404 0 1.202 1.202 0 0 1 2.404 0M175.291 4.062a1.202 1.202 0 1 1-2.404 0 1.202 1.202 0 0 1 2.404 0M178.152 4.062a1.202 1.202 0 1 1-2.404 0 1.202 1.202 0 0 1 2.404 0M181.012 4.062a1.202 1.202 0 1 1-2.404 0 1.202 1.202 0 0 1 2.404 0M183.873 4.062a1.202 1.202 0 1 1-2.404 0 1.202 1.202 0 0 1 2.404 0M172.43 6.923a1.202 1.202 0 1 1-2.403 0 1.202 1.202 0 0 1 2.403 0M169.57 6.923a1.202 1.202 0 1 1-2.404 0 1.202 1.202 0 0 1 2.404 0M166.709 6.923a1.202 1.202 0 1 1-2.404 0 1.202 1.202 0 0 1 2.404 0M175.291 6.923a1.202 1.202 0 1 1-2.404 0 1.202 1.202 0 0 1 2.404 0M178.152 6.923a1.202 1.202 0 1 1-2.404 0 1.202 1.202 0 0 1 2.404 0M181.012 6.923a1.202 1.202 0 1 1-2.403 0 1.202 1.202 0 0 1 2.403 0M183.873 6.923a1.202 1.202 0 1 1-2.404 0 1.202 1.202 0 0 1 2.404 0M172.43 9.784a1.202 1.202 0 1 1-2.404 0 1.202 1.202 0 0 1 2.404 0M166.709 9.784a1.202 1.202 0 1 1-2.404 0 1.202 1.202 0 0 1 2.404 0M169.57 9.784a1.202 1.202 0 1 1-2.404 0 1.202 1.202 0 0 1 2.404 0M163.848 9.784a1.202 1.202 0 1 1-2.404 0 1.202 1.202 0 0 1 2.404 0M175.291 9.784a1.202 1.202 0 1 1-2.404 0 1.202 1.202 0 0 1 2.404 0M178.152 9.784a1.202 1.202 0 1 1-2.405-.002 1.202 1.202 0 0 1 2.405.002M181.012 9.784a1.202 1.202 0 1 1-2.404 0 1.202 1.202 0 0 1 2.404 0M183.873 9.784a1.202 1.202 0 1 1-2.404 0 1.202 1.202 0 0 1 2.404 0"/><path fill="#002170" d="M183.368 4.062a.697.697 0 1 1-1.394 0 .697.697 0 0 1 1.394 0M183.368 6.923a.697.697 0 1 1-1.394 0 .697.697 0 0 1 1.394 0M191.95 38.416a.697.697 0 1 1-1.394 0 .697.697 0 0 1 1.394 0M177.647 4.062a.697.697 0 1 1-1.394 0 .697.697 0 0 1 1.394 0M177.647 6.923a.697.697 0 1 1-1.394 0 .697.697 0 0 1 1.394 0M186.229 38.416a.697.697 0 1 1-1.394 0 .697.697 0 0 1 1.394 0M171.926 4.062a.697.697 0 1 1-1.394 0 .697.697 0 0 1 1.394 0M171.926 6.923a.697.697 0 1 1-1.394 0 .697.697 0 0 1 1.394 0M169.065 9.784a.697.697 0 1 1-1.394 0 .697.697 0 0 1 1.394 0M180.508 4.062a.698.698 0 1 1-1.395 0 .698.698 0 0 1 1.395 0M174.804 15.505a.697.697 0 1 1-1.394 0 .697.697 0 0 1 1.394 0M186.229 18.366a.697.697 0 1 1-1.394 0 .697.697 0 0 1 1.394 0M154.065 39.087a.697.697 0 1 1 0-1.394.697.697 0 0 1 0 1.394M186.229 55.645a.697.697 0 1 1-1.394 0 .697.697 0 0 1 1.394 0M186.229 6.923a.697.697 0 1 1-1.394 0 .697.697 0 0 1 1.394 0M165.507 39.087a.697.697 0 1 1 0-1.394.697.697 0 0 1 0 1.394M179.81 39.087a.697.697 0 1 1 0-1.394.697.697 0 0 1 0 1.394M179.81 36.227a.697.697 0 1 1 0-1.394.697.697 0 0 1 0 1.394M179.81 33.392a.697.697 0 1 1 0-1.394.697.697 0 0 1 0 1.394M179.81 30.531a.697.697 0 1 1 0-1.394.697.697 0 0 1 0 1.394M188.392 30.531a.698.698 0 1 1 .001-1.395.698.698 0 0 1-.001 1.395M188.392 33.412a.698.698 0 1 1 .001-1.396.698.698 0 0 1-.001 1.396M188.392 36.2a.698.698 0 1 1 .001-1.394.698.698 0 0 1-.001 1.395M186.229 44.203a.697.697 0 1 1-1.394 0 .697.697 0 0 1 1.394 0M194.58 32.695a.697.697 0 1 1-1.394 0 .697.697 0 0 1 1.394 0M186.229 4.062a.697.697 0 1 1-1.394 0 .697.697 0 0 1 1.394 0M168.368 39.087a.697.697 0 1 1 0-1.394.697.697 0 0 1 0 1.394M182.671 39.087a.697.697 0 1 1 0-1.394.697.697 0 0 1 0 1.394M182.671 36.227a.697.697 0 1 1 0-1.394.697.697 0 0 1 0 1.394M182.671 33.392a.697.697 0 1 1 0-1.394.697.697 0 0 1 0 1.394M182.671 30.531a.697.697 0 1 1 0-1.394.697.697 0 0 1 0 1.394M191.253 30.531a.697.697 0 1 1 0-1.394.697.697 0 0 1 0 1.394M191.253 33.412a.697.697 0 1 1 0-1.394.697.697 0 0 1 0 1.394M191.253 36.2a.697.697 0 1 1 0-1.393.697.697 0 0 1 0 1.394M186.229 41.342a.697.697 0 1 1-1.394 0 .697.697 0 0 1 1.394 0M194.58 29.834a.697.697 0 1 1-1.394 0 .697.697 0 0 1 1.394 0M180.508 6.923a.698.698 0 1 1-1.395-.001.698.698 0 0 1 1.395.001M189.089 38.416a.697.697 0 1 1-1.394 0 .697.697 0 0 1 1.394 0M174.804 18.366a.697.697 0 1 1-1.394 0 .697.697 0 0 1 1.394 0M186.229 21.226a.697.697 0 1 1-1.394 0 .697.697 0 0 1 1.394 0M151.204 39.087a.697.697 0 1 1 0-1.394.697.697 0 0 1 0 1.394M186.229 9.784a.697.697 0 1 1-1.394 0 .697.697 0 0 1 1.394 0M162.647 39.087a.697.697 0 1 1 0-1.394.697.697 0 0 1 0 1.394M176.95 39.087a.697.697 0 1 1 0-1.394.697.697 0 0 1 0 1.394M176.95 36.227a.697.697 0 1 1 0-1.394.697.697 0 0 1 0 1.394M168.368 36.227a.697.697 0 1 1 0-1.394.697.697 0 0 1 0 1.394M168.368 33.366a.697.697 0 1 1 0-1.394.697.697 0 0 1 0 1.394M168.368 30.531a.697.697 0 1 1 0-1.394.697.697 0 0 1 0 1.394M168.368 16.202a.697.697 0 1 1 0-1.394.697.697 0 0 1 0 1.394M176.95 33.392a.697.697 0 1 1 0-1.394.697.697 0 0 1 0 1.394M176.95 30.531a.697.697 0 1 1 0-1.394.697.697 0 0 1 0 1.394M185.532 30.531a.697.697 0 1 1 0-1.394.697.697 0 0 1 0 1.394M185.532 33.412a.697.697 0 1 1 0-1.394.697.697 0 0 1 0 1.394M185.532 36.2a.697.697 0 1 1 0-1.393.697.697 0 0 1 0 1.394M186.229 47.064a.697.697 0 1 1-1.394 0 .697.697 0 0 1 1.394 0M194.58 35.555a.697.697 0 1 1-1.394 0 .697.697 0 0 1 1.394 0M180.508 9.784a.698.698 0 1 1-1.395-.001.698.698 0 0 1 1.395 0M174.804 21.226a.697.697 0 1 1-1.394 0 .697.697 0 0 1 1.394 0M186.229 24.087a.697.697 0 1 1-1.394 0 .697.697 0 0 1 1.394 0M148.343 39.087a.698.698 0 1 1 .001-1.395.698.698 0 0 1-.001 1.395M186.229 12.644a.697.697 0 1 1-1.394 0 .697.697 0 0 1 1.394 0M159.786 39.087a.697.697 0 1 1 0-1.394.697.697 0 0 1 0 1.394M174.089 39.087a.697.697 0 1 1 0-1.394.697.697 0 0 1 0 1.394M174.089 36.227a.697.697 0 1 1 0-1.394.697.697 0 0 1 0 1.394M165.507 36.227a.697.697 0 1 1 0-1.394.697.697 0 0 1 0 1.394M165.507 33.366a.697.697 0 1 1 0-1.394.697.697 0 0 1 0 1.394M165.507 30.531a.697.697 0 1 1 0-1.394.697.697 0 0 1 0 1.394M159.786 33.366a.697.697 0 1 1 0-1.394.697.697 0 0 1 0 1.394M159.786 30.531a.697.697 0 1 1 0-1.394.697.697 0 0 1 0 1.394M151.204 30.531a.697.697 0 1 1 0-1.394.697.697 0 0 1 0 1.394M151.204 27.645a.697.697 0 1 1 0-1.394.697.697 0 0 1 0 1.394M154.065 24.81a.697.697 0 1 1 0-1.394.697.697 0 0 1 0 1.394M156.925 21.923a.697.697 0 1 1 0-1.394.697.697 0 0 1 0 1.394M159.786 19.088a.697.697 0 1 1 0-1.393.697.697 0 0 1 0 1.393M159.786 16.228a.697.697 0 1 1 0-1.394.697.697 0 0 1 0 1.394M162.647 13.316a.697.697 0 1 1 0-1.394.697.697 0 0 1 0 1.394M174.089 33.392a.697.697 0 1 1 0-1.394.697.697 0 0 1 0 1.394M174.089 30.531a.697.697 0 1 1 0-1.394.697.697 0 0 1 0 1.394M186.229 49.924a.697.697 0 1 1-1.394 0 .697.697 0 0 1 1.394 0M194.58 38.416a.697.697 0 1 1-1.394 0 .697.697 0 0 1 1.394 0M174.804 24.087a.697.697 0 1 1-1.394 0 .697.697 0 0 1 1.394 0M186.229 26.948a.697.697 0 1 1-1.394 0 .697.697 0 0 1 1.394 0M145.483 39.087a.697.697 0 1 1 0-1.394.697.697 0 0 1 0 1.394M186.229 15.505a.697.697 0 1 1-1.394 0 .697.697 0 0 1 1.394 0M156.925 39.087a.697.697 0 1 1 0-1.394.697.697 0 0 1 0 1.394M171.228 39.087a.698.698 0 1 1 .001-1.395.698.698 0 0 1-.001 1.395M171.228 36.227a.698.698 0 1 1 .001-1.396.698.698 0 0 1-.001 1.395M162.647 36.227a.697.697 0 1 1 0-1.394.697.697 0 0 1 0 1.394M162.647 33.366a.697.697 0 1 1 0-1.394.697.697 0 0 1 0 1.394M162.647 30.531a.697.697 0 1 1 0-1.394.697.697 0 0 1 0 1.394M154.065 30.531a.697.697 0 1 1 0-1.394.697.697 0 0 1 0 1.394M154.065 27.645a.697.697 0 1 1 0-1.394.697.697 0 0 1 0 1.394M156.926 24.81a.697.697 0 1 1 0-1.394.697.697 0 0 1 0 1.394M159.786 21.923a.697.697 0 1 1 0-1.394.697.697 0 0 1 0 1.394M162.647 19.088a.697.697 0 1 1 0-1.393.697.697 0 0 1 0 1.393M162.647 16.228a.697.697 0 1 1 0-1.394.697.697 0 0 1 0 1.394M165.507 13.316a.697.697 0 1 1 0-1.394.697.697 0 0 1 0 1.394M165.507 16.228a.697.697 0 1 1 0-1.394.697.697 0 0 1 0 1.394M168.368 13.316a.697.697 0 1 1 0-1.394.697.697 0 0 1 0 1.394M156.925 33.366a.697.697 0 1 1 0-1.394.697.697 0 0 1 0 1.394M156.925 30.531a.697.697 0 1 1 0-1.394.697.697 0 0 1 0 1.394M148.344 30.531a.697.697 0 1 1 0-1.394.697.697 0 0 1 0 1.394M148.344 27.645a.697.697 0 1 1 0-1.394.697.697 0 0 1 0 1.394M151.204 24.81a.697.697 0 1 1 0-1.394.697.697 0 0 1 0 1.394M154.065 21.923a.697.697 0 1 1 0-1.394.697.697 0 0 1 0 1.394M156.925 19.088a.697.697 0 1 1 0-1.393.697.697 0 0 1 0 1.393M156.925 16.228a.697.697 0 1 1 0-1.394.697.697 0 0 1 0 1.394M159.786 13.316a.697.697 0 1 1 0-1.394.697.697 0 0 1 0 1.394M171.228 33.392a.698.698 0 1 1 .001-1.396.698.698 0 0 1-.001 1.396M171.228 30.531a.698.698 0 1 1 .001-1.395.698.698 0 0 1-.001 1.395M171.228 13.341a.698.698 0 1 1 .001-1.395.698.698 0 0 1-.001 1.395M186.229 52.785a.697.697 0 1 1-1.394 0 .697.697 0 0 1 1.394 0M174.786 4.062a.697.697 0 1 1-1.394 0 .697.697 0 0 1 1.394 0M174.786 6.923a.697.697 0 1 1-1.394 0 .697.697 0 0 1 1.394 0M174.786 9.784a.697.697 0 1 1-1.394 0 .697.697 0 0 1 1.394 0M171.926 9.784a.697.697 0 1 1-1.394 0 .697.697 0 0 1 1.394 0M160.483 24.113a.697.697 0 1 1-1.394 0 .697.697 0 0 1 1.394 0M163.344 21.226a.697.697 0 1 1-1.394 0 .697.697 0 0 1 1.394 0M166.204 18.366a.697.697 0 1 1-1.394 0 .697.697 0 0 1 1.394 0M169.065 4.062a.697.697 0 1 1-1.394 0 .697.697 0 0 1 1.394 0M169.065 6.923a.697.697 0 1 1-1.394 0 .697.697 0 0 1 1.394 0M166.204 9.784a.697.697 0 1 1-1.394 0 .697.697 0 0 1 1.394 0M166.204 6.923a.697.697 0 1 1-1.394 0 .697.697 0 0 1 1.394 0M163.344 9.784a.697.697 0 1 1-1.394 0 .697.697 0 0 1 1.394 0"/><path fill="#fff" fill-rule="evenodd" d="M239.206 28.36a64 64 0 0 1-1.912 5.013 62.924 62.924 0 0 1-2.274 4.717 55 55 0 0 1-2.352 3.995 50 50 0 0 1-6.65 8.239q-5.24 5.208-10.323 6.144-3.519.647-5.824-1.624-2.316-2.337-3.167-6.964-.876-4.757.212-12.031 1.153-7.286 4.432-15.1 3.279-7.811 7.785-12.616 5.801-6.187 12.644-7.446 3.845-.707 6.357 1.593 2.577 2.288 3.428 6.915.609 3.31.282 7.224-.262 3.12-1.117 6.623l-.031.124a65 65 0 0 1-1.49 5.194m-18.085-16.01q4.494-8.171 8.99-8.999 4.106-.755 5.185 5.11.548 2.984.017 8.12a72 72 0 0 1-.327 2.65q-.993 7.054-3.093 14.314a56 56 0 0 1-2.455 6.757 47.4 47.4 0 0 1-3.256 6.151q-3.609 5.65-7.65 6.393-3.91.72-5.049-5.471-1.21-6.583.973-16.686 2.237-10.181 6.665-18.34" clip-rule="evenodd"/></svg>