<?xml version="1.0" encoding="utf-8"?>
<!-- Generator: Adobe Illustrator 23.0.2, SVG Export Plug-In . SVG Version: 6.00 Build 0)  -->
<svg version="1.1" id="Layer_1" xmlns="http://www.w3.org/2000/svg" xmlns:xlink="http://www.w3.org/1999/xlink" x="0px" y="0px"
	 viewBox="0 0 800 800" style="enable-background:new 0 0 800 800;" xml:space="preserve">
<style type="text/css">
	.st0{fill:#25CE9E;}
	.st1{fill:#263357;}
	.st2{fill:#2EB595;}
	.st3{fill:#FABF4D;}
	.st4{fill:#F2B01F;}
</style>
<g>
	<g>
		<path class="st0" d="M713.5,629.7c0.2,20.7-16.4,37.7-37.2,37.9l-417.2,6.5c-20.7,0.2-37.7-16.4-37.9-37.2l-4.7-417.7
			c-0.2-20.7,16.4-37.7,37.2-37.9l417.2-6.5c20.7-0.2,37.7,16.4,37.9,37.1L713.5,629.7z"/>
		<path class="st1" d="M258.8,686.5c-27.2,0-49.6-22.2-49.9-49.4l-4.7-417.7c-0.1-13.3,4.9-25.9,14.3-35.5
			c9.3-9.5,21.8-14.8,35.1-14.9l417.1-6.5c0,0,0,0,0,0c27.8,0,50.2,22.2,50.5,49.4l4.7,417.7c0.3,27.5-21.9,50.1-49.4,50.4
			L258.8,686.5z M671.4,187.2L254,193.7c-6.8,0.1-13.1,2.7-17.8,7.5c-4.7,4.8-7.3,11.1-7.2,17.8l4.7,417.7
			c0.1,13.7,11.4,24.9,25.1,24.9v12.4l0.3-12.4l417.1-6.5c13.9-0.1,25.1-11.5,25-25.4l-4.7-417.7
			C696.3,198.4,685.1,187.2,671.4,187.2z"/>
	</g>
	<path class="st2" d="M700.2,629.8l-3.5-417.7c-0.1-13.3-8.3-24-18.3-24l-24,0.5c2.8,7,4.4,14.9,4.5,23.3l3.5,417.7
		c0.1,9.2-1.7,17.8-4.9,25.3l24.6-0.5C692.2,654.2,700.3,643.2,700.2,629.8z"/>
	<g>
		<path class="st3" d="M575.5,722.6c-2.6,20.5-21.4,35.1-41.9,32.5l-414.3-49.7c-20.6-2.6-35.1-21.4-32.5-41.9L138.4,249
			c2.6-20.6,21.4-35.1,41.9-32.5l414.3,49.7c20.6,2.6,35.1,21.4,32.5,41.9L575.5,722.6z"/>
		<path class="st1" d="M538.3,767.8c-2.1,0-4.2-0.1-6.3-0.4l-414.2-49.7c-27.4-3.4-46.8-28.5-43.4-55.8l51.6-414.5
			c3.4-27,28.2-46.8,55.8-43.3l414.2,49.7c13.3,1.7,25.1,8.4,33.3,18.9c8.2,10.5,11.8,23.6,10.1,36.8l-51.6,414.6
			C584.7,749,563.4,767.8,538.3,767.8z M175.5,228.5c-12.6,0-23.3,9.5-24.9,22L99.1,665c-1.7,13.8,8.1,26.4,21.8,28.1l414.2,49.7
			c1.1,0.1,2.2,0.2,3.3,0.2c12.6,0,23.3-9.5,24.9-22l51.6-414.6c0.8-6.7-1-13.3-5.1-18.6c-4.1-5.3-10.1-8.7-16.7-9.5l-414.2-49.7
			C177.7,228.6,176.6,228.5,175.5,228.5z"/>
	</g>
	<path class="st4" d="M609.1,288.5c-4-5.1-9.7-8.4-16.1-9.2l-35.8-3.9c4.5,9,4.9,15.3,3.6,25.5l-51.6,414.6c-0.9,7-6,16.9-9.4,22.7
		l35.5,3.9c1.1,0.1,2.1,0.2,3.1,0.2c12.2,0,22.5-9.1,24-21.2L614,306.4C614.8,299.9,613,293.6,609.1,288.5z"/>
	<g>
		<g>
			<path class="st1" d="M417.6,595.8c-0.5,0-1,0-1.5-0.1l-204.2-24.9c-6.8-0.8-11.6-7-10.8-13.8c0.8-6.8,7-11.6,13.8-10.8
				l204.2,24.9c6.8,0.8,11.6,7,10.8,13.8C429.1,591.2,423.8,595.8,417.6,595.8z"/>
		</g>
		<g>
			<path class="st1" d="M503.3,519c-0.5,0-1,0-1.5-0.1l-279.4-34.1c-6.8-0.8-11.6-7-10.8-13.8c0.8-6.8,7-11.6,13.8-10.8l279.4,34.1
				c6.8,0.8,11.6,7,10.8,13.8C514.8,514.4,509.5,519,503.3,519z"/>
		</g>
		<g>
			<path class="st1" d="M325.1,410.1c-0.5,0-1,0-1.5-0.1l-90.7-11.1c-6.8-0.8-11.6-7-10.8-13.8c0.8-6.8,7-11.6,13.8-10.8l90.7,11.1
				c6.8,0.8,11.6,7,10.8,13.8C336.6,405.5,331.2,410.1,325.1,410.1z"/>
		</g>
	</g>
	<path class="st1" d="M384.7,226.7h-26.5V126.2c0-61.1,50.7-94,98.5-94h6.3c54.4,0,80.9,30.8,80.9,94v38.6h-26.5v-38.6
		c0-56-21.7-67.5-54.3-67.5h-6.3c-35.8,0-71.9,23.2-71.9,67.5V226.7z"/>
	<path class="st1" d="M427.6,394.7h-3.7c-38.7,0-65.7-35-65.7-66.5V191.4c0-7.3,5.9-13.3,13.3-13.3c7.3,0,13.3,5.9,13.3,13.3v136.9
		c0,18.9,16.8,40,39.2,40h3.7c6.9,0,27.8,0,27.8-40V138.3c0-7.3,5.9-13.3,13.3-13.3c7.3,0,13.3,5.9,13.3,13.3v189.9
		C482,369.9,461.7,394.7,427.6,394.7z"/>
</g>
</svg>
