<svg xmlns="http://www.w3.org/2000/svg" width="96" height="96" fill="none" viewBox="0 0 96 96"><path fill="var(--tutor-visual-gray-2, #ececed)" d="M76.768 55.605a5.61 5.61 0 0 1-5.61 5.61H34.21a5.6 5.6 0 0 0-3.966 1.643l-6.177 6.177a1.992 1.992 0 0 1-3.4-1.408V21.945a5.61 5.61 0 0 1 5.61-5.61h44.88a5.61 5.61 0 0 1 5.61 5.61z"/><path stroke="var(--tutor-visual-gray-3, #cecfd2)" stroke-linecap="round" stroke-width="1.5" d="M43.704 52.391H67.82M54.14 39.311c0 1.087-1.217 1.968-2.717 1.968s-2.717-.88-2.717-1.968M64.086 39.309c0 1.087-1.216 1.968-2.716 1.968s-2.717-.881-2.717-1.968"/><ellipse cx="44.913" cy="79.146" fill="var(--tutor-visual-gray-2, #ececed)" rx="24.283" ry="3.476"/><path fill="var(--tutor-visual-gray-3, #cecfd2)" d="m82.32 31.925-.31-.488.338-3.18-.018-.027-1.626 1.036-.406-.637 2.567-1.635.334.524-.28 3.092.017.028 1.656-1.055.406.637zM85.672 26.96l-.457-.717.497-4.67-.026-.04-2.388 1.521-.596-.935 3.77-2.402.49.77-.412 4.542.026.04 2.432-1.55.596.936zM90.432 21.5l-.647-1.016.704-6.613-.037-.057-3.382 2.155-.844-1.325 5.338-3.4.695 1.09-.584 6.43.037.058 3.444-2.194.844 1.325z"/><path fill="var(--tutor-visual-gray-2, #ececed)" d="M1.475 79.248c.851.17 2.659.35 5.189.34 1.813-.007 5.751-.34 6.062-.83.18-.36-.602-.8-.773-.83-.697-.127-1.133-.141-1.835-.195-.25-.02-.5-.015-.751-.015-.111 0-.33.045-.33.045s.194-.115.3-.15c.202-.068.388-.162.585-.24.745-.299 1.528-.544 2.238-.932.27-.147.547-.488.255-.78-.241-.242-.64-.152-.946-.09-.698.14-1.388.461-2.034.762l-.038.018c-.36.168-.961.57-.961.57s.652-.644.69-.69c.159-.187.366-.327.526-.51.125-.144.24-.286.376-.42.357-.358 1.591-1.63.48-1.908-.333-.083-.725.117-1.021.24-.836.349-1.371 1.14-1.877 1.847-.18.253-.35.55-.405.856-.022.119-.06.24-.06.36v-.3c0-.206-.018-.41-.03-.615-.05-.854-.15-1.65-.42-2.463-.085-.253-.128-.728-.496-.676-.354.05-.556.476-.661.766-.195.537-.347 2.313.045 3.769a18 18 0 0 0-.841-1.006c-.338-.371-.65-.784-1.036-1.111-.278-.235-.602-.395-.886-.616-.31-.24-.715-.542-1.111-.315-.517.295.073.906.285 1.171.48.6.995 1.237 1.562 1.757.31.284.696.501.99.796.031.03-.068-.051-.104-.075a4 4 0 0 1-.256-.18c-.25-.195-.493-.384-.75-.571a6 6 0 0 0-2.298-.976c-.24-.044-.597-.138-.826 0-.32.192.148.599.286.69.656.438 1.098.866 1.82 1.187l1.273.57s-.98-.262-1.051-.284c-.732-.22-1.256-.286-2.012-.286-.214 0-.704.225-.618.57.107.428 1.067.67 1.465.75M78.992 84.316c1.284.257 4.01.53 7.825.513 2.734-.011 8.674-.513 9.142-1.25.273-.546-.907-1.207-1.165-1.254-1.051-.191-1.709-.213-2.768-.294-.376-.03-.754-.023-1.132-.023-.168 0-.499.068-.499.068s.293-.173.453-.226c.305-.102.586-.243.884-.363 1.123-.449 2.303-.82 3.374-1.404.407-.222.825-.736.385-1.177-.364-.364-.965-.228-1.427-.136-1.054.21-2.094.696-3.067 1.15l-.058.028c-.543.253-1.45.86-1.45.86s.984-.973 1.042-1.042c.238-.281.551-.493.793-.77.189-.215.362-.43.566-.634.539-.539 2.4-2.457.725-2.876-.503-.125-1.094.177-1.54.363-1.261.525-2.068 1.717-2.83 2.785-.273.381-.528.83-.612 1.29-.033.18-.09.363-.09.544v-.453c0-.31-.028-.618-.046-.928-.076-1.287-.225-2.487-.634-3.714-.127-.382-.192-1.098-.747-1.019-.533.076-.838.717-.997 1.155-.294.81-.524 3.487.068 5.684a26 26 0 0 0-1.268-1.517c-.51-.56-.98-1.183-1.562-1.676-.42-.355-.909-.595-1.337-.928-.467-.364-1.078-.817-1.675-.476-.78.446.11 1.367.43 1.766.723.905 1.5 1.867 2.355 2.65.467.428 1.05.755 1.495 1.2.046.046-.105-.077-.159-.113a6 6 0 0 1-.385-.272 44 44 0 0 0-1.132-.86c-.96-.698-2.293-1.26-3.465-1.472-.361-.066-.9-.208-1.245 0-.482.289.222.903.43 1.041.99.66 1.656 1.306 2.744 1.79l1.92.86s-1.478-.397-1.584-.428c-1.104-.332-1.894-.433-3.035-.433-.323 0-1.061.34-.931.86.16.645 1.609 1.011 2.21 1.131"/></svg>