<svg xmlns="http://www.w3.org/2000/svg" width="96" height="62" fill="none" viewBox="0 0 96 62"><path fill="var(--tutor-visual-gray-2, #ececed)" d="M45.824 10.666C47.602 3.65 54.316.066 68.934 0a1.77 1.77 0 0 1 1.778 1.778v31.999a1.777 1.777 0 0 1-1.778 1.778c-14.222 0-19.716 2.867-23.11 7.11-3.375-4.222-8.889-7.11-23.11-7.11-1.098 0-1.778-.895-1.778-1.992V1.777A1.77 1.77 0 0 1 22.713 0c14.619.066 21.333 3.649 23.11 10.666m0 0v32z"/><ellipse cx="45.219" cy="56.509" fill="var(--tutor-visual-gray-2, #ececed)" rx="24.283" ry="3.476"/><path fill="var(--tutor-visual-gray-2, #ececed)" d="M1.475 56.169c.851.17 2.659.35 5.189.34 1.813-.008 5.751-.34 6.062-.83.18-.361-.602-.8-.773-.83-.697-.127-1.133-.142-1.835-.196-.25-.02-.5-.015-.751-.015-.111 0-.33.045-.33.045s.194-.115.3-.15c.202-.067.388-.161.585-.24.745-.298 1.528-.544 2.238-.931.27-.148.547-.489.255-.781-.241-.241-.64-.151-.946-.09-.698.14-1.388.462-2.034.763l-.038.018c-.36.168-.961.57-.961.57s.652-.645.69-.69c.159-.187.366-.328.526-.511.126-.143.24-.285.376-.42.357-.358 1.591-1.63.48-1.907-.333-.084-.725.117-1.021.24-.836.348-1.371 1.139-1.877 1.847-.18.252-.35.55-.405.856-.022.119-.06.24-.06.36v-.3c0-.206-.018-.41-.03-.616-.05-.853-.15-1.649-.42-2.462-.085-.254-.128-.729-.496-.676-.354.05-.556.475-.661.766-.195.537-.347 2.312.045 3.768-.273-.349-.542-.676-.841-1.005-.338-.372-.65-.785-1.036-1.112-.278-.235-.602-.394-.886-.615-.31-.241-.715-.542-1.111-.316-.517.296.073.907.285 1.172.48.6.995 1.237 1.562 1.756.31.284.696.502.99.796.031.03-.068-.05-.104-.075a4 4 0 0 1-.256-.18 29 29 0 0 0-.75-.57 6 6 0 0 0-2.298-.977c-.24-.043-.597-.137-.826 0-.32.192.148.6.286.691.656.438 1.098.866 1.82 1.186l1.273.57s-.98-.262-1.051-.283c-.732-.22-1.256-.287-2.012-.287-.214 0-.704.225-.618.57.107.428 1.067.671 1.465.75M78.992 61.237c1.284.256 4.01.529 7.825.513 2.734-.012 8.674-.513 9.142-1.25.273-.546-.907-1.207-1.165-1.254-1.051-.191-1.709-.213-2.768-.294-.376-.03-.754-.023-1.132-.023a3.5 3.5 0 0 0-.499.068s.293-.173.453-.227c.305-.101.586-.243.884-.362 1.123-.45 2.303-.82 3.374-1.404.407-.222.825-.737.385-1.178-.364-.364-.965-.228-1.427-.136-1.054.211-2.094.697-3.067 1.151l-.058.027c-.543.254-1.45.86-1.45.86s.984-.972 1.042-1.041c.238-.282.551-.493.793-.77.189-.216.362-.43.566-.634.539-.539 2.4-2.457.725-2.876-.503-.126-1.094.176-1.54.362-1.261.526-2.068 1.718-2.83 2.786-.273.38-.528.829-.612 1.29-.033.18-.09.362-.09.544v-.453c0-.311-.028-.618-.046-.928-.076-1.287-.225-2.487-.634-3.714-.127-.382-.192-1.099-.747-1.02-.533.077-.838.718-.997 1.156-.294.81-.524 3.487.068 5.684a26 26 0 0 0-1.268-1.518c-.51-.56-.98-1.182-1.562-1.675-.42-.355-.909-.596-1.337-.929-.467-.363-1.078-.817-1.675-.475-.78.445.11 1.366.43 1.766.723.904 1.5 1.866 2.355 2.65.467.427 1.05.755 1.495 1.2.046.045-.105-.078-.159-.114a6 6 0 0 1-.385-.271 44 44 0 0 0-1.132-.86c-.96-.699-2.293-1.26-3.465-1.473-.361-.066-.9-.207-1.245 0-.482.29.222.903.43 1.042.99.66 1.656 1.305 2.744 1.789l1.92.86s-1.478-.396-1.584-.428c-1.104-.331-1.894-.432-3.035-.432-.323 0-1.061.34-.931.86.16.645 1.609 1.01 2.21 1.13"/></svg>