<svg xmlns="http://www.w3.org/2000/svg" width="96" height="96" fill="none" viewBox="0 0 96 96"><circle cx="45.219" cy="41.089" r="26.641" fill="var(--tutor-visual-gray-2, #ececed)"/><path stroke="var(--tutor-visual-gray-3, #cecfd2)" stroke-linecap="round" stroke-width="1.5" d="M51.16 36.292c.725 1.042.146 2.698-1.293 3.699-1.44 1-3.194.966-3.919-.076M64.04 36.902c-.347 1.221-1.996 1.822-3.682 1.341-1.686-.48-2.77-1.86-2.422-3.08M58 43.258c-.186-.985-1.288-1.604-2.462-1.382s-1.974 1.2-1.788 2.184"/><ellipse cx="45.219" cy="77.877" fill="var(--tutor-visual-gray-2, #ececed)" rx="24.283" ry="3.476"/><path fill="var(--tutor-visual-gray-2, #ececed)" d="m83.278 26.164-.637-8.708zm0 0 5.83 3.39a.654.654 0 0 0 .936-.638l-.321-4.397-.43-5.876-.358-4.893a.655.655 0 0 0-1.019-.496l-5.275 4.202m.636 8.708-7.619.557a4.365 4.365 0 0 1-.636-8.707l7.619-.558M76.904 32.43l-1.246-5.708 4.354-.318 1.114 5.105a2.16 2.16 0 0 1-4.222.921"/><path fill="var(--tutor-visual-gray-2, #ececed)" fill-rule="evenodd" d="M92.446 21.366a2.946 2.946 0 0 1-2.723 3.153l-.43-5.876a2.946 2.946 0 0 1 3.153 2.723" clip-rule="evenodd"/><path fill="var(--tutor-visual-gray-2, #ececed)" d="M1.475 77.537c.851.17 2.659.35 5.189.34 1.813-.008 5.751-.34 6.062-.83.18-.361-.602-.8-.773-.83-.697-.127-1.133-.142-1.835-.196-.25-.02-.5-.015-.751-.015-.111 0-.33.045-.33.045s.194-.115.3-.15c.202-.067.388-.161.585-.24.745-.298 1.528-.544 2.238-.931.27-.148.547-.489.255-.781-.241-.242-.64-.151-.946-.09-.698.14-1.388.462-2.034.763l-.038.018c-.36.168-.961.57-.961.57s.652-.645.69-.69c.159-.187.366-.328.526-.511.126-.143.24-.285.376-.42.357-.358 1.591-1.63.48-1.907-.333-.084-.725.116-1.021.24-.836.348-1.371 1.139-1.877 1.847-.18.252-.35.55-.405.856-.022.118-.06.24-.06.36v-.3c0-.207-.018-.41-.03-.616-.05-.853-.15-1.649-.42-2.463-.085-.253-.128-.728-.496-.675-.354.05-.556.475-.661.766-.195.537-.347 2.312.045 3.769-.273-.35-.542-.677-.841-1.007-.338-.37-.65-.784-1.036-1.11-.278-.236-.602-.396-.886-.616-.31-.241-.715-.542-1.111-.316-.517.296.073.906.285 1.171.48.6.995 1.238 1.562 1.757.31.284.696.501.99.796.031.03-.068-.051-.104-.075a4 4 0 0 1-.256-.18c-.25-.194-.493-.383-.75-.57a6 6 0 0 0-2.298-.977c-.24-.043-.597-.137-.826 0-.32.192.148.6.286.691.656.437 1.098.866 1.82 1.186l1.273.57s-.98-.262-1.051-.283c-.732-.22-1.256-.287-2.012-.287-.214 0-.704.225-.618.57.107.428 1.067.67 1.465.75M78.992 82.605c1.284.256 4.01.529 7.825.513 2.734-.012 8.674-.513 9.142-1.251.273-.545-.907-1.207-1.165-1.253-1.051-.192-1.709-.213-2.768-.295-.376-.029-.754-.022-1.132-.022-.168 0-.499.068-.499.068s.293-.173.453-.227c.305-.102.586-.243.884-.362 1.123-.45 2.303-.82 3.374-1.404.407-.222.825-.737.385-1.178-.364-.364-.965-.228-1.427-.136-1.054.211-2.094.697-3.067 1.151l-.058.027c-.543.254-1.45.86-1.45.86s.984-.972 1.042-1.041c.238-.282.551-.494.793-.77.189-.216.362-.43.566-.634.539-.54 2.4-2.457.725-2.876-.503-.126-1.094.176-1.54.362-1.261.526-2.068 1.718-2.83 2.786-.273.38-.528.829-.612 1.29-.033.18-.09.362-.09.544v-.453c0-.311-.028-.618-.046-.928-.076-1.287-.225-2.487-.634-3.714-.127-.382-.192-1.099-.747-1.02-.533.077-.838.718-.997 1.156-.294.81-.524 3.487.068 5.683a26 26 0 0 0-1.268-1.517c-.51-.56-.98-1.182-1.562-1.675-.42-.355-.909-.596-1.337-.929-.467-.363-1.078-.817-1.675-.475-.78.445.11 1.366.43 1.766.723.904 1.5 1.866 2.355 2.65.467.427 1.05.755 1.495 1.2.046.045-.105-.078-.159-.114a6 6 0 0 1-.385-.272 44 44 0 0 0-1.132-.86c-.96-.698-2.293-1.259-3.465-1.472-.361-.066-.9-.207-1.245 0-.482.29.222.903.43 1.042.99.66 1.656 1.305 2.744 1.789l1.92.86s-1.478-.396-1.584-.428c-1.104-.331-1.894-.432-3.035-.432-.323 0-1.061.34-.931.86.16.644 1.609 1.01 2.21 1.13"/></svg>