<svg xmlns="http://www.w3.org/2000/svg" width="96" height="96" fill="none" viewBox="0 0 96 96"><path fill="var(--tutor-visual-gray-2, #ececed)" d="M45.219 17.921c13.701 0 24.808 11.108 24.808 24.809a24.7 24.7 0 0 1-6.157 16.354l1.523 11.486a.558.558 0 0 1-.767.589l-11.711-4.84a24.8 24.8 0 0 1-7.696 1.218c-13.701 0-24.809-11.106-24.809-24.807S31.517 17.92 45.22 17.92"/><path stroke="var(--tutor-visual-gray-3, #cecfd2)" stroke-linecap="round" stroke-width="1.5" d="M41.987 50.4c.507 1.068-.279 2.501-1.754 3.2s-3.081.4-3.587-.67M53.725 52.93c-.507 1.068-2.113 1.367-3.588.668s-2.26-2.132-1.754-3.2M47.204 57.844c-.02-.933-.938-1.67-2.05-1.645s-1.997.8-1.977 1.733"/><ellipse cx="45.219" cy="80.583" fill="var(--tutor-visual-gray-2, #ececed)" rx="24.283" ry="3.476"/><path fill="var(--tutor-visual-gray-3, #cecfd2)" d="m72.705 30.93-.312-.488.339-3.18-.018-.027-1.626 1.036-.406-.637L73.25 26l.334.524-.28 3.092.017.028 1.656-1.055.406.637zM76.056 25.965l-.457-.717.497-4.67-.026-.04-2.388 1.522-.596-.936 3.77-2.401.49.77-.412 4.54.026.041 2.432-1.55.596.936zM80.816 20.505l-.647-1.015.703-6.613-.036-.058-3.383 2.155-.844-1.325 5.339-3.4.695 1.09-.584 6.43.037.058 3.444-2.194.844 1.325z"/><path fill="var(--tutor-visual-gray-2, #ececed)" d="M1.475 80.243c.851.17 2.659.35 5.189.34 1.813-.008 5.751-.34 6.062-.83.18-.36-.602-.8-.773-.83-.697-.127-1.133-.142-1.835-.196-.25-.019-.5-.015-.751-.015-.111 0-.33.045-.33.045s.194-.114.3-.15c.202-.067.388-.161.585-.24.745-.298 1.528-.544 2.238-.931.27-.147.547-.489.255-.78-.241-.242-.64-.152-.946-.09-.698.139-1.388.46-2.034.762l-.038.018c-.36.168-.961.57-.961.57s.652-.644.69-.69c.159-.187.366-.327.526-.51.126-.144.24-.286.376-.421.357-.358 1.591-1.63.48-1.907-.333-.084-.725.117-1.021.24-.836.348-1.371 1.139-1.877 1.847-.18.253-.35.55-.405.856-.022.119-.06.24-.06.36v-.3c0-.206-.018-.41-.03-.616-.05-.853-.15-1.649-.42-2.462-.085-.254-.128-.728-.496-.676-.354.05-.556.476-.661.766-.195.537-.347 2.312.045 3.769-.273-.35-.542-.677-.841-1.006-.338-.372-.65-.784-1.036-1.111-.278-.236-.602-.395-.886-.616-.31-.241-.715-.542-1.111-.315-.517.295.073.906.285 1.17.48.6.995 1.238 1.562 1.758.31.283.696.5.99.795.031.031-.068-.05-.104-.075a4 4 0 0 1-.256-.18c-.25-.194-.493-.383-.75-.57a6 6 0 0 0-2.298-.976c-.24-.044-.597-.138-.826 0-.32.191.148.598.286.69.656.438 1.098.866 1.82 1.187l1.273.57s-.98-.263-1.051-.284c-.732-.22-1.256-.286-2.012-.286-.214 0-.704.225-.618.57.107.427 1.067.67 1.465.75M78.992 85.311c1.284.257 4.01.53 7.825.513 2.734-.011 8.674-.513 9.142-1.25.273-.546-.907-1.207-1.165-1.254-1.051-.191-1.709-.213-2.768-.294-.376-.03-.754-.023-1.132-.023-.168 0-.499.068-.499.068s.293-.173.453-.227c.305-.101.586-.243.884-.362 1.123-.45 2.303-.82 3.374-1.404.407-.222.825-.737.385-1.177-.364-.364-.965-.229-1.427-.136-1.054.21-2.094.696-3.067 1.15l-.058.027c-.543.254-1.45.86-1.45.86s.984-.972 1.042-1.04c.238-.282.551-.494.793-.77.189-.217.362-.43.566-.635.539-.539 2.4-2.457.725-2.876-.503-.125-1.094.177-1.54.363-1.261.525-2.068 1.717-2.83 2.785-.273.381-.528.83-.612 1.29-.033.18-.09.362-.09.544v-.453c0-.31-.028-.618-.046-.928-.076-1.287-.225-2.487-.634-3.714-.127-.382-.192-1.098-.747-1.019-.533.076-.838.717-.997 1.155-.294.81-.524 3.487.068 5.684a26 26 0 0 0-1.268-1.517c-.51-.56-.98-1.183-1.562-1.676-.42-.355-.909-.596-1.337-.929-.467-.363-1.078-.817-1.675-.475-.78.446.11 1.366.43 1.766.723.904 1.5 1.866 2.355 2.65.467.428 1.05.755 1.495 1.2.046.046-.105-.077-.159-.113a6 6 0 0 1-.385-.272 44 44 0 0 0-1.132-.86c-.96-.699-2.293-1.26-3.465-1.473-.361-.065-.9-.207-1.245 0-.482.29.222.904.43 1.042.99.66 1.656 1.305 2.744 1.789l1.92.86s-1.478-.396-1.584-.428c-1.104-.33-1.894-.432-3.035-.432-.323 0-1.061.34-.931.86.16.645 1.609 1.011 2.21 1.131"/></svg>