<svg xmlns="http://www.w3.org/2000/svg" width="80" height="80" fill="none" viewBox="0 0 80 80"><g clip-path="url(#a)"><path fill="var(--tutor-visual-gray-1, #ffffff)" d="M63.958 38.117c4.6 11.493-.987 24.54-12.48 29.14s-24.541-.987-29.142-12.48.988-24.54 12.481-29.141 24.54.987 29.14 12.48"/><path fill="#f04438" d="M63.262 38.395a21.7 21.7 0 0 0-3.593-5.723c-5.894-6.9-16.208-9.245-24.315-5.695-10.4 4.09-15.689 17.095-11.29 27.108C27.98 64.307 40.745 69.68 50.734 65.4c8.016-3.097 13.713-11.413 13.589-20.366a22.4 22.4 0 0 0-1.061-6.64m.696-.278c4.6 11.493-.987 24.54-12.48 29.14s-24.541-.987-29.142-12.48.988-24.54 12.481-29.141 24.54.987 29.14 12.48M22.436 31.368c.207-.512-.038-1.1-.569-1.256a9.973 9.973 0 0 0-7.458 18.39c.488.258 1.074.007 1.282-.505zM47.734 21.243c-.504-.227-.732-.822-.455-1.3a9.973 9.973 0 0 1 18.088 8.164c-.176.524-.773.747-1.277.52z"/><path fill="#f04438" fill-rule="evenodd" d="M39.088 33.517c.732-.211 1.503.18 1.765.895l4.433 12.09a2.396 2.396 0 0 1-3.89 2.57 2 2 0 0 1-.343-.292l-7.333-7.891a1.214 1.214 0 0 1 1.648-1.775l4.216 3.379-1.515-7.287a1.45 1.45 0 0 1 1.02-1.69" clip-rule="evenodd"/><path fill="var(--tutor-visual-critical-2, #fee4e2)" d="M50.824 13.345c.31-.145.612-.273.925-.395 5.654-2.423 12.278.162 15.448 4.807.169.251.332.517.463.772a.87.87 0 0 0 .554.443c.24.062.505.02.73-.112a.97.97 0 0 0 .45-.583.87.87 0 0 0-.12-.7 10 10 0 0 0-.653-.889c-4.112-4.956-11.494-6.795-16.911-3.824-.302.151-.59.309-.886.481"/><path fill="var(--tutor-visual-critical-2, #fee4e2)" d="M52.268 9.313c.35-.166.691-.314 1.045-.454 6.389-2.781 13.943.098 17.597 5.38.195.286.382.59.536.882a.88.88 0 0 0 .556.443c.24.062.505.021.728-.11a.97.97 0 0 0 .448-.584.88.88 0 0 0-.117-.7 11 11 0 0 0-.728-1c-4.596-5.593-12.907-7.725-19.059-4.397-.343.17-.67.346-1.006.54M16.672 26.9c-.316.06-.616.127-.921.206-5.63 1.252-9.246 6.845-9.113 12.1.008.282.032.572.07.836a.85.85 0 0 1-.188.67.95.95 0 0 1-.646.328.95.95 0 0 1-.693-.209.85.85 0 0 1-.305-.625 9 9 0 0 1 .015-1.04c.442-6.041 5.087-11.47 10.841-12.15.314-.049.62-.086.94-.115"/><path fill="var(--tutor-visual-critical-2, #fee4e2)" d="M16.046 23.236c-.39.018-.76.05-1.14.092-6.978.557-12.318 6.685-13.058 13.104-.038.346-.06.706-.059 1.038a.86.86 0 0 1-.277.64.95.95 0 0 1-.679.241.95.95 0 0 1-.657-.297.86.86 0 0 1-.224-.66c.032-.412.093-.832.17-1.229 1.412-7.124 7.751-12.955 14.777-12.93a18 18 0 0 1 1.147 0"/><ellipse cx="42.044" cy="75.584" fill="var(--tutor-visual-gray-2, #ececed)" rx="25.199" ry="2.759"/><path fill="var(--tutor-visual-exception-2, #f4f433)" d="m22.576 15.868-2.272 3.148a1 1 0 0 0 .407 1.502l5.633 2.484c.892.393 1.763-.591 1.263-1.429l-3.36-5.632a1 1 0 0 0-1.67-.073M32.586 9.9l-4.965.76a1.295 1.295 0 0 0-1.015 1.738l2.818 7.447c.446 1.18 2.144 1.09 2.463-.13l2.147-8.208a1.295 1.295 0 0 0-1.448-1.608M37.256 9.925l-1.593 10 4.381-6.003 4.342.592.39-12.857-3.384 7.978z"/></g><defs><clipPath id="a"><path fill="var(--tutor-visual-gray-1, #ffffff)" d="M0 0h80v80H0z"/></clipPath></defs></svg>