<svg xmlns="http://www.w3.org/2000/svg" width="96" height="96" fill="none" viewBox="0 0 96 96"><path fill="var(--tutor-visual-gray-2, #ececed)" d="M35.903 9.464a8.86 8.86 0 0 1 10.785 6.375c.935 3.638-.532 7.323-3.407 9.393l12.98-3.336a3.403 3.403 0 0 1 4.141 2.448l2.06 8.014a8.83 8.83 0 0 1 5.676-4.543 8.86 8.86 0 0 1 4.41 17.16 8.83 8.83 0 0 1-7.165-1.251l3.093 12.034a3.403 3.403 0 0 1-2.448 4.141l-7.012 1.915c-1.218-4.739-6.137-7.682-10.876-6.464s-7.605 6.172-6.387 10.91l-7.14 1.713a3.4 3.4 0 0 1-4.14-2.448l-2.97-11.555a8.83 8.83 0 0 1-5.64 4.482 8.86 8.86 0 0 1-4.41-17.161 8.83 8.83 0 0 1 7.101 1.207L22.4 34.11a3.4 3.4 0 0 1 2.448-4.141l12.2-3.136c-3.518-.426-6.584-2.945-7.52-6.584a8.86 8.86 0 0 1 6.376-10.786"/><ellipse cx="42.468" cy="78.563" fill="var(--tutor-visual-gray-2, #ececed)" rx="24.283" ry="3.476"/><path stroke="var(--tutor-visual-gray-3, #cecfd2)" stroke-linecap="round" stroke-width="1.5" d="M39.38 35.237c.912 1.108.412 3.028-1.118 4.288s-3.51 1.382-4.423.274M53.95 34.741c-.28 1.408-2.083 2.236-4.026 1.85-1.944-.386-3.293-1.84-3.013-3.248M47.727 42.458c-.3-1.092-1.599-1.688-2.901-1.33s-2.115 1.533-1.815 2.625"/><path fill="var(--tutor-visual-gray-2, #ececed)" d="M1.475 72.98c.851.17 2.659.352 5.189.34 1.813-.007 5.751-.34 6.062-.828.18-.362-.602-.8-.773-.832-.697-.126-1.133-.14-1.835-.195-.25-.019-.5-.015-.751-.015-.111 0-.33.045-.33.045s.194-.115.3-.15c.202-.067.388-.161.585-.24.745-.298 1.528-.544 2.238-.931.27-.148.547-.489.255-.78-.241-.242-.64-.152-.946-.091-.698.14-1.388.462-2.034.763l-.038.018c-.36.168-.961.57-.961.57s.652-.644.69-.69c.159-.187.366-.328.526-.51.126-.144.24-.286.376-.421.357-.358 1.591-1.63.48-1.907-.333-.084-.725.117-1.021.24-.836.348-1.371 1.139-1.877 1.847-.18.253-.35.55-.405.856-.022.119-.06.24-.06.36v-.3c0-.206-.018-.41-.03-.616-.05-.853-.15-1.649-.42-2.462-.085-.254-.128-.729-.496-.676-.354.05-.556.475-.661.766-.195.537-.347 2.312.045 3.769-.273-.35-.542-.677-.841-1.006-.338-.372-.65-.784-1.036-1.111-.278-.236-.602-.395-.886-.616-.31-.241-.715-.542-1.111-.316-.517.296.073.907.285 1.172.48.6.995 1.237 1.562 1.757.31.283.696.5.99.795.031.03-.068-.05-.104-.075a4 4 0 0 1-.256-.18c-.25-.194-.493-.383-.75-.57a6 6 0 0 0-2.298-.977c-.24-.043-.597-.137-.826 0-.32.192.148.6.286.691.656.438 1.098.866 1.82 1.186l1.273.571s-.98-.263-1.051-.284c-.732-.22-1.256-.287-2.012-.287-.214 0-.704.226-.618.571.107.427 1.067.67 1.465.75M78.992 78.049c1.284.257 4.01.53 7.825.513 2.734-.011 8.674-.513 9.142-1.25.273-.546-.907-1.207-1.165-1.254-1.051-.191-1.709-.213-2.768-.294-.376-.03-.754-.023-1.132-.023-.168 0-.499.068-.499.068s.293-.173.453-.227c.305-.101.586-.243.884-.362 1.123-.45 2.303-.82 3.374-1.404.407-.222.825-.737.385-1.177-.364-.364-.965-.229-1.427-.136-1.054.21-2.094.696-3.067 1.15l-.058.027c-.543.254-1.45.86-1.45.86s.984-.972 1.042-1.04c.238-.282.551-.494.793-.77.189-.217.362-.43.566-.635.539-.539 2.4-2.457.725-2.876-.503-.125-1.094.177-1.54.363-1.261.525-2.068 1.717-2.83 2.785-.273.381-.528.83-.612 1.29-.033.18-.09.362-.09.544v-.453c0-.31-.028-.618-.046-.928-.076-1.287-.225-2.487-.634-3.714-.127-.382-.192-1.098-.747-1.02-.533.077-.838.718-.997 1.156-.294.81-.524 3.487.068 5.684a26 26 0 0 0-1.268-1.517c-.51-.56-.98-1.183-1.562-1.676-.42-.355-.909-.596-1.337-.929-.467-.363-1.078-.817-1.675-.475-.78.445.11 1.366.43 1.766.723.904 1.5 1.866 2.355 2.65.467.428 1.05.755 1.495 1.2.046.046-.105-.077-.159-.113a6 6 0 0 1-.385-.272 44 44 0 0 0-1.132-.86c-.96-.699-2.293-1.26-3.465-1.473-.361-.065-.9-.207-1.245 0-.482.29.222.904.43 1.042.99.66 1.656 1.305 2.744 1.789l1.92.86s-1.478-.396-1.584-.428c-1.104-.33-1.894-.432-3.035-.432-.323 0-1.061.34-.931.86.16.645 1.609 1.011 2.21 1.131"/></svg>