<svg xmlns="http://www.w3.org/2000/svg" width="574" height="200" fill="none" viewBox="0 0 574 200"><g clip-path="url(#a)"><path fill="#ececed" fill-rule="evenodd" d="M282.136 152.461c-36.54 0-66.163 2.874-66.164 6.42 0 3.545 29.623 6.42 66.164 6.42 36.542 0 66.165-2.875 66.165-6.42-.001-3.546-29.624-6.42-66.165-6.42m112.243 6.258c-11.472 0-20.773.902-20.774 2.015 0 1.114 9.301 2.016 20.774 2.016s20.773-.902 20.773-2.016c-.001-1.113-9.301-2.015-20.773-2.015m-179.797-5.123c-1.427-2.269-4.648-6.319-6.126-4.366s3.468 3.725 6.126 4.366m141.872-11.852c-2.512-3.321-7.99 3.563-10.414 7.42 4.518-1.089 12.926-4.099 10.414-7.42m-142.413 4.788c-2.421-3.851-7.889-10.724-10.398-7.408-2.507 3.316 5.887 6.32 10.398 7.408m-38.342-4.891c-8.241 0-14.922.648-14.922 1.448.001.799 6.681 1.447 14.922 1.447s14.921-.648 14.922-1.447c0-.8-6.681-1.448-14.922-1.448m188.941-17.076c-4.264-5.637-13.559 6.047-17.673 12.593 7.668-1.849 21.937-6.956 17.673-12.593" clip-rule="evenodd"/><path fill="#ff8904" d="M327.574 119.562c25.913 3.35 24.392-21.154 20.381-30.332l-44.289 10.026c5.896 14.818 15.737 46.556 20.118 44.574 6.479-2.93 6.458-10.395 5.964-12.354z"/><mask id="b" width="165.907" height="145.758" x="195.168" y="25.066" fill="#000" maskUnits="userSpaceOnUse"><path fill="#fff" d="M195.168 25.066h165.907v145.758H195.168z"/><path d="M262.884 44.041c9.252-2.378 18.679 3.197 21.059 12.448 1.354 5.268.128 10.586-2.886 14.632-.66.886.302 2.662 1.373 2.387l20.204-5.192a6.643 6.643 0 0 1 8.086 4.78l3.366 13.093c.229.891 1.492 1.053 2.03.307a17.2 17.2 0 0 1 9.709-6.623c9.253-2.378 18.681 3.194 21.059 12.448 2.376 9.252-3.195 18.681-12.447 21.059a17.18 17.18 0 0 1-11.703-1.136c-.832-.396-1.861.355-1.632 1.246l5.383 20.944a6.643 6.643 0 0 1-4.78 8.086l-9.775 2.67c-2.153.588-4.334-.737-5.378-2.71-3.686-6.966-11.859-10.878-19.775-8.844-7.913 2.035-13.153 9.405-13.015 17.285.038 2.234-1.236 4.447-3.409 4.969l-9.987 2.395a6.645 6.645 0 0 1-8.086-4.78l-5.15-20.04c-.228-.888-1.481-1.053-2.022-.313a17.18 17.18 0 0 1-9.639 6.541c-9.253 2.377-18.682-3.195-21.06-12.448-2.377-9.253 3.196-18.681 12.448-21.059a17.2 17.2 0 0 1 11.599 1.082c.83.388 1.848-.361 1.62-1.248l-3.56-13.854a6.643 6.643 0 0 1 4.779-8.086l18.677-4.8c1.071-.275 1.057-2.296.05-2.754-4.592-2.09-8.232-6.157-9.586-11.425-2.376-9.252 3.196-18.681 12.448-21.06"/></mask><path fill="#f4f433" d="M262.884 44.041c9.252-2.378 18.679 3.197 21.059 12.448 1.354 5.268.128 10.586-2.886 14.632-.66.886.302 2.662 1.373 2.387l20.204-5.192a6.643 6.643 0 0 1 8.086 4.78l3.366 13.093c.229.891 1.492 1.053 2.03.307a17.2 17.2 0 0 1 9.709-6.623c9.253-2.378 18.681 3.194 21.059 12.448 2.376 9.252-3.195 18.681-12.447 21.059a17.18 17.18 0 0 1-11.703-1.136c-.832-.396-1.861.355-1.632 1.246l5.383 20.944a6.643 6.643 0 0 1-4.78 8.086l-9.775 2.67c-2.153.588-4.334-.737-5.378-2.71-3.686-6.966-11.859-10.878-19.775-8.844-7.913 2.035-13.153 9.405-13.015 17.285.038 2.234-1.236 4.447-3.409 4.969l-9.987 2.395a6.645 6.645 0 0 1-8.086-4.78l-5.15-20.04c-.228-.888-1.481-1.053-2.022-.313a17.18 17.18 0 0 1-9.639 6.541c-9.253 2.377-18.682-3.195-21.06-12.448-2.377-9.253 3.196-18.681 12.448-21.059a17.2 17.2 0 0 1 11.599 1.082c.83.388 1.848-.361 1.62-1.248l-3.56-13.854a6.643 6.643 0 0 1 4.779-8.086l18.677-4.8c1.071-.275 1.057-2.296.05-2.754-4.592-2.09-8.232-6.157-9.586-11.425-2.376-9.252 3.196-18.681 12.448-21.06"/><path fill="#ff8904" d="m262.697 43.315.373 1.453c7.68-1.95 16.156 2.523 18.921 9.692a16 16 0 0 1 .749 2.339c1.143 4.65.032 9.718-2.86 13.445-.838 1.218-.521 2.364-.113 3.184.229.425.534.828 1.027 1.168.471.338 1.28.576 2.012.376a6006 6006 0 0 0 20.262-4.97c2.519-.68 5.334 1.048 5.881 3.548q1.634 6.56 3.281 13.116c.769 2.637 4.038 2.906 5.451.958a15.34 15.34 0 0 1 8.636-5.838c4.974-1.308 10.52.134 14.252 3.654a15.26 15.26 0 0 1 4.379 7.378c2.222 7.84-3.061 16.796-11.006 18.638a15.26 15.26 0 0 1-10.359-.998c-2.21-1.05-4.999.785-4.394 3.524q2.701 10.47 5.407 20.938c.687 2.399-.933 5.158-3.372 5.726l-.029.007-9.77 2.686c-1.035.34-2.51-.44-3.188-1.751-3.998-7.719-13.492-12.051-21.922-9.752-8.488 2.084-14.622 10.493-14.354 19.117.051 1.51-.876 2.972-2.024 3.203l-9.979 2.424-.028.007c-2.499.722-5.384-.96-5.984-3.51q-2.607-10.012-5.218-20.023c-.69-2.38-3.676-2.626-4.945-.869a15.6 15.6 0 0 1-8.711 5.962c-8.036 2.316-17.287-3.071-19.225-11.271-2.336-8.092 3.084-17.415 11.348-19.375a15.9 15.9 0 0 1 10.711.945c1.718.81 3.903-.67 3.416-2.746q-1.815-6.918-3.633-13.835c-.808-2.775 1.05-5.99 3.894-6.667l18.648-4.908c1.29-.375 1.589-1.592 1.578-2.36-.027-.805-.283-1.797-1.363-2.335-4.436-1.958-7.898-5.998-9.112-10.725a16.6 16.6 0 0 1-.454-2.459c-.967-7.768 4.498-15.764 12.19-17.643zc-8.415 1.932-14.59 10.617-13.63 19.278q.13 1.384.47 2.739c1.282 5.274 5.101 9.866 10.062 12.124-.03-.047.159.194.144.49a.75.75 0 0 1-.068.33c-.04.061-.006.002.037-.006q-9.353 2.344-18.704 4.692c-4.052.918-6.784 5.47-5.665 9.506q1.742 6.936 3.487 13.872c-.039-.107.049-.263.053-.249-.001-.006.049-.031.123 0-3.842-1.834-8.347-2.283-12.487-1.221-9.695 2.195-16.231 13.099-13.547 22.744 2.214 9.76 13.193 16.329 22.894 13.625 4.199-1.045 8.012-3.618 10.568-7.119a.48.48 0 0 1-.431.207.5.5 0 0 1-.252-.114.7.7 0 0 1-.219-.338q2.54 10.03 5.082 20.058c.996 4.345 5.878 7.254 10.189 6.049l-.028.007 9.994-2.366c3.215-.772 4.863-3.966 4.793-6.733-.187-7.012 4.88-13.838 11.678-15.453 6.752-1.827 14.455 1.729 17.626 7.935 1.283 2.49 4.299 4.547 7.57 3.669l9.779-2.654-.028.008c4.456-1.029 7.426-6.036 6.187-10.446q-2.678-10.477-5.358-20.95c.049.171.036.429-.041.607a.83.83 0 0 1-.274.364c-.178.137-.504.208-.817.059 4.012 1.931 8.731 2.402 13.047 1.276 10.015-2.312 16.685-13.585 13.89-23.481a19.26 19.26 0 0 0-5.526-9.311c-4.695-4.437-11.726-6.234-17.962-4.553-4.313 1.102-8.211 3.785-10.781 7.408.194-.264.493-.35.696-.316a.77.77 0 0 1 .386.177c.143.112.271.32.307.483a6523 6523 0 0 0-3.449-13.072c-1.049-4.395-6.001-7.258-10.291-6.01a6007 6007 0 0 0-20.148 5.415c.184-.052.4.034.41.057.025.025-.036-.02-.074-.089a.6.6 0 0 1-.07-.178c-.005-.031.002.05-.085.162 3.305-4.498 4.405-10.503 2.913-15.817a18.6 18.6 0 0 0-.949-2.662c-3.467-8.153-13.232-12.682-21.501-10.203m.373 1.453-.373-1.453z" mask="url(#b)"/><path fill="#ff8904" d="M245.144 133.118a.88.88 0 0 0-.165.733c.058.258.233.493.476.647.243.153.53.21.789.152a.88.88 0 0 0 .59-.464c.108-.201.21-.412.298-.612 1.529-3.627 1.707-7.708.267-11.142-.08-.191-.164-.375-.254-.561q.088.295.159.592c.857 3.574-.031 7.339-1.846 10.213a7 7 0 0 1-.314.442M325.225 113.439c.508.177.891.538 1.04 1.048.15.507.055 1.123-.241 1.665-.296.543-.761.957-1.27 1.105-.509.151-1.02.025-1.443-.306a9 9 0 0 1-.593-.469c-3.159-2.823-5.066-6.613-5.19-10.394-.006-.21-.007-.414-.002-.623.061.199.127.391.198.585 1.279 3.458 4.12 6.004 7.046 7.234.155.06.315.117.455.155"/><path fill="#ff8904" fill-rule="evenodd" d="M271.759 89.149a.99.99 0 0 1 1.207.714c.367 1.435-.128 2.855-1.049 3.963-.922 1.108-2.316 1.972-3.946 2.388-1.63.417-3.266.328-4.607-.202-1.339-.53-2.454-1.538-2.821-2.973a.991.991 0 1 1 1.921-.491c.17.665.716 1.258 1.629 1.619.912.36 2.118.451 3.388.127 1.27-.325 2.284-.983 2.911-1.737s.823-1.537.653-2.203a.99.99 0 0 1 .714-1.205m17.37-4.33a.99.99 0 0 1 1.169.773c.296 1.451-.267 2.845-1.241 3.906-.975 1.062-2.409 1.857-4.057 2.194s-3.28.166-4.593-.43c-1.312-.594-2.376-1.655-2.672-3.106a.991.991 0 1 1 1.943-.398c.137.674.653 1.293 1.547 1.699.893.404 2.094.553 3.378.292s2.33-.87 2.993-1.592c.664-.723.897-1.496.76-2.169a.99.99 0 0 1 .773-1.169" clip-rule="evenodd"/><path stroke="#ff8904" stroke-linecap="round" stroke-width="1.983" d="M299.47 85.196c3.287 13.942-4.677 27.75-17.789 30.841-13.111 3.091-26.404-5.705-29.691-19.646"/><path fill="#ee0097" fill-rule="evenodd" d="M217.454 59.11c.768-1.381 2.76-1.368 3.51.024l2.812 5.223c.182.336.455.614.789.8l5.185 2.881c1.382.768 1.368 2.76-.023 3.51l-5.223 2.812a2 2 0 0 0-.799.789l-2.882 5.184c-.768 1.382-2.76 1.368-3.51-.023l-2.812-5.222a2 2 0 0 0-.789-.8l-5.185-2.882c-1.381-.768-1.368-2.76.024-3.51l5.222-2.812c.337-.181.614-.455.799-.789zm101.325-4.676c-3.737-9.942-.449-17.312 7.559-16.9 2.448.121 5.154 1.678 6.318 3.619l.597.998 1.44-.348c8.347-2.083 14.598 8.43 8.68 14.583-4.596 4.775-14.79 8.22-18.494 6.851l-.094-.036c-.276-.117-.59-.345-.929-.658-1.726-1.595-4.074-5.403-5.077-8.11" clip-rule="evenodd"/><path fill="#f04438" fill-rule="evenodd" d="M162.885 123.207a1.58 1.58 0 0 1 2.405.92l.523 2.019-2.376 1.766-2.069-.483a1.58 1.58 0 0 1-1.005-2.338 1.58 1.58 0 0 1 1.825-.71 1.57 1.57 0 0 1 .697-1.174" clip-rule="evenodd"/><ellipse cx="164.607" cy="127.137" fill="#f04438" rx="4.106" ry=".569" transform="rotate(-33.633 164.607 127.137)"/><path fill="#dbe4fa" d="M410.122 135.154a1.58 1.58 0 0 0-1.756-2.569 1.579 1.579 0 1 0-3.055.791l.601 2.037 2.713 1.193z"/><path fill="#dbe4fa" d="M410.835 137.895c-.142.281-1.898-.32-3.922-1.342-2.025-1.021-3.551-2.077-3.41-2.358.142-.28 1.898.321 3.922 1.342s3.551 2.078 3.41 2.358"/><path fill="#28a745" fill-rule="evenodd" d="M243.503 172.295c1.634-.234 1.826 1.877 2.201 3.002 1.205 3.613 1.645 7.147 1.868 10.936.053.914.133 1.819.133 2.735v1.334c0-.535.171-1.073.267-1.601.247-1.359.999-2.678 1.801-3.801 2.246-3.144 4.623-6.655 8.336-8.203 1.315-.548 3.054-1.437 4.535-1.067 4.936 1.234-.547 6.882-2.134 8.47-.601.601-1.111 1.231-1.667 1.867-.712.814-1.634 1.438-2.335 2.267-.172.204-3.067 3.069-3.067 3.069s2.667-1.787 4.267-2.534l.171-.08c2.866-1.338 5.931-2.769 9.033-3.389 1.36-.272 3.13-.672 4.202.4 1.298 1.298.066 2.813-1.134 3.468-3.154 1.72-6.628 2.811-9.937 4.135-.877.351-1.703.768-2.601 1.067-.467.156-1.314.656-1.333.667.022-.004.979-.2 1.466-.2 1.115 0 2.227-.018 3.335.067 3.119.24 5.056.303 8.154.867.758.138 4.232 2.086 3.429 3.691-1.381 2.173-18.871 3.65-26.922 3.684-11.238.047-19.266-.755-23.045-1.511-1.769-.354-6.034-1.433-6.508-3.33-.383-1.535 1.792-2.534 2.743-2.534 3.361 0 5.686.298 8.937 1.273.313.094 4.669 1.261 4.669 1.261l-5.659-2.534c-3.203-1.424-5.167-3.327-8.081-5.269-.612-.408-2.685-2.216-1.266-3.067 1.017-.61 2.604-.194 3.668 0 3.45.627 7.377 2.279 10.203 4.335a129 129 0 0 1 3.335 2.534c.369.287.745.541 1.133.8.16.106.602.469.467.334-1.309-1.31-3.026-2.275-4.401-3.536-2.516-2.307-4.806-5.139-6.937-7.802-.942-1.178-3.563-3.89-1.266-5.203 1.759-1.005 3.558.331 4.934 1.401 1.261.981 2.701 1.69 3.936 2.734 1.717 1.453 3.102 3.286 4.601 4.936 1.329 1.461 2.521 2.917 3.735 4.469-1.743-6.469-1.068-14.355-.2-16.741.468-1.289 1.366-3.177 2.934-3.401m150.359-31.947c1.079-.154 1.206 1.24 1.454 1.983.796 2.388 1.087 4.724 1.234 7.228.036.603.088 1.201.088 1.806v.882c0-.354.112-.709.176-1.058.163-.898.66-1.769 1.19-2.511 1.485-2.079 3.055-4.399 5.509-5.421.869-.362 2.019-.95 2.997-.705 3.261.815-.361 4.548-1.41 5.596-.397.398-.734.815-1.102 1.235-.47.538-1.079.95-1.543 1.498-.113.134-2.027 2.027-2.027 2.027s1.763-1.181 2.82-1.675l.113-.052c1.894-.884 3.919-1.829 5.969-2.24.899-.179 2.068-.443 2.777.265.858.858.044 1.859-.749 2.292-2.084 1.137-4.38 1.858-6.567 2.733-.58.231-1.125.507-1.718.705-.312.103-.882.44-.882.44s.643-.132.969-.132c.737 0 1.472-.012 2.205.044 2.061.159 3.34.201 5.387.573.502.092 2.797 1.378 2.267 2.439-.912 1.436-12.471 2.412-17.792 2.434-7.426.031-12.731-.498-15.229-.998-1.168-.233-3.987-.946-4.3-2.2-.254-1.014 1.185-1.675 1.813-1.675 2.221 0 3.757.197 5.905.841.207.062 3.085.834 3.085.834l-3.738-1.675c-2.117-.941-3.415-2.197-5.341-3.481-.404-.27-1.774-1.465-.837-2.027.672-.404 1.721-.128 2.424 0 2.28.414 4.876 1.505 6.743 2.864.756.549 1.47 1.105 2.203 1.675.244.189.493.357.749.528.106.07.398.31.309.221-.865-.865-2-1.503-2.908-2.336-1.663-1.525-3.176-3.396-4.584-5.157-.623-.778-2.355-2.57-.837-3.437 1.163-.664 2.351.219 3.261.926.833.648 1.784 1.116 2.6 1.806 1.135.96 2.05 2.172 3.041 3.262a51 51 0 0 1 2.468 2.952c-1.151-4.274-.705-9.485-.132-11.061.31-.852.903-2.1 1.94-2.248m-218.513-10.332c.717-.103.801.823.966 1.316.528 1.585.721 3.136.819 4.798.024.4.059.798.059 1.199v.585c0-.235.074-.471.116-.702.108-.596.438-1.176.79-1.668.985-1.379 2.028-2.919 3.656-3.598.577-.24 1.34-.63 1.989-.467 2.165.541-.239 3.018-.935 3.714-.264.264-.487.541-.732.82-.312.357-.715.63-1.023.994-.075.088-1.327 1.327-1.346 1.346.02-.014 1.176-.787 1.872-1.112l.075-.035c1.257-.587 2.601-1.214 3.962-1.486.596-.12 1.373-.295 1.843.176.569.569.029 1.234-.498 1.521-1.383.754-2.907 1.233-4.358 1.814-.385.153-.747.336-1.141.467-.207.069-.585.293-.585.293.006-.001.429-.088.644-.088.489 0 .977-.008 1.463.03 1.368.105 2.217.133 3.576.38.333.061 1.856.915 1.504 1.619-.607.953-8.277 1.6-11.809 1.615-4.929.021-8.45-.331-10.108-.662-.776-.155-2.647-.629-2.855-1.461-.168-.673.786-1.111 1.203-1.111 1.475 0 2.494.13 3.92.558.137.041 2.032.549 2.048.553l-2.481-1.111c-1.406-.625-2.267-1.459-3.545-2.311-.269-.179-1.178-.972-.556-1.346.446-.267 1.143-.085 1.61 0 1.513.276 3.236 1 4.475 1.902.502.364.976.733 1.463 1.111.162.126.327.238.497.352.07.046.263.204.204.145-.574-.574-1.328-.997-1.931-1.55-1.103-1.012-2.107-2.254-3.041-3.423-.414-.516-1.563-1.705-.556-2.281.772-.441 1.561.145 2.165.614.553.43 1.184.741 1.725 1.2.753.637 1.361 1.44 2.019 2.164a34 34 0 0 1 1.638 1.96c-.764-2.837-.469-6.295-.088-7.342.205-.566.599-1.394 1.287-1.492" clip-rule="evenodd"/></g><defs><clipPath id="a"><rect width="574" height="200" fill="#fff" rx="8"/></clipPath></defs></svg>