<svg xmlns="http://www.w3.org/2000/svg" width="574" height="200" fill="none" viewBox="0 0 574 200"><g clip-path="url(#a)"><path fill="var(--tutor-visual-gray-2, #ececed)" fill-rule="evenodd" d="M282.136 152.461c-36.541 0-66.163 2.874-66.164 6.42 0 3.545 29.623 6.42 66.164 6.42 36.542 0 66.164-2.875 66.164-6.42-.001-3.546-29.623-6.42-66.164-6.42m112.242 6.258c-11.472 0-20.772.902-20.773 2.015 0 1.114 9.301 2.016 20.773 2.016 11.473 0 20.774-.902 20.774-2.016-.001-1.113-9.301-2.015-20.774-2.015m-179.796-5.123c-1.427-2.269-4.648-6.319-6.126-4.366s3.468 3.725 6.126 4.366m141.872-11.852c-2.513-3.321-7.99 3.563-10.414 7.42 4.517-1.089 12.925-4.099 10.414-7.42m-142.413 4.788c-2.421-3.851-7.89-10.724-10.398-7.408s5.887 6.32 10.398 7.408m-38.342-4.891c-8.241 0-14.922.648-14.922 1.448.001.799 6.681 1.447 14.922 1.447s14.921-.648 14.922-1.447c0-.8-6.681-1.448-14.922-1.448m188.941-17.076c-4.264-5.637-13.559 6.047-17.674 12.593 7.668-1.849 21.938-6.956 17.674-12.593" clip-rule="evenodd"/><path fill="var(--tutor-visual-orange-1, #ff8904)" d="M327.574 119.562c25.912 3.35 24.392-21.154 20.381-30.332l-44.289 10.026c5.896 14.818 15.736 46.556 20.118 44.574 6.479-2.93 6.458-10.395 5.964-12.354z"/><path fill="var(--tutor-visual-exception-2, #f4f433)" d="M263.274 44.53c9.252-2.377 18.68 3.197 21.06 12.448 1.353 5.268.127 10.587-2.887 14.632-.66.887.302 2.663 1.373 2.388l20.205-5.193a6.644 6.644 0 0 1 8.086 4.78l3.365 13.093c.229.892 1.493 1.053 2.031.307a17.2 17.2 0 0 1 9.708-6.623c9.254-2.378 18.682 3.195 21.06 12.448 2.376 9.253-3.196 18.682-12.448 21.06a17.18 17.18 0 0 1-11.703-1.137c-.831-.396-1.86.355-1.631 1.246l5.382 20.944a6.643 6.643 0 0 1-4.779 8.086l-9.775 2.67c-2.154.588-4.335-.736-5.379-2.71-3.686-6.966-11.858-10.878-19.774-8.843-7.914 2.034-13.153 9.405-13.016 17.284.039 2.235-1.236 4.448-3.409 4.969l-9.986 2.395a6.643 6.643 0 0 1-8.086-4.78l-5.151-20.04c-.228-.887-1.481-1.052-2.021-.312a17.2 17.2 0 0 1-9.64 6.54c-9.253 2.378-18.681-3.195-21.059-12.448s3.195-18.681 12.448-21.059a17.2 17.2 0 0 1 11.599 1.082c.83.388 1.848-.361 1.62-1.248l-3.561-13.854a6.643 6.643 0 0 1 4.78-8.086l18.676-4.8c1.071-.275 1.057-2.296.051-2.754-4.592-2.09-8.233-6.157-9.587-11.425-2.376-9.252 3.196-18.681 12.448-21.06"/><path fill="var(--tutor-visual-orange-1, #ff8904)" d="M262.696 43.315c8.269-2.48 18.034 2.05 21.502 10.203q.575 1.292.948 2.662c1.478 5.262.412 11.201-2.819 15.685a1 1 0 0 0 .036.096q9.915-2.683 19.838-5.332c4.29-1.247 9.242 1.617 10.291 6.01q1.52 5.74 3.029 11.48c2.531-2.988 6.01-5.188 9.812-6.16 6.235-1.68 13.266.117 17.962 4.554a19.27 19.27 0 0 1 5.526 9.31c2.794 9.897-3.875 21.171-13.89 23.483-3.766.982-7.84.749-11.482-.61l4.925 19.252c1.239 4.411-1.732 9.418-6.187 10.446l.028-.007-9.78 2.654c-3.27.878-6.286-1.179-7.569-3.669-3.171-6.206-10.874-9.762-17.626-7.935-6.798 1.615-11.865 8.441-11.678 15.453.07 2.767-1.578 5.961-4.793 6.733l-9.994 2.366.027-.007c-4.31 1.205-9.193-1.704-10.188-6.049q-2.409-9.5-4.814-18.999c-2.531 3.084-6.069 5.343-9.935 6.305-9.7 2.704-20.679-3.865-22.894-13.625-2.683-9.645 3.853-20.549 13.547-22.744 4.043-1.037 8.435-.632 12.217 1.095l-3.393-13.497c-1.118-4.035 1.614-8.587 5.666-9.505q9.332-2.344 18.665-4.684l.002-.002a.75.75 0 0 0 .068-.33c.016-.297-.175-.538-.145-.49-4.96-2.259-8.779-6.851-10.061-12.126a18.3 18.3 0 0 1-.47-2.738c-.96-8.66 5.215-17.346 13.629-19.278l.187.726c-9.251 2.379-14.823 11.808-12.448 21.06 1.354 5.267 4.996 9.335 9.588 11.425 1.006.458 1.019 2.48-.052 2.755l-18.676 4.8a6.643 6.643 0 0 0-4.779 8.085l3.56 13.854c.228.887-.79 1.636-1.62 1.248a17.2 17.2 0 0 0-11.599-1.082c-9.252 2.378-14.825 11.806-12.448 21.059 2.378 9.253 11.806 14.826 21.059 12.448a17.18 17.18 0 0 0 9.64-6.541c.541-.74 1.794-.575 2.022.313l5.15 20.04a6.643 6.643 0 0 0 8.086 4.779l9.987-2.394c2.173-.521 3.447-2.735 3.408-4.969-.137-7.879 5.102-15.25 13.016-17.285 7.916-2.034 16.088 1.878 19.775 8.844 1.044 1.973 3.225 3.297 5.378 2.709l9.775-2.669a6.644 6.644 0 0 0 4.78-8.086l-5.383-20.944c-.229-.891.8-1.642 1.631-1.246a17.18 17.18 0 0 0 11.703 1.137c9.252-2.378 14.824-11.808 12.448-21.06-2.378-9.254-11.806-14.826-21.06-12.448a17.2 17.2 0 0 0-9.707 6.623c-.539.746-1.802.584-2.031-.307l-3.366-13.094a6.643 6.643 0 0 0-8.085-4.78l-20.206 5.194c-1.071.274-2.032-1.502-1.372-2.388 3.013-4.045 4.24-9.365 2.886-14.632-2.38-9.251-11.808-14.826-21.06-12.448z"/><path fill="var(--tutor-visual-orange-1, #ff8904)" d="M247.145 121.871c.09.186.174.37.254.561 1.44 3.434 1.263 7.515-.267 11.142-.088.2-.19.411-.297.613a.88.88 0 0 1-.591.462 1.06 1.06 0 0 1-.789-.151 1.06 1.06 0 0 1-.476-.647.88.88 0 0 1 .164-.733c.105-.135.215-.291.315-.442 1.815-2.874 2.702-6.64 1.845-10.213a12 12 0 0 0-.158-.592M317.526 105.465q-.008.31.002.622c.124 3.782 2.031 7.572 5.19 10.395.181.156.384.317.593.469.423.331.934.457 1.443.306.509-.149.974-.562 1.27-1.105s.391-1.158.24-1.665c-.149-.51-.531-.871-1.039-1.048a5 5 0 0 1-.455-.154c-2.926-1.23-5.767-3.777-7.046-7.235a12 12 0 0 1-.198-.585"/><path fill="var(--tutor-visual-orange-1, #ff8904)" fill-rule="evenodd" d="M271.759 89.149a.99.99 0 0 1 1.207.714c.366 1.435-.128 2.855-1.049 3.963-.922 1.108-2.316 1.972-3.946 2.389s-3.267.327-4.607-.203-2.454-1.538-2.821-2.973a.991.991 0 1 1 1.92-.491c.17.665.717 1.258 1.63 1.619.911.36 2.118.451 3.388.127 1.27-.325 2.284-.983 2.911-1.737s.823-1.537.653-2.203a.99.99 0 0 1 .714-1.205m17.37-4.33a.99.99 0 0 1 1.169.773c.296 1.451-.267 2.845-1.242 3.906-.975 1.062-2.408 1.857-4.056 2.194s-3.28.166-4.593-.43c-1.312-.594-2.377-1.655-2.673-3.106a.993.993 0 0 1 1.943-.397c.138.672.654 1.292 1.548 1.698.893.404 2.093.553 3.378.292 1.284-.262 2.33-.87 2.993-1.592.664-.723.897-1.496.76-2.169a.99.99 0 0 1 .773-1.169" clip-rule="evenodd"/><path fill="var(--tutor-visual-orange-1, #ff8904)" d="M251.025 96.618a.99.99 0 1 1 1.929-.455c3.175 13.465 15.976 21.861 28.499 18.909 12.524-2.953 20.227-16.183 17.052-29.649a.99.99 0 1 1 1.929-.454c3.4 14.418-4.826 28.804-18.526 32.034-13.699 3.229-27.484-5.967-30.883-20.385"/><path fill="#ee0097" fill-rule="evenodd" d="M217.454 59.11c.768-1.381 2.76-1.368 3.51.024l2.812 5.223c.181.336.455.614.789.8l5.185 2.881c1.381.768 1.368 2.76-.024 3.51l-5.222 2.812a2 2 0 0 0-.799.789l-2.882 5.184c-.768 1.382-2.76 1.368-3.51-.023l-2.812-5.222a2 2 0 0 0-.789-.8l-5.185-2.882c-1.382-.768-1.368-2.76.023-3.51l5.223-2.812c.336-.181.613-.455.799-.789zm101.325-4.676c-3.738-9.942-.449-17.312 7.559-16.9 2.447.121 5.153 1.678 6.318 3.619l.597.998 1.44-.348c8.347-2.083 14.598 8.43 8.68 14.583-4.596 4.775-14.79 8.22-18.494 6.851l-.094-.036c-.276-.117-.59-.345-.929-.658-1.726-1.595-4.075-5.403-5.077-8.11" clip-rule="evenodd"/><path fill="#f04438" fill-rule="evenodd" d="M162.885 123.207a1.58 1.58 0 0 1 2.405.92l.523 2.019-2.376 1.766-2.069-.483a1.58 1.58 0 0 1-1.005-2.338 1.58 1.58 0 0 1 1.825-.71 1.57 1.57 0 0 1 .697-1.174" clip-rule="evenodd"/><ellipse cx="164.606" cy="127.137" fill="#f04438" rx="4.106" ry=".569" transform="rotate(-33.633 164.606 127.137)"/><path fill="var(--tutor-visual-brand-3, #dbe4fa)" d="M410.122 135.154a1.58 1.58 0 0 0-.387-2.545 1.57 1.57 0 0 0-1.369-.024 1.579 1.579 0 1 0-3.056.791l.602 2.037 2.712 1.193z"/><path fill="var(--tutor-visual-brand-3, #dbe4fa)" d="M410.834 137.895c-.141.281-1.897-.32-3.922-1.342-2.024-1.021-3.55-2.077-3.409-2.358.142-.28 1.898.321 3.922 1.342s3.551 2.078 3.409 2.358"/><path fill="var(--tutor-visual-success-1, #28a745)" fill-rule="evenodd" d="M243.503 172.295c1.634-.234 1.826 1.877 2.201 3.002 1.204 3.613 1.644 7.147 1.867 10.936.054.914.134 1.819.134 2.735v1.334c0-.535.171-1.073.267-1.601.247-1.359.999-2.678 1.801-3.801 2.246-3.144 4.622-6.655 8.335-8.203 1.315-.548 3.055-1.437 4.536-1.067 4.935 1.234-.547 6.882-2.134 8.47-.601.601-1.111 1.231-1.667 1.867-.713.814-1.634 1.438-2.335 2.267-.173.204-3.068 3.069-3.068 3.069s2.668-1.787 4.268-2.534l.171-.08c2.866-1.338 5.93-2.769 9.033-3.389 1.36-.272 3.129-.672 4.201.4 1.298 1.298.067 2.813-1.133 3.468-3.154 1.72-6.629 2.811-9.937 4.135-.877.351-1.703.768-2.602 1.067-.466.156-1.314.656-1.333.667.023-.004.98-.2 1.467-.2 1.115 0 2.227-.018 3.335.067 3.119.24 5.056.303 8.154.867.758.138 4.232 2.086 3.429 3.691-1.381 2.173-18.871 3.65-26.923 3.684-11.237.047-19.265-.755-23.045-1.511-1.768-.354-6.033-1.433-6.507-3.33-.384-1.535 1.792-2.534 2.743-2.534 3.361 0 5.685.298 8.936 1.273.313.094 4.669 1.261 4.669 1.261l-5.658-2.534c-3.203-1.424-5.167-3.327-8.081-5.269-.612-.408-2.685-2.216-1.267-3.067 1.017-.61 2.605-.194 3.668 0 3.451.627 7.377 2.279 10.203 4.335 1.144.831 2.226 1.671 3.335 2.534.37.287.746.541 1.134.8.159.106.602.469.467.334-1.309-1.31-3.026-2.275-4.401-3.536-2.517-2.307-4.806-5.139-6.937-7.802-.942-1.178-3.563-3.89-1.266-5.203 1.759-1.005 3.558.331 4.934 1.401 1.261.981 2.701 1.69 3.936 2.734 1.717 1.453 3.102 3.286 4.601 4.936 1.329 1.461 2.521 2.917 3.735 4.469-1.743-6.469-1.068-14.355-.201-16.741.469-1.289 1.367-3.177 2.935-3.401m150.358-31.947c1.08-.154 1.207 1.24 1.454 1.983.796 2.388 1.087 4.724 1.235 7.228.035.603.088 1.201.088 1.806v.882c0-.354.112-.709.176-1.058.163-.898.66-1.769 1.19-2.511 1.484-2.079 3.055-4.399 5.509-5.421.869-.362 2.018-.95 2.997-.705 3.261.815-.361 4.548-1.41 5.596-.398.398-.734.815-1.102 1.235-.471.538-1.079.95-1.543 1.498-.114.134-2.027 2.027-2.027 2.027s1.762-1.181 2.82-1.675l.112-.052c1.895-.884 3.92-1.829 5.97-2.24.898-.179 2.068-.443 2.777.265.857.858.044 1.859-.75 2.292-2.084 1.137-4.38 1.858-6.566 2.733-.58.231-1.125.507-1.719.705-.311.103-.882.44-.882.44s.644-.132.97-.132c.737 0 1.472-.012 2.204.044 2.061.159 3.341.201 5.388.573.501.092 2.796 1.378 2.267 2.439-.912 1.436-12.472 2.412-17.792 2.434-7.426.031-12.731-.498-15.229-.998-1.168-.233-3.987-.946-4.301-2.2-.253-1.014 1.185-1.675 1.814-1.675 2.221 0 3.757.197 5.905.841.207.062 3.085.834 3.085.834l-3.738-1.675c-2.117-.941-3.415-2.197-5.341-3.481-.404-.27-1.775-1.465-.837-2.027.672-.404 1.721-.128 2.424 0 2.28.414 4.875 1.505 6.743 2.864.756.549 1.47 1.105 2.203 1.675.244.189.493.357.749.528.105.07.398.31.309.221-.865-.865-2-1.503-2.908-2.336-1.663-1.525-3.176-3.396-4.584-5.157-.623-.778-2.355-2.57-.837-3.437 1.162-.664 2.351.219 3.26.926.834.648 1.785 1.116 2.601 1.806 1.135.96 2.05 2.172 3.041 3.262a51 51 0 0 1 2.468 2.952c-1.152-4.274-.705-9.485-.132-11.061.31-.852.903-2.1 1.939-2.248m-218.512-10.332c.716-.103.801.823.966 1.316.528 1.585.721 3.136.819 4.798.023.4.058.798.058 1.199v.585c0-.235.075-.471.117-.702.108-.596.438-1.176.79-1.668.985-1.379 2.027-2.919 3.656-3.598.577-.24 1.34-.63 1.989-.467 2.165.541-.239 3.018-.935 3.714-.264.264-.488.541-.732.82-.312.357-.716.63-1.023.994-.075.088-1.327 1.327-1.346 1.346.02-.014 1.176-.787 1.872-1.112l.074-.035c1.257-.587 2.601-1.214 3.962-1.486.597-.12 1.374-.295 1.844.176.569.569.028 1.234-.498 1.521-1.383.754-2.907 1.233-4.358 1.814-.385.153-.747.336-1.141.467-.207.069-.585.293-.585.293.006-.001.429-.088.644-.088.488 0 .976-.008 1.462.03 1.368.105 2.218.133 3.577.38.333.061 1.855.915 1.504 1.619-.607.953-8.278 1.6-11.809 1.615-4.929.021-8.451-.331-10.108-.662-.776-.155-2.647-.629-2.855-1.461-.168-.673.786-1.111 1.203-1.111 1.474 0 2.494.13 3.92.558.136.041 2.032.549 2.048.553l-2.482-1.111c-1.405-.625-2.266-1.459-3.544-2.311-.269-.179-1.178-.972-.556-1.346.446-.267 1.143-.085 1.609 0 1.514.276 3.236 1 4.476 1.902.501.364.976.733 1.463 1.111.162.126.327.238.497.352.07.046.263.204.204.145-.574-.574-1.328-.997-1.931-1.55-1.103-1.012-2.107-2.254-3.042-3.423-.413-.516-1.563-1.705-.555-2.281.771-.441 1.561.145 2.165.614.553.43 1.184.741 1.725 1.2.753.637 1.361 1.44 2.019 2.164a34 34 0 0 1 1.637 1.96c-.764-2.837-.468-6.295-.087-7.342.205-.566.599-1.394 1.287-1.492" clip-rule="evenodd"/></g><defs><clipPath id="a"><rect width="574" height="200" fill="var(--tutor-visual-gray-1, #ffffff)" rx="8"/></clipPath></defs></svg>