<svg xmlns="http://www.w3.org/2000/svg" width="80" height="80" fill="none" viewBox="0 0 80 80"><ellipse cx="37.959" cy="70.357" fill="var(--tutor-visual-gray-2, #ececed)" rx="32.54" ry="5.132"/><path fill="var(--tutor-visual-exception-1, #cbfd78)" d="M5.415 37.05c0 17.972 14.568 32.54 32.54 32.54 17.97 0 32.539-14.568 32.539-32.54 0-17.97-14.569-32.539-32.54-32.539S5.414 19.08 5.414 37.051"/><path fill="var(--tutor-visual-success-1, #28a745)" d="M5.415 37.051c0-17.97 14.568-32.54 32.539-32.54s32.54 14.569 32.54 32.54-14.57 32.54-32.54 32.54C20.264 69.59 5.87 55.473 5.426 37.89zm-1.037 0a32.5 32.5 0 0 0 1.044 10.57c3.536 14.025 17.586 24.987 32.532 24.734 18.82.46 35.709-16.597 35.112-35.304.32-18.728-16.722-35.265-35.112-34.536C23.358 2.51 9.757 12.907 5.802 26.603A33.5 33.5 0 0 0 4.378 37.05"/><circle cx="66.231" cy="63.596" r="1.472" fill="var(--tutor-visual-success-1, #28a745)"/><circle cx="71.605" cy="58.762" r="2.981" fill="var(--tutor-visual-success-1, #28a745)"/><path fill="var(--tutor-visual-success-1, #28a745)" d="M33.546 54.14a3.6 3.6 0 0 1-2.871-1.429l-9.233-12.199a3.59 3.59 0 0 1 .698-5.041 3.59 3.59 0 0 1 5.047.698l6.074 8.02 15.274-24.527a3.607 3.607 0 0 1 4.964-1.15 3.6 3.6 0 0 1 1.152 4.962L36.605 52.44a3.59 3.59 0 0 1-2.894 1.695z"/></svg>