<svg xmlns="http://www.w3.org/2000/svg" width="80" height="80" fill="none"><path fill="var(--tutor-visual-exception-2, #f4f433)" d="M16.11 27.24a.35.35 0 0 1 .213.077c.066.05.124.118.177.189q.066.087.125.176.532.792.543 1.592.01.8-.499 1.607a4 4 0 0 1-.119.18 1 1 0 0 1-.173.194.35.35 0 0 1-.21.082.35.35 0 0 1-.211-.076 1 1 0 0 1-.177-.19 5 5 0 0 1-.125-.175q-.533-.793-.543-1.594-.01-.8.499-1.607.056-.09.119-.18a1 1 0 0 1 .172-.193.35.35 0 0 1 .21-.082m5.71-.478c.083.01.167.04.249.075q.101.043.196.09.857.42 1.267 1.107t.372 1.64q-.004.108-.014.217a1 1 0 0 1-.052.254.35.35 0 0 1-.14.175.35.35 0 0 1-.222.04 1 1 0 0 1-.248-.075 4 4 0 0 1-.196-.09q-.857-.42-1.267-1.108-.41-.687-.372-1.64.004-.106.014-.215a1 1 0 0 1 .052-.254.35.35 0 0 1 .14-.176.35.35 0 0 1 .222-.04m-11.663-.39a.35.35 0 0 1 .22.045q.094.061.137.179c.029.078.04.166.047.255q.007.11.01.216.018.953-.405 1.632-.424.68-1.289 1.082-.096.045-.198.086a1 1 0 0 1-.249.07.35.35 0 0 1-.221-.044.35.35 0 0 1-.137-.179 1 1 0 0 1-.047-.255 4 4 0 0 1-.01-.216q-.018-.954.405-1.633.425-.678 1.29-1.082.096-.045.197-.085a1 1 0 0 1 .25-.07m3.643-15.68c3.99-1.824 11.417.988 10.677 7.981-.18 1.699-.98 2.712-1.882 3.864-.758.967-2.879 2.502-4.058 2.84-2.238.64-4.075.588-6.597-.402C7.165 23.1 7.188 16.54 9.764 13.36c1.333-1.646 2.303-2.021 4.036-2.668m12.246 11.865q.95-.084 1.657.293.705.376 1.168 1.212.05.092.1.191a1 1 0 0 1 .086.244.35.35 0 0 1-.03.223.35.35 0 0 1-.168.15 1 1 0 0 1-.251.064q-.11.015-.215.023-.951.084-1.657-.293-.706-.375-1.167-1.21a4 4 0 0 1-.1-.192 1 1 0 0 1-.087-.245.35.35 0 0 1 .03-.223.35.35 0 0 1 .17-.15 1 1 0 0 1 .25-.064q.11-.015.214-.023M4.35 22.356q.714-.363 1.663-.26.106.011.214.028a1 1 0 0 1 .25.07.35.35 0 0 1 .166.152q.049.1.024.224a1 1 0 0 1-.09.243 4 4 0 0 1-.104.19q-.478.825-1.192 1.187-.714.36-1.662.26a4 4 0 0 1-.213-.029 1 1 0 0 1-.25-.07.35.35 0 0 1-.166-.152.35.35 0 0 1-.026-.223 1 1 0 0 1 .092-.242q.05-.098.104-.19.477-.826 1.19-1.188m-.002-5.825q.8-.019 1.612.48.09.057.181.118c.073.05.143.106.195.17a.35.35 0 0 1 .085.209.35.35 0 0 1-.074.213 1 1 0 0 1-.186.18 4 4 0 0 1-.175.125q-.786.54-1.586.562-.8.02-1.613-.48a4 4 0 0 1-.181-.118 1 1 0 0 1-.195-.17.35.35 0 0 1-.085-.209.35.35 0 0 1 .074-.212 1 1 0 0 1 .186-.18q.088-.066.175-.126.788-.54 1.587-.562m23.063-.586q.8-.019 1.612.48.09.057.18.118c.074.05.144.106.196.17a.35.35 0 0 1 .085.209.35.35 0 0 1-.074.213 1 1 0 0 1-.187.18 4 4 0 0 1-.175.126q-.786.54-1.586.561-.8.02-1.613-.48a4 4 0 0 1-.18-.118 1 1 0 0 1-.196-.17.35.35 0 0 1-.085-.209.35.35 0 0 1 .074-.212 1 1 0 0 1 .187-.18 5 5 0 0 1 .175-.126q.786-.54 1.587-.562M4.25 10.963q.95-.083 1.657.292.705.376 1.168 1.213.05.093.1.19c.038.08.072.164.086.245a.35.35 0 0 1-.03.223.35.35 0 0 1-.168.15 1 1 0 0 1-.251.064q-.108.014-.215.023-.95.084-1.657-.293-.706-.376-1.167-1.212a4 4 0 0 1-.1-.19 1 1 0 0 1-.087-.245.35.35 0 0 1 .03-.223.35.35 0 0 1 .17-.15 1 1 0 0 1 .25-.064q.11-.014.214-.023m22.11.209q.714-.362 1.663-.26.106.011.214.029a1 1 0 0 1 .25.069.35.35 0 0 1 .166.152q.049.1.025.224a1 1 0 0 1-.092.243 5 5 0 0 1-.103.19q-.478.826-1.192 1.188-.713.361-1.662.259a4 4 0 0 1-.213-.029 1 1 0 0 1-.25-.069.35.35 0 0 1-.167-.152.35.35 0 0 1-.024-.224 1 1 0 0 1 .09-.242q.051-.097.104-.19.478-.826 1.192-1.188m-17.2-5.605c.083.01.168.04.25.075q.1.044.195.09.856.42 1.267 1.107t.373 1.64q-.005.107-.015.216a1 1 0 0 1-.052.254.35.35 0 0 1-.14.176.35.35 0 0 1-.222.04 1 1 0 0 1-.248-.075 4 4 0 0 1-.196-.09q-.857-.42-1.267-1.108-.41-.687-.372-1.64.004-.106.014-.216a1 1 0 0 1 .051-.254.35.35 0 0 1 .14-.175.35.35 0 0 1 .223-.04m14.052-.148a.35.35 0 0 1 .221.045.35.35 0 0 1 .137.179c.029.077.04.166.047.255q.007.109.01.215.018.954-.406 1.633t-1.288 1.082a4 4 0 0 1-.198.086 1 1 0 0 1-.25.07.35.35 0 0 1-.22-.044.35.35 0 0 1-.138-.18 1 1 0 0 1-.047-.254 5 5 0 0 1-.01-.216q-.017-.954.406-1.633.423-.678 1.29-1.082.095-.044.196-.086a1 1 0 0 1 .25-.07M15.79 4.178a.35.35 0 0 1 .212.076c.067.05.124.118.178.19q.066.087.125.175.531.793.542 1.592.012.8-.498 1.607-.056.09-.119.18a1 1 0 0 1-.173.195.35.35 0 0 1-.21.082.35.35 0 0 1-.212-.077 1 1 0 0 1-.176-.19 4 4 0 0 1-.125-.175q-.532-.792-.543-1.594-.01-.8.499-1.606.056-.09.119-.18a1 1 0 0 1 .172-.193.35.35 0 0 1 .21-.082"/><path fill="var(--tutor-visual-orange-1, #ff8904)" d="M21.406 15.582a.34.34 0 0 1 .407.252c.773 3.278-1.096 6.56-4.227 7.299-3.13.738-6.268-1.364-7.04-4.642a.34.34 0 0 1 .659-.156c.695 2.952 3.497 4.78 6.225 4.137s4.418-3.53 3.723-6.482a.34.34 0 0 1 .253-.408m-6.538-.218a.34.34 0 0 1 .412.245c.093.366-.034.72-.257.989a1.8 1.8 0 0 1-.944.573 1.8 1.8 0 0 1-1.102-.05c-.324-.13-.607-.379-.7-.745a.339.339 0 1 1 .657-.168c.026.103.114.212.293.282.178.07.422.09.684.024.263-.067.467-.203.59-.35s.149-.285.122-.388a.34.34 0 0 1 .245-.412m3.881-.97a.34.34 0 0 1 .4.264c.075.37-.07.718-.305.975-.236.258-.58.448-.97.527s-.781.04-1.1-.104c-.317-.144-.587-.408-.662-.779a.339.339 0 1 1 .664-.134c.021.104.105.215.28.295.174.079.417.111.682.057s.476-.179.605-.32c.13-.141.163-.277.142-.38a.34.34 0 0 1 .264-.401"/><path fill="var(--tutor-visual-success-1, #28a745)" d="M60.054 33.598c-6.596-12.829-26.33-12.907-34.543-3.139l2.274-7.218 12.207-5.242 18.049 3.596 11.393 19.524-5.936 4.632c-3.976-2.232-10.573-5.563-11.85-7.402-2.38-3.425 1.188-6.642 3.221-6.411 2.033.23 3.882 1.11 5.185 1.66"/><path fill="var(--tutor-visual-exception-1, #cbfd78)" d="M45.858 68.296a3.12 3.12 0 0 1-3.119 3.118c-15.77 0-28.678-12.496-28.678-28.07S26.97 15.272 42.739 15.272c12.607 0 23.387 7.987 27.203 19.148.107.312.534.362.702.078l2.07-3.503a3.12 3.12 0 1 1 5.374 3.174l-6.779 11.457a3.12 3.12 0 0 1-4.217 1.13l-11.736-6.616a3.12 3.12 0 0 1 3.066-5.435l5.352 3.018c.29.164.63-.098.536-.418-2.685-9.086-11.277-15.795-21.567-15.795-12.467 0-22.444 9.843-22.444 21.833s9.977 21.833 22.44 21.833a3.12 3.12 0 0 1 3.12 3.118"/><path fill="var(--tutor-visual-success-1, #28a745)" d="M45.858 68.295a3.12 3.12 0 0 0-3.12-3.118c-12.463 0-22.439-9.844-22.439-21.833 0-11.99 9.977-21.833 22.444-21.833 10.29 0 18.881 6.71 21.567 15.795.094.32-.246.581-.536.418l-5.353-3.018a3.12 3.12 0 1 0-3.064 5.436l11.735 6.616a3.12 3.12 0 0 0 4.217-1.13l6.778-11.459a3.12 3.12 0 0 0-5.373-3.173l-2.07 3.503c-.168.284-.596.234-.702-.078-3.816-11.16-14.596-19.148-27.203-19.148-15.77 0-28.678 12.497-28.678 28.07 0 15.575 12.908 28.071 28.678 28.071a3.12 3.12 0 0 0 3.119-3.119m.382 0a3.53 3.53 0 0 1-.997 2.505 3.57 3.57 0 0 1-2.504 1.078 29.5 29.5 0 0 1-9.91-1.538C21.55 66.7 13 55.43 13.112 43.344c-.11-8.469 3.898-16.847 10.443-22.206 5.331-4.443 12.251-6.905 19.183-6.878 11.882-.157 23.447 7.55 27.705 18.661l1.435-2.418a4.1 4.1 0 0 1 2.503-1.878 4.1 4.1 0 0 1 3.095.442 4.1 4.1 0 0 1 1.874 2.5 4.1 4.1 0 0 1-.442 3.088l-6.801 11.443a4.06 4.06 0 0 1-2.438 1.846 4.05 4.05 0 0 1-3.028-.388q-5.86-3.322-11.72-6.645a4 4 0 0 1-1.998-3.968 3.99 3.99 0 0 1 2.895-3.356 3.99 3.99 0 0 1 3.023.373l4.309 2.446c-2.913-8.334-11.507-14.266-20.408-14.159-11.354-.344-22.05 9.572-21.855 21.097-.135 8.126 5.038 15.947 12.452 19.324a22.5 22.5 0 0 0 9.398 2.099 3.517 3.517 0 0 1 3.501 3.528"/><path fill="var(--tutor-visual-brand-3, #dbe4fa)" d="M58.453 62.75a2.085 2.085 0 0 1 .759 4.027h3.154c.442 0 .8.358.8.8v1.948a2.086 2.086 0 1 1 0 2.763v2.925c0 .442-.358.8-.8.8l-.956.015c-.415.007-.743-.338-.89-.726a2.12 2.12 0 0 0-1.966-1.373c-.893 0-1.66.577-1.96 1.374-.147.388-.476.733-.89.726l-.974-.015a.8.8 0 0 1-.8-.801v-2.809a2.08 2.08 0 0 1-2.438.49 2.1 2.1 0 0 1-.933-.606v2.925c0 .442-.359.8-.8.8l-.957.015c-.414.007-.742-.338-.89-.726a2.12 2.12 0 0 0-1.965-1.373c-.893 0-1.661.577-1.961 1.374-.146.388-.475.733-.89.726l-.973-.015a.8.8 0 0 1-.801-.801v-2.809a2.078 2.078 0 0 1-3.194-.116v2.925c0 .442-.358.8-.8.8l-.956.015c-.415.007-.743-.338-.89-.726a2.12 2.12 0 0 0-1.966-1.373c-.893 0-1.66.577-1.96 1.374-.147.388-.476.733-.89.726l-.974-.015a.8.8 0 0 1-.8-.801v-2.809a2.08 2.08 0 0 1-1.549.692 2.086 2.086 0 0 1 0-4.171c.615 0 1.166.268 1.548.691v-2.039c0-.442.359-.8.8-.8h2.967a2.084 2.084 0 1 1 2.843-1.942c0 .884-.551 1.638-1.328 1.942h3.155c.442 0 .8.358.8.8v1.948a2.08 2.08 0 0 1 3.194.087v-2.035c0-.442.359-.8.8-.8h2.966a2.084 2.084 0 1 1 2.843-1.942c0 .884-.55 1.638-1.327 1.942h3.154c.442 0 .801.358.801.8v1.948a2.08 2.08 0 0 1 2.443-.504c.361.113.68.32.927.595v-2.039c0-.442.36-.8.801-.8h2.966a2.084 2.084 0 0 1 .757-4.028m-18.338-8.665a1.36 1.36 0 0 1 .494 2.625h2.057c.288 0 .521.234.521.523v1.27a1.36 1.36 0 1 1 0 1.8v1.906a.52.52 0 0 1-.521.523l-.362.005c-.415.006-.74-.352-.958-.706a1.38 1.38 0 0 0-1.166-.659c-.49 0-.92.267-1.162.66-.217.354-.544.712-.959.705l-.371-.005a.52.52 0 0 1-.522-.523v-1.83a1.36 1.36 0 1 1 0-1.818v-1.328c0-.289.234-.523.522-.523h1.933a1.359 1.359 0 0 1 .494-2.625m12.521 0a1.36 1.36 0 0 1 .494 2.625h2.057c.288 0 .522.234.522.523v1.27a1.36 1.36 0 1 1 0 1.8v1.906a.52.52 0 0 1-.522.523l-.361.005c-.415.006-.74-.352-.958-.706a1.38 1.38 0 0 0-1.166-.659c-.49 0-.921.267-1.162.66-.218.354-.544.712-.96.705l-.37-.005a.52.52 0 0 1-.522-.523v-1.83a1.36 1.36 0 1 1 0-1.818v-1.328c0-.289.233-.523.521-.523h1.933a1.359 1.359 0 0 1 .494-2.625"/></svg>