<svg xmlns="http://www.w3.org/2000/svg" width="80" height="80" fill="none" viewBox="0 0 80 80"><path fill="var(--tutor-visual-exception-1, #cbfd78)" d="M11 3.317a.8.8 0 0 1 .8-.8h56.4a.8.8 0 0 1 .8.8v56.4a.8.8 0 0 1-.8.8H11.8a.8.8 0 0 1-.8-.8z"/><path fill="var(--tutor-visual-success-1, #28a745)" d="M68.2.518c1.493-.034 2.834 1.305 2.8 2.799q0 28.2-.133 56.4c.03 1.423-1.248 2.695-2.667 2.661q-28.2-.136-56.4-.405c-1.204.023-2.276-1.06-2.244-2.256a11962 11962 0 0 1 .676-56.4c-.013-.837.742-1.576 1.568-1.55v.75a.8.8 0 0 0-.8.8v56.4a.8.8 0 0 0 .8.8h56.4a.8.8 0 0 0 .8-.8v-56.4a.8.8 0 0 0-.8-.8H11.8v-.75A1333 1333 0 0 1 68.2.517"/><rect width="3.2" height="45.499" x="17.73" y="16.024" fill="var(--tutor-visual-success-1, #28a745)" rx="1.6" transform="rotate(-90 17.73 16.024)"/><circle cx="4.185" cy="4.185" r="4.185" fill="var(--tutor-visual-success-1, #28a745)" transform="matrix(-1 0 0 1 59.66 10.24)"/><rect width="3.2" height="45.499" x="17.73" y="28.798" fill="var(--tutor-visual-success-1, #28a745)" rx="1.6" transform="rotate(-90 17.73 28.798)"/><circle cx="4.185" cy="4.185" r="4.185" fill="var(--tutor-visual-success-1, #28a745)" transform="matrix(-1 0 0 1 44.663 23.013)"/><rect width="3.2" height="45.499" fill="var(--tutor-visual-success-1, #28a745)" rx="1.6" transform="matrix(0 -1 -1 0 63.227 42.243)"/><circle cx="25.481" cy="40.643" r="4.185" fill="var(--tutor-visual-success-1, #28a745)"/><path fill="var(--tutor-visual-gray-1, #ffffff)" d="M25.873 63.357c0 7.802 6.325 14.126 14.126 14.126 7.802 0 14.126-6.324 14.126-14.126s-6.324-14.125-14.126-14.125-14.126 6.324-14.126 14.125"/><path fill="var(--tutor-visual-success-1, #28a745)" d="M25.873 63.358c0-7.802 6.325-14.126 14.126-14.126s14.126 6.324 14.126 14.126c0 7.8-6.325 14.126-14.126 14.126-7.68 0-13.928-6.13-14.121-13.762zm-.6 0a14.1 14.1 0 0 0 .375 4.663C27.104 74.243 33.337 79.2 40 79.083c8.385.206 15.9-7.405 15.615-15.725.125-8.333-7.479-15.642-15.615-15.282-6.46.027-12.433 4.658-14.13 10.69a14.7 14.7 0 0 0-.596 4.592"/><path fill="var(--tutor-visual-success-1, #28a745)" fill-rule="evenodd" d="M39.264 54.736a8.65 8.65 0 0 1 7.768 3.577v-1.716a.811.811 0 0 1 1.622 0v4.089a.51.51 0 0 1-.509.509h-4.088a.812.812 0 0 1 0-1.623h1.868a7.032 7.032 0 0 0-12.747 2.082.812.812 0 1 1-1.574-.394 8.65 8.65 0 0 1 7.66-6.523zm-3.678 16.066a8.654 8.654 0 0 0 12.809-5.345.811.811 0 0 0-1.574-.394 7.032 7.032 0 0 1-12.746 2.082h1.868a.811.811 0 1 0 0-1.623h-4.088a.51.51 0 0 0-.51.51v4.088a.812.812 0 0 0 1.623 0v-1.716a8.7 8.7 0 0 0 2.618 2.398" clip-rule="evenodd"/></svg>