<svg xmlns="http://www.w3.org/2000/svg" width="80" height="80" fill="none"><path fill="var(--tutor-visual-success-1, #28a745)" fill-rule="evenodd" d="M10.805 56.725c5.253 1.705 6.19 1.986 16.42 5.052a18153 18153 0 0 1 13.48 4.046l.01.003c-.002 0 .002 0 0 0l.011.003a2.67 2.67 0 0 0 1.373.02l.054-.016.053-.016.012-.003.024-.008.016-.004c19.673-5.866 22.17-6.873 26.415-8.586.827-.334 1.721-.694 2.822-1.123A3.44 3.44 0 0 0 74 52.798q.233-20.39.396-40.78a3.85 3.85 0 0 0-1.118-2.745 3.88 3.88 0 0 0-2.751-1.147l-1.282.033c-9.683.248-22.286 1.36-28.148 11.24C35.3 9.411 22.587 8.18 12.872 7.842l-1.237-.044a4.215 4.215 0 0 0-3.914 2.604 4.2 4.2 0 0 0-.32 1.622q-.015 9.572-.015 19.156 0 10.672.174 21.344c.01.966.292 2.022 1.03 2.901.54.669 1.382 1.127 2.215 1.299m30.183 7.142-.035-.046q-.017-.026-.036-.048c-3.306-4.402-7.195-6.797-11.064-8.118-4.374-1.494-8.724-1.614-12.177-1.71-4.185-.115-7.053-.194-7.053-2.639 0-1.632-.008-4.964-.018-9.021-.028-11.5-.07-28.83.018-29.787q.017-.2.029-.4c.07-1.113.139-2.216 2.271-2.333 16.595.268 24.852 4.28 27.656 11.95.154.421.848.422 1.002 0C44.458 13.847 53.07 9.83 70.533 9.751a2.26 2.26 0 0 1 2.265 2.266v40.78a2.266 2.266 0 0 1-2.265 2.267c-4.226 0-7.83.21-10.93.599-9.848 1.238-14.587 4.297-17.888 8.242a.448.448 0 0 1-.695-.01l-.01-.008-.01-.008z" clip-rule="evenodd"/><path fill="var(--tutor-visual-success-1, #28a745)" d="M27.487 61.886c-9.957-2.985-11.28-3.425-16.393-5.085-1.563-.505-2.607-3.077 7.1-2.538 3.36.093 7.594.21 11.853 1.664 3.765 1.285 7.55 3.617 10.769 7.901l.035.047.034.045.011.012.01.007.01.009.01.01a.436.436 0 0 0 .666 0c3.214-3.841 7.826-6.818 17.412-8.024 3.017-.379 6.526-.583 10.639-.583.471 0 3.74 0 .936 1.002-1.082.387-1.941.768-2.746 1.093-4.133 1.667-6.563 2.648-25.713 8.357l-.014.005-.024.007-.011.003-.053.016-.053.016a2.6 2.6 0 0 1-1.335-.02l-.01-.003-.011-.003-.09-.027c-5.602-1.684-9.796-2.94-13.032-3.91"/><path fill="var(--tutor-visual-exception-1, #cbfd78)" d="M12.868 16.396a30 30 0 0 1 1.228-.025c4.607.043 9.302.451 13.567 2.382 2.321 1.117 4.598 2.374 6.533 4.063.295.266.579.536.825.843a7.3 7.3 0 0 0-.901-.75c-2.075-1.467-4.425-2.466-6.803-3.326-4.17-1.402-8.73-1.344-13.102-.934-.373.04-.78.086-1.115.136a1.1 1.1 0 0 1-.876-.236 1.24 1.24 0 0 1-.435-.841 1.24 1.24 0 0 1 .265-.91 1.1 1.1 0 0 1 .814-.402M14.835 22.086c4.566.004 9.198.492 13.468 2.258 3.715 1.596 7.025 3.914 9.938 6.589.346.321.687.648 1.006.981-.347-.304-.713-.6-1.084-.89-3.117-2.407-6.58-4.4-10.26-5.62-4.145-1.316-8.633-1.41-12.956-1.041-.45.042-.921.093-1.33.153a1.12 1.12 0 0 1-.878-.235 1.24 1.24 0 0 1-.44-.833c-.035-.33.057-.66.257-.906.2-.248.493-.394.81-.413.515-.03.983-.04 1.469-.044"/><path fill="var(--tutor-visual-exception-1, #cbfd78)" fill-rule="evenodd" d="M59.842 55.781c3.138-.397 6.79-.61 11.07-.61a2.3 2.3 0 0 0 1.622-.675c.43-.433.672-1.02.672-1.632V11.34a2.3 2.3 0 0 0-.669-1.633 2.3 2.3 0 0 0-1.626-.674c-17.687.08-26.41 4.17-29.324 12.182-.156.43-.859.429-1.014 0-2.841-7.81-11.204-11.894-28.012-12.168-2.16.12-2.23 1.243-2.301 2.375q-.012.205-.03.408c-.088.975-.046 18.62-.018 30.33.01 4.13.018 7.523.018 9.185 0 2.49 2.906 2.57 7.145 2.688 3.497.097 7.903.22 12.334 1.74 3.918 1.345 7.857 3.784 11.206 8.266l.036.049.036.047.012.012.009.008.022.02c.18.215.513.215.693-.001 3.344-4.018 8.143-7.132 18.119-8.393" clip-rule="evenodd"/><path fill="var(--tutor-visual-success-1, #28a745)" fill-rule="evenodd" d="M15.684 20.61c3.69.004 7.434.398 10.885 1.826 3.002 1.29 5.677 3.163 8.032 5.324.28.26.555.525.813.794-.28-.246-.577-.485-.876-.72-2.52-1.945-5.318-3.556-8.292-4.541-3.35-1.064-6.978-1.141-10.471-.843-.363.034-.745.076-1.075.124a.9.9 0 0 1-.71-.19 1 1 0 0 1-.356-.673 1 1 0 0 1 .208-.732.9.9 0 0 1 .656-.334c.415-.025.793-.031 1.186-.035m-.014-4.89c3.724.035 7.519.365 10.966 1.925 1.876.904 3.716 1.92 5.28 3.285.238.215.468.433.666.68a6 6 0 0 0-.728-.605c-1.677-1.186-3.576-1.993-5.498-2.689-3.37-1.132-7.056-1.085-10.589-.755-.302.032-.63.07-.901.11a.9.9 0 0 1-.708-.19 1 1 0 0 1-.352-.68c-.026-.27.05-.536.214-.735a.9.9 0 0 1 .658-.325c.34-.015.667-.02.992-.02" clip-rule="evenodd"/><path fill="var(--tutor-visual-gray-1, #ffffff)" d="M25.01 50.79c0 8.772 7.111 15.883 15.883 15.883s15.882-7.111 15.882-15.883-7.11-15.882-15.882-15.882S25.01 42.018 25.01 50.79"/><path fill="var(--tutor-visual-success-1, #28a745)" d="M25.01 50.79c0-8.771 7.111-15.882 15.883-15.882 8.77 0 15.881 7.11 15.882 15.882s-7.111 15.883-15.882 15.883c-8.635 0-15.66-6.89-15.877-15.473zm-.6 0a15.9 15.9 0 0 0 .46 5.206c1.676 6.93 8.618 12.405 16.023 12.276 9.32.229 17.678-8.226 17.37-17.482.148-9.267-8.299-17.42-17.37-17.037-7.202.015-13.884 5.163-15.803 11.902a16.5 16.5 0 0 0-.68 5.135"/><path fill="var(--tutor-visual-success-1, #28a745)" fill-rule="evenodd" d="M40.07 41.17a9.66 9.66 0 0 1 8.667 3.991v-1.914a.906.906 0 0 1 1.81 0v4.562a.57.57 0 0 1-.568.567h-4.562a.905.905 0 1 1 0-1.81h2.085a7.845 7.845 0 0 0-14.222 2.322.905.905 0 1 1-1.756-.44 9.655 9.655 0 0 1 8.545-7.277zm-4.103 17.925a9.657 9.657 0 0 0 14.29-5.963.905.905 0 0 0-1.756-.44 7.846 7.846 0 0 1-14.22 2.323h2.084a.905.905 0 0 0 0-1.81h-4.561a.57.57 0 0 0-.568.567v4.562a.905.905 0 0 0 1.81 0v-1.915a9.7 9.7 0 0 0 2.921 2.676" clip-rule="evenodd"/><path fill="var(--tutor-visual-exception-1, #cbfd78)" d="M4.586 58.906c2.149-.982 6.147.532 5.749 4.297-.098.915-.527 1.46-1.013 2.08-.408.521-1.55 1.347-2.186 1.529-1.204.344-2.194.317-3.552-.216-2.57-1.01-2.557-4.541-1.17-6.254.717-.886 1.24-1.088 2.172-1.436m10.18 2.399a.3.3 0 0 1 .527.004l.715 1.33c.027.05.07.092.12.12l1.32.733a.3.3 0 0 1-.004.527l-1.33.717a.3.3 0 0 0-.12.118l-.734 1.32a.3.3 0 0 1-.526-.004l-.717-1.33a.3.3 0 0 0-.118-.12l-1.32-.733a.3.3 0 0 1 .003-.527l1.33-.717a.3.3 0 0 0 .12-.118zM76.437 2.742a.3.3 0 0 1 .526.002l.843 1.566a.3.3 0 0 0 .118.12l1.554.863a.3.3 0 0 1-.003.527l-1.565.842a.3.3 0 0 0-.12.119l-.864 1.553a.3.3 0 0 1-.526-.003l-.843-1.565a.3.3 0 0 0-.118-.12l-1.554-.863a.3.3 0 0 1 .003-.527l1.566-.843a.3.3 0 0 0 .12-.118z"/><rect width="3.276" height="64.254" x="7.552" y="77.76" fill="var(--tutor-visual-exception-1, #cbfd78)" rx="1.638" transform="rotate(-90 7.552 77.76)"/><rect width="3.276" height="37.875" x="7.552" y="77.76" fill="var(--tutor-visual-success-1, #28a745)" rx="1.638" transform="rotate(-90 7.552 77.76)"/></svg>