<svg xmlns="http://www.w3.org/2000/svg" width="80" height="80" fill="none"><ellipse cx="37.38" cy="73.208" fill="var(--tutor-visual-success-1, #28a745)" rx="32.127" ry="4.084"/><path fill="var(--tutor-visual-success-1, #28a745)" d="M36.952 54.515a2.7 2.7 0 0 1 1.2-.085l-.188-4.591 30.525.785c-7.174 2.78-5.761 2.748-29.911 9.949l-.077.023-.092.028-.001-.005a2.7 2.7 0 0 1-.663.086c-.252 0-.496-.037-.727-.102l.001.002-.023-.007-.095-.029c-24.12-7.25-23.115-6.89-30.51-9.29L36.9 49.754z"/><path fill="var(--tutor-visual-exception-1, #cbfd78)" d="M7.543 49.701c17.88 0 25.38 3.727 29.783 8.956.18.215.513.215.693 0 4.396-5.254 11.307-8.956 29.189-8.956a2.295 2.295 0 0 0 2.295-2.294V6.1a2.287 2.287 0 0 0-2.295-2.295c-17.688.08-26.411 4.149-29.325 12.119-.156.426-.859.426-1.015 0-2.913-7.97-11.637-12.04-29.325-12.119A2.286 2.286 0 0 0 5.25 6.1v41.03c0 1.417.877 2.571 2.294 2.571"/><path fill="var(--tutor-visual-success-1, #28a745)" d="M7.552 1.828c9.971.366 23.717.4 29.841 10.95 6.204-10.455 19.86-10.344 29.809-10.62a3.93 3.93 0 0 1 2.786 1.163 3.92 3.92 0 0 1 1.133 2.78q-.165 20.652-.402 41.305a3.49 3.49 0 0 1-3.512 3.47c-6.864-.04-13.859.219-20.2 2.507-3.25 1.188-6.164 3.115-8.404 5.762-.458.57-1.405.56-1.852-.005-2.495-2.75-5.77-4.57-9.287-5.66-6.332-1.932-13.163-2.121-19.92-2.023-1.073.04-2.346-.486-3.076-1.389-.748-.89-1.033-1.96-1.044-2.938Q3.25 36.32 3.25 25.51c0-6.47.005-12.94.015-19.402a4.28 4.28 0 0 1 1.253-3.034 4.27 4.27 0 0 1 3.035-1.246m59.656 1.977c-17.688.08-26.411 4.149-29.325 12.119-.156.426-.858.426-1.014 0C33.955 7.954 25.23 3.884 7.543 3.805A2.29 2.29 0 0 0 5.25 6.1v41.03c0 1.417.877 2.57 2.294 2.57 17.88 0 25.38 3.728 29.783 8.957.18.215.513.214.693-.001 4.396-5.254 11.308-8.955 29.188-8.955a2.296 2.296 0 0 0 2.295-2.295V6.1a2.287 2.287 0 0 0-2.294-2.295"/><path fill="var(--tutor-visual-success-1, #28a745)" d="M9.162 11.172a30 30 0 0 1 1.228-.025c4.607.042 9.302.45 13.567 2.381 2.321 1.117 4.598 2.374 6.532 4.063.296.267.58.537.826.843a7.3 7.3 0 0 0-.901-.75c-2.075-1.467-4.425-2.466-6.803-3.326-4.17-1.402-8.73-1.344-13.102-.934a27 27 0 0 0-1.115.137 1.1 1.1 0 0 1-.876-.237 1.24 1.24 0 0 1-.435-.84 1.24 1.24 0 0 1 .265-.91 1.1 1.1 0 0 1 .814-.402M11.129 16.862c4.566.004 9.198.492 13.468 2.258 3.715 1.596 7.025 3.915 9.938 6.589.346.321.687.648 1.006.981-.347-.304-.713-.6-1.084-.89-3.117-2.407-6.58-4.4-10.26-5.62-4.145-1.316-8.633-1.41-12.956-1.04-.45.041-.921.092-1.33.152a1.12 1.12 0 0 1-.878-.235 1.24 1.24 0 0 1-.44-.833c-.035-.33.057-.66.257-.906.2-.248.493-.394.81-.413.515-.03.983-.039 1.469-.043"/><path fill="var(--tutor-visual-success-1, #28a745)" d="M9.254 3.807c-2.839 0-2.608 1.467-2.727 2.78-.12 1.319 0 32.969 0 39.307 0 6.34 19.035-3.023 30.756 12.723l-23.087-6.384-9.087-2.46-.447-45.201 1.865-1.864z"/><path fill="var(--tutor-visual-gray-1, #ffffff)" d="M47.147 26.689c0 7.801 6.325 14.126 14.126 14.126 7.802 0 14.126-6.325 14.126-14.126 0-7.802-6.324-14.126-14.126-14.126s-14.126 6.324-14.126 14.126"/><path fill="var(--tutor-visual-success-1, #28a745)" d="M47.147 26.689c0-7.801 6.325-14.126 14.126-14.126s14.126 6.325 14.126 14.126-6.325 14.126-14.126 14.126c-7.68 0-13.928-6.129-14.121-13.762zm-.6 0a14.1 14.1 0 0 0 .375 4.663c1.456 6.222 7.688 11.18 14.35 11.063 8.386.205 15.9-7.406 15.616-15.726.125-8.332-7.479-15.642-15.615-15.281-6.46.026-12.433 4.658-14.13 10.69a14.7 14.7 0 0 0-.596 4.591"/><path fill="var(--tutor-visual-success-1, #28a745)" d="M61.94 34.323a.955.955 0 0 1-.954.954c-4.825 0-8.775-3.823-8.775-8.588s3.95-8.588 8.775-8.588c3.95 0 7.314 2.563 8.404 6.108l.767-1.298a.954.954 0 1 1 1.644.971l-2.074 3.505a.954.954 0 0 1-1.29.347l-3.591-2.025a.954.954 0 1 1 .938-1.663l1.873 1.056c-.73-2.91-3.424-5.093-6.67-5.093-3.815 0-6.867 3.012-6.867 6.68s3.052 6.68 6.866 6.68a.955.955 0 0 1 .954.954"/><path fill="var(--tutor-visual-exception-1, #cbfd78)" d="M18.197 62.934a.26.26 0 0 0 .104-.103l.66-1.187a.26.26 0 0 1 .457.004l.643 1.195a.26.26 0 0 0 .103.104l1.187.66c.18.1.178.36-.003.457l-1.196.644a.26.26 0 0 0-.104.102l-.66 1.187a.26.26 0 0 1-.457-.003l-.643-1.195a.26.26 0 0 0-.103-.105l-1.187-.66a.26.26 0 0 1 .003-.456z"/><path fill="var(--tutor-visual-exception-1, #cbfd78)" fill-rule="evenodd" d="M60.242 66.565c-.024.441-.035.69.197 1.139.45.869 1.884 1.503 2.752.637.459-.458.646-.855.72-1.406.04-.291-.093-.903-.233-1.161-.165-.308-.31-.58-.665-.782-1.46-.833-2.788.524-2.771 1.572M8.965 61.08c-.83.31-1.295.49-1.934 1.278-1.234 1.524-1.245 4.666 1.043 5.564 1.208.475 2.088.5 3.16.193.566-.162 1.582-.897 1.945-1.36.432-.552.815-1.038.901-1.852.355-3.35-3.203-4.697-5.115-3.824" clip-rule="evenodd"/><path fill="var(--tutor-visual-exception-1, #cbfd78)" d="M62.72 57.071a.26.26 0 0 0 .133-.06l1.651-1.425a.26.26 0 0 1 .429.16l.309 2.16a.26.26 0 0 0 .06.133l1.424 1.651a.26.26 0 0 1-.16.428l-2.159.31a.26.26 0 0 0-.133.06l-1.652 1.424a.26.26 0 0 1-.428-.16l-.309-2.159a.26.26 0 0 0-.06-.133L60.4 57.808a.26.26 0 0 1 .16-.428z"/><path fill="var(--tutor-visual-exception-1, #cbfd78)" fill-rule="evenodd" d="M6.75 53.918c-.44.164-.686.26-1.023.677-.653.806-.659 2.468.551 2.944.64.25 1.105.264 1.672.101.3-.085.837-.474 1.029-.72.229-.291.431-.548.477-.979.187-1.772-1.695-2.485-2.706-2.023" clip-rule="evenodd"/></svg>