<svg xmlns="http://www.w3.org/2000/svg" width="96" height="96" fill="none" viewBox="0 0 96 96"><path stroke="var(--tutor-visual-gray-3, #cecfd2)" stroke-dasharray="0.64 1.91" stroke-width=".954" d="M48 15.284c2.793 0 4.752 1.613 6.306 3.472 1.553 1.858 3.2 4.577 5.208 7.876l1.059 1.742c1.28 2.104 1.586 2.508 1.951 2.763.26.18.58.306 1.775.575l1.517.326 2.058.428c3.892.807 7.118 1.471 9.46 2.317 2.241.81 4.266 1.994 5.191 4.142l.17.442c.815 2.405-.11 4.61-1.493 6.623-1.025 1.491-2.513 3.182-4.315 5.135l-1.9 2.042-1.407 1.5c-1.685 1.806-1.997 2.216-2.146 2.653-.152.452-.147.982.107 3.382l.217 2.006c.401 3.803.735 6.921.62 9.288-.115 2.371-.704 4.706-2.9 6.232-2.237 1.555-4.83 1.37-7.278.728-1.81-.476-3.958-1.316-6.456-2.354l-4.541-1.907-.005-.003-.004-.003c-2.33-.986-2.783-1.118-3.194-1.118s-.864.132-3.194 1.118l-.004.003-.005.003-1.925.81c-3.644 1.537-6.659 2.817-9.072 3.45-2.446.643-5.038.83-7.274-.723-2.196-1.527-2.789-3.86-2.904-6.232-.116-2.368.219-5.485.62-9.288l.213-2.006.146-1.481c.102-1.186.079-1.564-.035-1.898l-.004-.01c-.146-.434-.459-.842-2.142-2.644l-1.406-1.506c-2.658-2.847-4.85-5.185-6.215-7.173-1.384-2.015-2.308-4.218-1.494-6.623.824-2.434 2.97-3.727 5.362-4.592 2.343-.846 5.57-1.507 9.463-2.313l2.058-.428 1.514-.322c1.194-.27 1.514-.4 1.778-.583.364-.253.665-.65 1.948-2.76l1.058-1.74 1.443-2.362c1.382-2.243 2.6-4.12 3.765-5.515 1.554-1.859 3.513-3.472 6.306-3.472Z"/><path fill="var(--tutor-visual-gray-2, #ececed)" d="M47.997 25.149c2.023 0 3.442 1.174 4.567 2.527 1.125 1.352 2.318 3.33 3.772 5.73l.767 1.267c.927 1.532 1.149 1.825 1.414 2.01.187.132.419.224 1.284.42l1.1.237 1.49.31c2.819.588 5.155 1.072 6.85 1.687 1.625.59 3.091 1.45 3.761 3.014l.123.322c.59 1.75-.08 3.354-1.082 4.819-.741 1.085-1.82 2.315-3.124 3.736l-1.377 1.486-1.019 1.09c-1.22 1.315-1.446 1.613-1.553 1.932-.11.328-.107.714.077 2.46l.157 1.46c.29 2.767.533 5.036.45 6.758-.084 1.726-.511 3.424-2.101 4.535-1.62 1.131-3.499.997-5.271.53-1.312-.347-2.867-.958-4.676-1.713l-3.289-1.388-.003-.002-.004-.002c-1.687-.718-2.015-.814-2.313-.814-.297 0-.626.096-2.313.814l-.003.002-.003.002-1.395.59c-2.639 1.117-4.822 2.049-6.57 2.51-1.771.468-3.65.604-5.269-.527-1.59-1.11-2.019-2.808-2.103-4.534-.084-1.723.159-3.991.45-6.758l.154-1.46.106-1.078c.074-.862.057-1.138-.026-1.38l-.003-.008c-.105-.315-.332-.612-1.55-1.923l-1.02-1.096c-1.924-2.072-3.512-3.773-4.5-5.22-1.003-1.466-1.672-3.068-1.083-4.819.597-1.77 2.151-2.712 3.884-3.34 1.697-.617 4.034-1.098 6.853-1.684l1.491-.311 1.096-.235c.865-.196 1.097-.29 1.288-.424.264-.184.482-.473 1.41-2.008l.767-1.267 1.045-1.718c1.001-1.632 1.883-2.998 2.727-4.012 1.126-1.353 2.544-2.527 4.567-2.527"/><path stroke="var(--tutor-visual-gray-3, #cecfd2)" stroke-linecap="round" stroke-width="1.5" d="M44.496 44.14c.557 1.08-.306 2.53-1.928 3.237-1.62.707-3.386.404-3.942-.677M57.395 46.7c-.557 1.08-2.322 1.384-3.943.677-1.62-.708-2.484-2.157-1.928-3.238M50.23 51.673c-.023-.944-1.032-1.69-2.254-1.665s-2.194.81-2.172 1.753"/><path fill="var(--tutor-visual-gray-2, #ececed)" fill-rule="evenodd" d="m8.782 58.97.005.009q.09-.043.162-.07a1 1 0 0 1 .13-.045l.314-.067.325-.07c.401-.085.885-.128 1.293-.064l.195.028.121.015c.366.046.717.09 1.054.283.424.245.598.565.797.93l.008.018.133.235c.096.167.191.351.276.546a1.2 1.2 0 0 1 .2-.08l.214-.046.222-.047c.273-.058.604-.087.881-.044l.216.03c.25.03.489.06.718.192.29.167.408.385.544.634q.044.084.096.173c.463.797.813 2.147-.094 2.81-.257.188-.55.2-.844.212-.141.006-.283.012-.42.037-.483.087-1.11.132-1.607.083a1 1 0 0 1-.17-.033 2.1 2.1 0 0 1-.532-.242 1 1 0 0 1-.134.063l-.046.017q-.118.044-.241.068c-.213.044-.434.052-.656.061h-.01a4.4 4.4 0 0 0-.606.054c-.706.127-1.626.194-2.357.121a2.2 2.2 0 0 1-.755-.248c-.356.128-.735.144-1.116.159l-.016.001q-.204.008-.407.022a4 4 0 0 0-.247.026l-.066.01-.065.01c-.897.162-2.066.247-2.994.155-.75-.075-1.782-.727-2.544-1.487-.266-.264-.422-.78-.525-1.12l-.011-.036c-.433-1.423.868-3.135 1.893-4.134.351-.342 1.153-.707 1.327-.744l.398-.085.413-.09a5.4 5.4 0 0 1 1.11-.12q.278 0 .533.04.204.03.402.054c.466.058.911.114 1.34.36a2.04 2.04 0 0 1 .678.622q.066.093.125.19.107.179.21.37l.049.09zM71.298 71.113c.388.01.77.045 1.128.11.288.052.57.094.852.136.986.147 1.93.288 2.825.834.464.284.814.599 1.097.941q.165.202.308.415.135.2.254.41c.147.256.282.522.423.798l.099.193.164.31.011.018a7 7 0 0 1 .347-.14c.125-.047.223-.079.28-.09l.67-.126.696-.133c.857-.159 1.888-.226 2.752-.069l.413.069.256.038c.776.116 1.52.227 2.223.657.887.541 1.237 1.23 1.638 2.017l.016.037.267.507c.196.36.387.755.556 1.173a2.6 2.6 0 0 1 .431-.159l.456-.086.475-.09c.583-.11 1.287-.155 1.875-.048.153.028.305.05.457.074.529.078 1.035.154 1.514.446.605.37.843.84 1.117 1.375q.092.181.194.371c.938 1.72 1.599 4.605-.367 5.968-.557.387-1.18.398-1.807.408-.301.005-.602.01-.897.057-1.029.16-2.364.224-3.419.094a2 2 0 0 1-.36-.078c-.351-.104-.734-.295-1.116-.541q-.139.071-.287.126l-.098.035q-.255.085-.518.132c-.455.082-.924.088-1.396.096h-.023c-.431.008-.866.016-1.29.083-1.51.235-3.468.33-5.016.139-.482-.06-1.029-.264-1.59-.567-.765.254-1.571.268-2.383.282l-.034.001c-.288.006-.577.011-.865.026q-.266.014-.527.043l-.142.016-.137.02c-.6.093-1.257.169-1.936.221-.63.074-1.33.099-2.034.084a19.5 19.5 0 0 1-2.402-.129 4 4 0 0 1-.659-.142l-.12-.007c-.212-.012-.425-.015-.636-.02h-.026c-.597-.01-1.19-.02-1.754-.208-.413.223-.815.373-1.17.417-1.14.141-2.582.07-3.693-.102-.313-.05-.633-.055-.95-.06h-.016c-.348-.006-.693-.012-1.028-.072a3 3 0 0 1-.382-.097l-.072-.026a2 2 0 0 1-.212-.092c-.28.18-.562.322-.82.398q-.138.042-.265.057c-.777.096-1.76.049-2.518-.069a5 5 0 0 0-.66-.042c-.461-.008-.92-.015-1.33-.3-1.447-1.003-.96-3.128-.27-4.393l.143-.274c.201-.394.377-.74.822-1.012.352-.215.725-.271 1.115-.329q.166-.024.336-.053c.432-.08.95-.046 1.38.034l.35.067.336.064c.052.01.17.052.317.116a9 9 0 0 1 .409-.863l.197-.374.011-.027c.295-.58.553-1.087 1.207-1.485.518-.316 1.065-.398 1.636-.483l.188-.028.304-.051c.59-.108 1.285-.072 1.886.028.847-1.93 2.455-3.765 3.828-5.034.766-.71 2.491-1.445 2.865-1.514l.85-.162.885-.168a11.5 11.5 0 0 1 2.366-.198" clip-rule="evenodd"/></svg>