<svg xmlns="http://www.w3.org/2000/svg" width="80" height="80" fill="none" viewBox="0 0 80 80"><g clip-path="url(#a)"><path fill="var(--tutor-visual-critical-2, #fee4e2)" d="M78.518 69.637c0 1.887-7.493 3.416-16.735 3.416s-16.734-1.53-16.734-3.416 7.492-3.416 16.734-3.416 16.735 1.53 16.735 3.416"/><path fill="var(--tutor-visual-critical-2, #fee4e2)" d="M57.618 28.887C48.409 13.047 45.657 9.682 34.974 9.89 38.88 31.28 47.25 73.134 57.618 73.051c12.958-.103 16.59-6.797 16.59-13.48 0-6.153-5.08-10.885-16.59-30.684"/><path fill="var(--tutor-visual-gray-1, #ffffff)" d="M25.134 16.52c4.504-7.8 15.763-7.8 20.266 0l22.067 38.222c4.503 7.8-1.126 17.55-10.133 17.55H13.2c-9.007 0-14.636-9.75-10.133-17.55z"/><path fill="var(--tutor-visual-critical-2, #fee4e2)" d="M24.442 16.12c4.811-8.333 16.84-8.333 21.65 0L68.16 54.342c4.812 8.334-1.202 18.751-10.825 18.751H13.2c-9.623 0-15.636-10.417-10.825-18.75zm20.959.401c-4.504-7.8-15.764-7.8-20.267 0L3.067 54.741l-.204.368C-1.259 62.844 4.334 72.292 13.2 72.293h44.134l.42-.007c8.622-.293 13.974-9.564 9.917-17.177l-.204-.367z"/><path fill="#f04438" d="M31.384 30.077a3.89 3.89 0 1 1 7.782 0v15.668a3.891 3.891 0 0 1-7.782 0zM40.183 57.269a4.903 4.903 0 1 1-9.806 0 4.903 4.903 0 0 1 9.806 0"/><path fill="var(--tutor-visual-brand-3, #dbe4fa)" fill-rule="evenodd" d="m66.517 10.155.006.01q.095-.049.17-.08a1 1 0 0 1 .137-.052l.33-.076.34-.08c.422-.097.93-.146 1.36-.073l.205.032.127.017c.385.052.753.102 1.107.324.446.279.629.644.838 1.061l.008.02.14.269c.101.19.2.4.29.622a1.2 1.2 0 0 1 .211-.09l.224-.053.233-.054c.287-.066.635-.1.926-.05q.114.018.227.034c.263.035.514.07.755.22.304.19.428.44.57.723q.049.096.102.197c.487.91.854 2.45-.098 3.207-.27.215-.578.23-.888.243a3 3 0 0 0-.442.042c-.506.098-1.165.15-1.688.094a1 1 0 0 1-.179-.037 2.2 2.2 0 0 1-.559-.276q-.068.04-.14.07l-.048.021a2 2 0 0 1-.254.077c-.224.05-.456.06-.689.07h-.011c-.213.01-.427.02-.636.061-.743.146-1.71.222-2.477.14-.239-.026-.512-.13-.793-.284-.375.146-.773.164-1.174.181l-.017.002q-.213.008-.427.025a4 4 0 0 0-.26.03l-.07.01-.067.012c-.943.185-2.17.282-3.146.177-.788-.085-1.873-.83-2.674-1.697-.278-.302-.443-.892-.551-1.278l-.012-.042c-.455-1.624.912-3.577 1.99-4.717.369-.39 1.21-.808 1.394-.85l.418-.097.435-.102c.36-.083.77-.138 1.167-.137.191 0 .38.014.559.045q.214.035.422.062c.49.066.958.13 1.408.411.233.146.41.311.555.491a3 3 0 0 1 .289.436q.112.203.22.422l.052.103zM16.484 10.529l.008.014q.138-.07.245-.116c.088-.038.158-.064.198-.074l.476-.11.493-.116c.609-.14 1.343-.21 1.962-.105l.296.046.184.025c.556.075 1.088.148 1.6.467.643.403.907.93 1.208 1.533l.013.029.2.388c.148.275.292.578.42.899.14-.072.255-.12.305-.132l.324-.075.337-.079c.414-.095.915-.143 1.337-.071q.164.026.327.048c.38.051.742.1 1.09.318.439.275.618.635.825 1.045q.068.138.145.284c.704 1.315 1.234 3.539-.141 4.631-.39.311-.835.33-1.282.35-.214.01-.43.02-.638.06-.731.144-1.683.219-2.438.137a1.5 1.5 0 0 1-.258-.053 3.1 3.1 0 0 1-.807-.399 2 2 0 0 1-.203.103l-.07.029a2.5 2.5 0 0 1-.366.111c-.323.072-.658.086-.995.101h-.016c-.307.015-.617.029-.919.089-1.072.21-2.467.32-3.576.2-.345-.037-.74-.185-1.145-.41-.541.212-1.116.238-1.695.263l-.024.002c-.205.01-.412.019-.617.036q-.19.015-.375.043l-.1.015-.099.018c-1.361.266-3.134.406-4.542.255-1.139-.123-2.705-1.199-3.862-2.451-.402-.435-.64-1.287-.796-1.844l-.016-.061c-.658-2.345 1.316-5.166 2.872-6.812.533-.564 1.749-1.167 2.014-1.227l.603-.141.628-.147c.52-.12 1.113-.2 1.685-.198.277.001.55.02.807.065q.31.051.61.09c.707.096 1.383.187 2.033.594.337.21.592.449.802.709q.122.153.228.315.099.153.189.314c.11.195.212.399.318.61l.074.147z" clip-rule="evenodd"/></g><defs><clipPath id="a"><path fill="var(--tutor-visual-gray-1, #ffffff)" d="M0 0h80v80H0z"/></clipPath></defs></svg>