<svg width="44" height="44" viewBox="0 0 44 44" fill="none" xmlns="http://www.w3.org/2000/svg">
<path d="M34.9475 11.0028C32.1567 11.1611 26.6098 11.7376 23.1855 13.8338C22.9492 13.9784 22.8152 14.2356 22.8152 14.5045V33.0352C22.8152 33.6234 23.4584 33.9952 24.0008 33.7222C27.5239 31.949 32.6191 31.4652 35.1385 31.3327C35.9986 31.2874 36.6673 30.5979 36.6673 29.7713V12.5662C36.6678 11.6643 35.8856 10.9498 34.9475 11.0028ZM20.8158 13.8338C17.392 11.7376 11.8451 11.1617 9.05429 11.0028C8.11622 10.9498 7.33398 11.6643 7.33398 12.5662V29.7718C7.33398 30.5989 8.00265 31.2884 8.86281 31.3333C11.3832 31.4657 16.4809 31.95 20.0041 33.7243C20.5449 33.9967 21.1861 33.6255 21.1861 33.0388V14.4953C21.1861 14.2259 21.0526 13.9789 20.8158 13.8338Z" fill="#3E64DE"/>
</svg>
