<svg fill="none" height="30" viewBox="0 0 30 30" width="30" xmlns="http://www.w3.org/2000/svg"><g fill="#8e8e8e"><path d="m18.503 23.6726c.0762-.038.159-.0571.2418-.0571s.1656.019.2417.0571l.7873.3937c.1714.0856.373-.0389.373-.2305v-3.6874c-.434.1735-.9069.27-1.402.27-.4952 0-.968-.0964-1.402-.27v3.6874c0 .1916.2016.3161.373.2305z"/><path d="m18.7445 13.9189c-1.4937 0-2.7089 1.2152-2.7089 2.7089 0 1.4936 1.2152 2.7088 2.7089 2.7088 1.4936 0 2.7088-1.2152 2.7088-2.7088 0-1.4937-1.2152-2.7089-2.7088-2.7089z"/><path d="m24.3243 6.875h-18.64861c-.37313 0-.67569.30256-.67569.67569v13.98651c0 .3731.30256.6757.67569.6757h10.58501v-2.7256c-.7997-.6954-1.3068-1.719-1.3068-2.8596 0-2.0897 1.7002-3.7899 3.7899-3.7899 2.0898 0 3.7899 1.7002 3.7899 3.7899 0 1.1405-.507 2.1641-1.3068 2.8596v2.7256h3.0974c.3731 0 .6757-.3026.6757-.6757v-13.98651c0-.37313-.3026-.67569-.6757-.67569zm-12.8209 11.7061h-3.49667c-.29851 0-.54053-.242-.54053-.5405s.24202-.5405.54053-.5405h3.49667c.2985 0 .5405.242.5405.5405s-.242.5405-.5405.5405zm1.1655-3.4966h-4.66217c-.29851 0-.54053-.242-.54053-.5405 0-.2986.24202-.5406.54053-.5406h4.66217c.2985 0 .5405.242.5405.5406 0 .2985-.242.5405-.5405.5405zm3.4966-3.4966h-8.15877c-.29851 0-.54053-.2421-.54053-.5406s.24202-.5405.54053-.5405h8.15877c.2985 0 .5406.242.5406.5405s-.2421.5406-.5406.5406z"/></g></svg>