<svg fill="none" height="30" viewBox="0 0 30 30" width="30" xmlns="http://www.w3.org/2000/svg"><path d="m23.8274 7.50189c-1.9028.10798-5.6848.50105-8.0196 1.93024-.1611.09861-.2524.27396-.2524.4573v12.63457c0 .4011.4385.6545.8083.4684 2.4022-1.209 5.8762-1.5389 7.5939-1.6292.5865-.0309 1.0424-.501 1.0424-1.0646v-11.73072c.0003-.61494-.533-1.10211-1.1726-1.06599zm-9.6352 1.93024c-2.3344-1.42919-6.11645-1.82191-8.01926-1.93024-.6396-.03612-1.17294.45105-1.17294 1.06599v11.73112c0 .5639.45591 1.034 1.04238 1.0646 1.71843.0903 5.19422.4205 7.59632 1.6302.3687.1858.8059-.0673.8059-.4673v-12.64332c0-.18369-.091-.35209-.2524-.45105z" fill="#8e8e8e"/></svg>