<svg width="30" height="30" viewBox="0 0 30 30" fill="none" xmlns="http://www.w3.org/2000/svg">
<path d="M22.9348 15.6979L23.7074 21.08L11.4197 21.0192C11.398 21.0453 11.3763 21.0713 11.3546 21.0973C11.3329 21.1233 11.3112 21.1493 11.2895 21.1754C11.2678 21.2014 11.2461 21.2274 11.2244 21.2534C11.2027 21.2795 11.181 21.3055 11.1593 21.3315C11.1419 21.3532 11.1202 21.3792 11.1029 21.4009C11.0855 21.4226 11.0638 21.4486 11.0464 21.4703C11.0291 21.4963 11.0074 21.518 10.99 21.544C10.9727 21.5657 10.951 21.5917 10.9336 21.6177L24.2022 21.8563L23.2821 15.6719L22.9348 15.6979Z" fill="#9CA0AC"/>
<path d="M12.3268 19.9614C12.2834 20.0135 12.2356 20.0612 12.1922 20.1132C12.1488 20.1652 12.1054 20.2129 12.0576 20.265C12.0142 20.317 11.9708 20.3647 11.9231 20.4168L22.8132 20.3344L22.1187 15.1215L22.0363 14.4883L21.5805 14.5403L22.2229 19.6188L12.457 19.8183C12.4179 19.8617 12.3702 19.9094 12.3268 19.9614Z" fill="#9CA0AC"/>
<path d="M20.6344 13.417L19.9356 13.5081C19.8618 13.5514 19.7924 13.5991 19.7186 13.6468C19.6492 13.6946 19.5754 13.7379 19.5059 13.7856C19.4365 13.8333 19.3627 13.8767 19.2933 13.9244C19.2238 13.9721 19.15 14.0198 19.0806 14.0675C18.9851 14.1326 18.8896 14.1976 18.7941 14.2627C18.6986 14.3277 18.6075 14.3928 18.512 14.4578C18.4165 14.5229 18.3253 14.5923 18.2298 14.6573C18.1387 14.7224 18.0432 14.7918 17.9521 14.8612C17.8696 14.9219 17.7871 14.9826 17.709 15.0433C17.6265 15.104 17.5484 15.1648 17.4659 15.2255C17.3835 15.2862 17.3053 15.3469 17.2229 15.4076C17.1404 15.4683 17.0623 15.5334 16.9841 15.5941C16.9321 15.6331 16.88 15.6765 16.8279 15.7155C16.7758 15.7546 16.7237 15.7979 16.6716 15.8413C16.6196 15.8847 16.5675 15.9237 16.5154 15.9671C16.4633 16.0104 16.4112 16.0495 16.3635 16.0928C16.3461 16.1102 16.3244 16.1232 16.307 16.1405C16.2897 16.1579 16.268 16.1709 16.2506 16.1883C16.2333 16.2056 16.2116 16.2229 16.1942 16.236C16.1768 16.2533 16.1551 16.2663 16.1378 16.2837C16.0727 16.3357 16.0076 16.3921 15.9424 16.4485C15.8773 16.5048 15.8122 16.5569 15.7515 16.6133C15.6864 16.6696 15.6213 16.726 15.5605 16.7781C15.4954 16.8344 15.4346 16.8908 15.3695 16.9472C15.1655 17.125 14.9659 17.3072 14.7662 17.4893C14.5665 17.6715 14.3712 17.8579 14.1759 18.0444C13.9806 18.2309 13.7896 18.4217 13.5986 18.6169C13.4076 18.8077 13.221 19.0029 13.03 19.2024L21.2725 18.9335L20.7082 14.0155L20.6344 13.417Z" fill="#9CA0AC"/>
<path d="M22.9348 15.6979L23.7074 21.08L11.4197 21.0192C11.398 21.0453 11.3763 21.0713 11.3546 21.0973C11.3329 21.1233 11.3112 21.1493 11.2895 21.1754C11.2678 21.2014 11.2461 21.2274 11.2244 21.2534C11.2027 21.2795 11.181 21.3055 11.1593 21.3315C11.1419 21.3532 11.1202 21.3792 11.1029 21.4009C11.0855 21.4226 11.0638 21.4486 11.0464 21.4703C11.0291 21.4963 11.0074 21.518 10.99 21.544C10.9727 21.5657 10.951 21.5917 10.9336 21.6177L24.2022 21.8563L23.2821 15.6719L22.9348 15.6979Z" fill="#9CA0AC"/>
<path d="M12.3268 19.9614C12.2834 20.0135 12.2356 20.0612 12.1922 20.1132C12.1488 20.1652 12.1054 20.2129 12.0576 20.265C12.0142 20.317 11.9708 20.3647 11.9231 20.4168L22.8132 20.3344L22.1187 15.1215L22.0363 14.4883L21.5805 14.5403L22.2229 19.6188L12.457 19.8183C12.4179 19.8617 12.3702 19.9094 12.3268 19.9614Z" fill="#9CA0AC"/>
<path d="M20.6344 13.417L19.9356 13.5081C19.8618 13.5514 19.7924 13.5991 19.7186 13.6468C19.6492 13.6946 19.5754 13.7379 19.5059 13.7856C19.4365 13.8333 19.3627 13.8767 19.2933 13.9244C19.2238 13.9721 19.15 14.0198 19.0806 14.0675C18.9851 14.1326 18.8896 14.1976 18.7941 14.2627C18.6986 14.3277 18.6075 14.3928 18.512 14.4578C18.4165 14.5229 18.3253 14.5923 18.2298 14.6573C18.1387 14.7224 18.0432 14.7918 17.9521 14.8612C17.8696 14.9219 17.7871 14.9826 17.709 15.0433C17.6265 15.104 17.5484 15.1648 17.4659 15.2255C17.3835 15.2862 17.3053 15.3469 17.2229 15.4076C17.1404 15.4683 17.0623 15.5334 16.9841 15.5941C16.9321 15.6331 16.88 15.6765 16.8279 15.7155C16.7758 15.7546 16.7237 15.7979 16.6716 15.8413C16.6196 15.8847 16.5675 15.9237 16.5154 15.9671C16.4633 16.0104 16.4112 16.0495 16.3635 16.0928C16.3461 16.1102 16.3244 16.1232 16.307 16.1405C16.2897 16.1579 16.268 16.1709 16.2506 16.1883C16.2333 16.2056 16.2116 16.2229 16.1942 16.236C16.1768 16.2533 16.1551 16.2663 16.1378 16.2837C16.0727 16.3357 16.0076 16.3921 15.9424 16.4485C15.8773 16.5048 15.8122 16.5569 15.7515 16.6133C15.6864 16.6696 15.6213 16.726 15.5605 16.7781C15.4954 16.8344 15.4346 16.8908 15.3695 16.9472C15.1655 17.125 14.9659 17.3072 14.7662 17.4893C14.5665 17.6715 14.3712 17.8579 14.1759 18.0444C13.9806 18.2309 13.7896 18.4217 13.5986 18.6169C13.4076 18.8077 13.221 19.0029 13.03 19.2024L21.2725 18.9335L20.7082 14.0155L20.6344 13.417Z" fill="#9CA0AC"/>
<path d="M24.3887 10.1553C23.985 10.307 23.5813 10.4632 23.1733 10.6236C22.774 10.7841 22.3704 10.9489 21.971 11.1224C21.5761 11.2915 21.1811 11.465 20.7861 11.6471C20.7774 11.6515 20.7644 11.6558 20.7557 11.6601C20.747 11.6645 20.734 11.6688 20.7253 11.6732C20.7167 11.6775 20.7036 11.6818 20.695 11.6862C20.6863 11.6905 20.6733 11.6948 20.6646 11.6992C20.3434 11.8466 20.0265 11.9984 19.7097 12.1502C19.3972 12.302 19.0803 12.4581 18.7722 12.6186C18.464 12.7747 18.1558 12.9352 17.852 13.1C17.5482 13.2605 17.2487 13.4253 16.9535 13.5944C16.8494 13.6551 16.7408 13.7158 16.6367 13.7765C16.5325 13.8373 16.4283 13.898 16.3242 13.9587C16.22 14.0194 16.1158 14.0801 16.0117 14.1452C15.9075 14.2059 15.8077 14.2666 15.7035 14.3317C15.6167 14.3837 15.5255 14.4401 15.4387 14.4921C15.3519 14.5485 15.2651 14.6005 15.174 14.6569C15.0871 14.7133 15.0003 14.7653 14.9135 14.8217C14.8267 14.8781 14.7399 14.9301 14.6531 14.9865C14.5967 15.0256 14.5403 15.0603 14.4838 15.0993C14.4274 15.1383 14.371 15.173 14.3146 15.212C14.2581 15.2511 14.2017 15.2858 14.1453 15.3248C14.0889 15.3638 14.0324 15.3985 13.976 15.4376C13.9586 15.4506 13.9369 15.4636 13.9196 15.4766C13.9022 15.4896 13.8805 15.5026 13.8631 15.5156C13.8458 15.5286 13.8241 15.5416 13.8067 15.5547C13.7894 15.5677 13.7677 15.5807 13.7503 15.5937C13.6809 15.6414 13.6114 15.6891 13.5463 15.7368C13.4769 15.7845 13.4117 15.8322 13.3423 15.8799C13.2729 15.9276 13.2077 15.9753 13.1383 16.0274C13.0732 16.0751 13.0037 16.1228 12.9386 16.1748C12.4959 16.5001 12.0662 16.8297 11.6495 17.1723C11.2329 17.5106 10.8292 17.8575 10.4386 18.2132C10.0523 18.5644 9.67465 18.9287 9.31005 19.3017C8.9498 19.6704 8.60257 20.052 8.26401 20.4467C8.23363 20.4813 8.20325 20.516 8.17286 20.5551C8.14248 20.5898 8.1121 20.6245 8.08172 20.6635C8.05133 20.6982 8.02095 20.7372 7.99057 20.7719C7.96018 20.8066 7.9298 20.8456 7.90376 20.8803C7.88206 20.9064 7.86035 20.9367 7.83865 20.9627C7.81695 20.9888 7.79525 21.0191 7.77355 21.0451C7.75184 21.0712 7.73014 21.1015 7.70844 21.1275C7.68674 21.1536 7.66504 21.1839 7.64333 21.2099C7.63031 21.1969 7.61729 21.1796 7.60861 21.1666C7.59559 21.1536 7.58691 21.1406 7.57389 21.1232C7.56087 21.1102 7.55218 21.0972 7.53916 21.0842C7.52614 21.0712 7.51746 21.0581 7.50444 21.0451C7.39159 20.9107 7.28308 20.7893 7.18325 20.6722C7.08342 20.5594 6.98793 20.451 6.90112 20.3512C6.80997 20.2515 6.72751 20.1604 6.64504 20.0693C6.56257 19.9783 6.48444 19.8959 6.40631 19.8091C6.38461 19.7874 6.36725 19.7658 6.34555 19.7441C6.32385 19.7224 6.30649 19.7007 6.28478 19.679C6.26308 19.6573 6.24572 19.6357 6.22402 19.614C6.20232 19.5923 6.18495 19.5706 6.16325 19.5489C6.07644 19.4535 5.98963 19.3581 5.90283 19.2583C5.81602 19.1586 5.72487 19.0545 5.63372 18.9418C5.54257 18.829 5.44708 18.7119 5.34725 18.5861C5.24742 18.4604 5.14325 18.3216 5.03474 18.1741C4.987 18.1091 4.93491 18.0397 4.88283 17.966C4.83074 17.8922 4.77866 17.8185 4.72223 17.7448C4.66581 17.6667 4.61372 17.5887 4.55296 17.5062C4.49653 17.4238 4.43577 17.3414 4.375 17.2504C4.49219 17.6364 4.60938 18.0007 4.71789 18.3433C4.83074 18.6946 4.93491 19.0242 5.03908 19.3407C5.14325 19.6617 5.24308 19.9653 5.34291 20.2515C5.44274 20.5464 5.54257 20.8283 5.63806 21.1015C5.65976 21.1666 5.68147 21.2273 5.70751 21.2923C5.72921 21.3531 5.75091 21.4181 5.77695 21.4788C5.79866 21.5395 5.82036 21.6046 5.8464 21.6653C5.8681 21.726 5.88981 21.7911 5.91585 21.8518C5.92453 21.8778 5.93755 21.9082 5.94623 21.9342C5.95491 21.9646 5.96793 21.9906 5.97661 22.0209C5.98529 22.0513 5.99832 22.0773 6.007 22.1077C6.01568 22.138 6.0287 22.1641 6.03738 22.1944C6.0504 22.2248 6.05908 22.2551 6.0721 22.2811C6.08512 22.3115 6.0938 22.3419 6.10683 22.3679C6.11985 22.3982 6.12853 22.4286 6.14155 22.4546C6.15457 22.485 6.16325 22.5153 6.17627 22.5414C6.18495 22.563 6.19363 22.5847 6.20232 22.6064C6.211 22.6281 6.21968 22.6498 6.22836 22.6715C6.23704 22.6932 6.24572 22.7148 6.2544 22.7365C6.26308 22.7582 6.27176 22.7799 6.28044 22.8016C6.28478 22.8102 6.28912 22.8189 6.28912 22.8276C6.29346 22.8363 6.2978 22.8449 6.2978 22.8536C6.30214 22.8623 6.30649 22.871 6.30649 22.8796C6.31083 22.8883 6.31517 22.897 6.31517 22.9057C6.32819 22.936 6.33687 22.962 6.34989 22.9924C6.36291 23.0228 6.37159 23.0488 6.38461 23.0791C6.39763 23.1095 6.40631 23.1398 6.41934 23.1659C6.43236 23.1962 6.44104 23.2266 6.45406 23.2526L6.44538 23.283L6.46274 23.2743C6.53219 23.4478 6.60163 23.6256 6.67542 23.8034C6.74921 23.9855 6.82299 24.172 6.90112 24.3628C6.97925 24.558 7.06172 24.7575 7.14853 24.9657C7.23533 25.1738 7.32648 25.395 7.42197 25.6205C7.57823 25.3343 7.74316 25.0481 7.9081 24.7662C8.07303 24.4843 8.24231 24.2111 8.41159 23.9378C8.58086 23.6646 8.75448 23.3957 8.93244 23.1312C9.11039 22.8666 9.28835 22.6021 9.47065 22.3462C9.47499 22.3419 9.47933 22.3375 9.48367 22.3289C9.48801 22.3245 9.49235 22.3202 9.49669 22.3115C9.50103 22.3072 9.50537 22.3028 9.50971 22.2942C9.51405 22.2898 9.51839 22.2855 9.52273 22.2768C9.55746 22.2291 9.59218 22.1771 9.6269 22.1294C9.66163 22.0817 9.69635 22.0296 9.73541 21.9819C9.77014 21.9342 9.80486 21.8822 9.84392 21.8344C9.87865 21.7867 9.91771 21.7347 9.95244 21.687C9.98282 21.6436 10.0132 21.6046 10.0436 21.5612C10.074 21.5179 10.1043 21.4788 10.1391 21.4355C10.1695 21.3921 10.1998 21.3531 10.2346 21.314C10.2649 21.275 10.2997 21.2316 10.3301 21.1926C10.3344 21.1839 10.3431 21.1796 10.3474 21.1709C10.3518 21.1622 10.3604 21.1579 10.3648 21.1492C10.3691 21.1405 10.3778 21.1362 10.3821 21.1275C10.3865 21.1189 10.3952 21.1145 10.3995 21.1059C10.4386 21.0581 10.4733 21.0061 10.5123 20.9584C10.5514 20.9107 10.5905 20.863 10.6252 20.8109C10.6643 20.7632 10.7033 20.7155 10.7424 20.6635C10.7815 20.6158 10.8205 20.5681 10.8596 20.5204C10.8986 20.4727 10.9377 20.425 10.9768 20.3773C11.0158 20.3296 11.0549 20.2818 11.094 20.2341C11.133 20.1864 11.1721 20.1387 11.2112 20.091C11.2502 20.0433 11.2893 19.9956 11.3327 19.9479C11.6148 19.6096 11.9013 19.2844 12.1964 18.9591C12.4916 18.6338 12.7867 18.3172 13.0906 18.005C13.3944 17.6927 13.7026 17.3848 14.0151 17.0856C14.3319 16.7863 14.6488 16.4914 14.97 16.2009C15.0307 16.1445 15.0958 16.0881 15.1566 16.0361C15.2174 15.9797 15.2825 15.9276 15.3432 15.8712C15.4083 15.8149 15.4691 15.7628 15.5342 15.7064C15.5993 15.6501 15.6601 15.598 15.7252 15.546C15.7425 15.5286 15.7643 15.5156 15.7816 15.4983C15.799 15.4809 15.8207 15.4679 15.838 15.4506C15.8554 15.4332 15.8771 15.4202 15.8945 15.4029C15.9118 15.3855 15.9335 15.3725 15.9509 15.3552C16.003 15.3118 16.0507 15.2728 16.1028 15.2294C16.1549 15.1904 16.2026 15.147 16.2547 15.108C16.3068 15.0689 16.3545 15.0256 16.4066 14.9865C16.4587 14.9475 16.5065 14.9041 16.5585 14.8651C16.6367 14.8044 16.7148 14.7393 16.7929 14.6786C16.8711 14.6179 16.9492 14.5572 17.0273 14.4965C17.1054 14.4357 17.1836 14.375 17.266 14.3143C17.3442 14.2536 17.4266 14.1929 17.5048 14.1365C17.5959 14.0671 17.6871 14.0021 17.7782 13.937C17.8694 13.872 17.9605 13.8026 18.0517 13.7375C18.1428 13.6725 18.2339 13.6074 18.3251 13.5423C18.4162 13.4773 18.5117 13.4122 18.6029 13.3515C18.7765 13.2301 18.9545 13.113 19.1281 12.9959C19.306 12.8788 19.484 12.766 19.6576 12.6533C19.8356 12.5405 20.0135 12.4278 20.1958 12.3194C20.3781 12.2109 20.5561 12.1025 20.7384 11.9984C21.1377 11.7686 21.537 11.5431 21.9407 11.3349C22.3487 11.1224 22.7567 10.9185 23.1603 10.7277C23.5727 10.5369 23.985 10.3547 24.3973 10.1856C24.814 10.0165 25.2307 9.86034 25.6474 9.71289C25.2047 9.85601 24.7967 10.0035 24.3887 10.1553Z" fill="#9CA0AC"/>
<path d="M7.12249 24.9696C7.12249 24.9696 7.30044 25.3989 7.39593 25.6244C7.55219 25.3382 7.71712 25.052 7.88206 24.7701C8.04699 24.4882 8.21627 24.215 8.38555 23.9417C8.55482 23.6685 8.72844 23.3996 8.9064 23.1351C9.08435 22.8705 9.26231 22.606 9.44461 22.3501C9.44895 22.3458 9.45329 22.3414 9.45763 22.3328C9.46197 22.3284 9.46631 22.3241 9.47065 22.3154C9.47499 22.3111 9.47933 22.3067 9.48367 22.2981C9.48801 22.2937 9.49235 22.2894 9.49669 22.2807C9.53142 22.233 9.56614 22.181 9.60086 22.1333C9.63559 22.0856 9.67031 22.0335 9.70937 21.9858C9.7441 21.9381 9.77882 21.8861 9.81788 21.8384C9.85261 21.7907 9.89167 21.7386 9.92639 21.6909C9.95678 21.6475 9.98716 21.6085 10.0175 21.5651C10.0479 21.5218 10.0783 21.4827 10.113 21.4394C10.1434 21.396 10.1738 21.357 10.2085 21.3179C10.2389 21.2789 10.2736 21.2355 10.304 21.1965C10.3084 21.1878 10.317 21.1835 10.3214 21.1748C10.3257 21.1661 10.3344 21.1618 10.3387 21.1531C10.3431 21.1445 10.3518 21.1401 10.3561 21.1314C10.3604 21.1228 10.3691 21.1184 10.3735 21.1098C10.4125 21.0621 10.4472 21.01 10.4863 20.9623C10.5254 20.9146 10.5644 20.8669 10.5992 20.8149C10.6382 20.7671 10.6773 20.7194 10.7163 20.6674C10.7554 20.6197 10.7945 20.572 10.8335 20.5243C10.8726 20.4766 10.9117 20.4289 10.9507 20.3812C10.9898 20.3335 11.0289 20.2858 11.0679 20.238C11.107 20.1903 11.1461 20.1426 11.1851 20.0949C11.2242 20.0472 11.2632 19.9995 11.3066 19.9518C11.5888 19.6135 11.8752 19.2883 12.1704 18.963C12.4655 18.6377 12.7607 18.3212 13.0645 18.0089C13.3683 17.6966 13.6765 17.3887 13.989 17.0895C14.3059 16.7902 14.6227 16.4953 14.9439 16.2048C15.0047 16.1484 15.0698 16.092 15.1306 16.04C15.1913 15.9836 15.2564 15.9315 15.3172 15.8752C15.3823 15.8188 15.4431 15.7667 15.5082 15.7104C15.5733 15.654 15.634 15.6019 15.6991 15.5499C15.7165 15.5325 15.7382 15.5195 15.7556 15.5022C15.7729 15.4848 15.7946 15.4718 15.812 15.4545C15.8294 15.4371 15.8511 15.4241 15.8684 15.4068C15.8858 15.3894 15.9075 15.3764 15.9248 15.3591C15.9769 15.3157 16.0247 15.2767 16.0768 15.2333C16.1288 15.1943 16.1766 15.1509 16.2287 15.1119C16.2808 15.0728 16.3285 15.0295 16.3806 14.9904C16.4327 14.9514 16.4804 14.908 16.5325 14.869C16.6106 14.8083 16.6888 14.7432 16.7669 14.6825C16.845 14.6218 16.9231 14.5611 17.0013 14.5004C17.0794 14.4397 17.1575 14.3789 17.24 14.3182C17.3181 14.2575 17.4006 14.1968 17.4787 14.1404C17.5699 14.071 17.661 14.006 17.7522 13.9409C17.8433 13.8759 17.9345 13.8065 18.0256 13.7414C18.1168 13.6764 18.2079 13.6113 18.2991 13.5463C18.3902 13.4812 18.4857 13.4161 18.5768 13.3554C18.7505 13.234 18.9284 13.1169 19.102 12.9998C19.28 12.8827 19.4579 12.77 19.6316 12.6572C19.8095 12.5444 19.9875 12.4317 20.1698 12.3233C20.3521 12.2148 20.53 12.1064 20.7123 12.0023C21.1116 11.7725 21.511 11.547 21.9146 11.3388C22.3226 11.1263 22.7306 10.9224 23.1343 10.7316C23.5466 10.5408 23.959 10.3587 24.3713 10.1895C24.788 10.0204 25.2047 9.86425 25.6213 9.7168C25.2177 9.85558 24.8097 10.003 24.4017 10.1548C23.998 10.3066 23.5944 10.4627 23.1864 10.6232C22.787 10.7837 22.3834 10.9485 21.9841 11.1219C21.5891 11.2911 21.1941 11.4646 20.7991 11.6467C20.7905 11.651 20.7774 11.6554 20.7688 11.6597C20.7601 11.6641 20.747 11.6684 20.7384 11.6727C20.7297 11.6771 20.7167 11.6814 20.708 11.6857C20.6993 11.6901 20.6863 11.6944 20.6776 11.6987C20.3564 11.8462 20.0396 11.998 19.7227 12.1498C19.4102 12.3016 18.7852 12.6182 18.7852 12.6182C16.4804 14.1361 10.7901 17.8311 6.86206 24.28L7.12249 24.9696Z" fill="#9CA0AC"/>
<path d="M19.8529 9.04083C19.8399 8.90639 19.7921 8.78496 19.7227 8.68087C19.6532 8.57679 19.5577 8.49005 19.4492 8.42934C19.3407 8.36428 19.2105 8.32091 19.0759 8.30357C18.9414 8.28622 18.7938 8.29056 18.6462 8.32525L17.5959 8.56811V8.54209L17.2443 8.62449L17.1314 7.01985C17.0924 6.47774 16.9318 6.00069 16.68 5.61037C16.4326 5.22872 16.0984 4.92948 15.7034 4.72131C15.3215 4.51748 14.8788 4.40038 14.4056 4.3787C13.9456 4.35701 13.4508 4.43074 12.9473 4.59988C12.4525 4.76468 11.988 5.01188 11.5714 5.3198C11.159 5.61904 10.7901 5.979 10.4776 6.37366C10.1651 6.76831 9.90898 7.19766 9.72668 7.6487C9.54004 8.09973 9.42719 8.57679 9.40115 9.05818L9.32736 10.4633L9.11034 10.5154V10.5371L8.2683 10.7322C8.17281 10.7539 8.07732 10.7973 7.99051 10.858C7.9037 10.9187 7.82558 10.9924 7.75613 11.0748C7.68668 11.1616 7.63026 11.257 7.59119 11.3567C7.54779 11.4608 7.52175 11.5692 7.51307 11.6777L6.93579 19.1154L7.56515 19.8266L7.70839 17.1551C7.72141 16.8776 7.78217 16.613 7.87332 16.3701C7.96447 16.1273 8.09468 15.9018 8.2466 15.7109C8.39851 15.5158 8.58081 15.3553 8.77613 15.2339C8.97579 15.1125 9.19281 15.0301 9.42285 14.9997L9.70498 14.965C9.58779 14.926 9.48362 14.8696 9.39247 14.7959C9.30132 14.7221 9.21885 14.6311 9.15374 14.5226C9.08864 14.4186 9.04089 14.2971 9.00617 14.167C8.97579 14.0369 8.95843 13.8981 8.96711 13.7507C8.97579 13.5599 9.01485 13.3734 9.07996 13.1999C9.14506 13.0264 9.23621 12.866 9.34906 12.7272C9.46191 12.5841 9.59213 12.4626 9.73536 12.3716C9.87859 12.2761 10.0392 12.2111 10.2085 12.1807C10.3777 12.1504 10.5383 12.159 10.6859 12.2024C10.8335 12.2458 10.968 12.3238 11.0809 12.4279C11.1937 12.5364 11.2892 12.6708 11.35 12.8313C11.4151 12.9917 11.4498 13.1739 11.4498 13.3734C11.4498 13.5295 11.4281 13.6813 11.3847 13.8287C11.3413 13.9762 11.2849 14.115 11.2068 14.2451C11.133 14.3752 11.0418 14.4923 10.9377 14.5964C10.8335 14.7005 10.7206 14.7872 10.5991 14.8566L10.8465 14.8262C11.0201 14.8045 11.1851 14.8132 11.3457 14.8436C11.5062 14.8783 11.6582 14.9346 11.8014 15.017C11.9446 15.0994 12.0748 15.2079 12.1877 15.3336C12.2919 15.4507 12.383 15.5852 12.4568 15.7326C12.5219 15.6849 12.587 15.6329 12.6521 15.5852L12.6434 14.7091C12.6391 14.5053 12.6782 14.3058 12.7433 14.1193C12.8084 13.9328 12.9082 13.7637 13.0254 13.6162C13.1469 13.4688 13.2902 13.3387 13.4551 13.2389C13.62 13.1392 13.798 13.0698 13.9933 13.0438L14.232 13.0091C14.1322 12.9874 14.0411 12.944 13.9586 12.892C13.8761 12.8399 13.8023 12.7749 13.7459 12.6968C13.6851 12.6188 13.6374 12.532 13.6027 12.4366C13.5679 12.3412 13.5506 12.2371 13.5462 12.1244C13.5419 11.9812 13.5679 11.8381 13.6157 11.708C13.6634 11.5736 13.7329 11.4521 13.8197 11.3437C13.9065 11.2353 14.015 11.1399 14.1322 11.0662C14.2494 10.9924 14.3839 10.936 14.5228 10.91C14.6661 10.884 14.8006 10.8883 14.9265 10.9144C15.0524 10.9447 15.1696 10.9968 15.2694 11.0748C15.3692 11.1529 15.4517 11.2526 15.5125 11.3697C15.5732 11.4868 15.6123 11.6213 15.621 11.7731C15.6253 11.8902 15.6166 12.0029 15.5862 12.1113C15.5602 12.2198 15.5125 12.3282 15.456 12.4279C15.3996 12.5277 15.3302 12.6188 15.2477 12.6968C15.1652 12.7749 15.0741 12.8443 14.9742 12.9007L15.1826 12.8703C15.2911 12.8529 15.3996 12.8486 15.5038 12.8573C15.6079 12.866 15.7121 12.8833 15.8076 12.9137C15.9074 12.944 15.9986 12.9874 16.0897 13.0351C16.1765 13.0871 16.259 13.1479 16.3371 13.2172C16.3154 13.2303 16.2894 13.2433 16.2677 13.2606C16.2981 13.2606 16.3241 13.2606 16.3545 13.2649C16.4587 13.2042 16.5628 13.1435 16.667 13.0828L16.641 12.6925C16.6323 12.5364 16.654 12.3846 16.7017 12.2414C16.7495 12.0983 16.8233 11.9639 16.9187 11.8468C17.0142 11.7297 17.1314 11.6299 17.266 11.5475C17.4005 11.4695 17.5481 11.4131 17.7087 11.3827L17.904 11.3524C17.8216 11.335 17.7434 11.309 17.674 11.27C17.6045 11.231 17.5394 11.1832 17.4873 11.1269C17.4353 11.0705 17.3919 11.0011 17.3571 10.9317C17.3267 10.858 17.305 10.7799 17.2964 10.6932C17.2877 10.5804 17.3007 10.472 17.3354 10.3679C17.3702 10.2638 17.4266 10.1684 17.496 10.0817C17.5655 9.99495 17.6523 9.92122 17.7478 9.8605C17.8476 9.79979 17.9561 9.75642 18.0733 9.73473C18.1905 9.71305 18.3033 9.71305 18.4119 9.73473C18.5204 9.75642 18.6159 9.79545 18.7027 9.85617C18.7895 9.91255 18.8589 9.99061 18.9153 10.0773C18.9674 10.1684 19.0065 10.2682 19.0152 10.3809C19.0239 10.4677 19.0195 10.5544 18.9978 10.6411C18.9804 10.7235 18.9457 10.8059 18.9023 10.884C18.8589 10.9621 18.8025 11.0315 18.7374 11.0922C18.6723 11.1529 18.5985 11.2093 18.5204 11.2526L18.6896 11.2223C18.7895 11.2049 18.885 11.2006 18.9761 11.2049C19.0716 11.2093 19.1584 11.2266 19.2452 11.2526C19.332 11.2787 19.4145 11.3134 19.4883 11.3567C19.51 11.3697 19.5317 11.3871 19.5577 11.4001H19.5621C19.5968 11.3827 19.6272 11.3654 19.6619 11.3524C19.7313 11.3177 19.8008 11.283 19.8659 11.2526C19.9353 11.2179 20.0004 11.1876 20.0699 11.1529L19.8529 9.04083ZM10.6425 10.1771L10.6903 8.71123C10.6989 8.40765 10.7684 8.10407 10.8856 7.8135C11.0028 7.52293 11.1634 7.24537 11.3674 6.99383C11.567 6.74229 11.8057 6.51677 12.0705 6.32595C12.3396 6.13513 12.6348 5.98334 12.9473 5.88793C13.2641 5.78818 13.5723 5.75348 13.8588 5.77951C14.1496 5.80553 14.4143 5.88793 14.6444 6.02237C14.8788 6.16115 15.0697 6.35197 15.213 6.59484C15.3562 6.8377 15.443 7.12827 15.456 7.45788L15.5255 9.04517L10.6425 10.1771Z" fill="#9CA0AC"/>
<path d="M19.8529 9.04083C19.8399 8.90639 19.7921 8.78496 19.7227 8.68087C19.6532 8.57679 19.5577 8.49005 19.4492 8.42934C19.3407 8.36428 19.2105 8.32091 19.0759 8.30357C18.9414 8.28622 18.7938 8.29056 18.6462 8.32525L17.5959 8.56811V8.54209L17.2443 8.62449L17.1314 7.01985C17.0924 6.47774 16.9318 6.00069 16.68 5.61037C16.4326 5.22872 16.0984 4.92948 15.7034 4.72131C15.3215 4.51748 14.8788 4.40038 14.4056 4.3787C13.9456 4.35701 13.4508 4.43074 12.9473 4.59988C12.4525 4.76468 11.988 5.01188 11.5714 5.3198C11.159 5.61904 10.7901 5.979 10.4776 6.37366C10.1651 6.76831 9.90898 7.19766 9.72668 7.6487C9.54004 8.09973 9.42719 8.57679 9.40115 9.05818L9.32736 10.4633L9.11034 10.5154V10.5371L8.2683 10.7322C8.17281 10.7539 8.07732 10.7973 7.99051 10.858C7.9037 10.9187 7.82558 10.9924 7.75613 11.0748C7.68668 11.1616 7.63026 11.257 7.59119 11.3567C7.54779 11.4608 7.52175 11.5692 7.51307 11.6777L6.93579 19.1154L7.56515 19.8266L7.70839 17.1551C7.72141 16.8776 7.78217 16.613 7.87332 16.3701C7.96447 16.1273 8.09468 15.9018 8.2466 15.7109C8.39851 15.5158 8.58081 15.3553 8.77613 15.2339C8.97579 15.1125 9.19281 15.0301 9.42285 14.9997L9.70498 14.965C9.58779 14.926 9.48362 14.8696 9.39247 14.7959C9.30132 14.7221 9.21885 14.6311 9.15374 14.5226C9.08864 14.4186 9.04089 14.2971 9.00617 14.167C8.97579 14.0369 8.95843 13.8981 8.96711 13.7507C8.97579 13.5599 9.01485 13.3734 9.07996 13.1999C9.14506 13.0264 9.23621 12.866 9.34906 12.7272C9.46191 12.5841 9.59213 12.4626 9.73536 12.3716C9.87859 12.2761 10.0392 12.2111 10.2085 12.1807C10.3777 12.1504 10.5383 12.159 10.6859 12.2024C10.8335 12.2458 10.968 12.3238 11.0809 12.4279C11.1937 12.5364 11.2892 12.6708 11.35 12.8313C11.4151 12.9917 11.4498 13.1739 11.4498 13.3734C11.4498 13.5295 11.4281 13.6813 11.3847 13.8287C11.3413 13.9762 11.2849 14.115 11.2068 14.2451C11.133 14.3752 11.0418 14.4923 10.9377 14.5964C10.8335 14.7005 10.7206 14.7872 10.5991 14.8566L10.8465 14.8262C11.0201 14.8045 11.1851 14.8132 11.3457 14.8436C11.5062 14.8783 11.6582 14.9346 11.8014 15.017C11.9446 15.0994 12.0748 15.2079 12.1877 15.3336C12.2919 15.4507 12.383 15.5852 12.4568 15.7326C12.5219 15.6849 12.587 15.6329 12.6521 15.5852L12.6434 14.7091C12.6391 14.5053 12.6782 14.3058 12.7433 14.1193C12.8084 13.9328 12.9082 13.7637 13.0254 13.6162C13.1469 13.4688 13.2902 13.3387 13.4551 13.2389C13.62 13.1392 13.798 13.0698 13.9933 13.0438L14.232 13.0091C14.1322 12.9874 14.0411 12.944 13.9586 12.892C13.8761 12.8399 13.8023 12.7749 13.7459 12.6968C13.6851 12.6188 13.6374 12.532 13.6027 12.4366C13.5679 12.3412 13.5506 12.2371 13.5462 12.1244C13.5419 11.9812 13.5679 11.8381 13.6157 11.708C13.6634 11.5736 13.7329 11.4521 13.8197 11.3437C13.9065 11.2353 14.015 11.1399 14.1322 11.0662C14.2494 10.9924 14.3839 10.936 14.5228 10.91C14.6661 10.884 14.8006 10.8883 14.9265 10.9144C15.0524 10.9447 15.1696 10.9968 15.2694 11.0748C15.3692 11.1529 15.4517 11.2526 15.5125 11.3697C15.5732 11.4868 15.6123 11.6213 15.621 11.7731C15.6253 11.8902 15.6166 12.0029 15.5862 12.1113C15.5602 12.2198 15.5125 12.3282 15.456 12.4279C15.3996 12.5277 15.3302 12.6188 15.2477 12.6968C15.1652 12.7749 15.0741 12.8443 14.9742 12.9007L15.1826 12.8703C15.2911 12.8529 15.3996 12.8486 15.5038 12.8573C15.6079 12.866 15.7121 12.8833 15.8076 12.9137C15.9074 12.944 15.9986 12.9874 16.0897 13.0351C16.1765 13.0871 16.259 13.1479 16.3371 13.2172C16.3154 13.2303 16.2894 13.2433 16.2677 13.2606C16.2981 13.2606 16.3241 13.2606 16.3545 13.2649C16.4587 13.2042 16.5628 13.1435 16.667 13.0828L16.641 12.6925C16.6323 12.5364 16.654 12.3846 16.7017 12.2414C16.7495 12.0983 16.8233 11.9639 16.9187 11.8468C17.0142 11.7297 17.1314 11.6299 17.266 11.5475C17.4005 11.4695 17.5481 11.4131 17.7087 11.3827L17.904 11.3524C17.8216 11.335 17.7434 11.309 17.674 11.27C17.6045 11.231 17.5394 11.1832 17.4873 11.1269C17.4353 11.0705 17.3919 11.0011 17.3571 10.9317C17.3267 10.858 17.305 10.7799 17.2964 10.6932C17.2877 10.5804 17.3007 10.472 17.3354 10.3679C17.3702 10.2638 17.4266 10.1684 17.496 10.0817C17.5655 9.99495 17.6523 9.92122 17.7478 9.8605C17.8476 9.79979 17.9561 9.75642 18.0733 9.73473C18.1905 9.71305 18.3033 9.71305 18.4119 9.73473C18.5204 9.75642 18.6159 9.79545 18.7027 9.85617C18.7895 9.91255 18.8589 9.99061 18.9153 10.0773C18.9674 10.1684 19.0065 10.2682 19.0152 10.3809C19.0239 10.4677 19.0195 10.5544 18.9978 10.6411C18.9804 10.7235 18.9457 10.8059 18.9023 10.884C18.8589 10.9621 18.8025 11.0315 18.7374 11.0922C18.6723 11.1529 18.5985 11.2093 18.5204 11.2526L18.6896 11.2223C18.7895 11.2049 18.885 11.2006 18.9761 11.2049C19.0716 11.2093 19.1584 11.2266 19.2452 11.2526C19.332 11.2787 19.4145 11.3134 19.4883 11.3567C19.51 11.3697 19.5317 11.3871 19.5577 11.4001H19.5621C19.5968 11.3827 19.6272 11.3654 19.6619 11.3524C19.7313 11.3177 19.8008 11.283 19.8659 11.2526C19.9353 11.2179 20.0004 11.1876 20.0699 11.1529L19.8529 9.04083ZM10.6425 10.1771L10.6903 8.71123C10.6989 8.40765 10.7684 8.10407 10.8856 7.8135C11.0028 7.52293 11.1634 7.24537 11.3674 6.99383C11.567 6.74229 11.8057 6.51677 12.0705 6.32595C12.3396 6.13513 12.6348 5.98334 12.9473 5.88793C13.2641 5.78818 13.5723 5.75348 13.8588 5.77951C14.1496 5.80553 14.4143 5.88793 14.6444 6.02237C14.8788 6.16115 15.0697 6.35197 15.213 6.59484C15.3562 6.8377 15.443 7.12827 15.456 7.45788L15.5255 9.04517L10.6425 10.1771Z" fill="#9CA0AC"/>
</svg>
