<svg fill="none" height="200" viewBox="0 0 325 200" width="325" xmlns="http://www.w3.org/2000/svg"><path clip-rule="evenodd" d="m324.706 142.598s-24.346-21.283-57.948-21.283c-22.979 0-36.802 4.517-53.153 12.578" fill="#fff" fill-rule="evenodd"/><path d="m324.706 142.598s-24.346-21.283-57.948-21.283c-22.979 0-36.802 4.517-53.153 12.578" stroke="#bababa" stroke-linecap="round"/><path clip-rule="evenodd" d="m74.8906 146.335s33.6864-31.064 78.5754-31.064c49.114 0 57.442 31.064 107.865 31.064" fill="#fff" fill-rule="evenodd"/><path d="m74.8906 146.335s33.6864-31.064 78.5754-31.064c49.114 0 57.442 31.064 107.865 31.064" stroke="#bababa" stroke-linecap="round"/><path clip-rule="evenodd" d="m147.399 167.791s-66.8883-34.657-147.399-19.539z" fill="#fff" fill-rule="evenodd"/><path d="m147.399 167.791s-66.8883-34.657-147.399-19.539" stroke="#bababa" stroke-linecap="round"/><path clip-rule="evenodd" d="m60.8809 19.9764c4.5967-6.3183 10.6819-11.48232 17.7394-14.9764z" fill="#fff" fill-rule="evenodd"/><path d="m60.8809 19.9764c4.5967-6.3183 10.6819-11.48232 17.7394-14.9764" stroke="#bababa" stroke-linecap="round"/><path clip-rule="evenodd" d="m57.4019 71.452c-3.6837-6.8366-5.773-14.6606-5.773-22.9715z" fill="#fff" fill-rule="evenodd"/><path d="m57.4019 71.452c-3.6837-6.8366-5.773-14.6606-5.773-22.9715" stroke="#bababa" stroke-linecap="round"/><path clip-rule="evenodd" d="m100.073 96.9596c-4.233 0-8.3389-.5436-12.2527-1.5641z" fill="#fff" fill-rule="evenodd"/><path d="m100.073 96.9596c-4.233 0-8.3389-.5436-12.2527-1.5641" stroke="#bababa" stroke-linecap="round"/><path clip-rule="evenodd" d="m147.2 59.7559c-.334 1.4032-.728 2.7827-1.182 4.1351-1.789 5.3419-4.481 10.2688-7.897 14.5996" fill="#fff" fill-rule="evenodd"/><path d="m147.2 59.7559c-.334 1.4032-.728 2.7827-1.182 4.1351-1.789 5.3419-4.481 10.2688-7.897 14.5996" stroke="#bababa" stroke-linecap="round"/><path clip-rule="evenodd" d="m143.617 27.209c2.541 5.1996 4.18 10.9217 4.711 16.9623z" fill="#fff" fill-rule="evenodd"/><path d="m143.617 27.209c2.541 5.1996 4.18 10.9217 4.711 16.9623" stroke="#bababa" stroke-linecap="round"/><path clip-rule="evenodd" d="m100.072 0c6.1 0 11.935 1.128 17.311 3.18668z" fill="#fff" fill-rule="evenodd"/><path d="m100.072 0c6.1 0 11.935 1.128 17.311 3.18668" stroke="#bababa" stroke-linecap="round"/><path clip-rule="evenodd" d="m68.3895 73.5279c-2.2526-2.8369-4.1321-5.9838-5.5614-9.3677z" fill="#fff" fill-rule="evenodd"/><path d="m68.3895 73.5279c-2.2526-2.8369-4.1321-5.9838-5.5614-9.3677" stroke="#bababa" stroke-linecap="round"/><path clip-rule="evenodd" d="m128.675 76.6738c-4.603 4.7009-10.348 8.2771-16.784 10.2816-3.782 1.1762-7.803 1.8105-11.9711 1.8105" fill="#fff" fill-rule="evenodd"/><path d="m128.675 76.6738c-4.603 4.7009-10.348 8.2771-16.784 10.2816-3.782 1.1762-7.803 1.8105-11.9711 1.8105" stroke="#bababa" stroke-linecap="round"/><path clip-rule="evenodd" d="m136.254 31.1104c2.515 5.2589 3.924 11.1495 3.924 17.3696z" fill="#fff" fill-rule="evenodd"/><path d="m136.254 31.1104c2.515 5.2589 3.924 11.1495 3.924 17.3696" stroke="#bababa" stroke-linecap="round"/><path clip-rule="evenodd" d="m99.9199 8.19336c6.2051 0 12.0831 1.40576 17.3321 3.91584z" fill="#fff" fill-rule="evenodd"/><path d="m99.9199 8.19336c6.2051 0 12.0831 1.40576 17.3321 3.91584" stroke="#bababa" stroke-linecap="round"/><path clip-rule="evenodd" d="m63.6875 30.9016c1.8143-3.738 4.188-7.1524 7.0144-10.135 2.5005-2.6396 5.3557-4.9414 8.4876-6.8281" fill="#fff" fill-rule="evenodd"/><path d="m63.6875 30.9016c1.8143-3.738 4.188-7.1524 7.0144-10.135 2.5005-2.6396 5.3557-4.9414 8.4876-6.8281" stroke="#bababa" stroke-linecap="round"/><path clip-rule="evenodd" d="m78.3164 23.1131c5.8533-5.043 13.4719-8.0916 21.8016-8.0916z" fill="#fff" fill-rule="evenodd"/><path d="m78.3164 23.1131c5.8533-5.043 13.4719-8.0916 21.8016-8.0916" stroke="#bababa" stroke-linecap="round"/><path clip-rule="evenodd" d="m69.0539 60.876c-1.5292-3.8337-2.3703-8.0171-2.3703-12.397 0-2.5151.2776-4.965.8031-7.3218" fill="#fff" fill-rule="evenodd"/><path d="m69.0539 60.876c-1.5292-3.8337-2.3703-8.0171-2.3703-12.397 0-2.5151.2776-4.965.8031-7.3218" stroke="#bababa" stroke-linecap="round"/><path clip-rule="evenodd" d="m100.118 81.9374c-2.3086 0-4.5621-.2337-6.7377-.68-3.8013-.7782-7.3681-2.2018-10.5795-4.1529" fill="#fff" fill-rule="evenodd"/><path d="m100.118 81.9374c-2.3086 0-4.5621-.2337-6.7377-.68-3.8013-.7782-7.3681-2.2018-10.5795-4.1529" stroke="#bababa" stroke-linecap="round"/><path clip-rule="evenodd" d="m131.314 60.5342c-1.543 3.9971-3.831 7.6233-6.695 10.7092z" fill="#fff" fill-rule="evenodd"/><path d="m131.314 60.5342c-1.543 3.9971-3.831 7.6233-6.695 10.7092" stroke="#bababa" stroke-linecap="round"/><path clip-rule="evenodd" d="m121.658 22.8906c3.078 2.5973 5.681 5.7408 7.659 9.2806z" fill="#fff" fill-rule="evenodd"/><path d="m121.658 22.8906c3.078 2.5973 5.681 5.7408 7.659 9.2806" stroke="#bababa" stroke-linecap="round"/><g clip-rule="evenodd" fill-rule="evenodd"><path d="m126.97 48.4803c0 14.8731-12.049 26.9297-26.911 26.9297s-26.9106-12.0566-26.9106-26.9297 12.0486-26.9305 26.9106-26.9305 26.911 12.0574 26.911 26.9305z" fill="#fff"/><path d="m126.97 48.4803c0 14.8731-12.049 26.9297-26.911 26.9297s-26.9106-12.0566-26.9106-26.9297 12.0486-26.9305 26.9106-26.9305 26.911 12.0574 26.911 26.9305z" stroke="#bababa" stroke-linecap="round"/><path d="m310.273 70.5029h-10.872c.146-.8469.23-1.7157.23-2.6041 0-5.933-3.373-11.0742-8.302-13.6189-2.158-10.771-11.66-18.8863-23.059-18.8863-8.748 0-16.374 4.7829-20.427 11.8744-1.008-.4285-2.116-.6656-3.28-.6656-4.64 0-8.4 3.7634-8.4 8.4066 0 .1279.012.2532.018.3802-.674-.1202-1.364-.1939-2.072-.1939-6.496 0-11.76 5.2691-11.76 11.7695 0 1.2347.2 2.4202.552 3.5381h-10.809" fill="#fff"/></g><path d="m310.273 70.5029h-10.872c.146-.8469.23-1.7157.23-2.6041 0-5.933-3.373-11.0742-8.302-13.6189-2.158-10.771-11.66-18.8863-23.059-18.8863-8.748 0-16.374 4.7829-20.427 11.8744-1.008-.4285-2.116-.6656-3.28-.6656-4.64 0-8.4 3.7634-8.4 8.4066 0 .1279.012.2532.018.3802-.674-.1202-1.364-.1939-2.072-.1939-6.496 0-11.76 5.2691-11.76 11.7695 0 1.2347.2 2.4202.552 3.5381h-10.809" stroke="#bababa" stroke-linecap="round"/><path clip-rule="evenodd" d="m245.935 31.8609h-10.723c0-.0017 0-.0043 0-.0068 0-3.7287-3.048-6.779-6.774-6.779h-2.122c-1.336-3.9446-5.009-6.834-9.348-6.9949-1.517-6.2303-7.127-10.85657-13.82-10.85657-7.683 0-13.938 6.09557-14.211 13.71717-1.953 1.8749-3.175 4.5061-3.175 7.4108 0 1.2313.219 2.4135.621 3.5093h-5.321" fill="#fff" fill-rule="evenodd"/><path d="m245.935 31.8609h-10.723c0-.0017 0-.0043 0-.0068 0-3.7287-3.048-6.779-6.774-6.779h-2.122c-1.336-3.9446-5.009-6.834-9.348-6.9949-1.517-6.2303-7.127-10.85657-13.82-10.85657-7.683 0-13.938 6.09557-14.211 13.71717-1.953 1.8749-3.175 4.5061-3.175 7.4108 0 1.2313.219 2.4135.621 3.5093h-5.321" stroke="#bababa" stroke-linecap="round"/><path clip-rule="evenodd" d="m280.799 129.416 1.318-1.315c.633-.632.99-1.49.991-2.386l.01-6.663c.003-1.795 1.287-3.401 3.065-3.634 2.153-.282 4.008 1.41 4.005 3.512l-.005 3.21h.195c.812 0 1.478.666 1.478 1.479 0 .814-.666 1.479-1.478 1.479h-.2l-.002 1.35c-.005 3.523-2.119 5.769-2.82 6.415l-8.022 8.004-.003 2.959h1.478c.812 0 1.478.665 1.478 1.478 0 .814-.666 1.479-1.478 1.479h-1.481l-.019 18.151-16.59-.024.011-15.41-5.101-5.213-.31.31c-.574.574-1.514.574-2.089 0-.575-.575-.575-1.517 0-2.092l.331-.331-1.886-1.927c-4.14-3.958-4.114-7.103-4.106-11.673l.005-3.476h-.768c-.813 0-1.478-.665-1.478-1.479 0-.813.665-1.479 1.478-1.479h.771l.011-6.685c.005-2.806 2.519-5.049 5.402-4.595 2.287.36 3.917 2.433 3.913 4.75l-.001.594.458-.008c.812 0 1.477.666 1.477 1.479 0 .814-.665 1.479-1.477 1.479l-.461.006-.019 11.925c-.001.861.339 1.688.947 2.297l2.923 2.935.007-9.898h.066c-.812 0-1.477-.665-1.477-1.479 0-.813.665-1.478 1.477-1.478h-.061l.023-10.86c.005-3.017 1.644-5.662 4.07-7.111l-.88-2.081c-.318-.749.036-1.622.784-1.939.749-.317 1.621.036 1.937.786l.928 2.194c.479-.087.968-.138 1.469-.137 2.821.004 5.319 1.438 6.817 3.609l1.432-.828c.704-.407 1.613-.163 2.019.541.407.704.162 1.614-.541 2.02l-1.694.978c.158.641.251 1.306.25 1.993l-.025 16.791z" fill="#fff" fill-rule="evenodd"/><path clip-rule="evenodd" d="m280.799 129.416 1.318-1.315c.633-.632.99-1.49.991-2.386l.01-6.663c.003-1.795 1.287-3.401 3.065-3.634 2.153-.282 4.008 1.41 4.005 3.512l-.005 3.21h.195c.812 0 1.478.666 1.478 1.479 0 .814-.666 1.479-1.478 1.479h-.2l-.002 1.35c-.005 3.523-2.119 5.769-2.82 6.415l-8.022 8.004-.003 2.959h1.478c.812 0 1.478.665 1.478 1.478 0 .814-.666 1.479-1.478 1.479h-1.481l-.019 18.151-16.59-.024.011-15.41-5.101-5.213-.309.31c-.575.574-1.515.574-2.09 0-.575-.575-.575-1.517 0-2.092l.331-.331-1.886-1.927c-4.14-3.958-4.114-7.103-4.106-11.673l.005-3.476h-.768c-.813 0-1.478-.665-1.478-1.479 0-.813.665-1.479 1.478-1.479h.771l.011-6.685c.005-2.806 2.519-5.049 5.402-4.595 2.287.36 3.917 2.433 3.913 4.75l-.001.594.458-.008c.812 0 1.477.666 1.477 1.479 0 .814-.665 1.479-1.477 1.479l-.461.006-.019 11.925c-.001.861.339 1.688.947 2.297l2.923 2.935.007-9.898h.066c-.812 0-1.477-.665-1.477-1.479 0-.813.665-1.478 1.477-1.478h-.061l.023-10.86c.005-3.017 1.644-5.662 4.07-7.111l-.88-2.081c-.318-.749.036-1.622.784-1.939.749-.317 1.621.036 1.937.786l.928 2.194c.479-.087.968-.138 1.469-.137 2.821.004 5.319 1.438 6.817 3.609l1.432-.828c.704-.407 1.613-.163 2.019.541.407.704.162 1.614-.541 2.02l-1.694.978c.158.641.251 1.306.25 1.993l-.025 16.791z" fill-rule="evenodd" stroke="#bababa" stroke-linecap="round"/><path clip-rule="evenodd" d="m272.566 153.182h2.634c.812 0 1.477.665 1.477 1.478 0 .814-.665 1.479-1.477 1.479h-2.634" fill="#fff" fill-rule="evenodd"/><path d="m272.566 153.182h2.634c.812 0 1.477.665 1.477 1.478 0 .814-.665 1.479-1.477 1.479h-2.634" stroke="#bababa" stroke-linecap="round"/><path clip-rule="evenodd" d="m271.904 114.875h2.634c.812 0 1.477.666 1.477 1.479s-.665 1.478-1.477 1.478h-2.634" fill="#fff" fill-rule="evenodd"/><path d="m271.904 114.875h2.634c.812 0 1.477.666 1.477 1.479s-.665 1.478-1.477 1.478h-2.634" stroke="#bababa" stroke-linecap="round"/><path clip-rule="evenodd" d="m278.506 129.405h2.632c.814 0 1.478.666 1.478 1.479 0 .814-.664 1.478-1.478 1.478h-2.632" fill="#fff" fill-rule="evenodd"/><path d="m278.506 129.405h2.632c.814 0 1.478.666 1.478 1.479 0 .814-.664 1.478-1.478 1.478h-2.632" stroke="#bababa" stroke-linecap="round"/><path d="m299.912 164.933h-58.1" stroke="#bababa" stroke-linecap="round"/><path clip-rule="evenodd" d="m265.457 126.419h-2.634c-.812 0-1.477-.666-1.477-1.479s.665-1.479 1.477-1.479h2.634" fill="#fff" fill-rule="evenodd"/><path d="m265.457 126.419h-2.634c-.812 0-1.477-.666-1.477-1.479s.665-1.479 1.477-1.479h2.634" stroke="#bababa" stroke-linecap="round"/><path clip-rule="evenodd" d="m256.727 116.196h2.633c.812 0 1.478.666 1.478 1.479 0 .814-.666 1.478-1.478 1.478h-2.633" fill="#fff" fill-rule="evenodd"/><path d="m256.727 116.196h2.633c.812 0 1.478.666 1.478 1.479 0 .814-.666 1.478-1.478 1.478h-2.633" stroke="#bababa" stroke-linecap="round"/><path clip-rule="evenodd" d="m181.013 130.44 2.565-2.559c1.234-1.23 1.929-2.901 1.93-4.644l.02-12.97c.006-3.496 2.503-6.62 5.966-7.073 4.192-.549 7.801 2.744 7.794 6.835l-.009 6.25h.381c1.581 0 2.876 1.295 2.876 2.878 0 1.584-1.295 2.879-2.876 2.879h-.39l-.004 2.626c-.01 6.859-4.126 11.231-5.488 12.489l-15.616 15.579-.006 5.76h2.876c1.582 0 2.877 1.295 2.877 2.877 0 1.584-1.295 2.879-2.877 2.879h-2.881l-.036 35.331-32.295-.049.022-29.994-9.929-10.147-.603.603c-1.117 1.12-2.948 1.12-4.067 0-1.118-1.119-1.118-2.951 0-4.07l.644-.646-3.671-3.751c-8.059-7.705-8.007-13.824-7.993-22.72l.01-6.767h-1.494c-1.582 0-2.876-1.295-2.876-2.879 0-1.583 1.294-2.878 2.876-2.878h1.503l.019-13.013c.009-5.462 4.902-9.8292 10.514-8.9451 4.454.7012 7.625 4.7356 7.618 9.2471l-.002 1.156.891-.015c1.581 0 2.875 1.295 2.875 2.879 0 1.582-1.294 2.878-2.875 2.878l-.898.009-.037 23.215c-.002 1.676.661 3.285 1.844 4.472l5.69 5.711.014-19.266h.129c-1.582 0-2.876-1.295-2.876-2.878 0-1.584 1.294-2.878 2.876-2.878h-.121l.047-21.1376c.008-5.8746 3.201-11.0225 7.922-13.8442l-1.714-4.0505c-.616-1.4582.07-3.1553 1.527-3.7727 1.458-.6173 3.154.0703 3.77 1.5277l1.808 4.2715c.93-.1677 1.882-.2684 2.858-.2667 5.491.0084 10.354 2.7988 13.268 7.0254l2.789-1.6116c1.37-.7918 3.138-.3175 3.929 1.0535.792 1.3711.318 3.1401-1.052 3.9319l-3.298 1.9054c.309 1.2457.489 2.5405.487 3.8786l-.049 32.6833z" fill="#fff" fill-rule="evenodd"/><path clip-rule="evenodd" d="m181.013 130.44 2.565-2.559c1.234-1.23 1.929-2.901 1.93-4.644l.02-12.97c.006-3.496 2.503-6.62 5.966-7.073 4.192-.549 7.801 2.744 7.794 6.835l-.009 6.25h.381c1.581 0 2.876 1.295 2.876 2.878 0 1.584-1.295 2.879-2.876 2.879h-.39l-.004 2.626c-.01 6.859-4.126 11.231-5.488 12.489l-15.616 15.579-.006 5.76h2.876c1.582 0 2.877 1.295 2.877 2.877 0 1.584-1.295 2.879-2.877 2.879h-2.881l-.036 35.331-32.295-.049.022-29.994-9.929-10.147-.603.603c-1.117 1.12-2.948 1.12-4.067 0-1.118-1.119-1.118-2.951 0-4.07l.644-.646-3.671-3.751c-8.059-7.705-8.007-13.824-7.993-22.72l.01-6.767h-1.494c-1.582 0-2.876-1.295-2.876-2.879 0-1.583 1.294-2.878 2.876-2.878h1.503l.019-13.013c.009-5.462 4.902-9.8292 10.514-8.9451 4.454.7012 7.625 4.7356 7.618 9.2471l-.002 1.156.891-.015c1.581 0 2.875 1.295 2.875 2.879 0 1.582-1.294 2.878-2.875 2.878l-.898.009-.037 23.215c-.002 1.676.661 3.285 1.844 4.472l5.69 5.711.014-19.266h.129c-1.582 0-2.876-1.295-2.876-2.878 0-1.584 1.294-2.878 2.876-2.878h-.121l.047-21.1376c.008-5.8746 3.201-11.0225 7.922-13.8442l-1.714-4.0505c-.616-1.4582.07-3.1553 1.527-3.7727 1.458-.6173 3.154.0703 3.77 1.5277l1.808 4.2715c.93-.1677 1.882-.2684 2.858-.2667 5.491.0084 10.354 2.7988 13.268 7.0254l2.789-1.6116c1.37-.7918 3.138-.3175 3.929 1.0535.792 1.3711.318 3.1401-1.052 3.9319l-3.298 1.9054c.309 1.2457.489 2.5405.487 3.8786l-.049 32.6833z" fill-rule="evenodd" stroke="#bababa" stroke-linecap="round"/><path clip-rule="evenodd" d="m164.986 176.702h5.127c1.581 0 2.875 1.295 2.875 2.879 0 1.582-1.294 2.878-2.875 2.878h-5.127" fill="#fff" fill-rule="evenodd"/><path d="m164.986 176.702h5.127c1.581 0 2.875 1.295 2.875 2.879 0 1.582-1.294 2.878-2.875 2.878h-5.127" stroke="#bababa" stroke-linecap="round"/><path clip-rule="evenodd" d="m163.701 102.138h5.127c1.581 0 2.876 1.295 2.876 2.878s-1.295 2.879-2.876 2.879h-5.127" fill="#fff" fill-rule="evenodd"/><path d="m163.701 102.138h5.127c1.581 0 2.876 1.295 2.876 2.878s-1.295 2.879-2.876 2.879h-5.127" stroke="#bababa" stroke-linecap="round"/><path clip-rule="evenodd" d="m176.549 130.421h5.126c1.583 0 2.877 1.296 2.877 2.878 0 1.584-1.294 2.879-2.877 2.879h-5.126" fill="#fff" fill-rule="evenodd"/><path d="m176.549 130.421h5.126c1.583 0 2.877 1.296 2.877 2.878 0 1.584-1.294 2.879-2.877 2.879h-5.126" stroke="#bababa" stroke-linecap="round"/><path d="m277.533 199.577h-248.5545" stroke="#bababa" stroke-linecap="round"/><path clip-rule="evenodd" d="m151.15 124.607h-5.126c-1.582 0-2.876-1.295-2.876-2.878 0-1.584 1.294-2.878 2.876-2.878h5.126" fill="#fff" fill-rule="evenodd"/><path d="m151.15 124.607h-5.126c-1.582 0-2.876-1.295-2.876-2.878 0-1.584 1.294-2.878 2.876-2.878h5.126" stroke="#bababa" stroke-linecap="round"/><path clip-rule="evenodd" d="m134.154 104.709h5.127c1.581 0 2.875 1.295 2.875 2.878s-1.294 2.879-2.875 2.879h-5.127" fill="#fff" fill-rule="evenodd"/><path d="m134.154 104.709h5.127c1.581 0 2.875 1.295 2.875 2.878s-1.294 2.879-2.875 2.879h-5.127" stroke="#bababa" stroke-linecap="round"/><path clip-rule="evenodd" d="m62.6704 132.184 1.4183-1.414c.6812-.68 1.0654-1.603 1.0671-2.567l.0101-7.169c.0026-1.932 1.3836-3.659 3.2978-3.909 2.3161-.303 4.3106 1.516 4.3081 3.777l-.0051 3.455h.2107c.8742 0 1.5892.716 1.5892 1.591s-.715 1.591-1.5892 1.591h-.2158l-.0025 1.452c-.0051 3.791-2.2797 6.207-3.0337 6.902l-8.6307 8.611-.0033 3.183h1.59c.8742 0 1.5901.717 1.5901 1.592 0 .874-.7159 1.59-1.5901 1.59h-1.5934l-.0195 19.528-17.8494-.026.0118-16.579-5.4877-5.608-.3334.333c-.6178.619-1.6299.619-2.2485 0-.6177-.619-.6177-1.631 0-2.25l.3563-.356-2.0284-2.073c-4.4554-4.26-4.4258-7.642-4.419-12.559l.0059-3.74h-.8259c-.8741 0-1.59-.716-1.59-1.591s.7159-1.591 1.59-1.591h.831l.0102-7.193c.0042-3.019 2.7096-5.432 5.8118-4.943 2.4617.387 4.2142 2.617 4.21 5.11l-.0017.639.4925-.008c.8742 0 1.5901.716 1.5901 1.591s-.7159 1.591-1.5901 1.591l-.4959.006-.0194 12.83c-.0017.927.3647 1.816 1.0188 2.472l3.1446 3.157.0085-10.649h.0702c-.8742 0-1.5892-.715-1.5892-1.591 0-.875.715-1.59 1.5892-1.59h-.0669l.0271-11.683c.0042-3.247 1.7686-6.093 4.3775-7.653l-.9469-2.239c-.341-.805.0389-1.743.8437-2.085.8064-.341 1.7432.039 2.0842.846l.9986 2.36c.5145-.093 1.04-.148 1.5807-.148 3.0346.005 5.7222 1.548 7.3326 3.883l1.5418-.89c.7574-.438 1.7348-.176 2.1723.582.4366.758.1751 1.736-.5822 2.173l-1.8228 1.053c.1701.689.2699 1.404.2691 2.144l-.0271 18.065z" fill="#fff" fill-rule="evenodd"/><path clip-rule="evenodd" d="m62.6704 132.184 1.4183-1.414c.6812-.68 1.0654-1.603 1.0671-2.567l.0101-7.169c.0026-1.932 1.3836-3.659 3.2978-3.909 2.3161-.303 4.3106 1.516 4.3081 3.777l-.0051 3.455h.2107c.8742 0 1.5892.716 1.5892 1.591s-.715 1.591-1.5892 1.591h-.2158l-.0025 1.452c-.0051 3.791-2.2797 6.207-3.0337 6.902l-8.6307 8.611-.0033 3.183h1.59c.8742 0 1.5901.717 1.5901 1.592 0 .874-.7159 1.59-1.5901 1.59h-1.5934l-.0195 19.528-17.8494-.026.0118-16.579-5.4877-5.608-.3334.333c-.6178.619-1.6299.619-2.2485 0-.6177-.619-.6177-1.631 0-2.25l.3563-.356-2.0284-2.073c-4.4554-4.26-4.4258-7.642-4.419-12.559l.0059-3.74h-.8259c-.8741 0-1.59-.716-1.59-1.591s.7159-1.591 1.59-1.591h.831l.0102-7.193c.0042-3.019 2.7096-5.432 5.8118-4.943 2.4617.387 4.2142 2.617 4.21 5.11l-.0017.639.4925-.008c.8742 0 1.5901.716 1.5901 1.591s-.7159 1.591-1.5901 1.591l-.4959.006-.0194 12.83c-.0017.927.3647 1.816 1.0188 2.472l3.1446 3.157.0085-10.649h.0702c-.8742 0-1.5892-.715-1.5892-1.591 0-.875.715-1.59 1.5892-1.59h-.0669l.0271-11.683c.0042-3.247 1.7686-6.093 4.3775-7.653l-.9469-2.239c-.341-.805.0389-1.743.8437-2.085.8064-.341 1.7432.039 2.0842.846l.9986 2.36c.5145-.093 1.04-.148 1.5807-.148 3.0346.005 5.7222 1.548 7.3326 3.883l1.5418-.89c.7574-.438 1.7348-.176 2.1723.582.4366.758.1751 1.736-.5822 2.173l-1.8228 1.053c.1701.689.2699 1.404.2691 2.144l-.0271 18.065z" fill-rule="evenodd" stroke="#bababa" stroke-linecap="round"/><path clip-rule="evenodd" d="m53.8105 157.754h2.8341c.8741 0 1.5892.715 1.5892 1.591 0 .875-.7151 1.591-1.5892 1.591h-2.8341" fill="#fff" fill-rule="evenodd"/><path d="m53.8105 157.754h2.8341c.8741 0 1.5892.715 1.5892 1.591 0 .875-.7151 1.591-1.5892 1.591h-2.8341" stroke="#bababa" stroke-linecap="round"/><path clip-rule="evenodd" d="m53.1016 116.541h2.8331c.8742 0 1.5901.716 1.5901 1.591s-.7159 1.591-1.5901 1.591h-2.8331" fill="#fff" fill-rule="evenodd"/><path d="m53.1016 116.541h2.8331c.8742 0 1.5901.716 1.5901 1.591s-.7159 1.591-1.5901 1.591h-2.8331" stroke="#bababa" stroke-linecap="round"/><path clip-rule="evenodd" d="m60.2031 132.174h2.834c.8742 0 1.5892.716 1.5892 1.591s-.715 1.59-1.5892 1.59h-2.834" fill="#fff" fill-rule="evenodd"/><path d="m60.2031 132.174h2.834c.8742 0 1.5892.716 1.5892 1.591s-.715 1.59-1.5892 1.59h-2.834" stroke="#bababa" stroke-linecap="round"/><path d="m83.2338 170.397h-62.5072" stroke="#bababa" stroke-linecap="round"/><path clip-rule="evenodd" d="m46.1643 128.96h-2.834c-.8742 0-1.5901-.716-1.5901-1.59 0-.876.7159-1.592 1.5901-1.592h2.834" fill="#fff" fill-rule="evenodd"/><path d="m46.1643 128.96h-2.834c-.8742 0-1.5901-.716-1.5901-1.59 0-.876.7159-1.592 1.5901-1.592h2.834" stroke="#bababa" stroke-linecap="round"/><path clip-rule="evenodd" d="m36.7715 117.962h2.8331c.8742 0 1.5901.716 1.5901 1.591s-.7159 1.591-1.5901 1.591h-2.8331" fill="#fff" fill-rule="evenodd"/><path d="m36.7715 117.962h2.8331c.8742 0 1.5901.716 1.5901 1.591s-.7159 1.591-1.5901 1.591h-2.8331" stroke="#bababa" stroke-linecap="round"/></svg>