<svg width="325" height="200" viewBox="0 0 325 200" fill="none" xmlns="http://www.w3.org/2000/svg">
<path fill-rule="evenodd" clip-rule="evenodd" d="M324.706 142.598C324.706 142.598 300.36 121.315 266.758 121.315C243.779 121.315 229.956 125.832 213.605 133.893" fill="white"/>
<path d="M324.706 142.598C324.706 142.598 300.36 121.315 266.758 121.315C243.779 121.315 229.956 125.832 213.605 133.893" stroke="#BABABA" stroke-linecap="round"/>
<path fill-rule="evenodd" clip-rule="evenodd" d="M74.8906 146.335C74.8906 146.335 108.577 115.271 153.466 115.271C202.58 115.271 210.908 146.335 261.331 146.335" fill="white"/>
<path d="M74.8906 146.335C74.8906 146.335 108.577 115.271 153.466 115.271C202.58 115.271 210.908 146.335 261.331 146.335" stroke="#BABABA" stroke-linecap="round"/>
<path fill-rule="evenodd" clip-rule="evenodd" d="M147.399 167.791C147.399 167.791 80.5107 133.134 0 148.252L147.399 167.791Z" fill="white"/>
<path d="M147.399 167.791C147.399 167.791 80.5107 133.134 0 148.252" stroke="#BABABA" stroke-linecap="round"/>
<path fill-rule="evenodd" clip-rule="evenodd" d="M60.8809 19.9764C65.4776 13.6581 71.5628 8.49408 78.6203 5L60.8809 19.9764Z" fill="white"/>
<path d="M60.8809 19.9764C65.4776 13.6581 71.5628 8.49408 78.6203 5" stroke="#BABABA" stroke-linecap="round"/>
<path fill-rule="evenodd" clip-rule="evenodd" d="M57.4019 71.452C53.7182 64.6154 51.6289 56.7914 51.6289 48.4805L57.4019 71.452Z" fill="white"/>
<path d="M57.4019 71.452C53.7182 64.6154 51.6289 56.7914 51.6289 48.4805" stroke="#BABABA" stroke-linecap="round"/>
<path fill-rule="evenodd" clip-rule="evenodd" d="M100.073 96.9596C95.84 96.9596 91.7341 96.416 87.8203 95.3955L100.073 96.9596Z" fill="white"/>
<path d="M100.073 96.9596C95.84 96.9596 91.7341 96.416 87.8203 95.3955" stroke="#BABABA" stroke-linecap="round"/>
<path fill-rule="evenodd" clip-rule="evenodd" d="M147.2 59.7559C146.866 61.1591 146.472 62.5386 146.018 63.891C144.229 69.2329 141.537 74.1598 138.121 78.4906" fill="white"/>
<path d="M147.2 59.7559C146.866 61.1591 146.472 62.5386 146.018 63.891C144.229 69.2329 141.537 74.1598 138.121 78.4906" stroke="#BABABA" stroke-linecap="round"/>
<path fill-rule="evenodd" clip-rule="evenodd" d="M143.617 27.209C146.158 32.4086 147.797 38.1307 148.328 44.1713L143.617 27.209Z" fill="white"/>
<path d="M143.617 27.209C146.158 32.4086 147.797 38.1307 148.328 44.1713" stroke="#BABABA" stroke-linecap="round"/>
<path fill-rule="evenodd" clip-rule="evenodd" d="M100.072 0C106.172 0 112.007 1.128 117.383 3.18668L100.072 0Z" fill="white"/>
<path d="M100.072 0C106.172 0 112.007 1.128 117.383 3.18668" stroke="#BABABA" stroke-linecap="round"/>
<path fill-rule="evenodd" clip-rule="evenodd" d="M68.3895 73.5279C66.1369 70.691 64.2574 67.5441 62.8281 64.1602L68.3895 73.5279Z" fill="white"/>
<path d="M68.3895 73.5279C66.1369 70.691 64.2574 67.5441 62.8281 64.1602" stroke="#BABABA" stroke-linecap="round"/>
<path fill-rule="evenodd" clip-rule="evenodd" d="M128.675 76.6738C124.072 81.3747 118.327 84.9509 111.891 86.9554C108.109 88.1316 104.088 88.7659 99.9199 88.7659" fill="white"/>
<path d="M128.675 76.6738C124.072 81.3747 118.327 84.9509 111.891 86.9554C108.109 88.1316 104.088 88.7659 99.9199 88.7659" stroke="#BABABA" stroke-linecap="round"/>
<path fill-rule="evenodd" clip-rule="evenodd" d="M136.254 31.1104C138.769 36.3693 140.178 42.2599 140.178 48.48L136.254 31.1104Z" fill="white"/>
<path d="M136.254 31.1104C138.769 36.3693 140.178 42.2599 140.178 48.48" stroke="#BABABA" stroke-linecap="round"/>
<path fill-rule="evenodd" clip-rule="evenodd" d="M99.9199 8.19336C106.125 8.19336 112.003 9.59912 117.252 12.1092L99.9199 8.19336Z" fill="white"/>
<path d="M99.9199 8.19336C106.125 8.19336 112.003 9.59912 117.252 12.1092" stroke="#BABABA" stroke-linecap="round"/>
<path fill-rule="evenodd" clip-rule="evenodd" d="M63.6875 30.9016C65.5018 27.1636 67.8755 23.7492 70.7019 20.7666C73.2024 18.127 76.0576 15.8252 79.1895 13.9385" fill="white"/>
<path d="M63.6875 30.9016C65.5018 27.1636 67.8755 23.7492 70.7019 20.7666C73.2024 18.127 76.0576 15.8252 79.1895 13.9385" stroke="#BABABA" stroke-linecap="round"/>
<path fill-rule="evenodd" clip-rule="evenodd" d="M78.3164 23.1131C84.1697 18.0701 91.7883 15.0215 100.118 15.0215L78.3164 23.1131Z" fill="white"/>
<path d="M78.3164 23.1131C84.1697 18.0701 91.7883 15.0215 100.118 15.0215" stroke="#BABABA" stroke-linecap="round"/>
<path fill-rule="evenodd" clip-rule="evenodd" d="M69.0539 60.876C67.5247 57.0423 66.6836 52.8589 66.6836 48.479C66.6836 45.9639 66.9612 43.514 67.4867 41.1572" fill="white"/>
<path d="M69.0539 60.876C67.5247 57.0423 66.6836 52.8589 66.6836 48.479C66.6836 45.9639 66.9612 43.514 67.4867 41.1572" stroke="#BABABA" stroke-linecap="round"/>
<path fill-rule="evenodd" clip-rule="evenodd" d="M100.118 81.9374C97.8094 81.9374 95.5559 81.7037 93.3803 81.2574C89.579 80.4792 86.0122 79.0556 82.8008 77.1045" fill="white"/>
<path d="M100.118 81.9374C97.8094 81.9374 95.5559 81.7037 93.3803 81.2574C89.579 80.4792 86.0122 79.0556 82.8008 77.1045" stroke="#BABABA" stroke-linecap="round"/>
<path fill-rule="evenodd" clip-rule="evenodd" d="M131.314 60.5342C129.771 64.5313 127.483 68.1575 124.619 71.2434L131.314 60.5342Z" fill="white"/>
<path d="M131.314 60.5342C129.771 64.5313 127.483 68.1575 124.619 71.2434" stroke="#BABABA" stroke-linecap="round"/>
<path fill-rule="evenodd" clip-rule="evenodd" d="M121.658 22.8906C124.736 25.4879 127.339 28.6314 129.317 32.1712L121.658 22.8906Z" fill="white"/>
<path d="M121.658 22.8906C124.736 25.4879 127.339 28.6314 129.317 32.1712" stroke="#BABABA" stroke-linecap="round"/>
<path fill-rule="evenodd" clip-rule="evenodd" d="M126.97 48.4803C126.97 63.3534 114.921 75.41 100.059 75.41C85.197 75.41 73.1484 63.3534 73.1484 48.4803C73.1484 33.6072 85.197 21.5498 100.059 21.5498C114.921 21.5498 126.97 33.6072 126.97 48.4803Z" fill="white"/>
<path fill-rule="evenodd" clip-rule="evenodd" d="M126.97 48.4803C126.97 63.3534 114.921 75.41 100.059 75.41C85.197 75.41 73.1484 63.3534 73.1484 48.4803C73.1484 33.6072 85.197 21.5498 100.059 21.5498C114.921 21.5498 126.97 33.6072 126.97 48.4803Z" stroke="#BABABA" stroke-linecap="round"/>
<path fill-rule="evenodd" clip-rule="evenodd" d="M310.273 70.5029H299.401C299.547 69.656 299.631 68.7872 299.631 67.8988C299.631 61.9658 296.258 56.8246 291.329 54.2799C289.171 43.5089 279.669 35.3936 268.27 35.3936C259.522 35.3936 251.896 40.1765 247.843 47.268C246.835 46.8395 245.727 46.6024 244.563 46.6024C239.923 46.6024 236.163 50.3658 236.163 55.009C236.163 55.1369 236.175 55.2622 236.181 55.3892C235.507 55.269 234.817 55.1953 234.109 55.1953C227.613 55.1953 222.349 60.4644 222.349 66.9648C222.349 68.1995 222.549 69.385 222.901 70.5029H212.092" fill="white"/>
<path d="M310.273 70.5029H299.401C299.547 69.656 299.631 68.7872 299.631 67.8988C299.631 61.9658 296.258 56.8246 291.329 54.2799C289.171 43.5089 279.669 35.3936 268.27 35.3936C259.522 35.3936 251.896 40.1765 247.843 47.268C246.835 46.8395 245.727 46.6024 244.563 46.6024C239.923 46.6024 236.163 50.3658 236.163 55.009C236.163 55.1369 236.175 55.2622 236.181 55.3892C235.507 55.269 234.817 55.1953 234.109 55.1953C227.613 55.1953 222.349 60.4644 222.349 66.9648C222.349 68.1995 222.549 69.385 222.901 70.5029H212.092" stroke="#BABABA" stroke-linecap="round"/>
<path fill-rule="evenodd" clip-rule="evenodd" d="M245.935 31.8609H235.212C235.212 31.8592 235.212 31.8566 235.212 31.8541C235.212 28.1254 232.164 25.0751 228.438 25.0751H226.316C224.98 21.1305 221.307 18.2411 216.968 18.0802C215.451 11.8499 209.841 7.22363 203.148 7.22363C195.465 7.22363 189.21 13.3192 188.937 20.9408C186.984 22.8157 185.762 25.4469 185.762 28.3516C185.762 29.5829 185.981 30.7651 186.383 31.8609H181.062" fill="white"/>
<path d="M245.935 31.8609H235.212C235.212 31.8592 235.212 31.8566 235.212 31.8541C235.212 28.1254 232.164 25.0751 228.438 25.0751H226.316C224.98 21.1305 221.307 18.2411 216.968 18.0802C215.451 11.8499 209.841 7.22363 203.148 7.22363C195.465 7.22363 189.21 13.3192 188.937 20.9408C186.984 22.8157 185.762 25.4469 185.762 28.3516C185.762 29.5829 185.981 30.7651 186.383 31.8609H181.062" stroke="#BABABA" stroke-linecap="round"/>
<path fill-rule="evenodd" clip-rule="evenodd" d="M280.799 129.416L282.117 128.101C282.75 127.469 283.107 126.611 283.108 125.715L283.118 119.052C283.121 117.257 284.405 115.651 286.183 115.418C288.336 115.136 290.191 116.828 290.188 118.93L290.183 122.14H290.378C291.19 122.14 291.856 122.806 291.856 123.619C291.856 124.433 291.19 125.098 290.378 125.098H290.178L290.176 126.448C290.171 129.971 288.057 132.217 287.356 132.863L279.334 140.867L279.331 143.826H280.809C281.621 143.826 282.287 144.491 282.287 145.304C282.287 146.118 281.621 146.783 280.809 146.783H279.328L279.309 164.934L262.719 164.91L262.73 149.5L257.629 144.287L257.319 144.597C256.745 145.171 255.805 145.171 255.23 144.597C254.655 144.022 254.655 143.08 255.23 142.505L255.561 142.174L253.675 140.247C249.535 136.289 249.561 133.144 249.569 128.574L249.574 125.098H248.806C247.993 125.098 247.328 124.433 247.328 123.619C247.328 122.806 247.993 122.14 248.806 122.14H249.577L249.588 115.455C249.593 112.649 252.107 110.406 254.99 110.86C257.277 111.22 258.907 113.293 258.903 115.61L258.902 116.204L259.36 116.196C260.172 116.196 260.837 116.862 260.837 117.675C260.837 118.489 260.172 119.154 259.36 119.154L258.899 119.16L258.88 131.085C258.879 131.946 259.219 132.773 259.827 133.382L262.75 136.317L262.757 126.419H262.823C262.011 126.419 261.346 125.754 261.346 124.94C261.346 124.127 262.011 123.462 262.823 123.462H262.762L262.785 112.602C262.79 109.585 264.429 106.94 266.855 105.491L265.975 103.41C265.657 102.661 266.011 101.788 266.759 101.471C267.508 101.154 268.38 101.507 268.696 102.257L269.624 104.451C270.103 104.364 270.592 104.313 271.093 104.314C273.914 104.318 276.412 105.752 277.91 107.923L279.342 107.095C280.046 106.688 280.955 106.932 281.361 107.636C281.768 108.34 281.523 109.25 280.82 109.656L279.126 110.634C279.284 111.275 279.377 111.94 279.376 112.627L279.351 129.418L280.799 129.416Z" fill="white"/>
<path fill-rule="evenodd" clip-rule="evenodd" d="M280.799 129.416L282.117 128.101C282.75 127.469 283.107 126.611 283.108 125.715L283.118 119.052C283.121 117.257 284.405 115.651 286.183 115.418C288.336 115.136 290.191 116.828 290.188 118.93L290.183 122.14H290.378C291.19 122.14 291.856 122.806 291.856 123.619C291.856 124.433 291.19 125.098 290.378 125.098H290.178L290.176 126.448C290.171 129.971 288.057 132.217 287.356 132.863L279.334 140.867L279.331 143.826H280.809C281.621 143.826 282.287 144.491 282.287 145.304C282.287 146.118 281.621 146.783 280.809 146.783H279.328L279.309 164.934L262.719 164.91L262.73 149.5L257.629 144.287L257.32 144.597C256.745 145.171 255.805 145.171 255.23 144.597C254.655 144.022 254.655 143.08 255.23 142.505L255.561 142.174L253.675 140.247C249.535 136.289 249.561 133.144 249.569 128.574L249.574 125.098H248.806C247.993 125.098 247.328 124.433 247.328 123.619C247.328 122.806 247.993 122.14 248.806 122.14H249.577L249.588 115.455C249.593 112.649 252.107 110.406 254.99 110.86C257.277 111.22 258.907 113.293 258.903 115.61L258.902 116.204L259.36 116.196C260.172 116.196 260.837 116.862 260.837 117.675C260.837 118.489 260.172 119.154 259.36 119.154L258.899 119.16L258.88 131.085C258.879 131.946 259.219 132.773 259.827 133.382L262.75 136.317L262.757 126.419H262.823C262.011 126.419 261.346 125.754 261.346 124.94C261.346 124.127 262.011 123.462 262.823 123.462H262.762L262.785 112.602C262.79 109.585 264.429 106.94 266.855 105.491L265.975 103.41C265.657 102.661 266.011 101.788 266.759 101.471C267.508 101.154 268.38 101.507 268.696 102.257L269.624 104.451C270.103 104.364 270.592 104.313 271.093 104.314C273.914 104.318 276.412 105.752 277.91 107.923L279.342 107.095C280.046 106.688 280.955 106.932 281.361 107.636C281.768 108.34 281.523 109.25 280.82 109.656L279.126 110.634C279.284 111.275 279.377 111.94 279.376 112.627L279.351 129.418L280.799 129.416Z" stroke="#BABABA" stroke-linecap="round"/>
<path fill-rule="evenodd" clip-rule="evenodd" d="M272.566 153.182H275.2C276.012 153.182 276.677 153.847 276.677 154.66C276.677 155.474 276.012 156.139 275.2 156.139H272.566" fill="white"/>
<path d="M272.566 153.182H275.2C276.012 153.182 276.677 153.847 276.677 154.66C276.677 155.474 276.012 156.139 275.2 156.139H272.566" stroke="#BABABA" stroke-linecap="round"/>
<path fill-rule="evenodd" clip-rule="evenodd" d="M271.904 114.875H274.538C275.35 114.875 276.015 115.541 276.015 116.354C276.015 117.167 275.35 117.832 274.538 117.832H271.904" fill="white"/>
<path d="M271.904 114.875H274.538C275.35 114.875 276.015 115.541 276.015 116.354C276.015 117.167 275.35 117.832 274.538 117.832H271.904" stroke="#BABABA" stroke-linecap="round"/>
<path fill-rule="evenodd" clip-rule="evenodd" d="M278.506 129.405H281.138C281.952 129.405 282.616 130.071 282.616 130.884C282.616 131.698 281.952 132.362 281.138 132.362H278.506" fill="white"/>
<path d="M278.506 129.405H281.138C281.952 129.405 282.616 130.071 282.616 130.884C282.616 131.698 281.952 132.362 281.138 132.362H278.506" stroke="#BABABA" stroke-linecap="round"/>
<path d="M299.912 164.933H241.812" stroke="#BABABA" stroke-linecap="round"/>
<path fill-rule="evenodd" clip-rule="evenodd" d="M265.457 126.419H262.823C262.011 126.419 261.346 125.753 261.346 124.94C261.346 124.127 262.011 123.461 262.823 123.461H265.457" fill="white"/>
<path d="M265.457 126.419H262.823C262.011 126.419 261.346 125.753 261.346 124.94C261.346 124.127 262.011 123.461 262.823 123.461H265.457" stroke="#BABABA" stroke-linecap="round"/>
<path fill-rule="evenodd" clip-rule="evenodd" d="M256.727 116.196H259.36C260.172 116.196 260.838 116.862 260.838 117.675C260.838 118.489 260.172 119.153 259.36 119.153H256.727" fill="white"/>
<path d="M256.727 116.196H259.36C260.172 116.196 260.838 116.862 260.838 117.675C260.838 118.489 260.172 119.153 259.36 119.153H256.727" stroke="#BABABA" stroke-linecap="round"/>
<path fill-rule="evenodd" clip-rule="evenodd" d="M181.013 130.44L183.578 127.881C184.812 126.651 185.507 124.98 185.508 123.237L185.528 110.267C185.534 106.771 188.031 103.647 191.494 103.194C195.686 102.645 199.295 105.938 199.288 110.029L199.279 116.279H199.66C201.241 116.279 202.536 117.574 202.536 119.157C202.536 120.741 201.241 122.036 199.66 122.036H199.27L199.266 124.662C199.256 131.521 195.14 135.893 193.778 137.151L178.162 152.73L178.156 158.49H181.032C182.614 158.49 183.909 159.785 183.909 161.367C183.909 162.951 182.614 164.246 181.032 164.246H178.151L178.115 199.577L145.82 199.528L145.842 169.534L135.913 159.387L135.31 159.99C134.193 161.11 132.362 161.11 131.243 159.99C130.125 158.871 130.125 157.039 131.243 155.92L131.887 155.274L128.216 151.523C120.157 143.818 120.209 137.699 120.223 128.803L120.233 122.036H118.739C117.157 122.036 115.863 120.741 115.863 119.157C115.863 117.574 117.157 116.279 118.739 116.279H120.242L120.261 103.266C120.27 97.804 125.163 93.4368 130.775 94.3209C135.229 95.0221 138.4 99.0565 138.393 103.568L138.391 104.724L139.282 104.709C140.863 104.709 142.157 106.004 142.157 107.588C142.157 109.17 140.863 110.466 139.282 110.466L138.384 110.475L138.347 133.69C138.345 135.366 139.008 136.975 140.191 138.162L145.881 143.873L145.895 124.607H146.024C144.442 124.607 143.148 123.312 143.148 121.729C143.148 120.145 144.442 118.851 146.024 118.851H145.903L145.95 97.7134C145.958 91.8388 149.151 86.6909 153.872 83.8692L152.158 79.8187C151.542 78.3605 152.228 76.6634 153.685 76.046C155.143 75.4287 156.839 76.1163 157.455 77.5737L159.263 81.8452C160.193 81.6775 161.145 81.5768 162.121 81.5785C167.612 81.5869 172.475 84.3773 175.389 88.6039L178.178 86.9923C179.548 86.2005 181.316 86.6748 182.107 88.0458C182.899 89.4169 182.425 91.1859 181.055 91.9777L177.757 93.8831C178.066 95.1288 178.246 96.4236 178.244 97.7617L178.195 130.445L181.013 130.44Z" fill="white"/>
<path fill-rule="evenodd" clip-rule="evenodd" d="M181.013 130.44L183.578 127.881C184.812 126.651 185.507 124.98 185.508 123.237L185.528 110.267C185.534 106.771 188.031 103.647 191.494 103.194C195.686 102.645 199.295 105.938 199.288 110.029L199.279 116.279H199.66C201.241 116.279 202.536 117.574 202.536 119.157C202.536 120.741 201.241 122.036 199.66 122.036H199.27L199.266 124.662C199.256 131.521 195.14 135.893 193.778 137.151L178.162 152.73L178.156 158.49H181.032C182.614 158.49 183.909 159.785 183.909 161.367C183.909 162.951 182.614 164.246 181.032 164.246H178.151L178.115 199.577L145.82 199.528L145.842 169.534L135.913 159.387L135.31 159.99C134.193 161.11 132.362 161.11 131.243 159.99C130.125 158.871 130.125 157.039 131.243 155.92L131.887 155.274L128.216 151.523C120.157 143.818 120.209 137.699 120.223 128.803L120.233 122.036H118.739C117.157 122.036 115.863 120.741 115.863 119.157C115.863 117.574 117.157 116.279 118.739 116.279H120.242L120.261 103.266C120.27 97.804 125.163 93.4368 130.775 94.3209C135.229 95.0221 138.4 99.0565 138.393 103.568L138.391 104.724L139.282 104.709C140.863 104.709 142.157 106.004 142.157 107.588C142.157 109.17 140.863 110.466 139.282 110.466L138.384 110.475L138.347 133.69C138.345 135.366 139.008 136.975 140.191 138.162L145.881 143.873L145.895 124.607H146.024C144.442 124.607 143.148 123.312 143.148 121.729C143.148 120.145 144.442 118.851 146.024 118.851H145.903L145.95 97.7134C145.958 91.8388 149.151 86.6909 153.872 83.8692L152.158 79.8187C151.542 78.3605 152.228 76.6634 153.685 76.046C155.143 75.4287 156.839 76.1163 157.455 77.5737L159.263 81.8452C160.193 81.6775 161.145 81.5768 162.121 81.5785C167.612 81.5869 172.475 84.3773 175.389 88.6039L178.178 86.9923C179.548 86.2005 181.316 86.6748 182.107 88.0458C182.899 89.4169 182.425 91.1859 181.055 91.9777L177.757 93.8831C178.066 95.1288 178.246 96.4236 178.244 97.7617L178.195 130.445L181.013 130.44Z" stroke="#BABABA" stroke-linecap="round"/>
<path fill-rule="evenodd" clip-rule="evenodd" d="M164.986 176.702H170.113C171.694 176.702 172.988 177.997 172.988 179.581C172.988 181.163 171.694 182.459 170.113 182.459H164.986" fill="white"/>
<path d="M164.986 176.702H170.113C171.694 176.702 172.988 177.997 172.988 179.581C172.988 181.163 171.694 182.459 170.113 182.459H164.986" stroke="#BABABA" stroke-linecap="round"/>
<path fill-rule="evenodd" clip-rule="evenodd" d="M163.701 102.138H168.828C170.409 102.138 171.704 103.433 171.704 105.016C171.704 106.599 170.409 107.895 168.828 107.895H163.701" fill="white"/>
<path d="M163.701 102.138H168.828C170.409 102.138 171.704 103.433 171.704 105.016C171.704 106.599 170.409 107.895 168.828 107.895H163.701" stroke="#BABABA" stroke-linecap="round"/>
<path fill-rule="evenodd" clip-rule="evenodd" d="M176.549 130.421H181.675C183.258 130.421 184.552 131.717 184.552 133.299C184.552 134.883 183.258 136.178 181.675 136.178H176.549" fill="white"/>
<path d="M176.549 130.421H181.675C183.258 130.421 184.552 131.717 184.552 133.299C184.552 134.883 183.258 136.178 181.675 136.178H176.549" stroke="#BABABA" stroke-linecap="round"/>
<path d="M277.533 199.577H28.9785" stroke="#BABABA" stroke-linecap="round"/>
<path fill-rule="evenodd" clip-rule="evenodd" d="M151.15 124.607H146.024C144.442 124.607 143.148 123.312 143.148 121.729C143.148 120.145 144.442 118.851 146.024 118.851H151.15" fill="white"/>
<path d="M151.15 124.607H146.024C144.442 124.607 143.148 123.312 143.148 121.729C143.148 120.145 144.442 118.851 146.024 118.851H151.15" stroke="#BABABA" stroke-linecap="round"/>
<path fill-rule="evenodd" clip-rule="evenodd" d="M134.154 104.709H139.281C140.862 104.709 142.156 106.004 142.156 107.587C142.156 109.17 140.862 110.466 139.281 110.466H134.154" fill="white"/>
<path d="M134.154 104.709H139.281C140.862 104.709 142.156 106.004 142.156 107.587C142.156 109.17 140.862 110.466 139.281 110.466H134.154" stroke="#BABABA" stroke-linecap="round"/>
<path fill-rule="evenodd" clip-rule="evenodd" d="M62.6704 132.184L64.0887 130.77C64.7699 130.09 65.1541 129.167 65.1558 128.203L65.1659 121.034C65.1685 119.102 66.5495 117.375 68.4637 117.125C70.7798 116.822 72.7743 118.641 72.7718 120.902L72.7667 124.357H72.9774C73.8516 124.357 74.5666 125.073 74.5666 125.948C74.5666 126.823 73.8516 127.539 72.9774 127.539H72.7616L72.7591 128.991C72.754 132.782 70.4794 135.198 69.7254 135.893L61.0947 144.504L61.0914 147.687H62.6814C63.5556 147.687 64.2715 148.404 64.2715 149.279C64.2715 150.153 63.5556 150.869 62.6814 150.869H61.088L61.0685 170.397L43.2191 170.371L43.2309 153.792L37.7432 148.184L37.4098 148.517C36.792 149.136 35.7799 149.136 35.1613 148.517C34.5436 147.898 34.5436 146.886 35.1613 146.267L35.5176 145.911L33.4892 143.838C29.0338 139.578 29.0634 136.196 29.0702 131.279L29.0761 127.539H28.2502C27.3761 127.539 26.6602 126.823 26.6602 125.948C26.6602 125.073 27.3761 124.357 28.2502 124.357H29.0812L29.0914 117.164C29.0956 114.145 31.801 111.732 34.9032 112.221C37.3649 112.608 39.1174 114.838 39.1132 117.331L39.1115 117.97L39.604 117.962C40.4782 117.962 41.1941 118.678 41.1941 119.553C41.1941 120.428 40.4782 121.144 39.604 121.144L39.1081 121.15L39.0887 133.98C39.087 134.907 39.4534 135.796 40.1075 136.452L43.2521 139.609L43.2606 128.96H43.3308C42.4566 128.96 41.7416 128.245 41.7416 127.369C41.7416 126.494 42.4566 125.779 43.3308 125.779H43.2639L43.291 114.096C43.2952 110.849 45.0596 108.003 47.6685 106.443L46.7216 104.204C46.3806 103.399 46.7605 102.461 47.5653 102.119C48.3717 101.778 49.3085 102.158 49.6495 102.965L50.6481 105.325C51.1626 105.232 51.6881 105.177 52.2288 105.177C55.2634 105.182 57.951 106.725 59.5614 109.06L61.1032 108.17C61.8606 107.732 62.838 107.994 63.2755 108.752C63.7121 109.51 63.4506 110.488 62.6933 110.925L60.8705 111.978C61.0406 112.667 61.1404 113.382 61.1396 114.122L61.1125 132.187L62.6704 132.184Z" fill="white"/>
<path fill-rule="evenodd" clip-rule="evenodd" d="M62.6704 132.184L64.0887 130.77C64.7699 130.09 65.1541 129.167 65.1558 128.203L65.1659 121.034C65.1685 119.102 66.5495 117.375 68.4637 117.125C70.7798 116.822 72.7743 118.641 72.7718 120.902L72.7667 124.357H72.9774C73.8516 124.357 74.5666 125.073 74.5666 125.948C74.5666 126.823 73.8516 127.539 72.9774 127.539H72.7616L72.7591 128.991C72.754 132.782 70.4794 135.198 69.7254 135.893L61.0947 144.504L61.0914 147.687H62.6814C63.5556 147.687 64.2715 148.404 64.2715 149.279C64.2715 150.153 63.5556 150.869 62.6814 150.869H61.088L61.0685 170.397L43.2191 170.371L43.2309 153.792L37.7432 148.184L37.4098 148.517C36.792 149.136 35.7799 149.136 35.1613 148.517C34.5436 147.898 34.5436 146.886 35.1613 146.267L35.5176 145.911L33.4892 143.838C29.0338 139.578 29.0634 136.196 29.0702 131.279L29.0761 127.539H28.2502C27.3761 127.539 26.6602 126.823 26.6602 125.948C26.6602 125.073 27.3761 124.357 28.2502 124.357H29.0812L29.0914 117.164C29.0956 114.145 31.801 111.732 34.9032 112.221C37.3649 112.608 39.1174 114.838 39.1132 117.331L39.1115 117.97L39.604 117.962C40.4782 117.962 41.1941 118.678 41.1941 119.553C41.1941 120.428 40.4782 121.144 39.604 121.144L39.1081 121.15L39.0887 133.98C39.087 134.907 39.4534 135.796 40.1075 136.452L43.2521 139.609L43.2606 128.96H43.3308C42.4566 128.96 41.7416 128.245 41.7416 127.369C41.7416 126.494 42.4566 125.779 43.3308 125.779H43.2639L43.291 114.096C43.2952 110.849 45.0596 108.003 47.6685 106.443L46.7216 104.204C46.3806 103.399 46.7605 102.461 47.5653 102.119C48.3717 101.778 49.3085 102.158 49.6495 102.965L50.6481 105.325C51.1626 105.232 51.6881 105.177 52.2288 105.177C55.2634 105.182 57.951 106.725 59.5614 109.06L61.1032 108.17C61.8606 107.732 62.838 107.994 63.2755 108.752C63.7121 109.51 63.4506 110.488 62.6933 110.925L60.8705 111.978C61.0406 112.667 61.1404 113.382 61.1396 114.122L61.1125 132.187L62.6704 132.184Z" stroke="#BABABA" stroke-linecap="round"/>
<path fill-rule="evenodd" clip-rule="evenodd" d="M53.8105 157.754H56.6446C57.5187 157.754 58.2338 158.469 58.2338 159.345C58.2338 160.22 57.5187 160.936 56.6446 160.936H53.8105" fill="white"/>
<path d="M53.8105 157.754H56.6446C57.5187 157.754 58.2338 158.469 58.2338 159.345C58.2338 160.22 57.5187 160.936 56.6446 160.936H53.8105" stroke="#BABABA" stroke-linecap="round"/>
<path fill-rule="evenodd" clip-rule="evenodd" d="M53.1016 116.541H55.9347C56.8089 116.541 57.5248 117.257 57.5248 118.132C57.5248 119.007 56.8089 119.723 55.9347 119.723H53.1016" fill="white"/>
<path d="M53.1016 116.541H55.9347C56.8089 116.541 57.5248 117.257 57.5248 118.132C57.5248 119.007 56.8089 119.723 55.9347 119.723H53.1016" stroke="#BABABA" stroke-linecap="round"/>
<path fill-rule="evenodd" clip-rule="evenodd" d="M60.2031 132.174H63.0371C63.9113 132.174 64.6263 132.89 64.6263 133.765C64.6263 134.64 63.9113 135.355 63.0371 135.355H60.2031" fill="white"/>
<path d="M60.2031 132.174H63.0371C63.9113 132.174 64.6263 132.89 64.6263 133.765C64.6263 134.64 63.9113 135.355 63.0371 135.355H60.2031" stroke="#BABABA" stroke-linecap="round"/>
<path d="M83.2338 170.397H20.7266" stroke="#BABABA" stroke-linecap="round"/>
<path fill-rule="evenodd" clip-rule="evenodd" d="M46.1643 128.96H43.3303C42.4561 128.96 41.7402 128.244 41.7402 127.37C41.7402 126.494 42.4561 125.778 43.3303 125.778H46.1643" fill="white"/>
<path d="M46.1643 128.96H43.3303C42.4561 128.96 41.7402 128.244 41.7402 127.37C41.7402 126.494 42.4561 125.778 43.3303 125.778H46.1643" stroke="#BABABA" stroke-linecap="round"/>
<path fill-rule="evenodd" clip-rule="evenodd" d="M36.7715 117.962H39.6046C40.4788 117.962 41.1947 118.678 41.1947 119.553C41.1947 120.428 40.4788 121.144 39.6046 121.144H36.7715" fill="white"/>
<path d="M36.7715 117.962H39.6046C40.4788 117.962 41.1947 118.678 41.1947 119.553C41.1947 120.428 40.4788 121.144 39.6046 121.144H36.7715" stroke="#BABABA" stroke-linecap="round"/>
</svg>
