<svg width="94" height="113" viewBox="0 0 94 113" fill="none" xmlns="http://www.w3.org/2000/svg">
<path d="M22.1618 5.05571C22.9655 1.55163 26.4576 -0.637491 29.9617 0.166165L67.3666 8.74494C70.8707 9.5486 73.0598 13.0407 72.2561 16.5448L60.1862 69.1715C59.3826 72.6755 55.8905 74.8647 52.3864 74.061L14.9815 65.4822C11.4774 64.6786 9.28829 61.1865 10.0919 57.6824L22.1618 5.05571Z" fill="#B0D6FF"/>
<path d="M25.983 8.18762C26.3849 6.43559 28.1309 5.34103 29.883 5.74286L65.0086 13.7989C66.7607 14.2007 67.8552 15.9468 67.4534 17.6988L62.4327 39.5897C62.0309 41.3418 60.2848 42.4363 58.5328 42.0345L23.4071 33.9785C21.6551 33.5767 20.5605 31.8306 20.9624 30.0786L25.983 8.18762Z" fill="#E0EFFF"/>
<path d="M19.1368 37.394C19.3136 36.6231 20.0818 36.1415 20.8527 36.3183L40.7603 40.8841C41.5312 41.0609 42.0128 41.8292 41.836 42.6001C41.6592 43.371 40.8909 43.8526 40.12 43.6758L20.2125 39.11C19.4416 38.9332 18.9599 38.1649 19.1368 37.394Z" fill="#E0EFFF"/>
<path d="M1.14023 29.1527C0.328555 25.6505 2.50968 22.1534 6.01191 21.3417L43.3971 12.6773C46.8993 11.8657 50.3964 14.0468 51.2081 17.549L63.3984 70.1479C64.2101 73.6502 62.0289 77.1473 58.5267 77.9589L21.1415 86.6233C17.6393 87.435 14.1422 85.2539 13.3305 81.7516L1.14023 29.1527Z" fill="#B0D6FF"/>
<path d="M5.94698 30.2954C5.54114 28.5443 6.6317 26.7957 8.38282 26.3899L43.4899 18.2535C45.2411 17.8477 46.9896 18.9382 47.3954 20.6894L52.4662 42.5687C52.872 44.3199 51.7815 46.0684 50.0304 46.4743L14.9232 54.6106C13.1721 55.0165 11.4236 53.9259 11.0177 52.1748L5.94698 30.2954Z" fill="#E0EFFF"/>
<path d="M12.5794 59.5511C12.4008 58.7807 12.8806 58.0113 13.6511 57.8327L33.5482 53.2214C34.3187 53.0428 35.0881 53.5227 35.2667 54.2932C35.4452 55.0637 34.9654 55.833 34.1949 56.0116L14.2978 60.6229C13.5273 60.8015 12.7579 60.3216 12.5794 59.5511Z" fill="#E0EFFF"/>
<path d="M92.8266 30.4174C92.5071 29.5084 91.8397 28.7634 90.971 28.3463C90.1023 27.9292 89.1036 27.8743 88.1944 28.1934L86.7311 28.707C83.7464 29.7585 81.2074 30.65 79.2111 31.6288C77.0791 32.6802 75.2427 33.9691 73.8667 35.9848C72.5003 37.9811 71.9382 40.176 71.6766 42.5842C71.5635 43.6598 71.494 44.8518 71.4682 46.16H19.9183C11.7539 46.16 4.4083 46.1601 2.25696 48.9558C0.105612 51.7516 0.948699 55.9671 2.6252 64.3932L5.04788 76.1432C6.57417 83.5469 7.33975 87.2536 10.0144 89.4292C12.6842 91.6096 16.4684 91.6096 24.032 91.6096H49.7222C63.2359 91.6096 69.9904 91.6096 74.1913 87.1809C78.3922 82.7523 78.6975 78.0523 78.6975 63.7972V51.1895C78.6975 47.604 78.6975 45.2055 78.8962 43.3643C79.09 41.6054 79.4291 40.7235 79.8652 40.084C80.2916 39.4589 80.9361 38.8726 82.409 38.1555C83.9693 37.3899 86.0964 36.6341 89.3331 35.4954L90.5977 35.0545C91.0484 34.8963 91.4635 34.6508 91.8193 34.3321C92.175 34.0134 92.4645 33.6277 92.671 33.197C92.8776 32.7663 92.9972 32.2992 93.0231 31.8222C93.0489 31.3453 92.9854 30.8679 92.8266 30.4174Z" fill="#C9E3FF"/>
<path d="M58.8385 100.103C60.2015 98.7401 62.0502 97.9744 63.9778 97.9744C65.9054 97.9744 67.754 98.7401 69.1171 100.103C70.4801 101.466 71.2458 103.315 71.2458 105.242C71.2458 107.17 70.4801 109.019 69.1171 110.382C67.754 111.745 65.9054 112.51 63.9778 112.51C62.0502 112.51 60.2015 111.745 58.8385 110.382C57.4755 109.019 56.7097 107.17 56.7097 105.242C56.7097 103.315 57.4755 101.466 58.8385 100.103Z" fill="#B0D6FF"/>
<path d="M15.2302 100.103C16.5932 98.7401 18.4418 97.9744 20.3695 97.9744C22.2971 97.9744 24.1457 98.7401 25.5087 100.103C26.8718 101.466 27.6375 103.315 27.6375 105.242C27.6375 107.17 26.8718 109.019 25.5087 110.382C24.1457 111.745 22.2971 112.51 20.3695 112.51C18.4418 112.51 16.5932 111.745 15.2302 110.382C13.8671 109.019 13.1014 107.17 13.1014 105.242C13.1014 103.315 13.8671 101.466 15.2302 100.103Z" fill="#B0D6FF"/>
<path d="M58.222 48.3805C58.222 56.9796 51.2511 63.9505 42.652 63.9505C34.053 63.9505 27.082 56.9796 27.082 48.3805C27.082 39.7815 34.053 32.8105 42.652 32.8105C51.2511 32.8105 58.222 39.7815 58.222 48.3805Z" fill="#05AC6D"/>
<path fill-rule="evenodd" clip-rule="evenodd" d="M51.4677 42.2026C51.7272 42.4621 51.8729 42.8141 51.8729 43.181C51.8729 43.548 51.7272 43.9 51.4677 44.1595L41.0942 54.5331C40.9571 54.6702 40.7944 54.7789 40.6152 54.8531C40.4361 54.9274 40.2441 54.9656 40.0502 54.9656C39.8563 54.9656 39.6643 54.9274 39.4852 54.8531C39.3061 54.7789 39.1433 54.6702 39.0062 54.5331L33.8522 49.38C33.72 49.2523 33.6146 49.0996 33.542 48.9307C33.4695 48.7619 33.4313 48.5803 33.4297 48.3965C33.4281 48.2127 33.4632 48.0305 33.5327 47.8604C33.6023 47.6903 33.7051 47.5358 33.8351 47.4058C33.965 47.2759 34.1195 47.1731 34.2896 47.1035C34.4597 47.0339 34.6419 46.9989 34.8257 47.0005C35.0095 47.0021 35.1911 47.0403 35.3599 47.1128C35.5288 47.1854 35.6815 47.2908 35.8092 47.423L40.0497 51.6636L49.5098 42.2026C49.6384 42.0739 49.791 41.9719 49.9589 41.9023C50.1269 41.8327 50.307 41.7969 50.4888 41.7969C50.6706 41.7969 50.8506 41.8327 51.0186 41.9023C51.1866 41.9719 51.3392 42.0739 51.4677 42.2026Z" fill="white"/>
<path d="M42.6523 32.3105C51.5274 32.3107 58.7217 39.5057 58.7217 48.3809C58.7215 57.2558 51.5273 64.45 42.6523 64.4502C33.7772 64.4502 26.5822 57.2559 26.582 48.3809C26.582 39.5056 33.7771 32.3105 42.6523 32.3105Z" stroke="#008A56"/>
</svg>
