<svg width="286" height="268" viewBox="0 0 286 268" fill="none" xmlns="http://www.w3.org/2000/svg">
<path d="M110.902 217.218C168.68 217.218 215.519 170.379 215.519 112.601C215.519 54.823 168.68 7.9845 110.902 7.9845C53.1237 7.9845 6.28516 54.823 6.28516 112.601C6.28516 170.379 53.1237 217.218 110.902 217.218Z" fill="#22A848"/>
<path d="M97.262 146.075L65.5283 114.341L73.4617 106.408L97.262 130.208L148.342 79.1277L156.276 87.0611L97.262 146.075Z" fill="white"/>
<path d="M234.243 178.182H127.117V257.613H234.243V178.182Z" fill="#FFC571"/>
<path d="M153.634 253.439C153.406 253.439 153.216 253.249 153.216 253.021V182.808C153.216 182.58 153.406 182.39 153.634 182.39C153.862 182.39 154.052 182.58 154.052 182.808V253.021C154.052 253.249 153.862 253.439 153.634 253.439Z" fill="#EDA64A"/>
<path d="M201.454 253.433C201.226 253.433 201.036 253.243 201.036 253.015V206.295C201.036 206.067 201.226 205.877 201.454 205.877C201.682 205.877 201.872 206.067 201.872 206.295V253.015C201.872 253.243 201.701 253.433 201.454 253.433Z" fill="#EDA64A"/>
<path d="M211.624 203.884C211.51 203.884 211.415 203.846 211.32 203.77L206.112 198.562L201.797 202.877C201.645 203.029 201.36 203.029 201.208 202.877L196.741 198.41L191.59 203.561C191.476 203.675 191.286 203.713 191.134 203.656C190.982 203.599 190.868 203.447 190.868 203.276V179.232C190.868 179.004 191.058 178.814 191.286 178.814C191.514 178.814 191.704 179.004 191.704 179.232V202.25L196.437 197.517C196.589 197.365 196.874 197.365 197.027 197.517L201.493 201.984L205.808 197.669C205.96 197.517 206.245 197.517 206.397 197.669L211.187 202.459V179.232C211.187 179.004 211.377 178.814 211.605 178.814C211.833 178.814 212.023 179.004 212.023 179.232V203.466C212.023 203.637 211.928 203.789 211.757 203.846C211.719 203.884 211.662 203.884 211.624 203.884Z" fill="#F7F1EB"/>
<path d="M225.481 126.84H156.275V178.16H225.481V126.84Z" fill="#EDA64A"/>
<path d="M173.4 175.616C173.172 175.616 172.981 175.426 172.981 175.198V129.828C172.981 129.6 173.172 129.409 173.4 129.409C173.628 129.409 173.818 129.6 173.818 129.828V175.179C173.818 175.426 173.628 175.616 173.4 175.616Z" fill="#FFC571"/>
<path d="M204.307 175.61C204.079 175.61 203.889 175.42 203.889 175.192V145.009C203.889 144.781 204.079 144.59 204.307 144.59C204.535 144.59 204.725 144.781 204.725 145.009V175.173C204.725 175.42 204.535 175.61 204.307 175.61Z" fill="#FFC571"/>
<path d="M210.863 143.621C210.749 143.621 210.654 143.583 210.559 143.507L207.309 140.237L204.629 142.917C204.477 143.069 204.192 143.069 204.04 142.917L201.265 140.142L198.052 143.374C197.938 143.488 197.748 143.526 197.596 143.469C197.444 143.412 197.33 143.259 197.33 143.088V127.559C197.33 127.331 197.52 127.141 197.748 127.141C197.976 127.141 198.166 127.331 198.166 127.559V142.081L200.96 139.287C201.113 139.135 201.398 139.135 201.55 139.287L204.325 142.062L207.005 139.382C207.157 139.23 207.442 139.23 207.594 139.382L210.426 142.214V127.559C210.426 127.331 210.616 127.141 210.844 127.141C211.072 127.141 211.262 127.331 211.262 127.559V143.221C211.262 143.393 211.167 143.545 210.996 143.602C210.977 143.602 210.92 143.621 210.863 143.621Z" fill="#F7F1EB"/>
<path d="M174.613 258.29H278.527L262.313 168.537H194.818L174.613 258.29Z" fill="#EDA64A"/>
<path d="M218.329 251.007C218.139 251.007 217.968 250.874 217.93 250.684C214.813 237.607 199.265 172.279 199.474 171.101C199.512 170.872 199.74 170.72 199.968 170.758C200.177 170.796 200.329 170.986 200.31 171.215C200.386 173.077 212.399 223.846 218.747 250.494C218.804 250.722 218.671 250.95 218.443 251.007C218.386 251.007 218.348 251.007 218.329 251.007Z" fill="#F7F1EB"/>
<path d="M179.326 254.937C179.174 254.937 179.041 254.861 178.965 254.728C178.851 254.519 178.927 254.272 179.117 254.158L196.375 244.35V173.263C196.375 173.034 196.566 172.844 196.794 172.844C197.022 172.844 197.212 173.034 197.212 173.263V244.597C197.212 244.749 197.136 244.882 197.003 244.958L179.516 254.88C179.478 254.918 179.402 254.937 179.326 254.937Z" fill="#F7F1EB"/>
<path d="M211.68 174.238C212.327 174.238 212.859 173.706 212.859 173.06V155.972C212.859 151.98 216.109 148.73 220.101 148.73H234.432C238.424 148.73 241.674 151.98 241.674 155.972V173.06C241.674 173.706 242.206 174.238 242.852 174.238C243.499 174.238 244.031 173.706 244.031 173.06V155.972C244.031 150.669 239.716 146.373 234.432 146.373H220.101C214.798 146.373 210.502 150.688 210.502 155.972V173.06C210.502 173.706 211.034 174.238 211.68 174.238Z" fill="#827637"/>
</svg>
