<svg width="246" height="228" viewBox="0 0 246 228" fill="none" xmlns="http://www.w3.org/2000/svg">
<g clip-path="url(#clip0_3216_7004)">
<path d="M89.6126 27.4523C96.5568 14.7213 114.837 14.7213 121.781 27.4523L191.408 155.102C198.067 167.311 189.231 182.196 175.324 182.196H36.0702C22.1631 182.196 13.3265 167.311 19.9859 155.102L89.6126 27.4523Z" fill="#FFE0CF"/>
<path fill-rule="evenodd" clip-rule="evenodd" d="M110.786 78.0093C110.786 75.1986 108.508 72.92 105.697 72.92C102.886 72.92 100.608 75.1986 100.608 78.0093V118.724C100.608 121.534 102.886 123.813 105.697 123.813C108.508 123.813 110.786 121.534 110.786 118.724V78.0093ZM111.804 136.647C111.804 140.02 109.07 142.755 105.697 142.755C102.324 142.755 99.5898 140.02 99.5898 136.647C99.5898 133.275 102.324 130.54 105.697 130.54C109.07 130.54 111.804 133.275 111.804 136.647Z" fill="#FF834E"/>
<path d="M226.256 204.233H161.041V218.634H226.256V204.233Z" fill="#E3E5EA"/>
<g opacity="0.1">
<path d="M163.817 205.579C164.537 209.385 164.537 213.294 163.817 217.1C163.097 213.294 163.097 209.488 163.817 205.579Z" fill="#161111"/>
<path d="M168.649 205.579C169.369 209.385 169.369 213.294 168.649 217.1C167.929 213.294 167.929 209.488 168.649 205.579Z" fill="#161111"/>
<path d="M171.019 205.579C171.739 209.385 171.739 213.294 171.019 217.1C170.299 213.294 170.299 209.488 171.019 205.579Z" fill="#161111"/>
<path d="M184.081 205.579C184.801 209.385 184.801 213.294 184.081 217.1C183.361 213.294 183.361 209.488 184.081 205.579Z" fill="#161111"/>
<path d="M187.577 205.579C188.297 209.385 188.297 213.294 187.577 217.1C186.857 213.294 186.857 209.488 187.577 205.579Z" fill="#161111"/>
<path d="M202.187 205.579C202.907 209.385 202.907 213.294 202.187 217.1C201.466 213.294 201.466 209.488 202.187 205.579Z" fill="#161111"/>
<path d="M205.476 205.579C206.196 209.385 206.196 213.294 205.476 217.1C204.756 213.294 204.756 209.488 205.476 205.579Z" fill="#161111"/>
<path d="M211.649 205.579C212.369 209.385 212.369 213.294 211.649 217.1C210.929 213.294 210.929 209.488 211.649 205.579Z" fill="#161111"/>
<path d="M199.304 205.579C200.024 209.385 200.024 213.294 199.304 217.1C198.584 213.294 198.584 209.488 199.304 205.579Z" fill="#161111"/>
<path d="M175.337 205.579C176.057 209.385 176.057 213.294 175.337 217.1C174.617 213.294 174.617 209.488 175.337 205.579Z" fill="#161111"/>
<path d="M192.208 205.579C192.928 209.385 192.928 213.294 192.208 217.1C191.488 213.294 191.488 209.488 192.208 205.579Z" fill="#161111"/>
<path d="M194.677 205.579C195.397 209.385 195.397 213.294 194.677 217.1C193.957 213.294 193.957 209.488 194.677 205.579Z" fill="#161111"/>
<path d="M219.776 205.579C220.496 209.385 220.496 213.294 219.776 217.1C219.056 213.294 219.056 209.488 219.776 205.579Z" fill="#161111"/>
<path d="M223.374 205.579C224.094 209.385 224.094 213.294 223.374 217.1C222.654 213.294 222.654 209.488 223.374 205.579Z" fill="#161111"/>
<path d="M214.532 205.579C215.252 209.385 215.252 213.294 214.532 217.1C213.812 213.294 213.812 209.488 214.532 205.579Z" fill="#161111"/>
<path d="M181.202 205.579C181.922 209.385 181.922 213.294 181.202 217.1C180.482 213.294 180.482 209.488 181.202 205.579Z" fill="#161111"/>
</g>
<path opacity="0.1" d="M226.359 204.233V207.319L161.041 209.376V204.233H226.359Z" fill="#161111"/>
<path d="M221.833 189.825H156.617V204.226H221.833V189.825Z" fill="#E3E5EA"/>
<g opacity="0.1">
<path d="M159.293 191.145C160.013 194.951 160.013 198.86 159.293 202.666C158.573 198.86 158.573 194.951 159.293 191.145Z" fill="#161111"/>
<path d="M164.126 191.145C164.846 194.951 164.846 198.86 164.126 202.666C163.509 198.86 163.509 194.951 164.126 191.145Z" fill="#161111"/>
<path d="M166.595 191.145C167.315 194.951 167.315 198.86 166.595 202.666C165.875 198.86 165.875 194.951 166.595 191.145Z" fill="#161111"/>
<path d="M179.558 191.145C180.278 194.951 180.278 198.86 179.558 202.666C178.838 198.86 178.838 194.951 179.558 191.145Z" fill="#161111"/>
<path d="M183.055 191.145C183.775 194.951 183.775 198.86 183.055 202.666C182.438 198.86 182.438 194.951 183.055 191.145Z" fill="#161111"/>
<path d="M197.661 191.145C198.381 194.951 198.381 198.86 197.661 202.666C196.941 198.86 196.941 194.951 197.661 191.145Z" fill="#161111"/>
<path d="M201.054 191.145C201.774 194.951 201.774 198.86 201.054 202.666C200.334 198.86 200.334 194.951 201.054 191.145Z" fill="#161111"/>
<path d="M207.226 191.145C207.946 194.951 207.946 198.86 207.226 202.666C206.506 198.86 206.506 194.951 207.226 191.145Z" fill="#161111"/>
<path d="M194.884 191.145C195.604 194.951 195.604 198.86 194.884 202.666C194.164 198.86 194.164 194.951 194.884 191.145Z" fill="#161111"/>
<path d="M170.814 191.145C171.534 194.951 171.534 198.86 170.814 202.666C170.197 198.86 170.197 194.951 170.814 191.145Z" fill="#161111"/>
<path d="M187.784 191.145C188.504 194.951 188.504 198.86 187.784 202.666C187.064 198.86 187.064 194.951 187.784 191.145Z" fill="#161111"/>
<path d="M190.153 191.145C190.873 194.951 190.873 198.86 190.153 202.666C189.433 198.86 189.433 194.951 190.153 191.145Z" fill="#161111"/>
<path d="M215.251 191.145C215.971 194.951 215.971 198.86 215.251 202.666C214.531 198.86 214.531 194.951 215.251 191.145Z" fill="#161111"/>
<path d="M218.952 191.145C219.672 194.951 219.672 198.86 218.952 202.666C218.232 198.86 218.232 194.951 218.952 191.145Z" fill="#161111"/>
<path d="M210.108 191.145C210.828 194.951 210.828 198.86 210.108 202.666C209.388 198.86 209.388 194.951 210.108 191.145Z" fill="#161111"/>
<path d="M176.78 191.145C177.5 194.951 177.5 198.86 176.78 202.666C176.06 198.86 176.06 194.951 176.78 191.145Z" fill="#161111"/>
</g>
<path opacity="0.1" d="M221.833 189.825V192.911L156.617 194.968V189.825H221.833Z" fill="#161111"/>
<path d="M231.911 161.126H166.695V175.527H231.911V161.126Z" fill="#E3E5EA"/>
<g opacity="0.1">
<path d="M169.366 162.469C170.086 166.275 170.086 170.184 169.366 173.99C168.646 170.184 168.646 166.275 169.366 162.469Z" fill="#161111"/>
<path d="M174.199 162.469C174.919 166.275 174.919 170.184 174.199 173.99C173.582 170.184 173.582 166.275 174.199 162.469Z" fill="#161111"/>
<path d="M176.669 162.469C177.389 166.275 177.389 170.184 176.669 173.99C175.949 170.184 175.949 166.275 176.669 162.469Z" fill="#161111"/>
<path d="M189.63 162.469C190.35 166.275 190.35 170.184 189.63 173.99C188.91 170.184 188.91 166.275 189.63 162.469Z" fill="#161111"/>
<path d="M193.127 162.469C193.847 166.275 193.847 170.184 193.127 173.99C192.51 170.184 192.51 166.275 193.127 162.469Z" fill="#161111"/>
<path d="M207.735 162.469C208.455 166.275 208.455 170.184 207.735 173.99C207.015 170.184 207.015 166.275 207.735 162.469Z" fill="#161111"/>
<path d="M211.126 162.469C211.846 166.275 211.846 170.184 211.126 173.99C210.406 170.184 210.406 166.275 211.126 162.469Z" fill="#161111"/>
<path d="M217.302 162.469C218.022 166.275 218.022 170.184 217.302 173.99C216.582 170.184 216.582 166.275 217.302 162.469Z" fill="#161111"/>
<path d="M204.958 162.469C205.678 166.275 205.678 170.184 204.958 173.99C204.238 170.184 204.238 166.275 204.958 162.469Z" fill="#161111"/>
<path d="M180.885 162.469C181.605 166.275 181.605 170.184 180.885 173.99C180.165 170.184 180.268 166.275 180.885 162.469Z" fill="#161111"/>
<path d="M197.858 162.469C198.578 166.275 198.578 170.184 197.858 173.99C197.138 170.184 197.138 166.275 197.858 162.469Z" fill="#161111"/>
<path d="M200.226 162.469C200.946 166.275 200.946 170.184 200.226 173.99C199.506 170.184 199.506 166.275 200.226 162.469Z" fill="#161111"/>
<path d="M225.325 162.469C226.045 166.275 226.045 170.184 225.325 173.99C224.605 170.184 224.605 166.275 225.325 162.469Z" fill="#161111"/>
<path d="M229.026 162.469C229.746 166.275 229.746 170.184 229.026 173.99C228.306 170.184 228.306 166.275 229.026 162.469Z" fill="#161111"/>
<path d="M220.179 162.469C220.899 166.275 220.899 170.184 220.179 173.99C219.459 170.184 219.459 166.275 220.179 162.469Z" fill="#161111"/>
<path d="M186.853 162.469C187.573 166.275 187.573 170.184 186.853 173.99C186.132 170.184 186.132 166.275 186.853 162.469Z" fill="#161111"/>
</g>
<path opacity="0.1" d="M231.911 161.126V164.212L166.695 166.269V161.126H231.911Z" fill="#161111"/>
<path d="M230.264 146.729H165.049V161.13H230.264V146.729Z" fill="#E3E5EA"/>
<g opacity="0.1">
<path d="M227.378 159.591C226.658 155.786 226.658 151.877 227.378 148.071C228.098 151.877 228.098 155.786 227.378 159.591Z" fill="#161111"/>
<path d="M222.44 159.591C221.72 155.786 221.72 151.877 222.44 148.071C223.16 151.877 223.16 155.786 222.44 159.591Z" fill="#161111"/>
<path d="M220.077 159.591C219.357 155.786 219.357 151.877 220.077 148.071C220.797 151.877 220.797 155.786 220.077 159.591Z" fill="#161111"/>
<path d="M207.116 159.591C206.396 155.786 206.396 151.877 207.116 148.071C207.836 151.877 207.836 155.786 207.116 159.591Z" fill="#161111"/>
<path d="M203.519 159.591C202.799 155.786 202.799 151.877 203.519 148.071C204.239 151.877 204.239 155.786 203.519 159.591Z" fill="#161111"/>
<path d="M189.011 159.591C188.291 155.786 188.291 151.877 189.011 148.071C189.731 151.877 189.731 155.786 189.011 159.591Z" fill="#161111"/>
<path d="M185.618 159.591C184.898 155.786 184.898 151.877 185.618 148.071C186.338 151.877 186.338 155.786 185.618 159.591Z" fill="#161111"/>
<path d="M179.446 159.591C178.726 155.786 178.726 151.877 179.446 148.071C180.166 151.877 180.166 155.786 179.446 159.591Z" fill="#161111"/>
<path d="M191.79 159.591C191.07 155.786 191.07 151.877 191.79 148.071C192.51 151.877 192.51 155.786 191.79 159.591Z" fill="#161111"/>
<path d="M215.858 159.591C215.138 155.786 215.138 151.877 215.858 148.071C216.476 151.877 216.476 155.786 215.858 159.591Z" fill="#161111"/>
<path d="M198.888 159.591C198.168 155.786 198.168 151.877 198.888 148.071C199.608 151.877 199.608 155.786 198.888 159.591Z" fill="#161111"/>
<path d="M196.524 159.591C195.804 155.786 195.804 151.877 196.524 148.071C197.244 151.877 197.244 155.786 196.524 159.591Z" fill="#161111"/>
<path d="M171.423 159.591C170.703 155.786 170.703 151.877 171.423 148.071C172.143 151.877 172.04 155.786 171.423 159.591Z" fill="#161111"/>
<path d="M167.72 159.591C167 155.786 167 151.877 167.72 148.071C168.44 151.877 168.44 155.786 167.72 159.591Z" fill="#161111"/>
<path d="M176.563 159.591C175.843 155.786 175.843 151.877 176.563 148.071C177.284 151.877 177.284 155.786 176.563 159.591Z" fill="#161111"/>
<path d="M209.894 159.591C209.174 155.786 209.174 151.877 209.894 148.071C210.614 151.877 210.614 155.786 209.894 159.591Z" fill="#161111"/>
</g>
<path opacity="0.1" d="M230.264 146.729V149.815L165.049 151.873V146.729H230.264Z" fill="#161111"/>
<path d="M226.256 132.321H161.041V146.722H226.256V132.321Z" fill="#E3E5EA"/>
<g opacity="0.1">
<path d="M163.819 133.652C164.539 137.458 164.539 141.367 163.819 145.173C163.099 141.367 163.099 137.458 163.819 133.652Z" fill="#161111"/>
<path d="M168.651 133.652C169.371 137.458 169.371 141.367 168.651 145.173C167.931 141.367 167.931 137.458 168.651 133.652Z" fill="#161111"/>
<path d="M171.021 133.652C171.741 137.458 171.741 141.367 171.021 145.173C170.3 141.367 170.3 137.458 171.021 133.652Z" fill="#161111"/>
<path d="M184.083 133.652C184.803 137.458 184.803 141.367 184.083 145.173C183.363 141.367 183.363 137.458 184.083 133.652Z" fill="#161111"/>
<path d="M187.579 133.652C188.299 137.458 188.299 141.367 187.579 145.173C186.859 141.367 186.859 137.458 187.579 133.652Z" fill="#161111"/>
<path d="M202.188 133.652C202.909 137.458 202.909 141.367 202.188 145.173C201.468 141.367 201.468 137.458 202.188 133.652Z" fill="#161111"/>
<path d="M205.478 133.652C206.198 137.458 206.198 141.367 205.478 145.173C204.757 141.367 204.757 137.458 205.478 133.652Z" fill="#161111"/>
<path d="M211.651 133.652C212.371 137.458 212.371 141.367 211.651 145.173C210.931 141.367 211.033 137.458 211.651 133.652Z" fill="#161111"/>
<path d="M199.306 133.652C200.026 137.458 200.026 141.367 199.306 145.173C198.586 141.367 198.586 137.458 199.306 133.652Z" fill="#161111"/>
<path d="M175.339 133.652C176.059 137.458 176.059 141.367 175.339 145.173C174.619 141.367 174.619 137.458 175.339 133.652Z" fill="#161111"/>
<path d="M192.21 133.652C192.93 137.458 192.93 141.367 192.21 145.173C191.49 141.367 191.49 137.458 192.21 133.652Z" fill="#161111"/>
<path d="M194.679 133.652C195.399 137.458 195.399 141.367 194.679 145.173C193.959 141.367 193.959 137.458 194.679 133.652Z" fill="#161111"/>
<path d="M219.78 133.652C220.5 137.458 220.5 141.367 219.78 145.173C219.06 141.367 219.06 137.458 219.78 133.652Z" fill="#161111"/>
<path d="M223.378 133.652C224.098 137.458 224.098 141.367 223.378 145.173C222.658 141.367 222.658 137.458 223.378 133.652Z" fill="#161111"/>
<path d="M214.532 133.652C215.252 137.458 215.252 141.367 214.532 145.173C213.812 141.367 213.812 137.458 214.532 133.652Z" fill="#161111"/>
<path d="M181.204 133.652C181.924 137.458 181.924 141.367 181.204 145.173C180.484 141.367 180.484 137.458 181.204 133.652Z" fill="#161111"/>
</g>
<path opacity="0.1" d="M226.359 132.321V135.407L161.041 137.465V132.321H226.359Z" fill="#161111"/>
<path d="M226.256 175.534H161.041V189.935H226.256V175.534Z" fill="#E3E5EA"/>
<g opacity="0.1">
<path d="M223.374 188.397C222.654 184.591 222.654 180.682 223.374 176.876C224.094 180.785 224.094 184.591 223.374 188.397Z" fill="#161111"/>
<path d="M218.54 188.397C217.82 184.591 217.82 180.682 218.54 176.876C219.26 180.785 219.26 184.591 218.54 188.397Z" fill="#161111"/>
<path d="M216.173 188.397C215.453 184.591 215.453 180.682 216.173 176.876C216.893 180.785 216.893 184.591 216.173 188.397Z" fill="#161111"/>
<path d="M203.108 188.397C202.388 184.591 202.388 180.682 203.108 176.876C203.828 180.785 203.828 184.591 203.108 188.397Z" fill="#161111"/>
<path d="M199.616 188.397C198.896 184.591 198.896 180.682 199.616 176.876C200.336 180.785 200.336 184.591 199.616 188.397Z" fill="#161111"/>
<path d="M185.007 188.397C184.287 184.591 184.287 180.682 185.007 176.876C185.727 180.785 185.727 184.591 185.007 188.397Z" fill="#161111"/>
<path d="M181.614 188.397C180.894 184.591 180.894 180.682 181.614 176.876C182.334 180.785 182.334 184.591 181.614 188.397Z" fill="#161111"/>
<path d="M175.44 188.397C174.72 184.591 174.72 180.682 175.44 176.876C176.16 180.785 176.16 184.591 175.44 188.397Z" fill="#161111"/>
<path d="M187.888 188.397C187.168 184.591 187.168 180.682 187.888 176.876C188.608 180.785 188.505 184.591 187.888 188.397Z" fill="#161111"/>
<path d="M211.851 188.397C211.131 184.591 211.131 180.682 211.851 176.876C212.571 180.785 212.571 184.591 211.851 188.397Z" fill="#161111"/>
<path d="M194.985 188.397C194.265 184.591 194.265 180.682 194.985 176.876C195.705 180.785 195.705 184.591 194.985 188.397Z" fill="#161111"/>
<path d="M192.517 188.397C191.797 184.591 191.797 180.682 192.517 176.876C193.237 180.785 193.237 184.591 192.517 188.397Z" fill="#161111"/>
<path d="M167.415 188.397C166.695 184.591 166.695 180.682 167.415 176.876C168.135 180.785 168.135 184.591 167.415 188.397Z" fill="#161111"/>
<path d="M163.817 188.397C163.097 184.591 163.097 180.682 163.817 176.876C164.537 180.785 164.435 184.591 163.817 188.397Z" fill="#161111"/>
<path d="M172.562 188.397C171.841 184.591 171.841 180.682 172.562 176.876C173.282 180.785 173.282 184.591 172.562 188.397Z" fill="#161111"/>
<path d="M205.991 188.397C205.271 184.591 205.271 180.682 205.991 176.876C206.608 180.785 206.608 184.591 205.991 188.397Z" fill="#161111"/>
</g>
<path opacity="0.1" d="M226.359 175.534V178.62L161.041 180.677V175.534H226.359Z" fill="#161111"/>
<path d="M156.921 154.446C199.815 162.161 188.5 225.73 145.503 218.015C102.609 210.301 113.924 146.731 156.921 154.446Z" fill="#E3E5EA"/>
<path opacity="0.1" d="M156.921 154.446C199.815 162.161 188.5 225.73 145.503 218.015C102.609 210.301 113.924 146.731 156.921 154.446Z" fill="#161111"/>
<path d="M152.911 153.733C193.85 161.036 182.535 224.709 141.493 217.303C100.553 209.999 111.868 146.327 152.911 153.733Z" fill="#E3E5EA"/>
<path opacity="0.1" d="M121.229 187.067C121.434 198.382 128.017 209.388 142.418 211.96C176.466 218.028 185.93 165.26 151.882 159.191C151.676 159.191 151.47 159.088 151.162 159.088C183.049 165.465 173.895 215.457 141.493 209.594C128.326 207.228 121.949 197.353 121.229 187.067Z" fill="#161111"/>
<g opacity="0.1">
<path d="M150.751 165.75C151.368 165.853 151.677 166.47 151.574 167.088L151.162 168.836C154.248 169.865 156.202 171.511 158.157 173.877C158.465 174.288 158.671 174.597 158.568 175.008C158.465 175.625 157.745 175.934 157.128 175.831C156.82 175.728 156.614 175.625 156.408 175.317C154.66 173.054 152.808 171.716 150.545 170.894L147.459 183.134C153.734 186.22 155.894 189.409 154.865 193.626C153.734 198.255 149.002 200.518 143.55 199.387L142.625 202.678C142.522 203.296 141.904 203.604 141.287 203.501C140.67 203.398 140.362 202.781 140.464 202.164L141.287 198.667C137.584 197.432 134.807 195.272 132.544 191.981C132.338 191.672 132.235 191.363 132.338 190.952C132.441 190.335 133.161 190.026 133.675 190.129C134.087 190.232 134.293 190.438 134.395 190.643C136.247 193.523 138.613 195.581 141.904 196.712L144.99 184.266C138.819 181.18 136.658 178.094 137.79 173.774C138.921 169.351 143.55 166.985 148.899 168.116L149.311 166.47C149.516 165.956 150.134 165.545 150.751 165.75ZM145.608 182.106L148.591 170.174C144.373 169.248 140.876 170.996 140.156 174.185C139.436 177.168 140.362 179.328 145.608 182.106ZM146.842 185.192L143.859 197.227C148.282 198.255 151.677 196.404 152.499 193.112C153.322 190.129 152.191 187.866 146.842 185.192Z" fill="#161111"/>
</g>
</g>
<defs>
<clipPath id="clip0_3216_7004">
<rect width="244.286" height="228" fill="white" transform="translate(0.857422)"/>
</clipPath>
</defs>
</svg>
