<svg width="94" height="113" viewBox="0 0 94 113" fill="none" xmlns="http://www.w3.org/2000/svg">
<path d="M92.8227 30.4174C92.5032 29.5084 91.8357 28.7634 90.9671 28.3463C90.0984 27.9292 89.0997 27.8743 88.1905 28.1934L86.7272 28.707C83.7425 29.7585 81.2035 30.65 79.2072 31.6288C77.0752 32.6802 75.2388 33.9691 73.8628 35.9848C72.4964 37.9811 71.9343 40.176 71.6727 42.5842C71.5596 43.6598 71.4901 44.8518 71.4643 46.16H19.9144C11.75 46.16 4.40439 46.1601 2.25305 48.9558C0.101706 51.7516 0.944792 55.9671 2.62129 64.3932L5.04397 76.1432C6.57027 83.5469 7.33584 87.2536 10.0105 89.4292C12.6803 91.6096 16.4645 91.6096 24.0281 91.6096H49.7183C63.232 91.6096 69.9865 91.6096 74.1874 87.1809C78.3883 82.7523 78.6936 78.0523 78.6936 63.7972V51.1895C78.6936 47.604 78.6936 45.2055 78.8923 43.3643C79.0861 41.6054 79.4252 40.7235 79.8613 40.084C80.2877 39.4589 80.9322 38.8726 82.4051 38.1555C83.9654 37.3899 86.0925 36.6341 89.3292 35.4954L90.5938 35.0545C91.0445 34.8963 91.4596 34.6508 91.8154 34.3321C92.1711 34.0134 92.4605 33.6277 92.6671 33.197C92.8737 32.7663 92.9933 32.2992 93.0192 31.8222C93.045 31.3453 92.9815 30.8679 92.8227 30.4174Z" fill="#C9E3FF"/>
<path d="M58.8346 100.103C60.1976 98.7401 62.0463 97.9744 63.9739 97.9744C65.9015 97.9744 67.7501 98.7401 69.1132 100.103C70.4762 101.466 71.2419 103.315 71.2419 105.242C71.2419 107.17 70.4762 109.019 69.1132 110.382C67.7501 111.745 65.9015 112.51 63.9739 112.51C62.0463 112.51 60.1976 111.745 58.8346 110.382C57.4715 109.019 56.7058 107.17 56.7058 105.242C56.7058 103.315 57.4715 101.466 58.8346 100.103Z" fill="#B0D6FF"/>
<path d="M15.2263 100.103C16.5893 98.7401 18.4379 97.9744 20.3655 97.9744C22.2932 97.9744 24.1418 98.7401 25.5048 100.103C26.8679 101.466 27.6336 103.315 27.6336 105.242C27.6336 107.17 26.8679 109.019 25.5048 110.382C24.1418 111.745 22.2932 112.51 20.3655 112.51C18.4379 112.51 16.5893 111.745 15.2263 110.382C13.8632 109.019 13.0975 107.17 13.0975 105.242C13.0975 103.315 13.8632 101.466 15.2263 100.103Z" fill="#B0D6FF"/>
<path d="M58.2162 48.3805C58.2162 56.9796 51.2452 63.9505 42.6462 63.9505C34.0471 63.9505 27.0762 56.9796 27.0762 48.3805C27.0762 39.7815 34.0471 32.8105 42.6462 32.8105C51.2452 32.8105 58.2162 39.7815 58.2162 48.3805Z" fill="#E63E00"/>
<path d="M42.6465 32.3105C51.5216 32.3107 58.7158 39.5057 58.7158 48.3809C58.7156 57.2558 51.5214 64.45 42.6465 64.4502C33.7714 64.4502 26.5763 57.2559 26.5762 48.3809C26.5762 39.5056 33.7713 32.3105 42.6465 32.3105Z" stroke="#BD0002"/>
<path d="M46.9891 41.4397L42.6459 45.7832C41.1982 44.3359 39.7501 42.8873 38.3022 41.4397C36.6272 39.7647 34.0308 42.362 35.7044 44.0374C37.1526 45.4841 38.6012 46.933 40.0477 48.3807C38.6005 49.829 37.1528 51.2767 35.7044 52.7239C34.0308 54.3984 36.6274 56.995 38.3022 55.3216C39.7501 53.8733 41.1979 52.4254 42.6456 50.9779L46.9889 55.3216C48.6639 56.9962 51.2609 54.3987 49.5866 52.7239C48.1387 51.2758 46.6906 49.8279 45.2422 48.3802C46.6903 46.932 48.1384 45.4839 49.5866 44.036C51.2611 42.362 48.6641 39.7647 46.9889 41.4406" fill="white"/>
</svg>
