<svg viewBox="0 0 108 24" fill="none" xmlns="http://www.w3.org/2000/svg"><path fill-rule="evenodd" clip-rule="evenodd" d="M79.285 19.01h5.639v1.163H78.05V7.838h1.234V19.01ZM97.436 7.838v12.336h-1.234V9.706l-4.318 7.225h-.176l-4.317-7.225v10.468h-1.234V7.838h1.513l4.126 6.905 4.126-6.905h1.514ZM103.427 20.386c-1.127 0-2.094-.267-2.898-.802-.805-.535-1.366-1.272-1.683-2.212l1.057-.616c.223.764.635 1.36 1.234 1.788.599.43 1.368.643 2.308.643.916 0 1.63-.202 2.141-.607.512-.406.767-.943.767-1.613 0-.646-.235-1.133-.705-1.463-.47-.328-1.245-.67-2.326-1.021-1.28-.424-2.127-.764-2.538-1.023-.94-.564-1.41-1.38-1.41-2.45 0-1.045.364-1.87 1.093-2.476.728-.604 1.627-.907 2.696-.907.963 0 1.798.25 2.503.749a4.551 4.551 0 0 1 1.568 1.912l-1.04.582c-.564-1.363-1.574-2.045-3.031-2.045-.764 0-1.38.188-1.85.564-.47.376-.705.9-.705 1.569 0 .61.212 1.069.635 1.374.423.306 1.121.617 2.096.934l.961.327c.194.064.476.17.846.316.37.148.643.276.82.388.176.112.39.264.643.459.252.193.435.387.546.581.112.194.211.43.299.705.089.276.132.573.132.89 0 1.046-.381 1.883-1.145 2.51-.764.63-1.768.944-3.014.944ZM66.287 20.184V8.099h2.337v1.207h.038c1.052-1.5 2.766-1.538 3.389-1.558v2.571a4.558 4.558 0 0 0-1.811.487c-.798.428-1.46 1.44-1.46 3.35v6.047l-2.493-.02ZM62.652 14.15c0 2.055-1.659 3.727-3.698 3.727-2.04 0-3.698-1.672-3.698-3.728 0-2.055 1.659-3.727 3.698-3.727 2.04 0 3.698 1.672 3.698 3.727Zm.64-4.275a6.119 6.119 0 0 0-4.338-1.79 6.118 6.118 0 0 0-4.338 1.79 6 6 0 0 0-1.777 4.274 6 6 0 0 0 1.777 4.274 6.128 6.128 0 0 0 4.338 1.79 6.129 6.129 0 0 0 4.338-1.79 5.997 5.997 0 0 0 1.777-4.274c0-1.613-.63-3.13-1.777-4.274ZM50.087 20.174h-2.493V10.36h-1.81V8.082h1.81V2.906h2.493v5.176h2.18v2.278h-2.18v9.814ZM34.8 8.082v5.666c0 3.292 1.46 4.168 3.31 4.168 2.065 0 3.486-1.325 3.486-4.245V8.082h2.493v12.093H41.81v-1.773h-.058c-.681 1.15-2.24 1.773-3.914 1.773-1.52 0-2.843-.487-3.797-1.325-1.11-.954-1.753-2.453-1.753-5.121V8.082H34.8ZM28.413 20.208H25.92v-9.856h-1.81V8.074h1.81V2.906h2.493v5.168h2.18v2.278h-2.18v9.856Z" fill="#000"/><path fill-rule="evenodd" clip-rule="evenodd" d="M5.054 14.882a1.13 1.13 0 0 1-1.075-1.075V11.36c0-.592.482-1.075 1.075-1.075.592 0 1.075.483 1.075 1.075v2.447c0 .592-.445 1.075-1.002 1.075l-.073.001ZM12.764 14.882c-.593 0-1.075-.444-1.075-1.037V11.36c0-.592.482-1.075 1.075-1.075.592 0 1.075.483 1.075 1.075v2.447a1.079 1.079 0 0 1-1.075 1.076Z" fill="#0049F8"/><path fill-rule="evenodd" clip-rule="evenodd" d="M2.546 9.52c.48-1 1.44-1.64 2.56-1.68 1.598.04 2.88 1.398 2.841 3v5.404c.08.6.64 1 1.24.918.48-.08.88-.439.918-.918v-5.4c-.041-1.6 1.24-2.96 2.842-3.001 1.081 0 2.04.6 2.48 1.561 1.799 3.56.4 7.88-3.16 9.683a7.182 7.182 0 0 1-9.68-3.164c-1-2-1.038-4.4-.041-6.402ZM7.067 2.4h4.04v1.561A8.994 8.994 0 0 0 9.03 3.72c-.681 0-1.36.08-2 .2l.038-1.52Zm11.002 11.08c0-.24.04-.438.04-.721 0-3.28-1.76-6.281-4.64-7.881V2.4h1.761a1.18 1.18 0 0 0 1.202-1.202C16.432.518 15.91 0 15.23 0H2.946c-.68.041-1.198.559-1.198 1.24 0 .68.521 1.201 1.202 1.201h1.76v2.442c-4.363 2.396-6.003 7.88-3.603 12.239.12.2.2.359.321.558 3.4 5.722 12.521 6.281 15.602 6.32.28 0 .521-.12.76-.28.2-.2.28-.48.28-.76-.002.004-.002-9.48-.002-9.48Z" fill="#0049F8"/></svg>