<svg xmlns="http://www.w3.org/2000/svg" width="74" height="94" fill="none" viewBox="0 0 74 94"><path fill="#fff" d="M67 .5A6.5 6.5 0 0 1 73.5 7v80a6.5 6.5 0 0 1-6.5 6.5H7A6.5 6.5 0 0 1 .5 87V7A6.5 6.5 0 0 1 7 .5z"/><path stroke="transparent" d="M67 .5A6.5 6.5 0 0 1 73.5 7v80a6.5 6.5 0 0 1-6.5 6.5H7A6.5 6.5 0 0 1 .5 87V7A6.5 6.5 0 0 1 7 .5z"/><path fill="currentColor" d="M10 29.979a1 1 0 0 1 1-1h52a1 1 0 1 1 0 2H11a1 1 0 0 1-1-1M10 35.179a1.2 1.2 0 0 1 1.2-1.2h10.2a1.2 1.2 0 0 1 1.2 1.2v9.6a1.2 1.2 0 0 1-1.2 1.2H11.2a1.2 1.2 0 0 1-1.2-1.2zM23.8 35.179a1.2 1.2 0 0 1 1.2-1.2h10.2a1.2 1.2 0 0 1 1.2 1.2v9.6a1.2 1.2 0 0 1-1.2 1.2H25a1.2 1.2 0 0 1-1.2-1.2zM37.6 35.179a1.2 1.2 0 0 1 1.2-1.2H49a1.2 1.2 0 0 1 1.2 1.2v9.6a1.2 1.2 0 0 1-1.2 1.2H38.8a1.2 1.2 0 0 1-1.2-1.2zM51.4 35.179a1.2 1.2 0 0 1 1.2-1.2h10.2a1.2 1.2 0 0 1 1.2 1.2v9.6a1.2 1.2 0 0 1-1.2 1.2H52.6a1.2 1.2 0 0 1-1.2-1.2zM33.834 72.511a.45.45 0 0 1 0 .635l-1.747 1.748 1.747 1.747a.449.449 0 1 1-.635.635l-2.067-2.067a.45.45 0 0 1 0-.635l2.067-2.067a.453.453 0 0 1 .635.004M40.166 72.511a.45.45 0 0 0 0 .635l1.747 1.748-1.747 1.747a.449.449 0 1 0 .635.635l2.067-2.067a.45.45 0 0 0 0-.635l-2.067-2.067a.453.453 0 0 0-.635.004"/></svg>