<svg xmlns="http://www.w3.org/2000/svg" width="74" height="94" fill="none" viewBox="0 0 74 94"><g clip-path="url(#a)"><path fill="#fff" d="M1 7a6 6 0 0 1 6-6h60a6 6 0 0 1 6 6v80a6 6 0 0 1-6 6H7a6 6 0 0 1-6-6z"/><path fill="currentColor" d="M62 51.5v.5H12v-.5zm1.5-1.5v-5a1.5 1.5 0 0 0-1.5-1.5H12a1.5 1.5 0 0 0-1.5 1.5v5a1.5 1.5 0 0 0 1.5 1.5v.5l-.204-.01a2 2 0 0 1-1.785-1.786L10 50v-5a2 2 0 0 1 2-2h50a2 2 0 0 1 2 2v5a2 2 0 0 1-1.796 1.99L62 52v-.5a1.5 1.5 0 0 0 1.5-1.5M10 14.25c0-.69.56-1.25 1.25-1.25h42.875a1.25 1.25 0 1 1 0 2.5H11.25c-.69 0-1.25-.56-1.25-1.25M10 20.75c0-.69.56-1.25 1.25-1.25h22.042a1.25 1.25 0 0 1 0 2.5H11.25c-.69 0-1.25-.56-1.25-1.25M37.542 20.75c0-.69.56-1.25 1.25-1.25h22.041a1.25 1.25 0 1 1 0 2.5H38.792c-.69 0-1.25-.56-1.25-1.25M10 26.25c0-.69.56-1.25 1.25-1.25h22.042a1.25 1.25 0 0 1 0 2.5H11.25c-.69 0-1.25-.56-1.25-1.25M37.542 26.25c0-.69.56-1.25 1.25-1.25h22.041a1.25 1.25 0 1 1 0 2.5H38.792c-.69 0-1.25-.56-1.25-1.25M10 37.75c0-.69.56-1.25 1.25-1.25h34.5a1.25 1.25 0 1 1 0 2.5h-34.5c-.69 0-1.25-.56-1.25-1.25M10 62.25c0-.69.56-1.25 1.25-1.25h51.5a1.25 1.25 0 1 1 0 2.5h-51.5c-.69 0-1.25-.56-1.25-1.25M10 69a1.5 1.5 0 1 1 3 0 1.5 1.5 0 0 1-3 0M14 69a1.5 1.5 0 0 1 1.5-1.5h12a1.5 1.5 0 0 1 0 3h-12A1.5 1.5 0 0 1 14 69M33 69a1.5 1.5 0 1 1 3 0 1.5 1.5 0 0 1-3 0M37 69a1.5 1.5 0 0 1 1.5-1.5h12a1.5 1.5 0 0 1 0 3h-12A1.5 1.5 0 0 1 37 69M10 80.75c0-.69.56-1.25 1.25-1.25h51.5a1.25 1.25 0 1 1 0 2.5h-51.5c-.69 0-1.25-.56-1.25-1.25M10 86.2a1.2 1.2 0 0 1 1.2-1.2h23.6a1.2 1.2 0 0 1 1.2 1.2v18.6a1.2 1.2 0 0 1-1.2 1.2H11.2a1.2 1.2 0 0 1-1.2-1.2zM37.2 86.2a1.2 1.2 0 0 1 1.2-1.2H62a1.2 1.2 0 0 1 1.2 1.2v18.6A1.2 1.2 0 0 1 62 106H38.4a1.2 1.2 0 0 1-1.2-1.2z"/></g><path stroke="transparent" d="M67 .5A6.5 6.5 0 0 1 73.5 7v80a6.5 6.5 0 0 1-6.5 6.5H7A6.5 6.5 0 0 1 .5 87V7A6.5 6.5 0 0 1 7 .5z"/><defs><clipPath id="a"><path fill="#fff" d="M1 7a6 6 0 0 1 6-6h60a6 6 0 0 1 6 6v80a6 6 0 0 1-6 6H7a6 6 0 0 1-6-6z"/></clipPath></defs></svg>