<svg width="80" height="80" fill="none" xmlns="http://www.w3.org/2000/svg"><rect width="80" height="80" rx="40" fill="#F1F3F4"/><g filter="url(#a)"><circle cx="52" cy="40" r="19" fill="#fff"/></g><g clip-path="url(#b)"><path d="M65.726 40.323c0-.952-.077-1.909-.242-2.845H52.28v5.391h7.562a6.48 6.48 0 0 1-2.798 4.254v3.498h4.511c2.65-2.438 4.172-6.039 4.172-10.298Z" fill="#4285F4"/><path d="M52.278 54c3.776 0 6.96-1.239 9.28-3.379l-4.511-3.498c-1.255.854-2.876 1.338-4.764 1.338-3.652 0-6.749-2.465-7.86-5.777h-4.655v3.606A14.002 14.002 0 0 0 52.278 54Z" fill="#34A853"/><path d="M44.419 42.684a8.386 8.386 0 0 1 0-5.36v-3.607h-4.65a14.012 14.012 0 0 0 0 12.573l4.65-3.606Z" fill="#FBBC04"/><path d="M52.278 31.541a7.608 7.608 0 0 1 5.37 2.1l3.998-3.998a13.456 13.456 0 0 0-9.368-3.642 13.997 13.997 0 0 0-12.51 7.716l4.65 3.606c1.106-3.318 4.208-5.782 7.86-5.782Z" fill="#EA4335"/></g><g filter="url(#c)"><circle cx="28" cy="40" r="19" fill="#fff"/></g><g clip-path="url(#d)"><path d="M41.998 40c0-7.732-6.268-14-14-14s-14 6.268-14 14c0 6.988 5.12 12.78 11.813 13.83v-9.783h-3.555V40h3.555v-3.084c0-3.51 2.09-5.447 5.288-5.447 1.53 0 3.133.273 3.133.273v3.445h-1.765c-1.739 0-2.281 1.08-2.281 2.188V40h3.882l-.62 4.047h-3.262v9.783c6.693-1.05 11.812-6.842 11.812-13.83Z" fill="#1877F2"/><path d="m33.448 44.047.62-4.047h-3.882v-2.625c0-1.107.542-2.188 2.281-2.188h1.765v-3.445s-1.602-.273-3.133-.273c-3.198 0-5.288 1.938-5.288 5.447V40h-3.555v4.047h3.555v9.783a14.15 14.15 0 0 0 4.375 0v-9.783h3.262Z" fill="#fff"/></g><defs><clipPath id="b"><path fill="#fff" d="M37.998 26h28v28h-28z"/></clipPath><clipPath id="d"><path fill="#fff" d="M13.998 26h28v28h-28z"/></clipPath><filter id="a" x="31.952" y="20.581" width="40.794" height="40.794" filterUnits="userSpaceOnUse" color-interpolation-filters="sRGB"><feFlood flood-opacity="0" result="BackgroundImageFix"/><feColorMatrix in="SourceAlpha" values="0 0 0 0 0 0 0 0 0 0 0 0 0 0 0 0 0 0 127 0" result="hardAlpha"/><feOffset dx=".349" dy=".978"/><feGaussianBlur stdDeviation=".699"/><feComposite in2="hardAlpha" operator="out"/><feColorMatrix values="0 0 0 0 0 0 0 0 0 0 0 0 0 0 0 0 0 0 0.15 0"/><feBlend in2="BackgroundImageFix" result="effect1_dropShadow_28566_203752"/><feBlend in="SourceGraphic" in2="effect1_dropShadow_28566_203752" result="shape"/></filter><filter id="c" x="7.952" y="20.581" width="40.794" height="40.794" filterUnits="userSpaceOnUse" color-interpolation-filters="sRGB"><feFlood flood-opacity="0" result="BackgroundImageFix"/><feColorMatrix in="SourceAlpha" values="0 0 0 0 0 0 0 0 0 0 0 0 0 0 0 0 0 0 127 0" result="hardAlpha"/><feOffset dx=".349" dy=".978"/><feGaussianBlur stdDeviation=".699"/><feComposite in2="hardAlpha" operator="out"/><feColorMatrix values="0 0 0 0 0 0 0 0 0 0 0 0 0 0 0 0 0 0 0.15 0"/><feBlend in2="BackgroundImageFix" result="effect1_dropShadow_28566_203752"/><feBlend in="SourceGraphic" in2="effect1_dropShadow_28566_203752" result="shape"/></filter></defs></svg>