<svg width="88" height="56" viewBox="0 0 88 56" fill="none" xmlns="http://www.w3.org/2000/svg">
<rect x="23" y="7.97363" width="42" height="16" rx="4" fill="#FFE129"/>
<g filter="url(#filter0_d_41879_26527)">
<path d="M23 29.6895C23 28.2025 24.2054 26.9971 25.6924 26.9971H62.3076C63.7946 26.9971 65 28.2025 65 29.6895C65 31.1764 63.7946 32.3818 62.3076 32.3818H25.6924C24.2054 32.3818 23 31.1764 23 29.6895Z" fill="#58CD04"/>
</g>
<g filter="url(#filter1_d_41879_26527)">
<rect x="23" y="36.0107" width="42" height="12.0156" rx="6" fill="#51BE02"/>
</g>
<rect x="24.9219" y="37.3916" width="9.01562" height="9.25391" rx="4.50781" fill="white"/>
<path d="M52.5947 12.19C52.8506 12.1901 53.0576 12.3979 53.0576 12.6539C53.0576 17.6554 49.0035 21.7104 44.002 21.7105C39.0004 21.7105 34.9453 17.6555 34.9453 12.6539C34.9453 12.3978 35.1532 12.19 35.4092 12.19C35.6652 12.19 35.873 12.3978 35.873 12.6539C35.8731 17.1434 39.5124 20.7828 44.002 20.7828C48.4914 20.7827 52.1308 17.1434 52.1309 12.6539C52.1309 12.3978 52.3387 12.19 52.5947 12.19ZM42.6162 10.899C42.8722 10.899 43.0801 11.1068 43.0801 11.3629C43.08 11.9112 42.7724 12.3668 42.3574 12.6675C41.9417 12.9686 41.3897 13.1411 40.8018 13.1412C40.2139 13.1412 39.6628 12.9686 39.2471 12.6675C38.8318 12.3668 38.5235 11.9115 38.5234 11.3629C38.5234 11.1068 38.7313 10.899 38.9873 10.899C39.2433 10.899 39.4512 11.1068 39.4512 11.3629C39.4512 11.5401 39.5495 11.7417 39.791 11.9166C40.032 12.0911 40.3877 12.2134 40.8018 12.2134C41.2159 12.2134 41.5725 12.0911 41.8135 11.9166C42.0546 11.7417 42.1532 11.54 42.1533 11.3629C42.1533 11.107 42.3603 10.8992 42.6162 10.899ZM44.9941 10.7593C45.2498 10.7719 45.447 10.989 45.4346 11.2447C45.4259 11.4218 45.5144 11.6285 45.7471 11.815C45.9792 12.001 46.3287 12.1404 46.7422 12.1607C47.1559 12.181 47.5183 12.0762 47.7676 11.9136C48.0171 11.7507 48.1251 11.5535 48.1338 11.3765C48.1465 11.1211 48.3637 10.9238 48.6191 10.9361C48.8748 10.9487 49.0721 11.1668 49.0596 11.4224C49.0327 11.9701 48.7035 12.4099 48.2744 12.69C47.8445 12.9704 47.2845 13.1162 46.6973 13.0875C46.1101 13.0587 45.5675 12.8587 45.167 12.5377C44.7672 12.217 44.4821 11.7475 44.5088 11.1998C44.5213 10.9441 44.7385 10.7469 44.9941 10.7593Z" fill="#FC7501"/>
<path d="M67.4138 27.3272C66.3822 29.239 67.4129 31.1104 68.0774 32.6466C68.3119 33.1884 68.5415 33.7037 68.9346 33.9158C69.3277 34.1279 69.8842 34.0374 70.4663 33.9352C72.115 33.6482 74.2449 33.4818 75.2763 31.5704C76.3077 29.659 74.8776 27.1355 72.1165 28.0192C71.3393 25.2262 68.4454 25.4154 67.4138 27.3272Z" fill="#FF6CCB"/>
<path d="M13.8478 33.3337C13.8613 33.144 13.8205 32.9543 13.7303 32.7869L12.3499 30.2268C11.996 29.5704 12.4572 28.7716 13.2016 28.7516L16.1051 28.6737C16.2949 28.6686 16.4793 28.6094 16.6367 28.5031L18.948 26.9421C19.6387 26.4756 20.5632 27.0113 20.504 27.8437L20.3059 30.6291C20.2924 30.8188 20.3331 31.0084 20.4234 31.1758L21.8038 33.736C22.1577 34.3923 21.6964 35.1912 20.9521 35.2112L18.0486 35.2891C17.8587 35.2942 17.6743 35.3534 17.5169 35.4597L15.2057 37.0207C14.515 37.4872 13.5905 36.9514 13.6497 36.119L13.8478 33.3337Z" fill="#FF6CCB"/>
<defs>
<filter id="filter0_d_41879_26527" x="23" y="26.9971" width="42" height="5.88477" filterUnits="userSpaceOnUse" color-interpolation-filters="sRGB">
<feFlood flood-opacity="0" result="BackgroundImageFix"/>
<feColorMatrix in="SourceAlpha" type="matrix" values="0 0 0 0 0 0 0 0 0 0 0 0 0 0 0 0 0 0 127 0" result="hardAlpha"/>
<feOffset dy="0.5"/>
<feComposite in2="hardAlpha" operator="out"/>
<feColorMatrix type="matrix" values="0 0 0 0 0.231373 0 0 0 0 0.54902 0 0 0 0 0 0 0 0 1 0"/>
<feBlend mode="normal" in2="BackgroundImageFix" result="effect1_dropShadow_41879_26527"/>
<feBlend mode="normal" in="SourceGraphic" in2="effect1_dropShadow_41879_26527" result="shape"/>
</filter>
<filter id="filter1_d_41879_26527" x="23" y="36.0107" width="42" height="13.0156" filterUnits="userSpaceOnUse" color-interpolation-filters="sRGB">
<feFlood flood-opacity="0" result="BackgroundImageFix"/>
<feColorMatrix in="SourceAlpha" type="matrix" values="0 0 0 0 0 0 0 0 0 0 0 0 0 0 0 0 0 0 127 0" result="hardAlpha"/>
<feOffset dy="1"/>
<feComposite in2="hardAlpha" operator="out"/>
<feColorMatrix type="matrix" values="0 0 0 0 0.230751 0 0 0 0 0.549129 0 0 0 0 0 0 0 0 1 0"/>
<feBlend mode="normal" in2="BackgroundImageFix" result="effect1_dropShadow_41879_26527"/>
<feBlend mode="normal" in="SourceGraphic" in2="effect1_dropShadow_41879_26527" result="shape"/>
</filter>
</defs>
</svg>
