<svg width="88" height="56" viewBox="0 0 88 56" fill="none" xmlns="http://www.w3.org/2000/svg">
<rect x="23.3" y="8.27363" width="41.4" height="15.4" rx="1.7" fill="white" stroke="#D9D9D9" stroke-width="0.6"/>
<mask id="path-3-inside-1_41879_26544" fill="white">
<path d="M31.4485 12.7705C31.8486 12.2835 32.5944 12.2835 32.9944 12.7705L38.8136 19.8552C38.8945 19.9538 39.0458 19.9524 39.1249 19.8525L43.9733 13.7293C44.0534 13.6282 44.2069 13.6282 44.287 13.7293L51.9526 23.4122C52.0564 23.5433 51.9631 23.7363 51.7958 23.7363H24.5569C23.7125 23.7363 23.2479 22.7542 23.7835 22.1016L31.4485 12.7705ZM38.9651 10.9443C40.1883 10.9443 41.18 11.936 41.18 13.1592C41.18 14.3824 40.1883 15.374 38.9651 15.374C37.7419 15.374 36.7503 14.3824 36.7503 13.1592C36.7503 11.936 37.7419 10.9443 38.9651 10.9443Z"/>
</mask>
<path d="M31.4485 12.7705C31.8486 12.2835 32.5944 12.2835 32.9944 12.7705L38.8136 19.8552C38.8945 19.9538 39.0458 19.9524 39.1249 19.8525L43.9733 13.7293C44.0534 13.6282 44.2069 13.6282 44.287 13.7293L51.9526 23.4122C52.0564 23.5433 51.9631 23.7363 51.7958 23.7363H24.5569C23.7125 23.7363 23.2479 22.7542 23.7835 22.1016L31.4485 12.7705ZM38.9651 10.9443C40.1883 10.9443 41.18 11.936 41.18 13.1592C41.18 14.3824 40.1883 15.374 38.9651 15.374C37.7419 15.374 36.7503 14.3824 36.7503 13.1592C36.7503 11.936 37.7419 10.9443 38.9651 10.9443Z" fill="#D9D9D9"/>
<path d="M31.4485 12.7705L31.0622 12.4531L31.0622 12.4531L31.4485 12.7705ZM32.9944 12.7705L33.3808 12.4532L33.3808 12.4531L32.9944 12.7705ZM23.7835 22.1016L23.3971 21.7842L23.397 21.7844L23.7835 22.1016ZM38.9651 10.9443V10.4443H38.9651L38.9651 10.9443ZM38.9651 15.374L38.9651 15.874H38.9651V15.374ZM51.9526 23.4122L52.3447 23.1018L51.9526 23.4122ZM43.9733 13.7293L43.5814 13.4189L43.9733 13.7293ZM38.8136 19.8552L38.4272 20.1726L38.8136 19.8552ZM39.1249 19.8525L39.5169 20.1628L39.1249 19.8525ZM31.4485 12.7705L31.8349 13.0879C32.0349 12.8444 32.408 12.8444 32.6081 13.0879L32.9944 12.7705L33.3808 12.4531C32.7807 11.7226 31.6622 11.7226 31.0622 12.4531L31.4485 12.7705ZM32.9944 12.7705L32.608 13.0879L38.4272 20.1726L38.8136 19.8552L39.2 19.5379L33.3808 12.4532L32.9944 12.7705ZM39.1249 19.8525L39.5169 20.1628L44.3653 14.0397L43.9733 13.7293L43.5814 13.4189L38.7329 19.5421L39.1249 19.8525ZM44.287 13.7293L43.8949 14.0397L51.5606 23.7225L51.9526 23.4122L52.3447 23.1018L44.679 13.419L44.287 13.7293ZM51.7958 23.7363V23.2363H24.5569V23.7363V24.2363H51.7958V23.7363ZM24.5569 23.7363V23.2363C24.1345 23.2363 23.9023 22.7449 24.17 22.4188L23.7835 22.1016L23.397 21.7844C22.5934 22.7634 23.2906 24.2363 24.5569 24.2363V23.7363ZM23.7835 22.1016L24.1698 22.4189L31.8349 13.0879L31.4485 12.7705L31.0622 12.4531L23.3971 21.7842L23.7835 22.1016ZM38.9651 10.9443V11.4443C39.9122 11.4443 40.68 12.2121 40.68 13.1592H41.18H41.68C41.68 11.6598 40.4645 10.4443 38.9651 10.4443V10.9443ZM41.18 13.1592H40.68C40.68 14.1063 39.9122 14.874 38.9651 14.874V15.374V15.874C40.4645 15.874 41.68 14.6585 41.68 13.1592H41.18ZM38.9651 15.374L38.9651 14.874C38.018 14.874 37.2503 14.1063 37.2503 13.1592H36.7503H36.2503C36.2503 14.6585 37.4658 15.874 38.9651 15.874L38.9651 15.374ZM36.7503 13.1592H37.2503C37.2503 12.2121 38.018 11.4443 38.9651 11.4443L38.9651 10.9443L38.9651 10.4443C37.4658 10.4443 36.2503 11.6598 36.2503 13.1592H36.7503ZM51.9526 23.4122L51.5606 23.7225C51.4049 23.5259 51.545 23.2363 51.7958 23.2363V23.7363V24.2363C52.3811 24.2363 52.708 23.5607 52.3447 23.1018L51.9526 23.4122ZM43.9733 13.7293L44.3653 14.0397C44.2452 14.1914 44.015 14.1914 43.8949 14.0397L44.287 13.7293L44.679 13.419C44.3987 13.065 43.8616 13.0649 43.5814 13.4189L43.9733 13.7293ZM38.8136 19.8552L38.4272 20.1726C38.7105 20.5175 39.2399 20.5128 39.5169 20.1628L39.1249 19.8525L38.7329 19.5421C38.8517 19.3921 39.0785 19.3901 39.2 19.5379L38.8136 19.8552Z" fill="#D9D9D9" mask="url(#path-3-inside-1_41879_26544)"/>
<rect x="23.3" y="27.2971" width="41.4" height="4.78477" rx="2.39238" fill="white" stroke="#D9D9D9" stroke-width="0.6"/>
<rect x="23" y="36.0107" width="42" height="12.0156" rx="2" fill="#DFE7FB"/>
<rect x="24.7812" y="38.249" width="7.34375" height="7.53784" rx="3.67188" fill="#3E64DE"/>
</svg>
