<svg width="88" height="56" viewBox="0 0 88 56" fill="none" xmlns="http://www.w3.org/2000/svg">
<path d="M62 36.0107C63.6569 36.0107 65 37.3539 65 39.0107V45.0264C65 46.6832 63.6569 48.0264 62 48.0264H26C24.3431 48.0264 23 46.6832 23 45.0264V39.0107C23 37.3539 24.3431 36.0107 26 36.0107H62ZM62.3076 26.9971C63.7946 26.9971 65 28.2025 65 29.6895C65 31.1764 63.7946 32.3818 62.3076 32.3818H25.6924C24.2054 32.3818 23 31.1764 23 29.6895C23 28.2025 24.2054 26.9971 25.6924 26.9971H62.3076ZM62 7.97363C63.6569 7.97363 65 9.31678 65 10.9736V20.9736C65 22.6305 63.6569 23.9736 62 23.9736H26C24.3431 23.9736 23 22.6305 23 20.9736V10.9736C23 9.31678 24.3431 7.97363 26 7.97363H62Z" fill="#0265E1"/>
<path d="M30.9062 38.1143C31.7346 38.1143 32.4062 38.7859 32.4062 39.6143V44.5928C32.4062 45.4212 31.7346 46.0927 30.9062 46.0928H26.1328C25.3044 46.0928 24.6328 45.4212 24.6328 44.5928V39.6143C24.6328 38.7858 25.3044 38.1143 26.1328 38.1143H30.9062ZM28.6738 13.0332C29.0738 12.5463 29.8196 12.5464 30.2197 13.0332L36.2881 20.4209L40.751 14.7842C41.1513 14.2785 41.9189 14.2785 42.3193 14.7842L49.6142 23.999H26.0137C23.4801 23.999 22.0871 21.0525 23.6953 19.0947L28.6738 13.0332ZM61.0039 10.0068C62.1063 10.0069 63 10.9005 63 12.0029C63 13.1053 62.1063 13.999 61.0039 13.999C59.9015 13.999 59.0078 13.1053 59.0078 12.0029C59.0078 10.9005 59.9015 10.0068 61.0039 10.0068Z" fill="#FCFDFF"/>
</svg>
