<?xml version="1.0" encoding="utf-8"?>
<!-- Generator: Adobe Illustrator 23.0.2, SVG Export Plug-In . SVG Version: 6.00 Build 0)  -->
<svg version="1.1" id="Layer_1" xmlns="http://www.w3.org/2000/svg" xmlns:xlink="http://www.w3.org/1999/xlink" x="0px" y="0px"
	 viewBox="0 0 800 800" style="enable-background:new 0 0 800 800;" xml:space="preserve">
<style type="text/css">
	.st0{fill:#FABF4D;}
	.st1{fill:#263357;}
	.st2{fill:#F2B01F;}
	.st3{clip-path:url(#SVGID_2_);}
	.st4{clip-path:url(#SVGID_2_);fill:#D4912E;}
	.st5{clip-path:url(#SVGID_4_);}
	.st6{fill:#EBF2FF;}
	.st7{clip-path:url(#SVGID_4_);fill:#4088DA;}
</style>
<g>
	<g>
		<path class="st0" d="M751.4,338.3c0-26.5-21.5-47.9-47.9-47.9H86.6c-26.5,0-47.9,21.5-47.9,47.9v399.1c0,26.5,21.5,47.9,47.9,47.9
			h616.9c26.5,0,47.9-21.5,47.9-47.9V338.3z"/>
		<path class="st1" d="M708.4,795.2H91.6c-34.6,0-62.8-28.2-62.8-62.8V333.3c0-34.6,28.2-62.8,62.8-62.8h616.9
			c34.6,0,62.8,28.2,62.8,62.8v399.1C771.2,767.1,743,795.2,708.4,795.2z M91.6,300.3c-18.2,0-33.1,14.8-33.1,33.1v399.1
			c0,18.2,14.8,33.1,33.1,33.1h616.9c18.2,0,33.1-14.8,33.1-33.1V333.3c0-18.2-14.8-33.1-33.1-33.1H91.6z"/>
	</g>
	<path class="st2" d="M709.2,310.2h-7.3v382.6c0,17.3-19.8,23.2-37.1,23.2H68.4v21.1c0,17.2,10,28.4,27.3,28.4h613.5
		c17.3,0,32.3-11.1,32.3-28.4V345.3C741.5,328,726.4,310.2,709.2,310.2z"/>
	<path class="st1" d="M583,727.9H371.2c-7.7,0-13.9-6.2-13.9-13.9c0-7.7,6.2-13.9,13.9-13.9H583c7.7,0,13.9,6.2,13.9,13.9
		C596.9,721.7,590.7,727.9,583,727.9z"/>
	<path class="st1" d="M676.7,727.9h-29.3c-7.7,0-13.9-6.2-13.9-13.9c0-7.7,6.2-13.9,13.9-13.9h29.3c7.7,0,13.9,6.2,13.9,13.9
		C690.6,721.7,684.4,727.9,676.7,727.9z"/>
	<g>
		<path class="st1" d="M55.1,692.9c-5,0-9.9-2.7-12.3-7.5c-3.5-6.8-0.8-15.2,6-18.7l282.6-145.9c1.3-0.8,44.1-24.8,81.9-22.8
			c39,2.1,63.9,13.8,74.5,18.9c71.6,34,273,144.3,275.1,145.4c6.7,3.7,9.2,12.1,5.5,18.8c-3.7,6.7-12.1,9.2-18.8,5.5
			c-2-1.1-202.8-111-273.6-144.6c-9.9-4.7-30.5-14.4-64.1-16.2c-24.8-1.4-56.9,13.6-67.2,19.5L61.5,691.4
			C59.4,692.4,57.3,692.9,55.1,692.9z"/>
	</g>
	<g>
		<path class="st1" d="M59.8,315.5L41.2,295L314.1,46.6c1.9-1.7,40.7-34.5,85-37.3c36.4-2.4,63.1,16.4,75.9,25.5l3.5,2.4
			C549,84.5,745.5,284.6,753.9,293l-19.8,19.4c-2-2.1-202.8-206.5-271-252.3c-1.2-0.8-2.5-1.7-4-2.8c-11.8-8.3-31.5-22.2-58.1-20.5
			c-35.2,2.3-68.1,30.2-68.4,30.5L59.8,315.5z"/>
	</g>
	<path class="st1" d="M319.3,545.2c-2.6,0-5.3-0.7-7.6-2.3l-266-175.5c-6.4-4.2-8.1-12.8-3.9-19.2c4.2-6.4,12.8-8.2,19.2-3.9
		l266,175.5c6.4,4.2,8.1,12.8,3.9,19.2C328.2,543,323.8,545.2,319.3,545.2z"/>
	<path class="st1" d="M493.9,549.8c-4.5,0-8.9-2.2-11.6-6.3c-4.2-6.4-2.4-15,4-19.2l257.7-169c6.4-4.2,15-2.4,19.2,4
		c4.2,6.4,2.4,15-4,19.2l-257.7,169C499.1,549.1,496.5,549.8,493.9,549.8z"/>
	<g>
		<defs>
			<path id="SVGID_1_" d="M340.3,519.6c1.2-0.7,43.4-24.8,82.5-21.2c32.9,3,59.5,15.3,69.4,22.2c2,1.4,249.3-164.6,249.3-164.6
				l-1.4-338.1L81.7,9.5L57.3,342.3l273.3,182L340.3,519.6z"/>
		</defs>
		<clipPath id="SVGID_2_">
			<use xlink:href="#SVGID_1_"  style="overflow:visible;"/>
		</clipPath>
		<g class="st3">
			<rect x="306" y="435.1" class="st1" width="188.1" height="29.7"/>
		</g>
		<path class="st4" d="M721.1,299c-33.9-26.4-132.4-136.7-200.4-193.6c-1.1-0.9-53.2-42.7-63.1-49.5c-12-8.3-31.1-20.9-58.2-19.2
			C363.7,39,331,68.6,330.7,68.9c0,0-191.2,170.8-259.2,237.6c-11.9,11.7-12.4,29.7-12.4,29.7v415.7H752l-9.9-418.2
			C742.1,333.7,743.4,316.4,721.1,299z"/>
	</g>
	<g>
		<defs>
			<path id="SVGID_3_" d="M346.8,516.2c1.2-0.7,36.2-20,74.9-17.9c39.7,2.1,59.2,18.4,69.9,23.5c1.4,0.6,231.7-153.9,231.7-153.9
				L721.9,33L86.5,13.2l-8.2,345.2l252.4,166.4L346.8,516.2z"/>
		</defs>
		<clipPath id="SVGID_4_">
			<use xlink:href="#SVGID_3_"  style="overflow:visible;"/>
		</clipPath>
		<g class="st5">
			<rect x="117.9" y="161.7" class="st6" width="574.1" height="564.2"/>
			<path class="st1" d="M697,735.8H122.8c-8.2,0-14.8-6.6-14.8-14.8V156.7c0-8.2,6.6-14.8,14.8-14.8H697c8.2,0,14.8,6.6,14.8,14.8
				V721C711.8,729.2,705.2,735.8,697,735.8z M137.7,706.1h544.4V171.6H137.7V706.1z"/>
		</g>
		<g class="st5">
			<rect x="207" y="369.6" class="st1" width="386" height="29.7"/>
		</g>
		<g class="st5">
			<rect x="355.5" y="300.3" class="st1" width="237.6" height="29.7"/>
		</g>
		<g class="st5">
			<rect x="306" y="438.9" class="st1" width="188.1" height="29.7"/>
		</g>
		<g class="st5">
			<rect x="355.5" y="231" class="st1" width="237.6" height="29.7"/>
		</g>
		<rect x="207" y="231" class="st7" width="108.9" height="99"/>
	</g>
</g>
</svg>
