<svg xmlns="http://www.w3.org/2000/svg" width="96" height="96" fill="none" viewBox="0 0 96 96"><path fill="var(--tutor-visual-gray-2, #ececed)" stroke="var(--tutor-visual-gray-3, #cecfd2)" stroke-dasharray="2.65 2.65" stroke-width=".66" d="M72 50.428a4.55 4.55 0 0 1-1.406 3.276A4.9 4.9 0 0 1 67.2 55.06H35.587a4.9 4.9 0 0 0-3.393 1.357l-5.285 5.1c-.238.23-.542.387-.873.45-.33.064-.673.031-.984-.093a1.7 1.7 0 0 1-.765-.606 1.6 1.6 0 0 1-.287-.913V22.633c0-1.23.506-2.407 1.406-3.276A4.9 4.9 0 0 1 28.8 18h38.4a4.9 4.9 0 0 1 3.394 1.357A4.55 4.55 0 0 1 72 22.633z"/><ellipse cx="48" cy="75" fill="var(--tutor-visual-gray-2, #ececed)" rx="24" ry="3"/><path stroke="var(--tutor-visual-gray-3, #cecfd2)" stroke-linecap="round" stroke-linejoin="round" stroke-width="2" d="M31.273 30.77h31.454M31.273 37.606h22.784"/></svg>