<svg xmlns="http://www.w3.org/2000/svg" width="48" height="48" fill="none" viewBox="0 0 48 48"><path fill="var(--tutor-visual-gray-1, #ffffff)" d="M1.746 43.818a.137.137 0 0 1-.185-.185L14.21 18.986l12.139 12.139z"/><path fill="#6b84ff" d="M1.825 44.155a.482.482 0 0 1-.602-.601l.032-.079L14.12 18.41l12.804 12.804-25.02 12.908zm23.949-13.12L14.3 19.562 2.16 43.218z"/><path fill="var(--tutor-visual-gray-1, #ffffff)" d="M14.557 18.81c.587-.588 3.611 1.484 6.754 4.628 3.144 3.143 5.216 6.167 4.628 6.754-.587.588-3.611-1.484-6.754-4.628-3.144-3.143-5.216-6.167-4.628-6.754"/><path fill="#6b84ff" d="M14.557 18.81c-.587.588 1.485 3.612 4.628 6.755s6.167 5.215 6.755 4.628c.196-.196.093-.665-.247-1.321q.023.006.027.005s-.005-.003-.028-.006c-.676-1.304-2.29-3.342-4.38-5.433-3.144-3.143-6.168-5.215-6.755-4.627m-.41-.409c.31-.336.667-.34.88-.352.228-.003.42.026.591.056.351.068.659.166.955.274 2.319.904 4.173 2.339 5.83 3.968 1.026 1.03 2 2.106 2.908 3.274.454.588.89 1.192 1.298 1.868.203.341.4.693.581 1.126.09.22.18.458.246.796.03.165.061.374.038.662a1.8 1.8 0 0 1-.52 1.135 1.8 1.8 0 0 1-1.136.506 2.3 2.3 0 0 1-.655-.05 3.8 3.8 0 0 1-.78-.27 8 8 0 0 1-1.092-.623 19 19 0 0 1-1.79-1.374 35 35 0 0 1-3.104-3.045c-1.534-1.721-2.986-3.494-4.077-5.634a6 6 0 0 1-.355-.887 2.6 2.6 0 0 1-.108-.557c-.006-.204-.029-.547.29-.873M9.154 28.929s-.999 2.736 0 6.156c.989 3.388 2.379 3.804 2.404 3.812l-3.062 1.46c-.007-.006-.996-.74-1.665-3.154-.665-2.402.126-4.083.14-4.112zm4.34-8.122s-1.536 2.885 0 9.926c1.141 5.228 2.594 5.497 3.267 5.29l-3.7 1.98c-.005-.006-1.334-1.759-2.001-6.493-.664-4.71.309-6.71.322-6.738zM33.54 24.48a.405.405 0 0 1-.292.491c-.835.212-1.77.192-2.605.08a10.7 10.7 0 0 1-2.128-.513.405.405 0 0 1 .277-.761c.467.17 1.18.366 1.96.47.782.106 1.601.116 2.296-.06a.405.405 0 0 1 .493.292"/><path fill="#cd74ff" d="M17.426 14.21a.405.405 0 1 1 .765.265c-.123.354-.183.541-.19.728-.006.168.034.372.206.726.443.911.732 1.995.425 3.212a.405.405 0 0 1-.785-.199c.245-.968.025-1.85-.368-2.66-.204-.419-.299-.758-.287-1.108.012-.331.122-.64.234-.963"/><path fill="#6b84ff" d="M20.296 11.819a.73.73 0 1 1-1.033-1.033.73.73 0 0 1 1.033 1.033"/><path fill="#ffa900" d="M24.422 22.758a.73.73 0 1 1-1.033-1.033.73.73 0 0 1 1.033 1.033"/><path fill="#00ac47" d="M9.25 6.276c-.333.612-.439 1.305-.267 1.879.17.576.602.986 1.175 1.187.183.056.356.115.534.184 3.19 1.078 5.457 5.239 4.71 9.482a9 9 0 0 1-.153.698q.196-.301.367-.625c2.053-3.8 1.654-9.694-2.604-13.172a12 12 0 0 0-.695-.543c-.481-.37-1.06-.51-1.637-.338-.574.169-1.098.636-1.43 1.248M37.775 15.128a1.277 1.277 0 1 1-1.806-1.806 1.277 1.277 0 0 1 1.806 1.806"/><path fill="#2d8cff" d="M36.34 26.249a1.277 1.277 0 1 1-1.805-1.806 1.277 1.277 0 0 1 1.805 1.806"/><path fill="#f50" d="M28.127 13.553a1.04 1.04 0 1 1-1.471-1.471 1.04 1.04 0 0 1 1.471 1.471M25.416 17.96a.637.637 0 0 0-.722-.465l-.032.005a.89.89 0 0 0-.667.546 1 1 0 0 0-.05.53c.098.563.077.887.028 1.06a.3.3 0 0 1-.057.126.1.1 0 0 1-.022.015c-.036.014-.133.03-.336-.003-.192-.033-.397-.094-.626-.164l-.01-.002a2.4 2.4 0 0 0-.711-.122 1.04 1.04 0 0 0-.677.229.9.9 0 0 0-.293.52c-.026.136-.023.271-.023.338.002.14-.014.662-.175 1.038-.08.187-.156.242-.184.255-.009.004-.029.012-.077.008a.9.9 0 0 1-.294-.093c-.663-.317-1.285-.46-1.78-.235-.543.248-.617.767-.587 1.06.044.518-.018.823-.093.99-.067.147-.143.19-.203.212-.082.028-.213.038-.396 0l1 1.058c.328-.155.592-.42.759-.79.172-.382.234-.859.199-1.428.117.024.294.08.544.2.51.243 1.025.305 1.484.096.43-.195.665-.566.796-.872.211-.492.257-1.06.266-1.347l.074.021c.21.064.506.155.802.205.289.048.672.074 1.035-.07.406-.159.678-.484.803-.924.107-.378.108-.848.021-1.415a.57.57 0 0 0 .204-.583"/><path fill="#ffa900" d="M45.452 21.14c-.412.56-.994.953-1.585 1.043-.594.092-1.15-.124-1.576-.557a8 8 0 0 0-.394-.403c-2.337-2.425-7.067-2.699-10.585-.212a9 9 0 0 0-.567.437q.19-.305.409-.6c2.56-3.478 8.06-5.634 13.023-3.268.271.125.526.252.788.397.54.277.914.741 1.004 1.335.093.592-.105 1.265-.517 1.827"/><path fill="#f50" d="M38.326 22.17a.67.67 0 0 1-.427.271.54.54 0 0 1-.446-.137 4 4 0 0 0-.218-.185c-1.317-1.11-3.564-1.013-5.095.223a4 4 0 0 0-.247.216q.096-.135.203-.261c1.267-1.51 3.727-2.278 5.769-1.184.112.059.218.117.326.183a.54.54 0 0 1 .265.385.67.67 0 0 1-.13.488M23.687 4.272c-.127.13-.201.3-.2.466a.54.54 0 0 0 .21.418q.111.088.217.184c1.31 1.119 1.58 3.352.61 5.063a4 4 0 0 1-.173.28q.116-.117.224-.244c1.283-1.495 1.64-4.047.229-5.884a5 5 0 0 0-.234-.292.54.54 0 0 0-.423-.2.67.67 0 0 0-.46.21"/><path fill="#2d8cff" d="m27.467 19.013-.071.996a.18.18 0 0 1-.055.116l-.67.648a.18.18 0 0 0 .07.3l.672.216a.18.18 0 0 1 .108.098l.421.95a.18.18 0 0 0 .316.023l.46-.732a.18.18 0 0 1 .139-.083l.884-.066a.18.18 0 0 0 .137-.277l-.386-.592a.18.18 0 0 1-.027-.124l.188-1.275a.18.18 0 0 0-.25-.19l-.79.35a.18.18 0 0 1-.175-.016l-.69-.477a.18.18 0 0 0-.281.135"/><path fill="#fffa32" d="m29.924 14.181-.033.486a.18.18 0 0 1-.05.113l-.316.325a.18.18 0 0 0 .07.295l.274.094a.18.18 0 0 1 .108.1l.185.443a.18.18 0 0 0 .32.023l.183-.31a.18.18 0 0 1 .14-.086l.382-.03a.18.18 0 0 0 .138-.273l-.166-.27a.18.18 0 0 1-.025-.12l.093-.666a.18.18 0 0 0-.254-.187l-.312.146a.18.18 0 0 1-.182-.017l-.27-.198a.18.18 0 0 0-.285.132"/><path fill="#6b84ff" d="M39.419 33.67c-.556.42-1.226.628-1.819.544-.595-.081-1.064-.448-1.349-.985a8 8 0 0 0-.262-.5c-1.542-2.994-5.995-4.613-10.079-3.241a9 9 0 0 0-.668.256q.27-.237.563-.456c3.452-2.597 9.339-3.085 13.414.606.224.198.432.393.64.607.44.42.664.972.58 1.567-.082.593-.465 1.182-1.02 1.602"/><path fill="#fffa32" d="M24.223 23.257c.867-.157 1.589-.054 2.088.235.506.293.782.785.686 1.336a.265.265 0 0 1-.521-.09c.051-.295-.08-.586-.43-.788-.359-.208-.944-.315-1.73-.173-1.324.24-1.85.78-1.996 1.27a1 1 0 0 1 .424-.014c.353.068.633.318.814.58.179.26.298.588.275.871a.6.6 0 0 1-.2.422.63.63 0 0 1-.494.129c-.569-.067-1.055-.499-1.272-1.05a1 1 0 0 0-.19.214c-.078.125-.093.234-.04.339a.264.264 0 1 1-.473.236.8.8 0 0 1-.029-.669q.04-.1.095-.188c.125-.2.305-.355.445-.449l.07-.074v-.092c.031-.898.774-1.737 2.478-2.045m-1.578 2.296a.48.48 0 0 0-.34.068c.109.468.494.84.896.888.06.007.083-.002.089-.006.003-.003.013-.02.016-.062.01-.122-.048-.33-.184-.528-.135-.196-.31-.328-.477-.36M20.01 13.704l.9.946a.15.15 0 0 1 .042.103l-.041 1.815a.359.359 0 0 0 .56.305l1.203-.817c.1-.067.226-.08.337-.035l1.069.434a.36.36 0 0 0 .493-.35l-.082-1.724a.36.36 0 0 1 .048-.198l.896-1.538a.36.36 0 0 0-.3-.54l-1.376-.037a.36.36 0 0 1-.288-.16l-.712-1.067a.359.359 0 0 0-.633.069l-.604 1.545a.36.36 0 0 1-.203.203l-1.181.465a.36.36 0 0 0-.129.581"/></svg>