<svg xmlns="http://www.w3.org/2000/svg" width="168" height="175" fill="none"><path fill="var(--tutor-visual-brand-1, #4979e8)" d="M109.16 150.2a4.56 4.56 0 0 1 1.926-.647l-2.233-7.393 50.016-11.543c-10.536 7.557-8.212 6.894-44.766 28.919l-.003-.006a4.56 4.56 0 0 1-2.656.537c-42.13-1.664-40.471-1.097-53.498-1.901l49.128-15.703z"/><path fill="var(--tutor-visual-gray-1, #ffffff)" d="M59.303 154.846c29.104-7.509 42.883-4.561 52.255 2.146a.76.76 0 0 0 1.129-.292c4.939-10.443 14.628-19.402 43.735-26.912a3.85 3.85 0 0 0 2.358-1.782 3.89 3.89 0 0 0 .409-2.937l-17.423-67.585a3.89 3.89 0 0 0-1.776-2.379 3.84 3.84 0 0 0-2.928-.412c-28.758 7.558-41.24 17.88-42.622 32.144-.073.763-1.218 1.058-1.651.426-8.105-11.817-24.02-14.81-52.846-7.512a3.83 3.83 0 0 0-2.363 1.778 3.87 3.87 0 0 0-.404 2.94l17.307 67.133c.597 2.319 2.513 3.839 4.82 3.244"/><path fill="var(--tutor-visual-brand-1, #4979e8)" d="M39.047 76.208c16.386-3.585 38.775-9.302 53.222 5.499 5.66-19.822 27.935-25.374 44.013-30.006a6.55 6.55 0 0 1 5.028.744 6.68 6.68 0 0 1 3.024 4.1 20415 20415 0 0 1 16.882 68.187 6 6 0 0 1-.65 4.503 5.83 5.83 0 0 1-3.594 2.685c-11.19 2.817-22.466 6.182-31.816 12.612-4.787 3.323-8.711 7.72-11.234 13.019-.504 1.129-2.049 1.513-3.016.77-5.229-3.48-11.333-5.104-17.52-5.42-11.127-.523-22.327 2.035-33.285 5.034-1.73.517-4.024.186-5.595-.995-1.597-1.151-2.514-2.793-2.947-4.4a2283 2283 0 0 1-9.464-35.526c-2.746-10.654-5.485-21.31-8.21-31.956a7.35 7.35 0 0 1-.172-2.841 7.3 7.3 0 0 1 .922-2.682 7.108 7.108 0 0 1 4.411-3.327m97.944-21.798c-28.758 7.56-41.23 17.923-42.589 32.27-.073.768-1.216 1.063-1.651.427-8.126-11.9-24.054-14.937-52.879-7.639a3.84 3.84 0 0 0-2.36 1.786 3.929 3.929 0 0 0-.4 2.957l17.416 67.563c.602 2.333 2.52 3.865 4.827 3.27 29.104-7.509 42.894-4.522 52.28 2.24a.758.758 0 0 0 1.129-.293c4.925-10.498 14.604-19.495 43.71-27.005a3.84 3.84 0 0 0 2.356-1.788 3.93 3.93 0 0 0 .405-2.955L141.7 57.225a3.889 3.889 0 0 0-1.778-2.395 3.84 3.84 0 0 0-2.931-.42"/><path fill="var(--tutor-visual-brand-2, #a4bcf4)" d="M45.726 91.287a51 51 0 0 1 1.989-.556c7.517-1.866 15.33-3.173 23.084-1.821 4.247.844 8.481 1.935 12.34 3.873.591.309 1.167.63 1.696 1.025-.565-.34-1.166-.596-1.78-.841-3.995-1.52-8.24-2.158-12.471-2.56-7.375-.532-14.776 1.479-21.72 3.982-.59.22-1.234.468-1.757.69a1.86 1.86 0 0 1-1.525-.017 2.1 2.1 0 0 1-1.06-1.186 2.1 2.1 0 0 1 .048-1.592c.225-.486.644-.84 1.156-.997M51.319 99.719c7.435-1.911 15.18-3.061 22.872-1.98 6.717 1.04 13.078 3.424 18.942 6.555.7.378 1.39.768 2.05 1.176a42 42 0 0 0-2.138-.994c-6.085-2.61-12.558-4.402-19.06-4.841-7.3-.403-14.646 1.328-21.527 3.745-.714.258-1.46.538-2.101.808a1.89 1.89 0 0 1-1.528-.015 2.08 2.08 0 0 1-1.066-1.171 2.08 2.08 0 0 1 .038-1.583 1.89 1.89 0 0 1 1.146-1.013 49 49 0 0 1 2.372-.687"/><path fill="var(--tutor-visual-brand-1, #4979e8)" d="M42.656 78.77c-4.622 1.192-3.628 3.496-3.269 5.695.36 2.204 13.915 53.976 16.59 64.354s29.721-12.766 55.445 8.09l-40.284-.933-15.83-.211-19.806-73.814 2.248-3.836z"/><path fill="var(--tutor-visual-brand-1, #4979e8)" fill-rule="evenodd" d="M99.61 24.144a.661.661 0 0 1 .754 1.087l-1.087.754 4.015 5.79 7.127 2.194a2.65 2.65 0 0 1 1.66 3.576 2.64 2.64 0 0 1-.927 1.131l-9.586 6.649a2.647 2.647 0 0 1-4.152-2.337l.443-7.444-4.015-5.79-1.087.754A.662.662 0 0 1 92 29.421z" clip-rule="evenodd"/><circle cx="93.677" cy="24.239" r="1.693" fill="var(--tutor-visual-brand-1, #4979e8)" transform="rotate(-34.742 93.677 24.239)"/><circle cx="93.984" cy="17.417" r="2.833" fill="var(--tutor-visual-brand-1, #4979e8)" transform="rotate(-34.742 93.984 17.417)"/><path fill="var(--tutor-visual-brand-1, #4979e8)" d="M128.966 17.245a1.513 1.513 0 0 1 .439-2.099 1.515 1.515 0 1 1-.439 2.099m1.724-4.75a1.52 1.52 0 0 1 .439-2.1 1.518 1.518 0 0 1 2.314 1.58 1.516 1.516 0 0 1-2.753.52m-2.765-4.23a1.514 1.514 0 0 1 .439-2.1 1.515 1.515 0 1 1-.439 2.1m-5.044-.326a1.52 1.52 0 0 1 .44-2.099 1.515 1.515 0 0 1 2.313 1.58 1.516 1.516 0 0 1-2.753.519m10.656-.325a9.095 9.095 0 0 0-12.592-2.636 9.096 9.096 0 0 0-2.635 12.592 1.514 1.514 0 0 0 2.098.44c.33-.216.543-.537.631-.884.101-.344.314-.664.635-.874a1.52 1.52 0 0 1 2.099.439l.979 1.497a5.054 5.054 0 0 0 6.995 1.465c3.74-2.445 4.539-7.835 1.79-12.04M.176 59.58a.2.2 0 0 1 .09-.193c2.13-1.36 8.185-1.169 12.084.745q1.043.507 1.982 1.187c.87-.386 1.788-.625 2.666-.553 2.48.213 3.952 2.474 4.49 3.48a.404.404 0 0 1-.266.586l-3.592.8q.13.393.22.797a.82.82 0 0 1-.064.553l-.884 1.795a.82.82 0 0 1-.399.388 8 8 0 0 1-.76.313l1.56 3.327a.405.405 0 0 1-.302.57c-1.121.192-3.815.411-5.494-1.422-.594-.65-.967-1.52-1.194-2.438a13.3 13.3 0 0 1-2.156-.842C4.25 66.767.449 62.208.176 59.58m9.709 4.639a2.01 2.01 0 1 0-3.608-1.774 2.01 2.01 0 0 0 3.608 1.774"/><path fill="var(--tutor-visual-brand-1, #4979e8)" d="M17.323 69.714c.292.144.67.11 1.113.04.998-.162 1.552-1.26 1.058-2.155-.188-.34-.552-.78-.712-.859a.183.183 0 0 1 .044-.344 2.5 2.5 0 0 1 1.625.203c1.25.615 2.52 4.046 2.52 4.046s-3.494 1.094-4.745.48a2.5 2.5 0 0 1-1.154-1.163c-.072-.16.096-.328.251-.248M159.625 32.59c-3.421 1.728-6.715 7.026-6.647 8.94.129 3.635.883 5.996-.651 8.06-1.023 1.375-3.244 2.928-5.642 3.28l-.512.688-6.878-5.112.511-.688c-.353-2.398.493-4.973 1.516-6.349 1.534-2.063 4.013-2.022 7.529-2.946 1.854-.487 5.978-5.168 6.647-8.941 2.575.846 2.575.846 4.127 3.067"/><path fill="var(--tutor-visual-brand-1, #4979e8)" fill-rule="evenodd" d="M149.325 54.507a.353.353 0 0 0-.632-.202l-.916 1.185-1.496.06a.353.353 0 0 0-.201.631l1.185.916.059 1.495c.014.33.431.463.632.202l.915-1.185 1.496-.06a.353.353 0 0 0 .202-.631l-1.185-.916zM63.302 34.66a1.184 1.184 0 0 0-1.385.911L58.95 48.953a4.753 4.753 0 1 0 1.43 4.534l2.525-11.392 5.403 2.179a1.188 1.188 0 0 0 1.604-.845l1.03-4.64a1.19 1.19 0 0 0-.717-1.359l-6.682-2.695a1.2 1.2 0 0 0-.24-.074M73.27 33.091a.34.34 0 0 0-.64 0l-.493 1.356-1.356.493a.34.34 0 0 0 0 .64l1.356.492.493 1.356a.34.34 0 0 0 .64 0l.493-1.356 1.355-.493a.34.34 0 0 0 0-.639l-1.355-.493zM29.492 77.886a.439.439 0 0 0-.746-.352l-1.322 1.311-1.853-.17a.439.439 0 0 0-.352.746l1.31 1.321-.17 1.854a.439.439 0 0 0 .746.351l1.322-1.31 1.853.17a.439.439 0 0 0 .352-.746l-1.31-1.321zM44.534 12.7c.622.02 1.288.202 1.8.722.787.79.804 1.904.624 2.82-.188.962-.652 2.051-1.288 3.18a25 25 0 0 1-1.18 1.89 8.535 8.535 0 0 1-4.158 9.691 8.63 8.63 0 0 1-6.225.776 25 25 0 0 1-2 1.252c-1.138.632-2.233 1.09-3.199 1.273-.921.175-2.037.15-2.824-.637-.518-.52-.706-1.193-.726-1.826-.018-.627.12-1.299.341-1.97.421-1.258 1.214-2.72 2.27-4.252a8.534 8.534 0 0 1 10.408-10.372c1.528-1.012 2.987-1.797 4.236-2.211.652-.217 1.307-.352 1.921-.335m-3.592 3.69q.21.138.417.294l.005.003.7.534c-1.18 1.994-3.065 4.39-5.416 6.77-2.312 2.338-4.667 4.202-6.644 5.377l-.576-.714-.017-.022a9 9 0 0 1-.323-.46c-.555.924-.95 1.75-1.179 2.435-.174.523-.233.908-.223 1.163a.6.6 0 0 0 .043.248c.036.019.22.098.745 0 .624-.12 1.473-.45 2.503-1.023a22 22 0 0 0 1.795-1.122c1.689-1.199 3.495-2.738 5.254-4.52 1.76-1.781 3.295-3.595 4.494-5.286q.648-.939 1.12-1.782c.578-1.029.913-1.873 1.035-2.492.101-.516.025-.698.007-.73a.6.6 0 0 0-.218-.035c-.239-.008-.608.047-1.117.217-.676.224-1.49.61-2.405 1.144M48.452 7.835a.265.265 0 0 0-.498 0l-.385 1.057-1.058.385a.265.265 0 0 0 0 .499l1.058.384.385 1.058a.265.265 0 0 0 .498 0l.385-1.058 1.058-.384a.265.265 0 0 0 0-.499l-1.058-.385z" clip-rule="evenodd"/></svg>