<svg xmlns="http://www.w3.org/2000/svg" width="80" height="80" fill="none" viewBox="0 0 80 80"><path fill="var(--tutor-visual-brand-1, #4979e8)" d="M23.831 17.632c.411-.107.767.077 1.073.317.306.239.662.612 1.095 1.065l.228.24c.276.289.338.342.403.369.045.019.098.027.285.024l.237-.005.32-.01c.607-.02 1.11-.036 1.489.01.364.045.711.157.937.467l.043.065c.22.355.176.744.056 1.12a8 8 0 0 1-.42.99l-.195.4-.145.294c-.172.355-.2.433-.204.509-.004.078.019.163.156.539l.116.314c.217.595.396 1.083.478 1.467s.093.783-.167 1.112c-.264.335-.653.404-1.04.395-.287-.008-.638-.06-1.049-.132l-.747-.132h-.001c-.385-.07-.457-.074-.517-.058-.061.015-.122.054-.424.301l-.001.001-.25.204c-.472.386-.862.707-1.19.9-.334.197-.708.326-1.101.163-.387-.162-.572-.514-.688-.89s-.196-.89-.296-1.515l-.052-.33-.04-.244c-.034-.194-.054-.254-.084-.303l-.001-.002c-.04-.064-.103-.118-.426-.343l-.27-.188c-.51-.355-.93-.647-1.213-.914-.288-.27-.516-.59-.496-1.006.02-.423.281-.713.597-.943.31-.225.757-.455 1.296-.733l.286-.147.209-.11c.164-.088.206-.122.237-.161.043-.055.071-.13.172-.518l.083-.32.114-.434c.11-.413.21-.761.324-1.03.151-.357.372-.691.783-.798M44.607 24.446c.292.053.464.274.587.516.124.24.24.582.381.996l.075.22c.09.263.114.315.147.351.023.026.054.046.173.1l.152.065.206.088c.39.166.713.303.94.444.218.135.405.308.457.57l.009.054c.035.29-.107.524-.293.727-.138.15-.329.315-.557.504l-.241.196-.178.145c-.214.174-.255.215-.28.261-.025.05-.035.11-.058.388l-.02.233c-.036.441-.066.803-.127 1.07-.06.269-.17.524-.432.656-.266.135-.533.065-.775-.055a5 5 0 0 1-.626-.39l-.435-.304-.001-.001c-.223-.157-.268-.18-.31-.188-.044-.008-.094-.002-.357.067h-.001l-.218.056c-.413.106-.755.195-1.02.221-.269.027-.543 0-.745-.22-.198-.216-.211-.493-.174-.766.037-.272.136-.621.257-1.047l.064-.225.046-.166c.035-.133.04-.177.035-.217v-.001c-.006-.053-.03-.105-.17-.342l-.115-.199c-.219-.375-.4-.683-.5-.936-.104-.256-.155-.524-.02-.783.137-.262.388-.369.656-.422.262-.052.613-.066 1.036-.084l.224-.01.165-.008c.13-.008.167-.017.198-.033.043-.021.083-.061.26-.277l.147-.179.2-.241c.19-.23.357-.42.508-.558.2-.182.438-.329.73-.276M26.025 28.667c-.18.236-.157.515-.086.777.072.261.216.591.392.992l.092.212c.112.256.13.31.13.36 0 .034-.01.07-.062.19l-.067.15-.093.204c-.176.386-.323.705-.395.962-.07.247-.091.5.048.73l.03.045c.169.238.432.314.706.339.204.018.455.01.751-.004l.31-.018.23-.013c.274-.016.332-.013.382.005.052.019.1.056.305.246l.171.16c.325.3.59.547.817.704s.479.27.76.192c.288-.08.438-.312.536-.564.073-.186.133-.426.198-.71l.117-.518v-.001c.059-.266.076-.314.102-.349s.068-.063.308-.19l.001-.001.2-.106c.375-.2.687-.365.901-.524.217-.162.4-.368.401-.666 0-.293-.176-.506-.388-.683-.21-.176-.52-.366-.896-.6l-.199-.122-.146-.092c-.115-.074-.149-.103-.172-.136v-.001c-.031-.043-.049-.098-.107-.367l-.048-.224c-.092-.424-.166-.774-.262-1.029-.097-.258-.24-.49-.514-.59-.278-.102-.535-.012-.769.13-.228.139-.497.365-.822.637l-.172.144-.127.105c-.101.082-.134.1-.168.11-.047.013-.103.01-.38-.03l-.228-.032-.31-.044a6 6 0 0 0-.751-.07c-.272.002-.547.054-.726.29M19.881 32.19c-.138.18-.12.395-.066.597.055.201.167.455.301.764l.072.163c.086.197.1.239.1.276 0 .027-.008.054-.048.147l-.052.116-.072.157c-.135.297-.247.542-.303.74-.054.19-.07.386.037.562l.022.035c.13.183.333.242.544.26.157.015.35.009.578-.003l.24-.013.175-.01c.212-.012.257-.01.295.003.04.015.077.044.235.19l.131.123c.25.231.455.421.629.542.174.12.369.208.586.148.22-.062.336-.24.412-.434.056-.144.102-.329.152-.547l.09-.399c.045-.205.058-.242.079-.269.02-.026.052-.049.237-.147h.001l.153-.082c.29-.154.53-.28.694-.403.167-.125.308-.283.309-.513 0-.225-.136-.39-.299-.525-.162-.136-.4-.282-.69-.462l-.152-.094-.113-.07a.5.5 0 0 1-.133-.105v-.001c-.024-.033-.037-.076-.082-.282l-.037-.173c-.07-.327-.128-.596-.201-.792-.075-.199-.185-.378-.396-.455-.214-.078-.412-.008-.592.1-.176.107-.383.282-.633.491l-.132.11-.098.082c-.078.063-.103.077-.129.084-.036.01-.08.008-.292-.022l-.176-.026-.24-.033a4.4 4.4 0 0 0-.577-.053c-.209 0-.42.04-.559.222M52.363 32.624c.292.053.463.274.587.515.124.242.24.583.381.997l.075.219c.09.264.114.316.147.352.023.025.054.046.173.1l.152.065.206.088c.39.166.713.303.94.444.218.134.405.308.457.57l.009.054c.035.29-.107.523-.293.727-.138.15-.329.315-.558.503l-.24.197-.178.144c-.214.174-.255.215-.28.262-.025.049-.035.11-.058.388l-.02.233c-.036.44-.066.803-.127 1.07-.06.269-.17.524-.432.656-.266.135-.533.065-.775-.055a5 5 0 0 1-.626-.391l-.435-.304h-.001c-.223-.157-.268-.18-.31-.189-.044-.007-.094 0-.358.067l-.219.057c-.412.106-.754.194-1.019.22-.269.028-.544 0-.745-.22-.198-.215-.212-.493-.175-.765.038-.273.137-.621.258-1.047l.063-.225.046-.166c.036-.133.041-.177.036-.217v-.002c-.006-.052-.03-.104-.17-.342l-.115-.198c-.219-.375-.4-.683-.5-.936-.104-.256-.155-.524-.02-.783.137-.262.388-.369.656-.422.262-.052.613-.066 1.036-.084l.224-.01.165-.008c.13-.008.166-.017.198-.033.043-.022.083-.061.26-.277l.147-.179.2-.242c.19-.23.357-.42.507-.557.201-.182.44-.33.731-.276"/><path fill="var(--tutor-visual-brand-1, #4979e8)" d="M19.004 35.086c-1.618.866-2.119 3.814-.647 4.7h36.04c1.473-.886.972-3.834-.646-4.7-.944-.503-2.654-.465-3.641-.09-.347-.753-.898-1.836-1.725-2.277-1.383-.74-3.885-.686-5.338-.135-.292-.438-.5-.907-.877-1.307-1.72-1.819-9.866-1.819-11.586 0-.376.4-.584.87-.876 1.307-1.453-.55-3.955-.605-5.338.135-.828.441-1.378 1.524-1.725 2.277-.987-.375-2.698-.413-3.641.09"/><ellipse cx="41.836" cy="73.731" fill="var(--tutor-visual-brand-1, #4979e8)" rx="21.6" ry="4"/><path fill="var(--tutor-visual-gray-1, #ffffff)" d="M55.15 37.356a.797.797 0 0 0-.788-.908H17.471a.796.796 0 0 0-.789.903l4.677 35.886s.137 2.348 14.478 2.348c14.342 0 14.403-2.348 14.403-2.348z"/><path fill="var(--tutor-visual-brand-1, #4979e8)" d="M54.362 35.258a5687 5687 0 0 0-36.891.565c-.83-.016-1.523.813-1.384 1.605a633 633 0 0 0 3.593 35.309l.092.707-.01-.113c.042.397.07.378.11.516a2.1 2.1 0 0 0 .305.554c.126.169.248.293.366.4.236.212.431.34.637.464.391.23.761.386 1.108.516.703.258 1.366.422 2.028.562 1.33.275 2.606.428 3.896.544 2.565.225 5.075.28 7.626.276 2.539-.01 5.038-.078 7.588-.315 1.278-.122 2.555-.28 3.87-.56.657-.143 1.317-.31 2.01-.57.346-.132.709-.287 1.094-.52.202-.123.394-.253.624-.466.114-.106.235-.233.356-.401a2.2 2.2 0 0 0 .285-.553c.035-.135.063-.12.092-.501l-.014.166a5655 5655 0 0 0 4.601-35.923c.188-1.142-.819-2.303-1.982-2.262m0 1.19c.485 0 .854.428.788.908l-4.91 35.881s-.062 2.348-14.402 2.348-14.479-2.348-14.479-2.348l-4.677-35.886a.796.796 0 0 1 .789-.903z"/><path fill="var(--tutor-visual-brand-1, #4979e8)" fill-rule="evenodd" d="m48.3 70.492.22 5.254.013.292c.015.325-.101.615-.361.8-.258.185-.639.25-1.02.186-.38-.063-.72-.248-.903-.507q-.016-.023-.03-.048-.02.018-.042.036c-.257.185-.696.24-1.144.166-.447-.075-.844-.27-1.027-.528-.187-.259-.145-.561.04-.853l.084-.131 1.488-2.361.082-.131.035.15.578 2.447 1.87-4.791.106-.273z" clip-rule="evenodd"/><path fill="var(--tutor-visual-gray-1, #ffffff)" d="M35.143 11.737a4.23 4.23 0 0 0 2.975 5.323c2.331.626 4.78-.742 5.468-3.056l.139-.464a4.23 4.23 0 0 0-2.975-5.323c-2.331-.626-4.78.742-5.468 3.056z"/><path fill="var(--tutor-visual-brand-1, #4979e8)" d="M37.947 17.635c.501.203 1.05.326 1.616.352 2.177.134 4.532-1.365 5.311-3.637q.087-.228.17-.456c1.114-2.868-.725-6.462-3.837-7.21-3.064-.91-6.613 1.237-7.245 4.234l-.106.473c-.589 2.323.592 4.772 2.52 5.74a4.8 4.8 0 0 0 1.571.504m.171-.575a4.23 4.23 0 0 1-2.974-5.323l.138-.464c.689-2.314 3.137-3.682 5.468-3.056a4.23 4.23 0 0 1 2.975 5.323l-.138.464c-.689 2.314-3.137 3.682-5.469 3.056"/><path fill="var(--tutor-visual-gray-1, #ffffff)" d="M18.492 7.236a.775.775 0 0 1 .959-.572l40.003 10.658c.426.114.69.554.587.984l-1.37 5.74c-.102.422-.511.68-.933.578-2.852-.687-13.196-3.193-20.035-5.035-6.843-1.842-17.177-4.819-20.018-5.64a.82.82 0 0 1-.563-.976z"/><path fill="var(--tutor-visual-brand-1, #4979e8)" d="M43.89 11.52q7.968 2.123 15.924 4.293c1.218.298 2.039 1.683 1.719 2.89q-.704 2.865-1.413 5.73c-.243 1.153-1.53 1.966-2.693 1.648-6.682-1.68-13.36-3.405-20.012-5.298-6.677-1.925-13.316-3.97-19.935-6.048-.82-.224-1.336-1.18-1.114-1.964l.557-2.1q.477-1.8.957-3.599c.172-.745.997-1.212 1.71-.992l-.14.584a.775.775 0 0 0-.958.572l-1.37 5.737a.82.82 0 0 0 .564.976c2.841.821 13.175 3.798 20.018 5.64 6.839 1.841 17.182 4.348 20.034 5.035a.77.77 0 0 0 .932-.578l1.37-5.74a.825.825 0 0 0-.586-.984L19.45 6.664l.14-.584q2.452.447 4.896.932a310 310 0 0 1 19.404 4.509"/><path fill="var(--tutor-visual-brand-1, #4979e8)" fill-rule="evenodd" d="M55.72 15.336c.37.104.688.325.842.602q.013.026.024.051l.046-.03c.276-.156.718-.162 1.155-.04.436.124.81.36.964.638.157.278.082.574-.135.844l-.097.12-1.738 2.185-.096.12-.019-.152-.307-2.497-2.383 4.559-.135.259.02-.292.358-5.246.02-.292c.02-.325.168-.6.447-.755.276-.156.662-.18 1.033-.074" clip-rule="evenodd"/></svg>