<svg width="80" height="80" viewBox="0 0 80 80" fill="none" xmlns="http://www.w3.org/2000/svg">
<rect width="80" height="80.0009" fill="none"/>
<ellipse cx="45.2064" cy="72.6312" rx="21.6" ry="4" fill="#6B84FF"/>
<rect x="43.1221" y="25.225" width="10.8126" height="13.7326" rx="0.666674" transform="rotate(14.8125 43.1221 25.225)" fill="#6B84FF"/>
<path d="M40.2296 26.7979L41.4149 43.1299L26.4144 44.2186L25.0906 25.9795C25.0375 25.2451 25.5903 24.6067 26.3246 24.5534L35.339 23.8992L40.2296 26.7979Z" fill="#6B84FF"/>
<path d="M37.555 27.7675C36.7611 28.0594 35.8996 27.5477 35.7759 26.711L35.36 23.8967L40.2226 26.7868L37.555 27.7675Z" fill="#B8C3FF"/>
<rect x="35.7871" y="30.1031" width="10.8126" height="13.7326" rx="0.666674" transform="rotate(2.04941 35.7871 30.1031)" fill="#B8C3FF"/>
<mask id="path-6-outside-1_11646_88106" maskUnits="userSpaceOnUse" x="18.6445" y="33.3474" width="42" height="44" fill="black">
<rect fill="white" x="18.6445" y="33.3474" width="42" height="44"/>
<path d="M58.5202 36.2558C58.586 35.7754 58.2172 35.3474 57.7322 35.3474C55.3177 35.3474 48.3164 35.3474 39.2074 35.3474C30.1119 35.3474 23.223 35.3474 20.8403 35.3474C20.3574 35.3474 19.9893 35.7719 20.0518 36.2507L24.729 72.1371C24.729 72.1371 24.866 74.4844 39.2074 74.4844C53.5487 74.4844 53.6099 72.1371 53.6099 72.1371L58.5202 36.2558Z"/>
</mask>
<path d="M58.5202 36.2558C58.586 35.7754 58.2172 35.3474 57.7322 35.3474C55.3177 35.3474 48.3164 35.3474 39.2074 35.3474C30.1119 35.3474 23.223 35.3474 20.8403 35.3474C20.3574 35.3474 19.9893 35.7719 20.0518 36.2507L24.729 72.1371C24.729 72.1371 24.866 74.4844 39.2074 74.4844C53.5487 74.4844 53.6099 72.1371 53.6099 72.1371L58.5202 36.2558Z" fill="white"/>
<path d="M19.308 36.3477C19.8039 36.2831 20.2997 36.2184 20.7955 36.1538C21.2664 38.4775 21.7208 40.8034 22.1587 43.1315C23.9102 52.4437 25.3974 61.7903 26.62 71.1714C26.6508 71.4072 26.6815 71.6429 26.7122 71.8787L26.7255 72.0206C26.6764 71.5606 26.654 71.6278 26.6199 71.5014C26.5955 71.4346 26.5652 71.3693 26.5445 71.3295C26.5 71.2439 26.4644 71.1924 26.4338 71.1508C26.3776 71.0763 26.3464 71.0491 26.3318 71.0352C26.3043 71.0116 26.3342 71.0387 26.3887 71.0703C26.4964 71.1356 26.6974 71.2285 26.9105 71.307C27.3498 71.4702 27.8777 71.6084 28.425 71.7241C29.5337 71.9564 30.7063 72.1039 31.9044 72.2155C34.2971 72.4331 36.7272 72.5009 39.2074 72.5116C41.6766 72.5182 44.0971 72.4682 46.4831 72.2691C47.6736 72.1671 48.8498 72.0282 49.9561 71.8049C50.5029 71.6937 51.0341 71.5588 51.4743 71.399C51.6912 71.3208 51.8922 71.2296 52.0036 71.1639C52.0594 71.1323 52.0913 71.1046 52.0666 71.1277C52.0536 71.141 52.0238 71.1684 51.9711 71.242C51.942 71.2837 51.9089 71.3342 51.8676 71.4192C51.8488 71.4578 51.8208 71.5229 51.7994 71.5876C51.7702 71.7102 51.7464 71.6485 51.7138 72.0878L51.7307 71.88C53.4483 59.9306 55.2136 47.9878 57.0268 36.0514C56.9661 36.4477 57.3265 36.8534 57.7322 36.8344C51.5605 36.7414 45.3851 36.6359 39.2074 36.5177C34.9959 36.4372 30.7855 36.3508 26.5757 36.2585C24.6621 36.2165 22.7538 36.1734 20.8403 36.129C20.834 36.1165 20.8023 36.1172 20.7955 36.1538C20.2997 36.2184 19.8039 36.2831 19.308 36.3477C19.1531 35.4708 19.9187 34.5495 20.8403 34.5657C22.7538 34.5213 24.6621 34.4782 26.5757 34.4362C30.7855 34.3439 34.9959 34.2575 39.2074 34.177C45.3851 34.0588 51.5605 33.9533 57.7322 33.8603C59.0695 33.8123 60.2291 35.1475 60.0136 36.4602C58.5532 48.4448 57.045 60.4228 55.489 72.3943L55.5059 72.1865C55.471 72.6591 55.4377 72.6356 55.3947 72.7995C55.363 72.8956 55.3168 73.0041 55.2826 73.0742C55.2079 73.2278 55.1358 73.3422 55.0586 73.4512C54.9187 73.6467 54.781 73.7909 54.6535 73.9106C54.395 74.1493 54.184 74.2904 53.9664 74.4244C53.5502 74.6753 53.1699 74.8377 52.8089 74.9758C52.0886 75.2463 51.4143 75.4176 50.746 75.5634C49.4066 75.8493 48.1195 76.0106 46.8319 76.1351C44.2622 76.3755 41.7543 76.446 39.2074 76.4573C36.6491 76.4633 34.1298 76.4094 31.5455 76.1845C30.2457 76.0671 28.9574 75.9141 27.6039 75.6344C26.9288 75.4916 26.2517 75.3246 25.5189 75.0555C25.1573 74.9203 24.7681 74.7577 24.3458 74.5086C24.1225 74.3741 23.9102 74.2356 23.6443 73.9974C23.512 73.8769 23.372 73.7352 23.2254 73.5393C23.1456 73.4315 23.0691 73.3162 22.9895 73.1628C22.9523 73.0914 22.9029 72.9835 22.8671 72.8854C22.818 72.7178 22.785 72.7469 22.7324 72.2537L22.7458 72.3956C22.7151 72.1599 22.6843 71.9241 22.6536 71.6884C21.4309 62.3073 20.4727 52.8917 19.7788 43.4417C19.6054 41.0792 19.4484 38.7145 19.308 36.3477ZM20.7955 36.1538L19.308 36.3477L20.7955 36.1538V36.1538Z" fill="#6B84FF" mask="url(#path-6-outside-1_11646_88106)"/>
<path fill-rule="evenodd" clip-rule="evenodd" d="M51.6709 69.3912C51.7442 71.1424 51.8182 72.8939 51.8916 74.6451C51.8957 74.7424 51.9002 74.8407 51.9043 74.938C51.9187 75.2629 51.8019 75.5531 51.542 75.7379C51.2842 75.9229 50.904 75.9877 50.5234 75.9244C50.1427 75.861 49.803 75.6763 49.6191 75.4175C49.6081 75.4022 49.5997 75.3854 49.5898 75.3697C49.5759 75.3813 49.5631 75.395 49.5478 75.4058C49.2911 75.5911 48.8517 75.6463 48.4043 75.5718C47.9568 75.4973 47.5597 75.3021 47.3769 75.0435C47.1898 74.7842 47.2322 74.4816 47.4179 74.19C47.4453 74.1466 47.4736 74.1036 47.501 74.0601C47.9969 73.2731 48.4933 72.4849 48.9892 71.6978C49.0167 71.6543 49.0438 71.6105 49.0713 71.567C49.0831 71.6171 49.0946 71.6672 49.1064 71.7173C49.2993 72.5325 49.4917 73.3484 49.6845 74.1636C50.3074 72.5663 50.9308 70.9689 51.5537 69.3716C51.589 69.281 51.6238 69.1898 51.6592 69.0992C51.6632 69.1963 51.6668 69.294 51.6709 69.3912Z" fill="#6B84FF"/>
<mask id="path-9-outside-2_11646_88106" maskUnits="userSpaceOnUse" x="32.9356" y="1.62571" width="15.1687" height="14.7655" fill="black">
<rect fill="white" x="32.9356" y="1.62571" width="15.1687" height="14.7655"/>
<path d="M35.8707 9.43591C35.44 11.8113 37.0251 14.0341 39.4112 14.4007C41.7973 14.7672 44.0808 13.1388 44.5115 10.7635L44.5979 10.2871C45.0286 7.91172 43.4435 5.68893 41.0574 5.32234C38.6713 4.95574 36.3878 6.58417 35.9571 8.95952L35.8707 9.43591Z"/>
</mask>
<path d="M35.8707 9.43591C35.44 11.8113 37.0251 14.0341 39.4112 14.4007C41.7973 14.7672 44.0808 13.1388 44.5115 10.7635L44.5979 10.2871C45.0286 7.91172 43.4435 5.68893 41.0574 5.32234C38.6713 4.95574 36.3878 6.58417 35.9571 8.95952L35.8707 9.43591Z" fill="white"/>
<path d="M39.4112 14.4007C39.4112 14.4007 39.2437 13.6689 39.545 13.6627C39.9504 13.6407 40.3353 13.5558 40.6881 13.4198C42.0556 12.8967 42.8461 11.6387 42.865 10.5105C42.8793 10.3495 42.8941 10.1885 42.9093 10.0276C42.9792 8.60887 41.9322 7.45688 40.7006 7.29024C40.7006 7.29024 40.7006 7.29024 40.7006 7.29024C40.7006 7.29024 40.7006 7.29024 40.7006 7.29024C39.4769 7.07967 38.0802 7.8562 37.6457 9.21896C37.6034 9.37567 37.5605 9.53231 37.5173 9.68888C37.137 10.7616 37.4408 12.1877 38.5497 13.0912C38.8354 13.3254 39.1695 13.5208 39.545 13.6627C39.4558 14.1547 39.3666 14.6466 39.2774 15.1386C38.7147 15.1368 38.1406 15.0377 37.5921 14.8369C35.4672 14.1035 33.8993 11.7014 34.2242 9.18294C34.2385 9.02192 34.2532 8.86097 34.2685 8.70009C34.5529 5.46373 38.0554 2.74646 41.4142 3.35443C41.4142 3.35443 41.4142 3.35443 41.4142 3.35443C41.4142 3.35443 41.4142 3.35443 41.4142 3.35443C44.8055 3.78352 47.1594 7.40057 46.2865 10.5465C46.2442 10.7032 46.2014 10.8599 46.1581 11.0164C45.5768 13.4955 43.2463 15.2987 40.9778 15.3571C40.3882 15.383 39.8103 15.3051 39.2774 15.1386L39.4112 14.4007ZM39.4112 14.4007C39.4112 14.4007 39.5602 15.2346 39.2774 15.1386L39.545 13.6627C39.8464 13.6564 39.4112 14.4007 39.4112 14.4007Z" fill="#6B84FF" mask="url(#path-9-outside-2_11646_88106)"/>
<mask id="path-11-outside-3_11646_88106" maskUnits="userSpaceOnUse" x="16.6934" y="3.86013" width="46.9702" height="18.8033" fill="black">
<rect fill="white" x="16.6934" y="3.86013" width="46.9702" height="18.8033"/>
<path d="M18.8245 6.78838C18.8794 6.34997 19.278 6.04826 19.7148 6.1145L60.6458 12.3209C61.0827 12.3871 61.3923 12.7962 61.3374 13.2346L60.6047 19.09C60.5508 19.5205 60.1719 19.8215 59.7417 19.7668C56.8317 19.3967 46.2751 18.0404 39.2749 16.9603C32.2712 15.8797 21.6728 14.0545 18.7592 13.5502C18.3303 13.476 18.038 13.0726 18.0921 12.641L18.8245 6.78838Z"/>
</mask>
<path d="M18.8245 6.78838C18.8794 6.34997 19.278 6.04826 19.7148 6.1145L60.6458 12.3209C61.0827 12.3871 61.3923 12.7962 61.3374 13.2346L60.6047 19.09C60.5508 19.5205 60.1719 19.8215 59.7417 19.7668C56.8317 19.3967 46.2751 18.0404 39.2749 16.9603C32.2712 15.8797 21.6728 14.0545 18.7592 13.5502C18.3303 13.476 18.038 13.0726 18.0921 12.641L18.8245 6.78838Z" fill="white"/>
<path d="M19.8079 5.37031C19.7458 5.86644 19.6837 6.36257 19.6217 6.8587C21.2427 7.27302 22.8659 7.6708 24.4911 8.05205C30.992 9.57703 37.5261 10.8374 44.0932 11.8332C49.528 12.6573 54.9652 13.4612 60.405 14.245C59.8017 14.1626 59.3392 13.5418 59.4298 12.9454C59.201 14.8995 58.9747 16.854 58.7511 18.8089C58.8021 18.2755 59.3706 17.8208 59.9287 17.9137C53.1094 17.1164 46.2627 16.3296 39.4696 15.4372C32.628 14.5148 25.7577 13.5187 18.9062 12.5465C19.0224 12.5758 19.0874 12.7124 19.0589 12.7876C19.1272 12.0655 19.1952 11.3433 19.2628 10.6211C19.3786 9.38324 19.4934 8.14523 19.6072 6.90706C19.5917 6.90224 19.5933 6.86811 19.6217 6.8587C19.6837 6.36257 19.7458 5.86644 19.8079 5.37031C18.9962 5.21257 18.1426 5.82575 18.0417 6.66969C17.8472 7.89561 17.6536 9.12169 17.4611 10.3479C17.3488 11.0634 17.2368 11.7789 17.1252 12.4944C16.9717 13.3946 17.6662 14.4028 18.6122 14.5538C25.4144 15.9348 32.2315 17.2739 39.0803 18.4834C45.9027 19.6642 52.7278 20.6669 59.5547 21.62C60.9399 21.8397 62.3251 20.734 62.4583 19.371C62.7231 17.4224 62.9854 15.4733 63.2451 13.5239C63.462 12.0849 62.3351 10.5864 60.8866 10.3968C55.4569 9.53243 50.0247 8.68822 44.5899 7.86415C38.0228 6.86837 31.4225 6.13719 24.7891 5.67062C23.1308 5.55398 21.4704 5.45387 19.8079 5.37031ZM19.6217 6.8587L19.8079 5.37031L19.6217 6.8587Z" fill="#6B84FF" mask="url(#path-11-outside-3_11646_88106)"/>
<path fill-rule="evenodd" clip-rule="evenodd" d="M56.7184 10.7585C57.0989 10.8219 57.438 11.0068 57.622 11.2654C57.6329 11.2806 57.642 11.2973 57.6517 11.3129C57.6655 11.3014 57.679 11.2891 57.6941 11.2783C57.9508 11.0929 58.39 11.0378 58.8375 11.1123C59.285 11.1868 59.6826 11.3813 59.8654 11.6398C60.0524 11.8991 60.01 12.2017 59.8243 12.4933C59.7968 12.5369 59.7686 12.5804 59.7411 12.624C59.2452 13.411 58.749 14.1989 58.253 14.9859C58.2256 15.0294 58.1983 15.0732 58.1708 15.1168C58.159 15.0667 58.1473 15.0164 58.1355 14.9663C57.9425 14.1507 57.749 13.3343 57.5559 12.5186C56.933 14.116 56.3108 15.7137 55.6879 17.3111C55.6526 17.4017 55.6175 17.4929 55.5822 17.5835C55.5781 17.4864 55.5744 17.3886 55.5704 17.2915C55.497 15.5403 55.4235 13.7887 55.3501 12.0375C55.346 11.9404 55.3414 11.8425 55.3374 11.7453C55.323 11.4205 55.4394 11.13 55.6993 10.9453C55.957 10.7601 56.3378 10.6952 56.7184 10.7585Z" fill="#6B84FF"/>
</svg>
