<svg xmlns="http://www.w3.org/2000/svg" width="80" height="80" fill="none" viewBox="0 0 80 80"><ellipse cx="42.981" cy="73.465" fill="var(--tutor-visual-brand-1, #4979e8)" rx="21.6" ry="4"/><rect width="10.813" height="13.733" x="40.897" y="26.059" fill="var(--tutor-visual-brand-1, #4979e8)" rx=".667" transform="rotate(14.813 40.897 26.059)"/><path fill="var(--tutor-visual-brand-1, #4979e8)" d="m38.005 27.632 1.185 16.332-15 1.089-1.325-18.24a1.334 1.334 0 0 1 1.235-1.426l9.014-.654z"/><path fill="var(--tutor-visual-brand-2, #a4bcf4)" d="M35.33 28.601a1.333 1.333 0 0 1-1.78-1.056l-.415-2.815 4.863 2.89z"/><rect width="10.813" height="13.733" x="33.562" y="30.937" fill="var(--tutor-visual-brand-2, #a4bcf4)" rx=".667" transform="rotate(2.05 33.562 30.937)"/><path fill="var(--tutor-visual-gray-1, #ffffff)" d="M56.295 37.09a.797.797 0 0 0-.788-.909H18.615a.797.797 0 0 0-.788.904l4.677 35.886s.137 2.347 14.478 2.347c14.342 0 14.403-2.347 14.403-2.347z"/><path fill="var(--tutor-visual-brand-1, #4979e8)" d="M55.507 34.694a4560 4560 0 0 0-36.892.706c-.921-.016-1.687.905-1.532 1.781a507 507 0 0 0 3.345 35.341q.046.354.093.707l-.014-.141c.053.493.086.464.135.631a2.5 2.5 0 0 0 .358.655c.147.195.287.337.42.458.265.238.477.376.7.51.423.25.812.412 1.173.547.733.27 1.41.437 2.085.58 1.354.28 2.643.432 3.943.55 2.584.224 5.103.279 7.66.273 2.548-.011 5.056-.082 7.626-.323 1.287-.124 2.575-.286 3.914-.572a14.5 14.5 0 0 0 2.062-.587c.361-.138.742-.3 1.159-.552.217-.133.428-.275.686-.513.128-.12.266-.264.405-.46a2.6 2.6 0 0 0 .336-.651c.043-.164.077-.141.112-.614l-.017.208a4532 4532 0 0 0 4.524-35.933c.216-1.313-.944-2.649-2.28-2.6m0 1.487c.485 0 .854.428.788.909l-4.91 35.881c-.002.029-.15 2.347-14.403 2.347-14.263 0-14.477-2.321-14.479-2.347l-4.676-35.886a.796.796 0 0 1 .788-.904z"/><path fill="var(--tutor-visual-brand-1, #4979e8)" fill-rule="evenodd" d="m49.446 70.225.221 5.254.013.293c.014.325-.103.615-.363.8-.257.185-.638.25-1.018.186-.38-.063-.72-.248-.904-.507q-.017-.023-.03-.047-.02.018-.042.036c-.257.185-.696.24-1.143.166-.448-.075-.845-.27-1.028-.529-.187-.259-.144-.561.041-.853l.083-.13 1.489-2.362.082-.131.035.15.578 2.447 1.87-4.792.105-.273z" clip-rule="evenodd"/><path fill="var(--tutor-visual-gray-1, #ffffff)" d="M33.645 10.27a4.23 4.23 0 0 0 3.54 4.965c2.387.366 4.67-1.262 5.101-3.637l.086-.477a4.23 4.23 0 0 0-3.54-4.965c-2.386-.366-4.67 1.262-5.1 3.638z"/><path fill="var(--tutor-visual-brand-1, #4979e8)" d="M35.366 15.671c.549.2 1.123.3 1.686.302.533.166 1.11.244 1.7.218 2.269-.058 4.6-1.861 5.18-4.34l.129-.47c.873-3.147-1.481-6.764-4.872-7.193-3.359-.608-6.861 2.11-7.145 5.346q-.024.24-.045.483c-.325 2.518 1.243 4.92 3.367 5.654m1.82-.436a4.23 4.23 0 0 1-3.54-4.965l.086-.477c.43-2.375 2.714-4.003 5.1-3.637a4.23 4.23 0 0 1 3.54 4.965l-.086.476c-.43 2.376-2.714 4.004-5.1 3.638"/><path fill="var(--tutor-visual-gray-1, #ffffff)" d="M16.599 7.622a.775.775 0 0 1 .89-.674l40.931 6.207a.825.825 0 0 1 .692.914l-.733 5.855a.77.77 0 0 1-.863.677c-2.91-.37-13.466-1.727-20.467-2.807-7.003-1.08-17.602-2.905-20.515-3.41a.82.82 0 0 1-.667-.909z"/><path fill="var(--tutor-visual-brand-1, #4979e8)" d="M42.364 8.698q8.153 1.236 16.297 2.532c1.448.19 2.575 1.689 2.359 3.128q-.39 2.925-.787 5.847c-.133 1.363-1.519 2.468-2.903 2.249-6.827-.953-13.653-1.956-20.475-3.137-6.85-1.21-13.666-2.549-20.468-3.93-.946-.15-1.64-1.158-1.487-2.059a2224 2224 0 0 1 .916-5.825c.1-.843.954-1.456 1.766-1.299l-.093.744a.775.775 0 0 0-.89.674l-.733 5.853a.82.82 0 0 0 .668.909c2.914.504 13.512 2.33 20.515 3.41 7 1.08 17.557 2.437 20.467 2.807a.77.77 0 0 0 .863-.677l.733-5.856a.826.826 0 0 0-.692-.913L17.49 6.948l.093-.744q2.493.126 4.981.3a248 248 0 0 1 19.8 2.194"/><path fill="var(--tutor-visual-brand-1, #4979e8)" fill-rule="evenodd" d="M54.494 11.593c.38.063.72.248.903.507q.016.023.03.047.019-.018.042-.035c.256-.185.695-.24 1.143-.166.447.075.845.27 1.028.528.187.259.145.562-.041.853l-.083.13-1.488 2.363-.083.13-.035-.15-.579-2.445-1.868 4.79-.105.273-.012-.292-.22-5.254q-.008-.147-.013-.293c-.015-.325.102-.615.362-.8.258-.185.638-.25 1.019-.186" clip-rule="evenodd"/></svg>