<svg xmlns="http://www.w3.org/2000/svg" width="148" height="143" fill="none" viewBox="0 0 148 143"><path fill="var(--tutor-visual-gray-1, #ffffff)" d="M116.047 138.261c0 .848-.688 1.536-1.536 1.536H16.178a1.536 1.536 0 0 1-1.537-1.536V9.199c0-.849.688-1.537 1.537-1.537h98.333c.848 0 1.536.688 1.536 1.537z"/><path fill="var(--tutor-visual-brand-1, #4979e8)" d="M114.511 4.635c2.434-.06 4.627 2.122 4.576 4.563q.034 7.683.034 15.365 0 56.848-.205 113.698c.051 2.349-2.061 4.452-4.405 4.396q-49.167-.181-98.334-.514c-2.07.041-3.918-1.822-3.865-3.882a31581 31581 0 0 1 1.15-129.063c-.024-1.448 1.283-2.73 2.715-2.687v1.151c-.848 0-1.535.688-1.536 1.536v129.063c0 .848.688 1.535 1.536 1.536h98.334c.848 0 1.536-.688 1.536-1.536V9.198c0-.848-.688-1.536-1.536-1.536H16.177V6.511q11.612-.386 23.224-.693a3511 3511 0 0 1 75.11-1.183"/><path fill="var(--tutor-visual-brand-2, #a4bcf4)" fill-rule="evenodd" d="m27.04 20.102 49.026 2.075 2.725.114-2.725.114L27.04 24.48l-2.724.116a2.16 2.16 0 0 1-1.63-.626 2.37 2.37 0 0 1-.675-1.679c0-.637.243-1.247.675-1.679a2.16 2.16 0 0 1 1.63-.626zM25.621 32.717q17.595 1.036 35.189 2.074l1.956.114-1.956.115-35.189 2.074-1.954.116c-.439.027-.86-.193-1.17-.626-.31-.432-.485-1.041-.485-1.679 0-.637.175-1.247.485-1.678.31-.433.731-.653 1.17-.627zM25.621 106.296l35.189 2.075 1.956.114-1.956.115-35.189 2.074-1.955.116c-.438.026-.86-.194-1.17-.626s-.484-1.041-.484-1.679c0-.637.174-1.247.485-1.679.31-.432.73-.652 1.17-.626zM24.286 118.911l22.167 2.074 1.232.114-1.232.115-22.167 2.074-1.232.117c-.276.026-.541-.194-.737-.627-.195-.432-.305-1.041-.305-1.679 0-.637.11-1.246.305-1.678.196-.433.46-.653.737-.627zM27.04 57.163l49.025 2.074 2.725.115-2.725.114L27.04 61.54l-2.723.117a2.16 2.16 0 0 1-1.63-.627 2.37 2.37 0 0 1-.675-1.678c0-.638.243-1.247.675-1.679a2.16 2.16 0 0 1 1.63-.626zM27.04 69.777l49.025 2.075q1.363.056 2.725.114l-2.725.114-49.025 2.075-2.723.116a2.16 2.16 0 0 1-1.63-.627 2.37 2.37 0 0 1-.675-1.678c0-.637.243-1.247.675-1.679a2.16 2.16 0 0 1 1.63-.626zM27.04 82.391l49.025 2.075 2.725.114-2.725.115Q51.553 85.73 27.04 86.769l-2.723.116a2.16 2.16 0 0 1-1.63-.626 2.37 2.37 0 0 1-.675-1.679c0-.637.243-1.247.675-1.678a2.16 2.16 0 0 1 1.63-.627z" clip-rule="evenodd"/><path fill="var(--tutor-visual-brand-1, #4979e8)" d="M123.446 9.244a.92.92 0 0 1-.618-.327.78.78 0 0 1-.155-.64q.046-.211.052-.452c-.18-3.027-2.817-6.403-6.097-7.676a5 5 0 0 0-.581-.149q.3.012.602.064c3.529.906 6.776 3.533 7.736 7.655q.048.366.028.752a.78.78 0 0 1-.292.59.92.92 0 0 1-.675.183M102.573 117.045c1.339.869 1.986 2.402 1.826 3.923 1.322-.767 2.986-.801 4.325.067 1.919 1.245 2.43 3.862 1.145 5.843-1.284 1.98-3.652 3.023-6.157 3.517s-5.71.433-5.71.433-1.303-2.83-1.932-5.39c-.672-2.73-.587-5.07.702-7.056s3.883-2.581 5.801-1.337M8.744 7.237l-2.5 14.403-.138.8c-.064.364.023.727.26 1.009s.605.46 1.003.494c.399.035.791-.078 1.073-.315s.43-.579.43-.948v-.813l.01-14.618v-.813z"/><path fill="var(--tutor-visual-gray-1, #ffffff)" d="M93.603 76.78c0 14.073 11.408 25.482 25.482 25.482s25.483-11.409 25.483-25.482c0-14.074-11.409-25.483-25.483-25.483S93.603 62.707 93.603 76.78"/><path fill="var(--tutor-visual-brand-1, #4979e8)" d="M93.602 76.78c0-14.073 11.409-25.482 25.483-25.482s25.483 11.409 25.483 25.482c-.001 14.074-11.41 25.483-25.483 25.483-13.854 0-25.125-11.056-25.474-24.826zm-1.082 0a25.5 25.5 0 0 0 .677 8.412c2.626 11.224 13.869 20.168 25.888 19.957 15.127.371 28.682-13.36 28.169-28.369.224-15.03-13.492-28.217-28.169-27.566-11.655.047-22.428 8.402-25.492 19.283a26.5 26.5 0 0 0-1.073 8.283"/><path fill="var(--tutor-visual-success-1, #28a745)" d="M116.358 91.094a2.85 2.85 0 0 1-2.272-1.131l-7.307-9.655a2.84 2.84 0 0 1-.552-2.11 2.844 2.844 0 0 1 1.104-1.88 2.84 2.84 0 0 1 3.164-.189c.323.19.605.442.83.742l4.808 6.347 12.088-19.411a2.856 2.856 0 0 1 3.929-.91 2.85 2.85 0 0 1 .912 3.926L118.78 89.748a2.84 2.84 0 0 1-2.291 1.342z"/></svg>