<svg xmlns="http://www.w3.org/2000/svg" width="80" height="80" fill="none"><g clip-path="url(#a)"><rect width="63.395" height="63.731" x="9.633" fill="#05ac6d" rx="3.2"/><mask id="b" width="63" height="62" x="9" y="-.316" fill="#000" maskUnits="userSpaceOnUse"><path fill="#fff" d="M9-.316h63v62H9z"/><path d="M11 2.484a.8.8 0 0 1 .8-.8h56.4a.8.8 0 0 1 .8.8v56.4a.8.8 0 0 1-.8.8H11.8a.8.8 0 0 1-.8-.8z"/></mask><path fill="#8affad" d="M11 2.484a.8.8 0 0 1 .8-.8h56.4a.8.8 0 0 1 .8.8v56.4a.8.8 0 0 1-.8.8H11.8a.8.8 0 0 1-.8-.8z"/><path fill="#05ac6d" d="M11.8.934v1.5a1333 1333 0 0 0 56.4 1.249c-.641.013-1.213-.558-1.2-1.2q0 28.2.133 56.4c-.01-.57.5-1.074 1.067-1.06q-28.2.135-56.4.404a.656.656 0 0 1 .644.657 11962 11962 0 0 0-.676-56.4c-.008-.016.006-.045.032-.05zc-.826-.026-1.58.713-1.568 1.55a12140 12140 0 0 0-.676 56.4c-.032 1.196 1.04 2.28 2.244 2.256q28.2.27 56.4.405c1.42.034 2.697-1.239 2.667-2.661q.133-28.2.133-56.4c.034-1.494-1.307-2.834-2.8-2.8A1331 1331 0 0 0 11.8.934m0 1.5v-1.5z" mask="url(#b)"/><rect width="3.2" height="45.499" x="17.73" y="15.191" fill="#05ac6d" rx="1.6" transform="rotate(-90 17.73 15.191)"/><circle cx="4.185" cy="4.185" r="4.185" fill="#05ac6d" transform="matrix(-1 0 0 1 59.66 9.406)"/><rect width="3.2" height="45.499" x="17.73" y="27.965" fill="#05ac6d" rx="1.6" transform="rotate(-90 17.73 27.965)"/><circle cx="4.185" cy="4.185" r="4.185" fill="#05ac6d" transform="matrix(-1 0 0 1 44.664 22.18)"/><rect width="3.2" height="45.499" fill="#05ac6d" rx="1.6" transform="matrix(0 -1 -1 0 63.227 41.41)"/><circle cx="25.481" cy="39.81" r="4.185" fill="#05ac6d"/><mask id="c" width="31" height="32" x="25.125" y="46.398" fill="#000" maskUnits="userSpaceOnUse"><path fill="#fff" d="M25.125 46.398h31v32h-31z"/><circle cx="14.126" cy="14.126" r="14.126" transform="matrix(-1 0 0 1 54.125 48.398)"/></mask><circle cx="14.126" cy="14.126" r="14.126" fill="#fff" transform="matrix(-1 0 0 1 54.125 48.398)"/><path fill="#05ac6d" d="M25.273 62.524h1.2c.133 1.42.474 2.793 1.001 4.07C29.565 71.748 34.733 75.11 40 75.05c6.663.16 12.718-5.797 12.637-12.526.242-6.716-5.724-12.975-12.637-12.97-5.469-.203-10.896 3.485-12.745 8.829a13.5 13.5 0 0 0-.78 4.141za14.7 14.7 0 0 1 .594-4.592c1.698-6.031 7.67-10.663 14.131-10.69 8.136-.36 15.74 6.95 15.615 15.282.285 8.32-7.23 15.932-15.615 15.726-6.663.117-12.895-4.84-14.35-11.063a14.1 14.1 0 0 1-.376-4.663m1.2 0h-1.2z" mask="url(#c)"/><path fill="#05ac6d" fill-rule="evenodd" d="M39.262 53.902a8.65 8.65 0 0 1 7.768 3.578v-1.716a.811.811 0 1 1 1.622 0v4.089c0 .28-.228.509-.509.509h-4.088a.812.812 0 0 1 0-1.623h1.868a7.032 7.032 0 0 0-12.747 2.082.811.811 0 1 1-1.574-.394 8.65 8.65 0 0 1 7.66-6.523zM35.584 69.97a8.653 8.653 0 0 0 12.809-5.345.812.812 0 0 0-1.574-.394 7.032 7.032 0 0 1-12.746 2.082h1.868a.811.811 0 1 0 0-1.623h-4.088a.51.51 0 0 0-.51.509v4.089a.811.811 0 1 0 1.623 0V67.57a8.65 8.65 0 0 0 2.618 2.398" clip-rule="evenodd"/></g><defs><clipPath id="a"><path fill="#fff" d="M0 0h80v80H0z"/></clipPath></defs></svg>