<svg xmlns="http://www.w3.org/2000/svg" width="96" height="96" fill="none" viewBox="0 0 96 96"><path fill="var(--tutor-visual-gray-2, #ececed)" d="M48 31c1.5-5.921 7.165-8.945 19.5-9a1.495 1.495 0 0 1 1.5 1.5v27a1.5 1.5 0 0 1-1.5 1.5c-12 0-16.636 2.42-19.5 6-2.847-3.562-7.5-6-19.5-6-.926 0-1.5-.755-1.5-1.68V23.5a1.495 1.495 0 0 1 1.5-1.5c12.335.055 18 3.079 19.5 9m0 0v27z"/><path stroke="var(--tutor-visual-gray-3, #cecfd2)" stroke-dasharray="2.65 2.65" stroke-width=".66" d="M48 58c-2.847-3.562-7.5-6-19.5-6-.926 0-1.5-.755-1.5-1.68V23.5a1.495 1.495 0 0 1 1.5-1.5c12.335.055 18 3.079 19.5 9 1.5-5.921 7.165-8.945 19.5-9a1.495 1.495 0 0 1 1.5 1.5v27a1.5 1.5 0 0 1-1.5 1.5c-12 0-16.636 2.42-19.5 6Zm0-27v27"/><ellipse cx="48" cy="71" fill="var(--tutor-visual-gray-2, #ececed)" rx="20.998" ry="3"/></svg>