<svg xmlns="http://www.w3.org/2000/svg" width="96" height="96" fill="none" viewBox="0 0 96 96"><ellipse cx="48" cy="79.768" fill="var(--tutor-visual-gray-2, #ececed)" rx="21" ry="3"/><rect width="40" height="50.508" x="28" y="16.26" fill="var(--tutor-visual-gray-2, #ececed)" stroke="var(--tutor-visual-gray-3, #cecfd2)" stroke-dasharray="2.65 2.65" stroke-width=".66" rx="4"/><path stroke="var(--tutor-visual-gray-3, #cecfd2)" stroke-linecap="round" stroke-linejoin="round" stroke-width="2" d="M34.087 25.236h24.36M34.086 31.953l24.36-.002M34.086 38.673l24.36-.002"/><path fill="var(--tutor-visual-gray-2, #ececed)" d="m70.555 20.252-2.414-6.003zm0 0 4.88 1.077a.484.484 0 0 0 .517-.662l-4.204-10.455a.485.485 0 0 0-.831-.12l-2.776 4.157m2.414 6.003-5.252 2.112a3.235 3.235 0 1 1-2.414-6.003l5.252-2.112m-.671 11.863-2.167-3.748 3.001-1.207 1.938 3.352a1.601 1.601 0 0 1-2.772 1.603"/><path stroke="var(--tutor-visual-gray-3, #cecfd2)" stroke-linecap="round" stroke-linejoin="round" stroke-width="1.5" d="m70.555 20.252-2.414-6.003m2.414 6.003 4.88 1.077a.484.484 0 0 0 .517-.662l-4.204-10.455a.485.485 0 0 0-.831-.12l-2.776 4.157m2.414 6.003-5.252 2.112m2.838-8.115L62.89 16.36a3.235 3.235 0 1 0 2.414 6.003m0 0 2.167 3.748a1.601 1.601 0 0 0 2.772-1.603l-1.938-3.352zm9.43-4.727a2.183 2.183 0 0 0-1.629-4.052"/></svg>