<svg xmlns="http://www.w3.org/2000/svg" width="96" height="96" fill="none" viewBox="0 0 96 96"><ellipse cx="48" cy="78.254" fill="var(--tutor-visual-gray-2, #ececed)" rx="21" ry="3"/><rect width="40" height="50.508" x="28" y="14.746" fill="var(--tutor-visual-gray-2, #ececed)" stroke="var(--tutor-visual-gray-3, #cecfd2)" stroke-dasharray="2.65 2.65" stroke-width=".66" rx="4"/><path fill="var(--tutor-visual-gray-3, #cecfd2)" d="M49 28.27c2.279 0 4.504.691 6.395 1.983a11.7 11.7 0 0 1 4.23 5.268 11.96 11.96 0 0 1 .652 6.768 11.8 11.8 0 0 1-3.14 6.004 11.43 11.43 0 0 1-5.89 3.219c-2.234.454-4.55.22-6.654-.671a11.55 11.55 0 0 1-5.158-4.327 11.9 11.9 0 0 1-1.932-6.51 1 1 0 1 1 2 0c0 1.93.56 3.815 1.606 5.416A9.55 9.55 0 0 0 45.373 49a9.3 9.3 0 0 0 5.476.552 9.43 9.43 0 0 0 4.859-2.657 9.8 9.8 0 0 0 2.605-4.989 9.96 9.96 0 0 0-.541-5.634 9.7 9.7 0 0 0-3.504-4.367 9.33 9.33 0 0 0-5.266-1.635 10.24 10.24 0 0 0-7.16 2.98l-.001-.002-.962.985h3.456a1 1 0 0 1 0 2h-5.832l-.027-.002-.07-.004-.034-.005q-.03-.004-.059-.009l-.039-.009a1 1 0 0 1-.152-.048l-.033-.015q-.03-.013-.058-.028l-.02-.011q-.032-.018-.063-.037l-.026-.02q-.062-.043-.118-.097a1 1 0 0 1-.298-.662l-.003-.042V29.27a1 1 0 1 1 2 0v3.51l.92-.942.012-.012a12.24 12.24 0 0 1 8.561-3.556zm-.094 6.079a1 1 0 0 1 1 1v4.112l3.152 1.611a1 1 0 0 1-.911 1.78l-3.696-1.889a1 1 0 0 1-.545-.89v-4.724a1 1 0 0 1 1-1"/></svg>