<svg xmlns="http://www.w3.org/2000/svg" width="96" height="96" fill="none" viewBox="0 0 96 96"><path fill="var(--tutor-visual-gray-2, #ececed)" d="M48 17.299c11.598 0 21 9.464 21 21.139 0 5.336-1.966 10.21-5.207 13.93l1.29 9.8a.47.47 0 0 1-.644.497l-9.922-4.128A20.9 20.9 0 0 1 48 59.577c-11.598 0-21-9.465-21-21.14C27 26.764 36.402 17.3 48 17.3"/><path fill="var(--tutor-visual-gray-3, #cecfd2)" d="M48 17.299v-.33zm21 21.139h.33zm-5.207 13.93-.249-.217-.098.113.02.147zm1.29 9.8.327-.043zm-.644.497.127-.305zm-9.922-4.128.126-.305-.113-.047-.116.039zM48 59.577v.33zm-21-21.14h-.33zM48 17.3v-.33q-.706 0-1.4.045l.02.33.022.329q.674-.045 1.358-.044zm-4.111.405-.065-.324a21 21 0 0 0-2.704.73l.107.312.107.312q1.275-.437 2.62-.707zm-5.204 1.783-.147-.295q-1.26.628-2.417 1.412l.185.273.184.274q1.123-.76 2.343-1.369zm-4.557 3.08-.219-.247a22 22 0 0 0-1.97 1.99l.25.216.249.216a21 21 0 0 1 1.909-1.928zM30.52 26.72l-.276-.182q-.772 1.164-1.391 2.429l.296.145.297.145q.6-1.226 1.348-2.355zm-2.417 4.941-.313-.105a21 21 0 0 0-.717 2.707l.324.063.324.063q.265-1.345.694-2.623zm-1.059 5.398-.33-.02q-.044.693-.044 1.4h.66q0-.685.043-1.359zM27 38.438h-.33q0 .705.045 1.4l.329-.021.33-.021a21 21 0 0 1-.044-1.358zm.397 4.112-.324.064q.273 1.388.717 2.706l.313-.105.312-.105a21 21 0 0 1-.694-2.623zm1.752 5.214-.296.145q.619 1.265 1.391 2.43l.275-.183.275-.182a21 21 0 0 1-1.348-2.355zm3.04 4.586-.25.216q.92 1.06 1.97 1.99l.219-.248.219-.246a21 21 0 0 1-1.91-1.929zm4.116 3.648-.184.274q1.158.783 2.417 1.412l.147-.295.148-.295a21 21 0 0 1-2.343-1.369zm4.922 2.456-.107.312q1.317.451 2.704.73l.065-.324.064-.323a20 20 0 0 1-2.619-.708zm5.394 1.078-.022.33q.694.045 1.401.045v-.66q-.684 0-1.358-.044zm1.379.045v.33q.849 0 1.681-.066l-.026-.329-.026-.329a21 21 0 0 1-1.629.064zm4.924-.586.077.32a21 21 0 0 0 1.619-.46l-.103-.314-.103-.313q-.771.253-1.568.446zm1.593-.454-.127.305 1.24.516.127-.305.127-.305-1.24-.516zm3.72 1.548-.126.305 2.48 1.032.127-.305.127-.305-2.48-1.032zM63.2 62.15l-.127.305 1.24.516.127-.305.127-.305-1.24-.516zm1.24.516-.126.305a.8.8 0 0 0 1.097-.845l-.327.043-.327.043a.14.14 0 0 1-.19.15zm.644-.497.327-.043-.161-1.225-.327.043-.327.043.16 1.225zm-.484-3.675.327-.043-.322-2.45-.327.043-.327.043.322 2.45zm-.645-4.9.327-.043-.16-1.225-.328.043-.327.043.161 1.225zm-.161-1.225.249.217q.422-.485.815-.994l-.261-.202-.261-.202q-.382.495-.79.964zm2.227-3.072.283.17q.656-1.103 1.182-2.284l-.302-.134-.301-.134a21 21 0 0 1-1.146 2.213zm2.05-4.619.315.097q.375-1.22.605-2.499l-.325-.058-.325-.058a21 21 0 0 1-.586 2.421zm.893-4.974.33.02q.037-.638.037-1.285h-.66q0 .627-.037 1.246zM69 38.438h.33q0-.705-.045-1.4l-.329.021-.33.021q.044.675.044 1.358zm-.397-4.112.324-.063a21 21 0 0 0-.717-2.707l-.313.105-.312.105q.43 1.278.694 2.624zm-1.752-5.214.296-.145a21.5 21.5 0 0 0-1.391-2.43l-.275.183-.276.182q.75 1.129 1.35 2.355zm-3.04-4.585.25-.217a22 22 0 0 0-1.97-1.989l-.219.247-.219.247q1.017.901 1.91 1.928zm-4.117-3.649.185-.273a21 21 0 0 0-2.417-1.412l-.147.295-.148.295q1.22.61 2.343 1.369zm-4.921-2.455.107-.312a21 21 0 0 0-2.704-.73l-.065.324-.064.323q1.344.27 2.619.707zm-5.394-1.078.022-.33q-.694-.045-1.401-.045v.66q.684 0 1.358.044z"/><ellipse cx="48" cy="75.701" fill="var(--tutor-visual-gray-2, #ececed)" rx="21" ry="3"/><path fill="var(--tutor-visual-gray-3, #cecfd2)" fill-rule="evenodd" d="M48.327 46.44c.648 0 1.174.53 1.174 1.182s-.526 1.181-1.174 1.181-1.173-.529-1.174-1.181c0-.653.526-1.183 1.174-1.183m-.645-16.324a5.82 5.82 0 0 1 5.062 1.712 5.89 5.89 0 0 1 1.57 5.126 5.9 5.9 0 0 1-1.096 2.528l-.054.066q-.31.345-.655.652l-.016.014a5 5 0 0 1-.487.37l-1.759 1.221a2.3 2.3 0 0 0-.719.816c-.17.327-.26.691-.26 1.061a1.001 1.001 0 0 1-2 .003c0-.692.167-1.375.487-1.99.32-.613.784-1.14 1.352-1.533l1.76-1.221.006-.004c.137-.093.188-.13.308-.232q.244-.22.466-.464a3.9 3.9 0 0 0-.34-5.022 3.82 3.82 0 0 0-4.998-.44c-.495.359-.9.832-1.18 1.38a3.9 3.9 0 0 0-.424 1.773 1 1 0 0 1-2 0c0-.931.22-1.85.643-2.68a5.9 5.9 0 0 1 1.79-2.094 5.8 5.8 0 0 1 2.544-1.042" clip-rule="evenodd"/></svg>