<svg xmlns="http://www.w3.org/2000/svg" width="574" height="200" fill="none" viewBox="0 0 574 200"><path fill="var(--tutor-visual-brand-1, #4979e8)" fill-rule="evenodd" d="M281.669 150.177c36.542 0 66.164 2.874 66.164 6.419 0 3.546-29.622 6.42-66.164 6.42-36.541 0-66.164-2.874-66.164-6.42s29.623-6.419 66.164-6.419m65.779-63.97c4.01 9.178 4.769 34.418-21.143 31.067l2.175 11.914c.493 1.959.969 9.241-5.509 12.171-4.382 1.982-14.678-29.573-20.574-44.39zm11.258 19.49c.416-.06.836.038 1.155.276s.511.596.545.993c.047.491.068.998.067 1.483.432 9.073-8.074 16.429-16.266 15.764q-.659.005-1.35-.021.69-.048 1.341-.13c8.311-.415 14.626-7.896 13.427-15.475a12 12 0 0 0-.187-1.19c-.08-.39.003-.788.241-1.107a1.56 1.56 0 0 1 1.027-.593M239.357 70.321q-.683.095-1.325.216c-8.194.968-14.212 8.614-12.652 16.106.064.397.146.8.245 1.174.099.386.037.788-.185 1.118a1.56 1.56 0 0 1-.997.643c-.413.08-.838.003-1.167-.219a1.37 1.37 0 0 1-.594-.964c-.07-.487-.117-.99-.139-1.474-.854-9.06 7.331-16.632 15.47-16.533q.655-.047 1.344-.067M315.29 51.15a2.684 2.684 0 1 1 0 5.368 2.684 2.684 0 0 1 0-5.368m7.082-14.164a4.399 4.399 0 1 1 0 8.798 4.399 4.399 0 0 1 0-8.798" clip-rule="evenodd"/><path fill="var(--tutor-visual-gray-1, #ffffff)" d="M262.535 41.39c9.252-2.378 18.68 3.196 21.059 12.447 1.354 5.268.128 10.587-2.886 14.632-.66.887.302 2.663 1.373 2.388l20.205-5.193a6.644 6.644 0 0 1 8.086 4.78l3.365 13.093c.229.892 1.492 1.053 2.031.307a17.2 17.2 0 0 1 9.708-6.623c9.254-2.378 18.682 3.194 21.06 12.448 2.376 9.252-3.196 18.682-12.448 21.06a17.18 17.18 0 0 1-11.703-1.137c-.831-.396-1.861.355-1.631 1.246l5.382 20.944a6.643 6.643 0 0 1-4.779 8.086l-12.713 3.472c-.539.147-1.091-.177-1.261-.708-2.781-8.677-12.031-13.941-20.954-11.647s-14.446 11.371-12.696 20.313c.107.548-.221 1.098-.764 1.229l-12.951 3.106a6.643 6.643 0 0 1-8.086-4.78l-5.151-20.04c-.228-.887-1.481-1.052-2.021-.312a17.2 17.2 0 0 1-9.64 6.54c-9.253 2.378-18.681-3.195-21.059-12.448s3.195-18.681 12.448-21.059a17.2 17.2 0 0 1 11.598 1.082c.83.388 1.849-.361 1.621-1.248l-3.561-13.854a6.643 6.643 0 0 1 4.78-8.086l18.676-4.8c1.071-.275 1.057-2.296.051-2.754-4.592-2.09-8.233-6.157-9.587-11.425-2.376-9.252 3.196-18.681 12.448-21.06"/><path fill="var(--tutor-visual-brand-1, #4979e8)" d="M262.348 40.663c8.31-2.493 18.125 2.102 21.551 10.32q.54 1.239.896 2.546c1.477 5.262.412 11.2-2.819 15.683a1 1 0 0 0 .038.1q9.915-2.683 19.839-5.331c4.288-1.247 9.238 1.615 10.287 6.008a6460 6460 0 0 1 3.031 11.483c2.531-2.99 6.011-5.19 9.814-6.162 6.452-1.745 13.743.254 18.439 5.011a19.26 19.26 0 0 1 5.048 8.851c2.795 9.896-3.874 21.169-13.89 23.481-3.766.983-7.838.749-11.481-.609q2.465 9.625 4.926 19.252c1.239 4.411-1.732 9.42-6.189 10.448l-12.689 3.444c-1.545.441-3.168-.56-3.587-1.972-2.258-7.58-11.013-12.54-18.671-10.431-7.731 1.801-13.049 10.371-11.398 18.168.3 1.385-.607 2.975-2.107 3.313q-6.472 1.532-12.943 3.063c-4.307 1.197-9.18-1.709-10.175-6.049q-2.41-9.501-4.815-19.003c-2.532 3.086-6.07 5.345-9.937 6.307-9.699 2.704-20.676-3.864-22.891-13.622-2.683-9.644 3.853-20.547 13.546-22.742 4.044-1.037 8.437-.631 12.219 1.098l-3.395-13.502c-1.118-4.034 1.614-8.585 5.665-9.503q9.332-2.344 18.665-4.685l.003-.003a.75.75 0 0 0 .068-.33c.015-.297-.175-.538-.146-.491-4.96-2.258-8.779-6.85-10.061-12.124a18 18 0 0 1-.458-2.615c-1.027-8.696 5.16-17.462 13.617-19.402m21.246 13.174c-2.38-9.251-11.807-14.825-21.059-12.447s-14.824 11.807-12.448 21.06c1.354 5.267 4.994 9.334 9.586 11.424 1.007.458 1.02 2.479-.051 2.754l-18.675 4.8a6.644 6.644 0 0 0-4.78 8.086l3.561 13.854c.228.887-.79 1.636-1.62 1.248a17.2 17.2 0 0 0-11.6-1.083c-9.252 2.379-14.824 11.807-12.447 21.06s11.806 14.826 21.059 12.448a17.2 17.2 0 0 0 9.639-6.54c.54-.74 1.793-.575 2.022.312l5.15 20.041a6.645 6.645 0 0 0 8.087 4.779l12.951-3.106c.543-.131.871-.681.764-1.229-1.75-8.942 3.773-18.019 12.695-20.313 8.924-2.294 18.174 2.97 20.955 11.647.171.531.723.855 1.261.708l12.713-3.472a6.643 6.643 0 0 0 4.779-8.086l-5.383-20.944c-.228-.891.801-1.642 1.632-1.246a17.18 17.18 0 0 0 11.702 1.137c9.253-2.378 14.824-11.808 12.449-21.06-2.379-9.253-11.807-14.826-21.06-12.448a17.2 17.2 0 0 0-9.708 6.623c-.538.746-1.802.585-2.031-.307l-3.366-13.094a6.643 6.643 0 0 0-8.085-4.78l-20.206 5.194c-1.07.274-2.032-1.502-1.372-2.388 3.014-4.045 4.24-9.364 2.886-14.632"/><path fill="var(--tutor-visual-brand-1, #4979e8)" fill-rule="evenodd" d="M246.872 119.098c.09.187.174.37.254.561 1.44 3.434 1.263 7.516-.266 11.143-.089.199-.191.411-.298.612a.88.88 0 0 1-.591.463 1.06 1.06 0 0 1-.789-.152 1.06 1.06 0 0 1-.476-.647.88.88 0 0 1 .164-.732c.105-.135.215-.291.315-.443 1.815-2.874 2.702-6.639 1.845-10.213a12 12 0 0 0-.158-.592m69.803-16.972q.08.298.174.59c1.134 3.498 3.859 6.2 6.814 7.629.158.071.324.141.473.194.373.147.653.431.765.813s.047.831-.167 1.223-.557.689-.938.801c-.382.113-.772.03-1.098-.203a10 10 0 0 1-.574-.429c-3.13-2.624-5.154-6.259-5.423-10a13 13 0 0 1-.026-.618" clip-rule="evenodd"/></svg>