<svg xmlns="http://www.w3.org/2000/svg" width="80" height="80" fill="none" viewBox="0 0 80 80"><path fill="var(--tutor-visual-gray-1, #ffffff)" d="M64.33 38.117c4.6 11.493-.988 24.54-12.481 29.14s-24.54-.987-29.141-12.48.987-24.54 12.48-29.141 24.541.987 29.141 12.48"/><path fill="var(--tutor-visual-brand-1, #4979e8)" d="M63.633 38.396a21.7 21.7 0 0 0-3.592-5.724c-5.894-6.9-16.209-9.245-24.315-5.695-10.4 4.09-15.69 17.095-11.29 27.108 3.916 10.222 16.68 15.596 26.67 11.316 8.015-3.097 13.713-11.413 13.588-20.366a22.4 22.4 0 0 0-1.06-6.64m.696-.28c4.601 11.494-.987 24.541-12.48 29.142s-24.54-.988-29.141-12.481.987-24.54 12.48-29.141 24.541.987 29.141 12.48M22.807 31.368c.208-.512-.038-1.1-.568-1.256a9.973 9.973 0 0 0-7.459 18.39c.489.258 1.075.007 1.283-.504zM48.105 21.243c-.503-.227-.731-.822-.455-1.3a9.973 9.973 0 0 1 18.088 8.164c-.175.524-.773.747-1.276.52z"/><path fill="#f04438" fill-rule="evenodd" d="M39.46 33.517c.732-.211 1.503.18 1.765.895l4.433 12.09a2.396 2.396 0 0 1-3.89 2.57 2 2 0 0 1-.343-.292l-7.334-7.891a1.214 1.214 0 0 1 1.649-1.775l4.215 3.379-1.514-7.287a1.45 1.45 0 0 1 1.019-1.69" clip-rule="evenodd"/><path fill="var(--tutor-visual-brand-1, #4979e8)" d="M51.195 13.346c.311-.146.612-.274.925-.396 5.654-2.423 12.278.162 15.448 4.807.17.251.332.517.464.772a.87.87 0 0 0 .554.443c.24.063.505.02.73-.111a.97.97 0 0 0 .45-.584.87.87 0 0 0-.12-.7c-.2-.31-.425-.612-.653-.889-4.113-4.956-11.494-6.794-16.911-3.824-.303.151-.59.309-.887.481"/><path fill="var(--tutor-visual-brand-1, #4979e8)" d="M52.64 9.313c.35-.166.69-.313 1.045-.454 6.388-2.78 13.943.098 17.596 5.38.196.286.383.59.536.883a.88.88 0 0 0 .557.442c.24.062.504.021.727-.11a.97.97 0 0 0 .448-.584.88.88 0 0 0-.117-.7 11 11 0 0 0-.728-1c-4.596-5.593-12.906-7.725-19.058-4.397-.343.17-.67.346-1.007.54M17.036 26.717c-.33.061-.644.131-.964.212-5.894 1.298-9.703 7.145-9.577 12.662.008.297.032.603.072.881a.86.86 0 0 1-.19.67.95.95 0 0 1-.645.328.95.95 0 0 1-.692-.208.86.86 0 0 1-.305-.626 10 10 0 0 1 .013-1.084c.45-6.303 5.287-11.987 11.305-12.713.328-.052.648-.091.983-.122"/><path fill="var(--tutor-visual-brand-1, #4979e8)" d="M17.226 22.297c-.408.02-.797.05-1.195.094-7.303.57-12.913 6.975-13.704 13.709a10 10 0 0 0-.063 1.09.87.87 0 0 1-.278.64.94.94 0 0 1-.679.242.94.94 0 0 1-.656-.297.87.87 0 0 1-.225-.66c.033-.429.096-.867.175-1.28 1.462-7.44 8.073-13.548 15.424-13.536.402-.013.793-.014 1.201-.002"/><ellipse cx="42.415" cy="75.584" fill="var(--tutor-visual-brand-1, #4979e8)" rx="25.199" ry="2.759"/></svg>