<svg xmlns="http://www.w3.org/2000/svg" width="80" height="80" fill="none" viewBox="0 0 80 80"><ellipse cx="40" cy="71.438" fill="var(--tutor-visual-brand-1, #4979e8)" rx="32.54" ry="3.562"/><path fill="var(--tutor-visual-gray-1, #ffffff)" d="M7.46 37.54C7.46 55.51 22.03 70.08 40 70.08s32.54-14.57 32.54-32.54C72.54 19.569 57.97 5 40 5S7.46 19.569 7.46 37.54"/><path fill="var(--tutor-visual-brand-1, #4979e8)" d="M7.46 37.54C7.46 19.57 22.03 5 40 5s32.54 14.569 32.54 32.54S57.97 70.08 40 70.08C22.31 70.078 7.916 55.962 7.47 38.38zm-.75 0A32.5 32.5 0 0 0 7.904 47.97c3.688 13.77 17.483 24.35 32.095 24.11 18.41.45 34.95-16.212 34.402-34.539.348-18.342-16.304-34.628-34.402-33.984-14.36-.06-27.83 10.112-31.82 23.643A33.3 33.3 0 0 0 6.71 37.54"/><path fill="var(--tutor-visual-success-1, #28a745)" d="M35.593 54.629a3.6 3.6 0 0 1-2.871-1.429l-9.233-12.199a3.59 3.59 0 0 1 .698-5.041 3.593 3.593 0 0 1 5.046.698l6.075 8.02 15.274-24.527a3.607 3.607 0 0 1 4.964-1.15 3.6 3.6 0 0 1 1.152 4.962L38.652 52.929a3.59 3.59 0 0 1-2.894 1.695z"/><circle cx="65.212" cy="65.862" r="1.472" fill="var(--tutor-visual-brand-1, #4979e8)"/><circle cx="70.134" cy="62.765" r="2.405" fill="var(--tutor-visual-brand-1, #4979e8)"/></svg>