<svg xmlns="http://www.w3.org/2000/svg" width="80" height="80" fill="none"><ellipse cx="40" cy="69.17" fill="var(--tutor-visual-brand-1, #4979e8)" rx="38" ry="5.2"/><path fill="var(--tutor-visual-brand-1, #4979e8)" d="M56.225 27.235c-7.778-15.124-31.044-15.217-40.727-3.7 14.891-31.208 44.33-4.518 51.786 12.568l-6.998 5.462c-4.69-2.632-12.467-6.56-13.973-8.728-2.806-4.038 1.402-7.831 3.798-7.559s4.577 1.31 6.114 1.957"/><path fill="var(--tutor-visual-gray-1, #ffffff)" d="M39.49 68.145a3.68 3.68 0 0 1-3.678 3.678C17.22 71.823 2 57.089 2 38.726 2 20.364 17.22 5.63 35.812 5.63c14.58 0 27.086 9.06 31.805 21.824.241.652 1.148.756 1.502.157l2.035-3.442a3.678 3.678 0 1 1 6.335 3.741l-7.992 13.508a3.68 3.68 0 0 1-4.972 1.334L50.688 34.95a3.68 3.68 0 0 1 .819-6.748 3.68 3.68 0 0 1 2.795.34l5.595 3.155c.612.345 1.324-.207 1.102-.874-3.419-10.312-13.348-17.84-25.182-17.84-14.7 0-26.462 11.607-26.462 25.742s11.762 25.742 26.457 25.742a3.677 3.677 0 0 1 3.678 3.677"/><path fill="var(--tutor-visual-brand-1, #4979e8)" d="M39.49 68.146a3.68 3.68 0 0 0-3.678-3.678c-14.694 0-26.457-11.606-26.458-25.741s11.764-25.742 26.463-25.742c11.834 0 21.763 7.528 25.182 17.84.22.666-.49 1.218-1.102.873l-5.595-3.156a3.677 3.677 0 0 0-4.703 5.474c.299.38.669.698 1.09.936l13.836 7.8a3.677 3.677 0 0 0 4.972-1.334l7.992-13.508a3.68 3.68 0 0 0-6.335-3.74l-2.035 3.442c-.354.598-1.26.494-1.502-.158C62.897 14.691 50.391 5.63 35.812 5.63 17.22 5.63 2 20.365 2 38.727s15.22 33.096 33.812 33.096a3.677 3.677 0 0 0 3.673-3.496zm.562 0a4.28 4.28 0 0 1-1.199 3.04 4.34 4.34 0 0 1-3.04 1.32c-3.942.08-7.903-.507-11.668-1.754C10.728 66.512.485 53.13.601 38.727c-.14-9.925 4.483-19.768 12.082-26.143 6.383-5.45 14.75-8.481 23.13-8.446 13.925-.173 27.502 8.71 32.713 21.653l1.397-2.35a5.12 5.12 0 0 1 3.126-2.343 5.12 5.12 0 0 1 3.864.553 5.1 5.1 0 0 1 2.339 3.12 5.1 5.1 0 0 1-.553 3.855q-4.012 6.746-8.025 13.488a5.06 5.06 0 0 1-3.04 2.298 5.05 5.05 0 0 1-3.773-.484q-6.907-3.92-13.812-7.844a4.98 4.98 0 0 1-2.342-3.002 4.97 4.97 0 0 1 1.731-5.236 4.96 4.96 0 0 1 3.653-1.008c.642.08 1.268.286 1.83.606l4.486 2.55c-3.586-9.414-13.416-16.023-23.59-15.921-13.275-.417-25.803 11.164-25.593 24.654-.172 9.538 5.908 18.734 14.634 22.692a26.4 26.4 0 0 0 10.954 2.446 4.28 4.28 0 0 1 3.013 1.268 4.26 4.26 0 0 1 1.227 3.013M65.567 48.986a2.046 2.046 0 0 1 1.704 3.641l2.997-.77a.786.786 0 0 1 .957.565l.475 1.85a2.046 2.046 0 1 1 .674 2.625l.715 2.78a.786.786 0 0 1-.565.956l-1.62.442c-.28-1.095-1.416-1.774-2.51-1.493-1.095.281-1.757 1.425-1.476 2.52l-1.649.395a.786.786 0 0 1-.956-.565l-.686-2.669a2.046 2.046 0 1 1-.68-2.65l-.498-1.936a.786.786 0 0 1 .565-.956l2.817-.724a2.045 2.045 0 0 1-.264-4.011"/><path fill="var(--tutor-visual-brand-1, #4979e8)" d="M18.84 44.559a1.34 1.34 0 0 0-.384-1.061 1.58 1.58 0 0 0-1.115-.44c-.427 0-.835.157-1.116.439a1.34 1.34 0 0 0-.385 1.06c.025.439.092.864.19 1.275 2.412 6.835 8.437 10.694 14.615 11.57.347.02.697.02 1.037-.005a8 8 0 0 1-1.018-.144c-5.823-1.548-10.95-6.797-11.827-11.917a4 4 0 0 1 .003-.777"/></svg>