<svg xmlns="http://www.w3.org/2000/svg" width="149" height="127" fill="none"><path fill="#4979e8" fill-rule="evenodd" d="M69.65 113.191c36.541 0 66.163 2.875 66.163 6.42s-29.622 6.42-66.164 6.42c-36.541 0-66.164-2.874-66.164-6.42s29.623-6.42 66.164-6.42m65.777-63.97c4.011 9.18 4.77 34.419-21.142 31.068l2.175 11.914c.493 1.959.969 9.241-5.509 12.171-4.382 1.982-14.678-29.573-20.574-44.39zm11.259 19.49c.416-.06.836.04 1.155.277.318.238.51.596.545.993.047.49.068.997.067 1.483.432 9.073-8.074 16.429-16.266 15.764q-.659.005-1.35-.021.69-.05 1.34-.13c8.312-.415 14.627-7.896 13.428-15.475-.044-.401-.107-.81-.187-1.19-.08-.39.003-.788.241-1.107a1.56 1.56 0 0 1 1.027-.593M27.336 33.337q-.682.095-1.323.216c-8.195.968-14.214 8.614-12.653 16.106.064.396.146.8.245 1.174.099.386.037.788-.185 1.118a1.56 1.56 0 0 1-.997.643 1.56 1.56 0 0 1-1.167-.219c-.33-.222-.54-.57-.594-.964-.07-.487-.117-.99-.139-1.474-.854-9.06 7.331-16.632 15.47-16.533q.655-.048 1.344-.067m75.934-19.172a2.684 2.684 0 1 1 0 5.368 2.684 2.684 0 0 1 0-5.368M110.352 0a4.399 4.399 0 1 1 0 8.798 4.399 4.399 0 0 1 0-8.798" clip-rule="evenodd"/><mask id="path-2-outside-1_17587_229353" width="138" height="118" x="-.508" y="2.856" fill="#000" maskUnits="userSpaceOnUse"><path fill="#fff" d="M-.508 2.856h138v118h-138z"/><path d="M50.515 4.404c9.252-2.378 18.68 3.197 21.06 12.448 1.353 5.268.127 10.587-2.887 14.632-.66.886.302 2.663 1.373 2.387l20.205-5.192a6.644 6.644 0 0 1 8.086 4.78l3.365 13.093c.229.891 1.492 1.053 2.031.307a17.2 17.2 0 0 1 9.708-6.623c9.254-2.378 18.682 3.194 21.06 12.448 2.376 9.252-3.196 18.682-12.448 21.06a17.18 17.18 0 0 1-11.703-1.137c-.831-.396-1.861.355-1.631 1.246l5.382 20.944a6.643 6.643 0 0 1-4.779 8.086l-12.713 3.472c-.539.147-1.09-.177-1.26-.708-2.782-8.678-12.032-13.94-20.955-11.648-8.923 2.294-14.446 11.371-12.696 20.314.107.548-.22 1.098-.764 1.229l-12.951 3.106a6.644 6.644 0 0 1-8.087-4.78l-5.15-20.04c-.228-.888-1.481-1.053-2.021-.312a17.2 17.2 0 0 1-9.64 6.54c-9.253 2.377-18.681-3.195-21.06-12.448-2.377-9.253 3.196-18.68 12.449-21.06a17.2 17.2 0 0 1 11.598 1.083c.83.388 1.849-.36 1.62-1.248l-3.56-13.854a6.644 6.644 0 0 1 4.78-8.086l18.676-4.8c1.07-.275 1.057-2.296.05-2.754-4.591-2.09-8.232-6.157-9.586-11.425-2.376-9.252 3.196-18.681 12.448-21.06"/></mask><path fill="#fff" d="M50.515 4.404c9.252-2.378 18.68 3.197 21.06 12.448 1.353 5.268.127 10.587-2.887 14.632-.66.886.302 2.663 1.373 2.387l20.205-5.192a6.644 6.644 0 0 1 8.086 4.78l3.365 13.093c.229.891 1.492 1.053 2.031.307a17.2 17.2 0 0 1 9.708-6.623c9.254-2.378 18.682 3.194 21.06 12.448 2.376 9.252-3.196 18.682-12.448 21.06a17.18 17.18 0 0 1-11.703-1.137c-.831-.396-1.861.355-1.631 1.246l5.382 20.944a6.643 6.643 0 0 1-4.779 8.086l-12.713 3.472c-.539.147-1.09-.177-1.26-.708-2.782-8.678-12.032-13.94-20.955-11.648-8.923 2.294-14.446 11.371-12.696 20.314.107.548-.22 1.098-.764 1.229l-12.951 3.106a6.644 6.644 0 0 1-8.087-4.78l-5.15-20.04c-.228-.888-1.481-1.053-2.021-.312a17.2 17.2 0 0 1-9.64 6.54c-9.253 2.377-18.681-3.195-21.06-12.448-2.377-9.253 3.196-18.68 12.449-21.06a17.2 17.2 0 0 1 11.598 1.083c.83.388 1.849-.36 1.62-1.248l-3.56-13.854a6.644 6.644 0 0 1 4.78-8.086l18.676-4.8c1.07-.275 1.057-2.296.05-2.754-4.591-2.09-8.232-6.157-9.586-11.425-2.376-9.252 3.196-18.681 12.448-21.06"/><path fill="#4979e8" d="m50.328 3.678.374 1.453c7.718-1.963 16.236 2.57 18.963 9.794q.434 1.092.708 2.236c1.144 4.65.033 9.72-2.86 13.448-.837 1.217-.52 2.361-.112 3.18a3.2 3.2 0 0 0 1.025 1.167c.471.338 1.28.576 2.01.376a6055 6055 0 0 0 20.262-4.97c2.522-.68 5.338 1.049 5.885 3.55a6083 6083 0 0 0 3.28 13.116c.769 2.636 4.036 2.905 5.447.958a15.35 15.35 0 0 1 8.638-5.839c5.146-1.356 10.9.247 14.631 4.02a15.24 15.24 0 0 1 4 7.014c2.222 7.84-3.061 16.796-11.006 18.637a15.25 15.25 0 0 1-10.358-.998c-2.211-1.05-5.001.786-4.396 3.525q2.701 10.47 5.407 20.938c.687 2.399-.933 5.157-3.371 5.724l-.029.008-12.707 3.492c.502-.133.952.172 1.065.556-2.89-9.472-13.675-15.51-23.238-12.864-9.652 2.333-16.059 12.858-13.992 22.458-.072-.335.142-.748.578-.855l-12.942 3.144-.028.007c-2.5.722-5.387-.96-5.987-3.512q-2.608-10.012-5.22-20.023c-.688-2.378-3.67-2.623-4.938-.868a15.62 15.62 0 0 1-8.713 5.963c-8.038 2.316-17.29-3.072-19.229-11.274-2.336-8.092 3.086-17.418 11.351-19.377 3.534-.942 7.382-.6 10.712.945 1.716.81 3.9-.67 3.414-2.744q-1.816-6.918-3.634-13.835c-.808-2.776 1.051-5.991 3.895-6.669q9.325-2.452 18.65-4.907c1.288-.375 1.587-1.591 1.576-2.36-.027-.803-.283-1.795-1.362-2.333-4.437-1.958-7.898-5.999-9.112-10.726a16.5 16.5 0 0 1-.442-2.347c-1.028-7.8 4.446-15.869 12.179-17.755zc-8.457 1.94-14.644 10.706-13.617 19.402q.135 1.322.458 2.615c1.282 5.273 5.101 9.865 10.062 12.123-.03-.047.16.195.145.492a.75.75 0 0 1-.068.33c-.04.061-.007.002.036-.006Q37.99 40.98 28.64 43.327c-4.05.918-6.782 5.47-5.664 9.503q1.742 6.937 3.488 13.873c-.04-.107.048-.261.052-.247-.002-.005.047-.03.12 0-3.841-1.833-8.346-2.282-12.485-1.221C4.458 67.43-2.077 78.333.606 87.977c2.214 9.758 13.191 16.326 22.89 13.622 4.199-1.045 8.012-3.617 10.566-7.118a.47.47 0 0 1-.427.206.5.5 0 0 1-.25-.113.68.68 0 0 1-.219-.336q2.54 10.029 5.083 20.058c.995 4.343 5.875 7.251 10.184 6.046l-.027.007 12.96-3.068c1.5-.338 2.407-1.928 2.106-3.312-1.65-7.798 3.668-16.368 11.4-18.169 7.658-2.11 16.412 2.85 18.67 10.43.418 1.413 2.041 2.415 3.586 1.973l12.719-3.451-.028.007c4.456-1.028 7.427-6.037 6.188-10.448l-5.359-20.95c.049.172.036.43-.041.609a.82.82 0 0 1-.275.364c-.177.137-.504.208-.817.06 4.012 1.93 8.732 2.4 13.047 1.275 10.016-2.312 16.685-13.586 13.89-23.482a19.25 19.25 0 0 0-5.048-8.851c-4.696-4.758-11.987-6.756-18.439-5.011-4.313 1.101-8.211 3.784-10.78 7.407.193-.263.492-.348.694-.314.111.016.242.059.385.176.143.112.27.32.306.482a5912 5912 0 0 0-3.45-13.072c-1.048-4.393-5.998-7.256-10.287-6.009a6086 6086 0 0 0-20.148 5.415c.183-.051.398.035.407.057.025.025-.036-.02-.074-.09a.6.6 0 0 1-.07-.179c-.005-.031.002.049-.085.16 3.305-4.497 4.404-10.5 2.913-15.814a18.6 18.6 0 0 0-.897-2.546c-3.426-8.218-13.24-12.813-21.55-10.32m.374 1.453-.374-1.453z" mask="url(#path-2-outside-1_17587_229353)"/><path fill="#4979e8" fill-rule="evenodd" d="M34.852 82.113q.134.277.254.56c1.44 3.435 1.263 7.516-.267 11.143-.088.2-.19.412-.297.613a.88.88 0 0 1-.591.463 1.06 1.06 0 0 1-.79-.152 1.06 1.06 0 0 1-.475-.647.88.88 0 0 1 .164-.733c.105-.134.215-.29.315-.442 1.815-2.874 2.702-6.64 1.845-10.213-.048-.2-.1-.394-.158-.592m69.803-16.972c.053.2.111.394.174.59 1.134 3.498 3.859 6.2 6.814 7.628.158.072.324.142.473.195.373.147.653.431.765.813s.047.83-.167 1.223c-.215.392-.557.69-.938.8a1.25 1.25 0 0 1-1.098-.203 9 9 0 0 1-.574-.428c-3.13-2.624-5.154-6.259-5.423-10a13 13 0 0 1-.026-.618" clip-rule="evenodd"/></svg>