<svg xmlns="http://www.w3.org/2000/svg" width="96" height="96" fill="none" viewBox="0 0 96 96"><path fill="var(--tutor-visual-gray-2, #ececed)" stroke="var(--tutor-visual-gray-3, #cecfd2)" stroke-dasharray="2.65 2.65" stroke-width=".66" d="M40.589 16.238A7.215 7.215 0 0 1 46.6 29.083l10.574-2.717a2.77 2.77 0 0 1 3.373 1.994l1.678 6.528a7.2 7.2 0 0 1 4.624-3.7 7.217 7.217 0 1 1 3.593 13.98 7.2 7.2 0 0 1-5.837-1.02l2.52 9.804a2.77 2.77 0 0 1-1.995 3.374l-5.712 1.56c-.992-3.861-5-6.259-8.86-5.267-3.86.993-6.196 5.029-5.204 8.89l-5.816 1.394a2.77 2.77 0 0 1-3.373-1.994l-2.42-9.414a7.2 7.2 0 0 1-4.594 3.651 7.217 7.217 0 0 1-3.593-13.98 7.2 7.2 0 0 1 5.785.983l-1.756-6.832a2.77 2.77 0 0 1 1.994-3.374l9.939-2.554a7.215 7.215 0 0 1-.931-14.15Z"/><ellipse cx="47.796" cy="76.991" fill="var(--tutor-visual-gray-2, #ececed)" rx="21" ry="3"/></svg>