<svg xmlns="http://www.w3.org/2000/svg" width="574" height="200" fill="none" viewBox="0 0 574 200"><path fill="#4979e8" fill-rule="evenodd" d="M281.669 150.177c36.542 0 66.164 2.874 66.164 6.419 0 3.546-29.622 6.42-66.164 6.42-36.541 0-66.164-2.874-66.164-6.42s29.623-6.419 66.164-6.419m65.779-63.97c4.01 9.178 4.769 34.418-21.143 31.067l2.175 11.914c.493 1.959.969 9.241-5.509 12.171-4.382 1.982-14.678-29.573-20.574-44.39zm11.258 19.49c.416-.06.836.038 1.155.276s.511.596.545.993c.047.491.068.998.067 1.483.432 9.073-8.074 16.429-16.266 15.764q-.659.005-1.35-.021.69-.048 1.341-.13c8.311-.415 14.626-7.896 13.427-15.475a12 12 0 0 0-.187-1.19c-.08-.39.003-.788.241-1.107a1.56 1.56 0 0 1 1.027-.593M239.357 70.321q-.683.095-1.325.216c-8.194.968-14.212 8.614-12.652 16.106.064.397.146.8.245 1.174.099.386.037.788-.185 1.118a1.56 1.56 0 0 1-.997.643c-.413.08-.838.003-1.167-.219a1.37 1.37 0 0 1-.594-.964c-.07-.487-.117-.99-.139-1.474-.854-9.06 7.331-16.632 15.47-16.533q.655-.047 1.344-.067M315.29 51.15a2.684 2.684 0 1 1 0 5.368 2.684 2.684 0 0 1 0-5.368m7.082-14.164a4.399 4.399 0 1 1 0 8.798 4.399 4.399 0 0 1 0-8.798" clip-rule="evenodd"/><mask id="a" width="138" height="118" x="211.512" y="39.841" fill="#000" maskUnits="userSpaceOnUse"><path fill="#fff" d="M211.512 39.841h138v118h-138z"/><path d="M262.535 41.39c9.252-2.378 18.68 3.196 21.059 12.447 1.354 5.268.128 10.587-2.886 14.632-.66.887.302 2.663 1.373 2.388l20.205-5.193a6.644 6.644 0 0 1 8.086 4.78l3.365 13.093c.229.892 1.492 1.053 2.031.307a17.2 17.2 0 0 1 9.708-6.623c9.254-2.378 18.682 3.194 21.06 12.448 2.376 9.252-3.196 18.682-12.448 21.06a17.18 17.18 0 0 1-11.703-1.137c-.831-.396-1.861.355-1.631 1.246l5.382 20.944a6.643 6.643 0 0 1-4.779 8.086l-12.713 3.472c-.539.147-1.091-.177-1.261-.708-2.781-8.677-12.031-13.941-20.954-11.647s-14.446 11.371-12.696 20.313c.107.548-.221 1.098-.764 1.229l-12.951 3.106a6.643 6.643 0 0 1-8.086-4.78l-5.151-20.04c-.228-.887-1.481-1.052-2.021-.312a17.2 17.2 0 0 1-9.64 6.54c-9.253 2.378-18.681-3.195-21.059-12.448s3.195-18.681 12.448-21.059a17.2 17.2 0 0 1 11.598 1.082c.83.388 1.849-.361 1.621-1.248l-3.561-13.854a6.643 6.643 0 0 1 4.78-8.086l18.676-4.8c1.071-.275 1.057-2.296.051-2.754-4.592-2.09-8.233-6.157-9.587-11.425-2.376-9.252 3.196-18.681 12.448-21.06"/></mask><path fill="#fff" d="M262.535 41.39c9.252-2.378 18.68 3.196 21.059 12.447 1.354 5.268.128 10.587-2.886 14.632-.66.887.302 2.663 1.373 2.388l20.205-5.193a6.644 6.644 0 0 1 8.086 4.78l3.365 13.093c.229.892 1.492 1.053 2.031.307a17.2 17.2 0 0 1 9.708-6.623c9.254-2.378 18.682 3.194 21.06 12.448 2.376 9.252-3.196 18.682-12.448 21.06a17.18 17.18 0 0 1-11.703-1.137c-.831-.396-1.861.355-1.631 1.246l5.382 20.944a6.643 6.643 0 0 1-4.779 8.086l-12.713 3.472c-.539.147-1.091-.177-1.261-.708-2.781-8.677-12.031-13.941-20.954-11.647s-14.446 11.371-12.696 20.313c.107.548-.221 1.098-.764 1.229l-12.951 3.106a6.643 6.643 0 0 1-8.086-4.78l-5.151-20.04c-.228-.887-1.481-1.052-2.021-.312a17.2 17.2 0 0 1-9.64 6.54c-9.253 2.378-18.681-3.195-21.059-12.448s3.195-18.681 12.448-21.059a17.2 17.2 0 0 1 11.598 1.082c.83.388 1.849-.361 1.621-1.248l-3.561-13.854a6.643 6.643 0 0 1 4.78-8.086l18.676-4.8c1.071-.275 1.057-2.296.051-2.754-4.592-2.09-8.233-6.157-9.587-11.425-2.376-9.252 3.196-18.681 12.448-21.06"/><path fill="#4979e8" d="m262.348 40.663.374 1.453c7.717-1.962 16.236 2.57 18.963 9.794q.435 1.092.708 2.237c1.144 4.65.033 9.72-2.859 13.447-.838 1.217-.521 2.361-.113 3.181.229.425.534.827 1.025 1.167.471.338 1.279.575 2.01.376a6080 6080 0 0 0 20.262-4.97c2.521-.68 5.338 1.048 5.885 3.55q1.634 6.56 3.281 13.115c.768 2.636 4.035 2.905 5.446.958a15.35 15.35 0 0 1 8.638-5.839c5.146-1.356 10.9.247 14.631 4.021a15.25 15.25 0 0 1 4 7.014c2.222 7.84-3.061 16.795-11.006 18.636a15.25 15.25 0 0 1-10.358-.998c-2.211-1.05-5.001.786-4.395 3.525q2.7 10.47 5.406 20.938c.687 2.399-.933 5.157-3.371 5.724l-.029.008-12.707 3.492c.502-.133.952.172 1.065.556-2.891-9.472-13.675-15.51-23.238-12.864-9.652 2.334-16.059 12.858-13.992 22.458-.072-.334.142-.748.578-.854l-12.942 3.143-.028.007c-2.501.722-5.387-.96-5.987-3.512q-2.608-10.012-5.219-20.023c-.689-2.378-3.672-2.623-4.939-.868a15.6 15.6 0 0 1-8.713 5.963c-8.037 2.316-17.29-3.071-19.229-11.273-2.336-8.093 3.086-17.418 11.351-19.378a15.9 15.9 0 0 1 10.712.945c1.716.81 3.9-.67 3.414-2.744l-3.634-13.835c-.808-2.776 1.051-5.99 3.895-6.669q9.325-2.451 18.649-4.907c1.289-.375 1.588-1.591 1.577-2.36-.027-.803-.283-1.795-1.362-2.333-4.437-1.957-7.898-5.998-9.112-10.726a16.5 16.5 0 0 1-.442-2.347c-1.028-7.8 4.446-15.869 12.179-17.755zc-8.457 1.94-14.644 10.706-13.617 19.402q.134 1.322.458 2.615c1.282 5.274 5.101 9.865 10.062 12.124-.03-.048.16.194.145.49a.75.75 0 0 1-.068.331c-.04.061-.007.002.036-.005l-18.704 4.692c-4.051.918-6.782 5.47-5.664 9.503q1.743 6.937 3.488 13.873c-.04-.107.048-.261.052-.247-.002-.005.047-.03.121 0-3.842-1.833-8.347-2.282-12.486-1.221-9.693 2.195-16.228 13.098-13.545 22.742 2.214 9.758 13.191 16.326 22.891 13.622 4.198-1.045 8.011-3.617 10.565-7.118a.47.47 0 0 1-.427.206.5.5 0 0 1-.25-.113.7.7 0 0 1-.219-.336l5.082 20.058c.996 4.343 5.876 7.251 10.185 6.046l-.027.007 12.96-3.068c1.5-.338 2.407-1.928 2.107-3.312-1.651-7.798 3.667-16.368 11.399-18.169 7.658-2.109 16.412 2.85 18.67 10.431.419 1.412 2.041 2.414 3.586 1.972l12.719-3.451-.028.007c4.456-1.028 7.427-6.036 6.188-10.448q-2.678-10.475-5.359-20.949c.049.171.036.429-.041.608a.83.83 0 0 1-.275.364c-.177.137-.504.208-.817.059 4.012 1.931 8.732 2.401 13.048 1.276 10.015-2.312 16.684-13.586 13.889-23.482a19.25 19.25 0 0 0-5.048-8.85c-4.696-4.759-11.987-6.757-18.439-5.012-4.313 1.102-8.211 3.784-10.78 7.407.193-.263.492-.348.694-.314.111.016.242.06.385.176.143.112.27.32.306.482a5897 5897 0 0 0-3.45-13.072c-1.048-4.393-5.998-7.256-10.287-6.009a6055 6055 0 0 0-20.148 5.415c.183-.051.398.035.407.057.025.025-.036-.02-.074-.089a.6.6 0 0 1-.07-.18c-.005-.031.002.05-.085.161 3.305-4.498 4.404-10.502 2.913-15.815a19 19 0 0 0-.897-2.546c-3.426-8.218-13.241-12.813-21.551-10.32m.374 1.453-.374-1.453z" mask="url(#a)"/><path fill="#4979e8" fill-rule="evenodd" d="M246.872 119.098c.09.187.174.37.254.561 1.44 3.434 1.263 7.516-.266 11.143-.089.199-.191.411-.298.612a.88.88 0 0 1-.591.463 1.06 1.06 0 0 1-.789-.152 1.06 1.06 0 0 1-.476-.647.88.88 0 0 1 .164-.732c.105-.135.215-.291.315-.443 1.815-2.874 2.702-6.639 1.845-10.213a12 12 0 0 0-.158-.592m69.803-16.972q.08.298.174.59c1.134 3.498 3.859 6.2 6.814 7.629.158.071.324.141.473.194.373.147.653.431.765.813s.047.831-.167 1.223-.557.689-.938.801c-.382.113-.772.03-1.098-.203a10 10 0 0 1-.574-.429c-3.13-2.624-5.154-6.259-5.423-10a13 13 0 0 1-.026-.618" clip-rule="evenodd"/></svg>