<svg width="80" height="80" viewBox="0 0 80 80" fill="none" xmlns="http://www.w3.org/2000/svg">
<rect width="80" height="80" fill="none"/>
<path d="M39.7588 58.3081C40.0095 58.2315 40.2759 58.1899 40.5518 58.1899C40.6906 58.19 40.8267 58.203 40.96 58.2231L40.7715 53.6323L71.4541 54.3618C64.2791 57.1415 65.5355 57.1648 41.375 64.3687C41.3581 64.374 41.3412 64.3792 41.3242 64.3843C41.2879 64.3951 41.2513 64.4066 41.2148 64.4175L41.2139 64.4126C41.0017 64.466 40.7805 64.4975 40.5518 64.4976C40.2999 64.4976 40.0566 64.4603 39.8252 64.396L39.8262 64.3979C39.8183 64.3956 39.8106 64.3925 39.8027 64.3901C39.7713 64.3811 39.74 64.372 39.709 64.3618C15.5879 57.1122 16.5928 57.4723 9.19824 55.0708L39.707 53.5474L39.7588 58.3081Z" fill="#6B84FF"/>
<mask id="path-2-outside-1_15285_95393" maskUnits="userSpaceOnUse" x="6.05566" y="5.59717" width="68" height="58" fill="black">
<rect fill="white" x="6.05566" y="5.59717" width="68" height="58"/>
<path d="M10.3505 53.493C28.2305 53.493 35.7299 57.2195 40.1327 62.4488C40.3134 62.6634 40.6459 62.6634 40.8259 62.4482C45.2219 57.1944 52.1334 53.493 70.015 53.493C70.6236 53.493 71.2073 53.2512 71.6377 52.8209C72.068 52.3905 72.3098 51.8068 72.3098 51.1982V9.89197C72.3109 9.5903 72.2524 9.29138 72.1374 9.01245C72.0225 8.73352 71.8535 8.48009 71.6402 8.26678C71.4269 8.05346 71.1735 7.88447 70.8945 7.76955C70.6156 7.65463 70.3167 7.59605 70.015 7.59718C52.3271 7.6765 43.6037 11.7454 40.6901 19.7154C40.5342 20.1418 39.8313 20.1418 39.6754 19.7154C36.7618 11.7454 28.0384 7.6765 10.3505 7.59718C10.0488 7.59605 9.74988 7.65463 9.47095 7.76955C9.19202 7.88447 8.93859 8.05346 8.72527 8.26678C8.51195 8.48009 8.34296 8.73352 8.22804 9.01245C8.11312 9.29138 8.05454 9.5903 8.05568 9.89197V50.9214C8.05568 52.3384 8.93344 53.493 10.3505 53.493Z"/>
</mask>
<path d="M10.3505 53.493C28.2305 53.493 35.7299 57.2195 40.1327 62.4488C40.3134 62.6634 40.6459 62.6634 40.8259 62.4482C45.2219 57.1944 52.1334 53.493 70.015 53.493C70.6236 53.493 71.2073 53.2512 71.6377 52.8209C72.068 52.3905 72.3098 51.8068 72.3098 51.1982V9.89197C72.3109 9.5903 72.2524 9.29138 72.1374 9.01245C72.0225 8.73352 71.8535 8.48009 71.6402 8.26678C71.4269 8.05346 71.1735 7.88447 70.8945 7.76955C70.6156 7.65463 70.3167 7.59605 70.015 7.59718C52.3271 7.6765 43.6037 11.7454 40.6901 19.7154C40.5342 20.1418 39.8313 20.1418 39.6754 19.7154C36.7618 11.7454 28.0384 7.6765 10.3505 7.59718C10.0488 7.59605 9.74988 7.65463 9.47095 7.76955C9.19202 7.88447 8.93859 8.05346 8.72527 8.26678C8.51195 8.48009 8.34296 8.73352 8.22804 9.01245C8.11312 9.29138 8.05454 9.5903 8.05568 9.89197V50.9214C8.05568 52.3384 8.93344 53.493 10.3505 53.493Z" fill="white"/>
<path d="M39.559 62.9319C39.9415 62.6099 40.3239 62.2878 40.7064 61.9658C38.2963 58.7792 34.7826 56.438 31.0734 55.0098C24.3785 52.4548 17.2942 51.9093 10.3505 51.7378C10.1354 51.715 10.115 51.6754 10.0315 51.5731C9.95387 51.4677 9.86643 51.2249 9.87945 50.9214C9.99694 43.715 10.0557 36.5085 10.0557 29.3021C10.0557 22.832 10.0504 16.362 10.0399 9.89197C10.0392 9.84478 10.0465 9.80484 10.0613 9.76775C10.076 9.73064 10.0981 9.69639 10.1262 9.66766C10.1541 9.6389 10.1879 9.61566 10.225 9.5998C10.2621 9.5839 10.3025 9.57538 10.343 9.57497C20.9067 9.73277 34.2704 10.5681 37.9239 20.3557C38.3167 21.4454 39.4137 21.9203 40.1828 21.897C40.952 21.9183 42.0461 21.4411 42.4358 20.3535C45.9832 10.4946 59.4389 9.49893 70.0224 9.24362C70.1054 9.24095 70.1905 9.25512 70.27 9.28541C70.3496 9.31561 70.4235 9.36193 70.4859 9.42108C70.5484 9.48016 70.5994 9.55208 70.6347 9.63161C70.67 9.71104 70.6897 9.79798 70.6917 9.88589C70.8018 23.6607 70.9358 37.4295 71.0936 51.1982C71.1015 51.4808 70.9919 51.7676 70.7924 51.9756C70.5944 52.1849 70.3087 52.3126 70.015 52.3186C63.0209 52.4499 55.8689 52.8569 49.1546 55.4756C45.7171 56.8307 42.5435 59.0637 40.242 61.9596C40.3661 61.8151 40.5947 61.8235 40.7064 61.9658C40.3239 62.2878 39.9415 62.6099 39.559 62.9319C40.0057 63.4972 40.9518 63.5057 41.4099 62.9368C43.6502 60.2898 46.5638 58.3628 49.8147 57.1741C56.1555 54.8865 63.1503 54.6274 70.015 54.6674C70.9243 54.6777 71.8334 54.3105 72.483 53.6662C73.1371 53.0266 73.5224 52.1186 73.526 51.1982C73.6838 37.4295 73.8178 23.6607 73.9279 9.89197C73.9325 9.38454 73.8342 8.86985 73.6402 8.39329C73.4467 7.91663 73.1575 7.47847 72.7945 7.11247C72.4319 6.74614 71.9957 6.45233 71.5191 6.25369C71.0426 6.0546 70.5261 5.95086 70.0088 5.95074C59.3205 6.24645 44.3537 6.0947 38.9444 19.0772C39.0485 18.7729 39.3054 18.4866 39.5403 18.3543C39.7787 18.2154 39.985 18.1758 40.1827 18.1734C40.3805 18.1748 40.5873 18.2133 40.8267 18.3517C41.0627 18.4833 41.3213 18.7698 41.4268 19.0751C36.1237 6.0212 21.0649 6.0126 10.3593 5.6194C9.79706 5.61644 9.23578 5.72582 8.71687 5.9393C8.19777 6.15228 7.7215 6.46917 7.32439 6.86589C6.92691 7.26224 6.60896 7.73806 6.39483 8.25716C6.1802 8.77604 6.06958 9.33774 6.07148 9.89946C6.06094 16.362 6.05568 22.832 6.05568 29.3021C6.05568 36.5085 6.11442 43.715 6.23191 50.9214C6.24301 51.9002 6.52656 52.97 7.27506 53.8603C8.00513 54.7636 9.27764 55.288 10.3505 55.2482C17.108 55.1502 23.939 55.3392 30.2711 57.2717C33.7883 58.3608 37.0636 60.182 39.559 62.9319ZM40.7064 61.9658L39.559 62.9319L40.7064 61.9658V61.9658Z" fill="#6B84FF" mask="url(#path-2-outside-1_15285_95393)"/>
<path d="M11.9683 14.965C11.65 14.9795 11.3571 15.1206 11.155 15.3667C10.9528 15.6122 10.858 15.9426 10.8904 16.2757C10.9229 16.6089 11.0798 16.9147 11.3256 17.1166C11.5714 17.319 11.8861 17.4009 12.2012 17.3536C12.2012 17.3536 12.2012 17.3536 12.2012 17.3536C12.5359 17.3029 12.9426 17.2565 13.3159 17.2169C17.6876 16.8075 22.2487 16.7496 26.4182 18.1514C28.7961 19.0118 31.1459 20.0099 33.2209 21.4779C33.5386 21.7106 33.8468 21.9477 34.1223 22.2271C34.1223 22.2271 34.1223 22.2271 34.1223 22.2271C33.8762 21.9205 33.5917 21.6505 33.2963 21.3845C31.3618 19.6951 29.0849 18.4382 26.7637 17.3207C22.4982 15.3901 17.8037 14.9828 13.1968 14.94C12.7936 14.9414 12.3888 14.9466 11.9683 14.965Z" fill="#C0CAFE"/>
<path d="M12.4673 20.6979C12.1493 20.7174 11.8577 20.863 11.6575 21.1105C11.4571 21.3576 11.3645 21.6864 11.3992 22.0167C11.4339 22.3469 11.5928 22.6493 11.8401 22.8494C12.0874 23.0499 12.4029 23.1317 12.718 23.0847C12.718 23.0847 12.718 23.0847 12.718 23.0847C13.1268 23.0249 13.5982 22.9744 14.0474 22.9321C18.3705 22.5626 22.8591 22.6574 27.0042 23.974C30.6842 25.1927 34.1467 27.186 37.2641 29.5932C37.6351 29.8834 38.0012 30.179 38.3476 30.4829C38.0287 30.15 37.6882 29.8235 37.3418 29.5019C34.4285 26.8276 31.1193 24.5093 27.4043 22.9131C23.1339 21.147 18.5019 20.659 13.9355 20.6549C13.4493 20.6594 12.9817 20.668 12.4673 20.6979Z" fill="#C0CAFE"/>
<path d="M9.33366 10.3789C9.45318 9.0661 9.2222 7.60023 12.0616 7.60023L9.33366 6.50049L7.46875 8.36518L7.91619 53.5654L17.0031 56.0261L40.0899 62.4096C28.3695 46.664 9.33366 56.0261 9.33366 49.6868C9.33366 43.3476 9.21414 11.6918 9.33366 10.3789Z" fill="#6B84FF"/>
<rect x="8.27637" y="73.5" width="3.27566" height="64.2539" rx="1.63783" transform="rotate(-90 8.27637 73.5)" fill="#C0CAFE"/>
<rect x="8.27637" y="73.5" width="3.27566" height="47.1885" rx="1.63783" transform="rotate(-90 8.27637 73.5)" fill="#6B84FF"/>
<mask id="path-9-outside-2_15285_95393" maskUnits="userSpaceOnUse" x="25.5283" y="31.0879" width="31" height="32" fill="black">
<rect fill="white" x="25.5283" y="31.0879" width="31" height="32"/>
<circle cx="14.1258" cy="14.1258" r="14.1258" transform="matrix(-1 0 0 1 54.5283 33.0879)"/>
</mask>
<circle cx="14.1258" cy="14.1258" r="14.1258" transform="matrix(-1 0 0 1 54.5283 33.0879)" fill="white"/>
<path d="M25.6767 47.2137C26.0767 47.2137 26.4767 47.2137 26.8767 47.2137C27.0097 48.6338 27.3502 50.0061 27.8776 51.2839C29.9687 56.4373 35.1358 59.7986 40.4025 59.7395C47.0656 59.8996 53.1207 53.9422 53.0394 47.2137C53.2809 40.4973 47.3149 34.2384 40.4025 34.2434C34.9337 34.0409 29.5063 37.7284 27.6578 43.0722C27.1847 44.3933 26.9207 45.7938 26.8767 47.2137C26.4767 47.2137 26.0767 47.2137 25.6767 47.2137C25.6316 45.6707 25.8295 44.1152 26.2713 42.6219C27.9695 36.5903 33.942 31.9586 40.4025 31.9323C48.5387 31.5715 56.1416 38.8816 56.0172 47.2137C56.3018 55.5338 48.7879 63.1453 40.4025 62.9395C40.4025 62.9395 40.4025 62.9395 40.4025 62.9395C33.7399 63.0567 27.5071 58.0989 26.0515 51.8768C25.664 50.3402 25.5426 48.7566 25.6767 47.2137ZM26.8767 47.2137H25.6767H26.8767Z" fill="#6B84FF" mask="url(#path-9-outside-2_15285_95393)"/>
<path fill-rule="evenodd" clip-rule="evenodd" d="M39.6677 38.5914C41.1613 38.4639 42.6625 38.7266 44.0241 39.3538C45.3856 39.9809 46.561 40.9509 47.4349 42.1689V40.4532C47.4349 40.238 47.5204 40.0316 47.6726 39.8795C47.8247 39.7273 48.0311 39.6418 48.2463 39.6418C48.4615 39.6418 48.6678 39.7273 48.82 39.8795C48.9721 40.0316 49.0576 40.238 49.0576 40.4532V44.5417C49.0576 44.8228 48.8297 45.0508 48.5485 45.0508H44.46C44.2448 45.0508 44.0385 44.9653 43.8863 44.8131C43.7342 44.661 43.6487 44.4546 43.6487 44.2394C43.6487 44.0242 43.7342 43.8179 43.8863 43.6657C44.0385 43.5136 44.2448 43.4281 44.46 43.4281H46.3283C45.5885 42.2705 44.5257 41.3549 43.2714 40.7946C42.017 40.2342 40.626 40.0536 39.2701 40.2749C37.9143 40.4963 36.6529 41.1101 35.642 42.0403C34.631 42.9706 33.9147 44.1766 33.5816 45.5094C33.557 45.6141 33.5119 45.7129 33.4488 45.8C33.3857 45.8871 33.3059 45.9608 33.2141 46.0168C33.1223 46.0727 33.0202 46.1099 32.9139 46.1261C32.8076 46.1423 32.6991 46.1372 32.5948 46.1111C32.4905 46.085 32.3924 46.0384 32.3062 45.9741C32.22 45.9097 32.1475 45.8289 32.0929 45.7363C32.0382 45.6436 32.0026 45.5411 31.9879 45.4345C31.9733 45.328 31.98 45.2196 32.0076 45.1157C32.4452 43.3658 33.4187 41.7964 34.7919 40.6268C36.1651 39.4573 37.8694 38.746 39.6666 38.5925L39.6677 38.5914ZM35.9896 54.6581C37.1493 55.3455 38.4535 55.7524 39.7983 55.8465C41.143 55.9406 42.4912 55.7192 43.7353 55.2C44.9793 54.6809 46.0849 53.8782 46.9639 52.8562C47.8429 51.8341 48.4709 50.6208 48.798 49.313C48.8467 49.1055 48.8118 48.8872 48.7008 48.7052C48.5899 48.5232 48.4118 48.3922 48.205 48.3405C47.9983 48.2888 47.7795 48.3205 47.5959 48.4288C47.4123 48.5371 47.2787 48.7132 47.224 48.9192C46.8906 50.2518 46.1743 51.4575 45.1634 52.3875C44.1526 53.3175 42.8915 53.9311 41.5358 54.1525C40.1802 54.3739 38.7894 54.1933 37.5352 53.6332C36.281 53.0731 35.2183 52.1579 34.4784 51.0006H36.3466C36.5618 51.0006 36.7682 50.9151 36.9203 50.7629C37.0725 50.6108 37.158 50.4044 37.158 50.1892C37.158 49.9741 37.0725 49.7677 36.9203 49.6155C36.7682 49.4634 36.5618 49.3779 36.3466 49.3779H32.2581C31.9769 49.3779 31.749 49.6058 31.749 49.887V53.9755C31.749 54.1907 31.8345 54.397 31.9867 54.5492C32.1388 54.7014 32.3452 54.7868 32.5604 54.7868C32.7755 54.7868 32.9819 54.7014 33.1341 54.5492C33.2862 54.397 33.3717 54.1907 33.3717 53.9755V52.2598C34.0692 53.2316 34.9606 54.0482 35.9896 54.6581Z" fill="#05AC6D"/>
</svg>
