<svg xmlns="http://www.w3.org/2000/svg" width="80" height="80" fill="none"><path fill="var(--tutor-visual-brand-1, #4979e8)" d="M39.759 58.306a2.7 2.7 0 0 1 1.201-.085l-.188-4.588 30.682.73c-7.19 2.785-5.913 2.804-30.239 10.055v-.008a2.7 2.7 0 0 1-.663.085c-.252 0-.495-.037-.727-.101l.001.004-.067-.02-.022-.008c-24.15-7.258-23.141-6.897-30.539-9.3l30.51-1.523z"/><path fill="var(--tutor-visual-gray-1, #ffffff)" d="M10.351 53.494c17.88 0 25.38 3.726 29.782 8.955.18.215.513.215.693 0 4.396-5.254 11.308-8.955 29.19-8.955a2.295 2.295 0 0 0 2.294-2.295V9.892a2.285 2.285 0 0 0-2.294-2.294c-17.688.079-26.412 4.148-29.325 12.118-.156.426-.86.426-1.015 0-2.914-7.97-11.637-12.039-29.325-12.118a2.286 2.286 0 0 0-2.295 2.294v41.03c0 1.417.878 2.572 2.295 2.572"/><path fill="var(--tutor-visual-brand-1, #4979e8)" d="M10.36 5.62c9.971.366 23.717.4 29.84 10.95C46.405 6.115 60.06 6.226 70.01 5.951a3.93 3.93 0 0 1 2.785 1.162 3.92 3.92 0 0 1 1.133 2.78q-.164 20.652-.401 41.305a3.491 3.491 0 0 1-3.512 3.47c-6.864-.04-13.86.22-20.2 2.507-3.25 1.189-6.164 3.116-8.404 5.763-.458.568-1.405.56-1.852-.005-2.495-2.75-5.77-4.571-9.287-5.66-6.332-1.933-13.163-2.122-19.92-2.024-1.074.04-2.346-.485-3.076-1.389-.749-.89-1.033-1.96-1.044-2.938q-.177-10.81-.176-21.62 0-9.707.016-19.402a4.28 4.28 0 0 1 1.253-3.034A4.27 4.27 0 0 1 10.36 5.62m59.655 1.978c-17.687.079-26.41 4.148-29.324 12.118-.156.426-.859.426-1.015 0-2.913-7.97-11.637-12.039-29.325-12.118a2.29 2.29 0 0 0-2.295 2.295v41.029c0 1.417.878 2.571 2.295 2.571 17.88 0 25.38 3.727 29.782 8.956.181.215.514.214.694 0 4.396-5.254 11.307-8.956 29.188-8.956a2.296 2.296 0 0 0 2.295-2.295V9.893a2.3 2.3 0 0 0-.669-1.625 2.3 2.3 0 0 0-1.626-.67"/><path fill="var(--tutor-visual-brand-2, #a4bcf4)" d="M11.97 14.964a30 30 0 0 1 1.227-.025c4.607.042 9.302.45 13.568 2.381 2.32 1.117 4.598 2.374 6.532 4.064.295.265.58.536.826.842a7.3 7.3 0 0 0-.902-.75c-2.075-1.467-4.425-2.466-6.803-3.326-4.169-1.402-8.73-1.343-13.102-.934-.373.04-.78.086-1.115.137a1.1 1.1 0 0 1-.875-.237 1.24 1.24 0 0 1-.435-.84 1.24 1.24 0 0 1 .264-.91 1.1 1.1 0 0 1 .814-.402M13.936 20.654c4.566.004 9.198.492 13.468 2.258 3.715 1.596 7.025 3.914 9.938 6.589.347.321.687.648 1.006.981-.347-.304-.713-.6-1.084-.89-3.117-2.407-6.58-4.4-10.26-5.62-4.145-1.316-8.633-1.41-12.956-1.04-.449.041-.921.092-1.33.152a1.12 1.12 0 0 1-.877-.235 1.24 1.24 0 0 1-.441-.833c-.035-.33.057-.66.257-.906.2-.248.493-.394.81-.413.515-.03.983-.039 1.469-.043"/><path fill="var(--tutor-visual-brand-1, #4979e8)" d="M12.062 7.6c-2.84 0-2.608 1.466-2.728 2.779-.119 1.318 0 32.969 0 39.308S28.37 46.664 40.09 62.409l-23.087-6.384-9.086-2.46-.448-45.2L9.334 6.5z"/><rect width="3.276" height="64.254" x="8.277" y="73.5" fill="var(--tutor-visual-brand-2, #a4bcf4)" rx="1.638" transform="rotate(-90 8.277 73.5)"/><rect width="3.276" height="47.188" x="8.277" y="73.5" fill="var(--tutor-visual-brand-1, #4979e8)" rx="1.638" transform="rotate(-90 8.277 73.5)"/><path fill="var(--tutor-visual-gray-1, #ffffff)" d="M26.277 47.212c0 7.801 6.324 14.126 14.126 14.126s14.126-6.325 14.126-14.126c0-7.802-6.325-14.126-14.126-14.126-7.802 0-14.126 6.324-14.126 14.126"/><path fill="var(--tutor-visual-brand-1, #4979e8)" d="M26.277 47.212c0-7.802 6.324-14.126 14.126-14.126s14.126 6.324 14.126 14.126-6.325 14.126-14.126 14.126c-7.68 0-13.928-6.129-14.121-13.762zm-.6 0a14.1 14.1 0 0 0 .375 4.663c1.456 6.222 7.688 11.18 14.35 11.063 8.386.205 15.9-7.406 15.616-15.726.124-8.332-7.48-15.642-15.615-15.281-6.46.026-12.433 4.658-14.131 10.69a14.7 14.7 0 0 0-.595 4.59"/><path fill="var(--tutor-visual-success-1, #28a745)" fill-rule="evenodd" d="M39.668 38.59a8.65 8.65 0 0 1 7.767 3.577v-1.715a.811.811 0 1 1 1.623 0v4.088a.51.51 0 0 1-.509.51h-4.088a.812.812 0 0 1 0-1.623h1.868a7.033 7.033 0 0 0-12.747 2.081.813.813 0 0 1-1.275.465.81.81 0 0 1-.299-.859 8.65 8.65 0 0 1 7.66-6.523zM35.99 54.657a8.654 8.654 0 0 0 12.808-5.345.811.811 0 0 0-1.574-.394 7.032 7.032 0 0 1-12.745 2.081h1.868a.811.811 0 1 0 0-1.623H32.26a.51.51 0 0 0-.51.51v4.088a.811.811 0 1 0 1.623 0v-1.716a8.65 8.65 0 0 0 2.618 2.399" clip-rule="evenodd"/></svg>