<svg xmlns="http://www.w3.org/2000/svg" width="62" height="79" fill="none" viewBox="0 0 62 79"><mask id="a" width="63" height="62" x="-.555" y="-.316" fill="#000" maskUnits="userSpaceOnUse"><path fill="#fff" d="M-.555-.316h63v62h-63z"/><path d="M1.445 2.484a.8.8 0 0 1 .8-.8h56.4a.8.8 0 0 1 .8.8v56.4a.8.8 0 0 1-.8.8h-56.4a.8.8 0 0 1-.8-.8z"/></mask><path fill="#fff" d="M1.445 2.484a.8.8 0 0 1 .8-.8h56.4a.8.8 0 0 1 .8.8v56.4a.8.8 0 0 1-.8.8h-56.4a.8.8 0 0 1-.8-.8z"/><path fill="#6b84ff" d="M2.245.934v1.5a1333 1333 0 0 0 56.4 1.249c-.64.013-1.213-.558-1.2-1.2q0 28.2.133 56.4c-.01-.57.5-1.074 1.067-1.06q-28.2.135-56.4.404a.656.656 0 0 1 .645.657 11970 11970 0 0 0-.677-56.4c-.007-.016.006-.045.032-.05zC1.42.908.665 1.647.677 2.484a11975 11975 0 0 0-.676 56.4c-.032 1.196 1.04 2.28 2.244 2.256q28.2.27 56.4.405c1.42.034 2.697-1.239 2.667-2.661q.133-28.2.133-56.4c.034-1.494-1.306-2.834-2.8-2.8a1331 1331 0 0 0-56.4 1.25m0 1.5v-1.5z" mask="url(#a)"/><rect width="3.2" height="45.499" x="8.175" y="15.191" fill="#6b84ff" rx="1.6" transform="rotate(-90 8.175 15.191)"/><circle cx="4.185" cy="4.185" r="4.185" fill="#6b84ff" transform="matrix(-1 0 0 1 50.105 9.406)"/><rect width="3.2" height="45.499" x="8.175" y="27.965" fill="#6b84ff" rx="1.6" transform="rotate(-90 8.175 27.965)"/><circle cx="4.185" cy="4.185" r="4.185" fill="#6b84ff" transform="matrix(-1 0 0 1 35.108 22.18)"/><rect width="3.2" height="45.499" fill="#6b84ff" rx="1.6" transform="matrix(0 -1 -1 0 53.673 41.41)"/><circle cx="15.927" cy="39.81" r="4.185" fill="#6b84ff"/><mask id="b" width="31" height="32" x="15.57" y="46.398" fill="#000" maskUnits="userSpaceOnUse"><path fill="#fff" d="M15.57 46.398h31v32h-31z"/><circle cx="14.126" cy="14.126" r="14.126" transform="matrix(-1 0 0 1 44.57 48.398)"/></mask><circle cx="14.126" cy="14.126" r="14.126" fill="#fff" transform="matrix(-1 0 0 1 44.57 48.398)"/><path fill="#6b84ff" d="M15.719 62.524h1.2c.133 1.42.473 2.793 1 4.07 2.092 5.154 7.259 8.515 12.526 8.456 6.663.16 12.718-5.797 12.636-12.526.242-6.716-5.724-12.975-12.637-12.97-5.468-.203-10.896 3.485-12.744 8.829a13.5 13.5 0 0 0-.781 4.141za14.7 14.7 0 0 1 .594-4.592c1.699-6.031 7.671-10.663 14.132-10.69 8.136-.36 15.739 6.95 15.614 15.282.285 8.32-7.23 15.932-15.614 15.726-6.663.117-12.896-4.84-14.352-11.063a14.1 14.1 0 0 1-.374-4.663m1.2 0h-1.2z" mask="url(#b)"/><path fill="#05ac6d" fill-rule="evenodd" d="M29.71 53.902a8.65 8.65 0 0 1 7.767 3.578v-1.716a.811.811 0 1 1 1.623 0v4.089a.51.51 0 0 1-.51.509h-4.088a.812.812 0 0 1 0-1.623h1.868a7.033 7.033 0 0 0-12.746 2.082.813.813 0 0 1-1.276.464.81.81 0 0 1-.298-.858 8.65 8.65 0 0 1 7.659-6.523zM26.032 69.97a8.654 8.654 0 0 0 12.808-5.345.811.811 0 0 0-1.574-.394 7.032 7.032 0 0 1-12.746 2.082h1.869a.811.811 0 1 0 0-1.623H22.3a.51.51 0 0 0-.509.509v4.089a.811.811 0 1 0 1.623 0V67.57a8.65 8.65 0 0 0 2.618 2.398" clip-rule="evenodd"/></svg>