<svg width="80" height="80" viewBox="0 0 80 80" fill="none" xmlns="http://www.w3.org/2000/svg">
<rect width="80" height="80" fill="none"/>
<ellipse cx="39.7821" cy="73.2082" rx="32.1273" ry="4.0842" fill="#6B84FF"/>
<path d="M39.354 54.5156C39.6047 54.439 39.8711 54.3975 40.147 54.3975C40.2859 54.3975 40.4219 54.4105 40.5552 54.4307L40.3667 49.8398L70.8901 50.624C63.7153 53.4036 65.1301 53.3728 40.9712 60.5762C40.954 60.5817 40.9367 60.5867 40.9194 60.5918C40.8831 60.6026 40.8465 60.6141 40.8101 60.625L40.8091 60.6201C40.5969 60.6735 40.3757 60.7051 40.147 60.7051C39.8951 60.7051 39.6518 60.6679 39.4204 60.6035L39.4214 60.6055C39.4135 60.6031 39.4058 60.6 39.3979 60.5977C39.3665 60.5886 39.3352 60.5795 39.3042 60.5693C15.1832 53.3197 16.1881 53.6799 8.79346 51.2783L39.3022 49.7549L39.354 54.5156Z" fill="#6B84FF"/>
<mask id="path-3-outside-1_15267_95931" maskUnits="userSpaceOnUse" x="5.65088" y="1.80469" width="68" height="58" fill="black">
<rect fill="white" x="5.65088" y="1.80469" width="68" height="58"/>
<path d="M9.94569 49.7005C27.8257 49.7005 35.3251 53.4271 39.7279 58.6564C39.9086 58.8709 40.2411 58.8709 40.4211 58.6558C44.8171 53.4019 51.7286 49.7005 69.6102 49.7005C70.2189 49.7005 70.8025 49.4587 71.2329 49.0284C71.6633 48.598 71.905 48.0143 71.905 47.4057V6.09949C71.9062 5.79782 71.8476 5.4989 71.7327 5.21997C71.6177 4.94104 71.4488 4.68761 71.2354 4.4743C71.0221 4.26098 70.7687 4.09199 70.4898 3.97707C70.2108 3.86215 69.9119 3.80357 69.6102 3.8047C51.9223 3.88402 43.199 7.95294 40.2853 15.9229C40.1294 16.3493 39.4265 16.3493 39.2706 15.9229C36.357 7.95294 27.6336 3.88402 9.94569 3.8047C9.64401 3.80357 9.34509 3.86215 9.06616 3.97707C8.78723 4.09199 8.53381 4.26098 8.32049 4.4743C8.10717 4.68761 7.93818 4.94104 7.82326 5.21997C7.70834 5.4989 7.64976 5.79782 7.6509 6.09949V47.1289C7.6509 48.546 8.52865 49.7005 9.94569 49.7005Z"/>
</mask>
<path d="M9.94569 49.7005C27.8257 49.7005 35.3251 53.4271 39.7279 58.6564C39.9086 58.8709 40.2411 58.8709 40.4211 58.6558C44.8171 53.4019 51.7286 49.7005 69.6102 49.7005C70.2189 49.7005 70.8025 49.4587 71.2329 49.0284C71.6633 48.598 71.905 48.0143 71.905 47.4057V6.09949C71.9062 5.79782 71.8476 5.4989 71.7327 5.21997C71.6177 4.94104 71.4488 4.68761 71.2354 4.4743C71.0221 4.26098 70.7687 4.09199 70.4898 3.97707C70.2108 3.86215 69.9119 3.80357 69.6102 3.8047C51.9223 3.88402 43.199 7.95294 40.2853 15.9229C40.1294 16.3493 39.4265 16.3493 39.2706 15.9229C36.357 7.95294 27.6336 3.88402 9.94569 3.8047C9.64401 3.80357 9.34509 3.86215 9.06616 3.97707C8.78723 4.09199 8.53381 4.26098 8.32049 4.4743C8.10717 4.68761 7.93818 4.94104 7.82326 5.21997C7.70834 5.4989 7.64976 5.79782 7.6509 6.09949V47.1289C7.6509 48.546 8.52865 49.7005 9.94569 49.7005Z" fill="white"/>
<path d="M39.1542 59.1394C39.5367 58.8174 39.9192 58.4953 40.3016 58.1733C37.8915 54.9867 34.3778 52.6455 30.6686 51.2173C23.9738 48.6624 16.8894 48.1168 9.94569 47.9453C9.73065 47.9226 9.71019 47.8829 9.62672 47.7806C9.54909 47.6752 9.46164 47.4324 9.47467 47.1289C9.59215 39.9225 9.6509 32.716 9.6509 25.5096C9.6509 19.0396 9.64563 12.5695 9.63511 6.09949C9.63444 6.0523 9.64173 6.01236 9.65648 5.97527C9.67119 5.93816 9.69336 5.90391 9.72137 5.87518C9.74935 5.84642 9.78314 5.82318 9.82024 5.80732C9.85732 5.79142 9.89767 5.7829 9.93823 5.78249C20.5019 5.94029 33.8656 6.77567 37.5191 16.5632C37.9119 17.6529 39.0089 18.1278 39.778 18.1045C40.5472 18.1258 41.6414 17.6486 42.031 16.5611C45.5784 6.70215 59.0341 5.70645 69.6176 5.45114C69.7006 5.44847 69.7857 5.46264 69.8652 5.49293C69.9448 5.52313 70.0187 5.56945 70.0811 5.6286C70.1436 5.68769 70.1946 5.75961 70.2299 5.83913C70.2652 5.91855 70.2849 6.00549 70.2869 6.09341C70.397 19.8682 70.531 33.637 70.6888 47.4057C70.6968 47.6883 70.5872 47.9751 70.3876 48.1831C70.1897 48.3924 69.9039 48.5201 69.6102 48.5261C62.6161 48.6575 55.4641 49.0644 48.7498 51.6832C45.3124 53.0382 42.1387 55.2712 39.8372 58.1672C39.9613 58.0226 40.1899 58.031 40.3016 58.1733C39.9192 58.4953 39.5367 58.8174 39.1542 59.1394C39.6009 59.7048 40.5471 59.7132 41.0051 59.1444C43.2454 56.4973 46.159 54.5703 49.4099 53.3816C55.7507 51.094 62.7455 50.8349 69.6102 50.8749C70.5195 50.8852 71.4286 50.518 72.0782 49.8737C72.7323 49.2341 73.1176 48.3261 73.1212 47.4057C73.279 33.637 73.413 19.8682 73.5232 6.09949C73.5277 5.59206 73.4295 5.07737 73.2354 4.60081C73.0419 4.12413 72.7527 3.68599 72.3897 3.31999C72.0271 2.95366 71.5909 2.65985 71.1143 2.46121C70.6379 2.26212 70.1213 2.15838 69.604 2.15826C58.9157 2.45397 43.9489 2.30222 38.5396 15.2847C38.6437 14.9804 38.9006 14.6941 39.1356 14.5618C39.3739 14.4229 39.5802 14.3833 39.778 14.381C39.9757 14.3823 40.1825 14.4208 40.4219 14.5592C40.6579 14.6909 40.9165 14.9773 41.0221 15.2826C35.7189 2.22872 20.6601 2.22012 9.95455 1.82692C9.39227 1.82395 8.83099 1.93334 8.31209 2.14682C7.79298 2.3598 7.31671 2.67669 6.91961 3.07341C6.52213 3.46976 6.20418 3.94558 5.99004 4.46467C5.77541 4.98356 5.6648 5.54526 5.66669 6.10698C5.65616 12.5695 5.6509 19.0396 5.6509 25.5096C5.6509 32.716 5.70964 39.9225 5.82712 47.1289C5.83823 48.1077 6.12177 49.1775 6.87027 50.0678C7.60034 50.9712 8.87286 51.4956 9.94569 51.4557C16.7032 51.3577 23.5343 51.5467 29.8663 53.4793C33.3835 54.5683 36.6589 56.3895 39.1542 59.1394ZM40.3016 58.1733L39.1542 59.1394L40.3016 58.1733Z" fill="#6B84FF" mask="url(#path-3-outside-1_15267_95931)"/>
<path d="M11.5636 11.172C11.2452 11.1865 10.9523 11.3276 10.7502 11.5737C10.548 11.8192 10.4532 12.1496 10.4857 12.4828C10.5181 12.8159 10.675 13.1218 10.9208 13.3236C11.1666 13.5261 11.4813 13.6079 11.7964 13.5607C11.7964 13.5607 11.7964 13.5607 11.7964 13.5607C12.1311 13.51 12.5378 13.4635 12.9111 13.4239C17.2828 13.0146 21.8439 12.9566 26.0134 14.3585C28.3913 15.2188 30.7411 16.2169 32.8162 17.6849C33.1338 17.9176 33.442 18.1547 33.7175 18.4341C33.7175 18.4341 33.7175 18.4341 33.7175 18.4341C33.4714 18.1275 33.1869 17.8575 32.8915 17.5915C30.957 15.9021 28.6801 14.6452 26.3589 13.5277C22.0934 11.5972 17.3989 11.1898 12.792 11.147C12.3889 11.1484 11.984 11.1537 11.5636 11.172Z" fill="#C0CAFE"/>
<path d="M12.063 16.9049C11.7451 16.9244 11.4534 17.07 11.2532 17.3176C11.0528 17.5647 10.9602 17.8935 10.9949 18.2237C11.0296 18.5539 11.1885 18.8563 11.4358 19.0564C11.6831 19.2569 11.9986 19.3387 12.3137 19.2918C12.3137 19.2918 12.3137 19.2918 12.3137 19.2918C12.7225 19.2319 13.1939 19.1814 13.6431 19.1392C17.9662 18.7696 22.4548 18.8644 26.5999 20.1811C30.2799 21.3998 33.7424 23.3931 36.8598 25.8003C37.2308 26.0904 37.5969 26.3861 37.9433 26.6899C37.6244 26.357 37.2839 26.0306 36.9375 25.7089C34.0242 23.0347 30.715 20.7163 27.0001 19.1201C22.7296 17.354 18.0976 16.8661 13.5312 16.8619C13.045 16.8664 12.5774 16.8751 12.063 16.9049Z" fill="#C0CAFE"/>
<path d="M8.92887 6.58646C9.04839 5.27362 8.81741 3.80775 11.6568 3.80775L8.92887 2.70801L7.06396 4.5727L7.5114 49.7729L16.5984 52.2336L39.6851 58.6171C27.9647 42.8715 8.92887 52.2336 8.92887 45.8943C8.92887 39.5551 8.80935 7.89929 8.92887 6.58646Z" fill="#6B84FF"/>
<mask id="path-8-outside-2_15267_95931" maskUnits="userSpaceOnUse" x="48.8013" y="10.5645" width="31" height="32" fill="black">
<rect fill="white" x="48.8013" y="10.5645" width="31" height="32"/>
<circle cx="14.1258" cy="14.1258" r="14.1258" transform="matrix(-1 0 0 1 77.8013 12.5645)"/>
</mask>
<circle cx="14.1258" cy="14.1258" r="14.1258" transform="matrix(-1 0 0 1 77.8013 12.5645)" fill="white"/>
<path d="M48.9496 26.6903C49.3496 26.6903 49.7496 26.6903 50.1496 26.6903C50.2826 28.1103 50.6232 29.4827 51.1506 30.7604C53.2417 35.9138 58.4088 39.2751 63.6755 39.2161C70.3386 39.3762 76.3937 33.4187 76.3124 26.6903C76.5539 19.9739 70.5879 13.7149 63.6755 13.72C58.2066 13.5175 52.7793 17.205 50.9307 22.5487C50.4577 23.8699 50.1936 25.2703 50.1496 26.6903C49.7496 26.6903 49.3496 26.6903 48.9496 26.6903C48.9046 25.1473 49.1024 23.5917 49.5442 22.0985C51.2425 16.0668 57.215 11.4351 63.6755 11.4089C71.8116 11.0481 79.4146 18.3581 79.2902 26.6903C79.5748 35.0104 72.0609 42.6219 63.6755 42.4161C63.6755 42.4161 63.6755 42.4161 63.6755 42.4161C57.0128 42.5333 50.7801 37.5754 49.3244 31.3534C48.9369 29.8168 48.8156 28.2331 48.9496 26.6903ZM50.1496 26.6903H48.9496H50.1496Z" fill="#6B84FF" mask="url(#path-8-outside-2_15267_95931)"/>
<path d="M64.3422 34.3241C64.3422 34.5772 64.2417 34.82 64.0627 34.9989C63.8838 35.1779 63.641 35.2784 63.388 35.2784C58.5632 35.2784 54.6138 31.455 54.6138 26.69C54.6138 21.925 58.5632 18.1016 63.388 18.1016C67.3386 18.1016 70.7027 20.6654 71.7919 24.2102L72.5591 22.9124C72.6879 22.6944 72.8979 22.5364 73.1431 22.4733C73.3883 22.4102 73.6485 22.4471 73.8665 22.5758C74.0845 22.7046 74.2424 22.9146 74.3055 23.1598C74.3686 23.405 74.3317 23.6652 74.203 23.8832L72.1291 27.3885C72.0021 27.6035 71.7958 27.7602 71.5546 27.8249C71.3134 27.8896 71.0565 27.8572 70.8389 27.7346L67.2483 25.7103C67.1391 25.6487 67.0431 25.5662 66.9658 25.4676C66.8885 25.3689 66.8313 25.2559 66.7977 25.1352C66.764 25.0144 66.7544 24.8882 66.7695 24.7638C66.7846 24.6394 66.8241 24.5191 66.8857 24.4099C66.9472 24.3007 67.0297 24.2047 67.1284 24.1274C67.2271 24.0501 67.34 23.993 67.4607 23.9593C67.5815 23.9256 67.7077 23.9161 67.8321 23.9312C67.9566 23.9463 68.0768 23.9857 68.186 24.0473L70.0589 25.1034C69.3286 22.1922 66.635 20.0101 63.3892 20.0101C59.5747 20.0101 56.5223 23.0218 56.5223 26.69C56.5223 30.3582 59.5747 33.3699 63.388 33.3699C63.641 33.3699 63.8838 33.4704 64.0627 33.6494C64.2417 33.8283 64.3422 34.0711 64.3422 34.3241Z" fill="#D92D20"/>
</svg>
