<svg xmlns="http://www.w3.org/2000/svg" width="80" height="80" fill="none"><ellipse cx="37.349" cy="73.208" fill="var(--tutor-visual-brand-1, #4979e8)" rx="32.127" ry="4.084"/><path fill="var(--tutor-visual-brand-1, #4979e8)" d="M36.92 54.515a2.7 2.7 0 0 1 1.202-.085l-.188-4.591 30.524.785c-7.174 2.78-5.76 2.748-29.911 9.949l-.076.023-.093.028-.001-.005a2.7 2.7 0 0 1-.663.086 2.7 2.7 0 0 1-.727-.102l.001.002-.023-.007-.095-.029c-24.12-7.25-23.115-6.89-30.51-9.29l30.51-1.524z"/><path fill="var(--tutor-visual-gray-1, #ffffff)" d="M7.513 49.701c17.88 0 25.379 3.727 29.782 8.956.18.215.513.215.693 0 4.396-5.254 11.307-8.956 29.19-8.956a2.295 2.295 0 0 0 2.294-2.294V6.1a2.285 2.285 0 0 0-2.295-2.295c-17.688.08-26.411 4.149-29.325 12.119-.156.426-.859.426-1.014 0C33.924 7.954 25.2 3.884 7.512 3.805A2.286 2.286 0 0 0 5.218 6.1v41.03c0 1.417.878 2.571 2.295 2.571"/><path fill="var(--tutor-visual-brand-1, #4979e8)" d="M7.521 1.828c9.972.366 23.717.4 29.841 10.95 6.204-10.455 19.86-10.344 29.809-10.62a3.93 3.93 0 0 1 2.786 1.163 3.92 3.92 0 0 1 1.133 2.78q-.165 20.652-.401 41.305a3.49 3.49 0 0 1-3.512 3.47c-6.865-.04-13.86.219-20.2 2.507-3.251 1.188-6.164 3.115-8.405 5.762-.458.57-1.405.56-1.851-.005-2.495-2.75-5.77-4.57-9.287-5.66-6.332-1.932-13.164-2.121-19.921-2.023-1.073.04-2.345-.486-3.075-1.389-.749-.89-1.033-1.96-1.044-2.938q-.176-10.81-.176-21.62c0-6.47.005-12.94.015-19.402a4.28 4.28 0 0 1 1.253-3.034 4.27 4.27 0 0 1 3.035-1.246m59.656 1.977c-17.688.08-26.41 4.149-29.325 12.119-.155.426-.858.426-1.014 0C33.924 7.954 25.2 3.884 7.513 3.805A2.29 2.29 0 0 0 5.218 6.1v41.03c0 1.417.878 2.57 2.295 2.57 17.88 0 25.38 3.728 29.782 8.957.18.215.513.214.693-.001 4.396-5.254 11.308-8.955 29.189-8.955a2.295 2.295 0 0 0 2.295-2.295V6.1a2.3 2.3 0 0 0-.67-1.625 2.29 2.29 0 0 0-1.625-.67"/><path fill="var(--tutor-visual-brand-2, #a4bcf4)" d="M9.13 11.172a30 30 0 0 1 1.23-.025c4.606.042 9.3.45 13.566 2.381 2.321 1.117 4.598 2.374 6.533 4.063.295.267.579.537.825.843a7.3 7.3 0 0 0-.901-.75c-2.075-1.467-4.425-2.466-6.803-3.326-4.17-1.402-8.73-1.344-13.102-.934-.373.04-.78.086-1.115.137a1.1 1.1 0 0 1-.876-.237 1.24 1.24 0 0 1-.435-.84 1.24 1.24 0 0 1 .265-.91 1.1 1.1 0 0 1 .814-.402M11.098 16.862c4.566.004 9.198.492 13.469 2.258 3.714 1.596 7.024 3.915 9.937 6.589.347.321.687.648 1.006.981-.347-.304-.713-.6-1.084-.89-3.117-2.407-6.58-4.4-10.26-5.62-4.145-1.316-8.633-1.41-12.956-1.04-.449.041-.921.092-1.33.152a1.12 1.12 0 0 1-.877-.235 1.24 1.24 0 0 1-.441-.833c-.035-.33.057-.66.257-.906.2-.248.493-.394.811-.413.514-.03.982-.039 1.468-.043"/><path fill="var(--tutor-visual-brand-1, #4979e8)" d="M9.224 3.807c-2.84 0-2.608 1.467-2.728 2.78-.12 1.319 0 32.969 0 39.307 0 6.34 19.036-3.023 30.756 12.723l-23.087-6.384-9.087-2.46-.447-45.201 1.865-1.864z"/><path fill="var(--tutor-visual-gray-1, #ffffff)" d="M47.117 26.689c0 7.801 6.324 14.126 14.125 14.126s14.126-6.325 14.126-14.126c0-7.802-6.324-14.126-14.126-14.126s-14.125 6.324-14.125 14.126"/><path fill="var(--tutor-visual-brand-1, #4979e8)" d="M47.116 26.689c0-7.801 6.325-14.126 14.126-14.126 7.802 0 14.126 6.325 14.126 14.126s-6.324 14.126-14.126 14.126c-7.68 0-13.928-6.129-14.12-13.762zm-.6 0a14.1 14.1 0 0 0 .376 4.663c1.455 6.222 7.688 11.18 14.35 11.063 8.386.205 15.9-7.406 15.615-15.726.125-8.332-7.479-15.642-15.615-15.281-6.46.026-12.432 4.658-14.13 10.69a14.7 14.7 0 0 0-.595 4.591"/><path fill="#f04438" d="M61.91 34.323a.954.954 0 0 1-.955.954c-4.825 0-8.774-3.823-8.774-8.588s3.95-8.588 8.774-8.588c3.95 0 7.315 2.563 8.404 6.108l.767-1.298a.955.955 0 0 1 1.644.971l-2.074 3.505a.955.955 0 0 1-1.29.347l-3.59-2.025a.953.953 0 0 1-.12-1.583.95.95 0 0 1 1.057-.08l1.873 1.056c-.73-2.91-3.424-5.093-6.67-5.093-3.814 0-6.867 3.012-6.867 6.68s3.053 6.68 6.866 6.68a.954.954 0 0 1 .954.954"/></svg>