<svg xmlns="http://www.w3.org/2000/svg" width="96" height="96" fill="none" viewBox="0 0 96 96"><path fill="var(--tutor-visual-gray-2, #ececed)" stroke="var(--tutor-visual-gray-3, #cecfd2)" stroke-dasharray="2 0" stroke-width=".66" d="M45.04 18.822c1.227-2.43 4.693-2.43 5.92 0l4.943 9.789a3.32 3.32 0 0 0 2.452 1.782l10.833 1.68c2.688.416 3.759 3.714 1.83 5.632l-7.778 7.729a3.32 3.32 0 0 0-.937 2.884l1.752 10.827c.434 2.686-2.37 4.725-4.79 3.481l-9.75-5.012a3.32 3.32 0 0 0-3.03 0l-9.75 5.012c-2.42 1.244-5.224-.795-4.79-3.481l1.752-10.827a3.32 3.32 0 0 0-.937-2.884l-7.777-7.729c-1.93-1.918-.859-5.216 1.829-5.633l10.833-1.679a3.32 3.32 0 0 0 2.452-1.782z"/><ellipse cx="48" cy="76" fill="var(--tutor-visual-gray-2, #ececed)" rx="21" ry="3"/></svg>