<svg xmlns="http://www.w3.org/2000/svg" width="80" height="80" fill="none" viewBox="0 0 80 80"><g clip-path="url(#a)"><path fill="var(--tutor-visual-brand-1, #4979e8)" fill-rule="evenodd" d="M35.717 7.69c10.57-.376 13.537 3.138 22.746 18.978 11.51 19.799 16.59 24.531 16.59 30.684 0 3.234-.648 6.517-2.784 9.058 3.315.624 5.392 1.517 5.392 2.51 0 1.887-7.492 3.416-16.734 3.416s-16.735-1.529-16.735-3.415c0-1.29 3.505-2.415 8.676-2.996-7.647-11.84-14.08-41.418-17.151-58.235" clip-rule="evenodd"/><path fill="var(--tutor-visual-gray-1, #ffffff)" d="M25.99 14.573c4.504-7.8 15.763-7.8 20.267 0l22.066 38.22c4.504 7.8-1.126 17.551-10.133 17.551H14.057c-9.007 0-14.637-9.75-10.133-17.55z"/><path fill="var(--tutor-visual-brand-1, #4979e8)" d="M25.025 14.015c2.585-4.548 8.174-7.012 13.202-6.03 3.65.63 6.935 3.006 8.68 6.213q2.79 4.334 5.539 8.693a1062 1062 0 0 1 17.587 28.915c1.45 2.45 2.119 5.416 1.796 8.279-.61 6.735-6.85 12.434-13.638 12.244a9548 9548 0 0 1-44.134-.181c-9.925.398-16.889-11.976-11.53-20.162a9540 9540 0 0 1 22.498-37.97m21.232.558c-4.504-7.8-15.763-7.8-20.267 0L3.924 52.793c-4.503 7.8 1.126 17.551 10.133 17.551H58.19c9.007 0 14.636-9.75 10.132-17.55z"/><path fill="#f04438" d="M36.125 47.421a3.27 3.27 0 1 1-.002 6.541 3.27 3.27 0 0 1 .002-6.54m-.005-17.46a2.596 2.596 0 0 1 2.596 2.594v10.45a2.596 2.596 0 0 1-5.19 0v-10.45a2.595 2.595 0 0 1 2.594-2.594"/><path fill="var(--tutor-visual-brand-1, #4979e8)" d="m8.68 30.144 6.927-16.386.385-.91c.165-.392.475-.69.88-.816.404-.128.87-.075 1.278.137.407.213.717.565.844.97s.061.83-.166 1.19l-.526.836-9.48 15.053-.527.836z"/></g><defs><clipPath id="a"><path fill="var(--tutor-visual-gray-1, #ffffff)" d="M0 0h80v80H0z"/></clipPath></defs></svg>