<svg xmlns="http://www.w3.org/2000/svg" width="96" height="96" fill="none" viewBox="0 0 96 96"><ellipse cx="48" cy="79.768" fill="var(--tutor-visual-gray-2, #ececed)" rx="21" ry="3"/><rect width="40" height="50.508" x="28" y="16.26" fill="var(--tutor-visual-gray-2, #ececed)" stroke="var(--tutor-visual-gray-3, #cecfd2)" stroke-dasharray="2.65 2.65" stroke-width=".66" rx="4"/><path stroke="var(--tutor-visual-gray-3, #cecfd2)" stroke-linecap="round" stroke-linejoin="round" stroke-width="2" d="M34.087 25.236h8.271M34.086 31.953l17.128-.001M34.086 38.673l24.36-.002"/><path fill="var(--tutor-visual-gray-2, #ececed)" stroke="var(--tutor-visual-gray-3, #cecfd2)" stroke-linecap="round" stroke-linejoin="round" stroke-width="1.2" d="M74.292 15.857c-1.03-.89-2.443-1.056-3.651-.562.313-1.267-.055-2.64-1.086-3.532-1.478-1.277-3.747-1.072-5.065.453s-1.61 3.716-1.418 5.888 1.005 4.786 1.005 4.786 2.632.395 4.881.3c2.4-.099 4.298-.726 5.62-2.256s1.192-3.8-.286-5.077"/><path fill="var(--tutor-visual-gray-2, #ececed)" stroke="var(--tutor-visual-gray-3, #cecfd2)" stroke-linecap="round" stroke-linejoin="round" d="M56.627 5.66c-.753.477-1.124 1.33-1.043 2.18-.734-.437-1.663-.466-2.416.011-1.08.683-1.38 2.142-.675 3.256s2.021 1.71 3.417 2.002c1.396.29 3.186.276 3.186.276s.745-1.572 1.112-2.998c.392-1.52.358-2.828-.349-3.945-.708-1.117-2.153-1.465-3.232-.782"/></svg>