<?xml version="1.0" encoding="utf-8"?>
<!-- Generator: Adobe Illustrator 23.0.2, SVG Export Plug-In . SVG Version: 6.00 Build 0)  -->
<svg version="1.1" id="Layer_1" xmlns="http://www.w3.org/2000/svg" xmlns:xlink="http://www.w3.org/1999/xlink" x="0px" y="0px"
	 viewBox="0 0 800 800" style="enable-background:new 0 0 800 800;" xml:space="preserve">
<style type="text/css">
	.st0{fill:#25CE9E;}
	.st1{fill:#263357;}
	.st2{fill:#2EB595;}
	.st3{fill:#EBF2FF;}
	.st4{fill:#B8D4EA;}
	.st5{fill:#FABF4D;}
	.st6{fill:#F2B01F;}
	.st7{fill:#C9F2FF;}
	.st8{fill:#A3D4EA;}
	.st9{fill:#4088DA;}
	.st10{fill:#2E75DA;}
</style>
<g>
	<path class="st0" d="M196.3,605.5l-86.7-24.3c-5.4,0-33,11.8-41.6,22.2c-13.8,16.7-31.9,41.5-31.9,95.7c0,4.3-0.7,84.2-0.7,84.2
		h211.2c0,0,0.7-46.7-0.3-71.7C244.2,661.7,227.6,611.8,196.3,605.5z"/>
	<path class="st1" d="M259.4,796.3H22.3l0.1-13.1c0,0,0.7-79.7,0.7-84c0-54.4,16.8-82.2,34.9-104c10.5-12.6,41.4-26.9,51.6-26.9h1.8
		l88,24.6c40.9,8.7,57.8,69,59.8,118.2c1,25,0.3,70.5,0.3,72.4L259.4,796.3z M48.5,770.3h185.2c0.1-15.6,0.2-41.8-0.4-58.2
		c-2.1-50.3-18.7-89.8-39.5-93.9l-1-0.2l-83.8-23.5c-7.1,2.1-25.9,11-31,17.2c-14,16.9-28.9,38.9-28.9,87.4
		C49.1,702.4,48.7,747.5,48.5,770.3z"/>
</g>
<path class="st2" d="M233.6,770.6c0.1-15.4,0.2-41.7-0.5-58.2c-2.1-50.4-18.9-90-39.9-94.2l-0.9-0.2l-13.9-3.9
	c17.5,24.1,25.6,62.5,27,95.8c0.7,17.3,0.6,44.7,0.5,60.6H233.6z"/>
<path class="st1" d="M140.2,784.1c-0.2,0-0.5,0-0.7,0c-7.2-0.4-12.7-6.5-12.3-13.6c0.5-9.1,1.4-35.2,0.1-46.9
	c-0.1-0.5-0.1-1-0.1-1.5c0-16.6-6.6-24-6.8-24.3c-4.7-5.2-4.5-13.4,0.6-18.2c5.1-4.8,13-4.9,18,0.1c1.4,1.4,14,14.8,14.2,41.7
	c1.8,16.5,0.1,49.1,0,50.5C152.8,778.7,147,784.1,140.2,784.1z"/>
<g>
	<path class="st3" d="M198.4,588.6c0,0,0.7,27.3-2.1,46c-16.6-33.3-88.9-46-88.9-46V502h91V588.6z"/>
	<path class="st1" d="M196.3,647.6c-4.9,0-9.4-2.7-11.6-7.2c-11.2-22.4-62.5-36-79.6-39c-6.2-1.1-10.7-6.5-10.7-12.8V502
		c0-7.2,5.8-13,13-13h91c7.2,0,13,5.8,13,13v86.6c0,0.8,0.7,28.3-2.2,47.9c-0.8,5.6-5.2,10-10.8,10.9
		C197.7,647.6,197,647.6,196.3,647.6z M120.4,578.1c15.6,3.6,43.9,11.7,65,26.4c0.2-8.8,0-15.4,0-15.6l0-74h-65V578.1z"/>
</g>
<path class="st4" d="M188.2,606.2v-91.6h-10.7l-1.4,82.6C181.4,596.2,182.8,607.1,188.2,606.2z"/>
<g>
	<path class="st3" d="M90.3,474.1c0,46.3,38.4,83.9,85.7,83.9h27.2c36.8-0.2,57.6-14.1,56.6-42.3v-32.9l12.5-11.1
		c0,0,7.3-43-15.6-86.7c-21.5-41-22.8-67.9-70.1-67.9H176c-47.3,0-85.7,37.5-85.7,83.9V474.1z"/>
	<path class="st1" d="M203.3,570.9H176c-54.4,0-98.7-43.4-98.7-96.8v-73.1c0-53.4,44.3-96.8,98.7-96.8h10.6
		c46.6,0,58.1,24.9,71.4,53.7c3.1,6.7,6.3,13.7,10.2,21.2c24.6,47,17.2,93,16.9,94.9l-0.8,4.5l-11.5,10.2v27.1
		c0.5,14.5-3.8,26.9-12.9,36.4C248.1,564.4,229,570.7,203.3,570.9L203.3,570.9z M176,330c-40.1,0-72.7,31.8-72.7,70.9v73.1
		c0,39.1,32.6,70.9,72.7,70.9h27.2c18.2-0.1,31.3-3.9,37.9-10.8c4.1-4.3,6-10.2,5.7-18l0-39.2l13.1-11.7
		c0.9-11.2,1.7-42.8-14.8-74.3c-4.2-8.1-7.7-15.7-10.8-22.4c-12.9-28.1-17.8-38.6-47.8-38.6H176z"/>
</g>
<path class="st4" d="M250.4,479.3c0,32.1,2.1,65.2-40.9,65.2c22.2-10.4,22.9-26.9,22.9-55.5l10.8-10.4l-9.4-77
	c0-28.6-2.4-43.5-23.6-60.2c28.7,11.4,44.4,26,44.4,58.1l7.6,69.4L250.4,479.3z"/>
<g>
	<path class="st5" d="M72.5,388c6.7-48.5,52.2-86,117.3-83c31.7,5.5,53.5,13.5,77.5-10.4c7.4,5.5,25.1,27.8,19.4,53.4
		c-5,22.4-16.6,43.3-31.4,51.6c-37.3,20.9-55.4,23.8-117.2,18.7c-5.3-0.4-12.5,39.5-18.7,66.6c-16.6,11.4-35.4-22.9-29.1,2.1
		C90.2,486.9,67.9,421.5,72.5,388z"/>
	<path class="st1" d="M111.8,500.5c-4.9,0-9.5-1.4-13.4-3.1c-1.3,1-2.8,1.8-4.4,2.3c-6.8,2-14-1.7-16.3-8.4
		c-1-2.8-23.3-68.8-18.3-105c8-57.9,62.2-97.6,131-94.5c0.6,0,1.1,0.1,1.7,0.2c3.8,0.7,7.5,1.4,11.1,2.1c10.2,1.9,19,3.6,26.7,3.6
		c11.1,0,19.2-3.6,28-12.4c4.7-4.7,12-5.2,17.3-1.2c11,8.2,31.5,35.4,24.4,66.9c-6.2,28-20.4,50.5-37.8,60.2
		c-27.4,15.3-46.6,22.6-81.8,22.6c-9.4,0-20.4-0.5-34.8-1.6c-2.7,8.7-6.3,25.3-8.8,37.1c-1.4,6.4-2.8,12.8-4.1,18.6
		c-0.7,3.2-2.7,6.1-5.4,8C122.3,498.9,117.2,500.5,111.8,500.5z M97.6,466.2c2,1,3.8,2.2,5.6,3.4c1.3,0.9,3.3,2.2,5.2,3.3
		c0.7-3,1.3-6.1,2-9.2c9.5-43.8,12.7-58.6,27.5-58.6c0.4,0,0.8,0,1.2,0.1c17.8,1.5,30.4,2.1,40.8,2.1c29.7,0,44.6-5.7,68.8-19.2
		c10.5-5.9,20.5-23.1,24.9-42.9c2.8-12.6-2.5-24.6-7.7-32.2c-10.8,7.6-22.6,11.2-36.2,11.2c-10.3,0-20.7-2-31.7-4.1
		c-3.2-0.6-6.4-1.2-9.8-1.8c-54.1-2.1-96.7,27.8-102.7,71.6C83,409,91.1,443.4,97.6,466.2z"/>
</g>
<path class="st6" d="M180.4,315.5c-2.2-0.4-4.4,0.1-6.7,0.1c-17.1,0.8-34.2,7.4-48.4,16.6c10.4-4.2,22.8-6,25.2-6.3
	c72.9-9.3,97.9,34.8,99.3,61.1c0.1,2,18-19.4,22.2-34.7c5.3-19.5,5.5-29.1-4.2-41.6C254,318.6,249.8,328.8,180.4,315.5z"/>
<g>
	<g>
		<path class="st5" d="M569.3,253.3l-35.9-42.7c0.6-4.2,2-32.5,2-36.9v-14.1c0-46.7-37.8-84.5-84.5-84.5h-34.8
			c-46.7,0-84.5,37.8-84.5,84.5v14.1c0,46.7,37.8,84.5,84.5,84.5h34.8c14.9,0,42.5-6.2,57.7-21.4L569.3,253.3z"/>
		<path class="st1" d="M450.9,266.6h-34.8c-51.2,0-92.9-41.7-92.9-92.9v-14.1c0-51.2,41.7-92.9,92.9-92.9h34.8
			c51.2,0,92.9,41.7,92.9,92.9v14.1c0,3.6-0.9,24.6-1.7,34.2l33.6,40c2.4,2.8,2.6,6.9,0.6,10c-2,3.1-5.8,4.6-9.3,3.6l-56.2-15.3
			C493,261,465.8,266.6,450.9,266.6z M416.1,83.5c-41.9,0-76,34.1-76,76v14.1c0,41.9,34.1,76,76,76h34.8c13.6,0,38.7-5.9,51.7-18.9
			c2.2-2.1,5.3-3,8.2-2.2l34.6,9.4L526.9,216c-1.6-1.9-2.2-4.3-1.9-6.7c0.5-3.4,1.9-31.3,1.9-35.6v-14.1c0-41.9-34.1-76-76-76H416.1
			z"/>
	</g>
	<path class="st6" d="M505.3,211.9l13.1,20.7l29.6,9.3l-21.7-29c-1.1-2-0.3-33.5-0.3-36.9l0.7-20c0-39.5-35.3-72.7-70.3-71.1
		c21.9,17.3,51.3,37.6,48.3,76.6C504.6,161.6,505.7,208.1,505.3,211.9z"/>
</g>
<g>
	<path class="st7" d="M247.6,208.2l35.9-42.7c-0.6-4.2-1.9-32.5-1.9-36.9v-14.1c0-46.7,37.8-84.5,84.5-84.5h34.8
		c46.7,0,84.5,37.8,84.5,84.5v14.1c0,46.7-37.8,84.5-84.5,84.5h-34.8c-15,0-42.5-6.2-57.7-21.4L247.6,208.2z"/>
	<path class="st1" d="M400.7,221.3h-34.8c-14.9,0-42.2-5.5-59.9-20.5l-56.3,15.3c-3.5,0.9-7.2-0.5-9.1-3.5c-1.9-3-1.7-7,0.6-9.8
		l33.6-40.1c-0.7-9.5-1.7-30.6-1.7-34.2v-14.1c0-51.1,41.6-92.7,92.7-92.7h34.8c51.1,0,92.7,41.6,92.7,92.7v14.1
		C493.5,179.7,451.9,221.3,400.7,221.3z M308.2,183.3c2.2,0,4.3,0.9,5.8,2.4c13.1,13.1,38.2,19,51.9,19h34.8
		c42,0,76.2-34.2,76.2-76.2v-14.1c0-42-34.2-76.2-76.2-76.2h-34.8c-42,0-76.2,34.2-76.2,76.2v14.1c0,4.3,1.3,32.2,1.9,35.6
		c0.4,2.3-0.3,4.7-1.8,6.6l-18.9,22.5l35.2-9.6C306.8,183.4,307.5,183.3,308.2,183.3z"/>
</g>
<path class="st8" d="M269.6,193.1l36.4-9.3c0.6-0.2,1.3-0.2,1.9-0.2c2.1,0,4.1,2.6,5.6,4.1c13.6,13.5,38.2,16.2,51,16.2l37.7,0.9
	c40.7,0,72.7-34.1,75.3-73.5l-3.3-34c-11.4-38.5-26.9-38-27.1-40.7c14.9,29.8,13.1,78.5,6.1,93.9c-13.1,28.9-33.3,36.9-55.2,36.9
	h-46.4c-0.6,0-43.8-9.2-61.6-38.7c0.5,8.9,0.9,14.3,1.1,15.6c0.3,2.2-0.3,4.1-1.7,5.8L269.6,193.1z"/>
<g>
	<path class="st3" d="M172.9,441.9c3.9,20.3-5.7,39.2-21.5,42.3c-15.8,3.1-31.8-10.9-35.7-31.2c-3.9-20.3,5.7-39.2,21.5-42.3
		C153,407.6,169,421.6,172.9,441.9z"/>
	<path class="st1" d="M147.1,497.6c-20.8,0-39.4-17.7-44.1-42.2c-2.5-12.6-0.9-25.4,4.5-36c5.8-11.5,15.7-19.3,27.2-21.6
		c2.2-0.4,4.6-0.7,6.8-0.7c20.8,0,39.4,17.7,44.1,42.2c2.5,12.6,0.9,25.4-4.5,36c-5.8,11.5-15.7,19.3-27.2,21.6
		C151.7,497.3,149.4,497.6,147.1,497.6z M141.6,423.2c-0.6,0-1.3,0.1-1.9,0.2c-4.9,0.9-7.7,5.3-9,7.8c-2.7,5.3-3.5,12.4-2.2,19.3
		c2.8,14.4,12.7,22.4,20.5,21c4.9-0.9,7.7-5.3,9-7.8c2.7-5.3,3.5-12.4,2.2-19.3C157.6,431.1,148.7,423.2,141.6,423.2z"/>
</g>
<polygon class="st3" points="144.3,459.2 158.2,513.3 207.8,495.3 205.4,432.8 157.8,434.9 146.4,430.8 "/>
<g>
	<path class="st9" d="M600.9,605.7l86.7-24.3c5.4,0,33,11.8,41.6,22.2c13.8,16.7,31.9,41.5,31.9,95.7c0,4.3,0.7,84.2,0.7,84.2H575.6
		c0,0-3,1.9-3-15.5c0-13.5-18.9-14.6-20.8-45.8C549.7,688.9,568.4,649.4,600.9,605.7z"/>
	<path class="st1" d="M575.3,796.5c-15.7,0-15.7-19.3-15.7-28.5c-0.3-0.8-2.2-2.9-3.6-4.4c-6.3-6.9-15.8-17.4-17.2-40.5
		c-2.2-34.5,14.7-75.4,51.6-125.1c1.7-2.3,4.1-4,6.9-4.8l86.7-24.3c1.1-0.3,2.3-0.5,3.5-0.5c10.2,0,41.1,14.2,51.6,26.9
		c18.1,21.9,34.9,49.6,34.9,104c0,4.3,0.7,84,0.7,84c0,3.5-1.3,6.8-3.8,9.3c-2.4,2.5-5.8,3.8-9.2,3.8H576.5
		C576.1,796.5,575.7,796.5,575.3,796.5z M585.6,770.5h163.1c-0.2-22.9-0.6-68-0.6-71.2c0-48.5-14.9-70.6-28.9-87.4
		c-5.1-6.1-23.9-15-31-17.2L608.7,617c-30.9,42.3-45.6,77.4-44,104.4c0.9,14,5.6,19.2,10.6,24.7c4.3,4.8,10.3,11.4,10.3,21.8
		C585.5,768.9,585.5,769.7,585.6,770.5z"/>
</g>
<path class="st10" d="M727,769.5h22.9c-0.2-26-0.6-69.1-0.6-72.3c0-53.2-18.9-75.8-29-88c-4.6-5.5-19.6-13.1-28.2-16.4
	c17,20.7,34.3,49.1,34.3,104.1C726.4,700.1,726.8,743.5,727,769.5z"/>
<path class="st1" d="M673.7,784.2c-6.9,0-12.6-5.4-13-12.3c-0.1-1.4-1.8-34,0-50.5c0.2-27,12.8-40.3,14.2-41.7
	c5.1-5.1,13.3-5.1,18.4,0c5,5,5.1,13.1,0.2,18.2c-0.5,0.6-6.8,8.1-6.8,24.3c0,0.5,0,1-0.1,1.5c-1.4,11.6-0.4,37.8,0.1,46.9
	c0.4,7.2-5.1,13.3-12.3,13.6C674.1,784.2,673.9,784.2,673.7,784.2z"/>
<g>
	<path class="st3" d="M598.8,588.8c0,0-0.7,27.3,2,46c16.6-33.3,88.9-46,88.9-46v-86.6h-91V588.8z"/>
	<path class="st1" d="M600.9,647.8c-0.7,0-1.4-0.1-2.1-0.2c-5.6-0.9-10-5.3-10.8-10.9c-2.9-19.6-2.2-47.1-2.2-48.3l0-86.3
		c0-7.2,5.8-13,13-13h91c7.2,0,13,5.8,13,13v86.6c0,6.3-4.5,11.7-10.7,12.8c-25.5,4.5-69.6,19.1-79.6,39
		C610.2,645,605.7,647.8,600.9,647.8z M611.8,515.1v73.6c0,0.3-0.2,7,0,15.9c21.2-14.7,49.5-22.8,65-26.4v-63.1H611.8z"/>
</g>
<path class="st4" d="M609,606.4v-91.6h10.7l1.4,82.6C615.8,596.4,614.4,607.2,609,606.4z"/>
<g>
	<path class="st3" d="M707.8,443.4c0,46.3-20.6,67.4-27,88.1c-6.9,22.2-49.9,36.1-74.9,31.9c-30.1-5-58.3-20.8-63.8-54.1l-4.6-26.4
		l-12.5-11.1c0,0,3.9-40.9,15.6-86.7c11.4-44.9,22.8-67.9,70.1-67.9h10.6c47.3,0,85.7,37.5,85.7,83.9L707.8,443.4z"/>
	<path class="st1" d="M615.4,577.1c-4.1,0-8.1-0.3-11.7-0.9c-41.6-6.9-68.8-30.5-74.5-64.8l-3.8-21.8l-14-12.5l0.6-6.6
		c0.2-1.7,4.2-42.4,15.9-88.7c11.2-44,24.4-77.7,82.7-77.7h10.6c54.4,0,98.7,43.4,98.7,96.8l0.9,42c0,36.1-11.5,58.7-20,75.2
		c-3.3,6.4-6.1,11.9-7.7,17C684.2,563.8,641.5,577.1,615.4,577.1z M538.6,466.6l10.8,9.6l5.4,30.8c4.9,29.5,31.6,39.9,53.2,43.5
		c2.2,0.4,4.7,0.6,7.5,0.6c22.6,0,49.3-11.9,52.9-23.5c2.2-7.1,5.7-13.9,9.3-21c8-15.7,17.1-33.6,17.1-63.2l-0.9-42
		c0-39.4-32.6-71.2-72.7-71.2h-10.6c-37.1,0-46,13.1-57.5,58.1C544.5,422.1,540.2,453.5,538.6,466.6z"/>
</g>
<path class="st4" d="M549.5,476.7c0,32.1,10.6,70,49.4,71.4c-22.2-10.4-23.6-31-23.6-59.6l-18-11.1l8.9-78.4
	c0-28.7,2.4-43.5,23.6-60.2c-28.7,11.4-41.6,40.1-44.4,58.1c-7.5,47.2-8.2,67.3-8.2,67.3L549.5,476.7z"/>
<g>
	<path class="st5" d="M724.4,401.8c7.2-48.4-27.1-104.7-99.2-110.3c-52-2.1-101.3,27.7-106.8,88.8c19.4,29.1,70.5,39.9,87.4,41.6
		c20.8,2.1,13.3,4.9,56.2-3.5c5.2-1-11.1,101.3,20.1,132.5c16.6,2.1,60.3-13.2,79.8-32.6C761.9,518.3,709.9,499.6,724.4,401.8z"/>
	<path class="st1" d="M685.5,564.3C685.5,564.3,685.5,564.3,685.5,564.3c-1.8,0-3.5-0.1-5-0.3c-2.9-0.4-5.7-1.7-7.7-3.8
		c-24.3-24.3-24.7-75.6-23.2-121.8c0-1.4,0.1-2.8,0.1-4.2c-12.9,2.3-19.3,3.1-24.7,3.1c-4.2,0-7.4-0.5-11.1-1
		c-2.4-0.4-5.3-0.8-9.4-1.2c-0.7-0.1-70.5-7.5-97.1-47.5c-1.7-2.5-2.4-5.5-2.2-8.6c6.3-69.7,62.3-100.9,114.9-100.9
		c1.9,0,3.7,0,5.6,0.1c37.3,2.9,68.9,18.6,89.3,44.2c18.5,23.2,26.7,52.8,22.4,81.2c-12.6,84.5,27.3,101.5,29,102.2
		c4.1,1.7,7.3,5.3,8.2,9.7c0.9,4.4-0.4,8.9-3.5,12.1C750.9,548,707.7,564.3,685.5,564.3z M662.1,405.1c3.6,0,7.3,1.6,9.8,4.2
		c5,5.1,4.8,10.4,4.2,30c-0.8,25.6-2.5,77.1,12.3,98.4c12.5-1.1,34.6-8.5,51-18.7c-17-15.6-38.4-49.6-28-119.2
		c3.2-21.2-3-43.3-16.9-60.8c-11.2-14-32.4-31.4-70.1-34.3c-1,0-2.6-0.1-4.1-0.1c-36.5,0-80.7,18.9-88,71.9
		c17.1,20.3,57.2,30.4,74.9,32.2c4.6,0.5,7.9,1,10.7,1.4c3.1,0.5,4.9,0.7,7.2,0.7c5,0,13.7-1.4,34.4-5.4
		C660.3,405.2,661.2,405.1,662.1,405.1z"/>
</g>
<path class="st6" d="M529.6,374.6c4.5,5.4,17.8,14.9,25.8,19.4c7.5-48.2,40.8-78.2,78-88.9C632.3,304.9,553.8,291,529.6,374.6z"/>
<g>
	<path class="st3" d="M624.3,442c-3.9,20.3,5.7,39.3,21.5,42.3c15.8,3.1,31.8-10.9,35.7-31.2c3.9-20.3-5.7-39.2-21.5-42.3
		C644.2,407.7,628.2,421.7,624.3,442z"/>
	<path class="st1" d="M650.1,497.7L650.1,497.7c-2.3,0-4.6-0.2-6.8-0.7c-11.5-2.2-21.4-10.1-27.2-21.6c-5.4-10.6-7-23.3-4.5-36
		c4.7-24.4,23.3-42.1,44.1-42.1c2.3,0,4.6,0.2,6.8,0.6c22.8,4.4,37,30.2,31.8,57.5C689.5,480,670.9,497.7,650.1,497.7z M655.6,423.3
		c-7.1,0-16,7.9-18.6,21.1c-1.3,6.9-0.6,13.9,2.2,19.3c1.3,2.5,4.1,6.9,9,7.8c7.7,1.5,17.7-6.5,20.5-21c2.5-12.8-2.7-25.5-11.2-27.1
		C656.9,423.4,656.3,423.3,655.6,423.3z"/>
</g>
<polygon class="st3" points="652.9,459.3 632.9,505.8 589.4,495.4 591.8,433 639.3,435.1 650.8,430.9 "/>
<g>
	<path class="st1" d="M567,365.4c-2.2,0-4.5-0.6-6.5-1.8c-6.1-3.6-8.3-11.4-4.8-17.6c0.9-1.5,21.5-36.8,66-30
		c7.1,1.1,11.9,7.7,10.9,14.8c-1.1,7.1-7.7,11.9-14.8,10.9c-26.4-4-39,16.4-39.5,17.3C575.8,363.2,571.4,365.4,567,365.4z"/>
</g>
<g>
	<path class="st1" d="M381,170.7L381,170.7c-5.6,0-10.1-4.5-10.1-10.1V75c0-5.6,4.5-10.1,10.1-10.1h0c5.6,0,10.1,4.5,10.1,10.1v85.5
		C391.2,166.1,386.6,170.7,381,170.7z"/>
	<path class="st1" d="M433.9,117.8L433.9,117.8c0,5.6-4.5,10.1-10.1,10.1h-85.5c-5.6,0-10.1-4.5-10.1-10.1v0
		c0-5.6,4.5-10.1,10.1-10.1h85.5C429.4,107.6,433.9,112.2,433.9,117.8z"/>
</g>
</svg>
