<svg height="488pt" viewBox="-1 0 488 488" width="488pt" xmlns="http://www.w3.org/2000/svg"><path d="m101.851562 339.363281 91.621094 98.636719h223.554688c8.097656 0 14.660156-7.066406 14.660156-15.78125v-402.4375c0-8.714844-6.5625-15.78125-14.660156-15.78125h-300.515625c-8.097657 0-14.660157 7.066406-14.660157 15.78125zm0 0" fill="#e0ebfc"/><path d="m417.027344 442h-223.558594c-1.109375 0-2.171875-.460938-2.929688-1.277344l-91.621093-98.636718c-.6875-.738282-1.070313-1.710938-1.070313-2.722657v-319.582031c0-10.90625 8.371094-19.78125 18.660156-19.78125h300.519532c10.289062 0 18.660156 8.875 18.660156 19.78125v402.4375c0 10.90625-8.371094 19.78125-18.660156 19.78125zm-221.8125-8h221.8125c5.878906 0 10.660156-5.285156 10.660156-11.78125v-402.4375c0-6.496094-4.78125-11.78125-10.660156-11.78125h-300.515625c-5.878907 0-10.660157 5.285156-10.660157 11.78125v318.011719zm0 0" fill="#3762cc"/><path d="m297.816406 60.644531h-165.59375c-4.417968 0-8-3.582031-8-8s3.582032-8 8-8h165.59375c4.417969 0 8 3.582031 8 8s-3.582031 8-8 8zm0 0" fill="#b9befc"/><path d="m396.140625 101.761719h-263.917969c-4.417968 0-8-3.582031-8-8s3.582032-8 8-8h263.917969c4.417969 0 8 3.582031 8 8s-3.582031 8-8 8zm0 0" fill="#b9befc"/><path d="m180.867188 181.734375h-44.503907c-2.289062 0-4.140625-1.851563-4.140625-4.136719v-44.503906c0-2.289062 1.851563-4.140625 4.140625-4.140625h44.503907c2.285156 0 4.140624 1.851563 4.140624 4.140625v44.503906c0 2.285156-1.855468 4.136719-4.140624 4.136719zm0 0" fill="#f9cfcf"/><path d="m396.140625 163.34375h-185.261719c-4.417968 0-8-3.582031-8-8s3.582032-8 8-8h185.261719c4.417969 0 8 3.582031 8 8s-3.582031 8-8 8zm0 0" fill="#b9befc"/><path d="m180.867188 260.535156h-44.503907c-2.289062 0-4.140625-1.855468-4.140625-4.140625v-44.503906c0-2.285156 1.851563-4.140625 4.140625-4.140625h44.503907c2.285156 0 4.140624 1.855469 4.140624 4.140625v44.503906c0 2.285157-1.855468 4.140625-4.140624 4.140625zm0 0" fill="#f9cfcf"/><path d="m396.140625 242.140625h-185.261719c-4.417968 0-8-3.582031-8-8s3.582032-8 8-8h185.261719c4.417969 0 8 3.582031 8 8s-3.582031 8-8 8zm0 0" fill="#b9befc"/><path d="m180.867188 343.332031h-44.503907c-2.289062 0-4.140625-1.855469-4.140625-4.140625v-44.503906c0-2.285156 1.851563-4.140625 4.140625-4.140625h44.503907c2.285156 0 4.140624 1.855469 4.140624 4.140625v44.503906c0 2.285156-1.855468 4.140625-4.140624 4.140625zm0 0" fill="#f9cfcf"/><path d="m396.140625 324.941406h-185.261719c-4.417968 0-8-3.582031-8-8 0-4.417968 3.582032-8 8-8h185.261719c4.417969 0 8 3.582032 8 8 0 4.417969-3.582031 8-8 8zm0 0" fill="#b9befc"/><path d="m396.140625 387.179688h-185.261719c-4.417968 0-8-3.582032-8-8 0-4.417969 3.582032-8 8-8h185.261719c4.417969 0 8 3.582031 8 8 0 4.417968-3.582031 8-8 8zm0 0" fill="#b9befc"/><path d="m34.09375 340.082031h32.160156c4.277344 0 7.746094-3.46875 7.746094-7.746093v-272.699219h-47.652344v272.703125c0 4.273437 3.464844 7.742187 7.746094 7.742187zm0 0" fill="#a4c9ff"/><path d="m74 59.636719-20.867188-53.238281c-1.253906-3.199219-4.667968-3.199219-5.921874 0l-20.863282 53.238281zm0 0" fill="#e0ebfc"/><path d="m74 84.796875h-47.652344v-25.160156h47.652344zm0 0" fill="#f9a7a7"/><path d="m16.996094 280.625v-123.628906c0-3.714844-2.910156-6.726563-6.5-6.726563-3.585938 0-6.496094 3.011719-6.496094 6.726563v145.6875c0 7.433594 5.820312 13.460937 13.007812 13.460937h9.339844v-35.519531zm0 0" fill="#a4c9ff"/><path d="m53.132812 6.398438 6.203126 15.816406h-18.320313l6.199219-15.816406c1.25-3.199219 4.664062-3.199219 5.917968 0zm0 0" fill="#4671c6"/><g fill="#3762cc"><path d="m66.253906 344.082031h-32.160156c-6.476562 0-11.746094-5.269531-11.746094-11.746093v-272.699219c0-2.207031 1.789063-4 4-4h47.652344c2.207031 0 4 1.792969 4 4v272.703125c0 6.472656-5.269531 11.742187-11.746094 11.742187zm-35.90625-280.445312v268.703125c0 2.0625 1.679688 3.746094 3.746094 3.746094h32.160156c2.066406 0 3.746094-1.683594 3.746094-3.746094v-268.703125zm0 0"/><path d="m74 63.636719h-47.652344c-1.324218 0-2.5625-.652344-3.304687-1.746094-.746094-1.089844-.902344-2.480469-.421875-3.710937l20.867187-53.242188c1.195313-3.046875 3.753907-4.9375 6.6875-4.9375 2.929688 0 5.488281 1.890625 6.683594 4.941406l20.863281 53.238282c.484375 1.230468.328125 2.621093-.417968 3.710937-.746094 1.09375-1.984376 1.746094-3.304688 1.746094zm-41.789062-8h35.921874l-17.953124-45.808594zm0 0"/><path d="m26.347656 320.140625h-9.339844c-9.378906 0-17.007812-7.832031-17.007812-17.460937v-145.683594c0-5.917969 4.710938-10.726563 10.5-10.726563s10.496094 4.808594 10.496094 10.726563v119.628906h5.351562c2.207032 0 4 1.789062 4 4v35.519531c0 2.207031-1.792968 3.996094-4 3.996094zm-15.851562-165.871094c-1.375 0-2.5 1.222657-2.5 2.726563v145.6875c0 5.214844 4.042968 9.460937 9.007812 9.460937h5.339844v-27.519531h-5.351562c-2.207032 0-4-1.792969-4-4v-123.628906c.003906-1.503906-1.117188-2.726563-2.496094-2.726563zm0 0"/></g><path d="m66.386719 340.082031h-32.429688c-.40625 0-.792969-.058593-1.179687-.125v15.203125c0 9.945313 7.789062 18.011719 17.398437 18.011719 9.605469 0 17.394531-8.0625 17.394531-18.011719v-15.203125c-.386718.066407-.777343.125-1.183593.125zm0 0" fill="#f9a7a7"/><path d="m50.175781 377.171875c-11.800781 0-21.398437-9.875-21.398437-22.011719v-15.203125c0-1.171875.515625-2.285156 1.410156-3.046875.890625-.757812 2.070312-1.089844 3.234375-.898437.175781.027343.351563.074219.535156.074219h32.429688c.183593 0 .359375-.042969.539062-.074219 1.160157-.191407 2.34375.136719 3.234375.898437.894532.761719 1.410156 1.875 1.410156 3.050782v15.199218c0 12.136719-9.597656 22.011719-21.394531 22.011719zm-13.398437-33.089844v11.078125c0 7.722656 6.007812 14.011719 13.398437 14.011719 7.386719 0 13.394531-6.289063 13.394531-14.011719v-11.078125zm0 0" fill="#3762cc"/><path d="m457.269531 484h-112c-13.253906 0-24-10.746094-24-24v-112c0-13.253906 10.746094-24 24-24h112c13.253907 0 24 10.746094 24 24v112c0 13.253906-10.746093 24-24 24zm0 0" fill="#6bdddd"/><path d="m345.269531 448v-88c0-6.628906 5.371094-12 12-12h88c6.625 0 12 5.371094 12 12v88c0 6.628906-5.375 12-12 12h-88c-6.628906 0-12-5.371094-12-12zm0 0" fill="#ffea94"/><path d="m391.695312 446.339844c-4.074218 0-7.824218-1.851563-10.308593-5.085938l-29.757813-38.777344c-3.023437-3.941406-2.28125-9.589843 1.660156-12.617187 3.941407-3.03125 9.59375-2.285156 12.621094 1.660156l25.703125 33.492188 46.90625-63.84375c2.941407-4.007813 8.578125-4.867188 12.582031-1.925781 4.003907 2.945312 4.867188 8.578124 1.921876 12.582031l-50.84375 69.210937c-2.445313 3.324219-6.214844 5.257813-10.339844 5.300782-.054688.003906-.101563.003906-.144532.003906zm0 0" fill="#f9a7a7"/><path d="m101.851562 339.363281h80.625c6.070313 0 10.992188 5.300781 10.992188 11.835938v86.800781zm0 0" fill="#a4c9ff"/><path d="m193.472656 442c-1.089844 0-2.160156-.445312-2.933594-1.277344l-91.621093-98.636718c-1.082031-1.164063-1.371094-2.863282-.734375-4.320313.632812-1.460937 2.074218-2.402344 3.664062-2.402344h80.625c8.269532 0 14.996094 7.101563 14.996094 15.835938v86.800781c0 1.644531-1.007812 3.121094-2.539062 3.722656-.472657.1875-.964844.277344-1.457032.277344zm-82.449218-98.636719 78.445312 84.453125v-76.617187c0-4.320313-3.136719-7.835938-6.992188-7.835938zm0 0" fill="#3762cc"/><path d="m457.269531 488h-112c-15.441406 0-28-12.558594-28-28v-112c0-15.441406 12.558594-28 28-28h112c15.4375 0 28 12.558594 28 28v112c0 15.441406-12.5625 28-28 28zm-112-160c-11.03125 0-20 8.972656-20 20v112c0 11.027344 8.96875 20 20 20h112c11.027344 0 20-8.972656 20-20v-112c0-11.027344-8.972656-20-20-20zm0 0" fill="#3762cc"/></svg>