<svg width="62" height="49" viewBox="0 0 62 49" fill="none" xmlns="http://www.w3.org/2000/svg">
<path d="M44.4148 26.3418C43.3265 27.1189 42.8682 27.9824 42.2954 28.7308C40.5483 31.1198 38.8872 33.5951 36.7392 35.6675C35.5936 36.7612 34.362 37.7399 32.8727 38.3443C31.1256 39.0639 29.4072 39.0639 27.8034 38.0277C27.0587 37.5384 26.715 37.7686 26.1422 38.3443C23.2209 41.3377 19.784 43.3525 15.6026 43.957C13.0822 44.3312 10.7623 43.6691 8.67157 42.2876C7.95556 41.827 7.61188 41.8558 7.09635 42.5466C5.72161 44.3887 4.23231 46.1157 2.77165 47.929C2.1702 48.6774 1.51147 49.4545 0.537699 48.6774C-0.493355 47.8715 0.165374 47.1231 0.795463 46.3747C2.3134 44.5326 3.80271 42.633 5.32065 40.7908C5.72161 40.3303 5.80753 40.0137 5.34929 39.4668C0.995946 34.2571 -0.292872 28.1551 0.365857 21.5638C1.05323 14.5984 3.43038 8.35246 8.67157 3.45936C10.075 2.13535 11.6502 1.09916 13.4832 0.465935C18.438 -1.23226 23.0204 1.8763 23.2782 7.1148C23.5359 12.7275 21.8748 17.9084 19.6122 22.9166C17.0632 28.5581 13.9128 33.8542 10.0463 38.7185C9.35894 39.5532 9.50214 39.8986 10.39 40.4167C12.939 41.8558 15.5166 41.7407 18.1229 40.7333C20.5573 39.8122 22.6767 38.3443 24.5384 36.5022C25.0252 36.0129 25.1398 35.6387 24.7961 34.9191C21.9321 29.1913 23.3355 20.2974 27.832 15.7209C29.1208 14.3969 30.6388 13.447 32.5004 13.0729C35.1353 12.526 37.1688 14.0515 37.3979 16.7283C37.6557 20.0383 36.5387 23.0606 35.1926 25.9964C33.7606 29.1913 31.813 32.0984 29.5504 34.804C29.2927 35.1206 28.7485 35.3797 29.0063 35.869C29.2067 36.2144 29.7223 36.2719 30.1805 36.3007C31.6698 36.4158 32.8727 35.725 33.961 34.8616C35.88 33.3073 37.312 31.3213 38.744 29.364C39.9469 27.7522 40.9779 25.9964 42.41 24.586C43.1833 23.8377 43.9852 23.0606 45.1594 23.4635C46.4196 23.8953 46.706 24.989 46.8206 26.2267C47.0211 28.4717 46.6488 30.7168 46.7347 32.9907C47.4507 33.0482 47.7944 32.5301 48.1667 32.1272C49.3409 30.8032 50.4579 29.4216 51.6322 28.0976C53.7516 25.7374 56.2146 23.8953 59.4796 23.4635C59.9952 23.4059 60.5393 23.3196 61.0262 23.4059C61.6563 23.5211 62 23.9816 62 24.6436C62 25.3056 61.6277 25.8813 61.0262 25.8813C56.5297 25.9101 54.1239 29.0762 51.5749 32.0984C50.8589 32.9331 50.1142 33.7678 49.3696 34.5449C48.7395 35.207 47.9948 35.725 47.1356 36.0417C45.3027 36.6749 44.2143 36.0129 44.157 34.0556C44.0998 32.6741 44.2143 31.2637 44.2716 29.8821C44.3002 28.8171 44.3575 27.7522 44.4148 26.3418ZM2.65709 24.8739C2.74301 25.7661 2.77165 26.6872 2.91485 27.5795C3.43038 30.9471 4.46143 34.0844 6.58082 36.79C7.21091 37.5959 7.61188 37.7111 8.35653 36.7325C11.3638 32.7316 13.97 28.5293 16.204 24.068C18.5812 19.29 20.5001 14.3393 20.8151 8.92812C20.9297 6.7694 20.7865 4.5819 18.7816 3.25788C16.7482 1.93387 14.6861 2.53831 12.7099 3.71841C11.0201 4.75459 9.55943 6.02104 8.29925 7.57532C4.28959 12.6411 2.88621 18.5416 2.65709 24.8739ZM27.116 33.7102C30.696 29.3352 33.5314 24.7587 34.7057 19.2612C34.8489 18.5704 35.0207 17.8508 34.9062 17.1313C34.6771 15.6345 34.1043 15.2316 32.6436 15.6346C31.0111 16.0951 29.7795 17.1313 28.8058 18.4841C26.6005 21.5063 25.7985 24.9314 25.8558 28.6157C25.8558 30.3426 26.1995 32.012 27.116 33.7102Z" fill="#A6A6A6"/>
</svg>
