<svg width="271" height="104" viewBox="0 0 271 104" fill="none" xmlns="http://www.w3.org/2000/svg">
<path d="M265 0H6C2.68629 0 0 2.68629 0 6V98C0 101.314 2.68629 104 6 104H265C268.314 104 271 101.314 271 98V6C271 2.68629 268.314 0 265 0Z" fill="white"/>
<path opacity="0.5" fill-rule="evenodd" clip-rule="evenodd" d="M98.6055 61.5292C98.6055 59.4107 100.323 57.6934 102.441 57.6934H162.489C164.607 57.6934 166.325 59.4107 166.325 61.5292V61.5292C166.325 63.6477 164.607 65.365 162.489 65.365H102.441C100.323 65.365 98.6055 63.6477 98.6055 61.5292V61.5292Z" fill="#E3E6EB"/>
<path d="M185.93 41.0713H102.441C100.323 41.0713 98.6055 42.7887 98.6055 44.9071C98.6055 47.0256 100.323 48.743 102.441 48.743H185.93C188.048 48.743 189.766 47.0256 189.766 44.9071C189.766 42.7887 188.048 41.0713 185.93 41.0713Z" fill="#E3E6EB"/>
<mask id="mask0" style="mask-type:alpha" maskUnits="userSpaceOnUse" x="20" y="24" width="62" height="60">
<path d="M81.6407 53.7955C81.6407 70.2507 68.0535 83.5909 51.2935 83.5909C34.5332 83.5909 20.9463 70.2507 20.9463 53.7955C20.9463 37.3402 34.5332 24 51.2935 24C68.0535 24 81.6407 37.3402 81.6407 53.7955Z" fill="#EFF1F7"/>
</mask>
<g mask="url(#mask0)">
<path d="M81.4337 53.7925C81.4337 70.2478 67.8465 83.588 51.0865 83.588C34.3261 83.588 20.7393 70.2478 20.7393 53.7925C20.7393 37.3373 34.3261 23.9971 51.0865 23.9971C67.8465 23.9971 81.4337 37.3373 81.4337 53.7925Z" fill="#EFF1F7"/>
<path d="M70.5282 85.1413V90.0142C70.5282 90.5628 70.0757 91.0072 69.5169 91.0072H32.6031C32.0444 91.0072 31.5918 90.5628 31.5918 90.0142V85.1413C31.5918 80.0289 35.8129 75.887 41.0212 75.8858C42.8619 75.8846 44.4825 74.9549 45.4155 73.5449C46.3528 72.1307 46.2562 70.9009 46.2562 69.907L46.2751 69.8611C41.7368 68.0167 38.5447 63.6266 38.5447 58.5042V58.1157C36.7427 58.1157 35.3843 56.7175 35.3843 55.0699V49.9115C35.3439 48.1155 35.4273 41.7817 40.087 37.3718C45.5053 32.2445 54.0915 32.664 60.3112 35.407C60.5135 35.4964 60.5072 35.7806 60.3024 35.8638L58.6804 36.5191C58.4377 36.6172 58.4896 36.9684 58.75 36.9957L59.5375 37.0789C63.775 37.5232 67.3008 40.0068 69.0593 42.9497C69.0757 42.9782 69.0707 43.0155 69.0466 43.0403C67.6459 44.4428 66.8622 46.3307 66.8622 48.2967V54.8899C66.8622 56.6685 65.3945 58.1157 63.5753 58.1157V58.5042C63.5753 63.6266 60.3833 68.0167 55.8449 69.8611L55.8639 69.907C55.8639 70.8728 55.7594 72.1189 56.7045 73.5449C57.6375 74.9549 59.2582 75.8846 61.0988 75.8858C66.3072 75.887 70.5282 80.0289 70.5282 85.1413V85.1413Z" fill="#CDCFD5"/>
<path d="M69.0603 42.9495C69.0772 42.9777 69.0721 43.0154 69.0476 43.04C67.6478 44.443 66.8637 46.3311 66.8637 48.2966V54.8898C66.8637 56.6683 65.3964 58.1157 63.5769 58.1157C63.5769 54.3597 63.579 52.3969 63.5783 51.3419C63.5778 50.6757 62.9223 50.197 62.2739 50.3929C60.2358 51.0085 57.8584 51.3258 55.3599 50.7927C50.9631 49.8543 49.7179 48.1626 46.1315 47.3173C42.124 46.374 38.4895 49.3876 38.5148 53.2428C38.5224 54.51 38.5439 56.0938 38.5464 58.1157C36.7444 58.1157 35.386 56.7175 35.386 55.0698V49.9114C35.3456 48.1154 35.429 41.7817 40.0887 37.3717C45.5065 32.2443 54.0936 32.664 60.3123 35.4073C60.5146 35.4965 60.5092 35.7809 60.3041 35.8638L58.682 36.5194C58.4395 36.6175 58.4906 36.9683 58.7513 36.9958L59.5391 37.0788C63.777 37.5236 67.3025 40.0064 69.0603 42.9495V42.9495Z" fill="#B4B7C0"/>
<path d="M62.274 50.3915C62.9224 50.1956 63.5778 50.6738 63.5783 51.3399C63.5792 52.4315 63.577 54.4937 63.577 58.5027C63.577 63.6251 60.3849 68.0152 55.8466 69.8596C47.6399 73.2042 38.5464 67.2625 38.5464 58.5027C38.5464 56.2375 38.5231 54.628 38.5148 53.2414C38.4895 49.3862 42.124 46.3726 46.1314 47.3159C49.7179 48.1612 50.9631 49.8529 55.3598 50.7913C57.8585 51.3242 60.2359 51.0071 62.274 50.3915V50.3915Z" fill="white"/>
<path d="M70.5282 85.1403V90.0132C70.5282 90.5616 70.0754 91.0062 69.5169 91.0062H32.6031C32.0446 91.0062 31.5918 90.5616 31.5918 90.0132V85.1403C31.5918 80.0279 35.8135 75.8867 41.0206 75.8848C42.8618 75.8842 44.4828 74.9534 45.4155 73.5439C48.6712 76.2748 53.4469 76.2764 56.7045 73.5439C57.6371 74.9534 59.2583 75.8842 61.0994 75.8848C66.3065 75.8867 70.5282 80.0279 70.5282 85.1403V85.1403Z" fill="#727889"/>
</g>
</svg>
