<svg width="201" height="200" viewBox="0 0 201 200" fill="none" xmlns="http://www.w3.org/2000/svg">
<path d="M194.004 0H6.00391C2.6902 0 0.00390625 2.68629 0.00390625 5.99999V194C0.00390625 197.314 2.69019 200 6.0039 200H194.004C197.318 200 200.004 197.314 200.004 194V6C200.004 2.68629 197.318 0 194.004 0Z" fill="white"/>
<path opacity="0.5" fill-rule="evenodd" clip-rule="evenodd" d="M25.3535 171.949C25.3535 169.713 27.166 167.9 29.4017 167.9H91.4744C93.7102 167.9 95.5226 169.713 95.5226 171.949V171.949C95.5226 174.184 93.7102 175.997 91.4744 175.997H29.4017C27.166 175.997 25.3535 174.184 25.3535 171.949V171.949Z" fill="#E3E6EB"/>
<path d="M115.764 150.357H29.4017C27.166 150.357 25.3535 152.17 25.3535 154.406C25.3535 156.641 27.166 158.454 29.4017 158.454H115.764C117.999 158.454 119.812 156.641 119.812 154.406C119.812 152.17 117.999 150.357 115.764 150.357Z" fill="#E3E6EB"/>
<path d="M31.2777 126.45C31.3527 126.451 31.427 126.465 31.4972 126.491C31.5725 126.515 31.6422 126.554 31.7022 126.606C31.7637 126.664 31.8125 126.734 31.8458 126.811L33.0805 129.321L35.8738 129.732C35.9539 129.742 36.0309 129.769 36.0994 129.812C36.1647 129.853 36.2241 129.904 36.2758 129.961C36.3197 130.024 36.3529 130.093 36.3743 130.166C36.3942 130.234 36.4046 130.305 36.405 130.376C36.406 130.452 36.3891 130.527 36.3558 130.595C36.3218 130.662 36.2775 130.723 36.2245 130.776L34.1921 132.759L34.672 135.552C34.6875 135.627 34.6875 135.703 34.672 135.778C34.655 135.851 34.6259 135.92 34.5858 135.983C34.5483 136.048 34.4973 136.105 34.4361 136.149C34.3114 136.238 34.1578 136.278 34.0054 136.26C33.9325 136.249 33.8627 136.223 33.8003 136.184L31.2777 134.882L28.7633 136.184C28.701 136.223 28.6311 136.249 28.5582 136.26C28.4058 136.278 28.2522 136.238 28.1275 136.149C28.0664 136.105 28.0153 136.048 27.9778 135.983C27.9377 135.92 27.9086 135.851 27.8916 135.778C27.8761 135.703 27.8761 135.627 27.8916 135.552L28.3715 132.759L26.3309 130.786C26.2796 130.729 26.2375 130.665 26.2058 130.595C26.1742 130.526 26.1554 130.452 26.1504 130.376C26.1503 130.303 26.1606 130.23 26.1812 130.16C26.2029 130.085 26.2399 130.015 26.2899 129.955C26.336 129.896 26.3922 129.845 26.456 129.806C26.5249 129.765 26.6019 129.739 26.6816 129.732L29.4749 129.321L30.726 126.799C30.7585 126.725 30.8068 126.659 30.8675 126.606C30.9275 126.554 30.9973 126.515 31.0726 126.491C31.1382 126.466 31.2075 126.452 31.2777 126.45V126.45Z" fill="#757C8E"/>
<path d="M44.7699 126.45C44.8449 126.451 44.9192 126.465 44.9893 126.491C45.0647 126.515 45.1344 126.554 45.1944 126.606C45.2558 126.664 45.3047 126.734 45.338 126.811L46.5727 129.321L49.366 129.732C49.4461 129.742 49.5231 129.769 49.5916 129.812C49.6569 129.853 49.7163 129.904 49.768 129.961C49.8118 130.024 49.8451 130.093 49.8664 130.166C49.8864 130.234 49.8968 130.305 49.8972 130.376C49.8982 130.452 49.8813 130.527 49.848 130.595C49.814 130.662 49.7697 130.723 49.7167 130.776L47.6843 132.759L48.1642 135.552C48.1797 135.627 48.1797 135.703 48.1642 135.778C48.1472 135.851 48.1181 135.92 48.078 135.983C48.0405 136.048 47.9894 136.105 47.9283 136.149C47.8036 136.238 47.65 136.278 47.4976 136.26C47.4247 136.249 47.3548 136.223 47.2925 136.184L44.7699 134.882L42.2555 136.184C42.1932 136.223 42.1233 136.249 42.0504 136.26C41.898 136.278 41.7444 136.238 41.6197 136.149C41.5585 136.105 41.5075 136.048 41.47 135.983C41.4299 135.92 41.4008 135.851 41.3838 135.778C41.3683 135.703 41.3683 135.627 41.3838 135.552L41.8637 132.759L39.8231 130.786C39.7718 130.729 39.7296 130.665 39.698 130.595C39.6663 130.526 39.6476 130.452 39.6426 130.376C39.6424 130.303 39.6528 130.23 39.6733 130.16C39.6951 130.085 39.7321 130.015 39.782 129.955C39.8282 129.896 39.8844 129.845 39.9482 129.806C40.0171 129.765 40.0941 129.739 40.1738 129.732L42.9671 129.321L44.2182 126.799C44.2507 126.725 44.299 126.659 44.3597 126.606C44.4197 126.554 44.4895 126.515 44.5648 126.491C44.6304 126.466 44.6997 126.452 44.7699 126.45V126.45Z" fill="#757C8E"/>
<path d="M58.265 126.45C58.34 126.451 58.4143 126.465 58.4845 126.491C58.5598 126.515 58.6295 126.554 58.6896 126.606C58.751 126.664 58.7998 126.734 58.8331 126.811L60.0678 129.321L62.8611 129.732C62.9412 129.742 63.0182 129.769 63.0867 129.812C63.152 129.853 63.2114 129.904 63.2631 129.961C63.307 130.024 63.3402 130.093 63.3616 130.166C63.3815 130.234 63.3919 130.305 63.3923 130.376C63.3933 130.452 63.3764 130.527 63.3431 130.595C63.3091 130.662 63.2648 130.723 63.2118 130.776L61.1794 132.759L61.6593 135.552C61.6748 135.627 61.6748 135.703 61.6593 135.778C61.6423 135.851 61.6132 135.92 61.5732 135.983C61.5356 136.048 61.4846 136.105 61.4234 136.149C61.2987 136.238 61.1451 136.278 60.9927 136.26C60.9198 136.249 60.85 136.223 60.7876 136.184L58.265 134.882L55.7506 136.184C55.6883 136.223 55.6184 136.249 55.5455 136.26C55.3931 136.278 55.2395 136.238 55.1148 136.149C55.0537 136.105 55.0026 136.048 54.9651 135.983C54.925 135.92 54.8959 135.851 54.8789 135.778C54.8635 135.703 54.8635 135.627 54.8789 135.552L55.3588 132.759L53.3182 130.786C53.267 130.729 53.2248 130.665 53.1931 130.595C53.1615 130.526 53.1427 130.452 53.1377 130.376C53.1376 130.303 53.1479 130.23 53.1685 130.16C53.1902 130.085 53.2272 130.015 53.2772 129.955C53.3233 129.896 53.3796 129.845 53.4433 129.806C53.5122 129.765 53.5892 129.739 53.6689 129.732L56.4622 129.321L57.7133 126.799C57.7458 126.725 57.7941 126.659 57.8548 126.606C57.9148 126.554 57.9846 126.515 58.0599 126.491C58.1255 126.466 58.1948 126.452 58.265 126.45V126.45Z" fill="#757C8E"/>
<path d="M71.7582 126.45C71.8332 126.451 71.9075 126.465 71.9776 126.491C72.053 126.515 72.1227 126.554 72.1827 126.606C72.2441 126.664 72.293 126.734 72.3263 126.811L73.5609 129.321L76.3543 129.732C76.4344 129.742 76.5114 129.769 76.5799 129.812C76.6452 129.853 76.7045 129.904 76.7563 129.961C76.8001 130.024 76.8334 130.093 76.8547 130.166C76.8747 130.234 76.885 130.305 76.8855 130.376C76.8865 130.452 76.8696 130.527 76.8363 130.595C76.8022 130.662 76.758 130.723 76.705 130.776L74.6725 132.759L75.1525 135.552C75.1679 135.627 75.1679 135.703 75.1525 135.778C75.1355 135.851 75.1064 135.92 75.0663 135.983C75.0288 136.048 74.9777 136.105 74.9166 136.149C74.7919 136.238 74.6383 136.278 74.4859 136.26C74.413 136.249 74.3431 136.223 74.2808 136.184L71.7582 134.882L69.2437 136.184C69.1814 136.223 69.1116 136.249 69.0386 136.26C68.8863 136.278 68.7327 136.238 68.608 136.149C68.5468 136.105 68.4958 136.048 68.4582 135.983C68.4182 135.92 68.389 135.851 68.3721 135.778C68.3566 135.703 68.3566 135.627 68.3721 135.552L68.852 132.759L66.8113 130.786C66.7601 130.729 66.7179 130.665 66.6862 130.595C66.6546 130.526 66.6359 130.452 66.6309 130.376C66.6307 130.303 66.6411 130.23 66.6616 130.16C66.6834 130.085 66.7204 130.015 66.7703 129.955C66.8165 129.896 66.8727 129.845 66.9364 129.806C67.0053 129.765 67.0824 129.739 67.1621 129.732L69.9554 129.321L71.2065 126.799C71.239 126.725 71.2873 126.659 71.348 126.606C71.408 126.554 71.4777 126.515 71.5531 126.491C71.6187 126.466 71.688 126.452 71.7582 126.45V126.45Z" fill="#B4B7C0"/>
<path d="M85.2533 126.45C85.3283 126.451 85.4026 126.465 85.4727 126.491C85.5481 126.515 85.6178 126.554 85.6778 126.606C85.7392 126.664 85.7881 126.734 85.8214 126.811L87.0561 129.321L89.8494 129.732C89.9295 129.742 90.0065 129.769 90.075 129.812C90.1403 129.853 90.1997 129.904 90.2514 129.961C90.2952 130.024 90.3285 130.093 90.3498 130.166C90.3698 130.234 90.3802 130.305 90.3806 130.376C90.3816 130.452 90.3647 130.527 90.3314 130.595C90.2974 130.662 90.2531 130.723 90.2001 130.776L88.1677 132.759L88.6476 135.552C88.6631 135.627 88.6631 135.703 88.6476 135.778C88.6306 135.851 88.6015 135.92 88.5614 135.983C88.5239 136.048 88.4728 136.105 88.4117 136.149C88.287 136.238 88.1334 136.278 87.981 136.26C87.9081 136.249 87.8382 136.223 87.7759 136.184L85.2533 134.882L82.7389 136.184C82.6765 136.223 82.6067 136.249 82.5338 136.26C82.3814 136.278 82.2278 136.238 82.1031 136.149C82.0419 136.105 81.9909 136.048 81.9534 135.983C81.9133 135.92 81.8842 135.851 81.8672 135.778C81.8517 135.703 81.8517 135.627 81.8672 135.552L82.3471 132.759L80.3065 130.786C80.2552 130.729 80.213 130.665 80.1814 130.595C80.1497 130.526 80.131 130.452 80.126 130.376C80.1258 130.303 80.1362 130.23 80.1567 130.16C80.1785 130.085 80.2155 130.015 80.2654 129.955C80.3116 129.896 80.3678 129.845 80.4316 129.806C80.5005 129.765 80.5775 129.739 80.6572 129.732L83.4505 129.321L84.7016 126.799C84.7341 126.725 84.7824 126.659 84.8431 126.606C84.9031 126.554 84.9729 126.515 85.0482 126.491C85.1138 126.466 85.1831 126.452 85.2533 126.45V126.45Z" fill="#B4B7C0"/>
<path d="M90.21 60.4551C90.21 79.7847 74.5396 95.4551 55.21 95.4551C35.8799 95.4551 20.21 79.7847 20.21 60.4551C20.21 41.1255 35.8799 25.4551 55.21 25.4551C74.5396 25.4551 90.21 41.1255 90.21 60.4551Z" fill="#EFF1F7"/>
<mask id="mask0" style="mask-type:alpha" maskUnits="userSpaceOnUse" x="20" y="25" width="71" height="71">
<path d="M90.21 60.4551C90.21 79.7847 74.5396 95.4551 55.21 95.4551C35.8799 95.4551 20.21 79.7847 20.21 60.4551C20.21 41.1255 35.8799 25.4551 55.21 25.4551C74.5396 25.4551 90.21 41.1255 90.21 60.4551Z" fill="#EFF1F7"/>
</mask>
<g mask="url(#mask0)">
<path d="M72.6475 91.0096V95.5576C72.6475 96.0696 72.2328 96.4843 71.7207 96.4843H37.8945C37.3825 96.4843 36.9678 96.0696 36.9678 95.5576V91.0096C36.9678 86.238 40.8358 82.3723 45.6085 82.3711C47.2952 82.37 48.7803 81.5023 49.6352 80.1863C50.4941 78.8664 50.4056 77.7186 50.4056 76.791L50.423 76.7481C46.2642 75.0267 43.3391 70.9293 43.3391 66.1484V65.7859C41.6878 65.7859 40.4431 64.4809 40.4431 62.9431V58.1286C40.406 56.4524 40.4825 50.5409 44.7524 46.425C49.7175 41.6395 57.5855 42.031 63.285 44.5912C63.4704 44.6746 63.4646 44.9399 63.2769 45.0175L61.7907 45.6291C61.5682 45.7207 61.6157 46.0485 61.8544 46.074L62.5761 46.1516C66.4591 46.5663 69.69 48.8843 71.3014 51.631C71.3164 51.6576 71.3118 51.6924 71.2898 51.7155C70.0063 53.0246 69.288 54.7865 69.288 56.6215V62.7751C69.288 64.4351 67.9431 65.7859 66.2761 65.7859V66.1484C66.2761 70.9293 63.3511 75.0267 59.1923 76.7481L59.2097 76.791C59.2097 77.6923 59.114 78.8554 59.98 80.1863C60.8349 81.5023 62.3201 82.37 64.0067 82.3711C68.7795 82.3723 72.6475 86.238 72.6475 91.0096Z" fill="#CDCFD5"/>
<path d="M71.3029 51.6308C71.3183 51.6571 71.3137 51.6923 71.2912 51.7152C70.0085 53.0247 69.29 54.7869 69.29 56.6214V62.775C69.29 64.4349 67.9454 65.7858 66.2781 65.7858C66.2781 62.2803 66.28 60.4483 66.2793 59.4636C66.2789 58.8419 65.6782 58.3951 65.0841 58.5779C63.2164 59.1525 61.0379 59.4486 58.7484 58.951C54.7193 58.0753 53.5783 56.4963 50.2918 55.7074C46.6196 54.827 43.2891 57.6397 43.3123 61.2378C43.3192 62.4205 43.3389 63.8987 43.3412 65.7858C41.6899 65.7858 40.4451 64.4808 40.4451 62.943V58.1286C40.4081 56.4523 40.4845 50.5408 44.7545 46.4249C49.7191 41.6393 57.588 42.0311 63.2865 44.5915C63.4719 44.6748 63.467 44.9402 63.279 45.0175L61.7926 45.6294C61.5704 45.7209 61.6172 46.0484 61.8561 46.074L62.578 46.1515C66.4614 46.5667 69.6921 48.8839 71.3029 51.6308Z" fill="#B4B7C0"/>
<path d="M65.0826 58.5771C65.6767 58.3943 66.2774 58.8407 66.2779 59.4623C66.2787 60.4811 66.2766 62.4059 66.2766 66.1476C66.2766 70.9284 63.3515 75.0258 59.1928 76.7472C51.6726 79.8689 43.3396 74.3233 43.3396 66.1476C43.3396 64.0334 43.3183 62.5312 43.3107 61.237C43.2875 57.6389 46.618 54.8263 50.2902 55.7067C53.5767 56.4956 54.7177 58.0745 58.7468 58.9503C61.0364 59.4477 63.215 59.1517 65.0826 58.5771Z" fill="white"/>
<path d="M72.6475 91.0088V95.5568C72.6475 96.0686 72.2325 96.4835 71.7207 96.4835H37.8945C37.3827 96.4835 36.9678 96.0686 36.9678 95.5568V91.0088C36.9678 86.2372 40.8364 82.3721 45.6079 82.3704C47.2951 82.3698 48.7805 81.5011 49.6352 80.1855C52.6187 82.7343 56.9949 82.7358 59.98 80.1855C60.8346 81.5011 62.3202 82.3698 64.0073 82.3704C68.7789 82.3721 72.6475 86.2372 72.6475 91.0088Z" fill="#727889"/>
</g>
</svg>
