<svg width="157" height="200" viewBox="0 0 157 200" fill="none" xmlns="http://www.w3.org/2000/svg">
<path d="M150.004 0H6.00391C2.6902 0 0.00390625 2.68629 0.00390625 5.99999V194C0.00390625 197.314 2.6902 200 6.00391 200H150.004C153.318 200 156.004 197.314 156.004 194V6C156.004 2.68629 153.318 0 150.004 0Z" fill="white"/>
<path opacity="0.5" fill-rule="evenodd" clip-rule="evenodd" d="M19.0039 175.532C19.0039 173.875 20.3471 172.532 22.0039 172.532H68.0039C69.6608 172.532 71.0039 173.875 71.0039 175.532C71.0039 177.189 69.6608 178.532 68.0039 178.532H22.0039C20.3471 178.532 19.0039 177.189 19.0039 175.532Z" fill="#E3E6EB"/>
<path d="M86.0039 159.532H22.0039C20.3471 159.532 19.0039 160.875 19.0039 162.532C19.0039 164.189 20.3471 165.532 22.0039 165.532H86.0039C87.6608 165.532 89.0039 164.189 89.0039 162.532C89.0039 160.875 87.6608 159.532 86.0039 159.532Z" fill="#E3E6EB"/>
<path d="M23.3944 141.815C23.45 141.816 23.5051 141.826 23.557 141.846C23.6129 141.864 23.6646 141.893 23.709 141.931C23.7545 141.974 23.7907 142.026 23.8154 142.083L24.7304 143.943L26.8004 144.247C26.8598 144.255 26.9168 144.275 26.9676 144.307C27.016 144.337 27.06 144.375 27.0983 144.417C27.1308 144.464 27.1555 144.515 27.1713 144.569C27.1861 144.62 27.1938 144.672 27.1941 144.724C27.1948 144.781 27.1823 144.836 27.1576 144.887C27.1324 144.936 27.0996 144.982 27.0603 145.021L25.5541 146.491L25.9098 148.561C25.9213 148.616 25.9213 148.673 25.9098 148.728C25.8972 148.782 25.8757 148.833 25.846 148.88C25.8181 148.928 25.7803 148.97 25.735 149.003C25.6426 149.069 25.5287 149.098 25.4158 149.085C25.3618 149.077 25.31 149.058 25.2639 149.029L23.3944 148.064L21.531 149.029C21.4849 149.058 21.4331 149.077 21.3791 149.085C21.2662 149.098 21.1523 149.069 21.0599 149.003C21.0146 148.97 20.9768 148.928 20.9489 148.88C20.9192 148.833 20.8977 148.782 20.8851 148.728C20.8736 148.673 20.8736 148.616 20.8851 148.561L21.2407 146.491L19.7285 145.028C19.6905 144.986 19.6592 144.939 19.6358 144.887C19.6123 144.836 19.5984 144.781 19.5947 144.724C19.5946 144.67 19.6023 144.617 19.6175 144.565C19.6337 144.509 19.6611 144.457 19.6981 144.413C19.7323 144.369 19.774 144.331 19.8212 144.302C19.8722 144.272 19.9293 144.253 19.9884 144.247L22.0584 143.943L22.9856 142.074C23.0097 142.019 23.0455 141.97 23.0904 141.931C23.1349 141.893 23.1866 141.864 23.2424 141.846C23.291 141.827 23.3424 141.817 23.3944 141.815V141.815Z" fill="#757C8E"/>
<path d="M33.3934 141.815C33.449 141.816 33.5041 141.826 33.5561 141.846C33.6119 141.864 33.6636 141.893 33.708 141.931C33.7536 141.974 33.7898 142.026 33.8144 142.083L34.7294 143.943L36.7995 144.247C36.8588 144.255 36.9159 144.275 36.9667 144.307C37.015 144.337 37.059 144.375 37.0974 144.417C37.1299 144.464 37.1545 144.515 37.1703 144.569C37.1851 144.62 37.1928 144.672 37.1931 144.724C37.1938 144.781 37.1813 144.836 37.1566 144.887C37.1314 144.936 37.0986 144.982 37.0594 145.021L35.5532 146.491L35.9088 148.561C35.9203 148.616 35.9203 148.673 35.9088 148.728C35.8963 148.782 35.8747 148.833 35.845 148.88C35.8172 148.928 35.7793 148.97 35.734 149.003C35.6416 149.069 35.5278 149.098 35.4149 149.085C35.3608 149.077 35.3091 149.058 35.2629 149.029L33.3934 148.064L31.5301 149.029C31.4839 149.058 31.4321 149.077 31.3781 149.085C31.2652 149.098 31.1513 149.069 31.0589 149.003C31.0136 148.97 30.9758 148.928 30.948 148.88C30.9183 148.833 30.8967 148.782 30.8841 148.728C30.8727 148.673 30.8727 148.616 30.8841 148.561L31.2398 146.491L29.7275 145.028C29.6895 144.986 29.6583 144.939 29.6348 144.887C29.6114 144.836 29.5975 144.781 29.5938 144.724C29.5936 144.67 29.6013 144.617 29.6165 144.565C29.6327 144.509 29.6601 144.457 29.6971 144.413C29.7313 144.369 29.773 144.331 29.8202 144.302C29.8713 144.272 29.9283 144.253 29.9874 144.247L32.0575 143.943L32.9846 142.074C33.0087 142.019 33.0445 141.97 33.0895 141.931C33.1339 141.893 33.1856 141.864 33.2414 141.846C33.2901 141.827 33.3414 141.817 33.3934 141.815V141.815Z" fill="#757C8E"/>
<path d="M43.3934 141.815C43.449 141.816 43.5041 141.826 43.5561 141.846C43.6119 141.864 43.6636 141.893 43.708 141.931C43.7536 141.974 43.7898 142.026 43.8144 142.083L44.7294 143.943L46.7995 144.247C46.8588 144.255 46.9159 144.275 46.9667 144.307C47.015 144.337 47.059 144.375 47.0974 144.417C47.1299 144.464 47.1545 144.515 47.1703 144.569C47.1851 144.62 47.1928 144.672 47.1931 144.724C47.1938 144.781 47.1813 144.836 47.1566 144.887C47.1314 144.936 47.0986 144.982 47.0594 145.021L45.5532 146.491L45.9088 148.561C45.9203 148.616 45.9203 148.673 45.9088 148.728C45.8963 148.782 45.8747 148.833 45.845 148.88C45.8172 148.928 45.7793 148.97 45.734 149.003C45.6416 149.069 45.5278 149.098 45.4149 149.085C45.3608 149.077 45.3091 149.058 45.2629 149.029L43.3934 148.064L41.5301 149.029C41.4839 149.058 41.4321 149.077 41.3781 149.085C41.2652 149.098 41.1513 149.069 41.0589 149.003C41.0136 148.97 40.9758 148.928 40.948 148.88C40.9183 148.833 40.8967 148.782 40.8841 148.728C40.8727 148.673 40.8727 148.616 40.8841 148.561L41.2398 146.491L39.7275 145.028C39.6895 144.986 39.6583 144.939 39.6348 144.887C39.6114 144.836 39.5975 144.781 39.5938 144.724C39.5936 144.67 39.6013 144.617 39.6165 144.565C39.6327 144.509 39.6601 144.457 39.6971 144.413C39.7313 144.369 39.773 144.331 39.8202 144.302C39.8713 144.272 39.9283 144.253 39.9874 144.247L42.0575 143.943L42.9846 142.074C43.0087 142.019 43.0445 141.97 43.0895 141.931C43.1339 141.893 43.1856 141.864 43.2414 141.846C43.2901 141.827 43.3414 141.817 43.3934 141.815V141.815Z" fill="#757C8E"/>
<path d="M53.3934 141.815C53.449 141.816 53.5041 141.826 53.5561 141.846C53.6119 141.864 53.6636 141.893 53.708 141.931C53.7536 141.974 53.7898 142.026 53.8144 142.083L54.7294 143.943L56.7995 144.247C56.8588 144.255 56.9159 144.275 56.9667 144.307C57.015 144.337 57.059 144.375 57.0974 144.417C57.1299 144.464 57.1545 144.515 57.1703 144.569C57.1851 144.62 57.1928 144.672 57.1931 144.724C57.1938 144.781 57.1813 144.836 57.1566 144.887C57.1314 144.936 57.0986 144.982 57.0594 145.021L55.5532 146.491L55.9088 148.561C55.9203 148.616 55.9203 148.673 55.9088 148.728C55.8963 148.782 55.8747 148.833 55.845 148.88C55.8172 148.928 55.7793 148.97 55.734 149.003C55.6416 149.069 55.5278 149.098 55.4149 149.085C55.3608 149.077 55.3091 149.058 55.2629 149.029L53.3934 148.064L51.5301 149.029C51.4839 149.058 51.4321 149.077 51.3781 149.085C51.2652 149.098 51.1513 149.069 51.0589 149.003C51.0136 148.97 50.9758 148.928 50.948 148.88C50.9183 148.833 50.8967 148.782 50.8841 148.728C50.8727 148.673 50.8727 148.616 50.8841 148.561L51.2398 146.491L49.7275 145.028C49.6895 144.986 49.6583 144.939 49.6348 144.887C49.6114 144.836 49.5975 144.781 49.5938 144.724C49.5936 144.67 49.6013 144.617 49.6165 144.565C49.6327 144.509 49.6601 144.457 49.6971 144.413C49.7313 144.369 49.773 144.331 49.8202 144.302C49.8713 144.272 49.9283 144.253 49.9874 144.247L52.0575 143.943L52.9846 142.074C53.0087 142.019 53.0445 141.97 53.0895 141.931C53.1339 141.893 53.1856 141.864 53.2414 141.846C53.2901 141.827 53.3414 141.817 53.3934 141.815V141.815Z" fill="#B4B7C0"/>
<path d="M63.3934 141.815C63.449 141.816 63.5041 141.826 63.5561 141.846C63.6119 141.864 63.6636 141.893 63.708 141.931C63.7536 141.974 63.7898 142.026 63.8144 142.083L64.7294 143.943L66.7995 144.247C66.8588 144.255 66.9159 144.275 66.9667 144.307C67.015 144.337 67.059 144.375 67.0974 144.417C67.1299 144.464 67.1545 144.515 67.1703 144.569C67.1851 144.62 67.1928 144.672 67.1931 144.724C67.1938 144.781 67.1813 144.836 67.1566 144.887C67.1314 144.936 67.0986 144.982 67.0594 145.021L65.5532 146.491L65.9088 148.561C65.9203 148.616 65.9203 148.673 65.9088 148.728C65.8963 148.782 65.8747 148.833 65.845 148.88C65.8172 148.928 65.7793 148.97 65.734 149.003C65.6416 149.069 65.5278 149.098 65.4149 149.085C65.3608 149.077 65.3091 149.058 65.2629 149.029L63.3934 148.064L61.5301 149.029C61.4839 149.058 61.4321 149.077 61.3781 149.085C61.2652 149.098 61.1513 149.069 61.0589 149.003C61.0136 148.97 60.9758 148.928 60.948 148.88C60.9183 148.833 60.8967 148.782 60.8841 148.728C60.8727 148.673 60.8727 148.616 60.8841 148.561L61.2398 146.491L59.7275 145.028C59.6895 144.986 59.6583 144.939 59.6348 144.887C59.6114 144.836 59.5975 144.781 59.5938 144.724C59.5936 144.67 59.6013 144.617 59.6165 144.565C59.6327 144.509 59.6601 144.457 59.6971 144.413C59.7313 144.369 59.773 144.331 59.8202 144.302C59.8713 144.272 59.9283 144.253 59.9874 144.247L62.0575 143.943L62.9846 142.074C63.0087 142.019 63.0445 141.97 63.0895 141.931C63.1339 141.893 63.1856 141.864 63.2414 141.846C63.2901 141.827 63.3414 141.817 63.3934 141.815V141.815Z" fill="#B4B7C0"/>
<mask id="mask0" style="mask-type:alpha" maskUnits="userSpaceOnUse" x="0" y="0" width="157" height="107">
<path fill-rule="evenodd" clip-rule="evenodd" d="M0.00390625 6.00001C0.00390625 2.6863 2.6902 0 6.00391 0H150.004C153.318 0 156.004 2.68629 156.004 6V106.364H0.00390625V6.00001Z" fill="#EFF1F7"/>
</mask>
<g mask="url(#mask0)">
<path fill-rule="evenodd" clip-rule="evenodd" d="M0.00390625 6.00001C0.00390625 2.6863 2.6902 0 6.00391 0H150.004C153.318 0 156.004 2.68629 156.004 6V106.364H0.00390625V6.00001Z" fill="#EFF1F7"/>
<path fill-rule="evenodd" clip-rule="evenodd" d="M78.0485 74.3559C75.5535 71.8462 71.2518 71.6568 68.4953 73.9354L29.3066 106.328H109.833L78.0485 74.3559Z" fill="#E3E6EB"/>
<path opacity="0.3" fill-rule="evenodd" clip-rule="evenodd" d="M121.014 58.1419C118.38 55.546 113.841 55.5136 111.162 58.0716L60.6221 106.328H169.894L121.014 58.1419Z" fill="#C0C3CB"/>
<path fill-rule="evenodd" clip-rule="evenodd" d="M41.7206 47.7426C47.3416 47.7426 51.8982 43.6529 51.8982 38.6081C51.8982 33.5633 47.3416 29.4736 41.7206 29.4736C36.0996 29.4736 31.543 33.5633 31.543 38.6081C31.543 43.6529 36.0996 47.7426 41.7206 47.7426Z" fill="#E3E6EB"/>
</g>
<path d="M60.0043 105.908C60.0043 118.711 49.6252 129.09 36.8224 129.09C24.0194 129.09 13.6406 118.711 13.6406 105.908C13.6406 93.1057 24.0194 82.7266 36.8224 82.7266C49.6252 82.7266 60.0043 93.1057 60.0043 105.908Z" fill="#EFF1F7" stroke="white" stroke-width="2"/>
<mask id="mask1" style="mask-type:alpha" maskUnits="userSpaceOnUse" x="13" y="81" width="48" height="48">
<path d="M60.0043 105C60.0043 117.803 49.6252 128.182 36.8224 128.182C24.0194 128.182 13.6406 117.803 13.6406 105C13.6406 92.1975 24.0194 81.8184 36.8224 81.8184C49.6252 81.8184 60.0043 92.1975 60.0043 105Z" fill="#EFF1F7"/>
</mask>
<g mask="url(#mask1)">
<path d="M50.1079 125.23V128.719C50.1079 129.112 49.7897 129.431 49.3968 129.431H23.4416C23.0487 129.431 22.7305 129.112 22.7305 128.719V125.23C22.7305 121.568 25.6984 118.602 29.3606 118.601C30.6548 118.6 31.7944 117.935 32.4504 116.925C33.1094 115.912 33.0415 115.031 33.0415 114.32L33.0548 114.287C29.8637 112.966 27.6193 109.822 27.6193 106.154V105.875C26.3522 105.875 25.3971 104.874 25.3971 103.694V99.9998C25.3687 98.7136 25.4273 94.1777 28.7037 91.0195C32.5135 87.3475 38.5507 87.648 42.924 89.6124C43.0662 89.6764 43.0618 89.8799 42.9178 89.9395L41.7774 90.4088C41.6067 90.479 41.6431 90.7306 41.8262 90.7502L42.38 90.8097C45.3595 91.1279 47.8386 92.9066 49.075 95.0141C49.0866 95.0345 49.083 95.0612 49.0662 95.079C48.0813 96.0834 47.5302 97.4354 47.5302 98.8434V103.565C47.5302 104.839 46.4982 105.875 45.2191 105.875V106.154C45.2191 109.822 42.9747 112.966 39.7836 114.287L39.7969 114.32C39.7969 115.011 39.7235 115.904 40.388 116.925C41.044 117.935 42.1836 118.6 43.4778 118.601C47.14 118.602 50.1079 121.568 50.1079 125.23Z" fill="#CDCFD5"/>
<path d="M49.0776 95.014C49.0894 95.0341 49.0859 95.0612 49.0686 95.0788C48.0844 96.0835 47.5331 97.4357 47.5331 98.8433V103.565C47.5331 104.839 46.5014 105.875 45.222 105.875C45.222 103.185 45.2235 101.78 45.223 101.024C45.2226 100.547 44.7617 100.204 44.3058 100.345C42.8728 100.785 41.2012 101.013 39.4444 100.631C36.3529 99.9589 35.4773 98.7473 32.9556 98.142C30.1378 97.4665 27.5823 99.6247 27.6001 102.386C27.6054 103.293 27.6205 104.427 27.6223 105.875C26.3552 105.875 25.4001 104.874 25.4001 103.694V99.9998C25.3717 98.7136 25.4303 94.1776 28.7067 91.0194C32.5161 87.3474 38.554 87.648 42.9266 89.6126C43.0688 89.6765 43.0651 89.8802 42.9208 89.9395L41.7803 90.409C41.6098 90.4793 41.6457 90.7305 41.829 90.7502L42.3829 90.8097C45.3627 91.1282 47.8416 92.9063 49.0776 95.014Z" fill="#B4B7C0"/>
<path d="M44.3046 100.345C44.7605 100.205 45.2214 100.547 45.2217 101.024C45.2223 101.806 45.2207 103.283 45.2207 106.154C45.2207 109.822 42.9763 112.966 39.7852 114.287C34.0149 116.682 27.6209 112.427 27.6209 106.154C27.6209 104.532 27.6046 103.379 27.5987 102.386C27.5809 99.6251 30.1365 97.4669 32.9542 98.1424C35.476 98.7478 36.3515 99.9593 39.443 100.631C41.1999 101.013 42.8715 100.786 44.3046 100.345Z" fill="white"/>
<path d="M50.1079 125.229V128.718C50.1079 129.111 49.7895 129.429 49.3968 129.429H23.4416C23.0489 129.429 22.7305 129.111 22.7305 128.718V125.229C22.7305 121.567 25.6989 118.602 29.3602 118.6C30.6547 118.6 31.7945 117.933 32.4504 116.924C34.7396 118.88 38.0975 118.881 40.388 116.924C41.0438 117.933 42.1837 118.6 43.4782 118.6C47.1395 118.602 50.1079 121.567 50.1079 125.229Z" fill="#727889"/>
</g>
</svg>
