<svg fill="none" height="107" viewBox="0 0 285 107" width="285" xmlns="http://www.w3.org/2000/svg" xmlns:xlink="http://www.w3.org/1999/xlink"><mask id="a" height="105" maskUnits="userSpaceOnUse" width="84" x="1" y="1"><path d="m85 1h-78c-3.31371 0-6 2.68629-6 6v93c0 3.314 2.68629 6 6 6h78z" fill="#f3f3f3"/></mask><path d="m278 .5h-271c-3.58985 0-6.5 2.91015-6.5 6.5v93c0 3.59 2.91016 6.5 6.50001 6.5h270.99999c3.59 0 6.5-2.91 6.5-6.5v-93c0-3.58985-2.91-6.5-6.5-6.5z" fill="#fff" stroke="#bababa"/><path d="m85 1h-78c-3.31371 0-6 2.68629-6 6v93c0 3.314 2.68629 6 6 6h78z" fill="#f3f3f3"/><g mask="url(#a)"><path d="m70.0087 85.773v7.1973c0 .8103-.6563 1.4666-1.4666 1.4666h-53.5306c-.8103 0-1.4666-.6563-1.4666-1.4666v-7.1973c0-7.5511 6.1212-13.6686 13.6742-13.6705 2.6692-.0018 5.0194-1.3749 6.3723-3.4574 1.3592-2.0888 1.2191-3.9052 1.2191-5.3733l.0275-.0678c-6.5813-2.7242-11.2103-9.2084-11.2103-16.7742v-.5738c-2.6132 0-4.5831-2.0651-4.5831-4.4987v-7.619c-.0586-2.6527.0624-12.0077 6.8197-18.5212 7.8573-7.57314 20.3086-6.9535 29.3282-2.902.2933.132.2841.5518-.0129.6746l-2.352.9679c-.352.1449-.2768.6637.1008.704l1.1421.1228c6.1451.6563 11.258 4.3246 13.808 8.6713.0238.0421.0165.0971-.0183.1338-2.0313 2.0716-3.1679 4.8599-3.1679 7.7638v9.7381c0 2.6271-2.1284 4.7646-4.7664 4.7646v.5738c0 7.5658-4.6289 14.05-11.2103 16.7742l.0275.0678c0 1.4265-.1514 3.267 1.2191 5.3733 1.353 2.0825 3.7032 3.4556 6.3724 3.4574 7.5529.0019 13.6741 6.1194 13.6741 13.6705z" fill="#cdcdcd"/><path d="m67.8824 23.4554c.0244.0416.0171.0973-.0185.1336-2.0299 2.0723-3.1669 4.861-3.1669 7.7642v9.7381c0 2.6269-2.1279 4.7646-4.7665 4.7646 0-5.5475.0032-8.4466.0021-10.0049-.0008-.9839-.9513-1.691-1.8916-1.4017-2.9555.9093-6.4031 1.3779-10.0263.5905-6.376-1.3859-8.1818-3.8846-13.3827-5.1331-5.8114-1.3932-11.0819 3.0579-11.0453 8.7519.011 1.8718.0422 4.211.0459 7.1973-2.6133 0-4.5831-2.0651-4.5831-4.4987v-7.619c-.0587-2.6527.0623-12.0077 6.8196-18.5212 7.8566-7.57333 20.3092-6.95333 29.3273-2.9015.2933.1318.2856.5518-.0119.6743l-2.3523.9683c-.3516.1448-.2775.6631.1005.7036l1.1425.1226c6.1455.6571 11.2581 4.3241 13.8072 8.6711z" fill="#d6d6d6"/><path d="m58.0377 34.4476c.9402-.2893 1.8908.417 1.8915 1.4007.0013 1.6124-.002 4.6583-.002 10.5797 0 7.5657-4.6289 14.0499-11.2103 16.7741-11.9008 4.94-25.0879-3.8359-25.0879-16.7741 0-3.3459-.0337-5.7231-.0458-7.7711-.0367-5.6941 5.2339-10.1452 11.0453-8.7519 5.2009 1.2484 7.0066 3.7471 13.3826 5.133 3.6234.7872 7.071.3188 10.0266-.5904z" fill="#e7e6e7"/><path d="m70.0087 85.7715v28.1065c0 .81-.6566 1.467-1.4666 1.467h-53.5306c-.8099 0-1.4666-.657-1.4666-1.467v-28.1065c0-7.5511 6.1221-13.6677 13.6732-13.6705 2.67-.0009 5.0207-1.3756 6.3733-3.4574 4.7213 4.0335 11.6468 4.0358 16.3708 0 1.3524 2.0818 3.7034 3.4565 6.3733 3.4574 7.5511.0028 13.6732 6.1194 13.6732 13.6705z" fill="#b7b7b7"/></g><path clip-rule="evenodd" d="m107.638 71.0465c0-1.7321 1.404-3.1363 3.136-3.1363h50.182c1.732 0 3.136 1.4042 3.136 3.1363 0 1.7322-1.404 3.1364-3.136 3.1364h-50.182c-1.732 0-3.136-1.4042-3.136-3.1364z" fill="#dcdbdc" fill-rule="evenodd"/><path d="m218.456 52.2275h-106.636c-2.31 0-4.182 1.8723-4.182 4.1819 0 2.3095 1.872 4.1818 4.182 4.1818h106.636c2.309 0 4.182-1.8723 4.182-4.1818 0-2.3096-1.873-4.1819-4.182-4.1819z" fill="#dcdbdc"/><g fill="#7a7a7a"><path d="m111.745 32.3643c.064.0004.127.0122.187.0349.064.0206.123.0539.174.0979.053.0493.094.1087.123.1748l1.052 2.1394 2.381.3495c.068.0086.133.0318.192.0682.055.0355.106.0784.15.1276.038.0532.066.1123.084.1748.017.0579.026.1179.026.1782.001.0648-.013.1289-.042.1871-.029.0568-.066.1087-.112.1538l-1.732 1.6902.409 2.3805c.014.0634.014.1289 0 .1923-.014.062-.039.1211-.073.1748-.032.0557-.076.104-.128.1416-.106.0761-.237.1097-.367.0943-.062-.0091-.121-.0311-.175-.0646l-2.149-1.1099-2.143 1.1099c-.053.0335-.113.0555-.175.0646-.13.0154-.261-.0182-.367-.0943-.052-.0376-.096-.0859-.128-.1416-.034-.0537-.059-.1128-.073-.1748-.013-.0634-.013-.1289 0-.1923l.409-2.3805-1.739-1.6815c-.044-.0484-.08-.1032-.107-.1625-.027-.059-.043-.1224-.047-.1871 0-.0621.009-.1239.026-.1835.019-.064.05-.1235.093-.1748.039-.0505.087-.0937.141-.1276.059-.0347.125-.0562.193-.0629l2.38-.3495 1.066-2.1499c.028-.0629.069-.119.121-.1643.051-.044.111-.0773.175-.0979.056-.0213.115-.0331.175-.0349z"/><path d="m123.246 32.3643c.064.0004.127.0122.187.0349.064.0206.123.0539.174.0979.053.0493.094.1087.123.1748l1.052 2.1394 2.381.3495c.068.0086.133.0318.192.0682.055.0355.106.0784.15.1276.038.0532.066.1123.084.1748.017.0579.026.1179.026.1782.001.0648-.013.1289-.042.1871-.029.0568-.066.1087-.112.1538l-1.732 1.6902.409 2.3805c.014.0634.014.1289 0 .1923-.014.062-.039.1211-.073.1748-.032.0557-.076.104-.128.1416-.106.0761-.237.1097-.367.0943-.062-.0091-.121-.0311-.175-.0646l-2.149-1.1099-2.143 1.1099c-.053.0335-.113.0555-.175.0646-.13.0154-.261-.0182-.367-.0943-.052-.0376-.096-.0859-.128-.1416-.034-.0537-.059-.1128-.073-.1748-.013-.0634-.013-.1289 0-.1923l.409-2.3805-1.739-1.6815c-.044-.0484-.08-.1032-.107-.1625-.027-.059-.043-.1224-.047-.1871 0-.0621.009-.1239.026-.1835.019-.064.05-.1235.093-.1748.039-.0505.087-.0937.141-.1276.059-.0347.125-.0562.193-.0629l2.38-.3495 1.066-2.1499c.028-.0629.069-.119.121-.1643.051-.044.111-.0773.175-.0979.056-.0213.115-.0331.175-.0349z"/><path d="m134.746 32.3643c.064.0004.127.0122.187.0349.064.0206.123.0539.174.0979.053.0493.094.1087.123.1748l1.052 2.1394 2.381.3495c.068.0086.133.0318.192.0682.055.0355.106.0784.15.1276.038.0532.066.1123.084.1748.017.0579.026.1179.026.1782.001.0648-.013.1289-.042.1871-.029.0568-.066.1087-.112.1538l-1.732 1.6902.409 2.3805c.014.0634.014.1289 0 .1923-.014.062-.039.1211-.073.1748-.032.0557-.076.104-.128.1416-.106.0761-.237.1097-.367.0943-.062-.0091-.121-.0311-.175-.0646l-2.149-1.1099-2.143 1.1099c-.053.0335-.113.0555-.175.0646-.13.0154-.261-.0182-.367-.0943-.052-.0376-.096-.0859-.128-.1416-.034-.0537-.059-.1128-.073-.1748-.013-.0634-.013-.1289 0-.1923l.409-2.3805-1.739-1.6815c-.044-.0484-.08-.1032-.107-.1625-.027-.059-.043-.1224-.047-.1871 0-.0621.009-.1239.026-.1835.019-.064.05-.1235.093-.1748.039-.0505.087-.0937.141-.1276.059-.0347.125-.0562.193-.0629l2.38-.3495 1.066-2.1499c.028-.0629.069-.119.121-.1643.051-.044.111-.0773.175-.0979.056-.0213.115-.0331.175-.0349z"/><path d="m146.246 32.3643c.064.0004.127.0122.187.0349.064.0206.123.0539.174.0979.053.0493.094.1087.123.1748l1.052 2.1394 2.381.3495c.068.0086.133.0318.192.0682.055.0355.106.0784.15.1276.038.0532.066.1123.084.1748.017.0579.026.1179.026.1782.001.0648-.013.1289-.042.1871-.029.0568-.066.1087-.112.1538l-1.732 1.6902.409 2.3805c.014.0634.014.1289 0 .1923-.014.062-.039.1211-.073.1748-.032.0557-.076.104-.128.1416-.106.0761-.237.1097-.367.0943-.062-.0091-.121-.0311-.175-.0646l-2.149-1.1099-2.143 1.1099c-.053.0335-.113.0555-.175.0646-.13.0154-.261-.0182-.367-.0943-.052-.0376-.096-.0859-.128-.1416-.034-.0537-.059-.1128-.073-.1748-.013-.0634-.013-.1289 0-.1923l.409-2.3805-1.739-1.6815c-.044-.0484-.08-.1032-.107-.1625-.027-.059-.043-.1224-.047-.1871 0-.0621.009-.1239.026-.1835.019-.064.05-.1235.093-.1748.039-.0505.087-.0937.141-.1276.059-.0347.125-.0562.193-.0629l2.38-.3495 1.066-2.1499c.028-.0629.069-.119.121-.1643.051-.044.111-.0773.175-.0979.056-.0213.115-.0331.175-.0349z"/><path d="m157.746 32.3643c.064.0004.127.0122.187.0349.064.0206.123.0539.174.0979.053.0493.094.1087.123.1748l1.052 2.1394 2.381.3495c.068.0086.133.0318.192.0682.055.0355.106.0784.15.1276.038.0532.066.1123.084.1748.017.0579.026.1179.026.1782.001.0648-.013.1289-.042.1871-.029.0568-.066.1087-.112.1538l-1.732 1.6902.409 2.3805c.014.0634.014.1289 0 .1923-.014.062-.039.1211-.073.1748-.032.0557-.076.104-.128.1416-.106.0761-.237.1097-.367.0943-.062-.0091-.121-.0311-.175-.0646l-2.149-1.1099-2.143 1.1099c-.053.0335-.113.0555-.175.0646-.13.0154-.261-.0182-.367-.0943-.052-.0376-.096-.0859-.128-.1416-.034-.0537-.059-.1128-.073-.1748-.013-.0634-.013-.1289 0-.1923l.409-2.3805-1.739-1.6815c-.044-.0484-.08-.1032-.107-.1625-.027-.059-.043-.1224-.047-.1871 0-.0621.009-.1239.026-.1835.019-.064.05-.1235.093-.1748.039-.0505.087-.0937.141-.1276.059-.0347.125-.0562.193-.0629l2.38-.3495 1.066-2.1499c.028-.0629.069-.119.121-.1643.051-.044.111-.0773.175-.0979.056-.0213.115-.0331.175-.0349z"/></g></svg>