<svg fill="none" height="202" viewBox="0 0 202 202" width="202" xmlns="http://www.w3.org/2000/svg" xmlns:xlink="http://www.w3.org/1999/xlink"><mask id="a" height="71" maskUnits="userSpaceOnUse" width="70" x="21" y="26"><path d="m91 61.4551c0 19.3296-15.6704 35-35 35-19.33 0-35-15.6704-35-35s15.67-35 35-35c19.3296 0 35 15.6704 35 35z" fill="#f3f3f3"/></mask><path d="m194.091.5h-187.091c-3.58985 0-6.5 2.91014-6.5 6.49999v188.00001c0 3.59 2.91015 6.5 6.5 6.5h187.091c3.59 0 6.5-2.91 6.5-6.5v-188c0-3.58985-2.91-6.5-6.5-6.5z" fill="#fff" stroke="#bababa"/><path clip-rule="evenodd" d="m25.1582 168.403c0-1.937 1.5699-3.507 3.5065-3.507h56.1039c1.9366 0 3.5065 1.57 3.5065 3.507s-1.5699 3.506-3.5065 3.506h-56.1039c-1.9366 0-3.5065-1.569-3.5065-3.506z" fill="#dcdbdc" fill-rule="evenodd"/><path d="m149.054 147.363h-119.2205c-2.5821 0-4.6753 2.093-4.6753 4.676 0 2.582 2.0932 4.675 4.6753 4.675h119.2205c2.582 0 4.676-2.093 4.676-4.675 0-2.583-2.094-4.676-4.676-4.676z" fill="#dcdbdc"/><g fill="#7a7a7a"><path d="m29.7486 125.156c.0715.001.1423.014.2091.039.0718.023.1382.061.1954.11.0585.055.1051.121.1368.195l1.1764 2.392 2.6615.391c.0763.009.1496.035.2149.076.0623.04.1188.088.1681.143.0418.059.0735.125.0938.195.019.065.0289.132.0293.199.0009.073-.0151.144-.0469.21-.0324.063-.0746.121-.1251.171l-1.9365 1.89.4573 2.662c.0147.071.0147.144 0 .215-.0162.069-.0439.135-.0821.195-.0358.062-.0844.116-.1427.158-.1188.085-.2652.123-.4103.106-.0695-.01-.1361-.035-.1954-.072l-2.4036-1.241-2.3958 1.241c-.0593.037-.1259.062-.1954.072-.1451.017-.2915-.021-.4103-.106-.0583-.042-.1069-.096-.1427-.158-.0382-.06-.0659-.126-.0821-.195-.0147-.071-.0147-.144 0-.215l.4573-2.662-1.9444-1.88c-.0488-.054-.089-.115-.1192-.181-.0301-.066-.0479-.137-.0527-.21-.0002-.069.0097-.138.0293-.205.0208-.071.056-.138.1036-.195.0439-.057.0975-.105.1582-.143.0657-.039.1391-.063.215-.07l2.6615-.391 1.192-2.404c.031-.07.077-.133.1349-.183.0571-.049.1236-.087.1954-.11.0625-.023.1285-.037.1954-.039z"/><path d="m42.607 125.156c.0715.001.1423.014.2091.039.0718.023.1382.061.1954.11.0585.055.1051.121.1368.195l1.1764 2.392 2.6615.391c.0763.009.1496.035.2149.076.0622.04.1188.088.1681.143.0418.059.0735.125.0938.195.019.065.0289.132.0293.199.0009.073-.0151.144-.0469.21-.0324.063-.0746.121-.1251.171l-1.9365 1.89.4573 2.662c.0147.071.0147.144 0 .215-.0162.069-.0439.135-.0821.195-.0358.062-.0844.116-.1427.158-.1188.085-.2652.123-.4103.106-.0695-.01-.1361-.035-.1954-.072l-2.4036-1.241-2.3958 1.241c-.0593.037-.1259.062-.1954.072-.1451.017-.2915-.021-.4103-.106-.0583-.042-.1069-.096-.1427-.158-.0382-.06-.0659-.126-.0821-.195-.0147-.071-.0147-.144 0-.215l.4573-2.662-1.9444-1.88c-.0488-.054-.089-.115-.1192-.181-.0301-.066-.0479-.137-.0527-.21-.0002-.069.0097-.138.0293-.205.0208-.071.056-.138.1036-.195.0439-.057.0975-.105.1582-.143.0657-.039.1391-.063.215-.07l2.6615-.391 1.192-2.404c.031-.07.077-.133.1349-.183.0571-.049.1236-.087.1954-.11.0625-.023.1285-.037.1954-.039z"/><path d="m55.4634 125.156c.0715.001.1423.014.2091.039.0718.023.1383.061.1954.11.0585.055.1051.121.1368.195l1.1764 2.392 2.6615.391c.0763.009.1497.035.215.076.0622.04.1187.088.168.143.0418.059.0735.125.0938.195.0191.065.0289.132.0293.199.001.073-.0151.144-.0469.21-.0324.063-.0746.121-.125.171l-1.9366 1.89.4573 2.662c.0148.071.0148.144 0 .215-.0161.069-.0439.135-.0821.195-.0357.062-.0844.116-.1426.158-.1189.085-.2652.123-.4104.106-.0695-.01-.136-.035-.1954-.072l-2.4036-1.241-2.3957 1.241c-.0594.037-.126.062-.1954.072-.1452.017-.2916-.021-.4104-.106-.0582-.042-.1069-.096-.1427-.158-.0381-.06-.0659-.126-.082-.195-.0148-.071-.0148-.144 0-.215l.4572-2.662-1.9443-1.88c-.0488-.054-.089-.115-.1192-.181-.0301-.066-.048-.137-.0528-.21-.0001-.069.0098-.138.0293-.205.0208-.071.056-.138.1036-.195.044-.057.0976-.105.1583-.143.0656-.039.139-.063.2149-.07l2.6616-.391 1.192-2.404c.0309-.07.077-.133.1348-.183.0572-.049.1236-.087.1954-.11.0625-.023.1286-.037.1954-.039z"/><path d="m68.3209 125.156c.0714.001.1422.014.209.039.0718.023.1383.061.1955.11.0585.055.105.121.1367.195l1.1764 2.392 2.6615.391c.0764.009.1497.035.215.076.0622.04.1188.088.168.143.0418.059.0735.125.0938.195.0191.065.0289.132.0294.199.0009.073-.0152.144-.0469.21-.0325.063-.0747.121-.1251.171l-1.9365 1.89.4572 2.662c.0148.071.0148.144 0 .215-.0161.069-.0439.135-.082.195-.0358.062-.0845.116-.1427.158-.1188.085-.2652.123-.4104.106-.0694-.01-.136-.035-.1954-.072l-2.4035-1.241-2.3958 1.241c-.0594.037-.1259.062-.1954.072-.1452.017-.2915-.021-.4104-.106-.0582-.042-.1068-.096-.1426-.158-.0382-.06-.066-.126-.0821-.195-.0148-.071-.0148-.144 0-.215l.4573-2.662-1.9444-1.88c-.0488-.054-.089-.115-.1192-.181-.0301-.066-.048-.137-.0528-.21-.0001-.069.0098-.138.0294-.205.0207-.071.056-.138.1035-.195.044-.057.0976-.105.1583-.143.0657-.039.139-.063.215-.07l2.6615-.391 1.192-2.404c.031-.07.077-.133.1348-.183.0572-.049.1237-.087.1954-.11.0625-.023.1286-.037.1955-.039z"/><path d="m81.1802 125.156c.0715.001.1423.014.2091.039.0718.023.1383.061.1954.11.0585.055.1051.121.1368.195l1.1764 2.392 2.6615.391c.0763.009.1497.035.215.076.0622.04.1187.088.168.143.0418.059.0735.125.0938.195.019.065.0289.132.0293.199.001.073-.0151.144-.0469.21-.0324.063-.0746.121-.125.171l-1.9366 1.89.4573 2.662c.0148.071.0148.144 0 .215-.0161.069-.0439.135-.0821.195-.0358.062-.0844.116-.1426.158-.1189.085-.2652.123-.4104.106-.0695-.01-.136-.035-.1954-.072l-2.4036-1.241-2.3957 1.241c-.0594.037-.126.062-.1954.072-.1452.017-.2916-.021-.4104-.106-.0582-.042-.1069-.096-.1427-.158-.0381-.06-.0659-.126-.082-.195-.0148-.071-.0148-.144 0-.215l.4572-2.662-1.9443-1.88c-.0488-.054-.089-.115-.1192-.181-.0301-.066-.048-.137-.0528-.21-.0001-.069.0098-.138.0293-.205.0208-.071.056-.138.1036-.195.044-.057.0976-.105.1583-.143.0656-.039.139-.063.2149-.07l2.6616-.391 1.192-2.404c.0309-.07.077-.133.1348-.183.0572-.049.1236-.087.1954-.11.0625-.023.1286-.037.1954-.039z"/></g><path d="m91 61.4551c0 19.3296-15.6704 35-35 35-19.33 0-35-15.6704-35-35s15.67-35 35-35c19.3296 0 35 15.6704 35 35z" fill="#f3f3f3"/><g mask="url(#a)"><path d="m73.4375 92.0096v4.548c0 .512-.4147.9267-.9267.9267h-33.8262c-.5121 0-.9268-.4147-.9268-.9267v-4.548c0-4.7716 3.868-8.6373 8.6408-8.6385 1.6866-.0011 3.1717-.8688 4.0267-2.1848.8588-1.3199.7703-2.4677.7703-3.3953l.0174-.0429c-4.1588-1.7214-7.0838-5.8188-7.0838-10.5997v-.3625c-1.6514 0-2.8961-1.305-2.8961-2.8428v-4.8145c-.0371-1.6762.0394-7.5877 4.3094-11.7036 4.965-4.7855 12.8331-4.394 18.5326-1.8338.1853.0834.1795.3487-.0081.4263l-1.4863.6116c-.2224.0916-.1749.4194.0637.4449l.7217.0776c3.8831.4147 7.1139 2.7327 8.7253 5.4794.0151.0266.0104.0614-.0116.0845-1.2835 1.3091-2.0017 3.071-2.0017 4.906v6.1536c0 1.66-1.345 3.0108-3.012 3.0108v.3625c0 4.7809-2.925 8.8783-7.0838 10.5997l.0174.0429c0 .9013-.0957 2.0644.7704 3.3953.8549 1.316 2.34 2.1837 4.0267 2.1848 4.7727.0012 8.6407 3.8669 8.6407 8.6385z" fill="#cdcdcd"/><path d="m72.0929 52.6308c.0154.0263.0108.0615-.0117.0844-1.2827 1.3095-2.0012 3.0717-2.0012 4.9062v6.1536c0 1.6599-1.3446 3.0108-3.0119 3.0108 0-3.5055.002-5.3375.0013-6.3222-.0005-.6217-.6011-1.0685-1.1953-.8857-1.8676.5746-4.0462.8707-6.3357.3731-4.029-.8757-5.1701-2.4547-8.4565-3.2436-3.6723-.8804-7.0028 1.9323-6.9796 5.5304.007 1.1827.0267 2.6609.029 4.548-1.6514 0-2.8961-1.305-2.8961-2.8428v-4.8144c-.0371-1.6763.0394-7.5878 4.3094-11.7037 4.9645-4.7856 12.8334-4.3938 18.532-1.8334.1853.0833.1805.3487-.0076.426l-1.4863.6119c-.2222.0915-.1754.419.0634.4446l.722.0775c3.8834.4152 7.114 2.7324 8.7248 5.4793z" fill="#d6d6d6"/><path d="m65.8726 59.5771c.5942-.1828 1.1948.2636 1.1953.8852.0008 1.0188-.0013 2.9436-.0013 6.6853 0 4.7808-2.925 8.8782-7.0838 10.5996-7.5202 3.1217-15.8531-2.4239-15.8531-10.5996 0-2.1142-.0213-3.6164-.029-4.9106-.0232-3.5981 3.3073-6.4107 6.9796-5.5303 3.2864.7889 4.4275 2.3678 8.4565 3.2436 2.2897.4974 4.4682.2014 6.3358-.3732z" fill="#e7e6e7"/><path d="m73.4375 92.0088v4.548c0 .5118-.4149.9267-.9267.9267h-33.8262c-.5118 0-.9268-.4149-.9268-.9267v-4.548c0-4.7716 3.8686-8.6367 8.6402-8.6384 1.6871-.0006 3.1726-.8693 4.0273-2.1849 2.9834 2.5488 7.3596 2.5503 10.3448 0 .8545 1.3156 2.3401 2.1843 4.0272 2.1849 4.7716.0017 8.6402 3.8668 8.6402 8.6384z" fill="#b7b7b7"/></g></svg>