<svg width="271" height="104" viewBox="0 0 271 104" fill="none" xmlns="http://www.w3.org/2000/svg">
<path d="M265 0H6C2.68629 0 0 2.68629 0 6V98C0 101.314 2.68629 104 6 104H265C268.314 104 271 101.314 271 98V6C271 2.68629 268.314 0 265 0Z" fill="white"/>
<path opacity="0.5" fill-rule="evenodd" clip-rule="evenodd" d="M106.523 73.5292C106.523 71.4107 108.241 69.6934 110.359 69.6934H169.175C171.294 69.6934 173.011 71.4107 173.011 73.5292V73.5292C173.011 75.6477 171.294 77.365 169.175 77.365H110.359C108.241 77.365 106.523 75.6477 106.523 73.5292V73.5292Z" fill="#E3E6EB"/>
<path d="M192.19 53.0713H110.359C108.241 53.0713 106.523 54.7887 106.523 56.9071C106.523 59.0256 108.241 60.743 110.359 60.743H192.19C194.309 60.743 196.026 59.0256 196.026 56.9071C196.026 54.7887 194.309 53.0713 192.19 53.0713Z" fill="#E3E6EB"/>
<path d="M110.893 30.4189C110.964 30.4194 111.034 30.4326 111.1 30.4578C111.172 30.4807 111.238 30.5178 111.295 30.5666C111.353 30.6214 111.399 30.6876 111.431 30.761L112.601 33.1396L115.247 33.5283C115.323 33.5378 115.396 33.5636 115.461 33.6041C115.523 33.6436 115.579 33.6913 115.628 33.7459C115.67 33.8051 115.701 33.8708 115.722 33.9403C115.741 34.0046 115.75 34.0714 115.751 34.1385C115.752 34.2105 115.736 34.2817 115.704 34.3464C115.672 34.4096 115.63 34.4673 115.58 34.5174L113.654 36.3966L114.109 39.0434C114.123 39.1139 114.123 39.1867 114.109 39.2572C114.093 39.3261 114.065 39.3918 114.027 39.4515C113.992 39.5135 113.943 39.5671 113.885 39.6089C113.767 39.6936 113.621 39.731 113.477 39.7139C113.408 39.7038 113.342 39.6793 113.283 39.642L110.893 38.408L108.51 39.642C108.451 39.6793 108.385 39.7038 108.316 39.7139C108.171 39.731 108.026 39.6936 107.908 39.6089C107.85 39.5671 107.801 39.5135 107.766 39.4515C107.728 39.3918 107.7 39.3261 107.684 39.2572C107.669 39.1867 107.669 39.1139 107.684 39.0434L108.139 36.3966L106.205 34.5271C106.157 34.4733 106.117 34.4124 106.087 34.3464C106.057 34.2809 106.039 34.2104 106.034 34.1385C106.034 34.0694 106.044 34.0007 106.063 33.9344C106.084 33.8633 106.119 33.7971 106.166 33.7401C106.21 33.6839 106.263 33.6359 106.324 33.5982C106.389 33.5596 106.462 33.5357 106.538 33.5283L109.184 33.1396L110.37 30.7493C110.401 30.6793 110.446 30.617 110.504 30.5666C110.561 30.5178 110.627 30.4807 110.698 30.4578C110.76 30.4341 110.826 30.421 110.893 30.4189V30.4189Z" fill="#757C8E"/>
<path d="M123.678 30.4189C123.749 30.4194 123.819 30.4326 123.886 30.4578C123.957 30.4807 124.023 30.5178 124.08 30.5666C124.138 30.6214 124.184 30.6876 124.216 30.761L125.386 33.1396L128.033 33.5283C128.109 33.5378 128.181 33.5636 128.246 33.6041C128.308 33.6436 128.365 33.6913 128.414 33.7459C128.455 33.8051 128.487 33.8708 128.507 33.9403C128.526 34.0046 128.536 34.0714 128.536 34.1385C128.537 34.2105 128.521 34.2817 128.489 34.3464C128.457 34.4096 128.415 34.4673 128.365 34.5174L126.439 36.3966L126.894 39.0434C126.909 39.1139 126.909 39.1867 126.894 39.2572C126.878 39.3261 126.85 39.3918 126.812 39.4515C126.777 39.5135 126.728 39.5671 126.67 39.6089C126.552 39.6936 126.407 39.731 126.262 39.7139C126.193 39.7038 126.127 39.6793 126.068 39.642L123.678 38.408L121.295 39.642C121.236 39.6793 121.17 39.7038 121.101 39.7139C120.956 39.731 120.811 39.6936 120.693 39.6089C120.635 39.5671 120.586 39.5135 120.551 39.4515C120.513 39.3918 120.485 39.3261 120.469 39.2572C120.455 39.1867 120.455 39.1139 120.469 39.0434L120.924 36.3966L118.99 34.5271C118.942 34.4733 118.902 34.4124 118.872 34.3464C118.842 34.2809 118.824 34.2104 118.819 34.1385C118.819 34.0694 118.829 34.0007 118.848 33.9344C118.869 33.8633 118.904 33.7971 118.951 33.7401C118.995 33.6839 119.049 33.6359 119.109 33.5982C119.174 33.5596 119.247 33.5357 119.323 33.5283L121.969 33.1396L123.155 30.7493C123.186 30.6793 123.231 30.617 123.289 30.5666C123.346 30.5178 123.412 30.4807 123.483 30.4578C123.545 30.4341 123.611 30.421 123.678 30.4189V30.4189Z" fill="#757C8E"/>
<path d="M136.464 30.4189C136.535 30.4194 136.605 30.4326 136.672 30.4578C136.743 30.4807 136.809 30.5178 136.866 30.5666C136.924 30.6214 136.971 30.6876 137.002 30.761L138.172 33.1396L140.819 33.5283C140.895 33.5378 140.968 33.5636 141.033 33.6041C141.094 33.6436 141.151 33.6913 141.2 33.7459C141.241 33.8051 141.273 33.8708 141.293 33.9403C141.312 34.0046 141.322 34.0714 141.322 34.1385C141.323 34.2105 141.307 34.2817 141.275 34.3464C141.243 34.4096 141.201 34.4673 141.151 34.5174L139.225 36.3966L139.68 39.0434C139.695 39.1139 139.695 39.1867 139.68 39.2572C139.664 39.3261 139.636 39.3918 139.598 39.4515C139.563 39.5135 139.514 39.5671 139.457 39.6089C139.338 39.6936 139.193 39.731 139.048 39.7139C138.979 39.7038 138.913 39.6793 138.854 39.642L136.464 38.408L134.081 39.642C134.022 39.6793 133.956 39.7038 133.887 39.7139C133.743 39.731 133.597 39.6936 133.479 39.6089C133.421 39.5671 133.373 39.5135 133.337 39.4515C133.299 39.3918 133.271 39.3261 133.255 39.2572C133.241 39.1867 133.241 39.1139 133.255 39.0434L133.71 36.3966L131.776 34.5271C131.728 34.4733 131.688 34.4124 131.658 34.3464C131.628 34.2809 131.61 34.2104 131.605 34.1385C131.605 34.0694 131.615 34.0007 131.635 33.9344C131.655 33.8633 131.69 33.7971 131.738 33.7401C131.781 33.6839 131.835 33.6359 131.895 33.5982C131.96 33.5596 132.033 33.5357 132.109 33.5283L134.756 33.1396L135.941 30.7493C135.972 30.6793 136.018 30.617 136.075 30.5666C136.132 30.5178 136.198 30.4807 136.269 30.4578C136.332 30.4341 136.397 30.421 136.464 30.4189V30.4189Z" fill="#757C8E"/>
<path d="M149.25 30.4189C149.321 30.4194 149.391 30.4326 149.458 30.4578C149.529 30.4807 149.595 30.5178 149.652 30.5666C149.71 30.6214 149.757 30.6876 149.788 30.761L150.958 33.1396L153.605 33.5283C153.681 33.5378 153.754 33.5636 153.819 33.6041C153.881 33.6436 153.937 33.6913 153.986 33.7459C154.027 33.8051 154.059 33.8708 154.079 33.9403C154.098 34.0046 154.108 34.0714 154.108 34.1385C154.109 34.2105 154.093 34.2817 154.062 34.3464C154.029 34.4096 153.987 34.4673 153.937 34.5174L152.011 36.3966L152.466 39.0434C152.481 39.1139 152.481 39.1867 152.466 39.2572C152.45 39.3261 152.422 39.3918 152.385 39.4515C152.349 39.5135 152.301 39.5671 152.243 39.6089C152.124 39.6936 151.979 39.731 151.835 39.7139C151.765 39.7038 151.699 39.6793 151.64 39.642L149.25 38.408L146.867 39.642C146.808 39.6793 146.742 39.7038 146.673 39.7139C146.529 39.731 146.383 39.6936 146.265 39.6089C146.207 39.5671 146.159 39.5135 146.123 39.4515C146.085 39.3918 146.058 39.3261 146.041 39.2572C146.027 39.1867 146.027 39.1139 146.041 39.0434L146.496 36.3966L144.563 34.5271C144.514 34.4733 144.474 34.4124 144.444 34.3464C144.414 34.2809 144.396 34.2104 144.392 34.1385C144.391 34.0694 144.401 34.0007 144.421 33.9344C144.441 33.8633 144.476 33.7971 144.524 33.7401C144.567 33.6839 144.621 33.6359 144.681 33.5982C144.746 33.5596 144.819 33.5357 144.895 33.5283L147.542 33.1396L148.727 30.7493C148.758 30.6793 148.804 30.617 148.861 30.5666C148.918 30.5178 148.984 30.4807 149.056 30.4578C149.118 30.4341 149.183 30.421 149.25 30.4189V30.4189Z" fill="#B4B7C0"/>
<path d="M162.036 30.4189C162.107 30.4194 162.178 30.4326 162.244 30.4578C162.315 30.4807 162.381 30.5178 162.438 30.5666C162.497 30.6214 162.543 30.6876 162.574 30.761L163.744 33.1396L166.391 33.5283C166.467 33.5378 166.54 33.5636 166.605 33.6041C166.667 33.6436 166.723 33.6913 166.772 33.7459C166.813 33.8051 166.845 33.8708 166.865 33.9403C166.884 34.0046 166.894 34.0714 166.894 34.1385C166.895 34.2105 166.879 34.2817 166.848 34.3464C166.815 34.4096 166.774 34.4673 166.723 34.5174L164.798 36.3966L165.252 39.0434C165.267 39.1139 165.267 39.1867 165.252 39.2572C165.236 39.3261 165.209 39.3918 165.171 39.4515C165.135 39.5135 165.087 39.5671 165.029 39.6089C164.911 39.6936 164.765 39.731 164.621 39.7139C164.552 39.7038 164.485 39.6793 164.426 39.642L162.036 38.408L159.654 39.642C159.594 39.6793 159.528 39.7038 159.459 39.7139C159.315 39.731 159.169 39.6936 159.051 39.6089C158.993 39.5671 158.945 39.5135 158.909 39.4515C158.871 39.3918 158.844 39.3261 158.828 39.2572C158.813 39.1867 158.813 39.1139 158.828 39.0434L159.282 36.3966L157.349 34.5271C157.3 34.4733 157.26 34.4124 157.23 34.3464C157.2 34.2809 157.182 34.2104 157.178 34.1385C157.178 34.0694 157.187 34.0007 157.207 33.9344C157.228 33.8633 157.263 33.7971 157.31 33.7401C157.354 33.6839 157.407 33.6359 157.467 33.5982C157.533 33.5596 157.606 33.5357 157.681 33.5283L160.328 33.1396L161.513 30.7493C161.544 30.6793 161.59 30.617 161.647 30.5666C161.704 30.5178 161.77 30.4807 161.842 30.4578C161.904 30.4341 161.97 30.421 162.036 30.4189V30.4189Z" fill="#B4B7C0"/>
<mask id="mask0" style="mask-type:alpha" maskUnits="userSpaceOnUse" x="0" y="0" width="84" height="104">
<path d="M84 0H6C2.68629 0 0 2.68629 0 6V98C0 101.314 2.68629 104 6 104H84V0Z" fill="#EFF1F7"/>
</mask>
<g mask="url(#mask0)">
<path d="M84 0H6C2.68629 0 0 2.68629 0 6V99C0 102.314 2.68629 105 6 105H84V0Z" fill="#EFF1F7"/>
<path d="M69.0087 84.773V91.9703C69.0087 92.7806 68.3524 93.4369 67.5421 93.4369H14.0115C13.2012 93.4369 12.5449 92.7806 12.5449 91.9703V84.773C12.5449 77.2219 18.6661 71.1044 26.2191 71.1025C28.8883 71.1007 31.2385 69.7276 32.5914 67.6451C33.9506 65.5563 33.8105 63.7399 33.8105 62.2718L33.838 62.204C27.2567 59.4798 22.6277 52.9956 22.6277 45.4298V44.856C20.0145 44.856 18.0446 42.7909 18.0446 40.3573V32.7383C17.986 30.0856 18.107 20.7306 24.8643 14.2171C32.7216 6.64396 45.1729 7.2636 54.1925 11.3151C54.4858 11.4471 54.4766 11.8669 54.1796 11.9897L51.8276 12.9576C51.4756 13.1025 51.5508 13.6213 51.9284 13.6616L53.0705 13.7844C59.2156 14.4407 64.3285 18.109 66.8785 22.4557C66.9023 22.4978 66.895 22.5528 66.8602 22.5895C64.8289 24.6611 63.6923 27.4494 63.6923 30.3533V40.0914C63.6923 42.7185 61.5639 44.856 58.9259 44.856V45.4298C58.9259 52.9956 54.297 59.4798 47.7156 62.204L47.7431 62.2718C47.7431 63.6983 47.5917 65.5388 48.9622 67.6451C50.3152 69.7276 52.6654 71.1007 55.3346 71.1025C62.8875 71.1044 69.0087 77.2219 69.0087 84.773Z" fill="#CDCFD5"/>
<path d="M66.8824 22.4554C66.9068 22.497 66.8995 22.5527 66.8639 22.589C64.834 24.6613 63.697 27.45 63.697 30.3532V40.0913C63.697 42.7182 61.5691 44.8559 58.9305 44.8559C58.9305 39.3084 58.9337 36.4093 58.9326 34.851C58.9318 33.8671 57.9813 33.16 57.041 33.4493C54.0855 34.3586 50.6379 34.8272 47.0147 34.0398C40.6387 32.6539 38.8329 30.1552 33.632 28.9067C27.8206 27.5135 22.5501 31.9646 22.5867 37.6586C22.5977 39.5304 22.6289 41.8696 22.6326 44.8559C20.0193 44.8559 18.0495 42.7908 18.0495 40.3572V32.7382C17.9908 30.0855 18.1118 20.7305 24.8691 14.217C32.7257 6.64367 45.1783 7.26367 54.1964 11.3155C54.4897 11.4473 54.482 11.8673 54.1845 11.9898L51.8322 12.9581C51.4806 13.1029 51.5547 13.6212 51.9327 13.6617L53.0752 13.7843C59.2207 14.4414 64.3333 18.1084 66.8824 22.4554Z" fill="#B4B7C0"/>
<path d="M57.0377 33.4476C57.9779 33.1583 58.9285 33.8646 58.9292 34.8483C58.9305 36.4607 58.9272 39.5066 58.9272 45.428C58.9272 52.9937 54.2983 59.4779 47.7169 62.2021C35.8161 67.1421 22.629 58.3662 22.629 45.428C22.629 42.0821 22.5953 39.7049 22.5832 37.6569C22.5465 31.9628 27.8171 27.5117 33.6285 28.905C38.8294 30.1534 40.6351 32.6521 47.0111 34.038C50.6345 34.8252 54.0821 34.3568 57.0377 33.4476Z" fill="white"/>
<path d="M69.0087 84.7715V112.878C69.0087 113.688 68.3521 114.345 67.5421 114.345H14.0115C13.2016 114.345 12.5449 113.688 12.5449 112.878V84.7715C12.5449 77.2204 18.667 71.1038 26.2181 71.101C28.8881 71.1001 31.2388 69.7254 32.5914 67.6436C37.3127 71.6771 44.2382 71.6794 48.9622 67.6436C50.3146 69.7254 52.6656 71.1001 55.3355 71.101C62.8866 71.1038 69.0087 77.2204 69.0087 84.7715Z" fill="#727889"/>
</g>
</svg>
