<svg fill="none" height="202" viewBox="0 0 157 202" width="157" xmlns="http://www.w3.org/2000/svg" xmlns:xlink="http://www.w3.org/1999/xlink"><mask id="a" height="107" maskUnits="userSpaceOnUse" width="155" x="1" y="1"><path clip-rule="evenodd" d="m1 7.00001c0-3.31371 2.68629-6.00001 6-6.00001h142.545c3.314 0 6 2.68629 6 6v100.364h-154.545z" fill="#f3f3f3" fill-rule="evenodd"/></mask><mask id="b" height="48" maskUnits="userSpaceOnUse" width="48" x="14" y="82"><path d="m61.0004 106c0 12.803-10.3791 23.182-23.1819 23.182-12.803 0-23.1818-10.379-23.1818-23.182 0-12.8025 10.3788-23.1816 23.1818-23.1816 12.8028 0 23.1819 10.3791 23.1819 23.1816z" fill="#f3f3f3"/></mask><path d="m149.545.5h-142.545c-3.58985 0-6.5 2.91014-6.5 6.49999v188.00001c0 3.59 2.91015 6.5 6.5 6.5h142.545c3.59 0 6.5-2.91 6.5-6.5v-188c0-3.58985-2.91-6.5-6.5-6.5z" fill="#fff" stroke="#bababa"/><path clip-rule="evenodd" d="m17.3623 179.182c0-1.506 1.221-2.727 2.7273-2.727h43.6363c1.5063 0 2.7273 1.221 2.7273 2.727 0 1.507-1.221 2.728-2.7273 2.728h-43.6363c-1.5063 0-2.7273-1.221-2.7273-2.728z" fill="#e8e8e8" fill-rule="evenodd"/><path d="m113.726 162.818h-92.7273c-2.0083 0-3.6364 1.628-3.6364 3.637 0 2.008 1.6281 3.636 3.6364 3.636h92.7273c2.008 0 3.636-1.628 3.636-3.636 0-2.009-1.628-3.637-3.636-3.637z" fill="#dcdbdc"/><g fill="#7a7a7a"><path d="m20.9364 143.727c.0556 0 .1107.01.1626.03.0559.018.1075.047.152.085.0455.043.0817.095.1064.152l.915 1.86 2.07.304c.0594.008.1164.028.1672.06.0484.031.0924.068.1307.111.0325.046.0572.097.073.152.0148.05.0225.102.0228.155.0007.056-.0118.112-.0365.162-.0252.05-.058.095-.0973.134l-1.5062 1.47.3557 2.07c.0115.055.0115.112 0 .167-.0126.054-.0342.105-.0638.152-.0279.048-.0657.09-.111.123-.0924.066-.2063.096-.3192.082-.054-.008-.1058-.027-.152-.056l-1.8694-.965-1.8634.965c-.0461.029-.0979.048-.1519.056-.113.014-.2268-.016-.3192-.082-.0453-.033-.0831-.075-.111-.123-.0297-.047-.0512-.098-.0638-.152-.0115-.055-.0115-.112 0-.167l.3556-2.07-1.5122-1.462c-.038-.043-.0693-.09-.0927-.142-.0235-.051-.0374-.106-.0411-.162-.0001-.054.0076-.108.0228-.16.0162-.056.0436-.107.0806-.152.0342-.044.0758-.081.1231-.111.051-.03.1081-.049.1672-.055l2.07-.304.9272-1.869c.024-.055.0598-.104.1048-.143.0445-.038.0962-.067.152-.085.0486-.019.1-.029.152-.03z"/><path d="m30.9354 143.727c.0556 0 .1107.01.1627.03.0558.018.1075.047.1519.085.0455.043.0818.095.1064.152l.915 1.86 2.0701.304c.0593.008.1164.028.1671.06.0484.031.0924.068.1308.111.0325.046.0571.097.0729.152.0148.05.0225.102.0228.155.0007.056-.0118.112-.0365.162-.0252.05-.058.095-.0972.134l-1.5062 1.47.3556 2.07c.0115.055.0115.112 0 .167-.0125.054-.0341.105-.0638.152-.0278.048-.0657.09-.111.123-.0924.066-.2062.096-.3191.082-.0541-.008-.1059-.027-.152-.056l-1.8695-.965-1.8633.965c-.0462.029-.098.048-.152.056-.1129.014-.2268-.016-.3192-.082-.0453-.033-.0831-.075-.111-.123-.0296-.047-.0512-.098-.0638-.152-.0115-.055-.0115-.112 0-.167l.3557-2.07-1.5123-1.462c-.038-.043-.0692-.09-.0927-.142-.0234-.051-.0373-.106-.0411-.162-.0001-.054.0076-.108.0228-.16.0162-.056.0436-.107.0806-.152.0342-.044.0759-.081.1231-.111.0511-.03.1081-.049.1672-.055l2.0701-.304.9271-1.869c.0241-.055.0599-.104.1049-.143.0444-.038.0961-.067.1519-.085.0487-.019.1-.029.152-.03z"/><path d="m40.9354 143.727c.0556 0 .1107.01.1627.03.0558.018.1075.047.1519.085.0455.043.0818.095.1064.152l.915 1.86 2.0701.304c.0593.008.1164.028.1671.06.0484.031.0924.068.1308.111.0325.046.0571.097.0729.152.0148.05.0225.102.0228.155.0007.056-.0118.112-.0365.162-.0252.05-.058.095-.0972.134l-1.5062 1.47.3556 2.07c.0115.055.0115.112 0 .167-.0125.054-.0341.105-.0638.152-.0278.048-.0657.09-.111.123-.0924.066-.2062.096-.3191.082-.0541-.008-.1059-.027-.152-.056l-1.8695-.965-1.8633.965c-.0462.029-.098.048-.152.056-.1129.014-.2268-.016-.3192-.082-.0453-.033-.0831-.075-.111-.123-.0296-.047-.0512-.098-.0638-.152-.0115-.055-.0115-.112 0-.167l.3557-2.07-1.5123-1.462c-.038-.043-.0692-.09-.0927-.142-.0234-.051-.0373-.106-.0411-.162-.0001-.054.0076-.108.0228-.16.0162-.056.0436-.107.0806-.152.0342-.044.0759-.081.1231-.111.0511-.03.1081-.049.1672-.055l2.0701-.304.9271-1.869c.0241-.055.0599-.104.1049-.143.0444-.038.0961-.067.1519-.085.0487-.019.1-.029.152-.03z"/><path d="m50.9354 143.727c.0556 0 .1107.01.1627.03.0558.018.1075.047.1519.085.0455.043.0818.095.1064.152l.915 1.86 2.0701.304c.0593.008.1164.028.1671.06.0484.031.0924.068.1308.111.0325.046.0571.097.0729.152.0148.05.0225.102.0228.155.0007.056-.0118.112-.0365.162-.0252.05-.058.095-.0972.134l-1.5062 1.47.3556 2.07c.0115.055.0115.112 0 .167-.0125.054-.0341.105-.0638.152-.0278.048-.0657.09-.111.123-.0924.066-.2062.096-.3191.082-.0541-.008-.1059-.027-.152-.056l-1.8695-.965-1.8633.965c-.0462.029-.098.048-.152.056-.1129.014-.2268-.016-.3192-.082-.0453-.033-.0831-.075-.111-.123-.0296-.047-.0512-.098-.0638-.152-.0115-.055-.0115-.112 0-.167l.3557-2.07-1.5123-1.462c-.038-.043-.0692-.09-.0927-.142-.0234-.051-.0373-.106-.0411-.162-.0001-.054.0076-.108.0228-.16.0162-.056.0436-.107.0806-.152.0342-.044.0759-.081.1231-.111.0511-.03.1081-.049.1672-.055l2.0701-.304.9271-1.869c.0241-.055.0599-.104.1049-.143.0444-.038.0961-.067.1519-.085.0487-.019.1-.029.152-.03z"/><path d="m60.9354 143.727c.0556 0 .1107.01.1627.03.0558.018.1075.047.1519.085.0455.043.0818.095.1064.152l.915 1.86 2.0701.304c.0593.008.1164.028.1671.06.0484.031.0924.068.1308.111.0325.046.0571.097.0729.152.0148.05.0225.102.0228.155.0007.056-.0118.112-.0365.162-.0252.05-.058.095-.0972.134l-1.5062 1.47.3556 2.07c.0115.055.0115.112 0 .167-.0125.054-.0341.105-.0638.152-.0278.048-.0657.09-.111.123-.0924.066-.2062.096-.3191.082-.0541-.008-.1059-.027-.152-.056l-1.8695-.965-1.8633.965c-.0462.029-.098.048-.152.056-.1129.014-.2268-.016-.3192-.082-.0453-.033-.0831-.075-.111-.123-.0296-.047-.0512-.098-.0638-.152-.0115-.055-.0115-.112 0-.167l.3557-2.07-1.5123-1.462c-.038-.043-.0692-.09-.0927-.142-.0234-.051-.0373-.106-.0411-.162-.0001-.054.0076-.108.0228-.16.0162-.056.0436-.107.0806-.152.0342-.044.0759-.081.1231-.111.0511-.03.1081-.049.1672-.055l2.0701-.304.9271-1.869c.0241-.055.0599-.104.1049-.143.0444-.038.0961-.067.1519-.085.0487-.019.1-.029.152-.03z"/></g><path clip-rule="evenodd" d="m1 7.00001c0-3.31371 2.68629-6.00001 6-6.00001h142.545c3.314 0 6 2.68629 6 6v100.364h-154.545z" fill="#f3f3f3" fill-rule="evenodd"/><g clip-rule="evenodd" fill-rule="evenodd" mask="url(#a)"><path d="m128.222 44.9688c6.253 0 11.323-5.1029 11.323-11.3975 0-6.2947-5.07-11.3975-11.323-11.3975-6.254 0-11.324 5.1028-11.324 11.3975 0 6.2946 5.07 11.3975 11.324 11.3975z" fill="#e8e8e8"/><path d="m58.75 58.1934-52.87891 49.0316h96.33091z" fill="#e8e8e8"/><path d="m97.0004 47.9131-55.5082 59.4509h109.2718z" fill="#dcdbdc"/></g><path d="m61.0004 106.908c0 12.803-10.3791 23.182-23.1819 23.182-12.803 0-23.1818-10.379-23.1818-23.182 0-12.8023 10.3788-23.1814 23.1818-23.1814 12.8028 0 23.1819 10.3791 23.1819 23.1814z" fill="#f3f3f3" stroke="#fff" stroke-width="2"/><g mask="url(#b)"><path d="m51.104 126.23v3.489c0 .393-.3182.712-.7111.712h-25.9552c-.3929 0-.7111-.319-.7111-.712v-3.489c0-3.662 2.9679-6.628 6.6301-6.629 1.2942-.001 2.4338-.666 3.0897-1.676.6591-1.013.5912-1.894.5912-2.605l.0133-.033c-3.1911-1.321-5.4355-4.465-5.4355-8.133v-.279c-1.2671 0-2.2222-1.001-2.2222-2.181v-3.694c-.0284-1.2864.0302-5.8223 3.3066-8.9805 3.8098-3.672 9.847-3.3715 14.2203-1.4071.1422.064.1378.2675-.0062.3271l-1.1405.4693c-.1706.0702-.1342.3218.0489.3414l.5538.0595c2.9795.3182 5.4586 2.0969 6.695 4.2044.0116.0204.008.0471-.0088.0649-.9849 1.0044-1.536 2.3564-1.536 3.7644v4.7216c0 1.274-1.032 2.31-2.3111 2.31v.279c0 3.668-2.2444 6.812-5.4355 8.133l.0133.033c0 .691-.0734 1.584.5911 2.605.656 1.01 1.7956 1.675 3.0898 1.676 3.6621.001 6.6301 2.967 6.6301 6.629z" fill="#cdcdcd"/><path d="m50.0737 96.014c.0118.0201.0083.0472-.009.0648-.9842 1.0047-1.5355 2.3569-1.5355 3.7645v4.7217c0 1.274-1.0317 2.31-2.3111 2.31 0-2.69.0015-4.095.001-4.851-.0004-.477-.4613-.82-.9172-.679-1.433.44-3.1046.668-4.8614.286-3.0915-.672-3.9671-1.8837-6.4888-2.489-2.8178-.6755-5.3733 1.483-5.3555 4.244.0053.907.0204 2.041.0222 3.489-1.2671 0-2.2222-1.001-2.2222-2.181v-3.694c-.0284-1.2864.0302-5.8224 3.3066-8.9806 3.8094-3.672 9.8473-3.3714 14.2199-1.4068.1422.0639.1384.2676-.0058.3269l-1.1405.4695c-.1705.0703-.1346.3215.0487.3412l.5539.0595c2.9798.3185 5.4587 2.0966 6.6947 4.2043z" fill="#d6d6d6"/><path d="m45.3007 101.345c.4559-.14.9168.202.9171.679.0006.782-.001 2.259-.001 5.13 0 3.668-2.2444 6.812-5.4355 8.133-5.7703 2.395-12.1643-1.86-12.1643-8.133 0-1.622-.0163-2.775-.0222-3.768-.0178-2.761 2.5378-4.9191 5.3555-4.2436 2.5218.6054 3.3973 1.8166 6.4888 2.4886 1.7569.382 3.4285.155 4.8616-.286z" fill="#e7e6e7"/><path d="m51.104 126.229v3.489c0 .393-.3184.711-.7111.711h-25.9552c-.3927 0-.7111-.318-.7111-.711v-3.489c0-3.662 2.9684-6.627 6.6297-6.629 1.2945 0 2.4343-.667 3.0901-1.676 2.2893 1.956 5.6472 1.957 7.9377 0 .6558 1.009 1.7957 1.676 3.0902 1.676 3.6613.002 6.6297 2.967 6.6297 6.629z" fill="#b7b7b7"/></g></svg>