<svg fill="none" height="106" viewBox="0 0 262 106" width="262" xmlns="http://www.w3.org/2000/svg" xmlns:xlink="http://www.w3.org/1999/xlink"><mask id="a" height="60" maskUnits="userSpaceOnUse" width="61" x="22" y="24"><path d="m82.1368 53.7955c0 16.4552-13.3402 29.7954-29.7954 29.7954-16.4557 0-29.7955-13.3402-29.7955-29.7954 0-16.4553 13.3398-29.7955 29.7955-29.7955 16.4552 0 29.7954 13.3402 29.7954 29.7955z" fill="#f3f3f3"/></mask><path d="m255 .5h-248c-3.58985 0-6.5 2.91015-6.5 6.5v92c0 3.59 2.91016 6.5 6.50001 6.5h247.99999c3.59 0 6.5-2.91 6.5-6.5v-92c0-3.58985-2.91-6.5-6.5-6.5z" fill="#fff" stroke="#bababa"/><path clip-rule="evenodd" d="m99.9102 60.5905c0-1.7322 1.4038-3.1364 3.1368-3.1364h41.818c1.732 0 3.136 1.4042 3.136 3.1364 0 1.7321-1.404 3.1363-3.136 3.1363h-41.818c-1.733 0-3.1368-1.4042-3.1368-3.1363z" fill="#dcdbdc" fill-rule="evenodd"/><path d="m194 41.7725h-89.909c-2.31 0-4.1818 1.8722-4.1818 4.1818 0 2.3095 1.8718 4.1818 4.1818 4.1818h89.909c2.31 0 4.182-1.8723 4.182-4.1818 0-2.3096-1.872-4.1818-4.182-4.1818z" fill="#dcdbdc"/><path d="m82.1368 53.7955c0 16.4552-13.3402 29.7954-29.7954 29.7954-16.4557 0-29.7955-13.3402-29.7955-29.7954 0-16.4553 13.3398-29.7955 29.7955-29.7955 16.4552 0 29.7954 13.3402 29.7954 29.7955z" fill="#f3f3f3" stroke="#fff" stroke-width="2"/><g mask="url(#a)"><path d="m71.2295 85.1413v4.8729c0 .5486-.4444.993-.993.993h-36.2426c-.5486 0-.9929-.4444-.9929-.993v-4.8729c0-5.1124 4.1443-9.2543 9.258-9.2555 1.8071-.0012 3.3983-.9309 4.3143-2.3409.9203-1.4142.8254-2.644.8254-3.6379l.0186-.0459c-4.4558-1.8444-7.5898-6.2345-7.5898-11.3569v-.3885c-1.7693 0-3.103-1.3982-3.103-3.0458v-5.1584c-.0397-1.796.0422-8.1298 4.6172-12.5397 5.3198-5.1273 13.7499-4.7078 19.8565-1.9648.1986.0894.1924.3736-.0087.4568l-1.5924.6553c-.2383.0981-.1874.4493.0683.4766l.7732.0832c4.1605.4443 7.6221 2.9279 9.3486 5.8708.0162.0285.0112.0658-.0124.0906-1.3752 1.4025-2.1447 3.2904-2.1447 5.2564v6.5932c0 1.7786-1.4411 3.2258-3.2271 3.2258v.3885c0 5.1224-3.134 9.5125-7.5899 11.3569l.0186.0459c0 .9658-.1025 2.2119.8254 3.6379.916 1.41 2.5072 2.3397 4.3144 2.3409 5.1137.0012 9.258 4.1431 9.258 9.2555z" fill="#cdcdcd"/><path d="m69.7888 42.9495c.0165.0282.0116.0659-.0125.0905-1.3744 1.403-2.1442 3.2911-2.1442 5.2566v6.5932c0 1.7785-1.4406 3.2259-3.227 3.2259 0-3.756.0021-5.7188.0013-6.7738-.0005-.6662-.644-1.1449-1.2806-.949-2.0011.6156-4.3353.9329-6.7883.3998-4.3169-.9384-5.5394-2.6301-9.0607-3.4754-3.9345-.9433-7.503 2.0703-7.4781 5.9255.0074 1.2672.0285 2.851.031 4.8729-1.7693 0-3.103-1.3982-3.103-3.0459v-5.1584c-.0397-1.796.0422-8.1297 4.6172-12.5397 5.3193-5.1274 13.7503-4.7077 19.8559-1.9644.1986.0892.1934.3736-.0081.4565l-1.5925.6556c-.2381.0981-.1879.4489.068.4764l.7735.083c4.1608.4448 7.6222 2.9276 9.3481 5.8707z" fill="#d6d6d6"/><path d="m63.1242 50.3915c.6366-.1959 1.2802.2823 1.2807.9484.0008 1.0916-.0014 3.1538-.0014 7.1628 0 5.1224-3.134 9.5125-7.5898 11.3569-8.0574 3.3446-16.9857-2.5971-16.9857-11.3569 0-2.2652-.0228-3.8747-.031-5.2613-.0248-3.8552 3.5436-6.8688 7.4781-5.9255 3.5213.8453 4.7439 2.537 9.0607 3.4754 2.4532.5329 4.7874.2158 6.7884-.3998z" fill="#e7e6e7"/><path d="m71.2295 85.1403v4.8729c0 .5484-.4446.993-.993.993h-36.2426c-.5483 0-.9929-.4446-.9929-.993v-4.8729c0-5.1124 4.1449-9.2536 9.2574-9.2555 1.8076-.0006 3.3992-.9314 4.3149-2.3409 3.1966 2.7309 7.8854 2.7325 11.0838 0 .9157 1.4095 2.5073 2.3403 4.315 2.3409 5.1125.0019 9.2574 4.1431 9.2574 9.2555z" fill="#b7b7b7"/></g></svg>