<svg width="157" height="200" viewBox="0 0 157 200" fill="none" xmlns="http://www.w3.org/2000/svg">
<path d="M150 0H6C2.68629 0 0 2.68629 0 5.99999V194C0 197.314 2.6863 200 6 200H150C153.314 200 156 197.314 156 194V6C156 2.68629 153.314 0 150 0Z" fill="white"/>
<path opacity="0.5" fill-rule="evenodd" clip-rule="evenodd" d="M16.5195 178.262C16.5195 176.605 17.8627 175.262 19.5195 175.262H65.5195C67.1764 175.262 68.5195 176.605 68.5195 178.262C68.5195 179.919 67.1764 181.262 65.5195 181.262H19.5195C17.8627 181.262 16.5195 179.919 16.5195 178.262Z" fill="#E3E6EB"/>
<path d="M83.5195 162.262H19.5195C17.8627 162.262 16.5195 163.605 16.5195 165.262C16.5195 166.919 17.8627 168.262 19.5195 168.262H83.5195C85.1764 168.262 86.5195 166.919 86.5195 165.262C86.5195 163.605 85.1764 162.262 83.5195 162.262Z" fill="#E3E6EB"/>
<path d="M19.9364 144.545C19.992 144.545 20.0471 144.556 20.099 144.575C20.1549 144.593 20.2065 144.622 20.251 144.66C20.2965 144.703 20.3327 144.755 20.3574 144.812L21.2724 146.673L23.3424 146.977C23.4018 146.984 23.4588 147.004 23.5096 147.036C23.558 147.067 23.602 147.104 23.6403 147.147C23.6728 147.193 23.6975 147.245 23.7133 147.299C23.7281 147.349 23.7358 147.401 23.7361 147.454C23.7368 147.51 23.7243 147.566 23.6996 147.617C23.6744 147.666 23.6416 147.711 23.6023 147.75L22.0961 149.22L22.4518 151.29C22.4633 151.345 22.4633 151.402 22.4518 151.457C22.4392 151.511 22.4176 151.563 22.388 151.609C22.3601 151.658 22.3223 151.7 22.277 151.732C22.1846 151.799 22.0707 151.828 21.9578 151.814C21.9038 151.807 21.852 151.787 21.8058 151.758L19.9364 150.793L18.073 151.758C18.0269 151.787 17.9751 151.807 17.9211 151.814C17.8081 151.828 17.6943 151.799 17.6019 151.732C17.5566 151.7 17.5188 151.658 17.4909 151.609C17.4612 151.563 17.4397 151.511 17.4271 151.457C17.4156 151.402 17.4156 151.345 17.4271 151.29L17.7827 149.22L16.2705 147.758C16.2325 147.716 16.2012 147.668 16.1778 147.617C16.1543 147.565 16.1404 147.51 16.1367 147.454C16.1366 147.4 16.1443 147.346 16.1595 147.294C16.1757 147.239 16.2031 147.187 16.2401 147.142C16.2743 147.098 16.3159 147.061 16.3632 147.031C16.4142 147.001 16.4713 146.983 16.5304 146.977L18.6004 146.673L19.5276 144.803C19.5516 144.749 19.5874 144.7 19.6324 144.66C19.6769 144.622 19.7286 144.593 19.7844 144.575C19.833 144.557 19.8844 144.547 19.9364 144.545V144.545Z" fill="#757C8E"/>
<path d="M29.9354 144.545C29.991 144.545 30.0461 144.556 30.0981 144.575C30.1539 144.593 30.2056 144.622 30.25 144.66C30.2955 144.703 30.3318 144.755 30.3564 144.812L31.2714 146.673L33.3415 146.977C33.4008 146.984 33.4579 147.004 33.5086 147.036C33.557 147.067 33.601 147.104 33.6394 147.147C33.6719 147.193 33.6965 147.245 33.7123 147.299C33.7271 147.349 33.7348 147.401 33.7351 147.454C33.7358 147.51 33.7233 147.566 33.6986 147.617C33.6734 147.666 33.6406 147.711 33.6014 147.75L32.0952 149.22L32.4508 151.29C32.4623 151.345 32.4623 151.402 32.4508 151.457C32.4383 151.511 32.4167 151.563 32.387 151.609C32.3592 151.658 32.3213 151.7 32.276 151.732C32.1836 151.799 32.0698 151.828 31.9569 151.814C31.9028 151.807 31.851 151.787 31.8049 151.758L29.9354 150.793L28.0721 151.758C28.0259 151.787 27.9741 151.807 27.9201 151.814C27.8072 151.828 27.6933 151.799 27.6009 151.732C27.5556 151.7 27.5178 151.658 27.4899 151.609C27.4603 151.563 27.4387 151.511 27.4261 151.457C27.4146 151.402 27.4146 151.345 27.4261 151.29L27.7818 149.22L26.2695 147.758C26.2315 147.716 26.2003 147.668 26.1768 147.617C26.1534 147.565 26.1395 147.51 26.1357 147.454C26.1356 147.4 26.1433 147.346 26.1585 147.294C26.1747 147.239 26.2021 147.187 26.2391 147.142C26.2733 147.098 26.315 147.061 26.3622 147.031C26.4133 147.001 26.4703 146.983 26.5294 146.977L28.5995 146.673L29.5266 144.803C29.5507 144.749 29.5865 144.7 29.6315 144.66C29.6759 144.622 29.7276 144.593 29.7834 144.575C29.8321 144.557 29.8834 144.547 29.9354 144.545V144.545Z" fill="#757C8E"/>
<path d="M39.9354 144.545C39.991 144.545 40.0461 144.556 40.0981 144.575C40.1539 144.593 40.2056 144.622 40.25 144.66C40.2955 144.703 40.3318 144.755 40.3564 144.812L41.2714 146.673L43.3415 146.977C43.4008 146.984 43.4579 147.004 43.5086 147.036C43.557 147.067 43.601 147.104 43.6394 147.147C43.6719 147.193 43.6965 147.245 43.7123 147.299C43.7271 147.349 43.7348 147.401 43.7351 147.454C43.7358 147.51 43.7233 147.566 43.6986 147.617C43.6734 147.666 43.6406 147.711 43.6014 147.75L42.0952 149.22L42.4508 151.29C42.4623 151.345 42.4623 151.402 42.4508 151.457C42.4383 151.511 42.4167 151.563 42.387 151.609C42.3592 151.658 42.3213 151.7 42.276 151.732C42.1836 151.799 42.0698 151.828 41.9569 151.814C41.9028 151.807 41.851 151.787 41.8049 151.758L39.9354 150.793L38.0721 151.758C38.0259 151.787 37.9741 151.807 37.9201 151.814C37.8072 151.828 37.6933 151.799 37.6009 151.732C37.5556 151.7 37.5178 151.658 37.4899 151.609C37.4603 151.563 37.4387 151.511 37.4261 151.457C37.4146 151.402 37.4146 151.345 37.4261 151.29L37.7818 149.22L36.2695 147.758C36.2315 147.716 36.2003 147.668 36.1768 147.617C36.1534 147.565 36.1395 147.51 36.1357 147.454C36.1356 147.4 36.1433 147.346 36.1585 147.294C36.1747 147.239 36.2021 147.187 36.2391 147.142C36.2733 147.098 36.315 147.061 36.3622 147.031C36.4133 147.001 36.4703 146.983 36.5294 146.977L38.5995 146.673L39.5266 144.803C39.5507 144.749 39.5865 144.7 39.6315 144.66C39.6759 144.622 39.7276 144.593 39.7834 144.575C39.8321 144.557 39.8834 144.547 39.9354 144.545V144.545Z" fill="#757C8E"/>
<path d="M49.9354 144.545C49.991 144.545 50.0461 144.556 50.0981 144.575C50.1539 144.593 50.2056 144.622 50.25 144.66C50.2955 144.703 50.3318 144.755 50.3564 144.812L51.2714 146.673L53.3415 146.977C53.4008 146.984 53.4579 147.004 53.5086 147.036C53.557 147.067 53.601 147.104 53.6394 147.147C53.6719 147.193 53.6965 147.245 53.7123 147.299C53.7271 147.349 53.7348 147.401 53.7351 147.454C53.7358 147.51 53.7233 147.566 53.6986 147.617C53.6734 147.666 53.6406 147.711 53.6014 147.75L52.0952 149.22L52.4508 151.29C52.4623 151.345 52.4623 151.402 52.4508 151.457C52.4383 151.511 52.4167 151.563 52.387 151.609C52.3592 151.658 52.3213 151.7 52.276 151.732C52.1836 151.799 52.0698 151.828 51.9569 151.814C51.9028 151.807 51.851 151.787 51.8049 151.758L49.9354 150.793L48.0721 151.758C48.0259 151.787 47.9741 151.807 47.9201 151.814C47.8072 151.828 47.6933 151.799 47.6009 151.732C47.5556 151.7 47.5178 151.658 47.4899 151.609C47.4603 151.563 47.4387 151.511 47.4261 151.457C47.4146 151.402 47.4146 151.345 47.4261 151.29L47.7818 149.22L46.2695 147.758C46.2315 147.716 46.2003 147.668 46.1768 147.617C46.1534 147.565 46.1395 147.51 46.1357 147.454C46.1356 147.4 46.1433 147.346 46.1585 147.294C46.1747 147.239 46.2021 147.187 46.2391 147.142C46.2733 147.098 46.315 147.061 46.3622 147.031C46.4133 147.001 46.4703 146.983 46.5294 146.977L48.5995 146.673L49.5266 144.803C49.5507 144.749 49.5865 144.7 49.6315 144.66C49.6759 144.622 49.7276 144.593 49.7834 144.575C49.8321 144.557 49.8834 144.547 49.9354 144.545V144.545Z" fill="#B4B7C0"/>
<path d="M59.9354 144.545C59.991 144.545 60.0461 144.556 60.0981 144.575C60.1539 144.593 60.2056 144.622 60.25 144.66C60.2955 144.703 60.3318 144.755 60.3564 144.812L61.2714 146.673L63.3415 146.977C63.4008 146.984 63.4579 147.004 63.5086 147.036C63.557 147.067 63.601 147.104 63.6394 147.147C63.6719 147.193 63.6965 147.245 63.7123 147.299C63.7271 147.349 63.7348 147.401 63.7351 147.454C63.7358 147.51 63.7233 147.566 63.6986 147.617C63.6734 147.666 63.6406 147.711 63.6014 147.75L62.0952 149.22L62.4508 151.29C62.4623 151.345 62.4623 151.402 62.4508 151.457C62.4383 151.511 62.4167 151.563 62.387 151.609C62.3592 151.658 62.3213 151.7 62.276 151.732C62.1836 151.799 62.0698 151.828 61.9569 151.814C61.9028 151.807 61.851 151.787 61.8049 151.758L59.9354 150.793L58.0721 151.758C58.0259 151.787 57.9741 151.807 57.9201 151.814C57.8072 151.828 57.6933 151.799 57.6009 151.732C57.5556 151.7 57.5178 151.658 57.4899 151.609C57.4603 151.563 57.4387 151.511 57.4261 151.457C57.4146 151.402 57.4146 151.345 57.4261 151.29L57.7818 149.22L56.2695 147.758C56.2315 147.716 56.2003 147.668 56.1768 147.617C56.1534 147.565 56.1395 147.51 56.1357 147.454C56.1356 147.4 56.1433 147.346 56.1585 147.294C56.1747 147.239 56.2021 147.187 56.2391 147.142C56.2733 147.098 56.315 147.061 56.3622 147.031C56.4133 147.001 56.4703 146.983 56.5294 146.977L58.5995 146.673L59.5266 144.803C59.5507 144.749 59.5865 144.7 59.6315 144.66C59.6759 144.622 59.7276 144.593 59.7834 144.575C59.8321 144.557 59.8834 144.547 59.9354 144.545V144.545Z" fill="#B4B7C0"/>
<mask id="mask0" style="mask-type:alpha" maskUnits="userSpaceOnUse" x="0" y="0" width="157" height="130">
<path fill-rule="evenodd" clip-rule="evenodd" d="M0 6C0 2.68629 2.68629 0 6 0H150.004C153.318 0 156.004 2.68629 156.004 6V130H0V6Z" fill="#DCDBDC"/>
</mask>
<g mask="url(#mask0)">
<path fill-rule="evenodd" clip-rule="evenodd" d="M0 6C0 2.68629 2.68629 0 6 0H150C153.314 0 156 2.68629 156 6V130H0V6Z" fill="#EFF1F7"/>
<path d="M115.712 122.509V132.508C115.712 133.633 114.801 134.545 113.675 134.545H39.3108C38.1852 134.545 37.2734 133.633 37.2734 132.508V122.509C37.2734 112.019 45.7769 103.521 56.2694 103.519C59.9774 103.516 63.2423 101.608 65.1218 98.7154C67.0099 95.8137 66.8153 93.2904 66.8153 91.251L66.8535 91.1567C57.7108 87.3723 51.2804 78.3646 51.2804 67.8543V67.0572C47.65 67.0572 44.9136 64.1883 44.9136 60.8075V50.2234C44.8321 46.5383 45.0002 33.5424 54.3874 24.4939C65.3026 13.9735 82.5999 14.8343 95.1297 20.4625C95.5372 20.6459 95.5244 21.2291 95.1119 21.3997L91.8444 22.7444C91.3555 22.9455 91.4599 23.6663 91.9845 23.7223L93.5711 23.8929C102.108 24.8046 109.21 29.9006 112.753 35.9389C112.786 35.9975 112.776 36.0739 112.727 36.1248C109.906 39.0026 108.327 42.8761 108.327 46.9101V60.4383C108.327 64.0877 105.37 67.0572 101.705 67.0572V67.8543C101.705 78.3646 95.2749 87.3723 86.1321 91.1567L86.1704 91.251C86.1704 93.2326 85.96 95.7895 87.8639 98.7154C89.7434 101.608 93.0083 103.516 96.7163 103.519C107.209 103.521 115.712 112.019 115.712 122.509Z" fill="#CDCFD5"/>
<path d="M112.755 35.9385C112.789 35.9963 112.778 36.0737 112.729 36.1241C109.909 39.0029 108.33 42.877 108.33 46.91V60.4381C108.33 64.0873 105.374 67.057 101.708 67.057C101.708 59.3504 101.712 55.3231 101.711 53.1583C101.71 51.7915 100.389 50.8093 99.0832 51.2111C94.9774 52.4743 90.188 53.1252 85.1547 52.0314C76.2972 50.1061 73.7887 46.6349 66.5637 44.9006C58.4906 42.9651 51.1688 49.1485 51.2197 57.0586C51.235 59.6588 51.2783 62.9084 51.2834 67.057C47.6531 67.057 44.9166 64.1882 44.9166 60.8074V50.2233C44.8351 46.5382 45.0032 33.5423 54.3904 24.4938C65.3046 13.9731 82.6037 14.8344 95.1315 20.4631C95.5389 20.6462 95.5282 21.2297 95.1149 21.3998L91.8472 22.745C91.3588 22.9462 91.4617 23.6661 91.9868 23.7224L93.5739 23.8928C102.111 24.8055 109.214 29.8997 112.755 35.9385Z" fill="#B4B7C0"/>
<path d="M99.0818 51.2102C100.388 50.8083 101.708 51.7896 101.709 53.1562C101.711 55.396 101.707 59.6274 101.707 67.8532C101.707 78.3635 95.2762 87.3712 86.1335 91.1557C69.601 98.0183 51.2817 85.8269 51.2817 67.8532C51.2817 63.2052 51.2348 59.9029 51.218 57.0577C51.1671 49.1476 58.4889 42.9642 66.562 44.8997C73.787 46.634 76.2955 50.1052 85.153 52.0305C90.1866 53.1241 94.9759 52.4734 99.0818 51.2102Z" fill="white"/>
<path d="M115.711 122.51V132.508C115.711 133.633 114.799 134.546 113.674 134.546H39.3098C38.1847 134.546 37.2725 133.633 37.2725 132.508V122.51C37.2725 112.02 45.7772 103.523 56.2671 103.519C59.9762 103.518 63.2418 101.608 65.1208 98.7158C71.6796 104.319 81.3003 104.322 87.8629 98.7158C89.7417 101.608 93.0076 103.518 96.7166 103.519C107.207 103.523 115.711 112.02 115.711 122.51Z" fill="#727889"/>
</g>
</svg>
