<svg fill="none" height="204" viewBox="0 0 159 204" width="159" xmlns="http://www.w3.org/2000/svg" xmlns:xlink="http://www.w3.org/1999/xlink"><mask id="a" height="130" maskUnits="userSpaceOnUse" width="155" x="2" y="2"><path clip-rule="evenodd" d="m2 8c0-3.31371 2.68629-6 6-6h142.545c3.314 0 6 2.68629 6 6v124h-154.545z" fill="#dcdbdc" fill-rule="evenodd"/></mask><path d="m150.545 1h-142.545c-3.86599 0-7 3.134-7 6.99999v188.00001c0 3.866 3.13401 7 7 7h142.545c3.866 0 7-3.134 7-7v-188c0-3.86599-3.134-7-7-7z" fill="#fff" stroke="#bababa" stroke-width="1"/><path clip-rule="evenodd" d="m18.3623 180.182c0-1.506 1.221-2.727 2.7273-2.727h30.9091c1.5062 0 2.7272 1.221 2.7272 2.727 0 1.507-1.221 2.728-2.7272 2.728h-30.9091c-1.5063 0-2.7273-1.221-2.7273-2.728z" fill="#dcdbdc" fill-rule="evenodd"/><path d="m114.726 163.818h-92.7273c-2.0083 0-3.6364 1.628-3.6364 3.637 0 2.008 1.6281 3.636 3.6364 3.636h92.7273c2.008 0 3.636-1.628 3.636-3.636 0-2.009-1.628-3.637-3.636-3.637z" fill="#dcdbdc"/><g fill="#7a7a7a"><path d="m21.9364 146.545c.0556 0 .1107.011.1626.03.0559.018.1075.047.152.085.0455.043.0817.095.1064.152l.915 1.861 2.07.304c.0594.007.1164.027.1672.059.0484.031.0924.068.1307.111.0325.046.0572.098.073.152.0148.05.0225.102.0228.155.0007.056-.0118.112-.0365.163-.0252.049-.058.094-.0973.133l-1.5062 1.47.3557 2.07c.0115.055.0115.112 0 .167-.0126.054-.0342.106-.0638.152-.0279.049-.0657.091-.111.123-.0924.067-.2063.096-.3192.082-.054-.007-.1058-.027-.152-.056l-1.8694-.965-1.8634.965c-.0461.029-.0979.049-.1519.056-.113.014-.2268-.015-.3192-.082-.0453-.032-.0831-.074-.111-.123-.0297-.046-.0512-.098-.0638-.152-.0115-.055-.0115-.112 0-.167l.3556-2.07-1.5122-1.462c-.038-.042-.0693-.09-.0927-.141-.0235-.052-.0374-.107-.0411-.163-.0001-.054.0076-.108.0228-.16.0162-.055.0436-.107.0806-.152.0342-.044.0758-.081.1231-.111.051-.03.1081-.048.1672-.054l2.07-.304.9272-1.87c.024-.054.0598-.103.1048-.143.0445-.038.0962-.067.152-.085.0486-.018.1-.028.152-.03z"/><path d="m31.9354 146.545c.0556 0 .1107.011.1627.03.0558.018.1075.047.1519.085.0455.043.0818.095.1064.152l.915 1.861 2.0701.304c.0593.007.1164.027.1671.059.0484.031.0924.068.1308.111.0325.046.0571.098.0729.152.0148.05.0225.102.0228.155.0007.056-.0118.112-.0365.163-.0252.049-.058.094-.0972.133l-1.5062 1.47.3556 2.07c.0115.055.0115.112 0 .167-.0125.054-.0341.106-.0638.152-.0278.049-.0657.091-.111.123-.0924.067-.2062.096-.3191.082-.0541-.007-.1059-.027-.152-.056l-1.8695-.965-1.8633.965c-.0462.029-.098.049-.152.056-.1129.014-.2268-.015-.3192-.082-.0453-.032-.0831-.074-.111-.123-.0296-.046-.0512-.098-.0638-.152-.0115-.055-.0115-.112 0-.167l.3557-2.07-1.5123-1.462c-.038-.042-.0692-.09-.0927-.141-.0234-.052-.0373-.107-.0411-.163-.0001-.054.0076-.108.0228-.16.0162-.055.0436-.107.0806-.152.0342-.044.0759-.081.1231-.111.0511-.03.1081-.048.1672-.054l2.0701-.304.9271-1.87c.0241-.054.0599-.103.1049-.143.0444-.038.0961-.067.1519-.085.0487-.018.1-.028.152-.03z"/><path d="m41.9354 146.545c.0556 0 .1107.011.1627.03.0558.018.1075.047.1519.085.0455.043.0818.095.1064.152l.915 1.861 2.0701.304c.0593.007.1164.027.1671.059.0484.031.0924.068.1308.111.0325.046.0571.098.0729.152.0148.05.0225.102.0228.155.0007.056-.0118.112-.0365.163-.0252.049-.058.094-.0972.133l-1.5062 1.47.3556 2.07c.0115.055.0115.112 0 .167-.0125.054-.0341.106-.0638.152-.0278.049-.0657.091-.111.123-.0924.067-.2062.096-.3191.082-.0541-.007-.1059-.027-.152-.056l-1.8695-.965-1.8633.965c-.0462.029-.098.049-.152.056-.1129.014-.2268-.015-.3192-.082-.0453-.032-.0831-.074-.111-.123-.0296-.046-.0512-.098-.0638-.152-.0115-.055-.0115-.112 0-.167l.3557-2.07-1.5123-1.462c-.038-.042-.0692-.09-.0927-.141-.0234-.052-.0373-.107-.0411-.163-.0001-.054.0076-.108.0228-.16.0162-.055.0436-.107.0806-.152.0342-.044.0759-.081.1231-.111.0511-.03.1081-.048.1672-.054l2.0701-.304.9271-1.87c.0241-.054.0599-.103.1049-.143.0444-.038.0961-.067.1519-.085.0487-.018.1-.028.152-.03z"/><path d="m51.9354 146.545c.0556 0 .1107.011.1627.03.0558.018.1075.047.1519.085.0455.043.0818.095.1064.152l.915 1.861 2.0701.304c.0593.007.1164.027.1671.059.0484.031.0924.068.1308.111.0325.046.0571.098.0729.152.0148.05.0225.102.0228.155.0007.056-.0118.112-.0365.163-.0252.049-.058.094-.0972.133l-1.5062 1.47.3556 2.07c.0115.055.0115.112 0 .167-.0125.054-.0341.106-.0638.152-.0278.049-.0657.091-.111.123-.0924.067-.2062.096-.3191.082-.0541-.007-.1059-.027-.152-.056l-1.8695-.965-1.8633.965c-.0462.029-.098.049-.152.056-.1129.014-.2268-.015-.3192-.082-.0453-.032-.0831-.074-.111-.123-.0296-.046-.0512-.098-.0638-.152-.0115-.055-.0115-.112 0-.167l.3557-2.07-1.5123-1.462c-.038-.042-.0692-.09-.0927-.141-.0234-.052-.0373-.107-.0411-.163-.0001-.054.0076-.108.0228-.16.0162-.055.0436-.107.0806-.152.0342-.044.0759-.081.1231-.111.0511-.03.1081-.048.1672-.054l2.0701-.304.9271-1.87c.0241-.054.0599-.103.1049-.143.0444-.038.0961-.067.1519-.085.0487-.018.1-.028.152-.03z"/><path d="m61.9354 146.545c.0556 0 .1107.011.1627.03.0558.018.1075.047.1519.085.0455.043.0818.095.1064.152l.915 1.861 2.0701.304c.0593.007.1164.027.1671.059.0484.031.0924.068.1308.111.0325.046.0571.098.0729.152.0148.05.0225.102.0228.155.0007.056-.0118.112-.0365.163-.0252.049-.058.094-.0972.133l-1.5062 1.47.3556 2.07c.0115.055.0115.112 0 .167-.0125.054-.0341.106-.0638.152-.0278.049-.0657.091-.111.123-.0924.067-.2062.096-.3191.082-.0541-.007-.1059-.027-.152-.056l-1.8695-.965-1.8633.965c-.0462.029-.098.049-.152.056-.1129.014-.2268-.015-.3192-.082-.0453-.032-.0831-.074-.111-.123-.0296-.046-.0512-.098-.0638-.152-.0115-.055-.0115-.112 0-.167l.3557-2.07-1.5123-1.462c-.038-.042-.0692-.09-.0927-.141-.0234-.052-.0373-.107-.0411-.163-.0001-.054.0076-.108.0228-.16.0162-.055.0436-.107.0806-.152.0342-.044.0759-.081.1231-.111.0511-.03.1081-.048.1672-.054l2.0701-.304.9271-1.87c.0241-.054.0599-.103.1049-.143.0444-.038.0961-.067.1519-.085.0487-.018.1-.028.152-.03z"/></g><path clip-rule="evenodd" d="m2 8c0-3.31371 2.68629-6 6-6h142.545c3.314 0 6 2.68629 6 6v124h-154.545z" fill="#f3f3f3" fill-rule="evenodd"/><g mask="url(#a)"><path d="m117.712 124.509v9.999c0 1.125-.911 2.037-2.037 2.037h-74.3642c-1.1256 0-2.0374-.912-2.0374-2.037v-9.999c0-10.49 8.5035-18.988 18.996-18.99 3.708-.003 6.9729-1.911 8.8524-4.804 1.8881-2.9013 1.6935-5.4246 1.6935-7.464l.0382-.0943c-9.1427-3.7844-15.5731-12.7921-15.5731-23.3024v-.7971c-3.6304 0-6.3668-2.8689-6.3668-6.2497v-10.5841c-.0815-3.6851.0866-16.681 9.4738-25.7295 10.9152-10.5204 28.2125-9.6596 40.7423-4.0314.4075.1834.3947.7666-.0178.9372l-3.2675 1.3447c-.4889.2011-.3845.9219.1401.9779l1.5866.1706c8.5369.9117 15.6389 6.0077 19.1819 12.046.033.0586.023.135-.026.1859-2.821 2.8778-4.4 6.7513-4.4 10.7853v13.5282c0 3.6494-2.957 6.6189-6.622 6.6189v.7971c0 10.5103-6.4301 19.518-15.5729 23.3024l.0383.0943c0 1.9816-.2104 4.5385 1.6935 7.464 1.8795 2.893 5.1444 4.801 8.8524 4.804 10.4927.002 18.9957 8.5 18.9957 18.99z" fill="#cdcdcd"/><path d="m114.755 37.9385c.034.0578.023.1352-.026.1856-2.82 2.8788-4.399 6.7529-4.399 10.7859v13.5281c0 3.6492-2.956 6.6189-6.622 6.6189 0-7.7066.004-11.7339.003-13.8987-.001-1.3668-1.322-2.349-2.628-1.9472-4.1056 1.2632-8.895 1.9141-13.9283.8203-8.8575-1.9253-11.366-5.3965-18.591-7.1308-8.0731-1.9355-15.3949 4.2479-15.344 12.158.0153 2.6002.0586 5.8498.0637 9.9984-3.6303 0-6.3668-2.8688-6.3668-6.2496v-10.5841c-.0815-3.6851.0866-16.681 9.4738-25.7295 10.9142-10.5207 28.2133-9.6594 40.7411-4.0307.4074.1831.3967.7666-.0166.9367l-3.2677 1.3452c-.4884.2012-.3855.9211.1396.9774l1.5871.1704c8.5371.9127 15.6401 6.0069 19.1811 12.0457z" fill="#d6d6d6"/><path d="m101.082 53.2102c1.306-.4019 2.626.5794 2.627 1.946.002 2.2398-.002 6.4712-.002 14.697 0 10.5103-6.4308 19.518-15.5735 23.3025-16.5325 6.8623-34.8518-5.3288-34.8518-23.3025 0-4.648-.0469-7.9503-.0637-10.7955-.0509-7.9101 7.2709-14.0935 15.344-12.158 7.225 1.7343 9.7335 5.2055 18.591 7.1308 5.0336 1.0936 9.8229.4429 13.929-.8203z" fill="#e7e6e7"/><path d="m117.711 124.51v9.998c0 1.125-.912 2.038-2.037 2.038h-74.3642c-1.1251 0-2.0373-.913-2.0373-2.038v-9.998c0-10.49 8.5047-18.987 18.9946-18.991 3.7091-.001 6.9747-1.911 8.8537-4.803 6.5588 5.603 16.1795 5.606 22.7421 0 1.8788 2.892 5.1447 4.802 8.8537 4.803 10.4904.004 18.9944 8.501 18.9944 18.991z" fill="#b7b7b7"/></g></svg>