<svg width="226" height="163" viewBox="0 0 226 163" fill="none" xmlns="http://www.w3.org/2000/svg">
<rect x="91.9354" y="29.5482" width="79.0518" height="89.866" rx="1.66588" stroke="black" stroke-width="1.02607"/>
<circle cx="72.7835" cy="107.042" r="37.3265" fill="#FFB72C"/>
<ellipse cx="76.5361" cy="105.174" rx="1.67134" ry="2.08917" fill="black"/>
<circle cx="73.4348" cy="105.788" r="13.3115" stroke="black" stroke-width="1.02607"/>
<path d="M115.031 100.703C115.031 107.19 109.912 112.426 103.626 112.426C97.3404 112.426 92.2218 107.19 92.2218 100.703C92.2218 94.2163 97.3404 88.9808 103.626 88.9808C109.912 88.9808 115.031 94.2163 115.031 100.703Z" stroke="black" stroke-width="1.02607"/>
<path d="M86.6235 105.947L93.1344 104.878" stroke="black" stroke-width="1.02607"/>
<ellipse cx="103.867" cy="100.407" rx="1.67134" ry="2.08917" fill="black"/>
<path d="M70.6455 62.5117L70.6101 58.8551" stroke="black" stroke-width="0.835668" stroke-linecap="round"/>
<path d="M75.3188 62.7275L76.4648 59.2185" stroke="black" stroke-width="0.835668" stroke-linecap="round"/>
<path d="M65.9487 63.7129L63.6913 59.9902" stroke="black" stroke-width="0.835668" stroke-linecap="round"/>
<path d="M131.663 42.3828H161.012" stroke="black" stroke-width="1.02607" stroke-linecap="round"/>
<path d="M117.473 51.917L161.012 51.917" stroke="black" stroke-width="1.02607" stroke-linecap="round"/>
<path d="M132.077 61.4512H161.012" stroke="black" stroke-width="1.02607" stroke-linecap="round"/>
<ellipse cx="123.474" cy="61.292" rx="1.44679" ry="1.11232" fill="black"/>
<path d="M134.641 98.8943C136.097 93.4864 132.859 87.91 127.403 86.441C132.855 87.909 138.458 84.7168 139.915 79.3053C138.459 84.7133 141.698 90.2896 147.154 91.7587C141.701 90.2906 136.098 93.4828 134.641 98.8943Z" fill="#1145FF"/>
<path d="M142.095 106.831C142.098 106.131 142.666 105.566 143.366 105.566L164.426 105.565C165.128 105.565 165.697 106.135 165.697 106.837L165.697 128.36C165.697 129.073 165.111 129.646 164.399 129.631L143.231 129.187C142.537 129.172 141.983 128.604 141.986 127.909L142.095 106.831Z" fill="#FFB72C"/>
<circle cx="132.996" cy="120.23" r="9.13242" fill="#1145FF"/>
</svg>
