<svg width="226" height="163" viewBox="0 0 226 163" fill="none" xmlns="http://www.w3.org/2000/svg">
<path d="M65.0537 46.458L63.3066 43.8404" stroke="black" stroke-width="0.914332" stroke-linecap="round"/>
<path d="M68.5225 44.4131L67.6959 41.3456" stroke="black" stroke-width="0.914332" stroke-linecap="round"/>
<path d="M62.2356 49.5352L58.8566 47.9161" stroke="black" stroke-width="0.914332" stroke-linecap="round"/>
<ellipse cx="1.38094" cy="1.72618" rx="1.38094" ry="1.72618" transform="matrix(-0.992979 0.118295 0.118295 0.992979 88.9382 31.3975)" fill="black"/>
<path d="M150.554 49.0731C150.554 68.4597 134.528 84.1929 114.739 84.1929C94.9489 84.1929 78.9234 68.4597 78.9234 49.0731C78.9234 29.6864 94.9489 13.9533 114.739 13.9533C121.586 13.9533 127.982 15.837 133.421 19.1038C136.514 20.9622 139.298 23.2681 141.678 25.9295C145.013 29.6591 147.121 33.4276 148.614 38.3071C149.603 41.5401 150.554 45.5859 150.554 49.0731Z" stroke="black" stroke-width="1.04316"/>
<circle cx="138.714" cy="88.348" r="40.8402" fill="#3763FF"/>
<circle cx="139.427" cy="86.9745" r="14.6043" stroke="black" stroke-width="1.04316"/>
<path d="M184.978 81.4107C184.978 88.5292 179.361 94.2763 172.46 94.2763C165.56 94.2763 159.942 88.5292 159.942 81.4107C159.942 74.2921 165.56 68.545 172.46 68.545C179.361 68.545 184.978 74.2921 184.978 81.4107Z" stroke="black" stroke-width="1.04316"/>
<path d="M153.857 87.1484L160.981 85.9781" stroke="black" stroke-width="1.04316"/>
<ellipse cx="172.724" cy="81.0886" rx="1.82866" ry="2.28583" fill="black"/>
<ellipse cx="142.82" cy="86.3044" rx="1.82866" ry="2.28583" fill="black"/>
<path d="M102.808 35.7852L97.3617 35.544" stroke="black" stroke-width="1.04316"/>
<ellipse cx="1.38094" cy="1.72618" rx="1.38094" ry="1.72618" transform="matrix(-0.992979 0.118295 0.118295 0.992979 112.176 32.2891)" fill="black"/>
<path d="M164.097 46.084L166.281 43.8182" stroke="black" stroke-width="0.914332" stroke-linecap="round"/>
<path d="M166.835 49.0352L169.655 47.5726" stroke="black" stroke-width="0.914332" stroke-linecap="round"/>
<path d="M160.49 43.9873L161.35 40.3405" stroke="black" stroke-width="0.914332" stroke-linecap="round"/>
<path d="M54.3878 63.4349C54.5984 61.6882 56.0806 60.374 57.84 60.374H105.872C107.792 60.374 109.349 61.9308 109.349 63.8512V126.093C109.349 128.014 107.792 129.57 105.872 129.57H50.3334C48.2479 129.57 46.6315 127.747 46.8812 125.677L54.3878 63.4349Z" fill="#FFB72C"/>
<circle cx="12.8731" cy="12.8731" r="12.3731" transform="matrix(-0.993985 0.109512 0.109512 0.993985 93.3232 74.041)" stroke="black"/>
<path d="M42.2694 89.2952C42.9431 95.4097 48.3114 99.8125 54.2356 99.1598C60.1598 98.5071 64.4409 93.0412 63.7672 86.9267C63.0936 80.8122 57.7252 76.4095 51.801 77.0622C45.8768 77.7149 41.5957 83.1807 42.2694 89.2952Z" stroke="black"/>
<path d="M69.7461 89.7383L63.6107 89.4122" stroke="black" stroke-width="1.04316"/>
<ellipse cx="1.58667" cy="1.98334" rx="1.58667" ry="1.98334" transform="matrix(-0.993985 0.109512 0.109512 0.993985 52.9153 85.6729)" fill="black"/>
<ellipse cx="1.55631" cy="1.94539" rx="1.55631" ry="1.94539" transform="matrix(-0.993985 0.109512 0.109512 0.993985 82.9363 85.4629)" fill="black"/>
<path d="M80.6913 25.5301C80.7739 24.5389 81.6025 23.7765 82.5971 23.7765H95.3095C96.3657 23.7765 97.2219 24.6327 97.2219 25.6889V40.3528C97.2219 41.4435 96.3113 42.3133 95.2218 42.2633L81.3405 41.6265C80.2575 41.5769 79.4323 40.6377 79.5223 39.5573L80.6913 25.5301Z" stroke="black" stroke-width="1.04316"/>
<path d="M103.827 25.3563C103.91 24.3651 104.739 23.6026 105.733 23.6026H121.598C122.695 23.6026 123.568 24.5247 123.507 25.6208L122.566 42.6341C122.508 43.6817 121.617 44.487 120.568 44.4389L104.29 43.6922C103.207 43.6425 102.382 42.7033 102.472 41.6229L103.827 25.3563Z" stroke="black" stroke-width="1.04316"/>
</svg>
