<svg width="44" height="44" viewBox="0 0 44 44" fill="none" xmlns="http://www.w3.org/2000/svg">
<path d="M34.3821 9.6195C34.5646 9.612 34.7468 9.64124 34.9178 9.70549C35.0888 9.76973 35.2452 9.86767 35.3776 9.9935C35.5048 10.1272 35.6035 10.2854 35.6678 10.4584C35.7321 10.6314 35.7606 10.8157 35.7516 11V14.3C35.7556 15.0698 35.6196 15.8339 35.3501 16.555C35.0699 17.2443 34.6736 17.8805 34.1786 18.436C33.6889 18.99 33.104 19.452 32.4516 19.8C31.7646 20.1593 31.0201 20.3957 30.2516 20.4985V20.6305C30.2559 21.592 30.0921 22.5469 29.7676 23.452C29.454 24.3203 28.9987 25.1306 28.4201 25.85C27.841 26.5731 27.1414 27.1908 26.3521 27.676C25.5636 28.1614 24.7018 28.5161 23.8001 28.7265L24.7516 31.614H27.9196C28.2048 31.613 28.4813 31.7123 28.7006 31.8945C28.9212 32.069 29.0794 32.3102 29.1516 32.582L30.2516 35.75H13.7516L14.8516 32.582C14.9279 32.3107 15.0899 32.0714 15.3136 31.9C15.533 31.7178 15.8094 31.6185 16.0946 31.6195H19.2516L20.1921 28.7485C19.2904 28.5381 18.4286 28.1834 17.6401 27.698C16.853 27.2052 16.1571 26.58 15.5831 25.85C15.0049 25.1252 14.5514 24.3092 14.2411 23.4355C13.9166 22.5359 13.751 21.5868 13.7516 20.6305V20.4985C12.9832 20.3957 12.2386 20.1593 11.5516 19.8C10.8968 19.4509 10.31 18.987 9.81912 18.4305C9.32607 17.8746 8.93172 17.2384 8.65312 16.5495C8.3843 15.8301 8.24826 15.0679 8.25162 14.3V11C8.24262 10.8157 8.27113 10.6314 8.33542 10.4584C8.3997 10.2854 8.49843 10.1272 8.62562 9.9935C8.75806 9.86767 8.91442 9.76973 9.08542 9.70549C9.25643 9.64124 9.4386 9.612 9.62112 9.6195H13.7516V8.25H30.2516V9.6195H34.3821ZM13.7516 12.386H11.0016V14.3C10.9959 15.109 11.2875 15.8919 11.8211 16.5C12.3234 17.0986 12.9972 17.5286 13.7516 17.732V12.386ZM24.7516 22L24.0806 19.25L26.1486 16.5H23.2391L22.0016 13.75L20.7641 16.5H17.8656L19.9336 19.25L19.2516 22L22.0016 20.4985L24.7516 22ZM33.0016 12.386H30.2516V17.732C31.028 17.5907 31.723 17.1627 32.1986 16.533C32.7204 15.9061 33.0046 15.1156 33.0016 14.3V12.386Z" fill="#3E64DE"/>
</svg>
