<svg width="44" height="44" viewBox="0 0 44 44" fill="none" xmlns="http://www.w3.org/2000/svg">
<path d="M7.33398 30.5538V33.0002C7.33398 35.0226 12.2611 36.6668 18.334 36.6668C24.4069 36.6668 29.334 35.0226 29.334 33.0002V30.5538C26.9678 32.221 22.6423 33.0002 18.334 33.0002C14.0257 33.0002 9.70013 32.221 7.33398 30.5538ZM25.6673 14.6668C31.7402 14.6668 36.6673 13.0226 36.6673 11.0002C36.6673 8.97777 31.7402 7.3335 25.6673 7.3335C19.5944 7.3335 14.6673 8.97777 14.6673 11.0002C14.6673 13.0226 19.5944 14.6668 25.6673 14.6668ZM7.33398 24.5439V27.5002C7.33398 29.5226 12.2611 31.1668 18.334 31.1668C24.4069 31.1668 29.334 29.5226 29.334 27.5002V24.5439C26.9678 26.4918 22.6366 27.5002 18.334 27.5002C14.0314 27.5002 9.70013 26.4918 7.33398 24.5439ZM31.1673 25.1741C34.4501 24.5382 36.6673 23.358 36.6673 22.0002V19.5538C35.3381 20.4934 33.3845 21.1351 31.1673 21.5304V25.1741ZM18.334 16.5002C12.2611 16.5002 7.33398 18.5512 7.33398 21.0835C7.33398 23.6158 12.2611 25.6668 18.334 25.6668C24.4069 25.6668 29.334 23.6158 29.334 21.0835C29.334 18.5512 24.4069 16.5002 18.334 16.5002ZM30.898 19.7257C34.3355 19.1069 36.6673 17.8923 36.6673 16.5002V14.0538C34.6335 15.4918 31.1387 16.2653 27.4605 16.4486C29.1506 17.2679 30.3939 18.3679 30.898 19.7257Z" fill="#3E64DE"/>
</svg>
