<svg fill="none" height="30" viewBox="0 0 30 30" width="30" xmlns="http://www.w3.org/2000/svg"><g fill="#8e8e8e"><path d="m9.28711 17.7461c.30338 0 .54932-.2459.54932-.5493s-.24594-.5493-.54932-.5493-.54932.2459-.54932.5493.24594.5493.54932.5493z"/><path d="m9.28711 13.3516c.30338 0 .54932-.246.54932-.5494 0-.3033-.24594-.5493-.54932-.5493s-.54932.246-.54932.5493c0 .3034.24594.5494.54932.5494z"/><path d="m12.2168 21.2256c.3034 0 .5493-.246.5493-.5493 0-.3034-.2459-.5493-.5493-.5493s-.5493.2459-.5493.5493c0 .3033.2459.5493.5493.5493z"/><path d="m12.2168 9.87305c.3034 0 .5493-.24594.5493-.54932s-.2459-.54932-.5493-.54932-.5493.24594-.5493.54932.2459.54932.5493.54932z"/><path d="m16.3283 17.8869c-.2019-.314-.4107-.6388-.5997-.9605-.698-1.1884-.698-2.6649 0-3.8533.189-.3216.3978-.6464.5997-.9605.5697-.8862 1.1078-1.7234 1.305-2.59334.2406-1.06194-.0946-1.99618-.9964-2.77672-.615-.53229-1.3743-.89191-2.1959-1.04-.7915-.14279-1.6262-.08764-2.4139.15941-1.8039.56554-3.42905 1.75807-4.57617 3.35793-1.19455 1.66612-1.82593 3.66472-1.82593 5.77992s.63138 4.1138 1.82593 5.7799c1.14708 1.5999 2.77227 2.7924 4.57617 3.3579.5021.1575 1.0232.2369 1.5401.2369.294 0 .5868-.0257.8738-.0775.8216-.148 1.5809-.5077 2.1959-1.04.9018-.7805 1.237-1.7147.9963-2.7767-.1971-.87-.7352-1.7071-1.3049-2.5934zm-7.04119-6.7323c.90869 0 1.64799.7392 1.64799 1.6479s-.7393 1.648-1.64799 1.648c-.90868 0-1.64795-.7393-1.64795-1.648s.73927-1.6479 1.64795-1.6479zm0 7.6904c-.90868 0-1.64795-.7393-1.64795-1.6479 0-.9087.73927-1.648 1.64795-1.648.90869 0 1.64799.7393 1.64799 1.648 0 .9086-.7393 1.6479-1.64799 1.6479zm2.92969 3.479c-.9087 0-1.648-.7393-1.648-1.6479 0-.9087.7393-1.648 1.648-1.648s1.6479.7393 1.6479 1.648c0 .9086-.7392 1.6479-1.6479 1.6479zm0-11.3525c-.9087 0-1.648-.7393-1.648-1.64798s.7393-1.64795 1.648-1.64795 1.6479.73927 1.6479 1.64795-.7392 1.64798-1.6479 1.64798z"/><path d="m22.5507 7.96838-1.1809-2.0666c-.0978-.17113-.2798-.27678-.4769-.27678-.1972 0-.3792.10565-.4769.27678l-1.181 2.0666c-.3416.59781-.3393 1.31023.0064 1.90577.087.14995.1919.28405.3103.40175h2.6824c.1183-.1177.2232-.2518.3102-.40175.3457-.5955.3481-1.30796.0064-1.90577z"/><path d="m18.7471 14.4878h4.2921l.1582-1.7133c.033-.358-.087-.7157-.3293-.9814-.2422-.2657-.5874-.4181-.9471-.4181h-2.0558c-.3596 0-.7048.1524-.9471.4181s-.3623.6234-.3292.9814z"/><path d="m18.8486 15.5859.698 7.5609c.0646.7002.6435 1.2282 1.3467 1.2282.7031 0 1.2821-.528 1.3467-1.2281l.698-7.561z"/></g></svg>