<svg fill="none" height="30" viewBox="0 0 30 30" width="30" xmlns="http://www.w3.org/2000/svg"><path d="m22.7099 7.5c.2133-.00042.4246.04032.6225.12.206.08654.3923.21413.5475.375.1569.15126.2841.33061.375.52874.082.20369.1228.42166.12.64125-.0006.2774-.0436.55309-.1275.81749-.0872.26722-.2136.51992-.375.75002-.1675.2544-.3611.4907-.5775.705-.2178.2182-.4537.4176-.705.5962l-2.2237 1.5487-1.6013 1.125c-.2437.1725-.4537.3188-.6337.4388l-.4275.2925-.075.045-.09.0825-.1275.0825c-.0574.0276-.1115.0616-.1613.1012l-.3225.2213c-.086.0564-.1686.1177-.2475.1837-.0712.0488-.1537.0975-.2475.1538-.0937.0562-.1912.1125-.3.1725-.1087.06-.2137.1162-.3112.165-.0975.0487-.195.0937-.2925.1312l-.2775.0638c-.0775.0173-.1568.0261-.2362.0262h-.015c-.0795-.0001-.1587-.0089-.2363-.0262l-.2775-.0638c-.0975-.0375-.195-.0825-.2925-.1312-.0975-.0488-.1987-.1013-.3112-.165-.1125-.0638-.21-.1163-.3-.1725-.09-.0563-.1763-.105-.2475-.1538-.0789-.066-.1615-.1273-.2475-.1837l-.3375-.2213c-.045-.0444-.0939-.0846-.1463-.12l-.1275-.0825-.1012-.075-.075-.045-.4838-.33-.5662-.4012c-.2325-.1725-.4875-.3525-.7687-.5513l-.91878-.6225c-.585-.4125-1.06124-.75-1.42124-.9862l-.71999-.495c-.22138-.158-.4307-.3322-.62624-.5212-.2172-.2142-.41895-.4436-.60375-.6863-.16657-.2341-.30738-.4856-.41999-.75-.0918-.21476-.14145-.44519-.14625-.67872-.00176-.25405.0349-.5069.10875-.74999.07207-.22205.18389-.42916.33-.61124.14415-.1617.3221-.28972.52124-.375.21975-.10734.46045-.16496.70499-.16875zm-16.0236 5.6587c.73499.5 1.40373.9575 2.00623 1.3725l1.61997 1.125-4.68744 4.6799v-8.0924c.1575.1675.3225.3287.495.4837.17706.1585.3664.3027.56624.4313zm16.0236 9.0636h-15.41986c-.19923.0024-.3973-.0306-.58499-.0975-.18356-.0673-.35184-.1705-.495-.3037l5.30995-5.3212.1837.15c.0586.0463.12.0888.1838.1275l.5325.3937c.1391.1045.2857.1985.4387.2813.1363.0961.2792.1826.4275.2587.165.0863.3525.1688.5588.255.1889.0845.3862.1486.5887.1913.1795.0421.3632.0635.5475.0637h.0375c.1843-.0004.368-.0218.5475-.0637.2022-.0438.3994-.1079.5887-.1913.2063-.0862.375-.1687.555-.255.1496-.0761.2937-.1626.4313-.2587.153-.0828.2997-.1768.4387-.2813l.5325-.3937c.06-.0375.12-.0787.1838-.1275.0578-.0483.1193-.0922.1837-.1312l5.31 5.2986c-.1432.1332-.3115.2365-.495.3038-.1875.0681-.3856.1024-.585.1012zm.6225-9.0636c.1934-.1342.3799-.2781.5587-.4313.1723-.1498.334-.3114.4838-.4837v8.0924l-4.6875-4.6874c.4988-.3563 1.0537-.75 1.6575-1.155.6037-.405 1.2637-.8588 1.9875-1.335z" fill="#8e8e8e"/></svg>