<svg fill="none" height="30" viewBox="0 0 30 30" width="30" xmlns="http://www.w3.org/2000/svg"><path d="m24.9047 13.7733c.087.7981.087 1.6033 0 2.4014-.0734.7534-.2373 1.4952-.4883 2.2093-.2538.707-.5953 1.3793-1.0166 2.0012-.4325.672-.9371 1.2947-1.5049 1.8571-.4011.3784-.8277.7287-1.2768 1.0487-.4529.3065-.9308.5743-1.4288.8004-.4909.2268-.9996.4128-1.5209.5564-.5455.1452-1.1026.243-1.665.2921-.7142.0801-1.4351.0801-2.1493 0-.6814-.0648-1.353-.2085-2.0012-.4282-.652-.2225-1.2796-.5108-1.87313-.8605-.6134-.3738-1.1897-.8054-1.72103-1.2888-.45272-.4158-.87039-.8683-1.24874-1.3528-.35083-.4792-.66141-.9865-.92856-1.5169-.27434-.5223-.49945-1.069-.6724-1.633-.15884-.5901-.27653-1.1906-.35222-1.7971-.14018-1.2689-.02034-2.5531.35222-3.7742.35158-1.1997.91848-2.32532 1.673-3.32202.75887-.99805 1.69669-1.8463 2.76566-2.5015 1.089-.66703 2.3023-1.10552 3.5661-1.28877.2282-.04003.4803-.07205.7325-.09606l.7724-.08005h.0961c.2762.02802.5483.04803.8245.06804.2753.02051.5492.05659.8205.10807.6511.11404 1.2912.28411 1.9131.5083.5944.23015 1.1664.51417 1.709.84851.5517.33335 1.0669.72373 1.537 1.1647.4792.45539.9171.95229 1.3088 1.48489.4876.67401.8908 1.40519 1.2007 2.17729.3021.7742.4961 1.5863.5763 2.4135zm-2.1092 5.123c.2438-.4747.437-.9737.5763-1.4889.1335-.489.2153-.9907.2441-1.4969l-.1961-.064c-.0604-.0227-.1192-.0495-.1761-.08-.2634-.1232-.4918-.3103-.6644-.5444-.1605-.2364-.2482-.5147-.2521-.8005.0186-.1651-.0195-.3316-.1081-.4722-.1334-.1042-.2924-.1705-.4603-.1922-.0969-.0106-.1907-.0405-.276-.088-.0852-.0474-.1601-.1114-.2203-.1881-.0417-.0854-.0634-.1792-.0634-.2742s.0217-.1888.0634-.2741c.0359-.1675.0882-.3311.1561-.4883.0681-.1561.1401-.3122.2042-.4683.0801-.1592.1458-.3253.1961-.4963.0401-.1711.0401-.3492 0-.5203-.0404-.1624-.0472-.3313-.02-.4963.0352-.1801.1313-.3426.2721-.4603l-.4002-.46828c-.1361-.15743-.2762-.31352-.4203-.46828-.064-.06804-.124-.08806-.1761-.06804-.052.02001-.084.08004-.096.18411.0022.02262.0022.04541 0 .06804-.0042.02249-.0042.04555 0 .06804-.0521.22013-.1441.35621-.2722.40024-.08.01959-.1638.01809-.243-.00436-.0793-.02245-.1514-.06508-.2093-.12372-.0262-.0273-.0542-.05271-.084-.07604-.0291-.02238-.0599-.04246-.0921-.06004l-.2321-.05203c-.0574-.01761-.1187-.01761-.1761 0-.1165.03201-.2402.02498-.3522-.02001-.0521-.04003-.0721-.15209-.0601-.3322.011-.0502.0113-.10212.0009-.15244-.0103-.05032-.0311-.09792-.0609-.13974-.0768-.06117-.1745-.0899-.2722-.08005-.0415.01399-.0845.02339-.128.02802h-.1241c-.0631.00331-.1262-.00839-.1839-.03413s-.1086-.06479-.1483-.11396c-.0391-.04638-.0653-.10228-.0758-.16202-.0105-.05975-.0051-.12121.0157-.17818.0142-.07189.037-.14178.0681-.20813.0313-.06624.0542-.13616.068-.20812 0-.05203.028-.11207.0401-.18411.012-.07204 0-.12007-.0401-.14809-.104-.10406-.2161-.20412-.3322-.30418-.1165-.09704-.241-.18407-.3722-.26016-.0978-.07469-.2115-.12582-.3323-.14942s-.2454-.01904-.3641.01334c-.2321.06004-.4683.11207-.7004.1641 0 .19612-.0481.31619-.1001.35221s-.1681.02802-.3522-.03602c-.2067-.05854-.4056-.14186-.5924-.24815-.1945-.098-.3674-.23411-.5083-.40024-.0238-.02705-.0541-.04769-.088-.06004-.0345-.01317-.0711-.01995-.1081-.02001l-.6444.08005-.6644.08805c-.0346.01869-.0669.04154-.096.06804-.0156.0097-.029.02254-.0393.03771-.0103.01516-.0174.0323-.0208.05035.0018.04798.0156.09476.0401.13608.016.03951.0422.07405.076.10006.0717.01023.1445.01023.2161 0 .0737-.00748.1463-.0236.2162-.04803.0914-.02637.1769-.06983.2521-.12808.0818-.0602.1673-.11502.2562-.1641.0419-.02208.0886-.03362.1361-.03362.0474 0 .0941.01154.136.03362.043.02312.0796.05633.1068.09678.0272.04044.0441.0869.0493.13536.0422.11775.0422.24647 0 .36422-.0523.11521-.1371.2126-.2441.28017-.1484.09415-.3021.17968-.4603.25615-.1641.07605-.3242.1641-.4803.25215-.1561.08806-.2121.12808-.3202.18812-.1143.05751-.2229.12587-.3242.20412-.0761.06406-.1364.14488-.1761.23614-.0186.0481-.0247.10015-.0177.15126s.0269.0996.0578.14091c.0241.04035.0581.07396.0986.09774.0406.02378.0865.03697.1335.03835.0889.0006.1767-.01998.2562-.06004.0917-.02453.1803-.05945.2641-.10406l.2442-.12808c.05-.02639.0959-.06011.136-.10006.0413-.03741.087-.06966.1361-.09606.1041-.06403.1841-.08805.2362-.06804.052.02002.096.08005.136.18411.0083.07545.0377.14701.0851.20633.0473.05932.1105.10396.1823.12871.0717.02475.149.0286.2229.01109.0738-.01751.1412-.05566.1942-.10999.0681-.04126.1336-.0867.1961-.13608.065-.0536.1362-.09928.2121-.13608.0458-.02353.0966-.0358.1481-.0358s.1023.01227.1481.0358c.0448.02054.0834.05237.1122.09237.0288.03999.0466.08678.0519.13577-.0043.10946.0297.217.096.30418.1021.05316.2193.0701.3322.04803l.2842-.04002.2842-.04003.028.03202c.0021.00437.0032.00916.0032.01401s-.0011.00964-.0032.01401c-.028.06404-.052.13208-.0801.19611-.023.06201-.0633.11615-.116.1561-.0788.06435-.1648.11941-.2562.1641-.088.04803-.1801.08805-.2721.12807-.1205.05802-.2449.10752-.3723.14812-.104.032-.1561.056-.1561.068.2202.1041.2802.1681.1761.1961-.1761.0651-.3293.1807-.4402.3322-.1361.1681-.024.1961.3442.0761.0649-.0123.1291-.0283.1921-.0481l.2361-.068c-.0622.1966-.1771.3724-.3322.5083-.138.1138-.2884.2118-.4482.2922-.2204.1007-.4104.2577-.5509.4551s-.2266.4283-.2496.6696c-.0593.4239.0515.8541.3082 1.1967.0504.0645.0958.1328.1361.2041.04.072.076.1481.116.2281.0394.0851.0559.1788.0481.2722-.0017.0434-.0138.0857-.0354.1234-.0217.0376-.0521.0694-.0887.0927-.0757.0265-.1563.0361-.2362.028-.0771-.0013-.1521-.025-.2161-.068-.1281-.0914-.2486-.1932-.3602-.3042-.112-.1107-.2138-.2313-.3042-.3602-.13-.1575-.2477-.3248-.3522-.5003-.1002-.1708-.2183-.3304-.3522-.4763-.1469-.2102-.3448-.3796-.5751-.4923-.2304-.1127-.4856-.1651-.7417-.1521-.4891.0639-.945.2827-1.3008.6244-.0431.029-.0782.0684-.102.1146-.0237.0462-.0355.0976-.0341.1496.0109.0481.0324.0931.0628.1319.0305.0388.0692.0703.1133.0922.0401.024.0801.052.1281.076.0442.0282.093.0485.1441.0601.1841.08.3682.1521.5483.2241l.5484.2081c.0338.0226.0701.0414.108.0561.0375.0146.0726.0349.1041.06.0237.0188.0431.0425.0569.0694s.0217.0565.0231.0867c0 .052-.04.0921-.116.1161l-.1881.068c-.0601.0207-.1216.0368-.1842.048-.1185.0285-.2388.0485-.3602.0601-.1259.0139-.2488.0477-.3642.1-.0717.0295-.1349.0762-.1841.1361-.0539.0538-.0914.1218-.1081.1961.0076.0681.0355.1322.0801.1841.0426.063.0953.1184.1561.1641.039.0421.0889.0725.1441.0881.0572.0195.1133.0423.1681.068l.1961.1281c.0621.0452.1209.0947.1761.1481.063.0859.1511.1502.2521.1841.1026.0161.2073-.0083.2922-.068l.3242-.1961c.1081-.0641.2161-.1281.3202-.1962.1041-.068.2041-.124.2562-.104.052.02.116.092.1961.2241.0767.1549.1859.2914.3202.4003.0698.0545.1511.0925.2377.1112.0867.0188.1764.0177.2626-.0032.1513-.0251.2991-.0681.4402-.1281.1418-.0574.2876-.1043.4363-.14l.2802-.1161c.0911-.0374.1866-.0629.2841-.0761.0952-.0156.1929-.007.2838.0252.091.0322.1724.0869.2365.159.1414.159.2209.3635.2242.5763.018.2225-.0263.4457-.1281.6444-.1034.191-.2388.363-.4002.5083-.1593.1298-.2832.2978-.3603.4883-.0759.2012-.0759.4232 0 .6244.0802.2211.0802.4633 0 .6844-.0865.2184-.2237.4132-.4002.5683-.1273.118-.2609.2289-.4002.3322-.1441.1041-.2922.2001-.4483.2922-.2584.2459-.4534.5508-.5683.8885-.1808.3252-.2523.6998-.2042 1.0687 0 .036.024.068.0321.088.0066.0276.0066.0564 0 .0841 0 .2361-.0761.3642-.1962.4002l-.4883.0881c-.116.024-.1841-.0561-.2041-.2442s-.044-.3442-.068-.4603c-.0278-.1085-.0413-.2202-.04-.3322-.006-.1173-.006-.2349 0-.3522.0108-.1148.0405-.2271.088-.3322.044-.104.0881-.2081.1281-.3122.0745-.2039.087-.4253.036-.6364-.0609-.2051-.1756-.3903-.3322-.5363-.0635-.0788-.1345-.1512-.2121-.2161l-.2362-.1961c-.2596-.2397-.4655-.5316-.6043-.8565-.1329-.324-.2127-.6673-.2362-1.0166-.0073-.1459.0413-.2891.1361-.4003.1104-.0983.2524-.1537.4003-.1561.0349-.0116.0713-.0183.108-.02.037.0004.0737-.0064.1081-.02-.004-.117-.0462-.2294-.1201-.3202-.0447-.0403-.0973-.0708-.1546-.0894-.0572-.0187-.1177-.025-.1776-.0187-.124-.0059-.243-.0507-.3402-.128-.0891-.0777-.159-.175-.2041-.2842-.0266-.059-.0467-.1208-.06-.1841-.0116-.0587-.0318-.1154-.0601-.1681-.0507-.1414-.0987-.2815-.1441-.4203-.0455-.1345-.1088-.2624-.1881-.3802-.064-.1041-.1241-.2081-.1761-.3122-.0527-.1097-.0788-.2304-.076-.3522-.0027-.0695-.0234-.1371-.0601-.1961-.04-.064-.07602-.1241-.11604-.1761l-.31219-.3402c-.10406-.1121-.20812-.2242-.31218-.3442l-.1561-.1161-.1641-.1841c.00464.0907.00464.1815 0 .2722-.0037.072-.0037.1441 0 .2161 0 .092-.02401.1841-.03201.2842-.00506.0981-.02812.1944-.06805.2841-.01854.0612-.05475.1155-.10406.1561-.03913.0417-.09144.0685-.14809.0761-.06566-.0045-.12781-.0314-.1761-.0761-.05473-.0379-.09551-.0927-.11607-.1561-.02836-.0964-.04582-.1958-.05203-.2961-.00799-.104-.00799-.2083 0-.3122.10258-.4464.17082-.9.20412-1.3568.0325-.4589.02312-.9197-.02802-1.3769-.02801-.1721-.04803-.3402-.06804-.5083s-.04402-.3442-.06804-.5283c-.47298.5528-.86266 1.1717-1.15669 1.8371-.30252.732-.50838 1.5002-.61237 2.2854-.11383.8305-.10574 1.6733.02402 2.5015.1349.8948.41901 1.7607.8405 2.5615.44738.8706 1.04181 1.6573 1.75705 2.3254.69568.6593 1.49479 1.2002 2.36539 1.601 1.7767.7926 3.7713.9523 5.6514.4522.4987-.1244.9839-.2973 1.4489-.5163.4423-.2088.8667-.4538 1.2687-.7324-.265-.0857-.5063-.2324-.7044-.4283-.2601-.2361-.4002-.7684-.4282-1.6009-.0733-.762-.0247-1.5307.1441-2.2774.14-.3562.2601-.5363.3642-.5363h.3202c.112 0 .3282.1961.6564.5603s.5923.5123.7604.4003c.0882-.0575.1609-.1358.2118-.2279s.0785-.1952.0804-.3005c.0225-.2603.1293-.5062.3042-.7004.1881-.2241.3362-.1441.4402.2322.0727.2844.1775.5596.3122.8205.1441.3161.2762.5683.3923.7924z" fill="#8e8e8e"/></svg>