<svg width="30" height="30" viewBox="0 0 30 30" fill="none" xmlns="http://www.w3.org/2000/svg">
<path d="M8 5C6.348 5 5 6.348 5 8V22C5 23.652 6.348 25 8 25H22C23.652 25 25 23.652 25 22V8C25 6.348 23.652 5 22 5H8ZM8 7H22C22.55 7 23 7.45 23 8V22C23 22.55 22.55 23 22 23H21V21H16V23H8C7.45 23 7 22.55 7 22V8C7 7.45 7.45 7 8 7ZM15 9C14.4696 9 13.9609 9.21071 13.5858 9.58579C13.2107 9.96086 13 10.4696 13 11C13 11.5304 13.2107 12.0391 13.5858 12.4142C13.9609 12.7893 14.4696 13 15 13C15.5304 13 16.0391 12.7893 16.4142 12.4142C16.7893 12.0391 17 11.5304 17 11C17 10.4696 16.7893 9.96086 16.4142 9.58579C16.0391 9.21071 15.5304 9 15 9ZM10.5 11C10.1022 11 9.72064 11.158 9.43934 11.4393C9.15804 11.7206 9 12.1022 9 12.5C9 12.8978 9.15804 13.2794 9.43934 13.5607C9.72064 13.842 10.1022 14 10.5 14C10.8978 14 11.2794 13.842 11.5607 13.5607C11.842 13.2794 12 12.8978 12 12.5C12 12.1022 11.842 11.7206 11.5607 11.4393C11.2794 11.158 10.8978 11 10.5 11ZM19.5 11C19.1022 11 18.7206 11.158 18.4393 11.4393C18.158 11.7206 18 12.1022 18 12.5C18 12.8978 18.158 13.2794 18.4393 13.5607C18.7206 13.842 19.1022 14 19.5 14C19.8978 14 20.2794 13.842 20.5607 13.5607C20.842 13.2794 21 12.8978 21 12.5C21 12.1022 20.842 11.7206 20.5607 11.4393C20.2794 11.158 19.8978 11 19.5 11ZM15 14C12.34 14 11.5 16.5 11.5 16.5C11.5 15.652 12 15 12 15C11.7 14.812 10.93 14.687 10.562 14.687C9.348 14.687 8 15.879 8 16.687V19H22V16.687C22 15.879 20.488 14.687 19.437 14.687C19.07 14.687 18.301 14.813 18 15C18 15 18.5 15.652 18.5 16.5C18.5 16.5 17.66 14 15 14Z" fill="#9CA0AC"/>
</svg>
