<svg width="44" height="44" viewBox="0 0 44 44" fill="none" xmlns="http://www.w3.org/2000/svg">
<path d="M27.2384 25.4702L22.1146 30.594L16.9909 25.4702C13.1507 25.6367 10.084 28.7787 10.084 32.6564V33.172C10.084 34.5953 11.2387 35.75 12.662 35.75H31.5673C32.9906 35.75 34.1453 34.5953 34.1453 33.172V32.6564C34.1453 28.7787 31.0786 25.6367 27.2384 25.4702ZM10.8144 12.5373L11.1582 12.6178V15.7544C10.7822 15.98 10.5137 16.372 10.5137 16.8447C10.5137 17.2958 10.7607 17.6718 11.1098 17.9027L10.272 21.2488C10.1807 21.6193 10.3848 22.0007 10.6801 22.0007H12.9252C13.2205 22.0007 13.4246 21.6193 13.3333 21.2488L12.4955 17.9027C12.8446 17.6718 13.0916 17.2958 13.0916 16.8447C13.0916 16.372 12.8231 15.98 12.4471 15.7544V12.9293L15.9919 13.7833C15.53 14.7071 15.24 15.7383 15.24 16.8447C15.24 20.6418 18.3175 23.7193 22.1146 23.7193C25.9118 23.7193 28.9893 20.6418 28.9893 16.8447C28.9893 15.7383 28.7047 14.7071 28.2374 13.7833L33.4095 12.5373C34.387 12.3009 34.387 11.0818 33.4095 10.8455L23.1834 8.37487C22.4852 8.20838 21.7494 8.20838 21.0512 8.37487L10.8144 10.8401C9.8423 11.0764 9.8423 12.3009 10.8144 12.5373Z" fill="#3E64DE"/>
</svg>
