<svg width="44" height="44" viewBox="0 0 44 44" fill="none" xmlns="http://www.w3.org/2000/svg">
<path d="M23.2033 26.2991C22.8353 26.503 22.4214 26.61 22.0006 26.61C21.5799 26.61 21.166 26.503 20.798 26.2991L7.82092 18.3321C7.68157 18.2694 7.5623 18.1694 7.47635 18.043C7.3904 17.9167 7.34112 17.769 7.33398 17.6164C7.34336 17.4606 7.3932 17.3099 7.4786 17.1793C7.56399 17.0486 7.68198 16.9425 7.82092 16.8713L20.8273 10.4004C21.1941 10.1927 21.6085 10.0835 22.03 10.0835C22.4515 10.0835 22.8659 10.1927 23.2326 10.4004L36.2097 16.8537C36.3457 16.9301 36.4594 17.0407 36.5396 17.1744C36.6199 17.3081 36.6639 17.4605 36.6673 17.6164C36.6602 17.769 36.6109 17.9167 36.5249 18.043C36.439 18.1694 36.3197 18.2694 36.1804 18.3321L23.2033 26.2991ZM23.8897 27.7305L32.631 22.4036C32.9889 22.2687 33.1708 22.4036 33.1708 22.8319V28.3289C33.1383 29.1025 32.8231 29.8373 32.2849 30.394C31.6164 31.1541 30.8102 31.7811 29.9089 32.242C28.7851 32.8279 27.5901 33.2657 26.3537 33.5444C24.93 33.8979 23.4676 34.0713 22.0006 34.0607C20.5337 34.0713 19.0713 33.8979 17.6476 33.5444C16.4112 33.2657 15.2162 32.8279 14.0924 32.242C13.2016 31.778 12.4056 31.1512 11.7457 30.394C11.1988 29.8308 10.8809 29.0842 10.854 28.2996V23.09C10.854 22.5561 11.1121 22.3567 11.6284 22.5033L20.135 27.7481C20.4138 27.9049 20.7115 28.0252 21.0209 28.106C21.6787 28.278 22.3696 28.278 23.0273 28.106C23.3295 28.0177 23.6192 27.8916 23.8897 27.7305ZM35.623 30.1359C35.6211 30.1606 35.6255 30.1854 35.6357 30.208C35.646 30.2305 35.6618 30.2501 35.6817 30.2649L35.7697 30.3353C35.995 30.4658 36.1814 30.6542 36.3094 30.8809C36.4445 31.1125 36.5162 31.3755 36.5172 31.6435C36.5182 31.9116 36.4486 32.1751 36.3154 32.4077C36.1822 32.6403 35.99 32.8336 35.7582 32.9683C35.5265 33.103 35.2633 33.1742 34.9953 33.1748C34.5923 33.1748 34.2058 33.0147 33.9209 32.7298C33.6359 32.4448 33.4758 32.0583 33.4758 31.6553C33.4832 31.3773 33.573 31.1078 33.734 30.8809C33.866 30.6611 34.0466 30.4745 34.262 30.3353C34.2843 30.3143 34.3039 30.2906 34.3206 30.2649C34.336 30.2474 34.3475 30.2269 34.3546 30.2047C34.3616 30.1825 34.3641 30.159 34.3617 30.1359V22.1748C34.3513 21.9648 34.4134 21.7577 34.5377 21.5881C34.6596 21.4778 34.7934 21.3814 34.9366 21.3007C35.0829 21.2125 35.2359 21.136 35.3942 21.0719C35.5116 20.9956 35.5878 21.0719 35.623 21.33V30.13V30.1359Z" fill="#3E64DE"/>
</svg>
