<svg width="30" height="30" viewBox="0 0 30 30" fill="none" xmlns="http://www.w3.org/2000/svg">
<path d="M20.0887 15.3069C19.7737 15.6219 19.2352 15.3988 19.2352 14.9533V13.2175C19.2352 12.9413 19.0113 12.7175 18.7352 12.7175H13.5945C13.3183 12.7175 13.0945 12.4936 13.0945 12.2175V8.31783C13.0945 8.04169 13.3183 7.81783 13.5945 7.81783H18.7352C19.0113 7.81783 19.2352 7.59398 19.2352 7.31783V5.58221C19.2352 5.13674 19.7738 4.91366 20.0887 5.22868L24.774 9.91451C24.9693 10.1098 24.9692 10.4263 24.774 10.6216L20.0887 15.3069ZM4.72849 19.3784C4.53326 19.5737 4.53326 19.8902 4.72849 20.0855L9.41378 24.7713C9.72876 25.0863 10.2674 24.8633 10.2674 24.4178V22.6822C10.2674 22.406 10.4912 22.1822 10.7674 22.1822H15.908C16.1842 22.1822 16.408 21.9583 16.408 21.6822V17.7817C16.408 17.5056 16.1842 17.2817 15.908 17.2817H10.7674C10.4912 17.2817 10.2674 17.0579 10.2674 16.7817V15.0461C10.2674 14.6006 9.72876 14.3775 9.41378 14.6926L4.72849 19.3784Z" fill="#8E8E8E"/>
</svg>
