<svg fill="none" height="30" viewBox="0 0 30 30" width="30" xmlns="http://www.w3.org/2000/svg"><path d="m24.3751 16.112c.1168.145.1992.3147.2407.4963.0416.1815.0414.3702-.0007.5516-.0357.1822-.1132.3535-.2263.5007-.1132.1471-.2589.266-.4257.3473l-.452.252c-.2334.1326-.4205.3337-.536.576-.1242.2471-.1622.5287-.108.8l.1.508c.0318.1814.0253.3674-.0192.5462-.0444.1787-.1257.3461-.2388.4916-.113.1454-.2552.2655-.4174.3527s-.3409.1394-.5246.1534h-.508c-.2753.0083-.5399.1082-.7519.284-.2128.173-.3665.4078-.44.672l-.116.488c-.0457.1805-.1307.3486-.249.4925-.1182.1438-.2668.2597-.435.3395-.1654.0863-.3483.1337-.5348.1386-.1864.0048-.3716-.033-.5412-.1106l-.516-.192c-.2464-.1053-.521-.125-.78-.056-.2644.0579-.5038.1979-.6839.4l-.332.3999c-.1177.1448-.2667.261-.4357.34-.169.0789-.3538.1186-.5403.116-.184.0038-.3666-.0325-.5351-.1064-.1686-.074-.319-.1837-.4409-.3216l-.352-.3999c-.1773-.2055-.4179-.3462-.684-.4-.269-.0592-.5501-.0283-.7999.088l-.468.196c-.1696.0736-.3529.1101-.5378.1068-.1848-.0033-.3668-.0462-.5336-.1258s-.3146-.1941-.4334-.3358c-.11881-.1416-.20582-.3071-.25518-.4852l-.15599-.488c-.0583-.2656-.21022-.5012-.42799-.664-.2204-.1664-.48784-.2589-.76398-.264l-.50799-.02c-.1848-.0028-.36661-.047-.53205-.1294s-.31031-.2008-.42393-.3466c-.12062-.1433-.20765-.3118-.25472-.4931-.04706-.1814-.05296-.3709-.01727-.5548l.076-.504c.05486-.2713.01682-.5531-.108-.8-.11604-.2486-.31171-.4513-.55599-.576l-.44799-.236c-.16712-.0804-.31334-.1985-.42715-.3449-.11382-.1464-.19215-.3173-.22883-.4991-.04395-.1792-.04811-.366-.01217-.547.03593-.1811.11108-.3521.22017-.5009l.29199-.428c.15824-.218.23855-.4829.22799-.752-.00605-.2753-.09071-.5432-.24399-.772l-.31199-.4c-.11232-.1474-.19098-.3175-.23045-.4986-.03946-.181-.03877-.3685.00203-.5492.0408-.1808.12072-.3504.23412-.4969.11341-.1465.25755-.2664.42229-.3512l.44799-.252c.23535-.1314.42405-.3327.53998-.576.12112-.2482.15764-.5291.104-.8l-.096-.50799c-.03448-.18274-.02872-.37081.01687-.5511s.12992-.34849.24712-.49288c.11324-.14994.25857-.27266.42536-.35917.1668-.08651.35083-.13462.53862-.14081l.50799-.02c.27091-.01203.53058-.11169.73998-.284.21652-.16808.36897-.40522.43199-.67198l.136-.48799c.04569-.18049.1307-.34866.24894-.49249.11823-.14382.26683-.25975.43503-.33949.1643-.08747.3466-.13554.5327-.1404.186-.00486.3707.03362.5393.1124l.472.176c.25.11652.5325.14336.8.076.2644-.05789.5038-.19789.6839-.39999l.332-.39999c.1185-.14328.2678-.25797.4368-.33553.169-.07757.3533-.11601.5392-.11246.184-.00349.3665.03296.535.10685s.3189.18346.441.32114l.352.39999c.1761.20693.4172.34795.684.39999.2673.05989.5466.03615.7999-.068l.468-.21599c.1696-.07368.3529-.11011.5378-.10684.1848.00327.3668.04617.5336.12579.1668.07963.3146.19412.4334.33576s.2058.30712.2552.48526l.156.48799c.0583.26554.2102.50124.428.66399.2174.17069.4837.26739.7599.27599l.508.02c.1877.00478.3721.05016.5406.13302s.317.20123.4354.34697c.1191.14181.2053.30828.2524.48743.047.17914.0537.36649.0196.54854l-.076.50399c-.0587.2707-.0219.5533.104.8.1176.2488.3146.4514.56.576l.448.236c.1657.0858.3103.2076.423.3564.1128.1487.191.3207.229.5035.0427.1798.0466.3666.0114.548s-.1086.3532-.2154.504l-.292.4c-.1753.2125-.2689.4806-.264.756.0042.2756.089.544.244.772zm-7.1479 2.2079c.2502-.2778.429-.6124.521-.9748.092-.3623.0944-.7416.007-1.1051-.0778-.3742-.2371-.7267-.4666-1.0322-.2296-.3056-.5237-.5568-.8613-.7358-.2206-.1276-.4491-.2412-.684-.34l-.728-.304c-.1368-.0536-.2703-.115-.4-.184-.128-.0729-.251-.1544-.368-.244-.1102-.0661-.1987-.1629-.2546-.2785-.056-.1157-.077-.2451-.0604-.3726.0166-.1274.0699-.2472.1536-.3447s.194-.1684.3174-.2041c.076-.028.156-.048.232-.068.077-.0205.1563-.0313.236-.032.3069-.0117.6142.0111.916.068.2971.0594.5859.1548.86.2839.0928.0582.2041.0796.3119.06.068-.028.124-.112.176-.256.052-.1439.084-.3119.128-.4679s.096-.312.148-.468c.0267-.0874.0196-.1817-.02-.264-.0436-.0763-.1131-.1345-.196-.164-.1816-.0787-.3672-.1481-.5559-.208-.1893-.0583-.3816-.1064-.576-.144-.1543-.0097-.3046-.0534-.44-.128-.0641-.1443-.0876-.3033-.068-.45999.0263-.21473-.0041-.43261-.088-.63199-.2004-.0854-.42-.11578-.636-.088h-.312c-.1169-.00412-.2324.02651-.332.088-.052.044-.076.152-.076.31999v.46799c.0167.1363-.004.2746-.06.4-.1112.0852-.2374.149-.372.188-.4806.1693-.9102.4584-1.2479.84-.3266.3966-.5124.8904-.528 1.4039-.0411.4544.0716.9094.32 1.292.2618.3656.5986.671.9879.896.252.1608.5202.2949.8.4.28.104.556.216.828.332.104.052.204.108.304.164s.192.12.284.188c.1219.0888.2174.2089.2766.3476.0591.1388.0797.2909.0594.4403-.0216.146-.0819.2836-.1748.3983-.0929.1146-.2149.2023-.3532.2537-.1678.0644-.3422.11-.52.136-.1709.0279-.3451.0279-.516 0-.2769-.0346-.551-.0894-.82-.164-.2639-.0724-.5189-.1744-.7599-.304-.156-.076-.264-.104-.324-.076s-.116.116-.168.272-.076.284-.116.4-.076.276-.116.42c-.0496.1203-.0607.2531-.032.38.0825.1105.1949.1952.324.244.2232.1043.4546.1899.6919.256.244.064.488.116.736.156.1191.0013.235.039.332.108.0503.1129.0696.2371.056.36v.5479c.0065.0985.0412.1929.1.272.032.0341.0713.0605.1149.0771.0437.0166.0906.0231.1371.0189h.8c.0465.005.0935-.0004.1378-.0156.0442-.0152.0845-.0399.1182-.0724.0567-.0742.0838-.1669.076-.26 0-.1199 0-.2439 0-.3719.0082-.1239.0082-.2482 0-.372-.0074-.1036.0208-.2066.08-.292.0718-.0796.167-.1343.272-.156.274-.0743.5356-.1889.776-.34.231-.1532.4373-.3407.6119-.556z" fill="#8e8e8e"/></svg>