<svg width="44" height="44" viewBox="0 0 44 44" fill="none" xmlns="http://www.w3.org/2000/svg">
<path d="M27.451 21.6347C26.5796 21.6347 25.7598 21.1706 25.3164 20.4282L22.0011 14.932L18.691 20.4282C18.2425 21.1758 17.4227 21.6398 16.5513 21.6398C16.3193 21.6398 16.0873 21.6089 15.8656 21.5419L8.80197 19.5207V28.6983C8.80197 29.4562 9.31757 30.1162 10.0497 30.2966L21.1968 33.086C21.7227 33.2149 22.2744 33.2149 22.7952 33.086L33.9526 30.2966C34.6847 30.111 35.2003 29.4511 35.2003 28.6983V19.5207L28.1367 21.5367C27.915 21.6037 27.683 21.6347 27.451 21.6347ZM38.4124 15.8497L35.7571 10.5494C35.5973 10.2298 35.2519 10.0442 34.8961 10.0906L22.0011 11.7353L26.7291 19.5775C26.9251 19.9023 27.3169 20.057 27.683 19.9538L37.8865 17.0407C38.397 16.8912 38.6445 16.3241 38.4124 15.8497ZM8.24513 10.5494L5.58983 15.8497C5.35266 16.3241 5.6053 16.8912 6.11058 17.0356L16.3142 19.9487C16.6802 20.0518 17.0721 19.8971 17.268 19.5723L22.0011 11.7353L9.10102 10.0906C8.74526 10.0493 8.40497 10.2298 8.24513 10.5494Z" fill="#3E64DE"/>
</svg>
