<svg width="14" height="14" viewBox="0 0 14 14" fill="none" xmlns="http://www.w3.org/2000/svg">
<path d="M12.542 5.39551H8.60449V1.45801C8.60449 0.974844 8.21266 0.583008 7.72949 0.583008H6.85449C6.37133 0.583008 5.97949 0.974844 5.97949 1.45801V5.39551H2.04199C1.55883 5.39551 1.16699 5.78734 1.16699 6.27051V7.14551C1.16699 7.62867 1.55883 8.02051 2.04199 8.02051H5.97949V11.958C5.97949 12.4412 6.37133 12.833 6.85449 12.833H7.72949C8.21266 12.833 8.60449 12.4412 8.60449 11.958V8.02051H12.542C13.0252 8.02051 13.417 7.62867 13.417 7.14551V6.27051C13.417 5.78734 13.0252 5.39551 12.542 5.39551Z" fill="#3E64DE"/>
</svg>
