<svg width="30" height="30" viewBox="0 0 30 30" fill="none" xmlns="http://www.w3.org/2000/svg">
<path d="M22.9348 15.6979L23.7074 21.08L11.4197 21.0192C11.398 21.0453 11.3763 21.0713 11.3546 21.0973C11.3329 21.1233 11.3112 21.1493 11.2895 21.1754C11.2678 21.2014 11.2461 21.2274 11.2244 21.2534C11.2027 21.2795 11.181 21.3055 11.1593 21.3315C11.1419 21.3532 11.1202 21.3792 11.1029 21.4009C11.0855 21.4226 11.0638 21.4486 11.0464 21.4703C11.0291 21.4963 11.0074 21.518 10.99 21.544C10.9727 21.5657 10.951 21.5917 10.9336 21.6177L24.2022 21.8563L23.2821 15.6719L22.9348 15.6979Z" fill="#8E8E8E"/>
<path d="M12.3275 19.9614C12.2841 20.0135 12.2363 20.0612 12.1929 20.1132C12.1495 20.1652 12.1061 20.2129 12.0584 20.265C12.015 20.317 11.9716 20.3647 11.9238 20.4168L22.8139 20.3344L22.1195 15.1215L22.037 14.4883L21.5813 14.5403L22.2236 19.6188L12.4577 19.8183C12.4186 19.8617 12.3709 19.9094 12.3275 19.9614Z" fill="#8E8E8E"/>
<path d="M20.6347 13.417L19.9359 13.5081C19.8621 13.5514 19.7926 13.5991 19.7189 13.6468C19.6494 13.6946 19.5756 13.7379 19.5062 13.7856C19.4367 13.8333 19.3629 13.8767 19.2935 13.9244C19.224 13.9721 19.1503 14.0198 19.0808 14.0675C18.9853 14.1326 18.8898 14.1976 18.7943 14.2627C18.6989 14.3277 18.6077 14.3928 18.5122 14.4578C18.4167 14.5229 18.3256 14.5923 18.2301 14.6573C18.1389 14.7224 18.0435 14.7918 17.9523 14.8612C17.8698 14.9219 17.7874 14.9826 17.7092 15.0433C17.6268 15.104 17.5486 15.1648 17.4662 15.2255C17.3837 15.2862 17.3056 15.3469 17.2231 15.4076C17.1406 15.4683 17.0625 15.5334 16.9844 15.5941C16.9323 15.6331 16.8802 15.6765 16.8281 15.7155C16.7761 15.7546 16.724 15.7979 16.6719 15.8413C16.6198 15.8847 16.5677 15.9237 16.5156 15.9671C16.4635 16.0104 16.4115 16.0495 16.3637 16.0928C16.3464 16.1102 16.3246 16.1232 16.3073 16.1405C16.2899 16.1579 16.2682 16.1709 16.2509 16.1883C16.2335 16.2056 16.2118 16.2229 16.1944 16.236C16.1771 16.2533 16.1554 16.2663 16.138 16.2837C16.0729 16.3357 16.0078 16.3921 15.9427 16.4485C15.8776 16.5048 15.8125 16.5569 15.7517 16.6133C15.6866 16.6696 15.6215 16.726 15.5607 16.7781C15.4956 16.8344 15.4349 16.8908 15.3698 16.9472C15.1658 17.125 14.9661 17.3072 14.7664 17.4893C14.5668 17.6715 14.3715 17.8579 14.1761 18.0444C13.9808 18.2309 13.7898 18.4217 13.5989 18.6169C13.4079 18.8077 13.2213 19.0029 13.0303 19.2024L21.2727 18.9335L20.7085 14.0155L20.6347 13.417Z" fill="#8E8E8E"/>
<path d="M22.9348 15.6979L23.7074 21.08L11.4197 21.0192C11.398 21.0453 11.3763 21.0713 11.3546 21.0973C11.3329 21.1233 11.3112 21.1493 11.2895 21.1754C11.2678 21.2014 11.2461 21.2274 11.2244 21.2534C11.2027 21.2795 11.181 21.3055 11.1593 21.3315C11.1419 21.3532 11.1202 21.3792 11.1029 21.4009C11.0855 21.4226 11.0638 21.4486 11.0464 21.4703C11.0291 21.4963 11.0074 21.518 10.99 21.544C10.9727 21.5657 10.951 21.5917 10.9336 21.6177L24.2022 21.8563L23.2821 15.6719L22.9348 15.6979Z" fill="#8E8E8E"/>
<path d="M12.3275 19.9614C12.2841 20.0135 12.2363 20.0612 12.1929 20.1132C12.1495 20.1652 12.1061 20.2129 12.0584 20.265C12.015 20.317 11.9716 20.3647 11.9238 20.4168L22.8139 20.3344L22.1195 15.1215L22.037 14.4883L21.5813 14.5403L22.2236 19.6188L12.4577 19.8183C12.4186 19.8617 12.3709 19.9094 12.3275 19.9614Z" fill="#8E8E8E"/>
<path d="M20.6347 13.417L19.9359 13.5081C19.8621 13.5514 19.7926 13.5991 19.7189 13.6468C19.6494 13.6946 19.5756 13.7379 19.5062 13.7856C19.4367 13.8333 19.3629 13.8767 19.2935 13.9244C19.224 13.9721 19.1503 14.0198 19.0808 14.0675C18.9853 14.1326 18.8898 14.1976 18.7943 14.2627C18.6989 14.3277 18.6077 14.3928 18.5122 14.4578C18.4167 14.5229 18.3256 14.5923 18.2301 14.6573C18.1389 14.7224 18.0435 14.7918 17.9523 14.8612C17.8698 14.9219 17.7874 14.9826 17.7092 15.0433C17.6268 15.104 17.5486 15.1648 17.4662 15.2255C17.3837 15.2862 17.3056 15.3469 17.2231 15.4076C17.1406 15.4683 17.0625 15.5334 16.9844 15.5941C16.9323 15.6331 16.8802 15.6765 16.8281 15.7155C16.7761 15.7546 16.724 15.7979 16.6719 15.8413C16.6198 15.8847 16.5677 15.9237 16.5156 15.9671C16.4635 16.0104 16.4115 16.0495 16.3637 16.0928C16.3464 16.1102 16.3246 16.1232 16.3073 16.1405C16.2899 16.1579 16.2682 16.1709 16.2509 16.1883C16.2335 16.2056 16.2118 16.2229 16.1944 16.236C16.1771 16.2533 16.1554 16.2663 16.138 16.2837C16.0729 16.3357 16.0078 16.3921 15.9427 16.4485C15.8776 16.5048 15.8125 16.5569 15.7517 16.6133C15.6866 16.6696 15.6215 16.726 15.5607 16.7781C15.4956 16.8344 15.4349 16.8908 15.3698 16.9472C15.1658 17.125 14.9661 17.3072 14.7664 17.4893C14.5668 17.6715 14.3715 17.8579 14.1761 18.0444C13.9808 18.2309 13.7898 18.4217 13.5989 18.6169C13.4079 18.8077 13.2213 19.0029 13.0303 19.2024L21.2727 18.9335L20.7085 14.0155L20.6347 13.417Z" fill="#8E8E8E"/>
<path d="M24.3887 10.1553C23.985 10.307 23.5813 10.4632 23.1733 10.6236C22.774 10.7841 22.3704 10.9489 21.971 11.1224C21.5761 11.2915 21.1811 11.465 20.7861 11.6471C20.7774 11.6515 20.7644 11.6558 20.7557 11.6601C20.747 11.6645 20.734 11.6688 20.7253 11.6732C20.7167 11.6775 20.7036 11.6818 20.695 11.6862C20.6863 11.6905 20.6733 11.6948 20.6646 11.6992C20.3434 11.8466 20.0265 11.9984 19.7097 12.1502C19.3972 12.302 19.0803 12.4581 18.7722 12.6186C18.464 12.7747 18.1558 12.9352 17.852 13.1C17.5482 13.2605 17.2487 13.4253 16.9535 13.5944C16.8494 13.6551 16.7408 13.7158 16.6367 13.7765C16.5325 13.8373 16.4283 13.898 16.3242 13.9587C16.22 14.0194 16.1158 14.0801 16.0117 14.1452C15.9075 14.2059 15.8077 14.2666 15.7035 14.3317C15.6167 14.3837 15.5255 14.4401 15.4387 14.4921C15.3519 14.5485 15.2651 14.6005 15.174 14.6569C15.0871 14.7133 15.0003 14.7653 14.9135 14.8217C14.8267 14.8781 14.7399 14.9301 14.6531 14.9865C14.5967 15.0256 14.5403 15.0603 14.4838 15.0993C14.4274 15.1383 14.371 15.173 14.3146 15.212C14.2581 15.2511 14.2017 15.2858 14.1453 15.3248C14.0889 15.3638 14.0324 15.3985 13.976 15.4376C13.9586 15.4506 13.9369 15.4636 13.9196 15.4766C13.9022 15.4896 13.8805 15.5026 13.8631 15.5156C13.8458 15.5286 13.8241 15.5416 13.8067 15.5547C13.7894 15.5677 13.7677 15.5807 13.7503 15.5937C13.6809 15.6414 13.6114 15.6891 13.5463 15.7368C13.4769 15.7845 13.4117 15.8322 13.3423 15.8799C13.2729 15.9276 13.2077 15.9753 13.1383 16.0274C13.0732 16.0751 13.0037 16.1228 12.9386 16.1748C12.4959 16.5001 12.0662 16.8297 11.6495 17.1723C11.2329 17.5106 10.8292 17.8575 10.4386 18.2132C10.0523 18.5644 9.67465 18.9287 9.31005 19.3017C8.9498 19.6704 8.60257 20.052 8.26401 20.4467C8.23363 20.4813 8.20325 20.516 8.17286 20.5551C8.14248 20.5898 8.1121 20.6245 8.08172 20.6635C8.05133 20.6982 8.02095 20.7372 7.99057 20.7719C7.96018 20.8066 7.9298 20.8456 7.90376 20.8803C7.88206 20.9064 7.86035 20.9367 7.83865 20.9627C7.81695 20.9888 7.79525 21.0191 7.77355 21.0451C7.75184 21.0712 7.73014 21.1015 7.70844 21.1275C7.68674 21.1536 7.66504 21.1839 7.64333 21.2099C7.63031 21.1969 7.61729 21.1796 7.60861 21.1666C7.59559 21.1536 7.58691 21.1406 7.57389 21.1232C7.56087 21.1102 7.55218 21.0972 7.53916 21.0842C7.52614 21.0712 7.51746 21.0581 7.50444 21.0451C7.39159 20.9107 7.28308 20.7893 7.18325 20.6722C7.08342 20.5594 6.98793 20.451 6.90112 20.3512C6.80997 20.2515 6.72751 20.1604 6.64504 20.0693C6.56257 19.9783 6.48444 19.8959 6.40631 19.8091C6.38461 19.7874 6.36725 19.7658 6.34555 19.7441C6.32385 19.7224 6.30649 19.7007 6.28478 19.679C6.26308 19.6573 6.24572 19.6357 6.22402 19.614C6.20232 19.5923 6.18495 19.5706 6.16325 19.5489C6.07644 19.4535 5.98963 19.3581 5.90283 19.2583C5.81602 19.1586 5.72487 19.0545 5.63372 18.9418C5.54257 18.829 5.44708 18.7119 5.34725 18.5861C5.24742 18.4604 5.14325 18.3216 5.03474 18.1741C4.987 18.1091 4.93491 18.0397 4.88283 17.966C4.83074 17.8922 4.77866 17.8185 4.72223 17.7448C4.66581 17.6667 4.61372 17.5887 4.55296 17.5062C4.49653 17.4238 4.43577 17.3414 4.375 17.2504C4.49219 17.6364 4.60938 18.0007 4.71789 18.3433C4.83074 18.6946 4.93491 19.0242 5.03908 19.3407C5.14325 19.6617 5.24308 19.9653 5.34291 20.2515C5.44274 20.5464 5.54257 20.8283 5.63806 21.1015C5.65976 21.1666 5.68147 21.2273 5.70751 21.2923C5.72921 21.3531 5.75091 21.4181 5.77695 21.4788C5.79866 21.5395 5.82036 21.6046 5.8464 21.6653C5.8681 21.726 5.88981 21.7911 5.91585 21.8518C5.92453 21.8778 5.93755 21.9082 5.94623 21.9342C5.95491 21.9646 5.96793 21.9906 5.97661 22.0209C5.98529 22.0513 5.99832 22.0773 6.007 22.1077C6.01568 22.138 6.0287 22.1641 6.03738 22.1944C6.0504 22.2248 6.05908 22.2551 6.0721 22.2811C6.08512 22.3115 6.0938 22.3419 6.10683 22.3679C6.11985 22.3982 6.12853 22.4286 6.14155 22.4546C6.15457 22.485 6.16325 22.5153 6.17627 22.5414C6.18495 22.563 6.19363 22.5847 6.20232 22.6064C6.211 22.6281 6.21968 22.6498 6.22836 22.6715C6.23704 22.6932 6.24572 22.7148 6.2544 22.7365C6.26308 22.7582 6.27176 22.7799 6.28044 22.8016C6.28478 22.8102 6.28912 22.8189 6.28912 22.8276C6.29346 22.8363 6.2978 22.8449 6.2978 22.8536C6.30214 22.8623 6.30649 22.871 6.30649 22.8796C6.31083 22.8883 6.31517 22.897 6.31517 22.9057C6.32819 22.936 6.33687 22.962 6.34989 22.9924C6.36291 23.0228 6.37159 23.0488 6.38461 23.0791C6.39763 23.1095 6.40631 23.1398 6.41934 23.1659C6.43236 23.1962 6.44104 23.2266 6.45406 23.2526L6.44538 23.283L6.46274 23.2743C6.53219 23.4478 6.60163 23.6256 6.67542 23.8034C6.74921 23.9855 6.82299 24.172 6.90112 24.3628C6.97925 24.558 7.06172 24.7575 7.14853 24.9657C7.23533 25.1738 7.32648 25.395 7.42197 25.6205C7.57823 25.3343 7.74316 25.0481 7.9081 24.7662C8.07303 24.4843 8.24231 24.2111 8.41159 23.9378C8.58086 23.6646 8.75448 23.3957 8.93244 23.1312C9.11039 22.8666 9.28835 22.6021 9.47065 22.3462C9.47499 22.3419 9.47933 22.3375 9.48367 22.3289C9.48801 22.3245 9.49235 22.3202 9.49669 22.3115C9.50103 22.3072 9.50537 22.3028 9.50971 22.2942C9.51405 22.2898 9.51839 22.2855 9.52273 22.2768C9.55746 22.2291 9.59218 22.1771 9.6269 22.1294C9.66163 22.0817 9.69635 22.0296 9.73541 21.9819C9.77014 21.9342 9.80486 21.8822 9.84392 21.8344C9.87865 21.7867 9.91771 21.7347 9.95244 21.687C9.98282 21.6436 10.0132 21.6046 10.0436 21.5612C10.074 21.5179 10.1043 21.4788 10.1391 21.4355C10.1695 21.3921 10.1998 21.3531 10.2346 21.314C10.2649 21.275 10.2997 21.2316 10.3301 21.1926C10.3344 21.1839 10.3431 21.1796 10.3474 21.1709C10.3518 21.1622 10.3604 21.1579 10.3648 21.1492C10.3691 21.1405 10.3778 21.1362 10.3821 21.1275C10.3865 21.1189 10.3952 21.1145 10.3995 21.1059C10.4386 21.0581 10.4733 21.0061 10.5123 20.9584C10.5514 20.9107 10.5905 20.863 10.6252 20.8109C10.6643 20.7632 10.7033 20.7155 10.7424 20.6635C10.7815 20.6158 10.8205 20.5681 10.8596 20.5204C10.8986 20.4727 10.9377 20.425 10.9768 20.3773C11.0158 20.3296 11.0549 20.2818 11.094 20.2341C11.133 20.1864 11.1721 20.1387 11.2112 20.091C11.2502 20.0433 11.2893 19.9956 11.3327 19.9479C11.6148 19.6096 11.9013 19.2844 12.1964 18.9591C12.4916 18.6338 12.7867 18.3172 13.0906 18.005C13.3944 17.6927 13.7026 17.3848 14.0151 17.0856C14.3319 16.7863 14.6488 16.4914 14.97 16.2009C15.0307 16.1445 15.0958 16.0881 15.1566 16.0361C15.2174 15.9797 15.2825 15.9276 15.3432 15.8712C15.4083 15.8149 15.4691 15.7628 15.5342 15.7064C15.5993 15.6501 15.6601 15.598 15.7252 15.546C15.7425 15.5286 15.7643 15.5156 15.7816 15.4983C15.799 15.4809 15.8207 15.4679 15.838 15.4506C15.8554 15.4332 15.8771 15.4202 15.8945 15.4029C15.9118 15.3855 15.9335 15.3725 15.9509 15.3552C16.003 15.3118 16.0507 15.2728 16.1028 15.2294C16.1549 15.1904 16.2026 15.147 16.2547 15.108C16.3068 15.0689 16.3545 15.0256 16.4066 14.9865C16.4587 14.9475 16.5065 14.9041 16.5585 14.8651C16.6367 14.8044 16.7148 14.7393 16.7929 14.6786C16.8711 14.6179 16.9492 14.5572 17.0273 14.4965C17.1054 14.4357 17.1836 14.375 17.266 14.3143C17.3442 14.2536 17.4266 14.1929 17.5048 14.1365C17.5959 14.0671 17.6871 14.0021 17.7782 13.937C17.8694 13.872 17.9605 13.8026 18.0517 13.7375C18.1428 13.6725 18.2339 13.6074 18.3251 13.5423C18.4162 13.4773 18.5117 13.4122 18.6029 13.3515C18.7765 13.2301 18.9545 13.113 19.1281 12.9959C19.306 12.8788 19.484 12.766 19.6576 12.6533C19.8356 12.5405 20.0135 12.4278 20.1958 12.3194C20.3781 12.2109 20.5561 12.1025 20.7384 11.9984C21.1377 11.7686 21.537 11.5431 21.9407 11.3349C22.3487 11.1224 22.7567 10.9185 23.1603 10.7277C23.5727 10.5369 23.985 10.3547 24.3973 10.1856C24.814 10.0165 25.2307 9.86034 25.6474 9.71289C25.2047 9.85601 24.7967 10.0035 24.3887 10.1553Z" fill="#8E8E8E"/>
<path d="M7.12273 24.9696C7.12273 24.9696 7.30069 25.3989 7.39618 25.6244C7.55243 25.3382 7.71737 25.052 7.8823 24.7701C8.04724 24.4882 8.21651 24.215 8.38579 23.9417C8.55507 23.6685 8.72868 23.3996 8.90664 23.1351C9.0846 22.8705 9.26255 22.606 9.44485 22.3501C9.44919 22.3458 9.45353 22.3414 9.45787 22.3328C9.46221 22.3284 9.46655 22.3241 9.47089 22.3154C9.47524 22.3111 9.47958 22.3067 9.48392 22.2981C9.48826 22.2937 9.4926 22.2894 9.49694 22.2807C9.53166 22.233 9.56638 22.181 9.60111 22.1333C9.63583 22.0856 9.67055 22.0335 9.70962 21.9858C9.74434 21.9381 9.77906 21.8861 9.81813 21.8384C9.85285 21.7906 9.89192 21.7386 9.92664 21.6909C9.95702 21.6475 9.9874 21.6085 10.0178 21.5651C10.0482 21.5218 10.0786 21.4827 10.1133 21.4394C10.1437 21.396 10.174 21.357 10.2088 21.3179C10.2391 21.2789 10.2739 21.2355 10.3043 21.1965C10.3086 21.1878 10.3173 21.1835 10.3216 21.1748C10.326 21.1661 10.3346 21.1618 10.339 21.1531C10.3433 21.1445 10.352 21.1401 10.3563 21.1314C10.3607 21.1228 10.3694 21.1184 10.3737 21.1098C10.4128 21.0621 10.4475 21.01 10.4866 20.9623C10.5256 20.9146 10.5647 20.8669 10.5994 20.8149C10.6385 20.7671 10.6775 20.7194 10.7166 20.6674C10.7557 20.6197 10.7947 20.572 10.8338 20.5243C10.8728 20.4766 10.9119 20.4289 10.951 20.3812C10.99 20.3335 11.0291 20.2858 11.0682 20.238C11.1072 20.1903 11.1463 20.1426 11.1854 20.0949C11.2244 20.0472 11.2635 19.9995 11.3069 19.9518C11.589 19.6135 11.8755 19.2883 12.1706 18.963C12.4658 18.6377 12.7609 18.3212 13.0648 18.0089C13.3686 17.6966 13.6768 17.3887 13.9893 17.0895C14.3061 16.7902 14.623 16.4953 14.9442 16.2048C15.0049 16.1484 15.07 16.092 15.1308 16.04C15.1916 15.9836 15.2567 15.9315 15.3174 15.8752C15.3825 15.8188 15.4433 15.7667 15.5084 15.7104C15.5735 15.654 15.6343 15.6019 15.6994 15.5499C15.7168 15.5325 15.7385 15.5195 15.7558 15.5022C15.7732 15.4848 15.7949 15.4718 15.8122 15.4545C15.8296 15.4371 15.8513 15.4241 15.8687 15.4068C15.886 15.3894 15.9077 15.3764 15.9251 15.3591C15.9772 15.3157 16.0249 15.2767 16.077 15.2333C16.1291 15.1943 16.1768 15.1509 16.2289 15.1119C16.281 15.0728 16.3288 15.0295 16.3808 14.9904C16.4329 14.9514 16.4807 14.908 16.5328 14.869C16.6109 14.8083 16.689 14.7432 16.7671 14.6825C16.8453 14.6218 16.9234 14.5611 17.0015 14.5004C17.0796 14.4397 17.1578 14.3789 17.2402 14.3182C17.3184 14.2575 17.4008 14.1968 17.479 14.1404C17.5701 14.071 17.6613 14.006 17.7524 13.9409C17.8436 13.8759 17.9347 13.8065 18.0259 13.7414C18.117 13.6764 18.2082 13.6113 18.2993 13.5463C18.3905 13.4812 18.4859 13.4161 18.5771 13.3554C18.7507 13.234 18.9287 13.1169 19.1023 12.9998C19.2802 12.8827 19.4582 12.77 19.6318 12.6572C19.8098 12.5444 19.9877 12.4317 20.17 12.3233C20.3523 12.2148 20.5303 12.1064 20.7126 12.0023C21.1119 11.7725 21.5112 11.547 21.9149 11.3388C22.3229 11.1263 22.7309 10.9224 23.1345 10.7316C23.5469 10.5408 23.9592 10.3587 24.3715 10.1895C24.7882 10.0204 25.2049 9.86425 25.6216 9.7168C25.2179 9.85558 24.8099 10.003 24.4019 10.1548C23.9983 10.3066 23.5946 10.4627 23.1866 10.6232C22.7873 10.7837 22.3836 10.9485 21.9843 11.1219C21.5893 11.2911 21.1944 11.4646 20.7994 11.6467C20.7907 11.651 20.7777 11.6554 20.769 11.6597C20.7603 11.6641 20.7473 11.6684 20.7386 11.6727C20.7299 11.6771 20.7169 11.6814 20.7082 11.6857C20.6996 11.6901 20.6865 11.6944 20.6778 11.6987C20.3567 11.8462 20.0398 11.998 19.723 12.1498C19.4104 12.3016 18.7854 12.6182 18.7854 12.6182C16.4807 14.1361 10.7904 17.8311 6.8623 24.28L7.12273 24.9696Z" fill="#8E8E8E"/>
<path d="M19.8526 9.04083C19.8396 8.90639 19.7919 8.78496 19.7224 8.68087C19.653 8.57679 19.5575 8.49005 19.449 8.42934C19.3405 8.36428 19.2102 8.32091 19.0757 8.30357C18.9411 8.28622 18.7936 8.29056 18.646 8.32525L17.5956 8.56811V8.54209L17.244 8.62449L17.1312 7.01985C17.0921 6.47774 16.9315 6.00069 16.6798 5.61037C16.4324 5.22872 16.0982 4.92948 15.7032 4.72131C15.3212 4.51748 14.8785 4.40038 14.4054 4.3787C13.9453 4.35701 13.4505 4.43074 12.947 4.59988C12.4522 4.76468 11.9878 5.01188 11.5711 5.3198C11.1588 5.61904 10.7898 5.979 10.4773 6.37366C10.1648 6.76831 9.90873 7.19766 9.72643 7.6487C9.5398 8.09973 9.42695 8.57679 9.4009 9.05818L9.32712 10.4633L9.1101 10.5154V10.5371L8.26805 10.7322C8.17257 10.7539 8.07708 10.7973 7.99027 10.858C7.90346 10.9187 7.82533 10.9924 7.75589 11.0748C7.68644 11.1616 7.63001 11.257 7.59095 11.3567C7.54755 11.4608 7.5215 11.5692 7.51282 11.6777L6.93555 19.1154L7.56491 19.8266L7.70814 17.1551C7.72116 16.8776 7.78193 16.613 7.87308 16.3701C7.96423 16.1273 8.09444 15.9018 8.24635 15.7109C8.39827 15.5158 8.58056 15.3553 8.77588 15.2339C8.97554 15.1125 9.19256 15.0301 9.42261 14.9997L9.70473 14.965C9.58754 14.926 9.48337 14.8696 9.39222 14.7959C9.30107 14.7221 9.21861 14.6311 9.1535 14.5226C9.08839 14.4186 9.04065 14.2971 9.00593 14.167C8.97554 14.0369 8.95818 13.8981 8.96686 13.7507C8.97554 13.5599 9.01461 13.3734 9.07971 13.1999C9.14482 13.0264 9.23597 12.866 9.34882 12.7272C9.46167 12.5841 9.59188 12.4626 9.73512 12.3716C9.87835 12.2761 10.0389 12.2111 10.2082 12.1807C10.3775 12.1504 10.5381 12.159 10.6857 12.2024C10.8332 12.2458 10.9678 12.3238 11.0806 12.4279C11.1935 12.5364 11.289 12.6708 11.3498 12.8313C11.4149 12.9917 11.4496 13.1739 11.4496 13.3734C11.4496 13.5295 11.4279 13.6813 11.3845 13.8287C11.3411 13.9762 11.2846 14.115 11.2065 14.2451C11.1327 14.3752 11.0416 14.4923 10.9374 14.5964C10.8332 14.7005 10.7204 14.7872 10.5989 14.8566L10.8463 14.8262C11.0199 14.8045 11.1848 14.8132 11.3454 14.8436C11.506 14.8783 11.6579 14.9346 11.8012 15.017C11.9444 15.0994 12.0746 15.2079 12.1874 15.3336C12.2916 15.4507 12.3828 15.5852 12.4566 15.7326C12.5217 15.6849 12.5868 15.6329 12.6519 15.5852L12.6432 14.7091C12.6389 14.5053 12.6779 14.3058 12.743 14.1193C12.8081 13.9328 12.908 13.7637 13.0251 13.6162C13.1467 13.4688 13.2899 13.3387 13.4549 13.2389C13.6198 13.1392 13.7977 13.0698 13.9931 13.0438L14.2318 13.0091C14.132 12.9874 14.0408 12.944 13.9583 12.892C13.8759 12.8399 13.8021 12.7749 13.7457 12.6968C13.6849 12.6188 13.6371 12.532 13.6024 12.4366C13.5677 12.3412 13.5503 12.2371 13.546 12.1244C13.5417 11.9812 13.5677 11.8381 13.6154 11.708C13.6632 11.5736 13.7326 11.4521 13.8194 11.3437C13.9063 11.2353 14.0148 11.1399 14.132 11.0662C14.2491 10.9924 14.3837 10.936 14.5226 10.91C14.6658 10.884 14.8004 10.8883 14.9263 10.9144C15.0521 10.9447 15.1693 10.9968 15.2691 11.0748C15.369 11.1529 15.4514 11.2526 15.5122 11.3697C15.573 11.4868 15.612 11.6213 15.6207 11.7731C15.6251 11.8902 15.6164 12.0029 15.586 12.1113C15.56 12.2198 15.5122 12.3282 15.4558 12.4279C15.3994 12.5277 15.3299 12.6188 15.2474 12.6968C15.165 12.7749 15.0738 12.8443 14.974 12.9007L15.1823 12.8703C15.2908 12.8529 15.3994 12.8486 15.5035 12.8573C15.6077 12.866 15.7119 12.8833 15.8074 12.9137C15.9072 12.944 15.9983 12.9874 16.0895 13.0351C16.1763 13.0871 16.2588 13.1479 16.3369 13.2172C16.3152 13.2303 16.2891 13.2433 16.2674 13.2606C16.2978 13.2606 16.3239 13.2606 16.3542 13.2649C16.4584 13.2042 16.5626 13.1435 16.6668 13.0828L16.6407 12.6925C16.632 12.5364 16.6537 12.3846 16.7015 12.2414C16.7492 12.0983 16.823 11.9639 16.9185 11.8468C17.014 11.7297 17.1312 11.6299 17.2657 11.5475C17.4003 11.4695 17.5479 11.4131 17.7085 11.3827L17.9038 11.3524C17.8213 11.335 17.7432 11.309 17.6737 11.27C17.6043 11.231 17.5392 11.1832 17.4871 11.1269C17.435 11.0705 17.3916 11.0011 17.3569 10.9317C17.3265 10.858 17.3048 10.7799 17.2961 10.6932C17.2874 10.5804 17.3005 10.472 17.3352 10.3679C17.3699 10.2638 17.4263 10.1684 17.4958 10.0817C17.5652 9.99495 17.652 9.92122 17.7475 9.8605C17.8474 9.79979 17.9559 9.75642 18.0731 9.73473C18.1902 9.71305 18.3031 9.71305 18.4116 9.73473C18.5201 9.75642 18.6156 9.79545 18.7024 9.85617C18.7892 9.91255 18.8587 9.99061 18.9151 10.0773C18.9672 10.1684 19.0062 10.2682 19.0149 10.3809C19.0236 10.4677 19.0193 10.5544 18.9976 10.6411C18.9802 10.7235 18.9455 10.8059 18.9021 10.884C18.8587 10.9621 18.8022 11.0315 18.7371 11.0922C18.672 11.1529 18.5982 11.2093 18.5201 11.2526L18.6894 11.2223C18.7892 11.2049 18.8847 11.2006 18.9759 11.2049C19.0713 11.2093 19.1582 11.2266 19.245 11.2526C19.3318 11.2787 19.4142 11.3134 19.488 11.3567C19.5097 11.3697 19.5314 11.3871 19.5575 11.4001H19.5618C19.5965 11.3827 19.6269 11.3654 19.6616 11.3524C19.7311 11.3177 19.8005 11.283 19.8656 11.2526C19.9351 11.2179 20.0002 11.1876 20.0696 11.1529L19.8526 9.04083ZM10.6423 10.1771L10.69 8.71123C10.6987 8.40765 10.7681 8.10407 10.8853 7.8135C11.0025 7.52293 11.1631 7.24537 11.3671 6.99383C11.5668 6.74229 11.8055 6.51677 12.0703 6.32595C12.3394 6.13513 12.6345 5.98334 12.947 5.88793C13.2639 5.78818 13.572 5.75348 13.8585 5.77951C14.1493 5.80553 14.4141 5.88793 14.6441 6.02237C14.8785 6.16115 15.0695 6.35197 15.2127 6.59484C15.356 6.8377 15.4428 7.12827 15.4558 7.45788L15.5252 9.04517L10.6423 10.1771Z" fill="#8E8E8E"/>
<path d="M19.8526 9.04083C19.8396 8.90639 19.7919 8.78496 19.7224 8.68087C19.653 8.57679 19.5575 8.49005 19.449 8.42934C19.3405 8.36428 19.2102 8.32091 19.0757 8.30357C18.9411 8.28622 18.7936 8.29056 18.646 8.32525L17.5956 8.56811V8.54209L17.244 8.62449L17.1312 7.01985C17.0921 6.47774 16.9315 6.00069 16.6798 5.61037C16.4324 5.22872 16.0982 4.92948 15.7032 4.72131C15.3212 4.51748 14.8785 4.40038 14.4054 4.3787C13.9453 4.35701 13.4505 4.43074 12.947 4.59988C12.4522 4.76468 11.9878 5.01188 11.5711 5.3198C11.1588 5.61904 10.7898 5.979 10.4773 6.37366C10.1648 6.76831 9.90873 7.19766 9.72643 7.6487C9.5398 8.09973 9.42695 8.57679 9.4009 9.05818L9.32712 10.4633L9.1101 10.5154V10.5371L8.26805 10.7322C8.17257 10.7539 8.07708 10.7973 7.99027 10.858C7.90346 10.9187 7.82533 10.9924 7.75589 11.0748C7.68644 11.1616 7.63001 11.257 7.59095 11.3567C7.54755 11.4608 7.5215 11.5692 7.51282 11.6777L6.93555 19.1154L7.56491 19.8266L7.70814 17.1551C7.72116 16.8776 7.78193 16.613 7.87308 16.3701C7.96423 16.1273 8.09444 15.9018 8.24635 15.7109C8.39827 15.5158 8.58056 15.3553 8.77588 15.2339C8.97554 15.1125 9.19256 15.0301 9.42261 14.9997L9.70473 14.965C9.58754 14.926 9.48337 14.8696 9.39222 14.7959C9.30107 14.7221 9.21861 14.6311 9.1535 14.5226C9.08839 14.4186 9.04065 14.2971 9.00593 14.167C8.97554 14.0369 8.95818 13.8981 8.96686 13.7507C8.97554 13.5599 9.01461 13.3734 9.07971 13.1999C9.14482 13.0264 9.23597 12.866 9.34882 12.7272C9.46167 12.5841 9.59188 12.4626 9.73512 12.3716C9.87835 12.2761 10.0389 12.2111 10.2082 12.1807C10.3775 12.1504 10.5381 12.159 10.6857 12.2024C10.8332 12.2458 10.9678 12.3238 11.0806 12.4279C11.1935 12.5364 11.289 12.6708 11.3498 12.8313C11.4149 12.9917 11.4496 13.1739 11.4496 13.3734C11.4496 13.5295 11.4279 13.6813 11.3845 13.8287C11.3411 13.9762 11.2846 14.115 11.2065 14.2451C11.1327 14.3752 11.0416 14.4923 10.9374 14.5964C10.8332 14.7005 10.7204 14.7872 10.5989 14.8566L10.8463 14.8262C11.0199 14.8045 11.1848 14.8132 11.3454 14.8436C11.506 14.8783 11.6579 14.9346 11.8012 15.017C11.9444 15.0994 12.0746 15.2079 12.1874 15.3336C12.2916 15.4507 12.3828 15.5852 12.4566 15.7326C12.5217 15.6849 12.5868 15.6329 12.6519 15.5852L12.6432 14.7091C12.6389 14.5053 12.6779 14.3058 12.743 14.1193C12.8081 13.9328 12.908 13.7637 13.0251 13.6162C13.1467 13.4688 13.2899 13.3387 13.4549 13.2389C13.6198 13.1392 13.7977 13.0698 13.9931 13.0438L14.2318 13.0091C14.132 12.9874 14.0408 12.944 13.9583 12.892C13.8759 12.8399 13.8021 12.7749 13.7457 12.6968C13.6849 12.6188 13.6371 12.532 13.6024 12.4366C13.5677 12.3412 13.5503 12.2371 13.546 12.1244C13.5417 11.9812 13.5677 11.8381 13.6154 11.708C13.6632 11.5736 13.7326 11.4521 13.8194 11.3437C13.9063 11.2353 14.0148 11.1399 14.132 11.0662C14.2491 10.9924 14.3837 10.936 14.5226 10.91C14.6658 10.884 14.8004 10.8883 14.9263 10.9144C15.0521 10.9447 15.1693 10.9968 15.2691 11.0748C15.369 11.1529 15.4514 11.2526 15.5122 11.3697C15.573 11.4868 15.612 11.6213 15.6207 11.7731C15.6251 11.8902 15.6164 12.0029 15.586 12.1113C15.56 12.2198 15.5122 12.3282 15.4558 12.4279C15.3994 12.5277 15.3299 12.6188 15.2474 12.6968C15.165 12.7749 15.0738 12.8443 14.974 12.9007L15.1823 12.8703C15.2908 12.8529 15.3994 12.8486 15.5035 12.8573C15.6077 12.866 15.7119 12.8833 15.8074 12.9137C15.9072 12.944 15.9983 12.9874 16.0895 13.0351C16.1763 13.0871 16.2588 13.1479 16.3369 13.2172C16.3152 13.2303 16.2891 13.2433 16.2674 13.2606C16.2978 13.2606 16.3239 13.2606 16.3542 13.2649C16.4584 13.2042 16.5626 13.1435 16.6668 13.0828L16.6407 12.6925C16.632 12.5364 16.6537 12.3846 16.7015 12.2414C16.7492 12.0983 16.823 11.9639 16.9185 11.8468C17.014 11.7297 17.1312 11.6299 17.2657 11.5475C17.4003 11.4695 17.5479 11.4131 17.7085 11.3827L17.9038 11.3524C17.8213 11.335 17.7432 11.309 17.6737 11.27C17.6043 11.231 17.5392 11.1832 17.4871 11.1269C17.435 11.0705 17.3916 11.0011 17.3569 10.9317C17.3265 10.858 17.3048 10.7799 17.2961 10.6932C17.2874 10.5804 17.3005 10.472 17.3352 10.3679C17.3699 10.2638 17.4263 10.1684 17.4958 10.0817C17.5652 9.99495 17.652 9.92122 17.7475 9.8605C17.8474 9.79979 17.9559 9.75642 18.0731 9.73473C18.1902 9.71305 18.3031 9.71305 18.4116 9.73473C18.5201 9.75642 18.6156 9.79545 18.7024 9.85617C18.7892 9.91255 18.8587 9.99061 18.9151 10.0773C18.9672 10.1684 19.0062 10.2682 19.0149 10.3809C19.0236 10.4677 19.0193 10.5544 18.9976 10.6411C18.9802 10.7235 18.9455 10.8059 18.9021 10.884C18.8587 10.9621 18.8022 11.0315 18.7371 11.0922C18.672 11.1529 18.5982 11.2093 18.5201 11.2526L18.6894 11.2223C18.7892 11.2049 18.8847 11.2006 18.9759 11.2049C19.0713 11.2093 19.1582 11.2266 19.245 11.2526C19.3318 11.2787 19.4142 11.3134 19.488 11.3567C19.5097 11.3697 19.5314 11.3871 19.5575 11.4001H19.5618C19.5965 11.3827 19.6269 11.3654 19.6616 11.3524C19.7311 11.3177 19.8005 11.283 19.8656 11.2526C19.9351 11.2179 20.0002 11.1876 20.0696 11.1529L19.8526 9.04083ZM10.6423 10.1771L10.69 8.71123C10.6987 8.40765 10.7681 8.10407 10.8853 7.8135C11.0025 7.52293 11.1631 7.24537 11.3671 6.99383C11.5668 6.74229 11.8055 6.51677 12.0703 6.32595C12.3394 6.13513 12.6345 5.98334 12.947 5.88793C13.2639 5.78818 13.572 5.75348 13.8585 5.77951C14.1493 5.80553 14.4141 5.88793 14.6441 6.02237C14.8785 6.16115 15.0695 6.35197 15.2127 6.59484C15.356 6.8377 15.4428 7.12827 15.4558 7.45788L15.5252 9.04517L10.6423 10.1771Z" fill="#8E8E8E"/>
</svg>
