<svg width="30" height="30" viewBox="0 0 30 30" fill="none" xmlns="http://www.w3.org/2000/svg">
<path d="M24.9921 16.25H15.7229L21.896 22.4231C22.1319 22.659 22.5202 22.6782 22.7628 22.4496C24.2745 21.0254 25.3144 19.1055 25.6195 16.9472C25.6718 16.5777 25.3652 16.25 24.9921 16.25ZM24.3737 13.7187C24.0519 9.05224 20.3229 5.32329 15.6565 5.00141C15.3002 4.9768 15.0002 5.2772 15.0002 5.63423V14.375H23.7413C24.0983 14.375 24.3984 14.0749 24.3737 13.7187ZM13.1252 16.25V6.98073C13.1252 6.60768 12.7974 6.30104 12.4283 6.35338C7.77317 7.0112 4.21493 11.078 4.38055 15.9519C4.55087 20.9574 8.86068 25.0622 13.8685 24.9993C15.8373 24.9747 17.6565 24.3403 19.1522 23.2793C19.4608 23.0606 19.4811 22.6063 19.2135 22.3387L13.1252 16.25Z" fill="#8E8E8E"/>
</svg>
