<svg width="30" height="30" viewBox="0 0 30 30" fill="none" xmlns="http://www.w3.org/2000/svg">
<path d="M23.2416 20.9998V21.9958H6.25V20.9998L8.24995 18.9999V13.496C8.24623 12.7507 8.3721 12.0103 8.62194 11.3081C8.86152 10.6344 9.21461 10.0067 9.66591 9.45214C10.1211 8.90193 10.6612 8.42796 11.2659 8.04817C11.8795 7.65572 12.556 7.37159 13.2658 7.20819V6.50421C13.2613 6.30866 13.2965 6.11422 13.3694 5.9327C13.4423 5.75118 13.5513 5.58636 13.6898 5.44824C13.8267 5.30646 13.9908 5.19371 14.1722 5.1167C14.3536 5.03969 14.5487 5 14.7458 5C14.9429 5 15.1379 5.03969 15.3194 5.1167C15.5008 5.19371 15.6648 5.30646 15.8018 5.44824C15.9446 5.58431 16.0581 5.74822 16.1351 5.92983C16.2122 6.11145 16.2512 6.30693 16.2497 6.50421V7.20819C16.9596 7.37159 17.6361 7.65572 18.2497 8.04817C18.8544 8.42796 19.3945 8.90193 19.8497 9.45214C20.301 10.0067 20.654 10.6344 20.8936 11.3081C21.1435 12.0103 21.2693 12.7507 21.2656 13.496V18.9999L23.2416 20.9998ZM13.3378 24.4158C13.1491 24.232 12.9999 24.0116 12.8995 23.7681C12.7991 23.5246 12.7495 23.2632 12.7538 22.9998H16.7537C16.7537 23.5302 16.543 24.0389 16.168 24.414C15.7929 24.789 15.2842 24.9997 14.7538 24.9997C14.4904 25.0041 14.229 24.9545 13.9855 24.8541C13.742 24.7536 13.5216 24.6045 13.3378 24.4158Z" fill="#9CA0AC"/>
</svg>
