<svg width="192" height="40" viewBox="0 0 192 40" fill="none" xmlns="http://www.w3.org/2000/svg">
<mask id="mask0" mask-type="alpha" maskUnits="userSpaceOnUse" x="0" y="0" width="30" height="40">
<path d="M0 0.0917969H29.9556V39.7839H0V0.0917969Z" fill="white"/>
</mask>
<g mask="url(#mask0)">
<path fill-rule="evenodd" clip-rule="evenodd" d="M4.12371 15.7518C4.9008 14.1005 6.51363 12.9367 8.37113 12.9367C10.9874 12.9367 13.1088 15.1882 13.1088 17.9658V18.7401V26.9903C13.1088 27.9864 13.9162 28.7947 14.9132 28.7947C15.9102 28.7947 16.7184 27.9864 16.7184 26.9903V18.7401V17.9658C16.7184 15.1882 18.8399 12.9367 21.4561 12.9367C23.2916 12.9367 24.8266 13.9126 25.6128 15.5328C26.4632 17.1814 26.9425 19.0508 26.9425 21.0338C26.9425 27.6712 21.5615 33.0522 14.9233 33.0522C8.28591 33.0522 2.90493 27.6712 2.90493 21.0338C2.90493 19.1388 3.34296 17.3463 4.12371 15.7518ZM11.6884 3.99833H18.4376V6.60726C17.3269 6.34426 16.1686 6.20497 14.9782 6.20497C13.8474 6.20497 12.7469 6.33051 11.6884 6.56786V3.99833ZM29.9125 22.3351C29.9409 21.9548 29.9556 21.5699 29.9556 21.1823C29.9556 15.5887 26.8884 10.7117 22.345 8.13945V3.99833H27.2018V0.0917969H2.90493V3.99833H7.78098V8.04415C3.1441 10.5899 0 15.5191 0 21.1823C0 24.1834 0.883391 26.9784 2.40275 29.3216H2.40183C9.09049 40.7461 29.9556 39.7628 29.9556 39.7628V21.1823C29.9556 21.5699 29.9409 21.9548 29.9125 22.3351Z" fill="#1973AA"/>
</g>
<path fill-rule="evenodd" clip-rule="evenodd" d="M8.00722 25.3691C6.94331 25.3691 6.08008 24.5068 6.08008 23.4429V19.0874C6.08008 18.0234 6.94331 17.1611 8.00722 17.1611C9.07114 17.1611 9.93437 18.0234 9.93437 19.0874V23.4429C9.93437 24.5068 9.07114 25.3691 8.00722 25.3691Z" fill="#1973AA"/>
<path fill-rule="evenodd" clip-rule="evenodd" d="M21.8403 25.3691C20.7773 25.3691 19.9141 24.5068 19.9141 23.4429V19.0874C19.9141 18.0234 20.7773 17.1611 21.8403 17.1611C22.9042 17.1611 23.7674 18.0234 23.7674 19.0874V23.4429C23.7674 24.5068 22.9042 25.3691 21.8403 25.3691Z" fill="#1973AA"/>
<path fill-rule="evenodd" clip-rule="evenodd" d="M48.1758 36.0945H43.7406V18.5577H40.5186V14.5046H43.7406V5.31055H48.1758V14.5046H52.0558V18.5577H48.1758V36.0945Z" fill="black"/>
<path fill-rule="evenodd" clip-rule="evenodd" d="M59.5395 14.5195V24.6015C59.5395 30.4572 62.1384 32.016 65.43 32.016C69.1028 32.016 71.6311 29.66 71.6311 24.4632V14.5195H76.0664V36.0352H72.0124V32.882H71.9088C70.6964 34.9264 67.9244 36.0352 64.9443 36.0352C62.2419 36.0352 59.8868 35.1692 58.1888 33.6792C56.214 31.9812 55.0703 29.3136 55.0703 24.5667V14.5195H59.5395Z" fill="black"/>
<path fill-rule="evenodd" clip-rule="evenodd" d="M86.7373 36.0349H82.3021V18.5733H79.0801V14.5193H82.3021V5.31055H86.7373V14.5193H90.6173V18.5733H86.7373V36.0349Z" fill="black"/>
<path fill-rule="evenodd" clip-rule="evenodd" d="M115.562 36.0528V14.5508H119.72V16.6988H119.789C121.66 14.0312 124.709 13.9625 125.818 13.9268V18.5013C124.709 18.5701 123.6 18.8477 122.596 19.3673C121.175 20.1297 119.998 21.9304 119.998 25.3265V36.0876L115.562 36.0528Z" fill="black"/>
<path fill-rule="evenodd" clip-rule="evenodd" d="M109.095 25.315C109.095 28.9722 106.144 31.9477 102.515 31.9477C98.887 31.9477 95.9353 28.9722 95.9353 25.315C95.9353 21.6577 98.887 18.6822 102.515 18.6822C106.144 18.6822 109.095 21.6577 109.095 25.315ZM110.234 17.7108C109.236 16.7157 108.072 15.9331 106.774 15.386C105.424 14.816 103.992 14.5273 102.515 14.5273C101.039 14.5273 99.6064 14.816 98.2565 15.386C96.9589 15.9331 95.7951 16.7157 94.7972 17.7108C92.7582 19.7452 91.6348 22.4458 91.6348 25.315C91.6348 28.1842 92.7582 30.8847 94.7972 32.9191C95.7942 33.9143 96.9589 34.6969 98.2565 35.2449C99.6064 35.8139 101.039 36.1026 102.515 36.1026C103.992 36.1026 105.424 35.8139 106.774 35.2449C108.072 34.6969 109.236 33.9143 110.234 32.9191C112.273 30.8847 113.396 28.1842 113.396 25.315C113.396 22.4458 112.273 19.7452 110.234 17.7108Z" fill="black"/>
<path fill-rule="evenodd" clip-rule="evenodd" d="M141.378 33.965H151.412V36.0342H139.183V14.0859H141.378V33.965Z" fill="black"/>
<path fill-rule="evenodd" clip-rule="evenodd" d="M173.673 14.085V36.0341H171.479V17.4087L163.797 30.2646H163.483L155.801 17.4087V36.0341H153.606V14.085H156.299L163.64 26.3709L170.981 14.085H173.673Z" fill="black"/>
<path fill-rule="evenodd" clip-rule="evenodd" d="M184.333 36.4105C182.327 36.4105 180.607 35.9349 179.175 34.9837C177.743 34.0325 176.745 32.7211 176.181 31.0487L178.062 29.9509C178.459 31.3108 179.191 32.3711 180.257 33.1335C181.323 33.8968 182.692 34.2781 184.364 34.2781C185.994 34.2781 187.264 33.9179 188.173 33.1967C189.084 32.4755 189.539 31.5188 189.539 30.3275C189.539 29.1784 189.12 28.3106 188.284 27.725C187.448 27.1404 186.068 26.5337 184.145 25.9069C181.867 25.1537 180.361 24.5479 179.63 24.0879C177.958 23.0845 177.122 21.632 177.122 19.7296C177.122 17.8693 177.769 16.4013 179.065 15.3236C180.361 14.2478 181.96 13.709 183.863 13.709C185.576 13.709 187.062 14.1534 188.315 15.0414C189.57 15.9303 190.499 17.0639 191.106 18.4439L189.256 19.4785C188.252 17.0538 186.454 15.8414 183.863 15.8414C182.504 15.8414 181.407 16.1759 180.571 16.8448C179.733 17.5138 179.316 18.4439 179.316 19.6352C179.316 20.722 179.693 21.5376 180.445 22.081C181.198 22.6254 182.441 23.1789 184.176 23.7424C184.971 24.0146 185.54 24.2089 185.885 24.3234C186.23 24.438 186.732 24.6267 187.391 24.887C188.049 25.1491 188.534 25.3782 188.849 25.577C189.162 25.7759 189.543 26.0471 189.993 26.3926C190.442 26.7372 190.767 27.0817 190.965 27.4272C191.163 27.7718 191.34 28.1905 191.497 28.6808C191.655 29.1729 191.733 29.7007 191.733 30.2643C191.733 32.1255 191.054 33.6146 189.695 34.7326C188.336 35.8515 186.549 36.4105 184.333 36.4105Z" fill="black"/>
</svg>
