<svg fill="none" height="30" viewBox="0 0 30 30" width="30" xmlns="http://www.w3.org/2000/svg"><g fill="#8e8e8e"><path clip-rule="evenodd" d="m9.5 5.625c-1.10457 0-2 .89543-2 2v14.75c0 1.1046.89543 2 2 2h9.3065c1.1045 0 2-.8954 2-2v-1.5085c3.0365-.0887 5.4708-2.5782 5.4708-5.6362s-2.4343-5.54743-5.4708-5.63618v-1.96912c0-1.10457-.8955-2-2-2zm8.1172 14.367c-.3994-.254-.7646-.5568-1.0874-.9001h-6.114v.9001zm-1.9025-2.0121c-.1599-.2856-.2956-.5866-.4044-.9001h-5.1821v.9001zm-.7147-2.7496c0-.0544.0008-.1086.0023-.1626h-4.73v.9001h4.7755c-.0315-.2414-.0478-.4875-.0478-.7375zm.1799-1.4184c.0807-.3113.1872-.6121.3173-.9001h-5.369v.9001zm.8765-1.8683c.2358-.3281.506-.6299.8052-.9h-6.4458v.9zm-5.9282-3.05597h7.3676v.90008h-7.3676zm0 12.36017h6.2178v.9001h-6.2178zm15.2742-6.0762c0 2.5783-2.0901 4.6684-4.6683 4.6684-2.5783 0-4.6684-2.0901-4.6684-4.6684s2.0901-4.6684 4.6684-4.6684c2.5782 0 4.6683 2.0901 4.6683 4.6684z" fill-rule="evenodd"/><path d="m21.2699 16.3981c.0309.0651.0463.1284.0463.1901 0 .1131-.0463.209-.1387.2878-.0891.0788-.1919.1182-.3084.1182-.0788 0-.1507-.0206-.2158-.0617s-.1165-.1028-.1541-.185l-.2313-.519h-1.6649l-.2364.519c-.0376.0822-.0907.1439-.1593.185-.0651.0411-.137.0617-.2158.0617-.1165 0-.2227-.0394-.3186-.1182-.0925-.0788-.1387-.1747-.1387-.2878 0-.0617.0154-.125.0462-.1901l1.3566-2.7851c.0446-.0925.1096-.1628.1953-.2107.0891-.0514.1867-.0771.2929-.0771.1028 0 .1987.0257.2877.0771.0891.0479.1559.1182.2005.2107zm-2.3483-.8787h1.0277l-.5138-1.1459z"/><path d="m23.7064 15.0249c.0857 0 .1576.0291.2158.0873.0583.0583.0874.1302.0874.2158 0 .0857-.0291.1593-.0874.221-.0582.0582-.1301.0874-.2158.0874h-.6474v.6423c0 .0856-.0292.1576-.0874.2158-.0548.0582-.1268.0874-.2158.0874-.0857 0-.1576-.0292-.2158-.0874-.0583-.0582-.0874-.1302-.0874-.2158v-.6423h-.6475c-.0856 0-.1576-.0292-.2158-.0874-.0582-.0617-.0873-.1353-.0873-.221 0-.0856.0291-.1575.0873-.2158.0582-.0582.1302-.0873.2158-.0873h.6475v-.6475c0-.0856.0291-.1576.0874-.2158.0582-.0583.1301-.0874.2158-.0874.0856 0 .1576.0291.2158.0874.0582.0582.0874.1302.0874.2158v.6475z"/></g></svg>