<svg width="30" height="30" viewBox="0 0 30 30" fill="none" xmlns="http://www.w3.org/2000/svg">
<path fill-rule="evenodd" clip-rule="evenodd" d="M7.1356 7.83345C8.89617 5.87657 11.3276 4.67532 14.1081 4.38857C14.4765 4.34982 16.1013 4.4002 16.493 4.4622C18.8663 4.83032 20.875 5.83782 22.5231 7.4847C24.1907 9.15095 25.1989 11.1853 25.5518 13.6072C25.6487 14.2543 25.6487 15.7075 25.5557 16.3778C25.2299 18.699 24.2449 20.7256 22.6434 22.3763C21.3365 23.721 19.7466 24.6859 18.0093 25.1896C14.1624 26.3056 10.141 25.2439 7.35664 22.3763C5.76281 20.7333 4.78558 18.73 4.4482 16.3972C4.35126 15.7423 4.35126 14.2505 4.44433 13.6072C4.7817 11.3442 5.6426 9.48808 7.1356 7.83345ZM24.8111 12.3285C23.7408 8.43408 20.4795 5.54332 16.4775 4.9427C15.9927 4.86907 14.6743 4.81482 14.302 4.85357C13.2627 4.9582 12.6384 5.0822 11.8124 5.35345C9.22191 6.20595 7.08906 8.06208 5.88691 10.5072C5.42544 11.4488 5.13847 12.3207 4.97948 13.2856C4.13021 18.358 7.15499 23.2327 12.0877 24.7246C12.5918 24.8796 13.3596 25.0346 13.9026 25.0927C14.3873 25.147 15.6127 25.147 16.0974 25.0927C18.6763 24.8099 21.1038 23.5195 22.7636 21.551C24.9158 18.9896 25.6875 15.5215 24.8111 12.3285Z" fill="#9CA0AC"/>
<path fill-rule="evenodd" clip-rule="evenodd" d="M14.3408 5.91533C10.6723 6.18658 7.50787 8.64333 6.35614 12.1153C5.84425 13.6692 5.75894 15.4052 6.12346 17.0288C6.84863 20.2683 9.42356 22.9421 12.6306 23.783C13.5342 24.0194 13.9375 24.0659 15 24.0659C16.0625 24.0659 16.4658 24.0194 17.3694 23.783C19.4945 23.225 21.3947 21.8455 22.6317 19.9622C23.3802 18.823 23.8533 17.5248 24.0394 16.1066C24.117 15.5021 24.0976 14.1187 24.0006 13.5491C23.8378 12.6152 23.5818 11.8131 23.1669 10.9722C21.5343 7.65133 18.0286 5.64407 14.3408 5.91533ZM17.5206 7.81795C18.5677 8.00395 19.5061 8.82933 19.8784 9.89883C19.9792 10.1933 19.9986 10.3018 20.0141 10.7591C20.0297 11.2047 20.018 11.3365 19.9482 11.6116C19.7078 12.5803 19.0292 13.3825 18.1372 13.7545C17.8929 13.8591 17.6176 13.9405 17.6176 13.9133C17.6176 13.9056 17.6758 13.7777 17.7494 13.6343C18.2846 12.5726 18.2846 11.2706 17.7494 10.2127C17.3229 9.36021 16.4542 8.6162 15.5623 8.34108C15.5089 8.32329 15.4539 8.30551 15.407 8.29035C15.3517 8.27247 15.3076 8.25824 15.2908 8.25195C15.2094 8.22483 15.5894 8.03495 15.9695 7.91095C16.4581 7.75208 16.9583 7.72108 17.5206 7.81795ZM17.4625 11.4062C17.2531 10.2127 16.3573 9.24783 15.1551 8.92233C14.8837 8.8487 14.1469 8.80995 13.887 8.86033C12.6655 9.0812 11.7115 9.94146 11.3664 11.1272C11.2927 11.3907 11.2772 11.5225 11.2811 11.9797C11.2811 12.4757 11.2927 12.5532 11.4013 12.8787C11.8473 14.2195 12.9912 15.0603 14.3679 15.0603C14.8837 15.0603 15.2443 14.9867 15.667 14.7891C16.5318 14.3861 17.0941 13.7467 17.3849 12.8322C17.4935 12.4835 17.5323 11.7976 17.4625 11.4062ZM20.0025 14.2466C21.1698 14.6147 21.8794 15.506 22.1935 16.9978C22.275 17.397 22.3758 18.5013 22.337 18.6021C22.3137 18.6563 22.2207 18.6641 21.6312 18.6641C21.2589 18.6641 20.9526 18.6525 20.9526 18.6408C20.9526 18.4781 20.8091 17.7263 20.7199 17.428C20.336 16.1337 19.4984 15.1572 18.5211 14.8666C18.4281 14.8395 18.3544 14.8007 18.3544 14.7852C18.3544 14.7658 18.4785 14.6108 18.6336 14.4365L18.9128 14.1187L19.3239 14.142C19.5837 14.1536 19.828 14.1923 20.0025 14.2466ZM14.3989 17.211L13.3984 16.2228C12.3745 15.2084 12.2103 15.0225 12.0334 15.0093C11.9745 15.0049 11.9141 15.0197 11.8201 15.0293C9.8734 15.2386 8.69064 16.5367 8.46184 18.7106C8.41531 19.1368 8.43082 20.2063 8.48511 20.2877C8.50062 20.3187 10.2302 20.3303 14.395 20.3303H20.2856L20.3089 20.2102C20.3554 19.9777 20.3321 18.8385 20.274 18.451C20.115 17.4008 19.7388 16.6258 19.0796 16.002C18.525 15.475 17.7611 15.1262 16.9583 15.0255L16.6675 14.9906L15.8919 15.754C15.4654 16.1725 14.9535 16.6723 14.7557 16.8622L14.3989 17.211Z" fill="#9CA0AC"/>
</svg>
