<svg width="30" height="30" viewBox="0 0 30 30" fill="none" xmlns="http://www.w3.org/2000/svg">
<path fill-rule="evenodd" clip-rule="evenodd" d="M24.6611 5.625H5.32918C4.10559 5.625 3.11533 6.60113 3.12507 7.7858V18.1133C3.12507 19.3074 4.11543 20.2741 5.33883 20.2741H14.4951L18.68 22.5485L17.7285 20.2741H24.6611C25.8846 20.2741 26.875 19.3074 26.875 18.1133V7.7858C26.875 6.59162 25.8846 5.625 24.6611 5.625ZM5.72448 9.10485C5.47156 9.1216 5.28191 9.20535 5.15545 9.36463C5.02899 9.51538 4.97483 9.70816 5.01102 9.92607C5.54386 13.0686 6.04068 15.1888 6.5013 16.2866C6.68193 16.6888 6.88963 16.8816 7.13352 16.8648C7.51291 16.8397 7.96451 16.3536 8.49743 15.4066C8.77743 14.8703 9.21098 14.0658 9.79815 12.9932C10.2859 14.577 10.9543 15.767 11.7943 16.5632C12.0291 16.7895 12.273 16.89 12.5078 16.8732C12.7156 16.8565 12.8781 16.7559 12.9866 16.5716C13.0769 16.4123 13.113 16.2279 13.0949 16.0185C13.0407 15.2559 13.1221 14.1916 13.3478 12.8256C13.5826 11.4178 13.8717 10.4038 14.224 9.80037C14.2962 9.67466 14.3233 9.54896 14.3143 9.39813C14.2962 9.20535 14.2059 9.04614 14.0343 8.92044C13.8627 8.79473 13.6731 8.73611 13.4653 8.75278C13.2033 8.76961 13.0046 8.88694 12.8692 9.1216C12.3091 10.0685 11.9117 11.6021 11.6768 13.7306C11.3337 12.9261 11.0446 11.9791 10.8188 10.8646C10.7194 10.3702 10.4756 10.1356 10.0782 10.1607C9.80718 10.1775 9.58133 10.3451 9.40063 10.6635L7.42255 14.1581C7.09742 12.943 6.79033 11.4596 6.51033 9.70816C6.44714 9.27234 6.18519 9.07127 5.72448 9.10485ZM23.1209 9.70816C23.7622 9.83395 24.2409 10.1524 24.5661 10.6803C24.8551 11.1328 25.0086 11.6776 24.9996 12.3312C24.9996 13.1943 24.7648 13.982 24.2951 14.7027C23.7531 15.5408 23.0486 15.9598 22.1725 15.9598C22.0189 15.9598 21.8563 15.943 21.6847 15.9095C21.0435 15.7837 20.5647 15.4653 20.2396 14.9374C19.9505 14.4765 19.806 13.9234 19.806 13.2781C19.806 12.4149 20.0408 11.6272 20.5106 10.915C21.0615 10.0769 21.7661 9.65791 22.6331 9.65791C22.7868 9.65791 22.9492 9.67466 23.1209 9.70816ZM22.7415 14.2418C23.0757 13.9653 23.3016 13.5547 23.428 13.0016V13.0015C23.4731 12.8088 23.4912 12.5994 23.4912 12.3814C23.4912 12.1384 23.437 11.8786 23.3286 11.6188C23.1932 11.2921 23.0125 11.116 22.7957 11.0742C22.4706 11.0155 22.1545 11.183 21.8563 11.5937C21.6125 11.9121 21.459 12.2474 21.3776 12.591C21.3325 12.7837 21.3145 12.9932 21.3145 13.2027C21.3145 13.4457 21.3685 13.7055 21.477 13.9653C21.6124 14.2921 21.7931 14.4681 22.0099 14.51C22.2357 14.5518 22.4796 14.4597 22.7415 14.2418ZM17.4666 9.70816C18.0988 9.83395 18.5866 10.1524 18.9118 10.6803C19.2008 11.1328 19.3453 11.6776 19.3453 12.3312C19.3453 13.1943 19.1105 13.982 18.6408 14.7027C18.0988 15.5408 17.3943 15.9598 16.5182 15.9598C16.3646 15.9598 16.2021 15.943 16.0304 15.9095C15.3892 15.7837 14.9104 15.4653 14.5853 14.9374C14.2962 14.4765 14.1517 13.9234 14.1517 13.2781C14.1517 12.4149 14.3866 11.6272 14.8563 10.915C15.4072 10.0769 16.1117 9.65791 16.9788 9.65791C17.1325 9.65791 17.295 9.67466 17.4666 9.70816ZM17.0782 14.2418C17.4124 13.9653 17.6382 13.5547 17.7647 13.0016V13.0015C17.8098 12.8088 17.837 12.5994 17.8279 12.3814C17.8279 12.1384 17.7738 11.8786 17.6653 11.6188C17.5299 11.2921 17.3492 11.116 17.1324 11.0742C16.8072 11.0155 16.4911 11.183 16.1931 11.5937C15.9492 11.9121 15.7956 12.2474 15.7143 12.591C15.6692 12.7837 15.6511 12.9932 15.6511 13.2027C15.6511 13.4457 15.7053 13.7055 15.8136 13.9653C15.9492 14.2921 16.1298 14.4681 16.3465 14.51C16.5724 14.5518 16.8163 14.4597 17.0782 14.2418Z" fill="#8e8e8e"/>
</svg>
