<svg width="24" height="24" viewBox="0 0 24 24" fill="none" xmlns="http://www.w3.org/2000/svg">
<path d="M20.8236 8.1284C20.8236 8.1284 20.8524 8.4668 20.9136 9.104C20.9748 9.7412 21 10.4432 21 11.2064V12.6464C21 13.3952 20.9424 14.4176 20.8236 15.7064C20.8236 15.7424 20.7552 16.0088 20.6472 16.5128C20.5654 16.9705 20.3586 17.3966 20.0496 17.744C19.7916 18.0706 19.4437 18.3146 19.0488 18.446C18.7841 18.5269 18.5132 18.5859 18.2388 18.6224H18.12C17.5116 18.6692 16.8492 18.7124 16.1328 18.7448C15.4164 18.7772 14.7576 18.788 14.1492 18.7988C13.5408 18.8096 13.0296 18.7988 12.6192 18.7988H11.1792L9.48 18.7628C8.8356 18.7628 8.1912 18.734 7.5468 18.7124C6.9024 18.6908 6.4092 18.6584 6.0708 18.6224L5.9376 18.5972H5.8224C5.5254 18.5498 5.23193 18.4825 4.944 18.3956C4.55049 18.273 4.20383 18.0331 3.9504 17.708C3.64416 17.3667 3.43964 16.9464 3.36 16.4948C3.2304 15.9908 3.1764 15.728 3.1764 15.7064C3.1764 15.6848 3.1476 15.3644 3.0864 14.72C3.0252 14.0756 3 13.3772 3 12.6284V11.1884C3 10.4252 3.0288 9.7268 3.0864 9.086C3.144 8.4452 3.1764 8.1392 3.1764 8.1284C3.1764 8.1176 3.2304 7.8404 3.342 7.3364C3.42983 6.87963 3.64012 6.45532 3.9504 6.1088C4.20532 5.77497 4.55365 5.52438 4.9512 5.3888C5.22178 5.31518 5.49728 5.26104 5.7756 5.2268L5.88 5.2124C6.48 5.1668 7.1376 5.1308 7.8528 5.1044L9.84 5.0432C10.4556 5.0432 10.9668 5.018 11.3772 5.018L12 5L12.6336 5.018C13.044 5.018 13.5516 5.018 14.1636 5.0432L16.1472 5.1044C16.8672 5.1296 17.508 5.1656 18.1164 5.2124H18.2244C18.4969 5.2528 18.7663 5.31174 19.0308 5.3888C19.4329 5.52526 19.7867 5.77536 20.0496 6.1088C20.3565 6.45531 20.5609 6.88035 20.64 7.3364C20.7552 7.8404 20.8128 8.1068 20.8236 8.1284ZM15.8592 12.3656C15.8881 12.3179 15.9031 12.263 15.9024 12.2072C15.9014 12.1573 15.8865 12.1086 15.8592 12.0668C15.8296 12.0186 15.7904 11.9769 15.744 11.9444L10.0488 8.6C10.0034 8.57593 9.95263 8.56355 9.9012 8.564C9.84858 8.56311 9.79658 8.57549 9.75 8.6C9.70447 8.63345 9.66544 8.67493 9.6348 8.7224C9.60753 8.76423 9.59256 8.81288 9.5916 8.8628V15.3896C9.59093 15.4454 9.60589 15.5003 9.6348 15.548C9.66304 15.5926 9.70286 15.6287 9.75 15.6524C9.77278 15.664 9.79699 15.6724 9.822 15.6776C9.85063 15.6821 9.87977 15.6821 9.9084 15.6776C9.93107 15.6811 9.95413 15.6811 9.9768 15.6776C10.0018 15.6724 10.026 15.664 10.0488 15.6524L15.744 12.47C15.7919 12.4474 15.832 12.4111 15.8592 12.3656Z" fill="#757C8E"/>
</svg>
