<svg width="88" height="56" viewBox="0 0 88 56" fill="none" xmlns="http://www.w3.org/2000/svg">
<g clip-path="url(#clip0_41907_28447)">
<rect x="11.5244" y="7.88977" width="64.9512" height="40.2204" rx="2" fill="#FAFAFA"/>
<rect x="10.7512" y="7.11654" width="66.4976" height="41.7669" rx="2.77323" fill="#F1F1F1" stroke="#ECECED" stroke-width="1.54646"/>
<mask id="path-5-inside-1_41907_28447" fill="white">
<path d="M11.5244 7.88977H25.1737V48.1103H11.5244V7.88977Z"/>
</mask>
<path d="M11.5244 7.88977H25.1737V48.1103H11.5244V7.88977Z" fill="white"/>
<path d="M25.1737 7.88977H24.8644V48.1103H25.1737H25.483V7.88977H25.1737Z" fill="#E5E5E5" mask="url(#path-5-inside-1_41907_28447)"/>
<mask id="path-7-inside-2_41907_28447" fill="white">
<path d="M10.9082 7.82654H24.8777V14.1572H10.9082V7.82654Z"/>
</mask>
<path d="M10.9082 7.82654H24.8777V14.1572H10.9082V7.82654Z" fill="#FCFCFC"/>
<path d="M24.8777 14.1572V13.8479H10.9082V14.1572V14.4664H24.8777V14.1572Z" fill="#E5E5E5" mask="url(#path-7-inside-2_41907_28447)"/>
<mask id="path-9-inside-3_41907_28447" fill="white">
<path d="M25.1738 7.88977H79.1745V14.2204H25.1738V7.88977Z"/>
</mask>
<path d="M25.1738 7.88977H79.1745V14.2204H25.1738V7.88977Z" fill="#F1F1F1"/>
<path d="M79.1745 14.2204V13.9111H25.1738V14.2204V14.5297H79.1745V14.2204Z" fill="#E5E5E5" mask="url(#path-9-inside-3_41907_28447)"/>
<mask id="path-11-inside-4_41907_28447" fill="white">
<path d="M31.3701 19.4847C31.3701 18.6306 32.0625 17.9382 32.9166 17.9382H37.5559C38.41 17.9382 39.1024 18.6306 39.1024 19.4847V24.1271C39.1024 24.9812 38.41 25.6735 37.5559 25.6735H32.9166C32.0625 25.6735 31.3701 24.9812 31.3701 24.1271V19.4847Z"/>
</mask>
<path d="M31.3701 19.4847C31.3701 18.6306 32.0625 17.9382 32.9166 17.9382H37.5559C38.41 17.9382 39.1024 18.6306 39.1024 19.4847V24.1271C39.1024 24.9812 38.41 25.6735 37.5559 25.6735H32.9166C32.0625 25.6735 31.3701 24.9812 31.3701 24.1271V19.4847Z" fill="white"/>
<path d="M31.3701 17.9382H39.1024H31.3701M39.1024 24.1271C39.1024 25.152 38.2716 25.9828 37.2467 25.9828H33.2259C32.201 25.9828 31.3701 25.152 31.3701 24.1271V24.1271C31.3701 24.8103 32.0625 25.3642 32.9166 25.3642H37.5559C38.41 25.3642 39.1024 24.8103 39.1024 24.1271V24.1271ZM39.1024 24.1271M31.3701 25.6735V17.9382V25.6735M31.3701 25.6735M39.1024 17.9382V25.6735V17.9382" fill="#E5E5E5" mask="url(#path-11-inside-4_41907_28447)"/>
<mask id="path-13-inside-5_41907_28447" fill="white">
<path d="M31.3701 30.4122C31.3701 29.5581 32.0625 28.8657 32.9166 28.8657H67.0096C67.8637 28.8657 68.5561 29.5581 68.5561 30.4122V35.0546C68.5561 35.9087 67.8637 36.601 67.0096 36.601H32.9166C32.0625 36.601 31.3701 35.9087 31.3701 35.0546V30.4122Z"/>
</mask>
<path d="M31.3701 30.4122C31.3701 29.5581 32.0625 28.8657 32.9166 28.8657H67.0096C67.8637 28.8657 68.5561 29.5581 68.5561 30.4122V35.0546C68.5561 35.9087 67.8637 36.601 67.0096 36.601H32.9166C32.0625 36.601 31.3701 35.9087 31.3701 35.0546V30.4122Z" fill="white"/>
<path d="M31.3701 28.8657H68.5561H31.3701M68.5561 35.0546C68.5561 36.0795 67.7252 36.9103 66.7003 36.9103H33.2259C32.201 36.9103 31.3701 36.0795 31.3701 35.0546V35.0546C31.3701 35.7378 32.0625 36.2917 32.9166 36.2917H67.0096C67.8637 36.2917 68.5561 35.7378 68.5561 35.0546V35.0546ZM68.5561 35.0546M31.3701 36.601V28.8657V36.601M31.3701 36.601M68.5561 28.8657V36.601V28.8657" fill="#E5E5E5" mask="url(#path-13-inside-5_41907_28447)"/>
<mask id="path-15-inside-6_41907_28447" fill="white">
<path d="M31.3701 39.3305C31.3701 38.4764 32.0625 37.7841 32.9166 37.7841H67.0096C67.8637 37.7841 68.5561 38.4764 68.5561 39.3305V50.6422C68.5561 51.4963 67.8637 52.1886 67.0096 52.1886H32.9166C32.0625 52.1886 31.3701 51.4963 31.3701 50.6422V39.3305Z"/>
</mask>
<path d="M31.3701 39.3305C31.3701 38.4764 32.0625 37.7841 32.9166 37.7841H67.0096C67.8637 37.7841 68.5561 38.4764 68.5561 39.3305V50.6422C68.5561 51.4963 67.8637 52.1886 67.0096 52.1886H32.9166C32.0625 52.1886 31.3701 51.4963 31.3701 50.6422V39.3305Z" fill="white"/>
<path d="M31.3701 37.7841H68.5561H31.3701M68.5561 50.6422C68.5561 51.6671 67.7252 52.4979 66.7003 52.4979H33.2259C32.201 52.4979 31.3701 51.6671 31.3701 50.6422V50.6422C31.3701 51.3255 32.0625 51.8794 32.9166 51.8794H67.0096C67.8637 51.8794 68.5561 51.3255 68.5561 50.6422V50.6422ZM68.5561 50.6422M31.3701 52.1886V37.7841V52.1886M31.3701 52.1886M68.5561 37.7841V52.1886V37.7841" fill="#E5E5E5" mask="url(#path-15-inside-6_41907_28447)"/>
<mask id="path-17-inside-7_41907_28447" fill="white">
<path d="M41.1875 19.4847C41.1875 18.6306 41.8799 17.9382 42.734 17.9382H47.3733C48.2274 17.9382 48.9198 18.6306 48.9198 19.4847V24.1271C48.9198 24.9812 48.2274 25.6735 47.3733 25.6735H42.734C41.8799 25.6735 41.1875 24.9812 41.1875 24.1271V19.4847Z"/>
</mask>
<path d="M41.1875 19.4847C41.1875 18.6306 41.8799 17.9382 42.734 17.9382H47.3733C48.2274 17.9382 48.9198 18.6306 48.9198 19.4847V24.1271C48.9198 24.9812 48.2274 25.6735 47.3733 25.6735H42.734C41.8799 25.6735 41.1875 24.9812 41.1875 24.1271V19.4847Z" fill="white"/>
<path d="M41.1875 17.9382H48.9198H41.1875M48.9198 24.1271C48.9198 25.152 48.0889 25.9828 47.064 25.9828H43.0432C42.0183 25.9828 41.1875 25.152 41.1875 24.1271V24.1271C41.1875 24.8103 41.8799 25.3642 42.734 25.3642H47.3733C48.2274 25.3642 48.9198 24.8103 48.9198 24.1271V24.1271ZM48.9198 24.1271M41.1875 25.6735V17.9382V25.6735M41.1875 25.6735M48.9198 17.9382V25.6735V17.9382" fill="#E5E5E5" mask="url(#path-17-inside-7_41907_28447)"/>
<mask id="path-19-inside-8_41907_28447" fill="white">
<path d="M51.0059 19.4847C51.0059 18.6306 51.6982 17.9382 52.5523 17.9382H57.1917C58.0458 17.9382 58.7381 18.6306 58.7381 19.4847V24.1271C58.7381 24.9812 58.0458 25.6735 57.1917 25.6735H52.5523C51.6982 25.6735 51.0059 24.9812 51.0059 24.1271V19.4847Z"/>
</mask>
<path d="M51.0059 19.4847C51.0059 18.6306 51.6982 17.9382 52.5523 17.9382H57.1917C58.0458 17.9382 58.7381 18.6306 58.7381 19.4847V24.1271C58.7381 24.9812 58.0458 25.6735 57.1917 25.6735H52.5523C51.6982 25.6735 51.0059 24.9812 51.0059 24.1271V19.4847Z" fill="white"/>
<path d="M51.0059 17.9382H58.7381H51.0059M58.7381 24.1271C58.7381 25.152 57.9073 25.9828 56.8824 25.9828H52.8616C51.8367 25.9828 51.0059 25.152 51.0059 24.1271V24.1271C51.0059 24.8103 51.6982 25.3642 52.5523 25.3642H57.1917C58.0458 25.3642 58.7381 24.8103 58.7381 24.1271V24.1271ZM58.7381 24.1271M51.0059 25.6735V17.9382V25.6735M51.0059 25.6735M58.7381 17.9382V25.6735V17.9382" fill="#E5E5E5" mask="url(#path-19-inside-8_41907_28447)"/>
<mask id="path-21-inside-9_41907_28447" fill="white">
<path d="M60.8242 19.4847C60.8242 18.6306 61.5166 17.9382 62.3707 17.9382H67.01C67.8641 17.9382 68.5565 18.6306 68.5565 19.4847V24.1271C68.5565 24.9812 67.8641 25.6735 67.01 25.6735H62.3707C61.5166 25.6735 60.8242 24.9812 60.8242 24.1271V19.4847Z"/>
</mask>
<path d="M60.8242 19.4847C60.8242 18.6306 61.5166 17.9382 62.3707 17.9382H67.01C67.8641 17.9382 68.5565 18.6306 68.5565 19.4847V24.1271C68.5565 24.9812 67.8641 25.6735 67.01 25.6735H62.3707C61.5166 25.6735 60.8242 24.9812 60.8242 24.1271V19.4847Z" fill="white"/>
<path d="M60.8242 17.9382H68.5565H60.8242M68.5565 24.1271C68.5565 25.152 67.7257 25.9828 66.7008 25.9828H62.68C61.6551 25.9828 60.8242 25.152 60.8242 24.1271V24.1271C60.8242 24.8103 61.5166 25.3642 62.3707 25.3642H67.01C67.8641 25.3642 68.5565 24.8103 68.5565 24.1271V24.1271ZM68.5565 24.1271M60.8242 25.6735V17.9382V25.6735M60.8242 25.6735M68.5565 17.9382V25.6735V17.9382" fill="#E5E5E5" mask="url(#path-21-inside-9_41907_28447)"/>
<rect x="13.877" y="17.1329" width="7.5284" height="1.63839" rx="0.463937" fill="#E4EBFC"/>
<rect x="13.877" y="20.3177" width="7.5284" height="0.218226" rx="0.109113" fill="#C9C9C9"/>
<rect x="13.877" y="22.0824" width="7.5284" height="0.218226" rx="0.109113" fill="#C9C9C9"/>
<rect x="13.877" y="23.847" width="7.5284" height="0.218226" rx="0.109113" fill="#C9C9C9"/>
<rect x="13.877" y="25.6118" width="7.5284" height="0.218226" rx="0.109113" fill="#C9C9C9"/>
<g clip-path="url(#clip1_41907_28447)">
<rect x="13.877" y="10.6865" width="1.36976" height="1.36924" fill="#FE6262"/>
<circle cx="14.5615" cy="11.3711" r="0.441406" fill="#FCFCFC"/>
</g>
<rect x="15.8516" y="11.2621" width="5.21023" height="0.218226" rx="0.109113" fill="black"/>
</g>
<rect x="11.3244" y="7.68977" width="65.3512" height="40.6204" rx="2.2" stroke="#F1F1F1" stroke-width="0.4"/>
<defs>
<clipPath id="clip0_41907_28447">
<rect x="11.5244" y="7.88977" width="64.9512" height="40.2204" rx="2" fill="white"/>
</clipPath>
<clipPath id="clip1_41907_28447">
<rect x="13.877" y="10.6865" width="1.36976" height="1.36924" rx="0.1" fill="white"/>
</clipPath>
</defs>
</svg>
