<?xml version="1.0" encoding="utf-8"?>
<!-- Generator: Adobe Illustrator 23.0.2, SVG Export Plug-In . SVG Version: 6.00 Build 0)  -->
<svg version="1.1" id="Layer_1" xmlns="http://www.w3.org/2000/svg" xmlns:xlink="http://www.w3.org/1999/xlink" x="0px" y="0px"
	 viewBox="0 0 800 800" style="enable-background:new 0 0 800 800;" xml:space="preserve">
<style type="text/css">
	.st0{fill:#CCFFFF;}
	.st1{fill:#4088DA;}
	.st2{fill:#FABF4D;}
	.st3{fill:#BADBD6;}
	.st4{fill:#2E75DA;}
	.st5{fill:#263357;}
	.st6{fill:none;stroke:#263357;stroke-width:10;stroke-miterlimit:10;}
</style>
<g>
	<path class="st0" d="M533.1,715H92.3c-5.5,0-10-4.5-10-10V113.5c0-5.5,4.5-10,10-10h440.8c5.5,0,10,4.5,10,10V705
		C543.1,710.5,538.6,715,533.1,715z"/>
	<path class="st0" d="M639,254l37.6-92.5l36.7,97.6C713.3,259.1,665.6,284.3,639,254z"/>
	<rect x="634.2" y="268.9" class="st1" width="84.8" height="341.4"/>
	<rect x="639" y="610.3" class="st2" width="80" height="54"/>
	<rect x="650.9" y="664.3" class="st1" width="51.4" height="45.2"/>
	<path class="st3" d="M508.2,95.3v512.5c0,29.4-23.9,53.3-53.3,53.3H82.3l11.3,39.3h414.6v1.1h9.2c22.3,0,40.3-18.1,40.3-40.3l0,0
		V138.3c0-23.7-19.2-43-43-43H508.2z"/>
	<rect x="679" y="275.6" class="st4" width="34.3" height="325.5"/>
</g>
<path class="st5" d="M509.9,80.6h-391c-28.7,0-52.1,23.4-52.1,52.1v61c-30.8,0.7-55.7,25.9-55.7,56.9s24.9,56.2,55.7,56.9V318
	c-30.8,0.7-55.7,25.9-55.7,56.9c0,31,24.9,56.2,55.7,56.9v10.6C36,443,11.2,468.2,11.2,499.2c0,31,24.9,56.2,55.7,56.9v10.6
	c-30.8,0.7-55.7,25.9-55.7,56.9c0,31.2,25.2,56.5,56.2,56.9c3.6,25.3,25.3,44.8,51.5,44.8h391c28.7,0,52.1-23.4,52.1-52.1V132.7
	C562,103.9,538.6,80.6,509.9,80.6z M113.7,317.9H94.1v-97.1h19.6 M113.7,442.2H94.1v-97.1h19.6 M113.7,566.6H94.1v-97.1h19.6
	 M113.7,193.6H94.1v-60.9c0-13.7,11.1-24.8,24.8-24.8h391c13.7,0,24.8,11.1,24.8,24.8v523.9H94.1v-62.8h19.6 M38.4,250.5
	c0-15.9,12.6-28.9,28.4-29.6v59.2C51.1,279.5,38.4,266.5,38.4,250.5z M38.4,374.8c0-15.9,12.6-28.9,28.4-29.6v59.2
	C51.1,403.8,38.4,390.8,38.4,374.8z M38.4,499.2c0-15.9,12.6-28.9,28.4-29.6v59.2C51.1,528.1,38.4,515.1,38.4,499.2z M38.4,623.5
	c0-15.9,12.6-28.9,28.4-29.6v59.2C51.1,652.4,38.4,639.4,38.4,623.5z M509.9,697.9h-391c-9.8,0-18.2-5.8-22.3-14.1h435.5
	C528.2,692.1,519.7,697.9,509.9,697.9z M240.8,193.6h202.5c18,0,18,27.3,0,27.3H240.8C222.8,220.8,222.8,193.6,240.8,193.6z
	 M240.8,435h202.5c18,0,18,27.3,0,27.3H240.8C222.8,462.3,222.8,435,240.8,435z M240.8,561.7h202.5c18,0,18,27.3,0,27.3H240.8
	C222.8,589,222.8,561.7,240.8,561.7z M240.8,317.9h199.7c18,0,18,27.3,0,27.3H240.8C222.8,345.2,222.8,317.9,240.8,317.9z
	 M777.4,558.9L760,438.6c-1.8-12.3-17.7-16-24.8-5.7l-4.4,6.4c0-203,8.5-162-43.6-297.9v-18.7c0-7.5-6.1-13.6-13.6-13.6
	c-7.5,0-13.6,6.1-13.6,13.6v19.1c-25.4,76.2-41.2,97.3-41.2,154.7c0,2.2-0.1,310.9,0.3,313c-0.2,0.8-0.3,1.7-0.3,2.6v48.8
	c0,7.5,6.1,13.6,13.6,13.6h3v23c0,16,12.3,29,27.5,29h23.7c15.2,0,27.5-13,27.5-29v-23h3c7.5,0,13.6-6.1,13.6-13.6V620
	c13.1-1.7,25.2-8,33.9-18.1C775,590.1,779.6,574.4,777.4,558.9z M703.6,647.2h-57.5v-26.7c25.1,0,39,0,57.5,0V647.2z M674.1,183.3
	c11.5,30,17.3,44.6,21.7,59.6c-20.2,9.2-35,4.8-42.8,0.8C657.1,229.4,662.1,216.5,674.1,183.3z M701.8,270
	c2.4,17.9,1.8,3.8,1.8,323.3c-18.7,0-32.3,0-57.5,0c0-321.8-0.6-306,1.4-322.4C663.9,277.2,682.2,277.6,701.8,270z M686.7,699.2
	l-23.3,0.1c-1.1-0.7-0.6-23.6-0.6-24.9h24.1C686.9,701.1,686.7,699.2,686.7,699.2z M730.8,592.3V487.7l7.2-10.5l12.4,85.7
	C752.3,576,744.2,588.8,730.8,592.3z"/>
<path class="st5" d="M190.5,238.7h-41.5c-5.6,0-10.1-4.5-10.1-10.1v-41.5c0-5.6,4.5-10.1,10.1-10.1h41.5c5.6,0,10.1,4.5,10.1,10.1
	v41.5C200.6,234.2,196.1,238.7,190.5,238.7z"/>
<g>
	<path class="st2" d="M188.4,196.2l-1.1-1.1c-1.2-1.2-3.2-1.2-4.4,0l-18.7,18.7l-6.6-6.6c-1.2-1.2-3.2-1.2-4.4,0l-1.1,1.1
		c-1.2,1.2-1.2,3.2,0,4.4l9.9,9.9c1.2,1.2,3.2,1.2,4.4,0l22-22C189.6,199.4,189.6,197.4,188.4,196.2z"/>
</g>
<path class="st5" d="M190.5,362.4h-41.5c-5.6,0-10.1-4.5-10.1-10.1v-41.5c0-5.6,4.5-10.1,10.1-10.1h41.5c5.6,0,10.1,4.5,10.1,10.1
	v41.5C200.6,357.9,196.1,362.4,190.5,362.4z"/>
<path class="st6" d="M184.9,475.5h-30.2c-5.6,0-10.1-4.5-10.1-10.1v-30.2c0-5.6,4.5-10.1,10.1-10.1h30.2c5.6,0,10.1,4.5,10.1,10.1
	v30.2C195,471,190.5,475.5,184.9,475.5z"/>
<path class="st6" d="M184.9,603.1h-30.2c-5.6,0-10.1-4.5-10.1-10.1v-30.2c0-5.6,4.5-10.1,10.1-10.1h30.2c5.6,0,10.1,4.5,10.1,10.1
	V593C195,598.6,190.5,603.1,184.9,603.1z"/>
<g>
	<path class="st2" d="M186.4,318.6l-1.1-1.1c-1.2-1.2-3.2-1.2-4.4,0l-18.7,18.7l-6.6-6.6c-1.2-1.2-3.2-1.2-4.4,0l-1.1,1.1
		c-1.2,1.2-1.2,3.2,0,4.4l9.9,9.9c1.2,1.2,3.2,1.2,4.4,0l22-22C187.6,321.8,187.6,319.8,186.4,318.6z"/>
</g>
</svg>
