<?xml version="1.0" standalone="no"?>
<!DOCTYPE svg PUBLIC "-//W3C//DTD SVG 1.1//EN" "http://www.w3.org/Graphics/SVG/1.1/DTD/svg11.dtd" >
<svg xmlns="http://www.w3.org/2000/svg">
<metadata>Generated by IcoMoon</metadata>
<defs>
<font id="tutor-v2-icon-test" horiz-adv-x="1024">
<font-face units-per-em="1024" ascent="960" descent="-64" />
<missing-glyph horiz-adv-x="1024" />
<glyph unicode="&#x20;" horiz-adv-x="512" d="" />
<glyph unicode="&#xe900;" glyph-name="add-group-filled" d="M565.907 342.054c2.908-1.99 5.376-4.557 7.255-7.537 1.879-2.982 3.125-6.319 3.667-9.801 0.663-3.452 0.625-6.999-0.115-10.434-0.74-3.433-2.167-6.684-4.196-9.551-2.027-2.869-4.612-5.299-7.603-7.145-2.989-1.845-6.321-3.066-9.794-3.59-3.497-0.781-7.113-0.845-10.633-0.188s-6.869 2.020-9.847 4.011c-16.625 11.968-35.063 21.188-54.613 27.305-19.546 6.035-39.893 9.073-60.348 9.011-21.739 0.098-43.354-3.266-64.034-9.967-20.32-6.807-39.509-16.61-56.934-29.079-17.086-12.218-32.269-26.893-45.056-43.554-12.674-17.252-22.494-36.431-29.082-56.798-1.271-4.013-1.6-8.265-0.956-12.425 0.567-4.060 2.325-7.861 5.052-10.923 2.159-3.571 5.282-6.458 9.011-8.329 3.767-2.046 8.002-3.081 12.288-3.004h232.107c3.529 0.085 7.038-0.563 10.304-1.903s6.221-3.341 8.674-5.879c2.526-2.455 4.512-5.412 5.83-8.681 1.316-3.268 1.935-6.778 1.815-10.298 0.047-3.452-0.608-6.876-1.922-10.067s-3.262-6.084-5.724-8.501c-2.419-2.603-5.361-4.666-8.631-6.052-3.268-1.389-6.795-2.071-10.347-2.003h-232.107c-12.617-0.058-25.067 2.891-36.318 8.602-11.184 5.726-20.901 13.948-28.399 24.030-7.121 10.374-11.789 22.234-13.653 34.679-1.907 12.533-0.879 25.34 3.004 37.41 5.757 18.466 13.832 36.128 24.030 52.565 10.192 16.077 22.044 31.042 35.362 44.646 13.21 13.675 27.964 25.771 43.964 36.043 16.030 10.675 33.261 19.428 51.337 26.078-13.513 12.61-24.373 27.789-31.949 44.646-8.030 17.323-12.132 36.205-12.015 55.296-0.154 17.933 3.311 35.71 10.185 52.271 6.874 16.563 17.015 31.569 29.82 44.122 12.525 12.226 27.198 22.039 43.281 28.945 21.024 8.813 43.932 12.181 66.603 9.796 22.671-2.387 44.375-10.451 63.104-23.45 22.127-15.044 39.209-36.407 49.015-61.303 7.462 5.372 15.108 10.287 22.938 14.746 7.782 4.369 15.974 8.602 24.303 12.561 1.73 0.971 3.561 1.749 5.461 2.321l5.325 2.321c-13.747 12.8-24.877 28.149-32.768 45.193-7.895 17.126-11.994 35.757-12.015 54.613-0.111 18.112 3.514 36.053 10.65 52.702 7.004 16.13 16.958 30.807 29.355 43.281 12.412 12.669 27.153 22.822 43.415 29.901 16.659 7.026 34.556 10.645 52.634 10.645 18.080 0 35.977-3.62 52.634-10.645 32.681-13.93 58.707-39.957 72.636-72.636 7.398-17.291 11.11-35.936 10.899-54.743-0.211-18.805-4.341-37.361-12.128-54.483-7.757-16.964-18.91-32.158-32.768-44.646 9.333-3.612 18.451-7.761 27.307-12.425 8.937-4.691 17.598-9.888 25.941-15.565 5.668-4.356 9.472-10.699 10.65-17.749 0.719-3.373 0.736-6.859 0.055-10.24s-2.048-6.588-4.015-9.421c-4.066-5.907-10.295-9.978-17.34-11.332-3.484-0.661-7.068-0.591-10.524 0.207-3.456 0.8-6.707 2.31-9.547 4.435-16.757 11.746-35.162 20.947-54.613 27.307-44.294 14.116-92.115 12.427-135.305-4.779-24.013-9.841-45.967-24.107-64.715-42.052-1.212-17.308-5.852-34.202-13.653-49.698-7.625-15.123-17.888-28.764-30.31-40.277 9.359-3.55 18.479-7.699 27.307-12.425 9.225-4.845 18.161-10.223 26.761-16.111zM362.336 529.924c-7.782-7.627-13.965-16.73-18.185-26.775s-6.394-20.832-6.394-31.729c0-10.895 2.174-21.683 6.394-31.727 4.22-10.046 10.402-19.149 18.185-26.778 7.62-7.718 16.698-13.847 26.705-18.031s20.747-6.338 31.595-6.338c10.846 0 21.585 2.155 31.593 6.338 10.010 4.183 19.087 10.313 26.707 18.031 7.78 7.629 13.963 16.732 18.182 26.778 4.222 10.044 6.396 20.832 6.396 31.727 0 10.897-2.174 21.683-6.396 31.729-4.22 10.046-10.402 19.149-18.182 26.775-15.535 15.326-36.478 23.919-58.3 23.919s-42.767-8.593-58.3-23.919zM844.979 252.354c-2.49 2.481-5.451 4.437-8.713 5.749-3.26 1.314-6.75 1.958-10.266 1.897h-73.318v73.316c0.105 3.554-0.533 7.089-1.873 10.381-1.34 3.29-3.351 6.266-5.909 8.734-2.453 2.528-5.41 4.514-8.678 5.833-3.27 1.316-6.778 1.935-10.3 1.813-3.518 0.096-7.019-0.533-10.283-1.85-3.266-1.314-6.225-3.287-8.695-5.796-2.494-2.479-4.459-5.44-5.773-8.702-1.314-3.264-1.95-6.758-1.873-10.276v-73.316h-73.318c-5.156-0.239-10.142-1.933-14.374-4.887s-7.543-7.049-9.545-11.808c-1.999-4.759-2.611-9.988-1.76-15.081 0.849-5.092 3.127-9.839 6.566-13.69 2.413-2.609 5.353-4.676 8.623-6.065 3.273-1.389 6.801-2.067 10.353-1.99h73.318v-73.318c-0.015-3.447 0.653-6.863 1.965-10.050s3.243-6.082 5.681-8.518c2.43-2.59 5.374-4.642 8.64-6.029 3.268-1.387 6.79-2.078 10.338-2.027 3.554-0.077 7.083 0.602 10.355 1.99 3.27 1.389 6.21 3.456 8.623 6.065 2.483 2.411 4.45 5.297 5.788 8.489s2.016 6.62 1.995 10.080v73.318h73.318c3.55-0.051 7.072 0.64 10.338 2.027 3.268 1.387 6.21 3.439 8.64 6.029 4.971 4.956 7.77 11.684 7.782 18.705 0.064 3.514-0.58 7.004-1.894 10.266-1.314 3.26-3.268 6.223-5.751 8.713zM638.268 711.65c-7.887-7.603-14.118-16.755-18.302-26.882-4.181-10.127-6.225-21.009-6.001-31.964-0.164-10.865 1.907-21.647 6.089-31.678 4.181-10.029 10.381-19.091 18.214-26.622 7.625-7.74 16.71-13.886 26.731-18.082s20.774-6.357 31.637-6.357c10.865 0 21.619 2.161 31.639 6.357s19.106 10.342 26.729 18.082c7.836 7.531 14.035 16.593 18.217 26.622 4.181 10.031 6.253 20.813 6.086 31.678 0.149 10.863-1.929 21.641-6.11 31.669-4.179 10.027-10.372 19.091-18.193 26.63-7.622 7.74-16.708 13.888-26.729 18.082-10.020 4.196-20.774 6.357-31.639 6.357-10.863 0-21.617-2.161-31.637-6.357-10.020-4.194-19.106-10.342-26.731-18.082v0.546z" />
<glyph unicode="&#xe901;" glyph-name="add-image-filled" d="M149.333 659.974c0 83.226 66.831 150.692 149.269 150.692h410.001c82.438 0 149.269-67.467 149.269-150.692v-322.545c0-15.287-12.275-27.678-27.418-27.678s-27.415 12.39-27.415 27.678v322.545c0 52.653-42.281 95.336-94.436 95.336h-410.001c-52.156 0-94.436-42.683-94.436-95.336v-413.905c0-52.653 42.28-95.337 94.436-95.337h319.785c15.142 0 27.418-12.39 27.418-27.678 0-15.285-12.275-27.678-27.418-27.678h-319.785c-82.438 0-149.269 67.467-149.269 150.692v413.905zM700.905 132.271c0 15.287 12.275 27.68 27.415 27.68h204.262c15.142 0 27.418-12.393 27.418-27.68 0-15.285-12.275-27.678-27.418-27.678h-204.262c-15.14 0-27.415 12.393-27.415 27.678zM834.65 262.852c15.14 0 27.415-12.393 27.415-27.678v-207.497c0-15.285-12.275-27.678-27.415-27.678-15.142 0-27.418 12.393-27.418 27.678v207.497c0 15.285 12.275 27.678 27.418 27.678zM288.983 410.91c-3.657-3.823-5.7-8.93-5.7-14.242v-138.462c0-16.983 13.641-30.752 30.464-30.752h385.867c16.826 0 30.464 13.769 30.464 30.752v138.359c0 5.374-2.091 10.532-5.82 14.368l-112.137 115.238c-11.277 11.588-29.818 11.776-41.325 0.416l-142.793-140.947c-3.821-3.772-9.971-3.727-13.737 0.1l-54.69 55.567c-11.526 11.712-30.436 11.578-41.796-0.297l-28.798-30.101zM480.623 615.074c0-36.425-29.25-65.954-65.331-65.954s-65.329 29.53-65.329 65.954c0 36.425 29.248 65.952 65.329 65.952s65.331-29.527 65.331-65.952z" />
<glyph unicode="&#xe902;" glyph-name="add-member-filled" d="M260.495 621.551h-51.007c-5.119-0.075-10.199 0.9-14.928 2.863s-9.006 4.87-12.569 8.548c-7.254 7.313-11.324 17.197-11.324 27.497 0 10.302 4.070 20.183 11.324 27.497 3.563 3.678 7.84 6.588 12.569 8.548 4.729 1.963 9.809 2.938 14.928 2.863h51.007v51.146c-0.073 5.119 0.9 10.199 2.863 14.928s4.873 9.006 8.548 12.569c7.313 7.254 17.197 11.324 27.497 11.324 10.302 0 20.186-4.070 27.499-11.324 3.676-3.563 6.586-7.84 8.548-12.569s2.935-9.809 2.863-14.928v-51.007h52.243c10.272-0.109 20.083-4.275 27.296-11.59 7.211-7.315 11.238-17.184 11.2-27.456 0.002-10.249-4.041-20.083-11.249-27.366-7.209-7.285-16.998-11.433-27.247-11.541h-52.107v-52.107c-0.109-10.249-4.256-20.038-11.541-27.247-7.283-7.209-17.118-11.251-27.366-11.249-10.272-0.038-20.141 3.989-27.456 11.2-7.315 7.213-11.482 17.024-11.59 27.296v52.107zM517.594 274.537c16.459-1.329 32.535-5.662 47.433-12.785 32.006-15.226 57.233-41.775 70.805-74.517 7.168-17.425 10.588-36.162 10.035-54.995l-1.374-25.572h-444.354l1.375 27.497c-0.299 35.759 13.249 70.246 37.808 96.241 11.953 12.401 25.892 22.718 41.246 30.522 15.977 7.778 33.286 12.446 51.008 13.749-14.238 12.915-25.779 28.523-33.958 45.92-8.314 18.007-12.54 37.634-12.375 57.468-0.070 18.377 3.543 36.578 10.628 53.534s17.495 32.318 30.618 45.182c12.962 12.644 28.098 22.844 44.683 30.108 17.385 7.371 36.117 11.023 54.995 10.724 18.421 0.169 36.678-3.484 53.619-10.724 16.585-7.264 31.723-17.463 44.683-30.108 12.457-12.887 22.223-28.124 28.736-44.821 7.2-17.193 10.848-35.665 10.722-54.306 0.166-19.836-4.060-39.46-12.373-57.47-8.117-17.353-19.671-32.881-33.958-45.645zM816.762 392.638c13.31-13.135 23.71-28.919 30.522-46.334 7.046-17.472 10.596-36.156 10.449-54.993l-1.374-184.644h-166.908l1.374 23.509v1.376c0.467 24.753-4.215 49.331-13.747 72.179-9.363 22.577-22.889 43.191-39.872 60.768-7.285 6.601-14.573 12.924-22.272 18.699-7.486 5.769-15.548 10.743-24.060 14.848 5.845 12.346 10.451 25.242 13.747 38.496 3.196 13.515 4.766 27.36 4.676 41.246 0.006 18.381-2.822 36.653-8.388 54.17-5.265 17.135-12.949 33.431-22.822 48.395-9.826 14.703-21.833 27.823-35.607 38.91-13.372 11.575-28.561 20.866-44.958 27.497 1.242 17.73 5.911 35.053 13.747 51.008 7.665 15.439 17.999 29.402 30.522 41.244 19.505 18.545 44.023 30.959 70.515 35.699 26.494 4.742 53.794 1.604 78.519-9.026 16.553-6.857 31.595-16.9 44.271-29.559 12.753-12.742 23.012-27.757 30.246-44.271 7.26-17.417 10.908-36.126 10.724-54.993 0.139-19.548-3.927-38.895-11.923-56.734-7.994-17.839-19.729-33.749-34.409-46.656 16.459-1.329 32.535-5.662 47.433-12.785 14.703-7.021 28.094-16.508 39.595-28.047z" />
<glyph unicode="&#xe903;" glyph-name="angle-double-left-filled" d="M475.226 241.323c2.159-2.118 4.71-3.799 7.509-4.949 2.935-1.146 6.063-1.726 9.216-1.707 2.927 0.019 5.824 0.599 8.533 1.707 2.82 1.109 5.378 2.795 7.509 4.949l21.845 21.675c2.17 2.172 3.934 4.715 5.205 7.509 1.314 2.88 2.095 5.973 2.304 9.131 0.015 3.13-0.474 6.242-1.451 9.216-1.001 2.835-2.635 5.404-4.779 7.509l-152.064 151.637 151.637 151.635c2.345 2.020 4.137 4.604 5.205 7.509 0.977 2.974 1.466 6.086 1.451 9.216-0.209 3.157-0.99 6.253-2.304 9.131-1.271 2.795-3.036 5.34-5.205 7.509l-21.675 21.675c-2.131 2.155-4.689 3.84-7.509 4.949-2.709 1.107-5.606 1.687-8.533 1.707-3.211 0.041-6.398-0.538-9.387-1.707-2.799-1.15-5.35-2.831-7.509-4.949l-189.952-190.035c-2.406-2.099-4.378-4.651-5.803-7.509-1.406-2.839-2.138-5.965-2.138-9.131 0-3.168 0.732-6.293 2.138-9.131 1.425-2.859 3.396-5.41 5.803-7.509l189.952-190.037zM709.892 241.323c2.159-2.118 4.71-3.799 7.509-4.949 2.935-1.146 6.063-1.726 9.216-1.707 2.927 0.019 5.824 0.599 8.533 1.707 2.82 1.109 5.378 2.795 7.509 4.949l21.845 21.675c2.17 2.172 3.934 4.715 5.205 7.509 1.314 2.88 2.095 5.973 2.304 9.131 0.015 3.13-0.474 6.242-1.451 9.216-1.001 2.835-2.635 5.404-4.779 7.509l-152.064 151.637 151.637 151.635c2.345 2.020 4.137 4.604 5.205 7.509 0.977 2.974 1.466 6.086 1.451 9.216-0.209 3.157-0.99 6.253-2.304 9.131-1.271 2.795-3.036 5.34-5.205 7.509l-21.675 21.675c-2.131 2.155-4.689 3.84-7.509 4.949-2.709 1.107-5.606 1.687-8.533 1.707-3.211 0.041-6.398-0.538-9.387-1.707-2.799-1.15-5.35-2.831-7.509-4.949l-189.952-190.035c-2.406-2.099-4.378-4.651-5.803-7.509-1.406-2.839-2.138-5.965-2.138-9.131 0-3.168 0.732-6.293 2.138-9.131 1.425-2.859 3.396-5.41 5.803-7.509l189.952-190.037z" />
<glyph unicode="&#xe904;" glyph-name="angle-double-right-filled" d="M531.456 241.323c-2.161-2.118-4.71-3.799-7.509-4.949-2.935-1.146-6.063-1.726-9.216-1.707-2.927 0.019-5.824 0.599-8.533 1.707-2.82 1.109-5.378 2.795-7.509 4.949l-21.845 21.675c-2.172 2.172-3.934 4.715-5.205 7.509-1.314 2.88-2.095 5.973-2.304 9.131-0.017 3.13 0.474 6.242 1.451 9.216 1.001 2.835 2.635 5.404 4.779 7.509l152.064 151.637-151.637 151.635c-2.347 2.020-4.137 4.604-5.205 7.509-0.977 2.974-1.468 6.086-1.451 9.216 0.209 3.157 0.99 6.253 2.304 9.131 1.271 2.795 3.034 5.34 5.205 7.509l21.675 21.675c2.131 2.155 4.689 3.84 7.509 4.949 2.709 1.107 5.606 1.687 8.533 1.707 3.211 0.041 6.398-0.538 9.387-1.707 2.799-1.15 5.348-2.831 7.509-4.949l189.952-190.035c2.406-2.099 4.378-4.651 5.801-7.509 1.408-2.839 2.14-5.965 2.14-9.131 0-3.168-0.732-6.293-2.14-9.131-1.423-2.859-3.394-5.41-5.801-7.509l-189.952-190.037zM296.789 241.323c-2.161-2.118-4.71-3.799-7.509-4.949-2.935-1.146-6.063-1.726-9.216-1.707-2.927 0.019-5.824 0.599-8.533 1.707-2.82 1.109-5.378 2.795-7.509 4.949l-21.845 21.675c-2.172 2.172-3.934 4.715-5.205 7.509-1.314 2.88-2.095 5.973-2.304 9.131-0.017 3.13 0.474 6.242 1.451 9.216 1.001 2.835 2.635 5.404 4.779 7.509l152.064 151.637-151.637 151.635c-2.347 2.020-4.137 4.604-5.205 7.509-0.977 2.974-1.468 6.086-1.451 9.216 0.209 3.157 0.99 6.253 2.304 9.131 1.271 2.795 3.034 5.34 5.205 7.509l21.675 21.675c2.131 2.155 4.689 3.84 7.509 4.949 2.709 1.107 5.606 1.687 8.533 1.707 3.211 0.041 6.398-0.538 9.387-1.707 2.799-1.15 5.348-2.831 7.509-4.949l189.952-190.035c2.406-2.099 4.378-4.651 5.801-7.509 1.408-2.839 2.14-5.965 2.14-9.131 0-3.168-0.732-6.293-2.14-9.131-1.423-2.859-3.394-5.41-5.801-7.509l-189.952-190.037z" />
<glyph unicode="&#xe905;" glyph-name="angle-down-filled" d="M284.659 486.332c-2.381 2.336-4.237 5.152-5.444 8.26-1.306 3.217-1.943 6.667-1.877 10.138-0.023 3.223 0.617 6.419 1.877 9.387 1.184 3.121 3.042 5.941 5.444 8.26l23.842 24.030c2.387 2.387 5.186 4.329 8.26 5.726 3.166 1.446 6.571 2.304 10.044 2.534 3.443 0.017 6.867-0.521 10.138-1.596 3.089-1.161 5.901-2.95 8.26-5.257l166.799-167.268 166.799 166.799c2.246 2.551 5.082 4.516 8.26 5.726 3.27 1.075 6.694 1.613 10.138 1.596 3.471-0.241 6.871-1.101 10.044-2.534 3.066-1.414 5.86-3.351 8.26-5.726l23.842-23.842c2.37-2.345 4.224-5.158 5.444-8.26 1.269-3.196 1.907-6.605 1.877-10.044-0.043-3.217-0.678-6.4-1.877-9.387-1.242-3.091-3.093-5.901-5.444-8.26l-208.57-209.227c-2.17-2.861-5.007-5.148-8.26-6.665-3.155-1.419-6.586-2.125-10.044-2.065-3.49-0.060-6.942 0.747-10.044 2.347-3.145 1.568-5.952 3.735-8.26 6.383l-209.508 208.945z" />
<glyph unicode="&#xe906;" glyph-name="angle-left-filled" d="M581.901 654.677c2.146 2.138 4.7 3.821 7.509 4.949 2.938 1.146 6.065 1.726 9.216 1.707 2.927-0.028 5.822-0.608 8.533-1.707 2.82-1.109 5.378-2.795 7.509-4.949l21.675-21.675c2.172-2.172 3.936-4.715 5.205-7.509 1.316-2.88 2.097-5.973 2.304-9.131 0.017-3.13-0.474-6.242-1.451-9.216-1.033-2.818-2.662-5.38-4.779-7.509l-151.979-151.637 151.723-151.637c2.319-2.042 4.107-4.621 5.205-7.509 0.977-2.974 1.468-6.084 1.451-9.216-0.207-3.157-0.988-6.251-2.304-9.131-1.269-2.795-3.034-5.338-5.205-7.509l-21.675-21.675c-2.131-2.155-4.689-3.84-7.509-4.949-2.903-1.154-6.005-1.732-9.131-1.707-2.925 0.038-5.818 0.617-8.533 1.707-2.81 1.129-5.363 2.812-7.509 4.949l-190.206 189.611c-2.601 1.973-4.681 4.55-6.059 7.509-1.355 2.999-1.997 6.27-1.877 9.557-0.041 3.162 0.659 6.289 2.048 9.131 1.455 2.863 3.454 5.414 5.888 7.509l189.95 190.037z" />
<glyph unicode="&#xe907;" glyph-name="angle-right-filled" d="M446.123 241.323c-2.161-2.118-4.71-3.799-7.509-4.949-2.935-1.146-6.063-1.726-9.216-1.707-2.927 0.019-5.824 0.599-8.533 1.707-2.82 1.109-5.378 2.795-7.509 4.949l-21.845 21.675c-2.172 2.172-3.934 4.715-5.205 7.509-1.314 2.88-2.095 5.973-2.304 9.131-0.017 3.13 0.474 6.242 1.451 9.216 1.001 2.835 2.635 5.404 4.779 7.509l152.064 151.637-151.637 151.635c-2.347 2.020-4.137 4.604-5.205 7.509-0.977 2.974-1.468 6.086-1.451 9.216 0.209 3.157 0.99 6.253 2.304 9.131 1.271 2.795 3.034 5.34 5.205 7.509l21.675 21.675c2.131 2.155 4.689 3.84 7.509 4.949 2.709 1.107 5.606 1.687 8.533 1.707 3.211 0.041 6.398-0.538 9.387-1.707 2.799-1.15 5.348-2.831 7.509-4.949l189.952-190.035c2.406-2.099 4.378-4.651 5.801-7.509 1.408-2.839 2.14-5.965 2.14-9.131 0-3.168-0.732-6.293-2.14-9.131-1.423-2.859-3.394-5.41-5.801-7.509l-189.952-190.037z" />
<glyph unicode="&#xe908;" glyph-name="angle-up-filled" d="M739.345 379.657c2.351-2.359 4.203-5.169 5.444-8.26 1.261-3.23 1.899-6.671 1.877-10.138-0.032-3.219-0.668-6.404-1.877-9.387-1.22-3.102-3.074-5.916-5.444-8.26l-23.842-23.842c-4.996-5.015-11.699-7.964-18.773-8.26-3.443-0.017-6.867 0.521-10.138 1.596-3.1 1.137-5.918 2.929-8.26 5.257l-166.33 167.174-166.799-166.893c-2.263-2.532-5.094-4.493-8.26-5.726-3.27-1.075-6.694-1.613-10.135-1.596-3.475 0.23-6.878 1.088-10.044 2.534-3.076 1.397-5.873 3.339-8.26 5.726l-23.842 23.842c-2.402 2.319-4.262 5.139-5.444 8.26-1.314 3.181-1.954 6.603-1.877 10.044-0.002 3.221 0.636 6.413 1.877 9.387 1.207 3.108 3.063 5.924 5.444 8.26l209.037 209.225c2.172 2.861 5.007 5.15 8.26 6.665 3.155 1.421 6.586 2.127 10.044 2.065 3.479 0.045 6.918-0.725 10.044-2.253 3.317-1.547 6.287-3.75 8.73-6.477l208.57-208.943z" />
<glyph unicode="&#xe909;" glyph-name="assesment-filled" d="M866.991 519.622c-2.628-3.821-6.261-6.839-10.498-8.723l-563.119-319.776c-4.128-2.332-8.629-3.934-13.306-4.73-4.879-0.981-9.905-0.981-14.784 0-4.531 0.964-8.749 3.049-12.271 6.061-3.735 3.038-6.594 7.019-8.277 11.531l-90.626 153.901c-2.408 3.974-3.968 8.403-4.583 13.009-0.455 4.61-0.105 9.261 1.035 13.749 0.814 4.614 2.799 8.941 5.766 12.567 3.234 3.91 7.139 7.215 11.532 9.758l77.912 44.35 68.597-114.869c1.242-2.061 2.967-3.785 5.026-5.028 1.207-0.348 2.487-0.348 3.695 0l3.55 1.037 14.782 8.721c1.039 0.542 1.986 1.239 2.81 2.069 0.879 0.875 1.626 1.871 2.219 2.957 0.354 1.156 0.354 2.394 0 3.55-0.094 0.832-0.459 1.611-1.035 2.217l-67.119 115.61 63.422 34.594 31.637-52.629c0.642-1.056 1.385-2.046 2.219-2.957 0.875-0.836 1.871-1.534 2.957-2.069 1.244-0.439 2.601-0.439 3.842 0l3.994 1.478 14.784 8.574 2.957 1.775c0.506 0.672 0.905 1.421 1.182 2.217 0.442 1.193 0.442 2.505 0 3.697-0.333 0.791-0.838 1.498-1.478 2.069l-31.637 54.257 63.422 34.594 67.119-115.462c0.834-0.924 1.837-1.677 2.957-2.219l2.81-1.478c1.052-0.371 2.199-0.371 3.253 0 1.116 0.235 2.206 0.582 3.251 1.035l14.784 7.985 2.81 2.957c0.431 0.335 0.787 0.759 1.043 1.244 0.254 0.484 0.403 1.018 0.435 1.564 0.066 1.084 0.066 2.17 0 3.253-0.239 1.135-0.638 2.229-1.184 3.253l-68.448 115.462 62.684 34.741 31.785-52.779 3.253-2.81c0.988-0.87 2.080-1.615 3.251-2.217 0.514-0.22 1.069-0.333 1.628-0.333s1.111 0.113 1.626 0.333l3.253 1.478 14.784 8.574 2.807 1.478c1.035 0 1.478 1.478 1.478 2.957s0 2.069 0 3.548c-0.26 1.271-0.657 2.511-1.182 3.697l-31.49 54.108 62.831 34.596 68.597-116.203c0.457-0.977 1.242-1.762 2.219-2.217l2.81-1.331c1.197-0.418 2.498-0.418 3.695 0l3.548 1.035 14.784 7.983 2.81 2.957c0.917 0.781 1.67 1.737 2.217 2.81 0.373 1.052 0.373 2.199 0 3.251-0.164 1.135-0.514 2.234-1.035 3.253l-66.379 115.759 77.911 44.352c4.034 2.336 8.431 3.985 13.009 4.877 4.542 0.879 9.207 0.879 13.749 0 4.732-0.866 9.188-2.842 13.009-5.764 3.915-2.933 6.893-6.94 8.576-11.533l90.33-153.751c1.922-0.887 3.104-3.401 3.548-7.245 0.407-4.393-0.096-8.821-1.478-13.009-1.267-4.879-3.315-9.523-6.061-13.749z" />
<glyph unicode="&#xe90a;" glyph-name="assignment-filled" d="M691.614 655.204c0.945-2.21 1.5-4.567 1.638-6.965v-521.63c-0.139-5.246-2.283-10.238-5.995-13.948-3.71-3.712-8.702-5.856-13.948-5.995h-482.975c-2.563 0.034-5.093 0.585-7.44 1.617s-4.461 2.526-6.219 4.393c-1.866 1.758-3.36 3.872-4.392 6.219s-1.583 4.877-1.617 7.441v643.329c0.035 2.563 0.585 5.093 1.617 7.44s2.526 4.461 4.392 6.219c1.758 1.866 3.873 3.36 6.219 4.392s4.876 1.583 7.44 1.617h362.505c2.398-0.139 4.755-0.694 6.965-1.639 2.605-0.95 4.977-2.439 6.965-4.371l120.062-121.427c2.048-1.869 3.676-4.149 4.781-6.692zM404.779 634.17c3.721 3.586 5.877 8.493 6.010 13.658-0.034 2.564-0.585 5.094-1.617 7.441s-2.526 4.461-4.393 6.219c-1.754 1.873-3.868 3.371-6.214 4.403s-4.881 1.579-7.445 1.606c-2.569-0.002-5.107-0.538-7.458-1.572s-4.463-2.545-6.199-4.437l-66.11-65.971-25.95 25.952c-1.754 1.871-3.868 3.369-6.214 4.401-2.349 1.035-4.881 1.581-7.445 1.609-2.569-0.004-5.109-0.54-7.46-1.574s-4.461-2.545-6.199-4.435c-1.865-1.758-3.36-3.874-4.39-6.221-1.033-2.347-1.583-4.875-1.619-7.439 0.132-5.165 2.291-10.071 6.010-13.66l40.021-40.019c1.643-2.080 3.812-3.682 6.283-4.644 4.986-1.818 10.451-1.818 15.435 0 2.451 0.994 4.612 2.592 6.283 4.644l78.675 80.041zM404.779 474.089c1.892 1.822 3.396 4.006 4.425 6.423 1.028 2.419 1.557 5.018 1.557 7.646 0 2.626-0.529 5.227-1.557 7.644s-2.532 4.602-4.425 6.423c-1.775 1.835-3.895 3.3-6.24 4.307-2.345 1.009-4.866 1.542-7.42 1.566-2.554-0.009-5.079-0.533-7.428-1.542-2.347-1.011-4.465-2.483-6.229-4.331l-66.11-66.108-26.908 25.679c-1.773 1.835-3.893 3.298-6.24 4.307-2.345 1.009-4.866 1.54-7.418 1.566-2.556-0.011-5.082-0.535-7.428-1.545s-4.467-2.481-6.231-4.329c-3.663-3.561-5.786-8.414-5.914-13.521-0.128-5.105 1.749-10.059 5.231-13.798l40.021-40.975c1.643-2.080 3.812-3.684 6.283-4.644 5.013-1.638 10.419-1.638 15.435 0 2.451 0.994 4.612 2.592 6.283 4.644l80.314 80.587zM404.779 314.144c1.867 1.758 3.36 3.872 4.393 6.219s1.583 4.877 1.617 7.439c-0.132 5.167-2.289 10.074-6.010 13.66-1.766 1.854-3.885 3.339-6.229 4.371s-4.868 1.589-7.43 1.638c-2.562-0.034-5.092-0.585-7.439-1.617s-4.461-2.526-6.219-4.393l-67.066-65.425-25.952 26.089c-1.766 1.854-3.883 3.339-6.227 4.371-2.345 1.030-4.87 1.587-7.43 1.638-2.564-0.036-5.094-0.587-7.441-1.617-2.347-1.033-4.461-2.528-6.219-4.393-3.718-3.588-5.877-8.495-6.010-13.66 0.036-2.562 0.585-5.092 1.617-7.439s2.526-4.463 4.393-6.219l40.021-40.021c1.577-2.178 3.763-3.84 6.283-4.781 5.013-1.638 10.419-1.638 15.435 0 2.485 0.998 4.657 2.652 6.283 4.781l79.631 79.358zM607.475 554.129c1.867 1.758 3.36 3.872 4.393 6.219s1.583 4.877 1.617 7.439c-0.030 5.271-2.093 10.327-5.756 14.118s-8.646 6.022-13.914 6.234h-122.929c-5.244-0.137-10.238-2.283-13.948-5.993s-5.856-8.704-5.993-13.948c0.102-5.269 2.234-10.298 5.946-14.035 3.714-3.74 8.727-5.905 13.995-6.044h122.929c2.564 0.034 5.094 0.585 7.441 1.617s4.461 2.526 6.219 4.393zM607.475 393.502c2.735 2.782 4.602 6.3 5.37 10.123 0.768 3.825 0.407 7.791-1.043 11.413-1.449 3.622-3.921 6.743-7.115 8.983s-6.972 3.499-10.871 3.627h-122.929c-5.022-0.414-9.702-2.703-13.116-6.411-3.413-3.706-5.308-8.561-5.308-13.6 0-5.037 1.894-9.892 5.308-13.6 3.413-3.706 8.094-5.995 13.116-6.409h122.929c2.556 0.009 5.082 0.533 7.428 1.542s4.467 2.483 6.231 4.331zM607.475 233.557c1.892 1.737 3.403 3.849 4.437 6.199s1.57 4.89 1.572 7.458c0.111 5.365-1.886 10.56-5.564 14.468s-8.742 6.217-14.106 6.43h-122.929c-5.267-0.139-10.281-2.304-13.995-6.042-3.712-3.74-5.843-8.768-5.946-14.037 0.137-5.244 2.283-10.236 5.993-13.948 3.71-3.71 8.704-5.854 13.948-5.993h122.929c2.569 0.002 5.109 0.538 7.46 1.572s4.461 2.545 6.199 4.437v-0.546zM625.231 668.179l-52.041 52.041v-52.041h52.041zM835.714 650.56c5.664-5.487 10.15-12.073 13.18-19.354s4.54-15.104 4.439-22.989v-100.119h-120.060v100.119c-0.006 11.87 3.514 23.475 10.11 33.344 6.598 9.869 15.977 17.559 26.946 22.093 10.972 4.535 23.040 5.711 34.679 3.379 11.639-2.33 22.325-8.064 30.705-16.474zM733.274 308.134h120.060v159.945h-120.060v-159.945zM853.333 268.113v-20.079c0.211-1.585 0.211-3.194 0-4.779-0.352-1.444-0.809-2.859-1.365-4.235l-40.021-80.041c-1.63-3.379-4.179-6.229-7.356-8.224-3.179-1.997-6.854-3.055-10.605-3.055-3.753 0-7.428 1.058-10.605 3.055-3.177 1.995-5.726 4.845-7.356 8.224l-40.021 80.041c-0.557 1.376-1.013 2.79-1.365 4.235-0.177 1.451-0.177 2.918 0 4.369v20.489h118.694zM813.314 608.218c-0.036 2.564-0.587 5.094-1.619 7.439-1.033 2.347-2.526 4.463-4.393 6.221-1.798 1.905-3.97 3.422-6.377 4.461-2.409 1.037-5.001 1.572-7.622 1.572s-5.216-0.535-7.622-1.572c-2.409-1.039-4.578-2.556-6.379-4.461-1.867-1.758-3.36-3.874-4.393-6.221-1.033-2.345-1.583-4.875-1.617-7.439v-20.079h40.021v20.079z" />
<glyph unicode="&#xe90b;" glyph-name="attach-filled" d="M807.119 534.908c4.77-5.079 7.424-11.785 7.424-18.752s-2.654-13.673-7.424-18.752l-319.996-322.556c-15.002-15.315-33.116-27.232-53.12-34.944-19.249-7.904-39.863-11.949-60.672-11.904-20.796 0.075-41.387 4.115-60.67 11.904-19.857 7.633-37.779 19.565-52.48 34.944-15.477 14.867-27.418 33.020-34.944 53.12-15.872 38.447-15.872 81.615 0 120.062 7.712 20.004 19.629 38.118 34.944 53.12l329.98 331.9c22.519 22.385 52.983 34.95 84.736 34.95s62.214-12.565 84.734-34.95c11.477-10.972 20.561-24.194 26.686-38.842 6.123-14.65 9.152-30.404 8.898-46.278 0.201-15.81-2.854-31.492-8.975-46.069-6.123-14.577-15.181-27.74-26.609-38.665l-273.148-273.278c-7.364-7.65-16.218-13.709-26.014-17.803-9.796-4.096-20.329-6.14-30.946-6.005-10.509-0.166-20.934 1.865-30.611 5.965s-18.389 10.178-25.581 17.843c-7.601 7.132-13.641 15.761-17.739 25.344-4.098 9.585-6.163 19.913-6.067 30.336-0.171 10.603 1.856 21.126 5.954 30.908 4.096 9.781 10.176 18.607 17.852 25.924l131.84 132.478c5.077 4.77 11.785 7.424 18.752 7.424s13.673-2.654 18.75-7.424c2.579-2.464 4.636-5.423 6.042-8.7 1.408-3.279 2.14-6.805 2.15-10.372 0.034-3.479-0.681-6.925-2.095-10.106-1.412-3.179-3.492-6.018-6.097-8.326l-131.838-132.478c-2.426-2.413-4.343-5.286-5.641-8.452s-1.948-6.558-1.911-9.98c-0.126-3.524 0.478-7.038 1.773-10.317 1.295-3.281 3.253-6.257 5.754-8.747 2.498-2.487 5.487-4.431 8.772-5.711 3.287-1.278 6.801-1.865 10.325-1.722 3.422-0.036 6.816 0.612 9.982 1.909 3.164 1.297 6.039 3.217 8.45 5.643l273.788 274.044c6.242 6.082 11.177 13.374 14.5 21.429s4.966 16.706 4.828 25.419c0.156 8.734-1.478 17.408-4.802 25.487-3.326 8.079-8.269 15.392-14.526 21.489-6.069 6.404-13.399 11.484-21.527 14.921s-16.879 5.154-25.702 5.047c-8.772 0.145-17.481-1.493-25.6-4.817-8.119-3.322-15.479-8.258-21.632-14.511l-329.98-332.412c-19.994-20.1-31.217-47.296-31.217-75.648 0-28.35 11.223-55.548 31.217-75.646 9.739-10.080 21.444-18.052 34.391-23.426 12.945-5.372 26.857-8.028 40.87-7.806 14.037-0.241 27.972 2.409 40.943 7.78 12.969 5.374 24.695 13.355 34.449 23.452l319.996 322.556c5.171 4.877 11.966 7.659 19.072 7.808 3.652 0.181 7.302-0.42 10.703-1.769 3.401-1.346 6.473-3.407 9.009-6.039z" />
<glyph unicode="&#xe90c;" glyph-name="audio-volume-filled" d="M487.932 723.36c4.589-1.897 8.559-5.035 11.467-9.060 3.021-4.094 4.612-9.069 4.531-14.157v-495.499c0.092-5.088-1.502-10.065-4.531-14.157-2.825-4.105-6.82-7.262-11.467-9.060l-4.531-1.414c-1.455-0.198-2.931-0.198-4.388 0-3.358-0.030-6.686 0.646-9.769 1.982-3.040 1.344-5.82 3.213-8.211 5.521l-150.773 150.773h-114.672c-3.285-0.062-6.548 0.548-9.591 1.79-3.042 1.239-5.8 3.087-8.105 5.429-2.342 2.306-4.189 5.062-5.43 8.105s-1.85 6.306-1.79 9.591v178.946c-0.060 3.285 0.548 6.549 1.79 9.591s3.089 5.798 5.43 8.105c2.305 2.342 5.063 4.19 8.105 5.431 3.042 1.239 6.305 1.85 9.591 1.79h115.38l150.065 151.339c3.622 3.251 8.004 5.538 12.742 6.654 4.77 1.143 9.792 0.54 14.157-1.7zM636.58 453.668c-0.055-23.765-7.014-47.002-20.034-66.882-13.020-19.883-31.537-35.55-53.299-45.101-1.621-0.777-3.332-1.346-5.097-1.698-1.743-0.145-3.494-0.145-5.237 0-4.646-0.017-9.203 1.257-13.167 3.68-4.149 2.62-7.484 6.347-9.628 10.761-1.295 3.068-1.963 6.366-1.963 9.696 0 3.332 0.668 6.63 1.963 9.698 1.088 3.191 2.854 6.108 5.175 8.553 2.321 2.443 5.143 4.356 8.275 5.604 12.813 5.19 23.763 14.121 31.428 25.626 7.765 11.866 11.902 25.741 11.902 39.923s-4.137 28.055-11.902 39.923c-7.795 11.898-18.993 21.173-32.137 26.615-6.050 2.842-10.769 7.915-13.167 14.157-1.325 2.91-2.012 6.074-2.012 9.271 0 3.2 0.687 6.362 2.012 9.274 1.214 3.232 3.106 6.17 5.547 8.61 2.443 2.443 5.378 4.333 8.612 5.547 2.935 1.329 6.121 2.018 9.342 2.018 3.223 0 6.409-0.689 9.344-2.018 22.225-8.945 41.156-24.514 54.223-44.595 13.463-20.324 20.382-44.286 19.819-68.661zM746.441 453.668c0.243-23.136-2.953-46.182-9.487-68.378-6.718-21.137-16.241-41.278-28.314-59.885-12.171-18.709-26.948-35.584-43.887-50.116-17.606-14.402-37.146-26.268-58.044-35.251-1.476-0.879-3.113-1.457-4.813-1.7-1.602-0.128-3.213-0.128-4.815 0-4.988-0.115-9.903 1.212-14.157 3.823-4.077 2.443-7.217 6.18-8.917 10.618-1.329 3.061-2.016 6.362-2.016 9.698s0.687 6.637 2.016 9.698c1.158 3.034 2.959 5.783 5.282 8.055 2.321 2.272 5.107 4.017 8.166 5.109 32.333 14.513 59.699 38.189 78.714 68.096 19.669 29.728 30.159 64.587 30.159 100.233s-10.49 70.505-30.159 100.233c-19.433 29.958-47.46 53.346-80.414 67.104-3.236 1.205-6.176 3.093-8.619 5.536-2.443 2.445-4.333 5.385-5.538 8.621-1.229 3.046-1.837 6.306-1.79 9.589 0.049 3.283 0.753 6.524 2.071 9.532 1.321 3.008 3.228 5.722 5.609 7.981 2.383 2.259 5.195 4.019 8.267 5.178 2.946 1.295 6.127 1.963 9.344 1.963s6.4-0.668 9.344-1.963c21.165-8.461 40.779-20.373 58.044-35.251 17.888-14.541 33.453-31.729 46.153-50.965 12.156-18.763 21.683-39.102 28.314-60.452 6.434-21.781 9.63-44.393 9.487-67.104zM647.341 765.124c30.831-13.063 59.479-30.778 84.943-52.523 25.246-20.813 47.285-45.237 65.406-72.484 17.965-27.371 31.932-57.165 41.478-88.482 9.536-31.872 14.306-64.981 14.159-98.251 0.22-33.227-4.553-66.3-14.159-98.108-19.004-62.861-56.017-118.775-106.46-160.826-25.611-21.545-54.225-39.238-84.943-52.523l-4.813-1.414c-1.577-0.405-3.189-0.642-4.815-0.708-5.047-0.115-10.003 1.372-14.157 4.247-4.066 2.645-7.189 6.511-8.919 11.042-1.327 2.987-2.012 6.217-2.012 9.485s0.685 6.5 2.012 9.485c1.137 3.166 2.918 6.059 5.235 8.495 2.315 2.438 5.114 4.367 8.215 5.664 26.059 11.381 50.293 26.551 71.917 45.018 42.761 35.953 74.223 83.49 90.607 136.9 16.61 54.735 16.61 113.167 0 167.902-8.117 26.652-19.987 52.013-35.251 75.317-15.458 23.243-34.089 44.209-55.356 62.291-21.815 18.524-46.3 33.653-72.625 44.877-3.083 1.052-5.892 2.78-8.22 5.058s-4.113 5.050-5.229 8.109c-1.329 3.059-2.016 6.362-2.016 9.698s0.687 6.636 2.016 9.697c2.822 6.033 7.908 10.713 14.157 13.024 3.027 1.353 6.323 1.993 9.638 1.87 3.313-0.123 6.554-1.004 9.472-2.577l-0.282-0.283z" />
<glyph unicode="&#xe90d;" glyph-name="authorised-filled" d="M495.413 326.281l-8.525 12.188c-26.131 37.278 0.646 88.525 46.074 88.525h22.225v322.275c0 10.35-8.399 18.75-18.75 18.75h-325.687c-10.35 0-18.75-8.4-18.75-18.75v-602.499c0-10.349 8.4-18.75 18.75-18.75h233.962c-2.089 5.862-3.226 12.175-3.226 18.75v68.663c0 44.634 20.875 84.849 53.926 110.848zM301.163 676.331c20.134 20.134 50.775 21.628 72.437 6.763 22.176 15.162 52.751 12.9 72.425-6.763 22.199-22.199 22.199-58.351 0-80.55l-59.174-59.174c-7.283-7.283-19.164-7.349-26.513 0l-59.174 59.174c-22.255 22.255-22.246 58.304 0 80.55zM285.749 493.619h175.689c10.349 0 18.75-8.401 18.75-18.752 0-10.362-8.401-18.75-18.75-18.75h-175.689c-10.349 0-18.75 8.388-18.75 18.75 0 10.351 8.401 18.752 18.75 18.752zM285.749 418.618h138.189c10.349 0 18.75-8.399 18.75-18.75 0-10.362-8.401-18.75-18.75-18.75h-138.189c-10.349 0-18.75 8.388-18.75 18.75 0 10.351 8.401 18.75 18.75 18.75zM423.938 306.121h-138.189c-10.349 0-18.75 8.386-18.75 18.75 0 10.349 8.401 18.75 18.75 18.75h138.189c10.349 0 18.75-8.401 18.75-18.75 0-10.364-8.401-18.75-18.75-18.75zM373.596 576.384l45.914 45.911c12.122 12.124 3.678 33.225-13.762 33.225-9.242 0-13.457-5.393-18.889-10.825-7.326-7.324-19.187-7.324-26.513 0-5.175 5.178-9.498 10.825-18.886 10.825-17.207 0-26.031-20.956-13.762-33.225l45.899-45.911zM817.961 755.32c-3.1 9.062-12.538 14.337-21.901 12.225-4.548-1.037-112.211-26.275-158.449-109.063-39.362-70.475-19.861-156.975-12.262-183.859l-47.563-85.139h-44.821c-15.174 0-24.030-17.133-15.362-29.5l32.412-46.349c-41.212-13.626-71.025-52.501-71.025-98.212v-68.663c0-10.351 8.388-18.75 18.75-18.75h235.113c10.351 0 18.75 8.399 18.75 18.75v68.663c0 45.711-29.824 84.587-71.023 98.212l32.412 46.349c8.661 12.399-0.207 29.5-15.362 29.5h-76.875l37.357 66.863c11.113 3.164 31.887 9.901 55.236 21.687 49.365 24.896 89.271 61.199 107.164 112.738 2.711 7.799-0.013 16.463-6.714 21.325l-19.437 14.099 25.263 9.5c7.038 2.652 11.812 9.239 12.137 16.751 2.351 54.848-13.148 100.936-13.798 102.874z" />
<glyph unicode="&#xe90e;" glyph-name="award-filled" d="M800.166 736.128c4.247 0.175 8.486-0.506 12.467-2.001 3.979-1.495 7.618-3.774 10.701-6.703 2.959-3.113 5.257-6.793 6.754-10.82 1.495-4.026 2.159-8.314 1.95-12.604v-76.8c0.094-17.916-3.074-35.697-9.344-52.48-6.524-16.041-15.744-30.848-27.264-43.776-11.396-12.894-25.009-23.644-40.192-31.744-15.989-8.363-33.316-13.865-51.2-16.256v-3.072c0.1-22.377-3.712-44.599-11.264-65.664-7.298-20.207-17.897-39.066-31.36-55.808-13.478-16.828-29.76-31.204-48.128-42.496-18.351-11.296-38.406-19.552-59.392-24.448l22.144-67.2h73.728c6.637 0.023 13.071-2.287 18.176-6.528 5.133-4.062 8.815-9.675 10.496-16l25.6-73.728h-384l25.6 73.728c1.773 6.315 5.547 11.883 10.752 15.872 5.105 4.241 11.539 6.551 18.176 6.528h73.472l21.888 66.816c-20.986 4.896-41.043 13.152-59.392 24.448-18.319 11.469-34.515 26.018-47.872 43.008-13.457 16.868-24.013 35.857-31.232 56.192-7.552 20.934-11.407 43.025-11.392 65.28v3.072c-17.884 2.391-35.213 7.893-51.2 16.256-15.241 8.126-28.896 18.921-40.32 31.872-11.475 12.939-20.653 27.744-27.137 43.776-6.256 16.742-9.422 34.479-9.344 52.352v76.8c-0.209 4.29 0.454 8.578 1.95 12.604 1.496 4.028 3.794 7.708 6.754 10.82 3.082 2.929 6.721 5.207 10.701 6.703s8.22 2.176 12.468 2.001h96.128v31.872h384v-31.872h96.128zM320.038 671.744h-64v-44.544c-0.134-18.827 6.654-37.047 19.072-51.2 11.689-13.931 27.371-23.938 44.928-28.672v124.416zM576.038 448l-15.616 64 48.128 64h-67.712l-28.8 64-28.8-64h-67.456l48.128-64-15.872-64 64 34.944 64-34.944zM768.038 671.744h-64v-124.416c18.069 3.29 34.242 13.248 45.312 27.904 12.141 14.588 18.758 32.988 18.688 51.968v44.544z" />
<glyph unicode="&#xe90f;" glyph-name="background-filled" d="M844.787 174.773c0 15.563-5.673 30.549-17.719 41.276l-547.313 547.312c-23.251 23.252-59.876 23.252-83.128 0s-23.252-59.877 0-83.129l547.593-547.595c23.253-23.251 59.878-23.251 83.13 0 11.571 11.571 17.438 26.255 17.438 42.135zM512.563 780.8h-141.562l473.79-473.792v141.562c0 15.565-5.673 30.549-17.719 41.276l-273.235 273.235c-10.726 12.045-25.711 17.719-41.274 17.719zM786.353 780.8h-141.562l199.996-199.994v141.562c0 32.166-26.266 58.432-58.434 58.432zM512.563 116.341h141.562l-473.791 473.792v-141.562c0-15.563 5.674-30.549 17.719-41.274l274.139-274.099c10.551-9.233 24.838-16.858 40.371-16.858zM238.697 116.341c-32.118 0.034-58.337 26.253-58.37 58.372l-1.409 155.138 214.917-214.944-155.138 1.434z" />
<glyph unicode="&#xe910;" glyph-name="book-open-filled" d="M813.31 703.936c-64.949-3.686-194.044-17.103-273.737-65.886-5.5-3.366-8.617-9.35-8.617-15.61v-431.26c0-13.69 14.97-22.342 27.593-15.989 81.993 41.269 200.572 52.529 259.204 55.61 20.017 1.056 35.58 17.103 35.58 36.339v400.41c0.013 20.99-18.193 37.619-40.023 36.386zM484.427 638.050c-79.682 48.783-208.774 62.187-273.724 65.886-21.831 1.233-40.036-15.396-40.036-36.386v-400.422c0-19.247 15.562-35.294 35.58-36.337 58.656-3.083 177.295-14.353 259.287-55.646 12.587-6.34 27.509 2.3 27.509 15.953v431.556c0 6.27-3.106 12.019-8.617 15.396z" />
<glyph unicode="&#xe911;" glyph-name="books-filled" d="M794.667 317.999v420.002c0 16.624-13.376 29.999-29.999 29.999h-410.001c-66.251 0-120-53.749-120-120v-400c0-66.251 53.749-120 120-120h410.001c16.623 0 29.999 13.376 29.999 29.999v20.002c0 9.374-4.375 17.873-11.125 23.375-5.25 19.249-5.25 74.125 0 93.374 6.75 5.376 11.125 13.875 11.125 23.249zM394.667 600.499c0 4.126 3.375 7.501 7.501 7.501h264.998c4.126 0 7.501-3.375 7.501-7.501v-24.998c0-4.126-3.375-7.501-7.501-7.501h-264.998c-4.126 0-7.501 3.375-7.501 7.501v24.998zM394.667 520.499c0 4.126 3.375 7.501 7.501 7.501h264.998c4.126 0 7.501-3.375 7.501-7.501v-24.998c0-4.126-3.375-7.501-7.501-7.501h-264.998c-4.126 0-7.501 3.375-7.501 7.501v24.998zM711.418 208h-356.751c-22.125 0-40 17.875-40 40 0 21.999 18.001 40 40 40h356.751c-2.377-21.376-2.377-58.624 0-80z" />
<glyph unicode="&#xe912;" glyph-name="box-open-filled" d="M638.859 456.506c-20.279 0-39.358 10.799-49.677 28.079l-77.156 127.913-77.035-127.913c-10.438-17.399-29.517-28.198-49.796-28.198-5.399 0-10.799 0.719-15.959 2.281l-164.389 47.036v-213.585c0-17.641 11.999-32.998 29.038-37.199l259.424-64.915c12.239-2.999 25.079-2.999 37.197 0l259.665 64.915c17.039 4.32 29.037 19.68 29.037 37.199v213.585l-164.388-46.916c-5.161-1.559-10.56-2.281-15.959-2.281zM893.963 591.138l-61.796 123.351c-3.721 7.439-11.759 11.759-20.038 10.679l-300.102-38.278 110.033-182.507c4.561-7.561 13.681-11.159 22.199-8.759l237.466 67.795c11.878 3.479 17.638 16.678 12.239 27.718zM191.887 714.49l-61.796-123.351c-5.52-11.040 0.36-24.239 12.119-27.599l237.466-67.795c8.518-2.4 17.638 1.199 22.197 8.759l110.153 182.387-300.22 38.278c-8.279 0.96-16.199-3.241-19.919-10.679z" />
<glyph unicode="&#xe913;" glyph-name="browser-filled" d="M234.334 782.333h555.332c46.871 0 85.001-38.129 85.001-85v-498.667c0-46.871-38.129-85.001-85.001-85.001h-555.332c-46.872 0-85.001 38.129-85.001 85.001v498.667c0 46.871 38.128 85 85.001 85zM789.666 725.666h-555.332c-15.622 0-28.334-12.71-28.334-28.333v-85.001h612.001v85.001c0 15.622-12.713 28.333-28.335 28.333zM234.334 170.334h555.332c15.622 0 28.335 12.71 28.335 28.333v357.001h-612.001v-357.001c0-15.622 12.711-28.333 28.334-28.333zM276.834 697.333c-15.65 0-28.335-12.683-28.335-28.333s12.685-28.335 28.335-28.335c15.648 0 28.333 12.685 28.333 28.335s-12.685 28.333-28.333 28.333zM376 697.333c-15.65 0-28.333-12.683-28.333-28.333s12.683-28.335 28.333-28.335c15.65 0 28.333 12.685 28.333 28.335s-12.683 28.333-28.333 28.333zM768 512h-512v-298.667h512v298.667z" />
<glyph unicode="&#xe914;" glyph-name="bullet-point-filled" d="M512 277.333c94.257 0 170.667 76.41 170.667 170.667s-76.41 170.667-170.667 170.667c-94.257 0-170.667-76.41-170.667-170.667s76.41-170.667 170.667-170.667z" />
<glyph unicode="&#xe915;" glyph-name="calender-bold-filled" d="M341.333 789.333c11.315 0 22.167-4.495 30.17-12.497s12.497-18.854 12.497-30.17v-42.667h256v42.667c0 11.316 4.495 22.168 12.497 30.17s18.854 12.497 30.17 12.497c11.315 0 22.167-4.495 30.17-12.497s12.497-18.854 12.497-30.17v-42.667h42.667c22.633 0 44.337-8.99 60.339-24.994 16.004-16.002 24.994-37.707 24.994-60.339v-426.667c0-22.633-8.99-44.337-24.994-60.339-16.002-16.004-37.707-24.994-60.339-24.994h-512c-22.633 0-44.337 8.99-60.34 24.994-16.003 16.002-24.993 37.707-24.993 60.339v426.667c0 22.633 8.991 44.337 24.993 60.339 16.003 16.004 37.707 24.994 60.34 24.994h42.667v42.667c0 11.316 4.495 22.168 12.497 30.17s18.854 12.497 30.17 12.497zM341.333 576c-11.315 0-22.167-4.495-30.17-12.497s-12.497-18.854-12.497-30.17c0-11.315 4.495-22.167 12.497-30.17s18.854-12.497 30.17-12.497h341.333c11.315 0 22.167 4.495 30.17 12.497s12.497 18.854 12.497 30.17c0 11.315-4.495 22.167-12.497 30.17s-18.854 12.497-30.17 12.497h-341.333z" />
<glyph unicode="&#xe916;" glyph-name="calender-line-filled" d="M375.296 787.586c17.673 0 32-14.327 32-32v-36.352h209.408v36.352c0 17.673 14.327 32 32 32 17.675 0 32-14.327 32-32v-36.352h70.53c26.613 0 52.139-10.573 70.959-29.393s29.393-44.346 29.393-70.959v-410.114c0-26.615-10.573-52.141-29.393-70.961s-44.346-29.393-70.959-29.393h-478.468c-26.613 0-52.139 10.573-70.959 29.393s-29.392 44.346-29.392 70.961v410.114c0 26.613 10.573 52.139 29.392 70.959s44.346 29.393 70.959 29.393h70.53v36.352c0 17.673 14.325 32 32 32zM343.296 655.234h-70.53c-9.641 0-18.886-3.831-25.705-10.647-6.816-6.818-10.647-16.064-10.647-25.705v-410.114c0-9.643 3.831-18.889 10.647-25.707 6.818-6.816 16.064-10.647 25.705-10.647h478.468c9.641 0 18.886 3.831 25.705 10.647 6.816 6.818 10.647 16.064 10.647 25.707v410.114c0 9.641-3.831 18.886-10.647 25.705-6.818 6.816-16.064 10.647-25.705 10.647h-70.53v-36.352c0-17.675-14.325-32-32-32-17.673 0-32 14.325-32 32v36.352h-209.408v-36.352c0-17.675-14.327-32-32-32-17.675 0-32 14.325-32 32v36.352zM309.12 482.176c0 17.675 14.325 32 32 32h341.76c17.675 0 32-14.325 32-32 0-17.673-14.325-32-32-32h-341.76c-17.675 0-32 14.327-32 32z" />
<glyph unicode="&#xe917;" glyph-name="camera-filled" d="M853.333 213.587c0.019-8.341-1.596-16.606-4.753-24.326-3.435-7.691-8.164-14.737-13.982-20.83-5.918-6.031-13.007-10.788-20.83-13.982-7.942-3.034-16.384-4.553-24.885-4.474h-554.044c-8.501-0.079-16.943 1.44-24.886 4.474-7.682 3.076-14.566 7.857-20.132 13.982-5.955 5.98-10.701 13.054-13.98 20.83-3.366 7.671-5.127 15.949-5.173 24.326v384.322c-0.071 8.301 1.546 16.529 4.753 24.186 3.279 7.778 8.026 14.85 13.98 20.832 5.566 6.123 12.449 10.903 20.132 13.98 8.074 3.087 16.663 4.606 25.305 4.474h117.574l15.659 44.318c2.543 6.012 5.882 11.654 9.926 16.777 4.102 4.979 8.798 9.438 13.98 13.282 5.047 3.452 10.554 6.18 16.358 8.109 6.387 1.941 13.037 2.885 19.712 2.795h167.765c6.347-0.017 12.657-0.96 18.733-2.795 6.202-1.807 12.094-4.542 17.476-8.109 10.462-7.755 18.705-18.118 23.906-30.059l15.797-44.318h117.436c8.405 0 16.74-1.515 24.606-4.474 7.785-3.036 14.769-7.819 20.412-13.98 5.954-5.982 10.701-13.054 13.98-20.832 3.142-7.676 4.757-15.891 4.753-24.186l0.42-384.322zM671.588 405.958c0.068 14.144-1.67 28.237-5.173 41.941-3.415 13.566-8.785 26.562-15.938 38.586-7.023 11.925-15.526 22.918-25.303 32.715-9.826 9.745-20.813 18.244-32.715 25.303-12.175 6.775-25.133 12.034-38.586 15.659-27.492 7.247-56.393 7.247-83.883 0-13.453-3.625-26.411-8.883-38.586-15.659-11.989-7.057-23.070-15.556-32.994-25.303-9.929-9.542-18.364-20.523-25.026-32.576-7.168-12.064-12.67-25.043-16.356-38.586-3.665-13.677-5.498-27.78-5.453-41.941-0.077-14.391 1.758-28.73 5.453-42.639 3.686-13.542 9.188-26.522 16.356-38.588 6.682-12.079 15.115-23.104 25.026-32.713 9.924-9.749 21.005-18.249 32.994-25.306 12.203-6.716 25.152-11.972 38.586-15.659 27.49-7.245 56.39-7.245 83.883 0 13.431 3.686 26.383 8.943 38.586 15.659 23.962 14.086 43.932 34.057 58.018 58.018 7.153 12.023 12.523 25.022 15.938 38.588 3.567 13.884 5.353 28.164 5.312 42.5h-0.139zM629.647 405.958c0.173-15.452-2.825-30.771-8.809-45.018-6.225-14.018-15.049-26.733-26.003-37.468-10.573-11.405-23.501-20.373-37.888-26.283-28.691-11.375-60.642-11.375-89.333 0-14.27 5.803-27.172 14.515-37.888 25.583-10.929 11.025-19.742 23.962-26.003 38.167-6.176 14.204-9.363 29.527-9.367 45.018-0.128 15.264 2.869 30.394 8.809 44.457 6.238 14.219 15.055 27.157 26.003 38.167 10.714 11.068 23.618 19.78 37.888 25.583 28.691 11.375 60.642 11.375 89.333 0 14.27-5.803 27.172-14.515 37.888-25.583 10.914-11.038 19.725-23.97 26.003-38.167 6.035-14.042 9.129-29.173 9.088-44.457h0.279z" />
<glyph unicode="&#xe918;" glyph-name="cart-filled" d="M242.63 321.297v372.452c0.141 6.398-0.994 12.759-3.339 18.714s-5.85 11.381-10.315 15.966c-4.446 4.804-9.86 8.614-15.884 11.181-6.024 2.564-12.522 3.825-19.068 3.701-3.089-0.102-6.165 0.439-9.033 1.591s-5.464 2.887-7.624 5.098c-2.172 2.046-3.889 4.525-5.042 7.276s-1.714 5.715-1.648 8.698c-0.102 3.089 0.439 6.165 1.591 9.033s2.888 5.464 5.099 7.624c2.16 2.211 4.756 3.947 7.624 5.099s5.944 1.694 9.033 1.591c12.537 0.189 24.98-2.197 36.558-7.011s22.044-11.954 30.752-20.977c9.056-8.738 16.215-19.248 21.030-30.877 4.817-11.627 7.185-24.122 6.957-36.706v-23.755h526.050c3.68 0.036 7.319-0.755 10.65-2.321 3.151-1.666 5.862-4.053 7.919-6.963 2.263-2.699 3.77-5.95 4.369-9.421 0.749-3.511 0.749-7.14 0-10.65l-60.073-209.301c-7.083-24.666-22.345-46.187-43.281-61.028-20.154-15.936-45.030-24.725-70.722-24.983h-325.623c-17.391-0.213-34.485 4.521-49.289 13.651v-38.091c-0.049-6.445 1.193-12.836 3.654-18.793s6.095-11.358 10.682-15.887c4.508-4.708 9.939-8.435 15.953-10.948 6.014-2.515 12.482-3.761 18.999-3.661h404.674c3.040 0.043 6.057-0.529 8.873-1.679 2.814-1.15 5.367-2.852 7.511-5.011 2.221-2.020 3.989-4.489 5.19-7.241 1.199-2.754 1.803-5.73 1.773-8.732 0.083-3.113-0.493-6.206-1.694-9.077-1.199-2.871-2.995-5.455-5.269-7.58-2.144-2.157-4.698-3.861-7.511-5.011-2.816-1.148-5.833-1.719-8.873-1.679h-52.017c10.411-5.033 19.241-12.826 25.53-22.528 6.048-9.472 9.438-20.397 9.813-31.631 0.375-11.232-2.278-22.359-7.68-32.213-5.402-9.856-13.357-18.078-23.027-23.804s-20.704-8.745-31.942-8.742c-8.29-0.105-16.514 1.461-24.186 4.604-7.669 3.145-14.628 7.799-20.461 13.692-10.281 9.993-16.764 23.251-18.334 37.502-1.568 14.251 1.873 28.604 9.734 40.593 6.289 9.705 14.993 17.609 25.257 22.938h-242.613c10.263-5.329 18.967-13.233 25.259-22.938 7.861-11.989 11.302-26.342 9.732-40.593s-8.051-27.509-18.334-37.502c-5.833-5.892-12.789-10.547-20.461-13.692-7.671-3.142-15.895-4.708-24.186-4.604-11.232 0.017-22.255 3.046-31.919 8.772s-17.615 13.939-23.025 23.785c-5.41 9.843-8.081 20.958-7.733 32.186 0.346 11.228 3.697 22.157 9.705 31.648 6.27 9.873 15.155 17.813 25.668 22.938-12.51-0.288-24.947 1.984-36.546 6.682-11.599 4.695-22.114 11.714-30.899 20.625-9.084 8.804-16.254 19.386-21.069 31.083-4.817 11.697-7.172 24.26-6.921 36.909z" />
<glyph unicode="&#xe919;" glyph-name="cart-line-filled" horiz-adv-x="1045" d="M139.552 784.609c-17.673 0-32-14.327-32-32s14.327-31.999 32-31.999h89.811l23.631-118.067c0.139-0.875 0.311-1.739 0.518-2.59l48.448-242.059c4.122-20.71 15.392-39.313 31.842-52.555 16.369-13.178 36.83-20.209 57.835-19.887h281.431c21.005-0.322 41.466 6.709 57.837 19.887 16.457 13.248 27.731 31.863 31.846 52.587l46.462 243.637c1.788 9.367-0.698 19.044-6.778 26.391-6.078 7.349-15.119 11.601-24.655 11.601h-466.925l-23.885 119.333c-2.993 14.956-16.126 25.72-31.377 25.72h-116.043zM364.73 370.394l-41.065 205.163h415.437l-39.142-205.257c-1.205-5.952-4.454-11.296-9.188-15.106-4.755-3.829-10.709-5.862-16.815-5.747l-0.612 0.006-282.594-0.006c-6.106-0.115-12.060 1.918-16.815 5.747-4.757 3.829-8.017 9.21-9.205 15.2zM371.633 169.41c1.651 0 2.991 1.338 2.991 2.989s-1.34 2.991-2.991 2.991c-1.651 0-2.989-1.34-2.989-2.991s1.338-2.989 2.989-2.989zM310.624 172.399c0 33.696 27.315 61.011 61.009 61.011 33.696 0 61.011-27.315 61.011-61.011 0-33.694-27.315-61.009-61.011-61.009-33.694 0-61.009 27.315-61.009 61.009zM690.748 169.41c1.651 0 2.991 1.338 2.991 2.989s-1.34 2.991-2.991 2.991c-1.651 0-2.989-1.34-2.989-2.991s1.338-2.989 2.989-2.989zM629.739 172.399c0 33.696 27.315 61.011 61.009 61.011 33.696 0 61.011-27.315 61.011-61.011 0-33.694-27.315-61.009-61.011-61.009-33.694 0-61.009 27.315-61.009 61.009z" />
<glyph unicode="&#xe91a;" glyph-name="certificate-1-filled" d="M643.095 250.366c2.464 1.075 5.156 1.519 7.834 1.291s5.257-1.12 7.503-2.596c2.246-1.476 4.087-3.488 5.359-5.856 1.274-2.368 1.933-5.015 1.924-7.701v-154.458c-0.013-2.645-0.676-5.248-1.931-7.578s-3.061-4.316-5.263-5.783c-2.202-1.468-4.732-2.372-7.364-2.635s-5.291 0.126-7.738 1.133l-115.358 45.237c-15.45 6.202-32.695 6.202-48.147 0l-115.034-46.208c-2.473-1.015-5.158-1.402-7.819-1.124s-5.207 1.212-7.418 2.716c-2.21 1.506-4.011 3.535-5.244 5.909-1.233 2.372-1.856 5.013-1.815 7.686v154.458c-0.122 2.741 0.459 5.468 1.685 7.923s3.055 4.559 5.318 6.11c2.263 1.553 4.885 2.502 7.616 2.761 2.733 0.258 5.485-0.183 8-1.284 43.358-20.83 90.844-31.644 138.946-31.644 48.1 0 95.586 10.814 138.944 31.644zM794.967 541.184c0-57.519-17.056-113.745-49.011-161.57s-77.376-85.099-130.515-107.11c-53.139-22.012-111.614-27.77-168.026-16.55-56.414 11.221-108.233 38.921-148.905 79.59-40.67 40.672-68.369 92.491-79.59 148.905-11.22 56.412-5.461 114.886 16.55 168.026s59.285 98.56 107.11 130.515c47.825 31.955 104.051 49.011 161.57 49.011 77.129 0 151.1-30.64 205.638-85.178s85.178-128.509 85.178-205.638zM624.032 628.751c-6.054 6.018-14.244 9.397-22.782 9.397-8.535 0-16.725-3.379-22.78-9.397l-106.633-106.633-41.683 42.007c-6.086 6.084-14.338 9.502-22.944 9.502-8.604 0-16.858-3.418-22.942-9.502s-9.502-14.338-9.502-22.942c0-8.606 3.418-16.858 9.502-22.944l64.627-64.625c6.054-6.018 14.244-9.397 22.78-9.397 8.538 0 16.727 3.379 22.78 9.397l129.252 129.252c3.051 2.982 5.481 6.539 7.149 10.466 1.668 3.925 2.543 8.143 2.573 12.407 0.030 4.267-0.785 8.497-2.398 12.446s-3.991 7.539-6.999 10.564z" />
<glyph unicode="&#xe91b;" glyph-name="certificate-filled" d="M631.569 151.985c2.598 1.299 5.425 1.95 8.252 1.95s5.651-0.649 8.252-1.95l26.871-13.438c5.85-2.923 12.732 1.329 12.732 7.868v125.862c-14.814-5.922-30.955-9.216-47.855-9.216-16.905 0-33.041 3.292-47.855 9.216v-125.862c0-6.539 6.88-10.79 12.73-7.868l26.874 13.438zM639.81 484.896c-50.982 0-92.461-41.476-92.461-92.461s41.478-92.461 92.461-92.461c50.985 0 92.461 41.476 92.461 92.461s-41.476 92.461-92.461 92.461zM830.27 725.333h-636.54c-12.736 0-23.063-10.327-23.063-23.063v-477.406c0-12.736 10.327-23.063 23.063-23.063h361.303v93.035c-27.298 23.733-44.606 58.675-44.606 97.604 0 71.332 58.031 129.363 129.361 129.363 71.332 0 129.363-58.031 129.363-129.363 0-38.927-17.308-73.867-44.606-97.604v-93.035h105.724c12.736 0 23.063 10.327 23.063 23.063v477.406c0 12.736-10.327 23.063-23.063 23.063zM392.649 325.764h-119.351c-10.191 0-18.451 8.26-18.451 18.449 0 10.191 8.26 18.451 18.451 18.451h119.351c10.189 0 18.449-8.26 18.449-18.451 0-10.189-8.26-18.449-18.449-18.449zM432.431 445.116h-159.134c-10.191 0-18.451 8.26-18.451 18.451 0 10.189 8.26 18.449 18.451 18.449h159.134c10.191 0 18.451-8.26 18.451-18.449 0-10.191-8.26-18.451-18.451-18.451zM551.782 564.467h-278.485c-10.191 0-18.451 8.26-18.451 18.451 0 10.189 8.26 18.449 18.451 18.449h278.485c10.191 0 18.451-8.26 18.451-18.449 0-10.191-8.26-18.451-18.451-18.451z" />
<glyph unicode="&#xe91c;" glyph-name="change-filled" d="M805.333 255.467h-69.44c-12.271 38.509-47.998 66.667-90.56 66.667s-78.263-28.16-90.558-66.667h-336.109c-15.899 0-28.8-12.902-28.8-28.8s12.902-28.8 28.8-28.8h336.107c12.269-38.509 47.998-66.667 90.56-66.667s78.263 28.16 90.558 66.667h69.442c15.925 0 28.798 12.902 28.798 28.8 0 15.895-12.873 28.8-28.798 28.8zM645.333 320c42.133 0 77.44-28.241 88.986-66.667h71.014c14.746 0 26.665-11.947 26.665-26.667 0-12.19-8.175-22.479-19.358-25.655 11.181 3.181 19.349 13.466 19.349 25.653 0 14.72-11.917 26.667-26.665 26.667h-71.012c-11.548 38.428-46.854 66.667-88.988 66.667-7.693 0-15.157-0.941-22.289-2.714 7.136 1.773 14.603 2.716 22.298 2.716zM556.339 253.333h-337.673c-2.217 0-4.369-0.271-6.426-0.781 2.055 0.51 4.206 0.779 6.418 0.779h337.681c0 0.002 0 0.002 0 0.002zM667.622 136.049c31.934 7.936 57.235 32.54 66.697 63.949h-0.009c-9.459-31.407-34.756-56.011-66.688-63.949zM645.333 188.8c-20.875 0-37.867 16.99-37.867 37.867 0 20.875 16.992 37.867 37.867 37.867 20.877 0 37.867-16.992 37.867-37.867 0-20.877-16.992-37.867-37.867-37.867zM645.333 186.667c-22.054 0-40 17.946-40 40 0 18.714 12.924 34.47 30.313 38.814-17.393-4.341-30.321-20.1-30.321-38.816 0-22.054 17.948-40 40-40 2.844 0 5.619 0.299 8.294 0.866-2.673-0.567-5.446-0.864-8.286-0.864zM805.333 682.133h-69.442c-12.294 38.507-47.996 66.667-90.558 66.667s-78.263-28.16-90.56-66.667h-336.107c-15.899 0-28.8-12.9-28.8-28.8 0-15.898 12.902-28.798 28.8-28.798h336.107c12.297-38.509 47.996-66.669 90.56-66.669s78.266 28.16 90.558 66.667h69.442c15.925 0 28.8 12.902 28.8 28.8 0 15.895-12.875 28.8-28.8 28.8zM645.333 746.667c42.133 0 77.412-28.239 88.986-66.667h71.014c14.746 0 26.667-11.947 26.667-26.667 0-12.19-8.175-22.479-19.36-25.655 11.181 3.181 19.351 13.466 19.351 25.653 0 14.72-11.919 26.667-26.667 26.667h-71.012c-11.575 38.428-46.854 66.667-88.988 66.667-7.693 0-15.157-0.941-22.289-2.714 7.136 1.773 14.603 2.716 22.298 2.716zM556.339 680h-337.673c-2.217 0-4.369-0.271-6.426-0.781 2.055 0.51 4.206 0.779 6.418 0.779h337.679c0 0.002 0.002 0.002 0.002 0.002zM667.625 562.716c31.934 7.936 57.235 32.54 66.694 63.949h-0.006c-9.459-31.407-34.756-56.011-66.688-63.949zM645.333 615.467c-20.875 0-37.867 16.992-37.867 37.867 0 20.877 16.992 37.867 37.867 37.867 20.877 0 37.867-16.99 37.867-37.867 0-20.875-16.992-37.867-37.867-37.867zM645.333 613.333c-22.054 0-40 17.948-40 40 0 18.716 12.924 34.47 30.313 38.814-17.393-4.339-30.321-20.098-30.321-38.816 0-22.052 17.948-40 40-40 2.844 0 5.619 0.299 8.294 0.866-2.673-0.565-5.446-0.864-8.286-0.864zM805.333 468.8h-336.109c-12.294 38.507-47.996 66.667-90.558 66.667s-78.263-28.16-90.558-66.667h-69.442c-15.899 0-28.8-12.9-28.8-28.8 0-15.898 12.902-28.8 28.8-28.8h69.442c12.294-38.507 47.996-66.665 90.558-66.665s78.263 28.158 90.558 66.665h336.109c15.925 0 28.798 12.905 28.798 28.8 0.002 15.898-12.873 28.8-28.798 28.8zM378.667 533.333c42.133 0 77.412-28.241 88.988-66.667h337.679c14.746 0 26.667-11.947 26.665-26.667 0-12.19-8.175-22.477-19.358-25.653 11.181 3.179 19.349 13.466 19.349 25.651 0.002 14.72-11.917 26.667-26.665 26.667h-337.679c-11.573 38.426-46.854 66.667-88.988 66.667-7.691 0-15.155-0.941-22.289-2.714 7.136 1.773 14.603 2.716 22.298 2.716zM289.673 466.667h-71.006c-2.217 0-4.369-0.271-6.426-0.781 2.055 0.51 4.206 0.779 6.418 0.779h71.014c0 0 0 0.002 0 0.002zM400.956 349.382c31.936 7.938 57.235 32.54 66.697 63.949h-0.009c-9.459-31.407-34.756-56.009-66.688-63.949zM378.667 402.133c-20.877 0-37.867 16.992-37.867 37.867 0 20.877 16.99 37.867 37.867 37.867 20.875 0 37.867-16.99 37.867-37.867 0-20.875-16.992-37.867-37.867-37.867zM378.667 400c-22.054 0-40 17.948-40 40 0 18.716 12.922 34.47 30.31 38.814-17.393-4.339-30.319-20.098-30.319-38.816 0-22.052 17.946-40 40-40 3.339 0 6.586 0.412 9.687 1.188-3.1-0.774-6.342-1.186-9.679-1.186z" />
<glyph unicode="&#xe91d;" glyph-name="chart-filled" d="M853.065 405.333h-316.39l210.709-210.707c8.053-8.053 21.306-8.708 29.587-0.907 51.599 48.612 87.093 114.146 97.506 187.814 1.788 12.614-8.678 23.799-21.412 23.799zM831.957 491.735c-10.987 159.281-138.268 286.563-297.551 297.55-12.16 0.84-22.4-9.413-22.4-21.6v-298.349h298.364c12.188 0 22.428 10.24 21.587 22.4zM448.006 405.333v316.39c0 12.734-11.187 23.2-23.787 21.414-158.895-22.453-280.35-161.269-274.697-327.631 5.813-170.854 152.922-310.963 323.857-308.817 67.2 0.841 129.295 22.494 180.348 58.707 10.534 7.467 11.228 22.974 2.093 32.109l-207.814 207.827z" />
<glyph unicode="&#xe91e;" glyph-name="circle-outline-info-filled" d="M149.333 447.998c0 199.974 162.692 362.669 362.667 362.669s362.667-162.694 362.667-362.669c0-199.974-162.692-362.665-362.667-362.665s-362.667 162.69-362.667 362.665zM215.253 447.985c0-163.616 133.109-296.725 296.727-296.725 163.614 0 296.725 133.109 296.725 296.725s-133.109 296.73-296.725 296.73c-163.618 0-296.727-133.114-296.727-296.73zM511.989 656.804c-24.235 0-43.951-19.729-43.951-43.981 0-24.228 19.716-43.94 43.951-43.94s43.951 19.712 43.951 43.94c0 24.252-19.716 43.981-43.951 43.981zM479.019 469.982c0 18.208 14.761 32.969 32.969 32.969s32.971-14.761 32.971-32.969v-197.818c0-18.208-14.763-32.971-32.971-32.971s-32.969 14.763-32.969 32.971v197.818z" />
<glyph unicode="&#xe91f;" glyph-name="clock-fill-filled" d="M512 810.667c-71.729 0-141.847-21.27-201.487-61.12s-106.124-96.49-133.573-162.76c-27.449-66.268-34.631-139.189-20.638-209.538 13.994-70.351 48.534-134.972 99.254-185.692s115.341-85.261 185.692-99.253c70.349-13.995 143.27-6.812 209.538 20.638 66.27 27.447 122.91 73.933 162.761 133.572s61.12 129.758 61.12 201.487c0 96.186-38.21 188.431-106.223 256.444s-160.258 106.223-256.444 106.223v0zM624.124 338.897c-5.662-5.628-13.321-8.787-21.306-8.787s-15.644 3.159-21.308 8.787l-99.733 99.733v193.726c0 8.015 3.185 15.701 8.853 21.37 5.666 5.668 13.355 8.851 21.37 8.851s15.703-3.183 21.37-8.851c5.668-5.668 8.853-13.355 8.853-21.37v-168.943l81.901-81.903c5.63-5.662 8.789-13.321 8.789-21.306s-3.159-15.644-8.789-21.308z" />
<glyph unicode="&#xe920;" glyph-name="clock-filled" horiz-adv-x="1003" d="M229.878 453.224c0 150.041 121.632 271.673 271.673 271.673s271.673-121.632 271.673-271.673c0-150.041-121.632-271.673-271.673-271.673s-271.673 121.632-271.673 271.673zM501.551 787.592c-184.667 0-334.367-149.7-334.367-334.367s149.7-334.367 334.367-334.367c184.667 0 334.367 149.7 334.367 334.367s-149.7 334.367-334.367 334.367zM532.898 635.039c0 17.312-14.035 31.347-31.347 31.347s-31.347-14.035-31.347-31.347v-181.812c0-11.874 6.708-22.729 17.329-28.039l121.208-60.604c15.483-7.743 34.314-1.465 42.055 14.020 7.743 15.483 1.467 34.312-14.018 42.055l-103.88 51.94v162.44z" />
<glyph unicode="&#xe921;" glyph-name="coding-filled" d="M596.561 777.711c17.146-4.286 27.569-21.66 23.283-38.806l-153.6-614.4c-4.286-17.146-21.66-27.569-38.805-23.283s-27.569 21.66-23.283 38.805l153.6 614.4c4.286 17.145 21.66 27.57 38.805 23.283zM304.228 615.695c12.495-12.497 12.495-32.759 0-45.257l-130.973-130.972 130.973-130.972c12.495-12.497 12.495-32.759 0-45.257-12.497-12.495-32.759-12.495-45.257 0l-153.599 153.6c-6.001 6.001-9.373 14.142-9.373 22.628s3.372 16.627 9.373 22.628l153.599 153.6c12.497 12.495 32.759 12.495 45.257 0zM719.772 615.695c12.497 12.495 32.759 12.495 45.257 0l153.6-153.6c6.001-6.001 9.372-14.142 9.372-22.628s-3.371-16.627-9.372-22.628l-153.6-153.6c-12.497-12.495-32.759-12.495-45.257 0-12.495 12.497-12.495 32.759 0 45.257l130.974 130.972-130.974 130.972c-12.495 12.497-12.495 32.759 0 45.257z" />
<glyph unicode="&#xe922;" glyph-name="coins-filled" d="M170.667 248.934v-56.934c0-47.066 114.667-85.333 256-85.333s256 38.268 256 85.333v56.934c-55.066-38.801-155.733-56.934-256-56.934s-200.934 18.133-256 56.934zM597.333 618.667c141.333 0 256 38.266 256 85.333s-114.667 85.333-256 85.333-256-38.267-256-85.333c0-47.068 114.667-85.333 256-85.333zM170.667 388.8v-68.8c0-47.066 114.667-85.333 256-85.333s256 38.268 256 85.333v68.8c-55.066-45.333-155.866-68.8-256-68.8-100.132 0-200.934 23.467-256 68.8zM725.333 374.133c76.399 14.801 128 42.266 128 73.867v56.932c-30.933-21.865-76.399-36.8-128-45.999v-84.8zM426.667 576c-141.333 0-256-47.733-256-106.667s114.667-106.667 256-106.667c141.333 0 256 47.733 256 106.667s-114.667 106.667-256 106.667zM719.066 500.932c80 14.4 134.268 42.667 134.268 75.068v56.932c-47.334-33.466-128.666-51.467-214.268-55.733 39.334-19.066 68.267-44.666 80-76.267z" />
<glyph unicode="&#xe923;" glyph-name="college-graduation-filled" d="M539.989 347.953c-8.565-4.747-18.197-7.236-27.989-7.236s-19.424 2.49-27.989 7.236l-302.012 185.412c-3.243 1.459-6.019 3.787-8.019 6.729-2 2.94-3.147 6.377-3.313 9.929 0.218 3.627 1.378 7.132 3.366 10.174 1.987 3.040 4.733 5.51 7.967 7.166l302.694 150.596c8.535 4.834 18.178 7.375 27.989 7.375 9.809 0 19.454-2.541 27.989-7.375l302.012-150.187c3.164-1.779 5.811-4.35 7.678-7.462s2.891-6.658 2.972-10.287c-0.166-3.552-1.312-6.989-3.313-9.929-2.001-2.942-4.777-5.269-8.019-6.729l-302.012-185.412zM555.964 314.639l203.435 123.972c8.329 3.14 12.561 0 12.561-9.967v-127.932c-0.757-18.003-8.092-35.104-20.617-48.060-15.558-17.692-34.321-32.282-55.296-43.008-26.155-13.636-53.965-23.825-82.739-30.31-33.133-8.226-67.168-12.265-101.308-12.015-34.14-0.25-68.175 3.789-101.308 12.015-28.774 6.485-56.585 16.674-82.739 30.31-20.732 10.797-39.255 25.385-54.613 43.008-12.73 13.107-20.126 30.481-20.753 48.742v121.242c0 12.425 6.007 17.067 18.022 13.653l197.973-122.061c6.487-3.648 13.417-6.447 20.617-8.329 15.307-4.002 31.388-4.002 46.694 0 7.031 2.054 13.775 4.99 20.070 8.738zM829.030 258.66c-0.045-0.576 0.058-1.152 0.297-1.679 0.237-0.525 0.606-0.981 1.069-1.325l2.048-1.638c5.244-3.038 9.581-7.422 12.561-12.698 3.142-5.389 4.811-11.509 4.834-17.747 0.026-6.238-1.596-12.373-4.695-17.786-3.102-5.412-7.573-9.911-12.966-13.047-5.393-3.134-11.518-4.791-17.756-4.804-9.378 0-18.372 3.725-25.005 10.357-6.633 6.63-10.357 15.627-10.357 25.005 0.171 6.47 2.261 12.742 6.007 18.022 3.072 5.116 7.275 9.459 12.288 12.698 0.518 0.491 0.977 1.039 1.365 1.638 0.356 0.407 0.625 0.885 0.789 1.402s0.222 1.062 0.166 1.602v185.276c-0.243 4.885 1.203 9.707 4.096 13.653 2.837 2.566 5.952 4.811 9.284 6.69 3.405 2.052 6.965 3.831 10.65 5.325 2.731 1.775 4.506 0 5.325-6.007v-204.937z" />
<glyph unicode="&#xe924;" glyph-name="comment-filled" d="M782.933 768h-563.2c-38.826 0-70.4-31.573-70.4-70.4v-633.6l140.8 140.8h492.8c38.825 0 70.4 31.573 70.4 70.4v422.4c0 38.827-31.575 70.4-70.4 70.4zM571.733 380.8h-246.4v70.4h246.4v-70.4zM677.333 521.6h-352v70.4h352v-70.4z" />
<glyph unicode="&#xe925;" glyph-name="company-filled" d="M246.807 767.409l295.255-44.866c22.835-3.761 39.492-23.373 39.492-46.479v-548.064h-114.18v141.045c0 26.061-20.956 47.017-47.014 47.017h-67.166c-26.059 0-47.014-20.956-47.014-47.017v-141.045h-87.315c-14.775 0-26.865 12.090-26.865 26.865v566.065c0 13.702 6.179 26.867 16.657 36.001 10.477 8.866 24.448 12.627 38.151 10.478zM299.465 376.51h40.299c11.121 0 20.149 9.026 20.149 20.149s-9.028 20.149-20.149 20.149h-40.299c-11.123 0-20.149-9.026-20.149-20.149s9.026-20.149 20.149-20.149zM299.465 457.107h40.299c11.121 0 20.149 9.028 20.149 20.149 0 11.123-9.028 20.149-20.149 20.149h-40.299c-11.123 0-20.149-9.026-20.149-20.149 0-11.121 9.026-20.149 20.149-20.149zM299.465 537.705h40.299c11.121 0 20.149 9.028 20.149 20.149 0 11.123-9.028 20.149-20.149 20.149h-40.299c-11.123 0-20.149-9.026-20.149-20.149 0-11.121 9.026-20.149 20.149-20.149zM299.465 618.304h40.299c11.121 0 20.149 9.026 20.149 20.149 0 11.121-9.028 20.149-20.149 20.149h-40.299c-11.123 0-20.149-9.028-20.149-20.149 0-11.123 9.026-20.149 20.149-20.149zM433.794 376.51h40.299c11.121 0 20.149 9.026 20.149 20.149s-9.028 20.149-20.149 20.149h-40.299c-11.123 0-20.149-9.026-20.149-20.149s9.026-20.149 20.149-20.149zM433.794 457.107h40.299c11.121 0 20.149 9.028 20.149 20.149 0 11.123-9.028 20.149-20.149 20.149h-40.299c-11.123 0-20.149-9.026-20.149-20.149 0-11.121 9.026-20.149 20.149-20.149zM433.794 537.705h40.299c11.121 0 20.149 9.028 20.149 20.149 0 11.123-9.028 20.149-20.149 20.149h-40.299c-11.123 0-20.149-9.026-20.149-20.149 0-11.121 9.026-20.149 20.149-20.149zM433.794 618.304h40.299c11.121 0 20.149 9.026 20.149 20.149 0 11.121-9.028 20.149-20.149 20.149h-40.299c-11.123 0-20.149-9.028-20.149-20.149 0-11.123 9.026-20.149 20.149-20.149zM608.422 521.579l191.283-40.058c21.95-4.862 37.075-23.748 37.075-45.939v-260.546c0-25.926-21.088-47.017-47.014-47.017h-181.344v393.559zM695.735 208.617h40.299c11.123 0 20.149 9.028 20.149 20.151 0 11.121-9.026 20.149-20.149 20.149h-40.299c-11.123 0-20.149-9.028-20.149-20.149 0-11.123 9.026-20.151 20.149-20.151zM695.735 289.216h40.299c11.123 0 20.149 9.026 20.149 20.149 0 11.121-9.026 20.149-20.149 20.149h-40.299c-11.123 0-20.149-9.028-20.149-20.149 0-11.123 9.026-20.149 20.149-20.149zM695.735 369.813h40.299c11.123 0 20.149 9.026 20.149 20.149s-9.026 20.149-20.149 20.149h-40.299c-11.123 0-20.149-9.026-20.149-20.149s9.026-20.149 20.149-20.149z" />
<glyph unicode="&#xe926;" glyph-name="content-drip-filled" d="M228.96 476.444h27.040c15.71 0 28.444-12.734 28.444-28.444s-12.734-28.444-28.444-28.444h-27.040c13.342-134.385 120.211-241.254 254.596-254.596v27.040c0 15.71 12.734 28.444 28.444 28.444s28.444-12.734 28.444-28.444v-27.040c134.385 13.342 241.254 120.211 254.596 254.596h-27.040c-15.71 0-28.444 12.734-28.444 28.444s12.734 28.444 28.444 28.444h27.040c-13.342 134.385-120.211 241.254-254.596 254.596v-27.040c0-15.71-12.734-28.444-28.444-28.444s-28.444 12.734-28.444 28.444v27.040c-134.385-13.342-241.254-120.211-254.596-254.596zM170.667 448c0 188.514 152.819 341.333 341.333 341.333s341.333-152.819 341.333-341.333c0-188.514-152.819-341.333-341.333-341.333s-341.333 152.819-341.333 341.333zM512 618.667c15.71 0 28.444-12.736 28.444-28.444v-128.553l131.548-105.237c12.267-9.813 14.255-27.712 4.442-39.981-9.813-12.267-27.712-14.255-39.981-4.442l-142.221 113.777c-6.748 5.399-10.675 13.572-10.675 22.212v142.223c0 15.708 12.734 28.444 28.444 28.444z" />
<glyph unicode="&#xe927;" glyph-name="copy-filled" d="M641.933 64.002h-383.996c-11.454-0.073-22.803 2.178-33.361 6.613-10.56 4.435-20.112 10.963-28.079 19.191-8.228 7.966-14.756 17.519-19.191 28.077-4.435 10.56-6.685 21.909-6.613 33.361v512.715c-0.284 11.578 1.819 23.089 6.18 33.818 4.36 10.731 10.884 20.446 19.164 28.542 8.025 8.13 17.594 14.575 28.145 18.953s21.871 6.605 33.295 6.546h17.050c6.298 0.040 12.363-2.385 16.894-6.759 2.336-2.229 4.175-4.93 5.391-7.921 1.218-2.991 1.79-6.208 1.675-9.436-0.038-6.342-2.577-12.414-7.061-16.898s-10.556-7.023-16.898-7.063h-16.589c-10.551 0-20.67-4.19-28.13-11.65-7.462-7.462-11.652-17.581-11.652-28.13v-512.254c0-10.549 4.19-20.668 11.652-28.13 7.46-7.46 17.579-11.65 28.13-11.65h383.996c5.299-0.047 10.554 0.96 15.458 2.965 4.905 2.003 9.363 4.964 13.111 8.708 3.836 3.597 6.882 7.955 8.945 12.794s3.098 10.054 3.036 15.313v16.589c-0.041 6.3 2.385 12.363 6.758 16.896 2.225 2.302 4.902 4.117 7.863 5.333 2.959 1.216 6.14 1.807 9.34 1.732 3.145 0.004 6.259-0.617 9.158-1.83 2.901-1.214 5.532-2.993 7.738-5.235 2.27-2.182 4.068-4.809 5.284-7.714 1.214-2.908 1.822-6.031 1.781-9.182v-16.589c-0.122-23.356-9.506-45.709-26.095-62.153-16.587-16.444-39.021-25.632-62.379-25.551zM786.010 223.744h-367.563c-11.629-0.041-23.153 2.221-33.905 6.652-10.752 4.433-20.523 10.948-28.745 19.172-8.224 8.222-14.739 17.993-19.172 28.745-4.431 10.752-6.692 22.274-6.652 33.905v432.073c-0.070 11.454 2.178 22.802 6.613 33.362s10.963 20.111 19.191 28.078c8.109 8.412 17.85 15.079 28.625 19.596s22.359 6.786 34.044 6.67h272.331c15.844 0.109 31.537-3.082 46.080-9.37 14.291-6.225 27.349-14.965 38.554-25.805l63.744-63.898c10.967-11.362 19.765-24.638 25.956-39.166 6.289-14.543 9.481-30.238 9.37-46.080v-335.46c0.041-11.631-2.219-23.153-6.652-33.905-4.431-10.752-10.946-20.523-19.17-28.745-8.224-8.224-17.993-14.739-28.745-19.172-10.752-4.431-22.276-6.692-33.905-6.652zM418.447 784.073c-5.274 0.035-10.502-0.979-15.379-2.983-4.879-2.004-9.31-4.958-13.037-8.69-3.836-3.599-6.882-7.956-8.945-12.795s-3.095-10.054-3.036-15.314v-432.073c0.119-10.677 4.414-20.883 11.964-28.433s17.756-11.844 28.433-11.964h367.563c10.675 0.119 20.881 4.414 28.431 11.964s11.844 17.756 11.966 28.433v335.46c0.021 9.393-1.86 18.692-5.53 27.341-3.782 8.676-8.973 16.67-15.36 23.652l-63.744 64.359c-6.985 6.389-14.976 11.579-23.654 15.36-8.642 3.702-17.939 5.635-27.341 5.683h-272.331zM722.266 559.819h-240.075c-3.151-0.041-6.274 0.567-9.18 1.781-2.908 1.216-5.534 3.014-7.716 5.284-2.278 2.178-4.081 4.802-5.297 7.71s-1.818 6.035-1.769 9.186c-0.203 3.307 0.326 6.615 1.549 9.696 1.22 3.078 3.104 5.852 5.517 8.122 4.533 4.373 10.596 6.799 16.896 6.758h240.075c6.086-0.117 11.902-2.532 16.282-6.758 2.332-2.202 4.169-4.875 5.387-7.84 1.218-2.967 1.79-6.159 1.679-9.363 0.049-3.151-0.553-6.278-1.769-9.186s-3.021-5.532-5.297-7.71c-2.059-2.308-4.563-4.177-7.36-5.495-2.797-1.321-5.83-2.063-8.922-2.185zM722.266 463.819h-240.075c-3.151-0.038-6.274 0.567-9.18 1.783-2.908 1.214-5.534 3.012-7.716 5.282-2.278 2.178-4.081 4.804-5.297 7.712-1.216 2.906-1.818 6.033-1.769 9.184-0.111 3.204 0.461 6.398 1.679 9.363s3.055 5.638 5.387 7.84c4.533 4.373 10.596 6.799 16.896 6.758h240.075c6.298 0.041 12.363-2.385 16.896-6.758 2.332-2.202 4.169-4.875 5.387-7.84s1.79-6.159 1.679-9.363c0.049-3.151-0.555-6.278-1.769-9.184-1.216-2.908-3.021-5.534-5.297-7.712-2.144-2.353-4.751-4.237-7.661-5.532-2.908-1.297-6.052-1.975-9.235-1.995v0.461zM722.266 367.821h-240.075c-3.151-0.041-6.274 0.565-9.18 1.781-2.908 1.216-5.534 3.014-7.716 5.284-2.278 2.178-4.081 4.802-5.297 7.71s-1.818 6.035-1.769 9.186c-0.111 3.204 0.461 6.396 1.679 9.361 1.218 2.967 3.055 5.641 5.387 7.842 4.533 4.371 10.596 6.797 16.896 6.758h240.075c6.298 0.038 12.363-2.387 16.896-6.758 2.332-2.202 4.169-4.875 5.387-7.842 1.218-2.965 1.79-6.157 1.679-9.361 0.049-3.151-0.555-6.278-1.769-9.186-1.216-2.908-3.021-5.532-5.297-7.71-2.185-2.27-4.811-4.068-7.716-5.284s-6.031-1.822-9.18-1.781z" />
<glyph unicode="&#xe928;" d="M480.949 513.54c-19.055 0-34.5-15.445-34.5-34.5v-279.452c0-19.055 15.445-34.5 34.5-34.5h279.452c19.055 0 34.5 15.445 34.5 34.5v279.452c0 19.055-15.445 34.5-34.5 34.5h-279.452zM391.249 479.040c0 49.54 40.16 89.702 89.7 89.702h279.452c49.54 0 89.7-40.162 89.7-89.702v-279.452c0-49.54-40.16-89.7-89.7-89.7h-279.452c-49.54 0-89.7 40.16-89.7 89.7v279.452z" />
<glyph unicode="&#xe929;" d="M388.021 479.053c0 51.328 41.609 92.937 92.937 92.937h279.452c51.326 0 92.934-41.609 92.934-92.937v-279.452c0-51.326-41.609-92.934-92.934-92.934h-279.452c-51.328 0-92.937 41.609-92.937 92.934v279.452zM480.958 565.519c-47.755 0-86.466-38.711-86.466-86.466v-279.452c0-47.755 38.711-86.466 86.466-86.466h279.452c47.755 0 86.466 38.711 86.466 86.466v279.452c0 47.755-38.711 86.466-86.466 86.466h-279.452zM480.958 510.319c-17.267 0-31.266-13.997-31.266-31.266v-279.452c0-17.267 13.999-31.266 31.266-31.266h279.452c17.267 0 31.266 13.999 31.266 31.266v279.452c0 17.269-13.999 31.266-31.266 31.266h-279.452zM443.223 479.053c0 20.841 16.894 37.734 37.734 37.734h279.452c20.841 0 37.734-16.894 37.734-37.734v-279.452c0-20.841-16.894-37.734-37.734-37.734h-279.452c-20.841 0-37.734 16.894-37.734 37.734v279.452z" />
<glyph unicode="&#xe92a;" d="M263.614 730.897c-9.15 0-17.924-3.635-24.395-10.106s-10.106-15.245-10.106-24.395v-279.454c0-9.15 3.635-17.924 10.106-24.395s15.245-10.106 24.395-10.106h31.051c15.243 0 27.601-12.356 27.601-27.599 0-15.245-12.358-27.601-27.601-27.601h-31.051c-23.789 0-46.605 9.451-63.427 26.272-16.822 16.823-26.273 39.639-26.273 63.428v279.454c0 23.789 9.451 46.605 26.273 63.427s39.638 26.273 63.427 26.273h279.454c23.789 0 46.605-9.45 63.428-26.273 16.821-16.822 26.272-39.638 26.272-63.427v-31.051c0-15.243-12.356-27.601-27.601-27.601-15.243 0-27.599 12.358-27.599 27.601v31.051c0 9.15-3.635 17.924-10.106 24.395s-15.245 10.106-24.395 10.106h-279.454z" />
<glyph unicode="&#xe92b;" d="M197.887 762.113c17.428 17.429 41.068 27.22 65.714 27.22h279.454c24.646 0 48.286-9.791 65.715-27.22 17.427-17.428 27.219-41.068 27.219-65.714v-31.051c0-17.030-13.805-30.835-30.835-30.835-17.028 0-30.833 13.805-30.833 30.835v31.051c0 8.292-3.296 16.243-9.158 22.108-5.865 5.862-13.815 9.158-22.108 9.158h-279.454c-8.292 0-16.243-3.296-22.108-9.158-5.862-5.865-9.158-13.815-9.158-22.108v-279.454c0-8.292 3.296-16.243 9.158-22.108 5.865-5.862 13.815-9.158 22.108-9.158h31.051c17.030 0 30.835-13.805 30.835-30.833 0-17.030-13.805-30.835-30.835-30.835h-31.051c-24.646 0-48.286 9.792-65.714 27.219-17.429 17.429-27.22 41.069-27.22 65.715v279.454c0 24.646 9.791 48.286 27.22 65.714zM263.601 782.864c-22.931 0-44.924-9.11-61.14-25.325-16.215-16.217-25.325-38.209-25.325-61.14v-279.454c0-22.931 9.11-44.924 25.325-61.139 16.217-16.218 38.209-25.327 61.14-25.327h31.051c13.457 0 24.367 10.91 24.367 24.367s-10.91 24.365-24.367 24.365h-31.051c-10.007 0-19.605 3.977-26.682 11.053s-11.053 16.674-11.053 26.682v279.454c0 10.007 3.977 19.605 11.053 26.682s16.674 11.053 26.682 11.053h279.454c10.007 0 19.605-3.977 26.682-11.053s11.053-16.674 11.053-26.682v-31.051c0-13.457 10.908-24.367 24.365-24.367s24.367 10.91 24.367 24.367v31.051c0 22.931-9.109 44.924-25.327 61.14-16.215 16.215-38.208 25.325-61.139 25.325h-279.454z" />
<glyph unicode="&#xe92c;" glyph-name="cross-circle-outline-filled" d="M512 742.645c-78.144 0-153.088-31.042-208.346-86.3s-86.3-130.202-86.3-208.346c0-38.694 7.62-77.007 22.428-112.755s36.512-68.23 63.872-95.59c27.36-27.36 59.842-49.065 95.59-63.872s74.061-22.428 112.755-22.428c38.694 0 77.007 7.62 112.755 22.428s68.23 36.512 95.59 63.872c27.36 27.36 49.065 59.842 63.872 95.59s22.428 74.061 22.428 112.755c0 78.144-31.042 153.088-86.3 208.346s-130.202 86.3-208.346 86.3zM255.556 704.444c68.013 68.013 160.258 106.223 256.444 106.223s188.431-38.209 256.444-106.223c68.013-68.013 106.223-160.258 106.223-256.444 0-47.627-9.38-94.786-27.605-138.786-18.227-44.002-44.941-83.981-78.618-117.658s-73.655-60.39-117.658-78.618c-44-18.225-91.159-27.605-138.786-27.605s-94.786 9.38-138.786 27.605c-44.002 18.227-83.981 44.941-117.658 78.618s-60.391 73.655-78.617 117.658c-18.226 44-27.606 91.159-27.606 138.786 0 96.186 38.209 188.431 106.223 256.444zM414.916 545.084c13.282 13.282 34.816 13.282 48.098 0l48.986-48.986 48.986 48.986c13.282 13.282 34.816 13.282 48.098 0s13.282-34.816 0-48.098l-48.986-48.986 48.986-48.986c13.282-13.282 13.282-34.816 0-48.098s-34.816-13.282-48.098 0l-48.986 48.986-48.986-48.986c-13.282-13.282-34.816-13.282-48.098 0s-13.282 34.816 0 48.098l48.986 48.986-48.986 48.986c-13.282 13.282-13.282 34.816 0 48.098z" />
<glyph unicode="&#xe92d;" glyph-name="cross-cricle-filled" d="M512 85.333c-200.294 0-362.667 162.372-362.667 362.667s162.372 362.667 362.667 362.667c200.294 0 362.667-162.372 362.667-362.667s-162.372-362.667-362.667-362.667zM692.591 322.519c0.043 4.279-0.685 8.533-2.15 12.553-1.589 3.866-3.934 7.375-6.893 10.323l-102.803 102.643 103.174 102.566c3.012 2.991 5.397 6.556 7.012 10.485 1.617 3.927 2.434 8.141 2.4 12.39 0.081 8.894-3.294 17.47-9.412 23.915l-22.829 22.876c-3.196 3.002-6.948 5.348-11.044 6.908-3.996 1.425-8.209 2.155-12.452 2.153-4.271 0.043-8.514-0.687-12.525-2.153-3.868-1.577-7.373-3.927-10.304-6.908l-102.432-103.014-102.803 103.014c-2.953 3.021-6.515 5.376-10.451 6.908-3.942 1.434-8.107 2.163-12.303 2.153-4.318 0.028-8.606-0.702-12.674-2.153-4.032-1.598-7.729-3.94-10.895-6.908l-22.754-22.876c-3.057-3.213-5.406-7.034-6.895-11.215-1.421-4.083-2.146-8.375-2.148-12.7-0.049-4.256 0.681-8.484 2.148-12.478 1.538-3.917 3.887-7.46 6.895-10.398l102.061-102.566-102.432-102.643c-3.012-2.991-5.397-6.556-7.014-10.483-1.615-3.93-2.432-8.143-2.4-12.393 0.015-4.294 0.819-8.548 2.372-12.55 1.587-4.211 3.979-8.070 7.042-11.364l22.829-22.876c3.17-2.999 6.897-5.346 10.97-6.906 4.019-1.436 8.258-2.165 12.525-2.155 4.247-0.049 8.467 0.681 12.452 2.155 3.891 1.574 7.42 3.923 10.377 6.906l102.359 103.386 102.803-103.236c2.985-3.019 6.571-5.372 10.524-6.908 3.942-1.44 8.109-2.17 12.305-2.153 4.318-0.028 8.606 0.702 12.674 2.153 4.017 1.581 7.693 3.927 10.82 6.908l22.829 22.876c3.031 3.232 5.376 7.049 6.893 11.215 1.393 4.038 2.121 8.277 2.15 12.55z" />
<glyph unicode="&#xe92e;" glyph-name="cross-filled" d="M283.74 685.318c12.497 12.495 32.759 12.495 45.257 0l192.060-192.062 192.060 192.062c12.497 12.495 32.757 12.495 45.254 0 12.497-12.497 12.497-32.759 0-45.257l-192.060-192.060 192.060-192.060c12.497-12.497 12.497-32.757 0-45.254s-32.757-12.497-45.254 0l-192.060 192.060-192.060-192.060c-12.497-12.497-32.759-12.497-45.257 0s-12.497 32.757 0 45.254l192.060 192.060-192.060 192.060c-12.497 12.497-12.497 32.759 0 45.257z" />
<glyph unicode="&#xe92f;" glyph-name="crown-filled" d="M761.6 209.067h-499.2c-10.56 0-19.2-8.64-19.2-19.2v-38.4c0-10.56 8.64-19.2 19.2-19.2h499.2c10.56 0 19.2 8.64 19.2 19.2v38.4c0 10.56-8.64 19.2-19.2 19.2zM838.4 593.067c-31.799 0-57.6-25.801-57.6-57.6 0-8.521 1.92-16.439 5.28-23.761l-86.88-52.079c-18.481-11.040-42.359-4.8-53.041 13.92l-97.798 171.121c12.838 10.56 21.239 26.4 21.239 44.399 0 31.799-25.801 57.6-57.6 57.6s-57.6-25.801-57.6-57.6c0-17.999 8.401-33.839 21.239-44.399l-97.801-171.121c-10.679-18.72-34.679-24.96-53.039-13.92l-86.761 52.079c3.241 7.202 5.28 15.241 5.28 23.761 0 31.799-25.801 57.6-57.6 57.6s-57.72-25.801-57.72-57.6c0-31.799 25.8-57.6 57.6-57.6 3.12 0 6.24 0.48 9.24 0.96l86.76-231.36h460.8l86.761 231.36c2.999-0.48 6.118-0.96 9.239-0.96 31.799 0 57.6 25.801 57.6 57.6s-25.801 57.6-57.6 57.6z" />
<glyph unicode="&#xe930;" glyph-name="customize-filled" d="M306.583 746.658c23.657 0 42.835-18.185 42.835-40.617v-516.085c0-22.434-19.179-40.619-42.835-40.619-23.659 0-42.837 18.185-42.837 40.619v516.085c0 22.432 19.179 40.617 42.837 40.617zM213.325 347.65c0 22.432 19.179 40.617 42.835 40.617h100.791c23.657 0 42.835-18.185 42.835-40.617s-19.179-40.619-42.835-40.619h-100.791c-23.657 0-42.835 18.187-42.835 40.619zM760.117 746.66c23.657 0 42.835-18.187 42.835-40.619v-516.085c0-22.432-19.179-40.617-42.835-40.617-23.659 0-42.837 18.185-42.837 40.617v516.085c0 22.432 19.179 40.619 42.837 40.619zM666.852 347.65c0 22.432 19.179 40.619 42.835 40.619h100.791c23.657 0 42.835-18.187 42.835-40.619s-19.179-40.619-42.835-40.619h-100.791c-23.657 0-42.835 18.187-42.835 40.619zM533.363 149.346c23.659 0 42.835 18.187 42.835 40.619v516.085c0 22.432-19.177 40.618-42.835 40.618-23.657 0-42.835-18.186-42.835-40.618v-516.085c0-22.432 19.179-40.619 42.835-40.619zM440.111 524.459c0-22.432 19.179-40.617 42.835-40.617h100.791c23.657 0 42.835 18.185 42.835 40.617s-19.179 40.619-42.835 40.619h-100.791c-23.657 0-42.835-18.187-42.835-40.619z" />
<glyph unicode="&#xe931;" glyph-name="dashboard-filled" d="M826.067 516.548c9.261-20.649 16.179-42.27 20.621-64.461 10.797-54.4 8.41-110.594-6.965-163.881-9.271-31.424-23.072-61.327-40.971-88.77-1.971-3.326-4.802-6.063-8.192-7.921-3.633-1.86-7.665-2.799-11.746-2.731h-534.255c-4.038-0.085-8.032 0.853-11.607 2.731-3.294 1.971-5.986 4.804-7.785 8.194-18.026 27.273-31.838 57.107-40.97 88.497-15.264 53.306-17.651 109.472-6.965 163.881 4.442 22.191 11.359 43.812 20.622 64.461 8.573 20.446 19.092 40.019 31.41 58.451 12.009 18.033 25.728 34.863 40.971 50.257 15.373 15.458 32.307 29.28 50.53 41.244 18.615 12.013 38.161 22.517 58.451 31.411 20.762 8.964 42.351 15.872 64.461 20.621 45.071 9.069 91.497 9.069 136.567 0 22.11-4.749 43.701-11.657 64.461-20.621 20.29-8.894 39.838-19.398 58.451-31.411 18.067-11.902 34.863-25.63 50.121-40.971 15.285-15.358 29.009-32.192 40.971-50.257 12.476-18.502 23.132-38.17 31.821-58.724zM302.601 349.798c4.738 4.16 8.393 9.41 10.652 15.296 4.405 12.083 4.405 25.335 0 37.419-2.464 5.975-6.084 11.405-10.656 15.974-4.57 4.572-9.999 8.192-15.974 10.656-12.083 4.405-25.335 4.405-37.419 0-5.886-2.259-11.136-5.914-15.296-10.652-4.676-4.57-8.431-9.993-11.061-15.979-4.917-11.987-4.917-25.431 0-37.419 2.509-5.856 6.287-11.078 11.061-15.296 4.218-4.774 9.44-8.553 15.296-11.061 5.933-2.434 12.297-3.642 18.709-3.552 6.413-0.090 12.777 1.118 18.709 3.552 5.986 2.63 11.409 6.385 15.979 11.061zM386.317 535.804c4.734 12.026 4.734 25.395 0 37.421-2.746 5.724-6.438 10.94-10.925 15.433-4.508 4.646-9.954 8.279-15.979 10.652-12.083 4.405-25.335 4.405-37.419 0-5.634-2.505-10.699-6.129-14.886-10.652-4.301-4.704-7.765-10.108-10.242-15.979-4.919-11.989-4.919-25.431 0-37.421 2.402-5.587 5.884-10.645 10.242-14.886 4.57-4.674 9.993-8.431 15.979-11.061 12.023-4.734 25.395-4.734 37.419 0 5.596 2.748 10.641 6.498 14.886 11.061 4.655 4.346 8.373 9.598 10.925 15.433zM591.17 517.231c0.909 3.008 1.141 6.178 0.683 9.286-0.393 3.089-1.515 6.037-3.279 8.604-1.581 2.893-3.77 5.41-6.417 7.375-2.505 1.83-5.331 3.174-8.331 3.962-2.995 0.973-6.182 1.205-9.289 0.683-3.038-0.369-5.993-1.248-8.74-2.596-2.871-1.675-5.342-3.959-7.236-6.692-1.773-2.703-3.153-5.647-4.098-8.74l-38.513-145.308c-7.418-0.932-14.705-2.72-21.713-5.327-6.895-2.737-13.303-6.564-18.982-11.334-9.549-7.906-16.937-18.103-21.474-29.638s-6.076-24.032-4.474-36.324c1.408-9.594 4.555-18.848 9.286-27.313 4.881-8.346 11.328-15.671 18.982-21.579 7.697-5.724 16.41-9.941 25.675-12.427 9.399-2.161 19.095-2.714 28.678-1.638 9.73 1.084 19.078 4.401 27.315 9.696 8.553 4.636 16.043 11.008 21.986 18.709 5.794 7.703 9.888 16.548 12.019 25.948 2.129 7.264 3.008 14.839 2.594 22.398-0.8 7.383-2.686 14.609-5.6 21.44-2.372 7.253-5.975 14.046-10.652 20.077-4.721 5.745-10.349 10.682-16.661 14.613l38.24 146.127zM477.271 662.539c-4.301-4.702-7.765-10.106-10.242-15.979-4.917-11.987-4.917-25.429 0-37.419 2.477-5.871 5.941-11.275 10.242-15.979 4.704-4.301 10.108-7.765 15.979-10.242 11.989-4.917 25.431-4.917 37.419 0 5.873 2.477 11.277 5.941 15.979 10.242 4.343 4.698 7.853 10.101 10.381 15.979 4.732 12.023 4.732 25.395 0 37.419-2.528 5.879-6.037 11.281-10.381 15.979-4.698 4.343-10.099 7.853-15.979 10.381-11.987 4.917-25.429 4.917-37.419 0-5.877-2.528-11.281-6.037-15.979-10.381zM648.529 520.371c4.567-4.674 9.993-8.431 15.977-11.061 12.026-4.734 25.397-4.734 37.421 0 5.596 2.748 10.641 6.498 14.886 11.061 4.444 4.356 7.972 9.557 10.379 15.296 4.734 12.026 4.734 25.395 0 37.421-2.566 5.732-6.076 10.995-10.379 15.569-4.508 4.646-9.956 8.279-15.979 10.652-12.085 4.405-25.335 4.405-37.421 0-5.632-2.505-10.697-6.129-14.884-10.652-4.301-4.704-7.765-10.108-10.244-15.979-4.917-11.989-4.917-25.431 0-37.421 2.404-5.587 5.884-10.645 10.244-14.886zM790.56 349.662c4.772 4.218 8.55 9.44 11.061 15.296 4.917 11.987 4.917 25.431 0 37.419-2.63 5.986-6.387 11.409-11.061 15.979-4.162 4.738-9.41 8.393-15.296 10.652-5.984 2.227-12.326 3.337-18.711 3.279-6.383 0.047-12.721-1.065-18.709-3.279-6.101-2.387-11.661-5.975-16.352-10.549s-8.418-10.042-10.961-16.081c-4.405-12.083-4.405-25.335 0-37.419 2.259-5.886 5.916-11.136 10.652-15.296 4.57-4.676 9.995-8.431 15.979-11.061 12.023-4.734 25.395-4.734 37.421 0 5.916 2.53 11.189 6.357 15.43 11.198l0.548-0.137z" />
<glyph unicode="&#xe932;" glyph-name="delete-fill-filled" d="M274.603 188c0-15.913 6.313-31.174 17.547-42.426s26.47-17.574 42.357-17.574h359.426c15.889 0 31.125 6.321 42.359 17.574 11.234 11.251 17.547 26.513 17.547 42.426v420h-479.236v-420zM614.061 508c0 5.303 2.103 10.391 5.85 14.142 3.744 3.75 8.823 5.858 14.118 5.858 5.297 0 10.374-2.108 14.121-5.858 3.744-3.75 5.847-8.838 5.847-14.142v-280c0-5.303-2.103-10.391-5.847-14.142-3.746-3.75-8.823-5.858-14.121-5.858-5.295 0-10.374 2.108-14.118 5.858-3.746 3.75-5.85 8.838-5.85 14.142v280zM494.253 508c0 5.303 2.103 10.391 5.847 14.142 3.746 3.75 8.823 5.858 14.121 5.858 5.295 0 10.374-2.108 14.118-5.858 3.746-3.75 5.85-8.838 5.85-14.142v-280c0-5.303-2.103-10.391-5.85-14.142-3.744-3.75-8.823-5.858-14.118-5.858-5.297 0-10.374 2.108-14.121 5.858-3.744 3.75-5.847 8.838-5.847 14.142v280zM374.443 508c0 5.303 2.106 10.391 5.85 14.142s8.823 5.858 14.118 5.858c5.297 0 10.377-2.108 14.121-5.858s5.85-8.838 5.85-14.142v-280c0-5.303-2.106-10.391-5.85-14.142s-8.823-5.858-14.121-5.858c-5.295 0-10.374 2.108-14.118 5.858s-5.85 8.838-5.85 14.142v280zM773.807 728h-149.762l-11.731 23.375c-2.485 4.997-6.313 9.201-11.053 12.138s-10.206 4.491-15.778 4.487h-142.647c-5.562 0.021-11.017-1.527-15.74-4.467-4.725-2.94-8.525-7.154-10.967-12.158l-11.731-23.375h-149.762c-5.295 0-10.374-2.108-14.121-5.858-3.744-3.75-5.847-8.838-5.847-14.142v-40c0-5.303 2.103-10.391 5.847-14.142 3.746-3.75 8.826-5.858 14.121-5.858h519.172c5.295 0 10.374 2.108 14.118 5.858 3.746 3.75 5.85 8.838 5.85 14.142v40c0 5.303-2.103 10.391-5.85 14.142-3.744 3.75-8.823 5.858-14.118 5.858z" />
<glyph unicode="&#xe933;" glyph-name="delete-stroke-filled" d="M192.003 653.643c0 17.946 14.547 32.493 32.49 32.493h596.35c17.943 0 32.491-14.547 32.491-32.493 0-17.943-14.547-32.491-32.491-32.491h-596.35c-17.944 0-32.49 14.547-32.49 32.491zM455.095 744.535c-9.574 0-18.592-3.712-25.107-10.059-6.487-6.319-9.969-14.701-9.969-23.255v-33.312h205.286v33.312c0 8.555-3.482 16.937-9.969 23.255-6.515 6.347-15.531 10.059-25.107 10.059h-135.134zM690.287 677.909h68.86c17.943 0 32.491-14.547 32.491-32.491v-460.629c0-26.349-10.756-51.441-29.613-69.805-18.827-18.336-44.181-28.489-70.445-28.489h-337.835c-26.263 0-51.618 10.153-70.445 28.489-18.854 18.364-29.611 43.456-29.611 69.805v460.629c0 17.943 14.545 32.491 32.491 32.491h68.858v33.312c0 26.351 10.756 51.444 29.613 69.807 18.827 18.335 44.181 28.488 70.445 28.488h135.134c26.263 0 51.618-10.153 70.445-28.488 18.857-18.364 29.613-43.456 29.613-69.807v-33.312zM318.671 612.928v-428.139c0-8.553 3.479-16.937 9.967-23.253 6.517-6.347 15.533-10.059 25.107-10.059h337.835c9.574 0 18.592 3.712 25.107 10.059 6.487 6.317 9.969 14.701 9.969 23.253v428.139h-407.985zM450.69 521.626c17.943 0 32.491-14.547 32.491-32.491v-205.638c0-17.943-14.547-32.491-32.491-32.491s-32.491 14.547-32.491 32.491v205.638c0 17.943 14.547 32.491 32.491 32.491zM594.65 521.626c17.943 0 32.491-14.547 32.491-32.491v-205.638c0-17.943-14.547-32.491-32.491-32.491s-32.491 14.547-32.491 32.491v205.638c0 17.943 14.547 32.491 32.491 32.491z" />
<glyph unicode="&#xe934;" glyph-name="design-filled" d="M317.001 354.253c10.355 0 18.75 8.395 18.75 18.75s-8.395 18.75-18.75 18.75c-10.355 0-18.75-8.395-18.75-18.75s8.395-18.75 18.75-18.75zM317.001 504.254c10.355 0 18.75 8.395 18.75 18.75s-8.395 18.75-18.75 18.75c-10.355 0-18.75-8.395-18.75-18.75s8.395-18.75 18.75-18.75zM417.001 235.503c10.355 0 18.75 8.395 18.75 18.75s-8.395 18.75-18.75 18.75c-10.355 0-18.75-8.395-18.75-18.75s8.395-18.75 18.75-18.75zM417.001 623.004c10.355 0 18.75 8.395 18.75 18.75s-8.395 18.75-18.75 18.75c-10.355 0-18.75-8.395-18.75-18.75s8.395-18.75 18.75-18.75zM557.34 349.453c-6.893 10.72-14.020 21.807-20.469 32.785-23.825 40.563-23.825 90.961 0 131.526 6.449 10.976 13.577 22.063 20.469 32.785 19.447 30.251 37.813 58.825 44.542 88.518 8.215 36.247-3.226 68.137-34.010 94.78-20.992 18.169-46.91 30.444-74.953 35.499-27.017 4.874-55.507 2.991-82.394-5.441-61.574-19.303-117.045-60.010-156.201-114.617-40.774-56.87-62.325-125.090-62.325-197.289s21.551-140.418 62.325-197.289c39.153-54.607 94.626-95.313 156.201-114.615 17.137-5.374 34.923-8.087 52.567-8.087 10.035 0 20.030 0.879 29.826 2.645 28.043 5.054 53.961 17.329 74.953 35.499 30.782 26.643 42.223 58.532 34.010 94.78-6.729 29.696-25.097 58.27-44.542 88.521zM317.001 579.249c31.017 0 56.25-25.233 56.25-56.25s-25.233-56.25-56.25-56.25c-31.017 0-56.25 25.233-56.25 56.25s25.233 56.25 56.25 56.25zM317.001 316.751c-31.017 0-56.25 25.233-56.25 56.25s25.233 56.25 56.25 56.25c31.017 0 56.25-25.233 56.25-56.25s-25.233-56.25-56.25-56.25zM417.001 197.999c-31.017 0-56.25 25.235-56.25 56.252s25.233 56.25 56.25 56.25c31.017 0 56.25-25.233 56.25-56.25s-25.233-56.252-56.25-56.252zM417.001 585.5c-31.017 0-56.25 25.233-56.25 56.25s25.233 56.252 56.25 56.252c31.017 0 56.25-25.235 56.25-56.252s-25.233-56.25-56.25-56.25zM769.747 688.013l-40.307 70.54c-3.339 5.841-9.551 9.447-16.279 9.447s-12.941-3.606-16.279-9.447l-40.309-70.54c-11.661-20.405-11.58-44.723 0.218-65.050 2.972-5.12 6.551-9.696 10.592-13.713h91.558c4.038 4.017 7.62 8.593 10.59 13.713 11.797 20.326 11.881 44.644 0.218 65.050zM639.908 465.5h146.507l5.397 58.479c1.126 12.222-2.967 24.433-11.238 33.502-8.269 9.069-20.051 14.27-32.326 14.27h-70.174c-12.273 0-24.058-5.201-32.326-14.27-8.271-9.069-12.367-21.28-11.238-33.502l5.399-58.479zM643.369 428l23.825-258.078c2.204-23.9 21.965-41.922 45.967-41.922 24 0 43.763 18.020 45.969 41.92l23.823 258.080h-139.584z" />
<glyph unicode="&#xe935;" glyph-name="detail-link-filled" d="M270.654 623.838c-10.059 0-19.706-3.996-26.818-11.108s-11.108-16.759-11.108-26.818v-379.258c0-10.059 3.996-19.706 11.108-26.818s16.759-11.108 26.818-11.108h379.258c10.059 0 19.706 3.996 26.818 11.108s11.108 16.759 11.108 26.818v206.867c0 17.139 13.892 31.031 31.031 31.031 17.137 0 31.029-13.892 31.029-31.031v-206.867c0-26.519-10.534-51.951-29.284-70.701-18.752-18.752-44.183-29.286-70.703-29.286h-379.258c-26.519 0-51.951 10.534-70.702 29.286-18.751 18.75-29.285 44.181-29.285 70.701v379.258c0 26.519 10.534 51.951 29.285 70.703 18.751 18.75 44.182 29.284 70.702 29.284h206.867c17.139 0 31.031-13.892 31.031-31.029 0-17.139-13.892-31.031-31.031-31.031h-206.867zM584.403 758.303c0 17.138 13.894 31.030 31.031 31.030h206.869c17.137 0 31.029-13.893 31.029-31.030v-206.868c0-17.137-13.892-31.031-31.029-31.031-17.139 0-31.031 13.894-31.031 31.031v175.838h-175.838c-17.137 0-31.031 13.892-31.031 31.030zM844.245 780.245c12.117-12.118 12.117-31.765 0-43.884l-379.26-379.258c-12.117-12.119-31.765-12.119-43.883 0-12.119 12.117-12.119 31.765 0 43.883l379.258 379.259c12.119 12.118 31.765 12.118 43.885 0z" />
<glyph unicode="&#xe936;" glyph-name="discount-filled-2" d="M563.198 675.441c-81.749 75.504-89.382 82.553-98.383 86.383-0.926 0.394-1.867 0.755-2.906 1.152-0.418 0.16-0.851 0.325-1.303 0.502-22.912 9.088-50.172 4.336-69.003-12.987l-187.722-172.732c-21.108-19.413-33.214-47.040-33.214-75.812v-305.877c0-36.038 29.174-65.372 65.028-65.372h401.606c35.855 0 65.028 29.333 65.028 65.372v305.877c0.002 28.772-12.107 56.399-33.199 75.812-44.89 41.306-79.334 73.116-105.933 97.681zM417.15 643.332c1.214 11.625 11.874 19.878 23.802 17.641 11.409-2.379 17.835-13.325 15.708-23.52-2.261-10.861-12.478-17.779-23.52-15.706-10.547 2.199-16.983 11.78-15.989 21.585zM273.508 463.362c0 38.598 28.269 69.999 63.014 69.999 34.763 0 63.029-31.401 63.029-69.999 0-38.601-28.269-70.014-63.029-70.014-34.746 0-63.014 31.413-63.014 70.014zM388.164 250.483c-14.133 0-23.998 14.492-18.426 27.746l97.361 232.051c4.279 10.187 16 14.987 26.187 10.707 10.187-4.267 14.974-16 10.707-26.187l-97.376-232.051c-3.213-7.652-10.626-12.267-18.453-12.267zM538.34 234.697c-34.748 0-63.014 31.401-63.014 69.999 0 38.601 28.269 70.014 63.014 70.014 34.748 0 63.027-31.413 63.027-70.014 0-38.598-28.279-69.999-63.027-69.999zM313.508 463.366c0 16.252 10.534 29.999 23.014 29.999s23.027-13.747 23.027-29.999c0-16.267-10.547-30.014-23.027-30.014-12.482 0-23.014 13.747-23.014 30.014zM515.33 304.698c0 16.267 10.534 30.012 23.014 30.012s23.027-13.745 23.027-30.012c0-16.254-10.547-30.001-23.027-30.001-12.482 0-23.014 13.747-23.014 30.001zM807.044 478.253c12.077-35.162 25.862-75.298 41.269-120.147 13.653-32.678-1.481-70.479-34.027-84.559l-71.949-30.799v259.198c0 39.932-16.815 78.291-46.133 105.252l-147.484 135.703c135.582-32.166 136.444-32.326 137.244-32.64 0.055-0.021 0.111-0.045 0.213-0.079 27.012-9.321 49.013-29.707 60.333-55.919 0.393-0.915 21.564-62.556 60.533-176.011z" />
<glyph unicode="&#xe937;" glyph-name="discount-filled-filled" d="M832.002 410.046c3.989-4.951 6.799-10.743 8.218-16.941 1.421-6.197 1.41-12.638-0.026-18.831-1.218-6.217-3.861-12.066-7.725-17.088-3.861-5.024-8.834-9.082-14.53-11.857l-15.428-8.599c-7.966-4.529-14.351-11.39-18.293-19.661-4.241-8.437-5.538-18.048-3.686-27.307l3.413-17.34c1.084-6.191 0.862-12.542-0.655-18.643s-4.292-11.817-8.151-16.781c-3.857-4.962-8.71-9.065-14.249-12.041-5.538-2.974-11.637-4.757-17.905-5.235h-17.34c-9.397-0.282-18.43-3.693-25.666-9.694-7.262-5.905-12.51-13.92-15.019-22.938l-3.959-16.657c-1.559-6.159-4.461-11.9-8.497-16.809s-9.107-8.866-14.85-11.588c-5.645-2.948-11.887-4.565-18.253-4.732s-12.685 1.126-18.475 3.776l-17.611 6.554c-8.412 3.593-17.786 4.265-26.624 1.911-9.026-1.975-17.199-6.754-23.347-13.653l-11.332-13.653c-4.017-4.941-9.101-8.907-14.871-11.603-5.769-2.694-12.075-4.049-18.441-3.962-6.281-0.128-12.514 1.111-18.266 3.635-5.754 2.522-10.889 6.268-15.049 10.974l-12.015 13.653c-6.052 7.014-14.266 11.817-23.345 13.653-9.186 2.020-18.78 0.964-27.307-3.004l-15.974-6.69c-5.788-2.515-12.047-3.759-18.355-3.646-6.308 0.111-12.521 1.574-18.214 4.292s-10.739 6.626-14.795 11.46c-4.053 4.836-7.025 10.483-8.708 16.565l-5.325 16.655c-1.99 9.065-7.177 17.109-14.609 22.665-7.522 5.681-16.651 8.836-26.078 9.011l-17.338 0.683c-6.308 0.096-12.514 1.606-18.161 4.418s-10.592 6.854-14.47 11.829c-4.117 4.892-7.089 10.643-8.695 16.834-1.606 6.189-1.807 12.659-0.589 18.935l2.594 17.203c1.873 9.259 0.574 18.876-3.686 27.307-3.962 8.482-10.639 15.403-18.978 19.661l-15.291 8.055c-5.705 2.743-10.695 6.773-14.58 11.772s-6.559 10.829-7.811 17.035c-1.5 6.121-1.642 12.493-0.416 18.673s3.792 12.015 7.515 17.099l9.967 14.609c5.401 7.439 8.142 16.48 7.782 25.666-0.207 9.399-3.096 18.541-8.328 26.351l-10.649 13.653c-3.834 5.030-6.519 10.839-7.866 17.018s-1.323 12.58 0.069 18.748c1.392 6.17 4.12 11.959 7.991 16.96 3.871 5.003 8.791 9.094 14.414 11.989l15.291 8.602c8.034 4.484 14.474 11.354 18.432 19.661 4.134 8.469 5.38 18.061 3.55 27.305l-3.277 17.34c-1.178 6.238-0.981 12.657 0.576 18.812 1.555 6.155 4.435 11.895 8.435 16.823 3.866 5.118 8.826 9.306 14.519 12.26 5.692 2.953 11.974 4.595 18.385 4.806l17.338 0.683c9.248 0.41 18.112 3.812 25.259 9.694 7.39 5.737 12.595 13.83 14.746 22.935l4.642 16.657c1.559 6.161 4.461 11.902 8.497 16.811s9.107 8.866 14.85 11.588c5.606 2.986 11.831 4.627 18.182 4.793 6.349 0.166 12.651-1.148 18.406-3.837l16.111-6.007c8.533-3.978 18.176-4.893 27.307-2.594 9.026 1.976 17.197 6.755 23.345 13.653l11.332 13.653c4.045 4.89 9.141 8.805 14.91 11.453s12.058 3.96 18.404 3.839c6.278 0.119 12.508-1.125 18.259-3.647s10.889-6.262 15.053-10.961l12.015-13.653c6.012-7.063 14.244-11.877 23.347-13.653 9.124-2.043 18.658-1.235 27.307 2.321l15.972 7.373c5.788 2.515 12.047 3.758 18.355 3.647 6.31-0.112 12.521-1.576 18.217-4.294 5.694-2.718 10.739-6.626 14.793-11.461s7.025-10.483 8.71-16.563l5.325-16.657c1.99-9.062 7.174-17.107 14.609-22.665 7.42-5.826 16.51-9.126 25.939-9.419l17.34-0.683c6.406-0.164 12.702-1.713 18.453-4.542 5.749-2.827 10.82-6.867 14.861-11.842 4.066-4.841 7.008-10.524 8.614-16.638 1.604-6.114 1.833-12.51 0.67-18.724l-2.594-17.203c-2.003-9.237-0.751-18.886 3.55-27.305 4.013-8.493 10.737-15.409 19.113-19.661l15.292-8.055c5.658-2.931 10.592-7.087 14.441-12.164 3.851-5.077 6.519-10.95 7.814-17.19 1.457-6.135 1.591-12.512 0.39-18.703-1.201-6.193-3.708-12.058-7.354-17.203l-9.967-13.653c-5.982-7.253-9.178-16.403-9.011-25.805 0.145-9.408 3.040-18.569 8.329-26.349l10.786-13.926zM588.023 334.682c8.538 9.483 14.641 20.902 17.781 33.271s3.221 25.316 0.241 37.724c-2.656 12.772-8.096 24.8-15.93 35.232-7.836 10.43-17.873 19.006-29.399 25.114-7.529 4.356-15.328 8.233-23.347 11.605l-24.847 10.377c-4.668 1.828-9.227 3.925-13.653 6.281-4.371 2.487-8.567 5.271-12.561 8.329-3.761 2.255-6.782 5.559-8.691 9.506-1.911 3.949-2.626 8.367-2.061 12.717 0.565 4.348 2.387 8.437 5.244 11.765 2.854 3.328 6.62 5.751 10.833 6.97 2.594 0.956 5.325 1.638 7.919 2.321 2.628 0.7 5.335 1.067 8.055 1.092 10.475 0.397 20.962-0.38 31.264-2.321 10.142-2.029 20-5.284 29.355-9.694 3.17-1.984 6.97-2.716 10.65-2.048 2.321 0.956 4.233 3.823 6.007 8.738s2.867 10.65 4.369 15.974c1.502 5.325 3.277 10.65 5.052 15.974 0.911 2.982 0.668 6.199-0.683 9.011-1.491 2.605-3.863 4.591-6.69 5.598-6.202 2.686-12.535 5.056-18.978 7.1-6.46 1.99-13.024 3.631-19.661 4.915-5.267 0.331-10.396 1.822-15.019 4.367-2.187 4.926-2.989 10.355-2.319 15.701 0.896 7.33-0.139 14.767-3.004 21.572-6.842 2.914-14.334 3.953-21.709 3.004h-10.65c-3.991 0.141-7.934-0.905-11.332-3.004-1.775-1.502-2.594-5.188-2.594-10.923v-15.974c0.57-4.653-0.139-9.372-2.048-13.651-3.797-2.91-8.102-5.086-12.698-6.417-16.405-5.779-31.068-15.648-42.596-28.672-11.149-13.538-17.487-30.394-18.022-47.923-1.404-15.507 2.443-31.038 10.923-44.098 8.937-12.478 20.433-22.903 33.722-30.583 8.602-5.489 17.754-10.065 27.307-13.651 9.557-3.55 18.978-7.373 28.262-11.332 3.55-1.775 6.963-3.686 10.377-5.598s6.554-4.096 9.694-6.417c4.158-3.031 7.422-7.134 9.44-11.868 2.018-4.736 2.72-9.929 2.027-15.029-0.734-4.983-2.795-9.677-5.965-13.591s-7.334-6.908-12.055-8.663c-5.728-2.197-11.68-3.755-17.749-4.642-5.833-0.951-11.78-0.951-17.613 0-9.453 1.182-18.807 3.053-27.989 5.598-9.009 2.473-17.711 5.952-25.939 10.377-5.325 2.594-9.011 3.55-11.059 2.594s-3.959-3.959-5.734-9.284c-1.775-5.325-2.594-9.694-3.959-13.653s-2.594-9.419-3.959-14.334c-1.692-4.109-2.071-8.638-1.092-12.971 2.818-3.774 6.654-6.662 11.059-8.329 7.618-3.561 15.518-6.483 23.62-8.738 8.326-2.185 16.655-3.959 25.12-5.325 4.066-0.045 8.019-1.331 11.332-3.686 1.717-3.853 2.377-8.094 1.911-12.288v-18.705c0.22-3.358 1.406-6.581 3.413-9.282 1.092-1.165 2.432-2.063 3.923-2.63s3.089-0.789 4.678-0.646h27.307c1.587-0.169 3.191 0.013 4.702 0.531 1.508 0.518 2.886 1.363 4.036 2.473 1.937 2.532 2.861 5.696 2.594 8.873 0 4.096 0 8.329 0 12.698 0.279 4.228 0.279 8.469 0 12.698-0.252 3.537 0.71 7.053 2.729 9.967 2.451 2.718 5.702 4.582 9.284 5.325 9.355 2.537 18.283 6.447 26.487 11.605 7.885 5.229 14.929 11.629 20.89 18.978z" />
<glyph unicode="&#xe938;" glyph-name="doc-add-filled" d="M419.319 694.189c4.45 0.137 8.879-0.674 12.992-2.381s7.814-4.271 10.861-7.52c2.999-3.066 5.348-6.705 6.906-10.703 1.557-3.996 2.291-8.267 2.159-12.553 0.107-4.448-0.719-8.868-2.423-12.975-1.705-4.109-4.252-7.814-7.477-10.878-3.117-3.132-6.839-5.594-10.942-7.234-4.1-1.641-8.495-2.426-12.911-2.308h-171.625c-4.418-0.145-8.821 0.627-12.926 2.27-4.107 1.641-7.827 4.117-10.927 7.273-3.168 3.093-5.664 6.81-7.326 10.914-1.664 4.107-2.458 8.51-2.334 12.939 0.004 4.352 0.894 8.659 2.618 12.659 1.722 3.998 4.239 7.603 7.401 10.596 3.031 3.268 6.731 5.843 10.848 7.552 4.115 1.709 8.55 2.509 13.005 2.349h172.102zM419.319 545.105c4.45 0.139 8.879-0.674 12.992-2.381s7.814-4.269 10.861-7.518c3.134-3.046 5.626-6.69 7.326-10.714 1.702-4.026 2.579-8.352 2.579-12.723 0-4.369-0.877-8.695-2.579-12.721-1.7-4.026-4.192-7.669-7.326-10.714-3.117-3.132-6.839-5.591-10.942-7.232s-8.495-2.428-12.911-2.31h-172.461c-4.418-0.145-8.821 0.627-12.926 2.27-4.107 1.643-7.827 4.117-10.927 7.273-6.027 6.263-9.365 14.637-9.297 23.33 0.066 8.691 3.533 17.013 9.655 23.183 3.031 3.268 6.731 5.843 10.848 7.552 4.115 1.707 8.55 2.509 13.005 2.347l172.102 0.358zM777.118 396.023c4.454 0.16 8.89-0.64 13.005-2.349 4.117-1.709 7.817-4.284 10.848-7.552 4.657-4.649 7.819-10.581 9.082-17.039s0.57-13.146-1.995-19.206c-2.562-6.061-6.876-11.217-12.388-14.812-5.513-3.593-11.972-5.457-18.551-5.355h-530.259c-4.418-0.147-8.821 0.625-12.926 2.268-4.107 1.643-7.827 4.119-10.927 7.273-6.182 6.234-9.653 14.656-9.653 23.437 0 8.779 3.471 17.203 9.653 23.435 3.031 3.268 6.731 5.843 10.848 7.552 4.115 1.709 8.553 2.509 13.005 2.349h530.259zM777.118 246.94c4.454 0.16 8.89-0.64 13.005-2.349 4.117-1.707 7.817-4.284 10.848-7.55 4.657-4.649 7.819-10.583 9.082-17.041s0.57-13.146-1.995-19.206c-2.562-6.061-6.876-11.217-12.388-14.81s-11.972-5.459-18.551-5.357h-530.259c-4.418-0.145-8.821 0.627-12.926 2.27-4.107 1.641-7.827 4.117-10.927 7.273-6.027 6.263-9.365 14.637-9.297 23.33 0.066 8.691 3.533 17.013 9.655 23.183 3.031 3.268 6.731 5.843 10.848 7.552 4.115 1.707 8.55 2.509 13.005 2.347l529.901 0.358zM747.778 541.647h-57.726v-58.202c0.175-5.506-0.796-10.989-2.85-16.1-2.052-5.111-5.143-9.741-9.075-13.598-3.932-3.9-8.608-6.965-13.751-9.015-5.146-2.050-10.65-3.040-16.186-2.912-11.134 0-21.811 4.425-29.685 12.297-7.872 7.874-12.297 18.551-12.297 29.685v57.845h-58.558c-5.555-0.139-11.081 0.847-16.245 2.897-5.165 2.048-9.862 5.12-13.811 9.028-4.041 3.806-7.243 8.412-9.399 13.527-2.155 5.114-3.219 10.622-3.123 16.171-0.137 5.502 0.849 10.972 2.899 16.079 2.052 5.107 5.124 9.741 9.028 13.619 3.962 4.096 8.734 7.324 14.010 9.481 5.276 2.155 10.944 3.191 16.642 3.042h57.604v58.202c-0.158 5.504 0.819 10.98 2.871 16.092 2.050 5.109 5.135 9.741 9.056 13.606 3.866 3.921 8.497 7.004 13.606 9.056s10.586 3.029 16.090 2.869c5.536 0.128 11.040-0.862 16.186-2.91 5.143-2.050 9.82-5.116 13.751-9.015 3.934-3.857 7.023-8.489 9.075-13.6 2.054-5.111 3.025-10.592 2.85-16.098v-58.202h57.726c5.51 0.047 10.976-1.003 16.077-3.089 5.101-2.089 9.734-5.169 13.63-9.067 3.898-3.895 6.98-8.531 9.067-13.63 2.086-5.101 3.136-10.566 3.089-16.077 0.032-5.513-1.028-10.976-3.121-16.077-2.091-5.099-5.171-9.734-9.062-13.636-3.893-3.904-8.518-6.997-13.613-9.103s-10.554-3.183-16.066-3.166h1.312z" />
<glyph unicode="&#xe939;" glyph-name="document-alt-filled" d="M210.193 661.043c-3.609-0.192-7.183 0.798-10.177 2.822-2.994 2.022-5.246 4.971-6.412 8.39-1.528 3.236-1.98 6.876-1.289 10.385 0.691 3.511 2.489 6.707 5.129 9.122l135.014 135.014c1.367 1.923 3.3 3.372 5.53 4.147 2.078 0.705 4.256 1.068 6.451 1.075 4.809 0.027 9.457-1.724 13.056-4.915 1.931-1.556 3.456-3.556 4.446-5.83s1.414-4.753 1.237-7.226v-117.043c-0.233-9.449-4.147-18.432-10.906-25.037-6.662-6.769-15.697-10.679-25.19-10.906h-116.89zM469.623 149.557h-216.115c-5.327-0.060-10.611 0.973-15.524 3.034-4.915 2.061-9.355 5.105-13.045 8.947-3.889 3.785-6.959 8.329-9.020 13.348s-3.069 10.411-2.961 15.836v431.307h128.41c7.443-0.117 14.829 1.325 21.681 4.235 6.85 2.91 13.018 7.223 18.101 12.661 5.363 5.344 9.585 11.721 12.41 18.743s4.194 14.547 4.026 22.114v131.174h287.383c5.406 0.081 10.767-0.97 15.74-3.086s9.449-5.251 13.137-9.202c7.454-7.759 11.586-18.118 11.52-28.877v-579.070c0.124-5.387-0.832-10.743-2.812-15.757-1.978-5.011-4.939-9.577-8.708-13.427-3.727-3.881-8.215-6.948-13.186-9.009-4.969-2.063-10.31-3.074-15.691-2.972h-215.345zM770.37 725.555c5.385 0.141 10.737-0.855 15.712-2.918 4.975-2.065 9.461-5.152 13.165-9.062 3.808-3.861 6.805-8.446 8.809-13.485 2.005-5.041 2.98-10.43 2.865-15.853v-578.916c0.111-5.449-0.896-10.863-2.957-15.908-2.059-5.045-5.131-9.615-9.024-13.429-3.691-3.842-8.13-6.886-13.045-8.947-4.913-2.061-10.197-3.093-15.524-3.034h-431.153c-5.329-0.060-10.611 0.973-15.526 3.034-4.913 2.061-9.353 5.105-13.043 8.947-3.893 3.814-6.965 8.384-9.026 13.429-2.059 5.045-3.066 10.46-2.955 15.908v20.122h387.684c8.369-0.132 16.672 1.493 24.373 4.774 7.699 3.281 14.624 8.143 20.324 14.272 5.939 5.941 10.63 13.011 13.796 20.794 3.164 7.782 4.74 16.117 4.636 24.518v535.755h20.89zM323.396 527.565c-3.373-3.693-5.235-8.516-5.222-13.517-0.147-5.161 1.726-10.176 5.222-13.978 1.734-1.824 3.836-3.26 6.165-4.213 2.33-0.951 4.834-1.402 7.351-1.316h281.239c2.56-0.019 5.099 0.471 7.467 1.446s4.516 2.413 6.319 4.23c1.805 1.818 3.226 3.979 4.181 6.353 0.958 2.377 1.427 4.917 1.387 7.477-0.006 2.517-0.512 5.009-1.489 7.328-0.975 2.321-2.4 4.425-4.194 6.189-1.732 1.939-3.866 3.479-6.253 4.514s-4.971 1.538-7.571 1.476h-281.086c-2.558 0.070-5.097-0.433-7.435-1.468-2.338-1.037-4.416-2.581-6.082-4.523zM631.977 394.396c1.869 1.773 3.341 3.921 4.32 6.304s1.444 4.945 1.363 7.52c0.043 2.573-0.435 5.129-1.399 7.514-0.966 2.385-2.402 4.553-4.222 6.372s-3.985 3.255-6.372 4.22c-2.385 0.966-4.941 1.442-7.514 1.402h-281.239c-2.517 0.085-5.022-0.365-7.351-1.316-2.33-0.954-4.431-2.389-6.165-4.213-3.497-3.802-5.37-8.817-5.222-13.978-0.085-2.537 0.331-5.062 1.227-7.435 0.898-2.374 2.255-4.546 3.996-6.389 1.702-1.877 3.793-3.358 6.129-4.339 2.334-0.983 4.855-1.442 7.388-1.344h281.239c2.575-0.081 5.137 0.384 7.52 1.363s4.531 2.451 6.304 4.32zM490.972 294.402c1.801 1.76 3.232 3.863 4.207 6.185 0.977 2.321 1.478 4.813 1.476 7.332 0.081 2.575-0.384 5.137-1.363 7.518-0.979 2.383-2.451 4.531-4.32 6.306-1.662 1.801-3.682 3.236-5.929 4.215-2.249 0.977-4.674 1.478-7.125 1.468h-141.005c-2.532 0.096-5.054-0.363-7.388-1.344-2.336-0.983-4.427-2.464-6.129-4.339-1.741-1.845-3.098-4.017-3.996-6.389-0.896-2.374-1.312-4.9-1.227-7.435-0.045-5.007 1.824-9.841 5.222-13.517 1.666-1.941 3.744-3.486 6.082-4.523 2.338-1.035 4.877-1.538 7.435-1.468h141.005c2.477 0.009 4.924 0.548 7.177 1.581 2.251 1.033 4.256 2.537 5.877 4.41z" />
</font>
</defs>
</svg>
