<?xml version="1.0" encoding="utf-8"?>
<!-- Generator: Adobe Illustrator 23.0.2, SVG Export Plug-In . SVG Version: 6.00 Build 0)  -->
<svg version="1.1" id="Layer_1" xmlns="http://www.w3.org/2000/svg" xmlns:xlink="http://www.w3.org/1999/xlink" x="0px" y="0px"
	 viewBox="0 0 800 800" style="enable-background:new 0 0 800 800;" xml:space="preserve">
<style type="text/css">
	.st0{fill:#B8D4EA;}
	.st1{fill:#25CE9E;}
	.st2{fill:#EBF2FF;}
	.st3{fill:#FABF4D;}
	.st4{fill:#2EB595;}
	.st5{opacity:0.13;}
	.st6{fill:#263357;}
</style>
<g>
	<path class="st0" d="M84.5,39.1h579.2V133H84.5c-3.7,0-6.8-3-6.8-6.8V45.9C77.7,42.2,80.7,39.1,84.5,39.1z"/>
	<rect x="83.1" y="126.4" class="st1" width="586" height="648.9"/>
	<path class="st2" d="M503.1,150.4v143.4c0,0,160.9,5.1,155.8,0C653.9,288.7,503.1,150.4,503.1,150.4z"/>
	<polygon class="st0" points="509.2,143 651.2,296.8 655.6,136.1 	"/>
	<rect x="147.5" y="208.1" class="st3" width="229" height="263.1"/>
	<path class="st4" d="M669.4,310h-2.9v-28.6H497.2v11.1c0,18,14.6,32.5,32.5,32.5h94.7v376.8c0,17.2-14,31.2-31.2,31.2H93.7v59.4
		h571v-24.7h4.7V310z"/>
	<rect x="77.7" y="96.1" class="st5" width="581.2" height="28.9"/>
</g>
<path class="st6" d="M667.6,23.7H120.3C87.8,23.7,67,52.6,67,74v706.8c0,7.9,6.4,14.3,14.3,14.3h586c7.9,0,14.3-6.4,14.3-14.3
	c0-700.4,0.3-742.8,0.3-742.8C681.9,30.1,675.5,23.7,667.6,23.7z M524.2,174.3l104.2,104.2H524.2V174.3z M536.6,146.2H653v116.4
	L536.6,146.2z M95.9,76.7c0-13.5,11-24.4,24.4-24.4h533v65.3h-533c-13.5,0-24.4-11-24.4-24.4V76.7z M95.6,766.5V140.1
	c16.3,8.7-7.6,6.2,399.9,6.2v146.5c0,7.9,6.4,14.3,14.3,14.3H653v459.5H95.6z M743.3,214.9v19.9c0,18.9-28.6,18.9-28.6,0v-19.9
	c0-7.9,6.4-14.3,14.3-14.3C736.9,200.6,743.3,207,743.3,214.9z M743.3,298.1v386.3c0,7.9-6.4,14.3-14.3,14.3
	c-7.9,0-14.3-6.4-14.3-14.3V298.1C714.7,279.2,743.3,279.2,743.3,298.1z M532,377.7h-74c-18.9,0-18.9-28.6,0-28.6h74
	C550.9,349.1,550.9,377.7,532,377.7z M532,472.4h-74c-18.9,0-18.9-28.6,0-28.6h74C550.9,443.8,550.9,472.4,532,472.4z M150.3,191.6
	c-7.9,0-14.3,6.4-14.3,14.3V469c0,7.9,6.4,14.3,14.3,14.3h229c7.9,0,14.3-6.4,14.3-14.3V205.9c0-7.9-6.4-14.3-14.3-14.3H150.3z
	 M365,454.7H164.6V220.2H365V454.7z M535.3,553.7H153.7c-18.9,0-18.9-28.6,0-28.6h381.6C554.2,525.1,554.2,553.7,535.3,553.7z
	 M535.3,618.9H153.7c-18.9,0-18.9-28.6,0-28.6h381.6C554.2,590.3,554.2,618.9,535.3,618.9z M535.3,690.1H153.7
	c-18.9,0-18.9-28.6,0-28.6h381.6C554.2,661.5,554.2,690.1,535.3,690.1z"/>
</svg>
