<svg xmlns="http://www.w3.org/2000/svg" aria-hidden="true" viewBox="0 0 32 32"><path fill="currentColor" fill-rule="evenodd" d="M4.667 9.376c0-2.6 2.088-4.709 4.665-4.709h12.812c2.576 0 4.665 2.108 4.665 4.71v10.079a.86.86 0 0 1-.857.865.86.86 0 0 1-.857-.865V9.376c0-1.645-1.321-2.98-2.95-2.98H9.331c-1.63 0-2.951 1.335-2.951 2.98v12.935c0 1.645 1.32 2.979 2.95 2.979h9.994a.86.86 0 0 1 .857.865.86.86 0 0 1-.857.865H9.332c-2.577 0-4.665-2.109-4.665-4.71zm17.236 16.491a.86.86 0 0 1 .857-.865h6.383a.86.86 0 0 1 .857.865.86.86 0 0 1-.857.865H22.76a.86.86 0 0 1-.857-.865" clip-rule="evenodd"/><path fill="currentColor" fill-rule="evenodd" d="M26.083 21.787a.86.86 0 0 1 .857.865v6.484a.86.86 0 0 1-.857.865.86.86 0 0 1-.857-.865v-6.484a.86.86 0 0 1 .857-.865" clip-rule="evenodd"/><path fill="currentColor" d="M9.03 17.16a.64.64 0 0 0-.177.445v4.327c0 .53.426.96.952.96h12.058c.526 0 .952-.43.952-.96v-4.324a.64.64 0 0 0-.182-.45l-3.504-3.6a.91.91 0 0 0-1.292-.013l-4.462 4.404a.303.303 0 0 1-.43-.003l-1.708-1.736a.91.91 0 0 0-1.306.009zm5.99-6.38a2.05 2.05 0 0 1-2.042 2.06 2.05 2.05 0 0 1-2.041-2.06c0-1.138.914-2.061 2.041-2.061 1.128 0 2.042.923 2.042 2.06"/></svg>