<svg width="25" height="25" viewBox="0 0 25 25" fill="none" xmlns="http://www.w3.org/2000/svg">
<path d="M7.92532 4.92262C7.92532 4.48562 8.27998 4.13095 8.71698 4.13095H14.0325V8.08929C14.0325 8.53921 14.2112 8.9707 14.5293 9.28884C14.8475 9.60698 15.279 9.78571 15.7289 9.78571H20.1396V19.1726C20.1396 19.3826 20.0562 19.5839 19.9077 19.7324C19.7593 19.8809 19.5579 19.9643 19.3479 19.9643H14.1501C13.9131 20.3741 13.6276 20.7539 13.2996 21.0952H19.3479C19.8578 21.0952 20.3469 20.8927 20.7074 20.5321C21.068 20.1716 21.2706 19.6825 21.2706 19.1726V9.52062C21.2704 9.25082 21.1632 8.99211 20.9724 8.80133L15.4697 3.29767C15.2787 3.10695 15.0198 2.99988 14.7499 3H8.71698C8.20707 3 7.71805 3.20256 7.35749 3.56312C6.99692 3.92368 6.79436 4.41271 6.79436 4.92262V11.5934C7.15891 11.4418 7.53781 11.3272 7.92532 11.2514V4.92262ZM19.2267 8.65476H15.7289C15.4167 8.65476 15.1634 8.40143 15.1634 8.08929V4.59148L19.2267 8.65476ZM14.0325 17.0238C14.0325 19.772 11.8045 22 9.05627 22C6.30805 22 4.08008 19.772 4.08008 17.0238C4.08008 14.2756 6.30805 12.0476 9.05627 12.0476C11.8045 12.0476 14.0325 14.2756 14.0325 17.0238ZM9.50865 13.8571C9.50865 13.7372 9.46099 13.6221 9.37615 13.5373C9.29131 13.4524 9.17625 13.4048 9.05627 13.4048C8.93629 13.4048 8.82122 13.4524 8.73639 13.5373C8.65155 13.6221 8.60389 13.7372 8.60389 13.8571V16.5714H5.8896C5.76962 16.5714 5.65456 16.6191 5.56972 16.7039C5.48488 16.7888 5.43722 16.9038 5.43722 17.0238C5.43722 17.1438 5.48488 17.2589 5.56972 17.3437C5.65456 17.4285 5.76962 17.4762 5.8896 17.4762H8.60389V20.1905C8.60389 20.3105 8.65155 20.4255 8.73639 20.5104C8.82122 20.5952 8.93629 20.6429 9.05627 20.6429C9.17625 20.6429 9.29131 20.5952 9.37615 20.5104C9.46099 20.4255 9.50865 20.3105 9.50865 20.1905V17.4762H12.2229C12.3429 17.4762 12.458 17.4285 12.5428 17.3437C12.6277 17.2589 12.6753 17.1438 12.6753 17.0238C12.6753 16.9038 12.6277 16.7888 12.5428 16.7039C12.458 16.6191 12.3429 16.5714 12.2229 16.5714H9.50865V13.8571Z" fill="white"/>
</svg>
