<svg xmlns="http://www.w3.org/2000/svg" aria-hidden="true" viewBox="0 0 48 48"><path fill="currentColor" fill-rule="evenodd" d="m37.589 13.564-.845-.844-5.899-5.9h-.001l-.478-.48a1.16 1.16 0 0 0-.824-.34H11.53A1.53 1.53 0 0 0 10 7.529V40.47A1.53 1.53 0 0 0 11.529 42h24.873a1.53 1.53 0 0 0 1.529-1.529V14.39a1.17 1.17 0 0 0-.342-.825Zm-7.106-.116V8.213l5.235 5.235zm.62 1.242H32.8a1.24 1.24 0 0 1-2.132.022 5 5 0 0 1 .436-.022Zm5.587 25.78c0 .159-.13.288-.288.288H11.53a.29.29 0 0 1-.288-.288v-9.023H36.69zM11.24 30.207V7.529c0-.159.13-.288.288-.288h17.748a1 1 0 0 0-.036.243v6.25a6.23 6.23 0 0 0-4.035 3.998 2.46 2.46 0 0 0-1.55-.56 2.48 2.48 0 0 0-2.395 1.863h-1.95v-1.242h-3.725v3.724h3.724v-1.241h1.813A4.96 4.96 0 0 1 18.4 24.1a2.48 2.48 0 0 0-2.192-1.342 2.485 2.485 0 0 0-2.483 2.482 2.485 2.485 0 0 0 2.483 2.483 2.48 2.48 0 0 0 2.471-2.374 6.2 6.2 0 0 0 3.43-3.77 2.45 2.45 0 0 0 1.547.558 2.48 2.48 0 0 0 2.395-1.862H28v1.241h3.724v-3.724H28v1.242h-1.82a4.97 4.97 0 0 1 3.242-4.046 2.48 2.48 0 0 0 2.302 1.563 2.48 2.48 0 0 0 2.395-1.862h2.327a1 1 0 0 0 .244-.036v15.553zm13.656-10.552a1.243 1.243 0 0 1-2.483 0c0-.684.557-1.241 1.241-1.241.685 0 1.242.557 1.242 1.241m-6.828.62h-1.241v-1.24h1.241zm-.62 4.966a1.243 1.243 0 0 1-2.483 0 1.242 1.242 0 0 1 2.482 0Zm11.792-6.206h1.242v1.24H29.24zm-8.68 19.184h2.35l.45 1.298h1.052l-2.172-6.246h-1.01l-2.19 6.246h1.061zm1.18-3.386.924 2.699h-1.867zm4.004-1.57h1.035v6.254h-1.035z" clip-rule="evenodd"/></svg>