<svg width="20" height="20" viewBox="0 0 20 20" fill="none" xmlns="http://www.w3.org/2000/svg">
<path d="M2.5 4.35917L5.125 2.5M17.5 4.35917L14.875 2.5M16.6667 10.8333C16.6667 12.6014 15.9643 14.2971 14.714 15.5474C13.4638 16.7976 11.7681 17.5 10 17.5C8.23189 17.5 6.5362 16.7976 5.28595 15.5474C4.03571 14.2971 3.33333 12.6014 3.33333 10.8333C3.33333 9.06522 4.03571 7.36953 5.28595 6.11929C6.5362 4.86905 8.23189 4.16667 10 4.16667C11.7681 4.16667 13.4638 4.86905 14.714 6.11929C15.9643 7.36953 16.6667 9.06522 16.6667 10.8333Z" stroke="currentColor" stroke-width="1.3" stroke-linecap="round" stroke-linejoin="round"/>
<path d="M10 7.08301V11.2497L12.5 12.9163" stroke="currentColor" stroke-width="1.3" stroke-linecap="round" stroke-linejoin="round"/>
</svg>
