<svg width="20" height="20" viewBox="0 0 20 20" fill="none" xmlns="http://www.w3.org/2000/svg">
<path d="M8.75 5.625C8.75 3.89911 7.35089 2.5 5.625 2.5C3.89911 2.5 2.5 3.89911 2.5 5.625C2.5 7.35089 3.89911 8.75 5.625 8.75C7.35089 8.75 8.75 7.35089 8.75 5.625Z" stroke="currentColor" stroke-width="1.5" stroke-linecap="round" stroke-linejoin="round"/>
<path d="M17.5 14.375C17.5 12.6491 16.1009 11.25 14.375 11.25C12.6491 11.25 11.25 12.6491 11.25 14.375C11.25 16.1009 12.6491 17.5 14.375 17.5C16.1009 17.5 17.5 16.1009 17.5 14.375Z" stroke="currentColor" stroke-width="1.5" stroke-linecap="round" stroke-linejoin="round"/>
<path d="M8.75 14.375C8.75 12.6491 7.35089 11.25 5.625 11.25C3.89911 11.25 2.5 12.6491 2.5 14.375C2.5 16.1009 3.89911 17.5 5.625 17.5C7.35089 17.5 8.75 16.1009 8.75 14.375Z" stroke="currentColor" stroke-width="1.5" stroke-linecap="round" stroke-linejoin="round"/>
<path d="M14.375 2.5V8.75M17.5 5.625H11.25" stroke="currentColor" stroke-width="1.5" stroke-linecap="round" stroke-linejoin="round"/>
</svg>
