<svg xmlns="http://www.w3.org/2000/svg" width="20" height="20" fill="none" viewBox="0 0 20 20"><path stroke="currentColor" stroke-linecap="round" stroke-width="1.3" d="M5.834 15.46v-2.035M10 15.461v-3.053m4.167 3.053v-5.089"/><path stroke="currentColor" stroke-linecap="round" stroke-linejoin="round" d="M4.673 8.896c3.718.83 6.908-.436 9.142-2.973m-1.706-.401 1.91-.233c.227-.027.4.138.387.369l-.108 1.947"/><path stroke="currentColor" stroke-linejoin="round" stroke-width="1.25" d="M17.917 10c0-3.732 0-5.599-1.16-6.758C15.6 2.083 13.734 2.083 10 2.083c-3.731 0-5.598 0-6.757 1.16C2.083 4.4 2.083 6.266 2.083 10c0 3.731 0 5.598 1.16 6.757 1.159 1.16 3.025 1.16 6.757 1.16s5.599 0 6.758-1.16 1.159-3.025 1.159-6.757Z"/></svg>