<svg xmlns="http://www.w3.org/2000/svg" width="20" height="20" fill="none" viewBox="0 0 20 20"><path fill="currentColor" d="M18.565 10c0-4.038 0-6.057-1.254-7.311s-3.272-1.254-7.31-1.254-6.057 0-7.311 1.254C1.435 3.943 1.435 5.96 1.435 9.999s0 6.057 1.255 7.312 3.272 1.254 7.31 1.254 6.057 0 7.311-1.255 1.254-3.272 1.254-7.31"/><path stroke="#fff" stroke-linecap="round" stroke-width="1.3" d="M5.835 15.498v-2.035M10 15.498v-3.053m4.167 3.053v-5.089"/><path stroke="#fff" stroke-linecap="round" stroke-linejoin="round" d="M4.674 8.895c3.718.83 6.908-.437 9.142-2.974M12.11 5.52l1.91-.233c.227-.027.4.138.387.369L14.3 7.603"/></svg>