<svg xmlns="http://www.w3.org/2000/svg" aria-hidden="true" viewBox="0 0 9 10"><path fill="currentColor" d="M4.981 4.998a.42.42 0 0 0-.136-.316L1.11 1.037A.42.42 0 0 0 .81.91a.42.42 0 0 0-.433.429.45.45 0 0 0 .122.306l3.429 3.353-3.43 3.357a.43.43 0 0 0-.122.307c0 .244.188.428.433.428a.44.44 0 0 0 .306-.127l3.73-3.645a.44.44 0 0 0 .136-.32"/><path fill="currentColor" d="M9 4.998a.42.42 0 0 0-.137-.316L5.13 1.037A.42.42 0 0 0 4.828.91a.42.42 0 0 0-.434.429c0 .117.047.226.123.306l3.428 3.353-3.428 3.357a.43.43 0 0 0-.123.307c0 .244.189.428.434.428a.44.44 0 0 0 .306-.127l3.73-3.645A.44.44 0 0 0 9 4.998"/></svg>