<svg xmlns="http://www.w3.org/2000/svg" viewBox="0 0 48 48" role="presentation" aria-hidden="true"><path d="M38.621 14.403a.59.59 0 0 1 .598.597v24.011a2.88 2.88 0 0 1-.879 2.11 2.93 2.93 0 0 1-2.16.878H11.024a2.93 2.93 0 0 1-2.16-.878A2.88 2.88 0 0 1 8 39.01V8.988a2.88 2.88 0 0 1 .879-2.11A2.93 2.93 0 0 1 11.024 6h9.526a.59.59 0 0 1 .597.598.59.59 0 0 1-.597.598h-9.526a1.764 1.764 0 0 0-1.303.525 1.728 1.728 0 0 0-.525 1.267v30.023a1.728 1.728 0 0 0 .525 1.267 1.764 1.764 0 0 0 1.303.526h25.2a1.765 1.765 0 0 0 1.296-.526 1.73 1.73 0 0 0 .525-1.267V15.598h-5.436a2.879 2.879 0 0 1-2.11-.879 2.881 2.881 0 0 1-.9-2.11V9.6a.598.598 0 0 1 1.196 0v3.024a1.793 1.793 0 0 0 1.793 1.793l6.033-.014Zm-17.402 9H22.4v-1.196h-.598a.59.59 0 0 1-.597-.598v-2.426a.591.591 0 0 1 .597-.597h.598V17.39h-.598a.59.59 0 0 1-.597-.598v-2.39a.59.59 0 0 1 .597-.598h.598V12.61h-.598a.591.591 0 0 1-.597-.598V9.6a.591.591 0 0 1 .597-.597h.598V7.196a.59.59 0 0 1 .598-.598h7.2c.072 0 .144.017.208.05l.216.123 5.976 6.012a.601.601 0 0 1-.85.85l-5.76-5.84H23.61V9.6a.59.59 0 0 1-.598.598H22.4v1.217h.598a.59.59 0 0 1 .597.597v2.39a.59.59 0 0 1-.597.598H22.4v1.195h.598a.593.593 0 0 1 .554.368.59.59 0 0 1 .043.23v2.39a.64.64 0 0 1-.173.461.588.588 0 0 1-.424.173H22.4v1.195h.598a.59.59 0 0 1 .597.598V24a.59.59 0 0 1-.597.597h-1.779v6.012h3.6v-6.012a.598.598 0 1 1 0-1.195A1.202 1.202 0 0 1 26 24.597v6.012a1.202 1.202 0 0 1-1.194 1.195h-3.6a1.202 1.202 0 0 1-1.195-1.195v-6.012a1.202 1.202 0 0 1 1.195-1.195h.014Zm1.793 4.78a.606.606 0 0 1 .633.634.567.567 0 0 1-.18.424.613.613 0 0 1-.453.173.592.592 0 0 1-.598-.598.64.64 0 0 1 .173-.46.59.59 0 0 1 .425-.173Z" fill="currentColor"/></svg>