<svg xmlns="http://www.w3.org/2000/svg" viewBox="0 0 24 24" role="presentation" aria-hidden="true"><path fill-rule="evenodd" clip-rule="evenodd" d="M4.264 5.12a2.607 2.607 0 0 1 1.843-.764h1.857a.75.75 0 1 1 0 1.5H6.107A1.107 1.107 0 0 0 5 6.963v11.14a1.107 1.107 0 0 0 1.107 1.108h5.289a.75.75 0 0 1 0 1.5h-5.29A2.607 2.607 0 0 1 3.5 18.104V6.964c0-.692.275-1.355.764-1.844ZM17.247 12.712a.75.75 0 0 1 .75.75v2.963h2.964a.75.75 0 1 1 0 1.5h-3.714a.75.75 0 0 1-.75-.75v-3.713a.75.75 0 0 1 .75-.75ZM12.784 5.106a.75.75 0 0 1 .75-.75h1.857a2.607 2.607 0 0 1 2.607 2.607v3.714a.75.75 0 0 1-1.5 0V6.963a1.107 1.107 0 0 0-1.107-1.107h-1.857a.75.75 0 0 1-.75-.75Z" fill="currentColor"/><path fill-rule="evenodd" clip-rule="evenodd" d="M9.82 4a1.107 1.107 0 0 0 0 2.214h1.857a1.107 1.107 0 1 0 0-2.214H9.821ZM7.215 5.107A2.607 2.607 0 0 1 9.82 2.5h1.856a2.607 2.607 0 1 1 0 5.214H9.821a2.607 2.607 0 0 1-2.607-2.607ZM17.248 14.212a2.964 2.964 0 1 0 0 5.927 2.964 2.964 0 0 0 0-5.927Zm-4.464 2.963a4.464 4.464 0 1 1 8.927 0 4.464 4.464 0 0 1-8.927 0ZM7.214 10.677a.75.75 0 0 1 .75-.75h3.713a.75.75 0 1 1 0 1.5H7.964a.75.75 0 0 1-.75-.75ZM7.214 14.39a.75.75 0 0 1 .75-.75h2.785a.75.75 0 0 1 0 1.5H7.964a.75.75 0 0 1-.75-.75Z" fill="currentColor"/></svg>