<svg xmlns="http://www.w3.org/2000/svg" aria-hidden="true" viewBox="0 0 24 24"><path fill="currentColor" fill-rule="evenodd" d="M11.481 4.983a3.989 3.989 0 0 1 5.64 5.64l-.002.002-5.346 5.489h-.001a2.32 2.32 0 1 1-3.285-3.278l5.487-5.487a.653.653 0 1 1 .924.924l-5.49 5.49-.009.009a1.014 1.014 0 1 0 1.434 1.434l.002-.002 5.346-5.49a2.682 2.682 0 0 0-3.785-3.798L7.055 11.4l-.006.006a4.35 4.35 0 1 0 6.15 6.151l5.218-5.205a.653.653 0 0 1 .923.925l-5.216 5.204a5.657 5.657 0 0 1-8.003-7.996l5.346-5.487z" clip-rule="evenodd"/></svg>