<svg width="20" height="20" viewBox="0 0 20 20" fill="none" xmlns="http://www.w3.org/2000/svg">
<path d="M10 4.43484V2M10 18V15.5652M4.43484 10H2M18 10H15.5652M8.39431 7.94916C8.39431 8.37501 8.56348 8.78342 8.86461 9.08455C9.16573 9.38567 9.57415 9.55484 10 9.55484C10.4259 9.55484 10.8343 9.38567 11.1354 9.08455C11.4365 8.78342 11.6057 8.37501 11.6057 7.94916C11.6057 7.5233 11.4365 7.11489 11.1354 6.81376C10.8343 6.51264 10.4259 6.34347 10 6.34347C9.57415 6.34347 9.16573 6.51264 8.86461 6.81376C8.56348 7.11489 8.39431 7.5233 8.39431 7.94916ZM7.13351 13.3003C7.13351 12.54 7.43552 11.8109 7.97309 11.2734C8.51066 10.7358 9.23976 10.4338 10 10.4338C10.7602 10.4338 11.4893 10.7358 12.0269 11.2734C12.5645 11.8109 12.8665 12.54 12.8665 13.3003H7.13351Z" stroke="currentColor" stroke-linecap="round" stroke-linejoin="round"/>
<path d="M3.23163 10C3.23163 11.7917 3.94337 13.51 5.21028 14.7769C6.4772 16.0438 8.1955 16.7556 9.98718 16.7556C11.7789 16.7556 13.4972 16.0438 14.7641 14.7769C16.031 13.51 16.7427 11.7917 16.7427 10C16.7427 8.20832 16.031 6.49001 14.7641 5.2231C13.4972 3.95619 11.7789 3.24445 9.98718 3.24445C8.1955 3.24445 6.4772 3.95619 5.21028 5.2231C3.94337 6.49001 3.23163 8.20832 3.23163 10Z" stroke="currentColor" stroke-linecap="round" stroke-linejoin="round"/>
</svg>
