<svg xmlns="http://www.w3.org/2000/svg" aria-hidden="true" viewBox="0 0 48 48"><path fill="currentColor" d="M38.621 14.403a.59.59 0 0 1 .598.597v24.011a2.88 2.88 0 0 1-.879 2.11 2.94 2.94 0 0 1-2.16.878H11.024a2.93 2.93 0 0 1-2.16-.878A2.88 2.88 0 0 1 8 39.01V8.988a2.88 2.88 0 0 1 .879-2.11A2.93 2.93 0 0 1 11.024 6H30.22a.46.46 0 0 1 .209.05l.216.123 5.976 6.012a.6.6 0 1 1-.85.85l-5.76-5.84H11.024a1.76 1.76 0 0 0-1.303.526 1.73 1.73 0 0 0-.525 1.267v30.023a1.73 1.73 0 0 0 .525 1.267 1.76 1.76 0 0 0 1.303.526h25.2a1.77 1.77 0 0 0 1.296-.526 1.73 1.73 0 0 0 .525-1.267V15.598h-5.436a2.88 2.88 0 0 1-2.11-.879 2.88 2.88 0 0 1-.9-2.11V9.6a.598.598 0 0 1 1.196 0v3.024a1.793 1.793 0 0 0 1.793 1.793zm-10.8 14.4a1.8 1.8 0 1 0 0 3.599 1.77 1.77 0 0 0 1.303-.526 1.73 1.73 0 0 0 .476-1.267V20.53l-8.38 2.132V33a2.88 2.88 0 0 1-.88 2.11 2.94 2.94 0 0 1-2.16.878 2.988 2.988 0 0 1 0-5.975.598.598 0 0 1 0 1.195 1.8 1.8 0 1 0 0 3.6 1.76 1.76 0 0 0 1.34-.54A1.73 1.73 0 0 0 20.046 33V22.2a.58.58 0 0 1 .122-.366.7.7 0 0 1 .331-.23l9.598-2.391a.5.5 0 0 1 .252 0 .7.7 0 0 1 .244.108q.105.097.173.223a.5.5 0 0 1 .072.267v10.8a2.88 2.88 0 0 1-.878 2.109 2.94 2.94 0 0 1-2.16.878 3 3 0 0 1-2.988-2.988 2.94 2.94 0 0 1 .878-2.16 2.88 2.88 0 0 1 2.103-.85.61.61 0 0 1 .588.367.6.6 0 0 1 .045.231.605.605 0 0 1-.633.634z"/></svg>