<svg xmlns="http://www.w3.org/2000/svg" viewBox="0 0 48 48" role="presentation" aria-hidden="true"><path d="M38.621 14.403a.59.59 0 0 1 .598.597v24.011a2.88 2.88 0 0 1-.879 2.11 2.937 2.937 0 0 1-2.16.878H11.024a2.93 2.93 0 0 1-2.16-.878A2.88 2.88 0 0 1 8 39.01V8.988a2.88 2.88 0 0 1 .879-2.11A2.93 2.93 0 0 1 11.024 6H30.22c.073 0 .144.017.209.05l.216.123 5.976 6.012a.6.6 0 1 1-.85.85l-5.76-5.84H11.024a1.764 1.764 0 0 0-1.303.526 1.728 1.728 0 0 0-.525 1.267v30.023a1.728 1.728 0 0 0 .525 1.267 1.764 1.764 0 0 0 1.303.526h25.2a1.765 1.765 0 0 0 1.296-.526 1.73 1.73 0 0 0 .525-1.267V15.598h-5.436a2.879 2.879 0 0 1-2.11-.879 2.881 2.881 0 0 1-.9-2.11V9.6a.598.598 0 0 1 1.196 0v3.024a1.793 1.793 0 0 0 1.793 1.793l6.033-.014Zm-10.8 14.4a1.8 1.8 0 1 0 0 3.599 1.766 1.766 0 0 0 1.303-.526 1.728 1.728 0 0 0 .476-1.267V20.53l-8.38 2.132v10.338a2.878 2.878 0 0 1-.88 2.11 2.936 2.936 0 0 1-2.16.878 2.988 2.988 0 0 1 0-5.975.598.598 0 0 1 0 1.195 1.8 1.8 0 1 0 0 3.6 1.764 1.764 0 0 0 1.34-.54 1.728 1.728 0 0 0 .526-1.268V22.2a.576.576 0 0 1 .122-.366.72.72 0 0 1 .331-.23l9.598-2.391a.498.498 0 0 1 .252 0 .72.72 0 0 1 .244.108c.07.064.128.14.173.223a.51.51 0 0 1 .072.267v10.8a2.882 2.882 0 0 1-.878 2.109 2.937 2.937 0 0 1-2.16.878 3.002 3.002 0 0 1-2.988-2.988 2.936 2.936 0 0 1 .878-2.16 2.879 2.879 0 0 1 2.103-.85.613.613 0 0 1 .588.367.57.57 0 0 1 .045.231.605.605 0 0 1-.633.634l.028-.029Z" fill="currentColor"/></svg>