<svg xmlns="http://www.w3.org/2000/svg" viewBox="0 0 48 48" role="presentation" aria-hidden="true"><path fill-rule="evenodd" clip-rule="evenodd" d="m37.589 13.564-.478-.478-6.266-6.266-.477-.477A1.174 1.174 0 0 0 29.542 6H11.53C10.793 6 10 6.569 10 7.816V40.76c0 .52.523 1.026 1.141 1.185a.748.748 0 0 1 .037.011c.018.006.036.012.055.015.098.02.196.03.296.03h24.873c.1 0 .198-.01.295-.03a.529.529 0 0 0 .057-.015.752.752 0 0 1 .036-.01c.618-.16 1.141-.666 1.141-1.186V14.676c0-.475-.057-.827-.342-1.112Zm-7.106-5.351 5.235 5.235h-5.235V8.213ZM11.408 40.729h-.002a.286.286 0 0 1-.165-.258v-9.023H36.69v9.023c0 .114-.069.21-.165.257l-.002.001a.335.335 0 0 1-.12.03H11.528a.336.336 0 0 1-.12-.03Zm-.167-10.522V7.817c0-.136.02-.576.288-.576h17.748a.956.956 0 0 0-.036.244v7.205h7.205a.96.96 0 0 0 .243-.036v15.552H11.242Zm7.69 3.065-2.189 6.245h1.06l.459-1.298h2.35l.45 1.298h1.052l-2.172-6.246h-1.01Zm-.432 4.26.942-2.7.925 2.7h-1.867Zm5.82-4.269 1.451 5.397 1.536-5.397h1.154l-2.036 6.288H25.1l-1.944-6.288h1.163Zm6.467 0H29.75v6.254h1.035v-6.254Zm-9.28-18.476 6.827 4.344a.622.622 0 0 1 0 1.048l-6.827 4.345a.625.625 0 0 1-.632.02.621.621 0 0 1-.322-.544v-8.69a.622.622 0 0 1 .954-.524Zm5.338 4.868-5.051-3.214v6.429l5.05-3.215Z" fill="currentColor"/></svg>