<svg xmlns="http://www.w3.org/2000/svg" aria-hidden="true" viewBox="0 0 48 48"><path fill="currentColor" fill-rule="evenodd" d="m37.589 13.564-.478-.478-6.266-6.266-.477-.477A1.17 1.17 0 0 0 29.542 6H11.53C10.793 6 10 6.569 10 7.816V40.76c0 .52.523 1.026 1.141 1.185l.037.011a.3.3 0 0 0 .055.015q.146.03.296.03h24.873q.15 0 .295-.03l.057-.015.036-.01c.618-.16 1.141-.666 1.141-1.186V14.676c0-.475-.057-.827-.342-1.112m-7.106-5.351 5.235 5.235h-5.235zM11.408 40.729h-.002a.29.29 0 0 1-.165-.258v-9.023H36.69v9.023c0 .114-.069.21-.165.257l-.002.001a.3.3 0 0 1-.12.03H11.528a.3.3 0 0 1-.12-.03m-.167-10.522V7.817c0-.136.02-.576.288-.576h17.748a1 1 0 0 0-.036.244v7.205h7.205a1 1 0 0 0 .243-.036v15.552H11.242Zm7.69 3.065-2.189 6.245h1.06l.459-1.298h2.35l.45 1.298h1.052l-2.172-6.246h-1.01Zm-.432 4.26.942-2.7.925 2.7zm5.82-4.269 1.451 5.397 1.536-5.397h1.154l-2.036 6.288H25.1l-1.944-6.288zm6.467 0H29.75v6.254h1.035v-6.254Zm-9.28-18.476 6.827 4.344a.622.622 0 0 1 0 1.048l-6.827 4.345a.63.63 0 0 1-.632.02.62.62 0 0 1-.322-.544v-8.69a.622.622 0 0 1 .954-.524Zm5.338 4.868-5.051-3.214v6.429l5.05-3.215Z" clip-rule="evenodd"/></svg>