<svg xmlns="http://www.w3.org/2000/svg" width="20" height="20" fill="none" viewBox="0 0 20 20"><path stroke="currentColor" stroke-width="1.3" d="M16.413 2C15.522 2 14.8 4.149 14.8 6.8h1.613c.777 0 1.165 0 1.406-.268.24-.269.199-.622.115-1.329C17.713 3.337 17.115 2 16.413 2Z"/><path stroke="currentColor" stroke-linecap="round" stroke-linejoin="round" stroke-width="1.3" d="M14.8 6.843v8.474c0 1.209 0 1.814-.37 2.052-.604.389-1.537-.427-2.007-.723-.388-.245-.582-.367-.797-.374-.233-.008-.43.11-.85.374l-1.528.964c-.412.26-.619.39-.848.39-.23 0-.436-.13-.848-.39l-1.529-.964c-.388-.245-.582-.367-.797-.374-.233-.008-.43.11-.85.374-.469.296-1.403 1.112-2.006.723C2 17.13 2 16.526 2 15.317V6.843C2 4.56 2 3.42 2.703 2.71S4.537 2 6.8 2h9.6M5.2 6.006h6.4M9.596 9.383H5.199m2.198 3.352H5.2"/></svg>