<svg width="100" height="100" viewBox="0 0 100 100" fill="none" xmlns="http://www.w3.org/2000/svg">
<path d="M27.0859 39.5831V75.6943C27.0859 78.7498 29.5859 81.2498 32.6415 81.2498H67.3637C70.4193 81.2498 72.9193 78.7498 72.9193 75.6943V39.5831H27.0859Z" fill="#F3F3F1"/>
<path d="M78.4757 39.5831H21.5312V32.6387C21.5312 29.5692 24.0174 27.0831 27.0868 27.0831H72.9201C75.9896 27.0831 78.4757 29.5692 78.4757 32.6387V39.5831Z" fill="#FEE4E2"/>
<path d="M33.3359 75.6943V39.5831H27.0859V75.6943C27.0859 78.7498 29.5859 81.2498 32.6415 81.2498H38.8915C35.8359 81.2498 33.3359 78.7498 33.3359 75.6943Z" fill="#E1D8D5"/>
<path d="M33.3368 27.0831H27.0868C24.0174 27.0831 21.5312 29.5692 21.5312 32.6387V39.5831H27.7813V32.6387C27.7813 29.5692 30.2674 27.0831 33.3368 27.0831Z" fill="#F04438"/>
<path d="M11.2148 13.2747L13.179 11.3105L17.1074 15.2388L15.1432 17.203L11.2148 13.2747Z" fill="#A4AFC1"/>
<path d="M10.7227 26.5275L14.651 22.5991L16.6152 24.5633L12.6868 28.4917L10.7227 26.5275Z" fill="#A4AFC1"/>
<path d="M22.0156 15.2371L25.944 11.3087L27.9082 13.2729L23.9798 17.2012L22.0156 15.2371Z" fill="#A4AFC1"/>
<path d="M77.0846 17.0694C74.7874 17.0694 72.918 15.1999 72.918 12.9027C72.918 10.6055 74.7874 8.73602 77.0846 8.73602C79.3819 8.73602 81.2513 10.6055 81.2513 12.9027C81.2513 15.1999 79.3819 17.0694 77.0846 17.0694ZM77.0846 11.5138C76.318 11.5138 75.6957 12.136 75.6957 12.9027C75.6957 13.6694 76.318 14.2916 77.0846 14.2916C77.8513 14.2916 78.4735 13.6694 78.4735 12.9027C78.4735 12.136 77.8513 11.5138 77.0846 11.5138Z" fill="#A4AFC1"/>
<path d="M67.3611 83.3331H32.6389C28.425 83.3331 25 79.9081 25 75.6942V39.5831H29.1667V75.6942C29.1667 77.6081 30.725 79.1665 32.6389 79.1665H67.3611C69.275 79.1665 70.8333 77.6081 70.8333 75.6942V39.5831H75V75.6942C75 79.9081 71.575 83.3331 67.3611 83.3331Z" fill="#1C234F"/>
<path d="M78.4741 41.6667H65.2796V37.5H76.3907V32.6389C76.3907 30.725 74.8324 29.1667 72.9185 29.1667H27.0852C25.1713 29.1667 23.613 30.725 23.613 32.6389V37.5H61.113V41.6667H21.5296C20.3796 41.6667 19.4463 40.7333 19.4463 39.5833V32.6389C19.4463 28.425 22.8713 25 27.0852 25H72.9185C77.1324 25 80.5574 28.425 80.5574 32.6389V39.5833C80.5574 40.7333 79.6241 41.6667 78.4741 41.6667Z" fill="#1C234F"/>
<path d="M63.8891 27.0832H59.7224V21.5277C59.7224 21.1443 59.4113 20.8332 59.028 20.8332H40.9724C40.5891 20.8332 40.278 21.1443 40.278 21.5277V27.0832H36.1113V21.5277C36.1113 18.8471 38.2919 16.6666 40.9724 16.6666H59.028C61.7086 16.6666 63.8891 18.8471 63.8891 21.5277V27.0832Z" fill="#1C234F"/>
<path d="M47.915 52.0831H52.0817V70.1387H47.915V52.0831Z" fill="#1C234F"/>
<path d="M36.1113 52.0831H40.278V70.1387H36.1113V52.0831Z" fill="#1C234F"/>
<path d="M59.7236 52.0831H63.8903V70.1387H59.7236V52.0831Z" fill="#1C234F"/>
<path d="M5.55566 79.1666H94.4445V83.3332H5.55566V79.1666Z" fill="#1C234F"/>
</svg>
