<svg xmlns="http://www.w3.org/2000/svg" width="20" height="20" fill="none" viewBox="0 0 20 20"><path stroke="currentColor" stroke-width="1.5" d="M3.333 6.667c0-2.357 0-3.536.733-4.268.731-.732 1.91-.732 4.267-.732h3.333c2.357 0 3.536 0 4.268.732s.732 1.911.732 4.268v6.667c0 2.356 0 3.535-.732 4.267s-1.911.733-4.268.733H8.333c-2.357 0-3.536 0-4.267-.733-.733-.732-.733-1.91-.733-4.267z"/><path stroke="currentColor" stroke-width="1.5" d="M16.581 13.334h-10c-.775 0-1.162 0-1.48.085a2.5 2.5 0 0 0-1.768 1.768"/><path stroke="currentColor" stroke-linecap="round" stroke-width="1.5" d="M6.666 5.834h6.667M6.666 8.751h4.167m5.416 7.083H6.666"/></svg>