<svg xmlns="http://www.w3.org/2000/svg" aria-hidden="true" viewBox="0 0 48 42"><path fill="#4294ff" d="M33.75 0h-33A.75.75 0 0 0 0 .75v27c0 .414.336.75.75.75h33a.75.75 0 0 0 .75-.75v-27a.75.75 0 0 0-.75-.75"/><path fill="#e6ecff" d="M12 0v9.75a.75.75 0 0 0 .75.75h9a.75.75 0 0 0 .75-.75V0zM7.5 26.25H3a.75.75 0 1 1 0-1.5h4.5a.75.75 0 1 1 0 1.5m6-3H3a.75.75 0 1 1 0-1.5h10.5a.75.75 0 1 1 0 1.5m34.28 7.72-13.5-13.5a.75.75 0 0 0-.53-.22H24a.75.75 0 0 0-.75.75v9.75c0 .199.08.39.22.53l13.5 13.5a.75.75 0 0 0 1.06 0l9.75-9.75a.75.75 0 0 0 0-1.06"/><path fill="#2946ed" d="M34.646 29.001q-.72.971.01 1.657.696.657 1.814.033.03-.017.03-.048a.1.1 0 0 0-.033-.061l-1.697-1.6q-.073-.068-.124.02Zm5.041 1.821q-.392-.37-.828-.388-.444-.026-1.065.311-.076.05-.012.11l1.864 1.758q.073.068.124-.02.702-1.031-.083-1.771m-2.665.405q-1.827 1.073-2.932.032-.577-.544-.582-1.26.002-.722.61-1.496.068-.072-.004-.14l-.488-.46a.33.33 0 0 1-.109-.238.35.35 0 0 1 .094-.26.31.31 0 0 1 .246-.1.31.31 0 0 1 .252.085l.48.453q.072.069.14-.004.569-.522 1.14-.905a.5.5 0 0 1 .325-.072.47.47 0 0 1 .3.132.27.27 0 0 1 .085.246.28.28 0 0 1-.15.223 6.5 6.5 0 0 0-1.172.874q-.068.072-.004.133l1.825 1.72q.072.07.155.011 1.025-.621 1.734-.587t1.301.592q.625.588.631 1.335t-.6 1.55q-.052.088.012.148l.488.46a.31.31 0 0 1 .1.247.31.31 0 0 1-.086.251.35.35 0 0 1-.253.109.33.33 0 0 1-.244-.094l-.48-.453q-.072-.068-.133-.004-.613.57-1.264.924a.54.54 0 0 1-.349.065.6.6 0 0 1-.316-.162.25.25 0 0 1-.077-.239.26.26 0 0 1 .158-.199 5 5 0 0 0 1.32-.887q.061-.064-.004-.124l-2-1.887q-.072-.068-.149-.019"/><path fill="#376cfb" d="M30 27a3 3 0 1 0 0-6 3 3 0 0 0 0 6"/><path fill="#2946ed" d="M30 24.75c-.357 0-8.775-.082-11.935-7.195a.75.75 0 1 1 1.37-.61C22.2 23.159 29.926 23.25 30 23.25a.75.75 0 1 1 0 1.5"/></svg>