<svg xmlns="http://www.w3.org/2000/svg" viewBox="0 0 48 42" role="presentation" aria-hidden="true"><path d="M33.75 0h-33A.75.75 0 0 0 0 .75v27c0 .414.336.75.75.75h33a.75.75 0 0 0 .75-.75v-27a.75.75 0 0 0-.75-.75Z" fill="#4294FF"/><path d="M12 0v9.75a.75.75 0 0 0 .75.75h9a.75.75 0 0 0 .75-.75V0H12ZM7.5 26.25H3a.75.75 0 1 1 0-1.5h4.5a.75.75 0 1 1 0 1.5ZM13.5 23.25H3a.75.75 0 1 1 0-1.5h10.5a.75.75 0 1 1 0 1.5ZM47.78 30.97l-13.5-13.5a.75.75 0 0 0-.53-.22H24a.75.75 0 0 0-.75.75v9.75c0 .199.08.39.22.53l13.5 13.5a.75.75 0 0 0 1.06 0l9.75-9.75a.75.75 0 0 0 0-1.06Z" fill="#E6ECFF"/><path d="M34.646 29.001c-.48.647-.476 1.2.01 1.657.464.438 1.069.449 1.814.033.02-.011.03-.027.03-.048a.118.118 0 0 0-.033-.061l-1.697-1.6c-.048-.045-.09-.039-.124.02Zm5.041 1.821c-.261-.246-.537-.376-.828-.388-.296-.017-.651.086-1.065.311-.05.033-.055.07-.012.11l1.864 1.758c.048.045.09.039.124-.02.468-.687.44-1.278-.083-1.771Zm-2.665.405c-1.218.715-2.196.726-2.932.032-.385-.363-.578-.782-.582-1.26.001-.482.205-.98.61-1.496.045-.048.044-.095-.004-.14l-.488-.46a.33.33 0 0 1-.109-.238.347.347 0 0 1 .094-.26.313.313 0 0 1 .246-.1.313.313 0 0 1 .252.085l.48.453c.048.046.094.044.14-.004.379-.348.759-.65 1.14-.905a.504.504 0 0 1 .325-.072c.114.008.214.051.3.132.069.065.097.147.085.246a.284.284 0 0 1-.15.223 6.53 6.53 0 0 0-1.172.874c-.045.048-.047.093-.004.133l1.825 1.72c.048.046.1.05.155.011.684-.414 1.261-.61 1.734-.587.473.022.907.22 1.301.592.417.392.627.837.631 1.335.004.498-.196 1.015-.6 1.55-.035.059-.031.108.012.148l.488.46c.07.066.103.148.1.247a.313.313 0 0 1-.086.251.347.347 0 0 1-.253.109.33.33 0 0 1-.244-.094l-.48-.453c-.048-.045-.093-.047-.133-.004-.409.38-.83.688-1.264.924a.542.542 0 0 1-.349.065.617.617 0 0 1-.316-.162.246.246 0 0 1-.077-.239.26.26 0 0 1 .158-.199 4.991 4.991 0 0 0 1.32-.887c.04-.043.04-.084-.004-.124l-2-1.887c-.048-.045-.098-.052-.149-.019Z" fill="#2946ED"/><path d="M30 27a3 3 0 1 0 0-6 3 3 0 0 0 0 6Z" fill="#376CFB"/><path d="M30 24.75c-.357 0-8.775-.082-11.935-7.195a.75.75 0 1 1 1.37-.61C22.2 23.159 29.926 23.25 30 23.25a.75.75 0 1 1 0 1.5Z" fill="#2946ED"/></svg>