<svg xmlns="http://www.w3.org/2000/svg" viewBox="0 0 24 24" role="presentation" aria-hidden="true"><path fill-rule="evenodd" clip-rule="evenodd" d="M5.708 6.267C7.117 4.7 9.062 3.74 11.287 3.51c.294-.031 1.594.01 1.907.059 1.899.294 3.506 1.1 4.824 2.418 1.334 1.333 2.141 2.96 2.423 4.898.078.518.078 1.68.004 2.216-.261 1.857-1.049 3.479-2.33 4.8a8.459 8.459 0 0 1-3.708 2.25c-3.077.892-6.294.043-8.522-2.25-1.275-1.315-2.057-2.918-2.326-4.784-.078-.524-.078-1.718-.004-2.232.27-1.81.96-3.296 2.153-4.62Zm14.14 3.596a8.16 8.16 0 0 0-6.666-5.909c-.388-.059-1.443-.102-1.74-.071-.832.084-1.331.183-1.992.4a8.1 8.1 0 0 0-4.74 4.123 7.77 7.77 0 0 0-.726 2.223 8.132 8.132 0 0 0 5.686 9.15 8.925 8.925 0 0 0 1.452.295c.388.044 1.368.044 1.756 0a8.203 8.203 0 0 0 5.333-2.833c1.722-2.05 2.339-4.824 1.638-7.378Z" fill="currentColor"/><path fill-rule="evenodd" clip-rule="evenodd" d="M11.473 4.732c-2.935.217-5.467 2.183-6.388 4.96a7.475 7.475 0 0 0-.186 3.931c.58 2.592 2.64 4.73 5.205 5.403.723.19 1.046.227 1.896.227.85 0 1.173-.038 1.896-.227 1.7-.446 3.22-1.55 4.21-3.056a7.294 7.294 0 0 0 1.125-3.085c.063-.483.047-1.59-.03-2.046a7.325 7.325 0 0 0-.668-2.061 7.288 7.288 0 0 0-7.06-4.046Zm2.543 1.522c.838.15 1.589.81 1.887 1.665.08.236.096.322.108.688.013.357.003.462-.052.682a2.51 2.51 0 0 1-1.45 1.715c-.195.083-.415.148-.415.127 0-.007.047-.109.106-.223a3.078 3.078 0 0 0 0-2.738c-.342-.682-1.037-1.277-1.75-1.497l-.124-.04a3.33 3.33 0 0 1-.093-.031c-.066-.022.239-.174.543-.273.39-.127.79-.152 1.24-.075Zm-.046 2.871c-.168-.955-.884-1.727-1.846-1.987-.217-.059-.806-.09-1.014-.05a2.547 2.547 0 0 0-2.017 1.814c-.059.21-.071.316-.068.682 0 .397.01.459.096.719.357 1.073 1.272 1.745 2.373 1.745.413 0 .701-.059 1.04-.217.691-.322 1.141-.834 1.374-1.565.087-.28.118-.828.062-1.141Zm2.032 2.272c.934.295 1.502 1.008 1.753 2.201.065.32.146 1.203.115 1.284-.019.043-.094.05-.565.05-.298 0-.543-.01-.543-.02 0-.13-.115-.73-.186-.97-.307-1.035-.977-1.816-1.76-2.049-.074-.021-.133-.052-.133-.065 0-.015.1-.14.224-.279l.223-.254.33.019c.207.009.402.04.542.083Zm-4.483 2.372-.8-.79c-.82-.812-.95-.961-1.092-.972-.047-.003-.096.009-.17.017-1.558.167-2.504 1.205-2.688 2.945-.037.34-.024 1.196.02 1.261.012.025 1.395.034 4.727.034h4.713l.018-.096c.037-.186.019-1.097-.028-1.407-.127-.84-.428-1.46-.955-1.96a3.034 3.034 0 0 0-1.697-.78l-.233-.029-.62.611c-.342.335-.751.735-.91.887l-.285.279Z" fill="currentColor"/></svg>