<svg xmlns="http://www.w3.org/2000/svg" aria-hidden="true" viewBox="0 0 24 24"><g clip-path="url(#a)"><path fill="currentColor" d="M14.4 18v.6a.6.6 0 0 0 .6-.6zm-4.8 0H9a.6.6 0 0 0 .6.6zm.6 2.4a.6.6 0 0 0 .6.6h2.4a.6.6 0 1 0 0-1.2h-2.4a.6.6 0 0 0-.6.6m-2.904-9.72-.012.084 1.188.168.013-.084zM12 6.6a4.75 4.75 0 0 0-4.704 4.08l1.19.168A3.55 3.55 0 0 1 12 7.8zm4.704 4.08A4.75 4.75 0 0 0 12 6.6v1.2a3.55 3.55 0 0 1 3.516 3.048zm.012.084-.012-.084-1.188.168.01.084zm-.948 3.587a4.75 4.75 0 0 0 .948-3.587l-1.188.17a3.54 3.54 0 0 1-.708 2.682zM13.8 16.08V18H15v-1.919zm.6 1.32H9.6v1.2h4.8zm-4.2.6v-1.919H9V18zm-2.916-7.236a4.74 4.74 0 0 0 .948 3.587l.95-.735a3.54 3.54 0 0 1-.71-2.684zM10.2 16.08c0-.988-.526-1.828-1.02-2.465l-.948.736c.46.594.768 1.16.768 1.729zm4.62-2.465c-.496.639-1.02 1.477-1.02 2.465H15c0-.569.308-1.135.768-1.73zM12 3a.6.6 0 0 0-.6.6v1.2a.6.6 0 1 0 1.2 0V3.6A.6.6 0 0 0 12 3m-9 9a.6.6 0 0 0 .6.6h1.2a.6.6 0 1 0 0-1.2H3.6a.6.6 0 0 0-.6.6m15.6 0a.6.6 0 0 0 .6.6h1.2a.6.6 0 1 0 0-1.2h-1.2a.6.6 0 0 0-.6.6m-12-4.2a.6.6 0 0 0 0-.85L5.65 6a.6.6 0 0 0-.85.85l.95.95a.6.6 0 0 0 .85 0m10.8 0a.6.6 0 0 0 .85 0l.95-.95a.6.6 0 0 0-.85-.85l-.95.95a.6.6 0 0 0 0 .85"/></g><defs><clipPath id="a"><path fill="currentColor" d="M3 3h18v18H3z"/></clipPath></defs></svg>