<svg xmlns="http://www.w3.org/2000/svg" width="20" height="20" fill="none" viewBox="0 0 20 20"><path stroke="currentColor" stroke-linecap="round" stroke-linejoin="round" d="M14.377 10.408c-.237 1.97-1.528 2.758-2.085 3.33-.559.573-.459.687-.421 1.528a.765.765 0 0 1-.764.809H8.894a.767.767 0 0 1-.765-.81c0-.824.077-1.016-.42-1.527-.633-.634-2.123-1.528-2.123-3.987a4.422 4.422 0 1 1 8.792.657"/><path stroke="currentColor" stroke-linecap="round" stroke-linejoin="round" d="M8.716 16.03v1.26c0 .344.192.626.428.626h1.71c.238 0 .43-.283.43-.626v-1.26M9.35 7.246a1.856 1.856 0 0 0-1.855 1.856m8.615.818h1.528m-3.067-5.01 1.085-1.085m-.251 10.341 1.084 1.084M9.999 1.98v1.236m-5.633.609L5.443 4.91m-1.91 10.34 1.077-1.084M3.89 9.92H2.362"/></svg>