<svg width="25" height="25" viewBox="0 0 25 25" fill="none" xmlns="http://www.w3.org/2000/svg">
<path d="M4.58353 8.08654L12.6749 12.8462M12.6749 12.8462L20.7662 8.08654M12.6749 12.8462V21.5M20.9826 16.1926V8.80393C20.9823 8.5621 20.9186 8.32456 20.798 8.11496C20.6774 7.90536 20.504 7.73101 20.295 7.60927L13.7181 3.78167C13.4012 3.59719 13.0411 3.5 12.6744 3.5C12.3078 3.5 11.9477 3.59719 11.6308 3.78167L5.05474 7.60927C4.84579 7.73101 4.67237 7.90536 4.55174 8.11496C4.43111 8.32456 4.36748 8.5621 4.36719 8.80393V16.1926C4.36733 16.4346 4.43089 16.6723 4.55152 16.882C4.67216 17.0918 4.84566 17.2663 5.05474 17.3881L11.6317 21.2157C11.9486 21.3999 12.3087 21.497 12.6753 21.497C13.0419 21.497 13.402 21.3999 13.719 21.2157L20.2959 17.3881C20.5048 17.2662 20.6781 17.0916 20.7986 16.8819C20.9191 16.6721 20.9825 16.4345 20.9826 16.1926Z" stroke="#446EF5" stroke-width="1.38462" stroke-linecap="round" stroke-linejoin="round"/>
</svg>
