<svg xmlns="http://www.w3.org/2000/svg" width="20" height="20" fill="none" viewBox="0 0 20 20"><path stroke="currentColor" stroke-linecap="round" stroke-linejoin="round" stroke-width="1.5" d="M17.987 9.413V10a.8.8 0 0 1-.472.735l-6.858 3.118a1.6 1.6 0 0 1-1.32 0l-6.873-3.126A.8.8 0 0 1 2 10.001v-.588m15.987 3.996v.588a.8.8 0 0 1-.472.736l-6.858 3.117a1.6 1.6 0 0 1-1.32 0l-6.873-3.125A.8.8 0 0 1 2 13.997v-.588m8.657-11.258a1.6 1.6 0 0 0-1.327 0L2.48 5.268a.8.8 0 0 0 0 1.463l6.858 3.126a1.6 1.6 0 0 0 1.327 0l6.858-3.118a.8.8 0 0 0 0-1.463z"/></svg>