<svg xmlns="http://www.w3.org/2000/svg" viewBox="0 0 26 26" role="presentation" aria-hidden="true"><path d="M24.64 26H12.588a.356.356 0 0 1-.328-.218.35.35 0 0 1-.027-.135v-.018.002l.709-14.029a.352.352 0 0 1 .353-.331H23.93c.189 0 .343.146.354.33v.001l.705 13.958a.35.35 0 0 1-.342.44h-.008Zm-9.922-11.787c.002.508.337.936.798 1.082l.008.002c.372 1.789 1.651 3.113 3.171 3.113 1.52 0 2.797-1.325 3.167-3.107.247-.073.463-.226.612-.435a1.139 1.139 0 0 0-.068-1.412 1.153 1.153 0 0 0-1.397-.269 1.138 1.138 0 0 0-.19 1.915l.004.002c-.27 1.298-1.122 2.25-2.132 2.25s-1.857-.946-2.13-2.239a1.14 1.14 0 0 0 .44-1.016 1.135 1.135 0 0 0-.636-.908 1.155 1.155 0 0 0-1.508.468c-.095.169-.145.359-.145.552v.004l.006-.002ZM.354 24.617a.356.356 0 0 1-.332-.23.35.35 0 0 1-.021-.141L.986 4.749a.351.351 0 0 1 .354-.332h2.403C4.496 1.816 6.507 0 8.845 0c2.338 0 4.347 1.817 5.1 4.414h2.175c.188 0 .343.147.353.33v.002l.284 5.644h-3.46c-.664 0-1.205.517-1.238 1.167v.003l-.66 13.057H.354ZM11.938 6.151c-.284.184-.5.454-.617.77a1.552 1.552 0 0 0 .533 1.79 1.58 1.58 0 0 0 2.49-.964c.066-.359.005-.73-.176-1.049a1.568 1.568 0 0 0-.81-.694L13.346 6c-.258-2.88-2.178-5.124-4.5-5.124-2.323 0-4.251 2.248-4.505 5.133a1.568 1.568 0 0 0-.783.664 1.552 1.552 0 0 0 .267 1.915 1.575 1.575 0 0 0 2.572-.616 1.55 1.55 0 0 0-.64-1.825l-.006-.003c.183-2.17 1.5-3.858 3.094-3.858 1.594 0 2.915 1.694 3.095 3.867l-.003-.003ZM7.152 4.412h3.38a2.085 2.085 0 0 0-1.68-1.246l-.01-.001A2.079 2.079 0 0 0 7.157 4.4l-.005.013Zm13.956 9.771a.412.412 0 0 1 .416-.444.419.419 0 0 1 .393.277.41.41 0 0 1 .022.167.413.413 0 0 1-.415.377.418.418 0 0 1-.415-.377Zm-5.696 0a.412.412 0 0 1 .257-.382.42.42 0 0 1 .454.09.413.413 0 0 1-.295.706.418.418 0 0 1-.412-.414h-.004Zm-3.245-6.66a.613.613 0 0 1 .618-.614.621.621 0 0 1 .62.615.613.613 0 0 1-.62.615.621.621 0 0 1-.618-.615Zm-7.882 0a.614.614 0 0 1 .372-.61.625.625 0 0 1 .834.361c.028.08.04.165.034.25a.616.616 0 0 1-.62.566.624.624 0 0 1-.619-.566h-.001Z" fill="#36F"/></svg>