<svg xmlns="http://www.w3.org/2000/svg" aria-hidden="true" viewBox="0 0 26 26"><path fill="#36f" d="M24.64 26H12.588a.36.36 0 0 1-.328-.218.4.4 0 0 1-.027-.135v-.018.002l.709-14.029a.35.35 0 0 1 .353-.331H23.93c.189 0 .343.146.354.33v.001l.705 13.958a.35.35 0 0 1-.342.44h-.008Zm-9.922-11.787c.002.508.337.936.798 1.082l.008.002c.372 1.789 1.651 3.113 3.171 3.113s2.797-1.325 3.167-3.107c.247-.073.463-.226.612-.435a1.14 1.14 0 0 0-.068-1.412 1.15 1.15 0 0 0-1.397-.269 1.138 1.138 0 0 0-.19 1.915l.004.002c-.27 1.298-1.122 2.25-2.132 2.25s-1.857-.946-2.13-2.239a1.14 1.14 0 0 0 .44-1.016 1.14 1.14 0 0 0-.636-.908 1.155 1.155 0 0 0-1.508.468 1.1 1.1 0 0 0-.145.552v.004zM.354 24.617a.36.36 0 0 1-.332-.23.4.4 0 0 1-.021-.141L.986 4.749a.35.35 0 0 1 .354-.332h2.403C4.496 1.816 6.507 0 8.845 0s4.347 1.817 5.1 4.414h2.175c.188 0 .343.147.353.33v.002l.284 5.644h-3.46c-.664 0-1.205.517-1.238 1.167v.003l-.66 13.057zM11.938 6.151c-.284.184-.5.454-.617.77a1.55 1.55 0 0 0 .533 1.79 1.58 1.58 0 0 0 2.49-.964c.066-.359.005-.73-.176-1.049a1.57 1.57 0 0 0-.81-.694L13.346 6c-.258-2.88-2.178-5.124-4.5-5.124S4.595 3.124 4.341 6.009a1.57 1.57 0 0 0-.783.664 1.55 1.55 0 0 0 .267 1.915 1.575 1.575 0 0 0 2.572-.616 1.55 1.55 0 0 0-.64-1.825l-.006-.003c.183-2.17 1.5-3.858 3.094-3.858S11.76 3.98 11.94 6.153zM7.152 4.412h3.38a2.09 2.09 0 0 0-1.68-1.246l-.01-.001A2.08 2.08 0 0 0 7.157 4.4l-.005.013Zm13.956 9.771a.41.41 0 0 1 .416-.444.42.42 0 0 1 .393.277.4.4 0 0 1 .022.167.413.413 0 0 1-.415.377.42.42 0 0 1-.415-.377Zm-5.696 0a.41.41 0 0 1 .257-.382.42.42 0 0 1 .454.09.413.413 0 0 1-.295.706.42.42 0 0 1-.412-.414zm-3.245-6.66a.613.613 0 0 1 .618-.614.62.62 0 0 1 .62.615.613.613 0 0 1-.62.615.62.62 0 0 1-.618-.615Zm-7.882 0a.61.61 0 0 1 .372-.61.625.625 0 0 1 .834.361q.042.121.034.25a.616.616 0 0 1-.62.566.624.624 0 0 1-.619-.566h-.001Z"/></svg>