<svg xmlns="http://www.w3.org/2000/svg" width="20" height="20" fill="none" viewBox="0 0 20 20"><path stroke="currentColor" stroke-linecap="round" stroke-width="1.25" d="M5.835 3.333v-1.25m8.333 1.25v-1.25"/><path fill="currentColor" d="M11.668 3.333c3.143 0 4.715 0 5.69.977.976.976.977 2.548.977 5.69v1.666c0 3.142 0 4.715-.977 5.69-.976.976-2.548.977-5.69.977H8.335c-3.143 0-4.715 0-5.69-.977-.976-.976-.977-2.548-.977-5.69V10c0-.94 0-1.74.026-2.425.038.31.299.55.619.55h15.359a.625.625 0 0 0 0-1.25H2.312a.624.624 0 0 0-.608.483c.072-1.477.287-2.396.94-3.048.977-.976 2.548-.977 5.691-.977zm-5.835 10a.833.833 0 1 0 0 1.667.833.833 0 0 0 0-1.667m4.167 0a.833.833 0 1 0 0 1.666.833.833 0 0 0 0-1.666m4.167 0a.835.835 0 0 0-.59 1.423.834.834 0 0 0 1.179-1.179.83.83 0 0 0-.589-.244M5.833 10a.833.833 0 1 0-.001 1.666A.833.833 0 0 0 5.833 10M10 10a.833.833 0 1 0-.002 1.665A.833.833 0 0 0 10 10m4.167 0a.834.834 0 1 0-.003 1.668.834.834 0 0 0 .003-1.668M1.704 7.358l-.01.217q-.005-.037-.006-.075a.6.6 0 0 1 .016-.142"/></svg>