<svg xmlns="http://www.w3.org/2000/svg" width="20" height="20" fill="none" viewBox="0 0 20 20"><path stroke="currentColor" stroke-linecap="round" stroke-linejoin="round" stroke-width="1.2" d="M14 3.778V2M6 3.778V2M2.222 6.444h15.555M2 8.261c0-1.88 0-2.82.388-3.538.35-.64.894-1.154 1.553-1.468.761-.366 1.757-.366 3.748-.366h4.622c1.991 0 2.987 0 3.748.366a3.47 3.47 0 0 1 1.553 1.467c.388.72.388 1.66.388 3.54v4.367c0 1.88 0 2.82-.388 3.538a3.47 3.47 0 0 1-1.553 1.468C15.298 18 14.302 18 12.31 18H7.69c-1.991 0-2.987 0-3.748-.366a3.47 3.47 0 0 1-1.553-1.467C2 15.447 2 14.507 2 12.627z"/><path stroke="currentColor" stroke-linecap="round" stroke-linejoin="round" stroke-width="1.2" d="m7.676 11.994 1.55 1.549 3.098-3.099"/></svg>