<svg xmlns="http://www.w3.org/2000/svg" aria-hidden="true" viewBox="0 0 30 32"><path fill="currentColor" fill-rule="evenodd" d="M10.995 5.388c.517 0 .937.447.937 1v1.136h6.135V6.388c0-.553.42-1 .938-1 .517 0 .937.447.937 1v1.136h2.066c.78 0 1.528.33 2.08.918.55.588.86 1.386.86 2.218v12.816c0 .832-.31 1.63-.86 2.217a2.85 2.85 0 0 1-2.08.919H7.991a2.85 2.85 0 0 1-2.08-.919 3.25 3.25 0 0 1-.86-2.217V10.66c0-.832.31-1.63.86-2.218a2.85 2.85 0 0 1 2.08-.918h2.066V6.388c0-.553.42-1 .938-1m-.938 4.136H7.991c-.283 0-.554.12-.753.332-.2.213-.312.502-.312.804v12.816c0 .301.112.59.312.803s.47.333.753.333h14.017c.283 0 .554-.12.753-.333.2-.213.312-.502.312-.803V10.66c0-.302-.112-.59-.312-.804-.2-.213-.47-.332-.753-.332h-2.066v1.136c0 .552-.42 1-.937 1s-.938-.448-.938-1V9.524h-6.135v1.136c0 .552-.42 1-.937 1s-.938-.448-.938-1zm-1.001 5.408c0-.553.42-1 .937-1h10.013c.518 0 .937.447.937 1s-.42 1-.937 1H9.993c-.517 0-.937-.448-.937-1" clip-rule="evenodd"/></svg>