<svg xmlns="http://www.w3.org/2000/svg" width="24" height="24" fill="none" viewBox="0 0 24 24"><path fill="currentColor" d="M15.75 12a.75.75 0 0 1-.75.75H9a.75.75 0 1 1 0-1.5h6a.75.75 0 0 1 .75.75M15 14.25H9a.75.75 0 1 0 0 1.5h6a.75.75 0 1 0 0-1.5m5.25-10.5v15a3 3 0 0 1-3 3H6.75a3 3 0 0 1-3-3v-15A.75.75 0 0 1 4.5 3h2.25v-.75a.75.75 0 0 1 1.5 0V3h3v-.75a.75.75 0 1 1 1.5 0V3h3v-.75a.75.75 0 1 1 1.5 0V3h2.25a.75.75 0 0 1 .75.75m-1.5.75h-1.5v.75a.75.75 0 1 1-1.5 0V4.5h-3v.75a.75.75 0 1 1-1.5 0V4.5h-3v.75a.75.75 0 0 1-1.5 0V4.5h-1.5v14.25a1.5 1.5 0 0 0 1.5 1.5h10.5a1.5 1.5 0 0 0 1.5-1.5z"/></svg>