<svg xmlns="http://www.w3.org/2000/svg" width="20" height="20" fill="none" viewBox="0 0 20 20"><path stroke="currentColor" stroke-width="1.25" d="M1.668 10c0-3.143 0-4.714.977-5.69.976-.976 2.547-.977 5.69-.977h3.333c3.143 0 4.714 0 5.69.977.976.976.977 2.547.977 5.69v1.666c0 3.143 0 4.715-.977 5.69s-2.548.977-5.69.977H8.335c-3.143 0-4.715 0-5.69-.977-.976-.976-.977-2.547-.977-5.69z"/><path stroke="currentColor" stroke-linecap="round" stroke-width="1.25" d="M5.835 3.333v-1.25m8.333 1.25v-1.25M2.085 7.5h15.833"/><path fill="currentColor" d="M15.001 14.167a.833.833 0 1 1-1.666 0 .833.833 0 0 1 1.666 0m0-3.334a.833.833 0 1 1-1.667 0 .833.833 0 0 1 1.667 0m-4.167 3.334a.833.833 0 1 1-1.666 0 .833.833 0 0 1 1.666 0m0-3.334a.833.833 0 1 1-1.667 0 .833.833 0 0 1 1.667 0m-4.166 3.334a.833.833 0 1 1-1.667 0 .833.833 0 0 1 1.667 0m0-3.334a.833.833 0 1 1-1.667 0 .833.833 0 0 1 1.667 0"/></svg>