<svg width="25" height="24" viewBox="0 0 25 24" fill="none" xmlns="http://www.w3.org/2000/svg">
<path d="M15.9233 12C15.9233 12.1989 15.8443 12.3897 15.7037 12.5303C15.563 12.671 15.3723 12.75 15.1733 12.75H9.17334C8.97443 12.75 8.78366 12.671 8.64301 12.5303C8.50236 12.3897 8.42334 12.1989 8.42334 12C8.42334 11.8011 8.50236 11.6103 8.64301 11.4697C8.78366 11.329 8.97443 11.25 9.17334 11.25H15.1733C15.3723 11.25 15.563 11.329 15.7037 11.4697C15.8443 11.6103 15.9233 11.8011 15.9233 12ZM15.1733 14.25H9.17334C8.97443 14.25 8.78366 14.329 8.64301 14.4697C8.50236 14.6103 8.42334 14.8011 8.42334 15C8.42334 15.1989 8.50236 15.3897 8.64301 15.5303C8.78366 15.671 8.97443 15.75 9.17334 15.75H15.1733C15.3723 15.75 15.563 15.671 15.7037 15.5303C15.8443 15.3897 15.9233 15.1989 15.9233 15C15.9233 14.8011 15.8443 14.6103 15.7037 14.4697C15.563 14.329 15.3723 14.25 15.1733 14.25ZM20.4233 3.75V18.75C20.4233 19.5456 20.1073 20.3087 19.5447 20.8713C18.9821 21.4339 18.219 21.75 17.4233 21.75H6.92334C6.12769 21.75 5.36463 21.4339 4.80202 20.8713C4.23941 20.3087 3.92334 19.5456 3.92334 18.75V3.75C3.92334 3.55109 4.00236 3.36032 4.14301 3.21967C4.28366 3.07902 4.47443 3 4.67334 3H6.92334V2.25C6.92334 2.05109 7.00236 1.86032 7.14301 1.71967C7.28366 1.57902 7.47443 1.5 7.67334 1.5C7.87225 1.5 8.06302 1.57902 8.20367 1.71967C8.34432 1.86032 8.42334 2.05109 8.42334 2.25V3H11.4233V2.25C11.4233 2.05109 11.5024 1.86032 11.643 1.71967C11.7837 1.57902 11.9744 1.5 12.1733 1.5C12.3723 1.5 12.563 1.57902 12.7037 1.71967C12.8443 1.86032 12.9233 2.05109 12.9233 2.25V3H15.9233V2.25C15.9233 2.05109 16.0024 1.86032 16.143 1.71967C16.2837 1.57902 16.4744 1.5 16.6733 1.5C16.8723 1.5 17.063 1.57902 17.2037 1.71967C17.3443 1.86032 17.4233 2.05109 17.4233 2.25V3H19.6733C19.8723 3 20.063 3.07902 20.2037 3.21967C20.3443 3.36032 20.4233 3.55109 20.4233 3.75ZM18.9233 4.5H17.4233V5.25C17.4233 5.44891 17.3443 5.63968 17.2037 5.78033C17.063 5.92098 16.8723 6 16.6733 6C16.4744 6 16.2837 5.92098 16.143 5.78033C16.0024 5.63968 15.9233 5.44891 15.9233 5.25V4.5H12.9233V5.25C12.9233 5.44891 12.8443 5.63968 12.7037 5.78033C12.563 5.92098 12.3723 6 12.1733 6C11.9744 6 11.7837 5.92098 11.643 5.78033C11.5024 5.63968 11.4233 5.44891 11.4233 5.25V4.5H8.42334V5.25C8.42334 5.44891 8.34432 5.63968 8.20367 5.78033C8.06302 5.92098 7.87225 6 7.67334 6C7.47443 6 7.28366 5.92098 7.14301 5.78033C7.00236 5.63968 6.92334 5.44891 6.92334 5.25V4.5H5.42334V18.75C5.42334 19.1478 5.58138 19.5294 5.86268 19.8107C6.14398 20.092 6.52552 20.25 6.92334 20.25H17.4233C17.8212 20.25 18.2027 20.092 18.484 19.8107C18.7653 19.5294 18.9233 19.1478 18.9233 18.75V4.5Z" fill="currentColor"/>
</svg>
