<svg width="20" height="20" viewBox="0 0 20 20" fill="none" xmlns="http://www.w3.org/2000/svg"><path d="M10 6.757c2.177 0 4.324.48 6.314 1.402C17.396 8.66 18 9.798 18 10.992v.738a1.514 1.514 0 0 1-1.514 1.513h-1.73a1.513 1.513 0 0 1-1.513-1.513v-.426a1.297 1.297 0 0 0-1.297-1.297H8.054a1.297 1.297 0 0 0-1.297 1.297v.426a1.513 1.513 0 0 1-1.514 1.513h-1.73A1.513 1.513 0 0 1 2 11.73v-.738c0-1.193.604-2.33 1.686-2.833A14.962 14.962 0 0 1 10 6.757Z" stroke="currentColor" stroke-width="1.4" stroke-linejoin="round"/></svg>