<svg xmlns="http://www.w3.org/2000/svg" width="20" height="20" fill="none" viewBox="0 0 20 20"><path fill="currentColor" fill-rule="evenodd" d="M8.222 17.2h3.556c2.496 0 3.745 0 4.642-.588.387-.253.72-.58.98-.963.6-.88.6-2.107.6-4.558s0-3.677-.6-4.557a3.5 3.5 0 0 0-.98-.964c-.576-.378-1.298-.513-2.402-.561-.528 0-.981-.392-1.084-.9A1.65 1.65 0 0 0 11.307 2.8H8.693c-.79 0-1.471.548-1.627 1.309-.103.508-.556.9-1.084.9-1.104.048-1.825.184-2.402.561a3.5 3.5 0 0 0-.98.964C2 7.414 2 8.639 2 11.09s0 3.677.6 4.558c.258.38.591.708.98.963.897.588 2.146.588 4.642.588M10 7.818c-1.84 0-3.334 1.465-3.334 3.272 0 1.808 1.494 3.275 3.334 3.275s3.334-1.466 3.334-3.273S11.84 7.818 10 7.818m0 1.31c-1.104 0-2 .878-2 1.963s.896 1.963 2 1.963 2-.879 2-1.963-.896-1.964-2-1.964m3.778-.655a.66.66 0 0 1 .667-.655h.888c.368 0 .667.293.667.655a.66.66 0 0 1-.666.654h-.89a.66.66 0 0 1-.666-.654" clip-rule="evenodd"/></svg>