<svg width="20" height="20" viewBox="0 0 20 20" fill="none" xmlns="http://www.w3.org/2000/svg">
<path d="M6.75055 17.964C7.1915 17.964 7.54895 17.6065 7.54895 17.1656C7.54895 16.7246 7.1915 16.3672 6.75055 16.3672C6.30961 16.3672 5.95215 16.7246 5.95215 17.1656C5.95215 17.6065 6.30961 17.964 6.75055 17.964Z" stroke="currentColor" stroke-width="1.3" stroke-linecap="round" stroke-linejoin="round"/>
<path d="M15.5328 17.964C15.9737 17.964 16.3312 17.6065 16.3312 17.1656C16.3312 16.7246 15.9737 16.3672 15.5328 16.3672C15.0918 16.3672 14.7344 16.7246 14.7344 17.1656C14.7344 17.6065 15.0918 17.964 15.5328 17.964Z" stroke="currentColor" stroke-width="1.3" stroke-linecap="round" stroke-linejoin="round"/>
<path d="M2 2.03516H3.59681L5.72056 11.9513C5.79847 12.3145 6.00053 12.6391 6.29198 12.8694C6.58343 13.0996 6.94603 13.2211 7.31736 13.2128H15.1257C15.4892 13.2122 15.8415 13.0877 16.1246 12.8598C16.4076 12.6319 16.6045 12.3142 16.6826 11.9593L18 6.02717H4.4511" stroke="currentColor" stroke-width="1.3" stroke-linecap="round" stroke-linejoin="round"/>
</svg>
