<svg xmlns="http://www.w3.org/2000/svg" width="20" height="20" fill="none" viewBox="0 0 20 20"><path stroke="currentColor" stroke-width="1.2" d="M2 3.1c0-.603.49-1.093 1.094-1.093H7.78c.604 0 1.094.49 1.094 1.094V7.81c0 .604-.49 1.093-1.094 1.093H3.094C2.49 8.903 2 8.413 2 7.81zm0 9.09c0-.604.49-1.093 1.094-1.093H7.78c.604 0 1.094.49 1.094 1.093v4.71c0 .603-.49 1.093-1.094 1.093H3.094C2.49 17.993 2 17.503 2 16.9zm9.126 2.355a3.447 3.447 0 0 1 3.437-3.448A3.447 3.447 0 0 1 18 14.545a3.447 3.447 0 0 1-3.437 3.448 3.447 3.447 0 0 1-3.437-3.448Zm0-11.445c0-.603.49-1.093 1.094-1.093h4.686c.604 0 1.094.49 1.094 1.094V7.81c0 .604-.49 1.093-1.094 1.093H12.22c-.604 0-1.094-.49-1.094-1.093z"/></svg>