<svg xmlns="http://www.w3.org/2000/svg" width="20" height="20" fill="none" viewBox="0 0 20 20"><path fill="currentColor" d="M17.759 3.491a1.25 1.25 0 0 0-.884-.366H3.125a1.25 1.25 0 0 0-1.25 1.25v10a1.25 1.25 0 0 0 1.25 1.25h8.759v-2.349a4.953 4.953 0 0 1 5.333-8.14c.168.063.515.231.908.506V4.375c0-.332-.132-.65-.366-.884"/><path fill="#fff" d="M5.625 7.5h3.75a.625.625 0 0 1 0 1.25h-3.75a.625.625 0 0 1 0-1.25m0 2.503h3.75a.625.625 0 0 1 0 1.25h-3.75a.625.625 0 1 1 0-1.25"/><path fill="currentColor" d="M14.324 5.81a4.06 4.06 0 0 1 2.752.129c.207.077.749.349 1.25.822a4.054 4.054 0 0 1 0 5.855V17.5a.627.627 0 0 1-.938.547l-1.875-1.073-1.875 1.073a.626.626 0 0 1-.937-.547v-4.885a4.062 4.062 0 0 1 1.622-6.806m2.755 7.629a4.06 4.06 0 0 1-3.125 0v2.985l1.25-.715a.63.63 0 0 1 .62 0l1.25.715zm-.486-6.349a2.813 2.813 0 1 0-2.153 5.198 2.813 2.813 0 0 0 2.153-5.198"/></svg>