<svg xmlns="http://www.w3.org/2000/svg" width="20" height="20" fill="none" viewBox="0 0 20 20"><path fill="url(#a)" d="M3.75 2.5A2.5 2.5 0 0 0 1.25 5v6.25h.625a3.12 3.12 0 0 0 1.25 2.5V15H16.25a2.5 2.5 0 0 0 2.5-2.5V5a2.5 2.5 0 0 0-2.5-2.5z"/><path fill="url(#b)" fill-opacity=".9" d="M10.625 10a.624.624 0 1 0 0 1.25h3.75a.624.624 0 1 0 0-1.25z"/><path fill="url(#c)" fill-opacity=".9" d="M5.625 6.25a.625.625 0 0 0 0 1.25h8.75a.625.625 0 1 0 0-1.25z"/><path fill="url(#d)" d="M2.5 13.68v4.445a.625.625 0 0 0 .971.519L5 17.625l1.529 1.02a.626.626 0 0 0 .971-.521V13.68a4.95 4.95 0 0 1-2.5.695 4.95 4.95 0 0 1-2.5-.695"/><path fill="url(#e)" d="M8.75 11.25a3.75 3.75 0 1 1-7.5 0 3.75 3.75 0 0 1 7.5 0"/><defs><linearGradient id="a" x1="1.875" x2="9.935" y1="4.844" y2="16.567" gradientUnits="userSpaceOnUse"><stop stop-color="#0fafff"/><stop offset="1" stop-color="#2764e7"/></linearGradient><linearGradient id="b" x1="19.5" x2="14.029" y1="17.75" y2="1.255" gradientUnits="userSpaceOnUse"><stop stop-color="#9deaff"/><stop offset="1" stop-color="#fff"/></linearGradient><linearGradient id="c" x1="19.5" x2="14.029" y1="17.75" y2="1.255" gradientUnits="userSpaceOnUse"><stop stop-color="#9deaff"/><stop offset="1" stop-color="#fff"/></linearGradient><radialGradient id="d" cx="0" cy="0" r="1" gradientTransform="matrix(0 7.99072 -11.0369 0 5 12.889)" gradientUnits="userSpaceOnUse"><stop stop-color="#163697"/><stop offset="1" stop-color="#29c3ff"/></radialGradient><radialGradient id="e" cx="0" cy="0" r="1" gradientTransform="rotate(56.615 9.927 -23.259)scale(41.8631 35.8539)" gradientUnits="userSpaceOnUse"><stop offset=".772" stop-color="#ffcd0f"/><stop offset=".991" stop-color="#e67505"/></radialGradient></defs></svg>