<svg xmlns="http://www.w3.org/2000/svg" aria-hidden="true" viewBox="0 0 48 48"><path fill="currentColor" fill-rule="evenodd" d="M24.5 29.33c5.747 0 10.385-4.629 10.385-10.313S30.247 8.703 24.5 8.703s-10.385 4.63-10.385 10.314S18.753 29.33 24.5 29.33m0 2.116c6.904 0 12.5-5.565 12.5-12.43S31.404 6.588 24.5 6.588 12 12.152 12 19.017c0 6.864 5.596 12.429 12.5 12.429" clip-rule="evenodd"/><path fill="currentColor" fill-rule="evenodd" d="M28.205 16.09a4.624 4.624 0 0 1-6.974 6.039l-1.49 1.489a6.73 6.73 0 0 0 4.518 1.967 6.73 6.73 0 0 0 5.633-10.756l-1.687 1.26ZM15.76 26.515l2.094.301-1.64 11.41a20.3 20.3 0 0 1 16.57 0l-1.639-11.41 2.094-.3 2.21 15.379-2.86-1.421a18.17 18.17 0 0 0-16.18 0l-2.858 1.42z" clip-rule="evenodd"/></svg>