<svg xmlns="http://www.w3.org/2000/svg" aria-hidden="true" viewBox="0 0 24 24"><path fill="currentColor" fill-rule="evenodd" d="M18.875 16.513h-1.627a2.23 2.23 0 0 0-2.123-1.563c-.997 0-1.834.66-2.122 1.563H5.125a.675.675 0 0 0 0 1.35h7.878a2.23 2.23 0 0 0 2.122 1.562c.998 0 1.834-.66 2.123-1.562h1.627a.675.675 0 1 0 0-1.35M15.125 15c.988 0 1.815.662 2.086 1.563h1.664-1.664A2.18 2.18 0 0 0 15.125 15m-2.086 1.563H5.125zm2.086 1.512a.889.889 0 0 1 0-1.775.889.889 0 0 1 0 1.775m3.75-11.562h-1.627a2.23 2.23 0 0 0-2.123-1.563c-.997 0-1.834.66-2.122 1.563H5.125a.675.675 0 0 0 0 1.35h7.878a2.23 2.23 0 0 0 2.122 1.562c.998 0 1.834-.66 2.123-1.562h1.627a.675.675 0 1 0 0-1.35M15.125 5c.988 0 1.815.662 2.086 1.563h1.664-1.664A2.18 2.18 0 0 0 15.125 5M13.04 6.563H5.125zm2.087 1.512a.889.889 0 0 1 0-1.775.889.889 0 0 1 0 1.775m3.748 3.438h-7.877A2.23 2.23 0 0 0 8.875 9.95c-.997 0-1.834.66-2.122 1.563H5.125a.675.675 0 0 0 0 1.35h1.628a2.23 2.23 0 0 0 2.122 1.562c.998 0 1.835-.66 2.123-1.562h7.877a.675.675 0 1 0 0-1.35M8.875 10c.988 0 1.815.662 2.086 1.563h7.914-7.914A2.18 2.18 0 0 0 8.875 10M6.79 11.563H5.125zm2.087 1.512a.889.889 0 0 1 0-1.775.889.889 0 0 1 0 1.775m0 .05" clip-rule="evenodd"/></svg>