<svg xmlns="http://www.w3.org/2000/svg" viewBox="0 0 32 32" role="presentation" aria-hidden="true"><path d="M12.6667 16.8333L15.1667 19.3333L19.3333 13.5M26 16C26 17.3132 25.7413 18.6136 25.2388 19.8268C24.7363 21.0401 23.9997 22.1425 23.0711 23.0711C22.1425 23.9997 21.0401 24.7363 19.8268 25.2388C18.6136 25.7413 17.3132 26 16 26C14.6868 26 13.3864 25.7413 12.1732 25.2388C10.9599 24.7363 9.85752 23.9997 8.92893 23.0711C8.00035 22.1425 7.26375 21.0401 6.7612 19.8268C6.25866 18.6136 6 17.3132 6 16C6 13.3478 7.05357 10.8043 8.92893 8.92893C10.8043 7.05357 13.3478 6 16 6C18.6522 6 21.1957 7.05357 23.0711 8.92893C24.9464 10.8043 26 13.3478 26 16Z" stroke="currentColor" stroke-width="2" stroke-linecap="round" stroke-linejoin="round"/></svg>