<svg xmlns="http://www.w3.org/2000/svg" width="105" height="105" fill="none" viewBox="0 0 105 105"><path fill="currentColor" d="M76.1 40.71h-4.8V27.926a18.938 18.938 0 0 0-37.876 0v12.786h-4.8a10.91 10.91 0 0 0-10.91 10.909v33.207a10.94 10.94 0 0 0 10.91 10.909H76.1a10.94 10.94 0 0 0 10.91-10.91V51.62A10.91 10.91 0 0 0 76.1 40.71M37.788 27.926a14.575 14.575 0 1 1 29.149 0v12.786h-29.15zm44.858 56.902a6.59 6.59 0 0 1-6.546 6.545H28.624a6.59 6.59 0 0 1-6.546-6.545V51.62a6.545 6.545 0 0 1 6.546-6.546H76.1a6.545 6.545 0 0 1 6.546 6.546v33.207Z"/><path fill="currentColor" d="M56.726 65.234a4.28 4.28 0 0 1-2.182 3.753v6.545a2.181 2.181 0 1 1-4.364 0v-6.545A4.28 4.28 0 0 1 48 65.234a4.364 4.364 0 1 1 8.727 0Z"/></svg>