<svg xmlns="http://www.w3.org/2000/svg" viewBox="0 0 48 48" role="presentation" aria-hidden="true"><path fill-rule="evenodd" clip-rule="evenodd" d="M27.964 8.545a1.5 1.5 0 0 1 1.091 1.819l-7.2 28.8a1.5 1.5 0 1 1-2.91-.728l7.2-28.8a1.5 1.5 0 0 1 1.819-1.091ZM14.26 16.139a1.5 1.5 0 0 1 0 2.122L8.12 24.4l6.14 6.14a1.5 1.5 0 0 1-2.122 2.12l-7.2-7.2a1.5 1.5 0 0 1 0-2.12l7.2-7.2a1.5 1.5 0 0 1 2.122 0Zm19.478 0a1.5 1.5 0 0 1 2.122 0l7.2 7.2a1.5 1.5 0 0 1 0 2.122l-7.2 7.2a1.5 1.5 0 0 1-2.122-2.122l6.14-6.139-6.14-6.14a1.5 1.5 0 0 1 0-2.12Z" fill="currentColor"/></svg>