<svg xmlns="http://www.w3.org/2000/svg" width="20" height="20" fill="none" viewBox="0 0 20 20"><path stroke="currentColor" stroke-linecap="round" stroke-linejoin="round" stroke-width="1.3" d="M17.155 13.868a12.6 12.6 0 0 0-3.581-6.893c-.414-.402-.62-.603-1.077-.789S11.647 6 10.863 6H9.138c-.785 0-1.178 0-1.635.186-.456.186-.664.387-1.076.79a12.6 12.6 0 0 0-3.581 6.892C2.456 16.218 4.624 18 7.046 18h5.908c2.423 0 4.592-1.782 4.2-4.132"/><path stroke="currentColor" stroke-linejoin="round" stroke-width="1.3" d="M6.206 3.955c-.166-.24-.405-.567.09-.64.507-.077 1.034.27 1.551.264.467-.008.704-.215.96-.51C9.076 2.756 9.492 2 10 2s.924.757 1.193 1.068c.256.296.493.504.96.51.517.008 1.044-.34 1.552-.264.494.074.255.4.09.64l-.746 1.087c-.32.464-.48.696-.814.828S11.47 6 10.606 6H9.394c-.864 0-1.296 0-1.63-.131s-.493-.365-.813-.829z"/><path stroke="currentColor" stroke-linecap="round" stroke-linejoin="round" stroke-width="1.3" d="M11.302 10.735c-.173-.639-1.054-1.215-2.11-.784-1.058.431-1.225 1.818.373 1.966.723.066 1.193-.078 1.625.33a1.108 1.108 0 0 1-.592 1.843c-1.101.304-2.193-.172-2.312-.848m1.588-4.048v.608m0 4.381v.611"/></svg>