<svg width="20" height="20" viewBox="0 0 20 20" fill="none" xmlns="http://www.w3.org/2000/svg">
<path d="M18 13.6014C18 14.0257 17.8314 14.4327 17.5314 14.7327C17.2313 15.0328 16.8243 15.2014 16.4 15.2014H5.8624C5.43809 15.2015 5.03119 15.3701 4.7312 15.6702L2.9696 17.4318C2.89016 17.5112 2.78896 17.5653 2.67879 17.5872C2.56862 17.6091 2.45443 17.5978 2.35065 17.5549C2.24687 17.5119 2.15816 17.4391 2.09575 17.3457C2.03333 17.2523 2.00001 17.1425 2 17.0302V4.00137C2 3.57702 2.16857 3.17005 2.46863 2.87C2.76869 2.56994 3.17565 2.40137 3.6 2.40137H16.4C16.8243 2.40137 17.2313 2.56994 17.5314 2.87C17.8314 3.17005 18 3.57702 18 4.00137V13.6014Z" stroke="currentColor" stroke-width="1.5" stroke-linecap="round" stroke-linejoin="round"/>
</svg>
