<svg width="20" height="20" viewBox="0 0 20 20" fill="none" xmlns="http://www.w3.org/2000/svg">
<path d="M12.8562 7.14292H7.14221V12.8569H12.8562M12.8562 7.14292V12.8569M12.8562 7.14292H14.999C15.4228 7.14292 15.837 7.01725 16.1894 6.7818C16.5418 6.54636 16.8164 6.2117 16.9786 5.82017C17.1408 5.42863 17.1832 4.9978 17.1005 4.58214C17.0179 4.16649 16.8138 3.78469 16.5141 3.48502C16.2144 3.18535 15.8326 2.98127 15.417 2.8986C15.0013 2.81592 14.5705 2.85835 14.179 3.02053C13.7874 3.18271 13.4528 3.45735 13.2173 3.80972C12.9819 4.1621 12.8562 4.57638 12.8562 5.00017V7.14292ZM12.8562 12.8569L14.999 12.8576C15.4228 12.8576 15.837 12.9833 16.1894 13.2188C16.5418 13.4542 16.8164 13.7889 16.9786 14.1804C17.1408 14.5719 17.1832 15.0028 17.1005 15.4184C17.0179 15.8341 16.8138 16.2159 16.5141 16.5155C16.2144 16.8152 15.8326 17.0193 15.417 17.102C15.0013 17.1846 14.5705 17.1422 14.179 16.98C13.7874 16.8178 13.4528 16.5432 13.2173 16.1908C12.9819 15.8385 12.8562 15.4242 12.8562 15.0004V12.8569ZM7.14292 12.8576H5.00017C4.57638 12.8576 4.1621 12.9833 3.80972 13.2188C3.45735 13.4542 3.18271 13.7889 3.02053 14.1804C2.85835 14.5719 2.81592 15.0028 2.8986 15.4184C2.98127 15.8341 3.18535 16.2159 3.48502 16.5155C3.78469 16.8152 4.16649 17.0193 4.58214 17.102C4.9978 17.1846 5.42863 17.1422 5.82017 16.98C6.2117 16.8178 6.54636 16.5432 6.7818 16.1908C7.01725 15.8385 7.14292 15.4242 7.14292 15.0004V12.8576ZM7.14292 7.14292H5.00017C4.57638 7.14292 4.1621 7.01725 3.80972 6.7818C3.45735 6.54636 3.18271 6.2117 3.02053 5.82017C2.85835 5.42863 2.81592 4.9978 2.8986 4.58214C2.98127 4.16649 3.18535 3.78469 3.48502 3.48502C3.78469 3.18535 4.16649 2.98127 4.58214 2.8986C4.9978 2.81592 5.42863 2.85835 5.82017 3.02053C6.2117 3.18271 6.54636 3.45735 6.7818 3.80972C7.01725 4.1621 7.14292 4.57638 7.14292 5.00017V7.14292Z" stroke="currentColor" stroke-width="1.3"/>
</svg>
