<svg xmlns="http://www.w3.org/2000/svg" viewBox="0 0 48 48" role="presentation" aria-hidden="true"><path d="m37.589 13.564-.478-.478-6.265-6.265-.479-.479A1.159 1.159 0 0 0 29.542 6H11.53A1.53 1.53 0 0 0 10 7.529V40.47A1.53 1.53 0 0 0 11.529 42h24.873a1.53 1.53 0 0 0 1.529-1.529V14.39c0-.311-.121-.604-.342-.825Zm-1.87-.116h-5.236V8.213l5.235 5.235Zm.683 27.31H24.276V33.31h2.483v-6.207h-2.483v-1.24h1.241V24.62h-1.241v-1.242h1.241v-1.241h-1.241v-1.241h1.241v-1.242h-1.241v-1.241h-1.241v1.241h-1.242v1.242h1.242v1.24h-1.242v1.242h1.242v1.242h-1.242v1.241h1.242v1.241h-2.483v6.207h2.483v7.449H11.529a.288.288 0 0 1-.288-.288V7.53c0-.159.13-.288.288-.288h17.748a.956.956 0 0 0-.036.244v7.205h7.205a.97.97 0 0 0 .244-.036V40.47c0 .159-.13.288-.288.288ZM25.517 28.346v.62h-3.724v-.62h3.724Zm-3.724 1.862h3.724v1.862h-3.724v-1.862Z" fill="currentColor"/></svg>