<svg xmlns="http://www.w3.org/2000/svg" width="32" height="32" fill="none" viewBox="0 0 32 32"><path fill="currentColor" d="M12 15.333h-.666v1.334h.667zm8 1.334h.667v-1.334h-.666zm-8-5.334h-.666v1.334h.667zm2.667 1.334h.667v-1.334h-.667zm5.334-6 .472-.472L20.277 6H20zm4 4h.666v-.276l-.194-.196zm-8 10.666.298.596.054-.026.048-.036zm-4-4.666h8v-1.334h-8zm0-4h2.666v-1.334h-2.666zm10.666 12H9.334V26h13.333zm-14-.667V8H7.334v16zm.667-16.667h10.667V6H9.334zm14 3.334V24h1.333V10.667zm-3.805-3.528 4 4 .944-.944-4-4zM9.334 24.667A.667.667 0 0 1 8.667 24H7.334a2 2 0 0 0 2 2zM22.667 26a2 2 0 0 0 2-2h-1.333a.667.667 0 0 1-.667.667zm-14-18a.667.667 0 0 1 .667-.667V6a2 2 0 0 0-2 2zM13.3 21.544c.148-.444.57-.856 1.107-1 .503-.135 1.15-.047 1.79.595l.943-.944c-.96-.96-2.092-1.204-3.078-.939-.951.256-1.73.977-2.027 1.867zm2.896-.405q.057.054.106.116l1.053-.819a3 3 0 0 0-.215-.24zm.106.116c.104.133.08.176.084.146.002-.018.008.012-.072.084a1.3 1.3 0 0 1-.387.226q-.255.101-.525.144a1.3 1.3 0 0 1-.334.013c-.022-.005.024 0 .094.05a.52.52 0 0 1 .174.573.3.3 0 0 1-.03.062c-.003.003.02-.026.096-.089.152-.123.432-.301.898-.533l-.597-1.194q-.751.376-1.139.69-.196.154-.346.356a.93.93 0 0 0-.187.584.81.81 0 0 0 .34.624c.15.112.317.16.44.185.25.05.533.036.79-.003.507-.077 1.163-.296 1.61-.701.232-.212.452-.516.499-.915.048-.408-.099-.79-.356-1.12zm.1.612q.321-.245.69-.41l-.529-1.224q-.48.207-.961.567zm.69-.41c.867-.374 1.642-.177 2.435.2q.298.146.592.307c.192.104.395.215.587.313.368.186.824.39 1.296.39v-1.334c-.126 0-.331-.062-.694-.245-.17-.088-.349-.187-.554-.297-.2-.108-.422-.227-.654-.336-.93-.444-2.148-.822-3.537-.222z"/></svg>