<svg xmlns="http://www.w3.org/2000/svg" aria-hidden="true" viewBox="0 0 24 24"><path fill="currentColor" fill-rule="evenodd" d="M5.366 11.333H6a.667.667 0 0 1 0 1.334h-.634a6.67 6.67 0 0 0 5.967 5.967V18a.667.667 0 0 1 1.334 0v.634a6.67 6.67 0 0 0 5.967-5.967H18a.667.667 0 0 1 0-1.334h.634a6.67 6.67 0 0 0-5.967-5.967V6a.667.667 0 0 1-1.334 0v-.634a6.67 6.67 0 0 0-5.967 5.967M4 12a8 8 0 1 1 16 0 8 8 0 0 1-16 0m8-4c.368 0 .667.298.667.667v3.013l3.083 2.466a.667.667 0 1 1-.833 1.041l-3.333-2.666a.67.67 0 0 1-.25-.521V8.667c0-.369.298-.667.666-.667" clip-rule="evenodd"/></svg>