<svg xmlns="http://www.w3.org/2000/svg" aria-hidden="true" viewBox="0 0 20 20"><path fill="currentColor" d="M12.538 17.5h-7.5a1.66 1.66 0 0 1-1.2-.504 1.66 1.66 0 0 1-.504-1.2V5.782a1.65 1.65 0 0 1 .495-1.218 1.67 1.67 0 0 1 1.2-.498h.333a.47.47 0 0 1 .435.287.45.45 0 0 1 .033.184.47.47 0 0 1-.468.468h-.324a.777.777 0 0 0-.777.777v10.005a.777.777 0 0 0 .777.777h7.5a.78.78 0 0 0 .558-.228.74.74 0 0 0 .234-.549v-.324a.47.47 0 0 1 .286-.434.5.5 0 0 1 .182-.034.46.46 0 0 1 .33.138.45.45 0 0 1 .138.33v.324a1.72 1.72 0 0 1-1.728 1.713m2.814-3.12H8.173a1.723 1.723 0 0 1-1.728-1.728V4.213a1.66 1.66 0 0 1 .504-1.2A1.68 1.68 0 0 1 8.173 2.5h5.319c.31-.002.616.06.9.183.279.122.534.292.753.504l1.245 1.248c.214.222.386.481.507.765.123.284.185.59.183.9v6.552a1.723 1.723 0 0 1-1.728 1.728M8.173 3.436a.78.78 0 0 0-.555.228.74.74 0 0 0-.234.55v8.438a.8.8 0 0 0 .789.789h7.179a.8.8 0 0 0 .789-.789V6.1c0-.183-.036-.365-.108-.534a1.7 1.7 0 0 0-.3-.462l-1.245-1.257a1.7 1.7 0 0 0-.462-.3 1.4 1.4 0 0 0-.534-.11H8.173Zm5.934 4.38H9.418a.45.45 0 0 1-.33-.138.45.45 0 0 1-.138-.33A.44.44 0 0 1 9.088 7a.47.47 0 0 1 .33-.132h4.689a.47.47 0 0 1 .423.285.44.44 0 0 1 .033.183.45.45 0 0 1-.138.33.45.45 0 0 1-.318.15m0 1.875H9.418a.45.45 0 0 1-.33-.138.45.45 0 0 1-.138-.33.44.44 0 0 1 .138-.336.47.47 0 0 1 .33-.132h4.689a.47.47 0 0 1 .435.285.44.44 0 0 1 .033.183.45.45 0 0 1-.138.33.45.45 0 0 1-.33.147zm0 1.875H9.418a.45.45 0 0 1-.33-.138.45.45 0 0 1-.138-.33.44.44 0 0 1 .138-.336.47.47 0 0 1 .33-.132h4.689a.47.47 0 0 1 .435.285.44.44 0 0 1 .033.183.45.45 0 0 1-.138.33.45.45 0 0 1-.33.138"/></svg>