<svg xmlns="http://www.w3.org/2000/svg" viewBox="0 0 24 24" role="presentation" aria-hidden="true"><path fill-rule="evenodd" clip-rule="evenodd" d="M11.272 10.464a.809.809 0 0 0-.808.808v6.55c0 .447.362.809.808.809h6.55a.809.809 0 0 0 .809-.809v-6.55a.809.809 0 0 0-.81-.808h-6.549Zm-2.102.808c0-1.16.941-2.102 2.102-2.102h6.55c1.161 0 2.102.941 2.102 2.102v6.55a2.102 2.102 0 0 1-2.102 2.102h-6.55a2.102 2.102 0 0 1-2.102-2.102v-6.55Z" fill="currentColor"/><path fill-rule="evenodd" clip-rule="evenodd" d="M9.095 11.272c0-1.203.975-2.178 2.178-2.178h6.55c1.203 0 2.178.975 2.178 2.178v6.55A2.178 2.178 0 0 1 17.823 20h-6.55a2.178 2.178 0 0 1-2.178-2.178v-6.55Zm2.178-2.027c-1.12 0-2.027.908-2.027 2.027v6.55c0 1.119.908 2.026 2.027 2.026h6.55c1.119 0 2.026-.907 2.026-2.026v-6.55c0-1.12-.907-2.027-2.026-2.027h-6.55Zm0 1.294a.733.733 0 0 0-.733.733v6.55c0 .404.328.732.733.732h6.55a.733.733 0 0 0 .732-.732v-6.55a.733.733 0 0 0-.732-.733h-6.55Zm-.884.733c0-.489.396-.885.884-.885h6.55c.488 0 .884.396.884.885v6.55a.884.884 0 0 1-.884.884h-6.55a.884.884 0 0 1-.884-.884v-6.55Z" fill="currentColor"/><path fill-rule="evenodd" clip-rule="evenodd" d="M6.179 5.37a.809.809 0 0 0-.81.809v6.55a.809.809 0 0 0 .81.808h.727a.647.647 0 1 1 0 1.294H6.18a2.102 2.102 0 0 1-2.103-2.103v-6.55A2.102 2.102 0 0 1 6.18 4.077h6.55A2.102 2.102 0 0 1 14.83 6.18v.727a.647.647 0 0 1-1.294 0V6.18a.809.809 0 0 0-.809-.81h-6.55Z" fill="currentColor"/><path fill-rule="evenodd" clip-rule="evenodd" d="M4.638 4.638A2.178 2.178 0 0 1 6.178 4h6.55a2.178 2.178 0 0 1 2.178 2.178v.728a.723.723 0 0 1-1.445 0v-.728a.733.733 0 0 0-.733-.733h-6.55a.733.733 0 0 0-.733.733v6.55a.733.733 0 0 0 .733.733h.728a.723.723 0 0 1 0 1.445h-.728A2.178 2.178 0 0 1 4 12.728v-6.55c0-.578.23-1.132.638-1.54Zm1.54-.486a2.027 2.027 0 0 0-2.026 2.026v6.55a2.026 2.026 0 0 0 2.026 2.026h.728a.571.571 0 0 0 0-1.142h-.728a.884.884 0 0 1-.884-.884v-6.55a.884.884 0 0 1 .884-.884h6.55a.884.884 0 0 1 .884.884v.728a.571.571 0 0 0 1.142 0v-.728a2.026 2.026 0 0 0-2.026-2.026h-6.55Z" fill="currentColor"/></svg>