<svg xmlns="http://www.w3.org/2000/svg" viewBox="0 0 20 20" role="presentation" aria-hidden="true"><path d="M16.996 10.67V8.938a1.2 1.2 0 0 0-1.2-1.2H3.989a1.202 1.202 0 0 0-1.2 1.2v1.731a2.962 2.962 0 0 0 0 5.572v1.732a1.201 1.201 0 0 0 1.2 1.194h11.808a1.202 1.202 0 0 0 1.2-1.2v-1.726a2.962 2.962 0 0 0 0-5.567v-.005Zm-.585 4.725a.488.488 0 0 0-.39.476v2.099a.224.224 0 0 1-.225.222H3.989a.224.224 0 0 1-.225-.222v-2.097a.488.488 0 0 0-.39-.476 1.988 1.988 0 0 1 0-3.885.488.488 0 0 0 .39-.476V8.938c0-.124.1-.224.225-.224h11.809c.123 0 .224.1.224.224v2.096c0 .231.163.43.39.476a1.987 1.987 0 0 1 0 3.885Z" fill="currentColor"/><path d="M12.16 10.486a.488.488 0 0 0-.682.092l-3.947 5.158a.488.488 0 1 0 .78.585l3.942-5.15a.487.487 0 0 0-.092-.685ZM12.026 13.597a1.515 1.515 0 0 0-1.513 1.514v.312a1.514 1.514 0 0 0 3.025 0v-.312a1.515 1.515 0 0 0-1.512-1.514Zm.539 1.826a.539.539 0 0 1-1.075 0v-.312a.538.538 0 0 1 1.075 0v.312ZM9.27 11.796v-.312a1.513 1.513 0 1 0-3.025 0v.312a1.514 1.514 0 1 0 3.025 0Zm-2.05 0v-.312a.539.539 0 1 1 1.075 0v.312a.538.538 0 1 1-1.075 0ZM19.28 6.163 8.682.955a1.2 1.2 0 0 0-1.603.548L4.81 6.112a.488.488 0 0 0 .876.43l2.268-4.61a.224.224 0 0 1 .296-.1l10.598 5.206c.11.055.156.19.101.3l-.92 1.883a.488.488 0 0 0 .875.43l.925-1.881a1.2 1.2 0 0 0-.548-1.605v-.002Z" fill="currentColor"/></svg>