<svg width="20" height="20" viewBox="0 0 20 20" fill="none" xmlns="http://www.w3.org/2000/svg">
<path d="M17.9666 3.17948C17.8942 3.14967 17.8167 3.13447 17.7384 3.13477C13.7568 3.15262 11.5265 3.94984 10.5125 5.51141V16.864C11.6955 15.7548 13.6286 15.0395 17.7384 15.0395C17.8963 15.0395 18.0477 14.9768 18.1593 14.8652C18.2709 14.7536 18.3337 14.6022 18.3337 14.4443V3.73001C18.334 3.65176 18.3188 3.57422 18.2889 3.50187C18.2591 3.42952 18.2153 3.36378 18.16 3.30845C18.1046 3.25312 18.0389 3.20929 17.9666 3.17948Z" fill="currentColor"/>
<path d="M1.667 14.3725C1.667 14.74 1.89467 15.0395 2.26223 15.0395C6.36938 15.0395 8.30763 15.7591 9.48792 16.864L9.48817 5.51141C8.47419 3.94984 6.24383 3.15262 2.26223 3.13477C2.18398 3.13447 2.10645 3.14967 2.0341 3.17948C1.96175 3.20929 1.89601 3.25312 1.84068 3.30845C1.78535 3.36378 1.74151 3.42952 1.71171 3.50187C1.6819 3.57422 1.6667 3.65176 1.667 3.73001V14.3725Z" fill="currentColor"/>
</svg>
