<svg width="20" height="20" viewBox="0 0 20 20" fill="none" xmlns="http://www.w3.org/2000/svg">
<path d="M12 8L8 12M8 8L12 12" stroke="currentColor" stroke-width="1.5" stroke-linecap="round" stroke-linejoin="round"/>
<path d="M10 17.25C9.04792 17.25 8.10516 17.0625 7.22554 16.6981C6.34593 16.3338 5.5467 15.7997 4.87348 15.1265C4.20025 14.4533 3.66622 13.6541 3.30187 12.7745C2.93753 11.8948 2.75 10.9521 2.75 10C2.75 9.04792 2.93753 8.10515 3.30187 7.22554C3.66622 6.34593 4.20025 5.5467 4.87348 4.87348C5.5467 4.20025 6.34594 3.66622 7.22555 3.30187C8.10516 2.93753 9.04792 2.75 10 2.75C10.9521 2.75 11.8948 2.93753 12.7745 3.30187C13.6541 3.66622 14.4533 4.20025 15.1265 4.87348C15.7997 5.5467 16.3338 6.34594 16.6981 7.22555C17.0625 8.10516 17.25 9.04792 17.25 10C17.25 10.9521 17.0625 11.8948 16.6981 12.7745C16.3338 13.6541 15.7997 14.4533 15.1265 15.1265C14.4533 15.7998 13.6541 16.3338 12.7745 16.6981C11.8948 17.0625 10.9521 17.25 10 17.25L10 17.25Z" stroke="currentColor" stroke-width="1.5"/>
</svg>
