<svg xmlns="http://www.w3.org/2000/svg" aria-hidden="true" viewBox="0 0 16 16"><path fill="currentColor" fill-rule="evenodd" d="M8 13.667A5.667 5.667 0 1 0 8 2.334a5.667 5.667 0 0 0 0 11.333m2.822-3.706a.6.6 0 0 0-.034-.196.5.5 0 0 0-.107-.162L9.074 8l1.612-1.602a.5.5 0 0 0 .148-.358.54.54 0 0 0-.148-.373l-.356-.358a.52.52 0 0 0-.367-.141.48.48 0 0 0-.357.142l-1.6 1.609-1.607-1.61a.5.5 0 0 0-.163-.108.58.58 0 0 0-.39 0 .5.5 0 0 0-.17.108l-.356.358a.5.5 0 0 0-.108.175.6.6 0 0 0 0 .393q.036.094.108.163L6.914 8l-1.6 1.604a.5.5 0 0 0-.147.358.55.55 0 0 0 .147.373l.357.358a.52.52 0 0 0 .367.141q.1.001.194-.033a.5.5 0 0 0 .162-.108l1.6-1.616L9.6 10.69a.47.47 0 0 0 .357.142q.101.001.198-.034a.5.5 0 0 0 .169-.108l.357-.357a.5.5 0 0 0 .107-.175.6.6 0 0 0 .034-.196" clip-rule="evenodd"/></svg>