<svg xmlns="http://www.w3.org/2000/svg" viewBox="0 0 32 32" role="presentation" aria-hidden="true"><path fill-rule="evenodd" clip-rule="evenodd" d="M8.86711 8.58391C9.25764 8.19338 9.8908 8.19338 10.2813 8.58391L16.2832 14.5858L22.2851 8.58391C22.6756 8.19338 23.3088 8.19338 23.6993 8.58391C24.0898 8.97443 24.0898 9.6076 23.6993 9.99812L17.6974 16L23.6993 22.0019C24.0898 22.3924 24.0898 23.0256 23.6993 23.4161C23.3088 23.8066 22.6756 23.8066 22.2851 23.4161L16.2832 17.4142L10.2813 23.4161C9.8908 23.8066 9.25764 23.8066 8.86711 23.4161C8.47659 23.0256 8.47659 22.3924 8.86711 22.0019L14.869 16L8.86711 9.99812C8.47659 9.6076 8.47659 8.97443 8.86711 8.58391Z" fill="currentColor"/></svg>