<svg xmlns="http://www.w3.org/2000/svg" width="20" height="20" fill="none" viewBox="0 0 20 20"><path fill="currentColor" stroke="currentColor" stroke-width=".1" d="M5 4.326c.134 0 .264.04.375.113l.102.084 10 9.999.088.102a.67.67 0 0 1-.072.869.675.675 0 0 1-.97-.016l-10-10A.676.676 0 0 1 5 4.326Z"/><path fill="currentColor" stroke="currentColor" stroke-width=".1" d="M15 4.326c.179 0 .35.07.476.197h.001a.675.675 0 0 1 0 .954l-10 10-.001.001a.675.675 0 0 1-.955-.954l.002-.001 10-10A.67.67 0 0 1 15 4.326Z"/></svg>