<svg xmlns="http://www.w3.org/2000/svg" viewBox="0 0 48 48" role="presentation" aria-hidden="true"><path fill-rule="evenodd" clip-rule="evenodd" d="m37.589 13.564-.845-.844-5.899-5.9h-.001l-.478-.48c-.22-.219-.513-.34-.824-.34H11.53C10.792 6 10 6.569 10 7.816V40.76c0 .52.522 1.025 1.14 1.184l.034.01c.02.007.04.013.06.017.097.02.195.03.295.03h24.873c.1 0 .198-.01.295-.03a.544.544 0 0 0 .094-.026c.618-.16 1.14-.666 1.14-1.185V14.676c0-.476-.058-.828-.342-1.112Zm-7.106-5.351 5.235 5.235h-5.235V8.213ZM11.408 40.729h-.002a.285.285 0 0 1-.165-.258v-9.023H36.69v9.023a.285.285 0 0 1-.165.257l-.002.001a.335.335 0 0 1-.12.03H11.528a.336.336 0 0 1-.12-.03Zm-.167-10.522V7.817c0-.136.02-.576.288-.576h17.748a.955.955 0 0 0-.036.243v7.07A1.847 1.847 0 0 0 28 14.068a.62.62 0 1 0 0 1.241c.343 0 .62.279.62.621v2.483c0 .745.337 1.406.858 1.862a2.467 2.467 0 0 0-.857 1.862v2.483c0 .342-.278.62-.621.62a.62.62 0 1 0 0 1.242 1.864 1.864 0 0 0 1.862-1.862v-2.483c0-.685.557-1.241 1.241-1.241a.62.62 0 1 0 0-1.242 1.243 1.243 0 0 1-1.24-1.241V15.93a1.85 1.85 0 0 0-.485-1.241h7.069a.96.96 0 0 0 .243-.036v15.552H11.241Zm7.16 4.316c.149-.19.319-.323.508-.403.19-.08.39-.118.599-.118a1.294 1.294 0 0 1 1.01.467l.704-.629a2.316 2.316 0 0 0-.789-.509 2.627 2.627 0 0 0-.95-.169c-.368 0-.71.069-1.027.208-.316.139-.593.34-.827.607a2.849 2.849 0 0 0-.552.997c-.133.399-.2.861-.2 1.387s.067.99.2 1.392c.133.401.317.735.552 1 .234.266.509.468.823.603.314.136.658.204 1.03.204.34 0 .658-.056.951-.17.294-.112.557-.282.789-.508l-.704-.62c-.148.165-.31.283-.488.356-.178.074-.37.111-.573.111a1.33 1.33 0 0 1-.582-.132 1.357 1.357 0 0 1-.492-.416 2.132 2.132 0 0 1-.34-.734 4.39 4.39 0 0 1-.131-1.086 4.3 4.3 0 0 1 .136-1.103c.085-.3.203-.545.352-.735Zm6.503 1.57c.227.099.438.219.633.36.195.142.36.319.49.53.13.212.195.485.195.82 0 .226-.047.446-.14.657a1.73 1.73 0 0 1-.395.56c-.17.161-.38.29-.628.386a2.339 2.339 0 0 1-.849.144c-.136 0-.276-.007-.42-.02a3.352 3.352 0 0 1-.437-.073 2.276 2.276 0 0 1-.42-.14 1.35 1.35 0 0 1-.344-.217l.178-.73c.08.046.18.09.301.132.122.042.247.081.378.118.13.038.26.067.39.09.13.022.252.034.365.034.345 0 .61-.081.793-.242.184-.16.276-.4.276-.717a.685.685 0 0 0-.195-.492 2.101 2.101 0 0 0-.488-.37c-.195-.11-.406-.22-.632-.33a3.885 3.885 0 0 1-.637-.39 2.038 2.038 0 0 1-.492-.53c-.13-.205-.195-.459-.195-.764a1.638 1.638 0 0 1 .564-1.286c.174-.15.374-.264.603-.344.23-.08.471-.118.726-.118.26 0 .522.024.789.072.266.048.48.126.645.233a5.281 5.281 0 0 1-.119.242l-.046.09a40.351 40.351 0 0 1-.183.347.76.76 0 0 1-.05.085.973.973 0 0 1-.116-.067.843.843 0 0 0-.182-.085 1.266 1.266 0 0 0-.314-.06 3.097 3.097 0 0 0-.501.009.864.864 0 0 0-.323.097c-.102.054-.192.12-.272.2a.917.917 0 0 0-.187.267.68.68 0 0 0-.067.284c0 .226.064.409.195.548.13.139.29.26.483.365.193.105.402.206.628.305Zm5.233.36a3.35 3.35 0 0 0-.633-.36 7.936 7.936 0 0 1-.628-.305 1.904 1.904 0 0 1-.484-.365c-.13-.14-.194-.322-.194-.548a.68.68 0 0 1 .067-.284.917.917 0 0 1 .187-.268c.08-.08.17-.145.272-.199a.863.863 0 0 1 .323-.097c.203-.017.37-.02.5-.009.131.011.235.031.315.06.08.028.14.056.182.085.042.028.08.05.115.067a5.707 5.707 0 0 0 .153-.276l.082-.158v-.001l.045-.087c.045-.087.085-.168.119-.242a1.734 1.734 0 0 0-.645-.233 4.461 4.461 0 0 0-.79-.072c-.254 0-.496.039-.725.118-.229.08-.43.195-.603.344a1.636 1.636 0 0 0-.564 1.286c0 .305.065.56.195.763.13.204.294.38.492.53.198.15.41.28.637.39.226.111.436.22.632.331.195.11.357.234.488.37.13.136.195.3.195.492 0 .317-.092.556-.276.717-.184.16-.449.242-.793.242a2.17 2.17 0 0 1-.365-.034 3.703 3.703 0 0 1-.39-.09 7.134 7.134 0 0 1-.378-.118 1.805 1.805 0 0 1-.3-.132l-.179.73c.096.085.211.157.344.217.133.06.272.106.42.14.148.034.293.058.437.072.144.014.284.021.42.021.317 0 .6-.048.849-.144.249-.096.458-.224.628-.386a1.73 1.73 0 0 0 .395-.56c.093-.211.14-.431.14-.658 0-.334-.065-.607-.195-.818a1.838 1.838 0 0 0-.49-.53ZM18.69 15.932v2.483c0 .745-.336 1.406-.858 1.862.522.455.858 1.117.858 1.862v2.483c0 .342.278.62.62.62a.62.62 0 1 1 0 1.242 1.864 1.864 0 0 1-1.861-1.862v-2.483c0-.685-.557-1.242-1.242-1.242a.62.62 0 1 1 0-1.24c.685 0 1.242-.558 1.242-1.242V15.93c0-1.027.835-1.862 1.862-1.862a.62.62 0 1 1 0 1.241.621.621 0 0 0-.62.621Z" fill="currentColor"/></svg>