<svg xmlns="http://www.w3.org/2000/svg" aria-hidden="true" viewBox="0 0 48 48"><path fill="currentColor" fill-rule="evenodd" d="m37.589 13.564-.845-.844-5.899-5.9h-.001l-.478-.48a1.16 1.16 0 0 0-.824-.34H11.53C10.792 6 10 6.569 10 7.816V40.76c0 .52.522 1.025 1.14 1.184l.034.01.06.017q.145.03.295.03h24.873q.15 0 .295-.03a.5.5 0 0 0 .094-.026c.618-.16 1.14-.666 1.14-1.185V14.676c0-.476-.058-.828-.342-1.112m-7.106-5.351 5.235 5.235h-5.235zM11.408 40.729h-.002a.28.28 0 0 1-.165-.258v-9.023H36.69v9.023a.28.28 0 0 1-.165.257l-.002.001a.3.3 0 0 1-.12.03H11.528a.3.3 0 0 1-.12-.03m-.167-10.522V7.817c0-.136.02-.576.288-.576h17.748a1 1 0 0 0-.036.243v7.07A1.85 1.85 0 0 0 28 14.068a.62.62 0 1 0 0 1.241.62.62 0 0 1 .62.621v2.483c0 .745.337 1.406.858 1.862a2.47 2.47 0 0 0-.857 1.862v2.483a.62.62 0 0 1-.621.62.62.62 0 1 0 0 1.242 1.864 1.864 0 0 0 1.862-1.862v-2.483c0-.685.557-1.241 1.241-1.241a.62.62 0 1 0 0-1.242 1.243 1.243 0 0 1-1.24-1.241V15.93a1.85 1.85 0 0 0-.485-1.241h7.069a1 1 0 0 0 .243-.036v15.552H11.241Zm7.16 4.316a1.3 1.3 0 0 1 .508-.403q.285-.119.599-.118a1.3 1.3 0 0 1 1.01.467l.704-.629a2.3 2.3 0 0 0-.789-.509 2.6 2.6 0 0 0-.95-.169q-.552 0-1.027.208a2.34 2.34 0 0 0-.827.607 2.85 2.85 0 0 0-.552.997q-.2.598-.2 1.387c0 .789.067.99.2 1.392q.2.602.552 1 .352.4.823.603.471.204 1.03.204.51 0 .951-.17.441-.168.789-.508l-.704-.62q-.221.247-.488.356-.268.111-.573.111a1.3 1.3 0 0 1-.582-.132 1.36 1.36 0 0 1-.492-.416 2.1 2.1 0 0 1-.34-.734 4.4 4.4 0 0 1-.131-1.086 4.3 4.3 0 0 1 .136-1.103q.128-.45.352-.735Zm6.503 1.57q.34.148.633.36.294.213.49.53.195.318.195.82 0 .34-.14.657a1.7 1.7 0 0 1-.395.56q-.255.242-.628.386a2.3 2.3 0 0 1-.849.144q-.204 0-.42-.02a3 3 0 0 1-.437-.073 2.3 2.3 0 0 1-.42-.14 1.4 1.4 0 0 1-.344-.217l.178-.73q.12.069.301.132.182.063.378.118.195.056.39.09t.365.034q.518 0 .793-.242.276-.24.276-.717a.7.7 0 0 0-.195-.492 2.1 2.1 0 0 0-.488-.37q-.293-.165-.632-.33a4 4 0 0 1-.637-.39 2 2 0 0 1-.492-.53q-.195-.307-.195-.764a1.64 1.64 0 0 1 .564-1.286 1.8 1.8 0 0 1 .603-.344q.344-.119.726-.118.39 0 .789.072.398.072.645.233a5 5 0 0 1-.119.242l-.046.09-.183.347a1 1 0 0 1-.05.085 1 1 0 0 1-.116-.067 1 1 0 0 0-.182-.085 1.3 1.3 0 0 0-.314-.06 3 3 0 0 0-.501.009.9.9 0 0 0-.323.097q-.152.08-.272.2a.9.9 0 0 0-.187.267.7.7 0 0 0-.067.284q0 .34.195.548.194.208.483.365.29.157.628.305m5.233.36a3.4 3.4 0 0 0-.633-.36 8 8 0 0 1-.628-.305 1.9 1.9 0 0 1-.484-.365.77.77 0 0 1-.194-.548.7.7 0 0 1 .067-.284.9.9 0 0 1 .187-.268q.12-.119.272-.199a.9.9 0 0 1 .323-.097q.305-.026.5-.009.196.017.315.06.12.042.182.085.063.042.115.067a6 6 0 0 0 .153-.276l.082-.158v-.001l.045-.087q.068-.13.119-.242a1.7 1.7 0 0 0-.645-.233 4.5 4.5 0 0 0-.79-.072q-.381 0-.725.118-.343.12-.603.344a1.64 1.64 0 0 0-.564 1.286q0 .458.195.763.195.306.492.53t.637.39q.338.165.632.331.292.166.488.37.195.204.195.492 0 .475-.276.717-.277.241-.793.242a2 2 0 0 1-.365-.034 4 4 0 0 1-.39-.09 7 7 0 0 1-.378-.118 2 2 0 0 1-.3-.132l-.179.73q.144.127.344.217t.42.14q.221.051.437.072t.42.021q.476 0 .849-.144.373-.143.628-.386a1.7 1.7 0 0 0 .395-.56q.14-.317.14-.658 0-.501-.195-.818a1.8 1.8 0 0 0-.49-.53ZM18.69 15.932v2.483c0 .745-.336 1.406-.858 1.862.522.455.858 1.117.858 1.862v2.483c0 .342.278.62.62.62a.62.62 0 1 1 0 1.242 1.864 1.864 0 0 1-1.861-1.862v-2.483c0-.685-.557-1.242-1.242-1.242a.62.62 0 1 1 0-1.24c.685 0 1.242-.558 1.242-1.242V15.93c0-1.027.835-1.862 1.862-1.862a.62.62 0 1 1 0 1.241.62.62 0 0 0-.62.621Z" clip-rule="evenodd"/></svg>