<svg xmlns="http://www.w3.org/2000/svg" viewBox="0 0 48 48" role="presentation" aria-hidden="true"><path fill-rule="evenodd" clip-rule="evenodd" d="m37.59 13.564-.479-.478-6.266-6.266-.478-.479A1.174 1.174 0 0 0 29.542 6H11.53C10.793 6 10 6.569 10 7.816V40.76c0 .52.523 1.026 1.14 1.185a.752.752 0 0 1 .037.01.529.529 0 0 0 .057.016c.097.02.195.03.295.03h24.873c.1 0 .198-.01.295-.03a.529.529 0 0 0 .057-.015.752.752 0 0 1 .036-.01c.618-.16 1.141-.667 1.141-1.186V14.676c0-.476-.057-.827-.341-1.112Zm-1.872-.116h-5.235V8.213l5.235 5.235ZM11.416 40.732l-.01-.004a.284.284 0 0 1-.165-.257v-9.023H36.69v9.023c0 .114-.068.21-.165.257l-.01.004c-.036.013-.072.027-.113.027H11.53c-.04 0-.077-.014-.113-.027Zm-.175-10.525V7.817c0-.136.02-.576.288-.576h17.748a.955.955 0 0 0-.036.243v7.206h7.206a.954.954 0 0 0 .242-.036v15.552H11.242Zm5.918 4.316c.15-.19.32-.323.509-.403.189-.08.388-.118.598-.118a1.293 1.293 0 0 1 1.01.467l.704-.629a2.316 2.316 0 0 0-.788-.509 2.616 2.616 0 0 0-.95-.169c-.369 0-.71.069-1.027.208-.318.139-.593.34-.828.607a2.85 2.85 0 0 0-.552.997c-.132.399-.199.861-.199 1.387s.067.99.2 1.392c.132.401.316.735.551 1 .235.267.51.468.823.603.314.136.658.204 1.031.204.34 0 .656-.056.95-.17.295-.113.557-.282.79-.508l-.705-.62c-.147.165-.31.283-.488.356-.178.074-.37.111-.573.111a1.33 1.33 0 0 1-.581-.132 1.356 1.356 0 0 1-.493-.416 2.134 2.134 0 0 1-.34-.734 4.383 4.383 0 0 1-.13-1.086c.005-.436.05-.803.135-1.103.085-.3.203-.545.353-.735Zm6.505 1.57c.226.099.437.219.632.36.195.142.358.319.49.53.13.212.195.485.195.82 0 .226-.046.446-.14.657a1.728 1.728 0 0 1-.395.56c-.17.161-.38.29-.628.386a2.34 2.34 0 0 1-.849.144 4.48 4.48 0 0 1-.42-.02 3.335 3.335 0 0 1-.437-.073 2.278 2.278 0 0 1-.42-.14 1.338 1.338 0 0 1-.344-.217l.178-.73c.08.046.18.09.301.132.121.042.247.081.378.118.13.038.26.067.39.09.13.022.252.034.365.034.345 0 .61-.08.793-.242.184-.16.276-.4.276-.717a.687.687 0 0 0-.195-.492 2.1 2.1 0 0 0-.488-.37c-.195-.11-.406-.22-.632-.33a3.885 3.885 0 0 1-.636-.39 2.026 2.026 0 0 1-.493-.53c-.13-.205-.195-.459-.195-.764a1.644 1.644 0 0 1 .564-1.286c.173-.15.374-.264.603-.344.23-.08.472-.118.726-.118.26 0 .523.024.789.072.265.048.48.126.645.233a5.733 5.733 0 0 1-.119.242l-.045.087-.082.159-.102.191a.777.777 0 0 1-.05.085.973.973 0 0 1-.116-.067.858.858 0 0 0-.182-.085 1.307 1.307 0 0 0-.314-.06 3.098 3.098 0 0 0-.501.009.864.864 0 0 0-.323.097c-.102.054-.193.12-.272.2a.915.915 0 0 0-.186.267.68.68 0 0 0-.068.284c0 .226.064.409.195.548.13.139.29.26.483.365.193.105.402.206.628.305Zm4.718 2.567-1.451-5.397h-1.163l1.944 6.288h1.324l2.036-6.288h-1.154l-1.536 5.397ZM13.724 14.07h7.448v2.483h13.035v11.172H13.724V14.07Zm6.207 3.724h-4.966v1.242h4.966v-1.242Zm0 2.483h-4.966v1.241h4.966v-1.241Zm0 2.483h-4.966V24h4.966v-1.241Zm-4.966 3.724h4.966V25.24h-4.966v1.242Zm6.207 0h11.793V25.24H21.172v1.242Zm0-2.483h11.793v-1.241H21.172V24Zm0-2.483h11.793v-1.241H21.172v1.241Zm11.793-2.482v-1.242H21.172v1.242h11.793Zm-18-3.725v1.242h4.966V15.31h-4.966Z" fill="currentColor"/></svg>