<svg xmlns="http://www.w3.org/2000/svg" aria-hidden="true" viewBox="0 0 48 48"><path fill="currentColor" fill-rule="evenodd" d="m37.59 13.564-.479-.478-6.266-6.266-.478-.479A1.17 1.17 0 0 0 29.542 6H11.53C10.793 6 10 6.569 10 7.816V40.76c0 .52.523 1.026 1.14 1.185l.037.01.057.016q.145.03.295.03h24.873q.15 0 .295-.03l.057-.015.036-.01c.618-.16 1.141-.667 1.141-1.186V14.676c0-.476-.057-.827-.341-1.112m-1.872-.116h-5.235V8.213zM11.416 40.732l-.01-.004a.28.28 0 0 1-.165-.257v-9.023H36.69v9.023c0 .114-.068.21-.165.257l-.01.004c-.036.013-.072.027-.113.027H11.53c-.04 0-.077-.014-.113-.027Zm-.175-10.525V7.817c0-.136.02-.576.288-.576h17.748a1 1 0 0 0-.036.243v7.206h7.206a1 1 0 0 0 .242-.036v15.552H11.242Zm5.918 4.316q.225-.284.509-.403.283-.119.598-.118a1.3 1.3 0 0 1 1.01.467l.704-.629a2.3 2.3 0 0 0-.788-.509 2.6 2.6 0 0 0-.95-.169q-.553 0-1.027.208-.476.208-.828.607a2.85 2.85 0 0 0-.552.997q-.199.598-.199 1.387c0 .789.067.99.2 1.392q.198.602.551 1 .353.4.823.603.471.204 1.031.204.51 0 .95-.17.441-.17.79-.508l-.705-.62a1.3 1.3 0 0 1-.488.356q-.268.111-.573.111a1.3 1.3 0 0 1-.581-.132 1.36 1.36 0 0 1-.493-.416 2.1 2.1 0 0 1-.34-.734 4.4 4.4 0 0 1-.13-1.086q.007-.654.135-1.103.128-.45.353-.735m6.505 1.57q.34.148.632.36.292.213.49.53.195.318.195.82a1.6 1.6 0 0 1-.14.657 1.7 1.7 0 0 1-.395.56q-.256.242-.628.386a2.3 2.3 0 0 1-.849.144 5 5 0 0 1-.42-.02 3 3 0 0 1-.437-.073 2.3 2.3 0 0 1-.42-.14 1.3 1.3 0 0 1-.344-.217l.178-.73q.12.069.301.132t.378.118q.195.056.39.09t.365.034q.518 0 .793-.242.276-.24.276-.717a.7.7 0 0 0-.195-.492 2.1 2.1 0 0 0-.488-.37q-.293-.165-.632-.33a4 4 0 0 1-.636-.39 2 2 0 0 1-.493-.53q-.195-.307-.195-.764a1.64 1.64 0 0 1 .564-1.286 1.8 1.8 0 0 1 .603-.344q.345-.119.726-.118.39 0 .789.072.398.072.645.233a6 6 0 0 1-.119.242l-.045.087-.082.159-.102.191a1 1 0 0 1-.05.085 1 1 0 0 1-.116-.067 1 1 0 0 0-.182-.085 1.3 1.3 0 0 0-.314-.06 3 3 0 0 0-.501.009.9.9 0 0 0-.323.097q-.153.08-.272.2a.9.9 0 0 0-.186.267.7.7 0 0 0-.068.284q0 .34.195.548.194.208.483.365.29.157.628.305Zm4.718 2.567-1.451-5.397h-1.163l1.944 6.288h1.324l2.036-6.288h-1.154zM13.724 14.07h7.448v2.483h13.035v11.172H13.724zm6.207 3.724h-4.966v1.242h4.966zm0 2.483h-4.966v1.241h4.966zm0 2.483h-4.966V24h4.966v-1.241Zm-4.966 3.724h4.966V25.24h-4.966v1.242Zm6.207 0h11.793V25.24H21.172v1.242Zm0-2.483h11.793V22.76H21.172V24Zm0-2.483h11.793v-1.241H21.172zm11.793-2.482v-1.242H21.172v1.242zm-18-3.725v1.242h4.966V15.31z" clip-rule="evenodd"/></svg>