<svg xmlns="http://www.w3.org/2000/svg" viewBox="0 0 24 24" role="presentation" aria-hidden="true"><path d="M12.458 20.5v-1.302c2.88-.235 4.542-1.732 4.542-4.11 0-2.036-1.19-3.26-3.628-3.866l-.914-.206V6.642c1.307.166 2.202 1.037 2.241 2.143h2.055c-.059-2.163-1.73-3.71-4.296-3.925V3.5H11.11v1.36c-2.664.245-4.287 1.733-4.287 3.964 0 1.899 1.21 3.21 3.412 3.758l.875.225v4.63c-1.485-.167-2.428-.999-2.527-2.202H6.5c.01 2.26 1.809 3.787 4.611 3.973V20.5h1.347Zm2.458-5.216c0 1.291-.895 2.094-2.458 2.182v-4.404c1.69.352 2.458 1.057 2.458 2.222ZM8.928 8.677c0-1.125.925-1.967 2.183-2.035v4.09c-1.416-.293-2.183-.998-2.183-2.055Z" fill="currentColor"/></svg>