<svg xmlns="http://www.w3.org/2000/svg" aria-hidden="true" viewBox="0 0 48 48"><path fill="currentColor" fill-rule="evenodd" d="m37.59 13.564-.479-.478-6.266-6.266-.478-.479A1.17 1.17 0 0 0 29.542 6H11.53C10.793 6 10 6.569 10 7.816V40.76c0 .52.523 1.026 1.14 1.185l.037.01.057.016q.145.03.295.03h24.873q.15 0 .295-.03l.057-.015.036-.01c.618-.16 1.141-.667 1.141-1.186V14.676c0-.476-.057-.827-.341-1.112m-1.872-.116h-5.235V8.213zM11.416 40.732l-.01-.004a.28.28 0 0 1-.165-.257v-9.023H36.69v9.023c0 .114-.068.21-.165.257l-.01.004c-.036.013-.072.027-.113.027H11.53c-.04 0-.077-.014-.113-.027Zm-.175-10.525V7.817c0-.136.02-.576.288-.576h17.748a1 1 0 0 0-.036.243v7.206h7.206a1 1 0 0 0 .242-.036v15.552H11.242Zm8.803 3.972a2.9 2.9 0 0 0-.993-.666q-.599-.25-1.387-.25H15.78v6.254h2.367q.119 0 .365-.03a2.5 2.5 0 0 0 .543-.135 3 3 0 0 0 .616-.319q.318-.212.572-.581.255-.37.42-.917.166-.547.166-1.32 0-.56-.195-1.09a2.8 2.8 0 0 0-.59-.946m-.743 3.93q-.458.66-1.493.661h-1.01v-4.735h.594q.73 0 1.188.191.457.19.726.5.266.312.36.692.093.382.093.772 0 1.258-.458 1.918Zm6.382-1.757q.222.102.412.288.19.188.318.455t.128.615q0 .424-.128.73a1.55 1.55 0 0 1-.734.819q-.225.114-.433.173-.208.06-.369.072a3 3 0 0 1-.212.013h-2.35v-6.254h1.8q.399 0 .772.093.373.094.662.298.288.203.458.53.17.326.17.776-.001.262-.086.48a1.5 1.5 0 0 1-.212.377 1.2 1.2 0 0 1-.293.267 1 1 0 0 1-.319.14q.196.026.416.128m-1.672-2.317h-.679v1.901h.756q.186 0 .381-.009a.9.9 0 0 0 .365-.093.64.64 0 0 0 .276-.288q.105-.204.106-.586a1.3 1.3 0 0 0-.042-.318.7.7 0 0 0-.17-.301.9.9 0 0 0-.365-.22 1.9 1.9 0 0 0-.628-.086m.594 4.736q.45 0 .705-.289.255-.288.254-.772 0-.459-.263-.772-.264-.314-.772-.314h-1.197v2.147zm3.395.746h1.035V36.7h2.614v-.696h-2.614v-1.969h2.877v-.772H28zM14.345 14.07h7.448v2.483h13.035v11.172H14.345zm6.207 3.724h-4.966v1.242h4.966zm0 2.483h-4.966v1.241h4.966zm0 2.483h-4.966V24h4.966v-1.241Zm-4.966 3.724h4.966V25.24h-4.966v1.242Zm6.207 0h11.793V25.24H21.793v1.242Zm0-2.483h11.793V22.76H21.793V24Zm0-2.483h11.793v-1.241H21.793zm11.793-2.482v-1.242H21.793v1.242zm-18-3.725v1.242h4.966V15.31z" clip-rule="evenodd"/></svg>