<svg xmlns="http://www.w3.org/2000/svg" viewBox="0 0 48 48" role="presentation" aria-hidden="true"><path fill-rule="evenodd" clip-rule="evenodd" d="m37.59 13.564-.479-.478-6.266-6.266-.478-.479A1.174 1.174 0 0 0 29.542 6H11.53C10.793 6 10 6.569 10 7.816V40.76c0 .52.523 1.026 1.14 1.185a.752.752 0 0 1 .037.01.529.529 0 0 0 .057.016c.097.02.195.03.295.03h24.873c.1 0 .198-.01.295-.03a.529.529 0 0 0 .057-.015.752.752 0 0 1 .036-.01c.618-.16 1.141-.667 1.141-1.186V14.676c0-.476-.057-.827-.341-1.112Zm-1.872-.116h-5.235V8.213l5.235 5.235ZM11.416 40.732l-.01-.004a.284.284 0 0 1-.165-.257v-9.023H36.69v9.023c0 .114-.068.21-.165.257l-.01.004c-.036.013-.072.027-.113.027H11.53c-.04 0-.077-.014-.113-.027Zm-.175-10.525V7.817c0-.136.02-.576.288-.576h17.748a.955.955 0 0 0-.036.243v7.206h7.206a.954.954 0 0 0 .242-.036v15.552H11.242Zm8.803 3.972a2.875 2.875 0 0 0-.993-.666c-.4-.166-.861-.25-1.387-.25H15.78v6.254h2.367c.08 0 .2-.01.365-.03a2.5 2.5 0 0 0 .543-.135c.198-.071.403-.177.616-.319.212-.141.402-.335.572-.581.17-.247.31-.552.42-.917.111-.365.166-.805.166-1.32 0-.373-.065-.737-.195-1.09a2.762 2.762 0 0 0-.59-.946Zm-.743 3.93c-.305.44-.803.661-1.493.661h-1.01v-4.735h.594c.487 0 .883.064 1.188.191.305.127.547.294.726.5.178.208.297.438.36.692.062.255.093.512.093.772 0 .838-.152 1.478-.458 1.918Zm6.382-1.757c.148.068.285.164.412.288.127.125.233.277.318.455.085.178.128.383.128.615 0 .283-.043.526-.128.73a1.554 1.554 0 0 1-.734.819c-.15.076-.294.134-.433.173-.139.04-.261.064-.369.072a3.367 3.367 0 0 1-.212.013h-2.35v-6.254h1.8c.266 0 .523.03.772.093.248.063.47.162.662.298.192.135.344.312.458.53.113.218.17.476.17.776 0 .175-.03.335-.086.48-.057.143-.127.27-.212.377a1.207 1.207 0 0 1-.293.267.98.98 0 0 1-.319.14c.13.017.27.06.416.128Zm-1.672-2.317h-.679v1.901h.756c.124 0 .251-.003.381-.009a.885.885 0 0 0 .365-.093.637.637 0 0 0 .276-.288c.07-.136.106-.331.106-.586a1.3 1.3 0 0 0-.042-.318.679.679 0 0 0-.17-.301.917.917 0 0 0-.365-.22 1.919 1.919 0 0 0-.628-.086Zm.594 4.736c.3 0 .535-.097.705-.289.17-.192.254-.45.254-.772 0-.306-.088-.563-.263-.772-.176-.21-.433-.314-.772-.314h-1.197v2.147h1.273Zm3.395.746h1.035V36.7h2.614v-.696h-2.614v-1.969h2.877v-.772H28v6.254ZM14.345 14.07h7.448v2.483h13.035v11.172H14.345V14.07Zm6.207 3.724h-4.966v1.242h4.966v-1.242Zm0 2.483h-4.966v1.241h4.966v-1.241Zm0 2.483h-4.966V24h4.966v-1.241Zm-4.966 3.724h4.966V25.24h-4.966v1.242Zm6.207 0h11.793V25.24H21.793v1.242Zm0-2.483h11.793v-1.241H21.793V24Zm0-2.483h11.793v-1.241H21.793v1.241Zm11.793-2.482v-1.242H21.793v1.242h11.793Zm-18-3.725v1.242h4.966V15.31h-4.966Z" fill="currentColor"/></svg>