<svg xmlns="http://www.w3.org/2000/svg" aria-hidden="true" viewBox="0 0 24 24"><path fill="currentColor" fill-rule="evenodd" d="M4.5 7.18c0-.42.34-.761.761-.761h13.977a.761.761 0 1 1 0 1.523H5.262A.76.76 0 0 1 4.5 7.18" clip-rule="evenodd"/><path fill="currentColor" fill-rule="evenodd" d="M10.666 5.05a.84.84 0 0 0-.589.236.76.76 0 0 0-.233.545v.78h4.811v-.78a.76.76 0 0 0-.234-.545.84.84 0 0 0-.588-.236zm5.512 1.562v-.78c0-.618-.252-1.207-.694-1.637a2.37 2.37 0 0 0-1.651-.668h-3.167c-.616 0-1.21.238-1.651.668a2.28 2.28 0 0 0-.694 1.636v.78H6.707a.763.763 0 0 0-.762.762V18.17c0 .618.252 1.206.694 1.636s1.036.668 1.651.668h7.918c.616 0 1.21-.238 1.651-.668s.694-1.018.694-1.636V7.373a.76.76 0 0 0-.761-.761zm-8.71 1.523v10.034c0 .2.082.397.234.545a.84.84 0 0 0 .588.236h7.918a.84.84 0 0 0 .589-.236.76.76 0 0 0 .233-.545V8.135z" clip-rule="evenodd"/><path fill="currentColor" fill-rule="evenodd" d="M10.563 10.274c.42 0 .762.341.762.762v4.82a.762.762 0 0 1-1.523 0v-4.82c0-.42.34-.762.761-.762m3.374 0c.42 0 .762.341.762.762v4.82a.762.762 0 0 1-1.523 0v-4.82c0-.42.34-.762.761-.762" clip-rule="evenodd"/></svg>