<svg xmlns="http://www.w3.org/2000/svg" width="20" height="20" fill="none"><path fill="currentColor" d="M17.138 5.655h-1.241v-.62a1.862 1.862 0 0 0-1.863-1.863H2.862A1.862 1.862 0 0 0 1 5.034v7.449a1.862 1.862 0 0 0 1.862 1.862h8.69v.62a1.862 1.862 0 0 0 1.862 1.863h3.724A1.862 1.862 0 0 0 19 14.966V7.517a1.862 1.862 0 0 0-1.862-1.862ZM2.862 13.104a.62.62 0 0 1-.62-.621V5.034a.62.62 0 0 1 .62-.62h11.172a.62.62 0 0 1 .621.62v.621h-1.241a1.862 1.862 0 0 0-1.862 1.862v5.587h-8.69Zm14.897 1.862a.62.62 0 0 1-.621.62h-3.724a.62.62 0 0 1-.62-.62V7.517a.62.62 0 0 1 .62-.62h3.724a.62.62 0 0 1 .62.62v7.449Zm-7.449 1.24a.62.62 0 0 1-.62.622H6.586a.62.62 0 0 1 0-1.242H9.69a.62.62 0 0 1 .62.62Zm6.207-2.482a.62.62 0 0 1-.62.62h-1.242a.62.62 0 0 1 0-1.24h1.242a.62.62 0 0 1 .62.62Z"/><path fill="currentColor" d="M7.699 16.322a.737.737 0 0 0 .439.136c.165 0 .322-.049.439-.136a.418.418 0 0 0 .182-.33v-2.334a.418.418 0 0 0-.182-.33.737.737 0 0 0-.44-.137.737.737 0 0 0-.438.137.418.418 0 0 0-.182.33v2.334c0 .123.066.242.182.33Z"/></svg>