<svg xmlns="http://www.w3.org/2000/svg" viewBox="0 0 28 28" role="presentation" aria-hidden="true"><path d="M17.43 17.054c.32-.38.564-.84.73-1.356.167-.53.381-2.31-.008-3.487a3.91 3.91 0 0 0-.744-1.348 3.305 3.305 0 0 0-1.19-.87 4.01 4.01 0 0 0-1.645-.368h-3.198v8.75h3.198c.63 0 1.19-.21 1.667-.424a3.343 3.343 0 0 0 1.19-.897Zm-.538-9.109c.765.32 1.417.779 1.947 1.365a5.869 5.869 0 0 1 1.199 2.065c.266.779.398 1.697.398 2.625 0 .914-.127 1.72-.385 2.498a6.009 6.009 0 0 1-1.177 2.074 5.452 5.452 0 0 1-1.947 1.396c-.766.336-1.658.595-2.651.595h-3.688c-.775 0-1.4-.626-1.4-1.4V8.838c0-.775.625-1.4 1.4-1.4h3.688c.975 0 1.859.188 2.616.507ZM14 28C6.27 28 0 21.73 0 14S6.27 0 14 0s14 6.27 14 14-6.27 14-14 14Zm0-2.188c6.523 0 11.813-5.289 11.813-11.812S20.523 2.187 14 2.187C7.477 2.188 2.187 7.478 2.187 14c0 6.523 5.29 11.813 11.813 11.813Z" fill="#8F41EC"/></svg>