<svg xmlns="http://www.w3.org/2000/svg" aria-hidden="true" viewBox="0 0 28 28"><path fill="#8f41ec" d="M17.43 17.054c.32-.38.564-.84.73-1.356.167-.53.381-2.31-.008-3.487a3.9 3.9 0 0 0-.744-1.348 3.3 3.3 0 0 0-1.19-.87 4 4 0 0 0-1.645-.368h-3.198v8.75h3.198c.63 0 1.19-.21 1.667-.424a3.34 3.34 0 0 0 1.19-.897m-.538-9.109c.765.32 1.417.779 1.947 1.365a5.9 5.9 0 0 1 1.199 2.065c.266.779.398 1.697.398 2.625a7.8 7.8 0 0 1-.385 2.498 6 6 0 0 1-1.177 2.074 5.45 5.45 0 0 1-1.947 1.396c-.766.336-1.658.595-2.651.595h-3.688c-.775 0-1.4-.626-1.4-1.4V8.838c0-.775.625-1.4 1.4-1.4h3.688c.975 0 1.859.188 2.616.507M14 28C6.27 28 0 21.73 0 14S6.27 0 14 0s14 6.27 14 14-6.27 14-14 14m0-2.188c6.523 0 11.813-5.289 11.813-11.812S20.523 2.187 14 2.187C7.477 2.188 2.187 7.478 2.187 14S7.477 25.813 14 25.813Z"/></svg>