<svg xmlns="http://www.w3.org/2000/svg" aria-hidden="true" viewBox="0 0 48 48"><path fill="currentColor" fill-rule="evenodd" d="m37.111 13.086.479.478c.284.285.341.636.341 1.112v26.083c0 .52-.523 1.026-1.14 1.185l-.037.01-.057.016q-.145.03-.295.03H11.53q-.15 0-.295-.03l-.057-.015-.036-.01c-.618-.16-1.141-.667-1.141-1.186V7.817C10 6.568 10.793 6 11.529 6h18.013c.308 0 .608.125.825.341l.478.479zm-6.628.362h5.235l-5.235-5.235zM11.416 40.732c.036.013.072.027.113.027h24.873c.04 0 .077-.014.113-.027l.01-.004a.28.28 0 0 0 .165-.257v-9.023H11.24v9.023c0 .114.068.211.165.257zM11.24 7.816v22.39h25.45v-15.53l-.001-.022a1 1 0 0 1-.242.036h-7.206V7.484c0-.084.016-.164.036-.243H11.53c-.267 0-.288.44-.288.575Zm8.155 25.697a2.75 2.75 0 0 1 1.583 1.611q.195.531.195 1.091 0 .772-.165 1.32-.165.547-.42.917t-.573.581a2.8 2.8 0 0 1-.615.319 2.5 2.5 0 0 1-.543.135q-.247.03-.366.03h-2.367v-6.254h1.884q.789 0 1.387.25m-1.242 5.257q1.035 0 1.493-.662.458-.66.458-1.918 0-.39-.093-.772a1.65 1.65 0 0 0-.36-.691 1.9 1.9 0 0 0-.726-.501q-.459-.19-1.188-.191h-.594v4.735zm8.456-4.794a2.4 2.4 0 0 0-.823-.607 2.5 2.5 0 0 0-1.031-.208q-.56 0-1.03.208-.473.208-.824.607a2.9 2.9 0 0 0-.552.997q-.2.599-.199 1.387c.001.788.066.99.2 1.392q.198.602.551 1.001.352.399.823.603t1.031.203 1.031-.203q.47-.204.823-.603.352-.4.552-1.001.2-.603.2-1.392a4.4 4.4 0 0 0-.2-1.387 2.9 2.9 0 0 0-.552-.997m-.42 3.492a2.1 2.1 0 0 1-.352.734 1.3 1.3 0 0 1-.51.403 1.5 1.5 0 0 1-.597.123 1.3 1.3 0 0 1-.582-.131 1.36 1.36 0 0 1-.492-.416 2.1 2.1 0 0 1-.34-.734 4.4 4.4 0 0 1-.131-1.087q.007-.653.136-1.103.127-.45.352-.734t.509-.403.598-.118q.305 0 .582.127.275.127.492.416.216.288.34.734.122.446.13 1.082-.008.654-.135 1.107m4.527-3.347q-.285.119-.51.403t-.352.735-.136 1.103q.009.636.132 1.086t.34.734.491.416q.276.132.582.132.306-.001.573-.11.267-.111.488-.357l.704.62a2.3 2.3 0 0 1-.789.508q-.44.17-.95.17a2.6 2.6 0 0 1-1.03-.204 2.3 2.3 0 0 1-.824-.602 2.8 2.8 0 0 1-.552-1.002 4.4 4.4 0 0 1-.199-1.391q0-.789.2-1.388a2.85 2.85 0 0 1 .551-.996q.352-.4.828-.607.474-.209 1.026-.208.51 0 .95.17.44.168.79.508l-.705.628a1.3 1.3 0 0 0-1.01-.467q-.316 0-.598.12ZM14.344 14.69h3.724a.621.621 0 0 0 0-1.241h-3.724a.621.621 0 0 0 0 1.241m5.586 3.103h-5.586a.621.621 0 0 1 0-1.242h5.586a.62.62 0 0 1 0 1.242m2.485 0a.65.65 0 0 0 .44-.18.65.65 0 0 0 .18-.44.65.65 0 0 0-.18-.44.65.65 0 0 0-.88 0 .65.65 0 0 0-.18.44c0 .161.068.323.18.44.117.112.279.18.44.18m7.448 0h-4.966a.62.62 0 0 1 0-1.242h4.966a.62.62 0 0 1 0 1.242m-15.96 8.248a.65.65 0 0 0-.18.441c0 .161.069.323.18.44.118.112.28.18.441.18a.65.65 0 0 0 .44-.18.65.65 0 0 0 .18-.44.64.64 0 0 0-.18-.44.65.65 0 0 0-.88 0Zm2.923-.18h4.966a.62.62 0 0 1 0 1.242h-4.966a.62.62 0 0 1 0-1.241Zm16.76-9.31h-1.242a.621.621 0 0 0 0 1.242h1.242a.621.621 0 0 0 0-1.242m-5.587 4.345H14.344a.621.621 0 0 1 0-1.242H28a.621.621 0 0 1 0 1.242Zm5.59-1.242h-3.724a.621.621 0 0 0 0 1.242h3.724a.621.621 0 0 0 0-1.242M16.827 24h-2.483a.621.621 0 0 1 0-1.242h2.483a.621.621 0 0 1 0 1.242m8.692-1.242h-6.207a.621.621 0 0 0 0 1.242h6.207a.621.621 0 0 0 0-1.242m2.484 0h5.586a.62.62 0 0 1 0 1.242h-5.586a.62.62 0 0 1 0-1.242" clip-rule="evenodd"/></svg>