<svg xmlns="http://www.w3.org/2000/svg" viewBox="0 0 48 48" role="presentation" aria-hidden="true"><path fill-rule="evenodd" clip-rule="evenodd" d="m37.111 13.086.479.478c.284.285.341.636.341 1.112V40.759c0 .52-.523 1.026-1.14 1.185a.752.752 0 0 0-.037.01.529.529 0 0 1-.057.016c-.097.02-.195.03-.295.03H11.53c-.1 0-.198-.01-.295-.03a.529.529 0 0 1-.057-.015.752.752 0 0 0-.036-.01c-.618-.16-1.141-.667-1.141-1.186V7.817C10 6.568 10.793 6 11.529 6h18.013c.308 0 .608.125.825.341l.478.479 6.266 6.266Zm-6.628.362h5.235l-5.235-5.235v5.235ZM11.416 40.732c.036.013.072.027.113.027h24.873c.04 0 .077-.014.113-.027l.01-.004a.285.285 0 0 0 .165-.257v-9.023H11.24v9.023c0 .114.068.211.165.257l.01.004ZM11.24 7.816v22.39H36.69v-15.53l-.001-.022a.954.954 0 0 1-.242.036h-7.206V7.484c0-.084.016-.164.036-.243H11.53c-.267 0-.288.44-.288.575Zm8.155 25.697a2.745 2.745 0 0 1 1.583 1.611c.13.354.195.718.195 1.091 0 .515-.055.955-.165 1.32-.11.365-.25.67-.42.917-.17.246-.361.44-.573.581a2.844 2.844 0 0 1-.615.319 2.5 2.5 0 0 1-.543.135c-.165.02-.287.03-.366.03h-2.367v-6.254h1.884c.526 0 .988.084 1.387.25Zm-1.242 5.257c.69 0 1.188-.22 1.493-.662.305-.44.458-1.08.458-1.918 0-.26-.03-.517-.093-.772a1.652 1.652 0 0 0-.36-.691 1.903 1.903 0 0 0-.726-.501c-.306-.127-.702-.191-1.188-.191h-.594v4.735h1.01Zm8.456-4.794a2.357 2.357 0 0 0-.823-.607 2.518 2.518 0 0 0-1.031-.208c-.373 0-.717.07-1.03.208-.315.14-.59.34-.824.607a2.851 2.851 0 0 0-.552.997c-.133.4-.199.861-.199 1.387s.066.99.2 1.392c.132.401.316.735.551 1.001.235.266.509.467.823.603.314.136.658.203 1.031.203.373 0 .717-.067 1.031-.203.314-.136.588-.337.823-.603.235-.266.418-.6.552-1.001.133-.402.2-.866.2-1.392 0-.526-.067-.989-.2-1.387a2.858 2.858 0 0 0-.552-.997Zm-.42 3.492a2.054 2.054 0 0 1-.352.734 1.33 1.33 0 0 1-.51.403c-.189.082-.388.123-.597.123a1.33 1.33 0 0 1-.582-.131 1.355 1.355 0 0 1-.492-.416 2.132 2.132 0 0 1-.34-.734 4.383 4.383 0 0 1-.131-1.087c.005-.435.05-.803.136-1.103.085-.3.202-.544.352-.734.15-.19.32-.323.509-.403.189-.08.388-.118.598-.118.204 0 .397.042.582.127.183.085.348.223.492.416.144.192.257.437.34.734.081.297.125.658.13 1.082-.005.436-.05.805-.135 1.107Zm4.527-3.347c-.19.08-.36.213-.51.403-.15.19-.267.435-.352.735-.085.3-.13.667-.136 1.103.006.424.05.786.132 1.086.082.3.195.544.34.734.143.19.308.328.491.416.184.088.378.132.582.132.204 0 .395-.038.573-.11.178-.074.34-.193.488-.357l.704.62a2.318 2.318 0 0 1-.789.508c-.294.113-.61.17-.95.17-.373 0-.717-.068-1.03-.204a2.308 2.308 0 0 1-.824-.602 2.826 2.826 0 0 1-.552-1.002 4.433 4.433 0 0 1-.199-1.391c0-.526.067-.988.2-1.388a2.85 2.85 0 0 1 .551-.996c.235-.267.51-.468.828-.607.316-.14.658-.208 1.026-.208.34 0 .656.056.95.17.294.112.557.282.79.508l-.705.628a1.293 1.293 0 0 0-1.01-.467c-.21 0-.41.04-.598.12ZM14.344 14.69h3.724a.621.621 0 0 0 0-1.241h-3.724a.621.621 0 0 0 0 1.241Zm5.586 3.103h-5.586a.621.621 0 0 1 0-1.242h5.586a.62.62 0 0 1 0 1.242Zm2.485 0a.653.653 0 0 0 .44-.18.653.653 0 0 0 .18-.44.653.653 0 0 0-.18-.44.65.65 0 0 0-.88 0 .653.653 0 0 0-.18.44c0 .161.068.323.18.44.117.112.279.18.44.18Zm7.448 0h-4.966a.62.62 0 0 1 0-1.242h4.966a.62.62 0 0 1 0 1.242Zm-15.96 8.248a.653.653 0 0 0-.18.441c0 .161.069.323.18.44.118.112.28.18.441.18a.653.653 0 0 0 .44-.18.652.652 0 0 0 .18-.44.64.64 0 0 0-.18-.44.65.65 0 0 0-.88 0Zm2.923-.18h4.966a.62.62 0 0 1 0 1.242h-4.966a.62.62 0 0 1 0-1.241Zm16.76-9.31h-1.242a.621.621 0 0 0 0 1.242h1.242a.621.621 0 0 0 0-1.242Zm-5.587 4.345H14.344a.621.621 0 0 1 0-1.242H28a.621.621 0 0 1 0 1.242Zm5.59-1.242h-3.724a.621.621 0 0 0 0 1.242h3.724a.621.621 0 0 0 0-1.242ZM16.827 24h-2.483a.621.621 0 0 1 0-1.242h2.483a.621.621 0 0 1 0 1.242Zm8.692-1.242h-6.207a.621.621 0 0 0 0 1.242h6.207a.621.621 0 0 0 0-1.242Zm2.484 0h5.586a.62.62 0 0 1 0 1.242h-5.586a.62.62 0 0 1 0-1.242Z" fill="currentColor"/></svg>