<svg xmlns="http://www.w3.org/2000/svg" viewBox="0 0 48 48" role="presentation" aria-hidden="true"><path d="M39.036 14.598a.676.676 0 0 1 .172.425v24.004a3.001 3.001 0 0 1-3.023 2.972H11.023a2.93 2.93 0 0 1-2.159-.878A2.879 2.879 0 0 1 8 39.027V9.013a2.879 2.879 0 0 1 .878-2.109 2.879 2.879 0 0 1 2.145-.892h16.763a.612.612 0 0 1 .59.366.563.563 0 0 1 .043.231.555.555 0 0 1-.18.418.59.59 0 0 1-.453.18H11.023a1.764 1.764 0 0 0-1.303.525A1.72 1.72 0 0 0 9.195 9v30.013a1.699 1.699 0 0 0 .525 1.26 1.77 1.77 0 0 0 1.303.532h25.191a1.772 1.772 0 0 0 1.296-.518 1.697 1.697 0 0 0 .525-1.26v-23.75l-7.197-7.198v4.556a1.75 1.75 0 0 0 1.792 1.792h2.36a.589.589 0 0 1 .599.594c0 .157-.062.309-.174.42a.568.568 0 0 1-.424.18H32.6a2.95 2.95 0 0 1-3.008-2.986v-6.01a.72.72 0 0 1 .086-.339.525.525 0 0 1 .266-.23.605.605 0 0 1 .684.13l8.407 8.414Zm-24.853 2.037a.597.597 0 0 1 .195-.971.59.59 0 0 1 .23-.043h6.01a.59.59 0 0 1 .598.593c0 .158-.063.31-.174.421a.57.57 0 0 1-.425.18h-6.01a.57.57 0 0 1-.424-.18Zm19.008 3.203v8.364a.613.613 0 0 1-.367.586.598.598 0 0 1-.23.047H21.798a.598.598 0 0 1-.558-.389.611.611 0 0 1-.04-.244.583.583 0 0 1 .368-.554.59.59 0 0 1 .23-.044h10.206v-7.197H15.198v7.197h2.742l4.038-4.009a.612.612 0 0 1 .849 0l1.367 1.368 2.563-2.563a.612.612 0 0 1 .85 0l3.022 2.988a.597.597 0 0 1 0 .842.591.591 0 0 1-.85 0l-2.598-2.563-2.555 2.563a.591.591 0 0 1-.849 0l-1.382-1.368-3.793 3.793a.66.66 0 0 1-.425.18H14.58a.598.598 0 0 1-.558-.389.613.613 0 0 1-.04-.244v-8.364a.634.634 0 0 1 .173-.46.59.59 0 0 1 .425-.173h17.993a.592.592 0 0 1 .425.173.634.634 0 0 1 .194.46ZM14.183 32.24a.597.597 0 0 1 0-.842.589.589 0 0 1 .425-.194h3.598a.59.59 0 0 1 .599.594.597.597 0 0 1-.368.553.596.596 0 0 1-.23.048h-3.6a.597.597 0 0 1-.424-.159Zm0 3.6a.597.597 0 0 1 0-.843.59.59 0 0 1 .425-.194h6.01a.591.591 0 0 1 .598.594c0 .157-.063.309-.174.42a.57.57 0 0 1-.425.18h-6.01a.568.568 0 0 1-.424-.172v.014Zm2.57-13.849a1.187 1.187 0 1 1-.353.85 1.145 1.145 0 0 1 .352-.864v.014Zm10.263 10.25a.598.598 0 0 1-.425.18h-5.974a.596.596 0 0 1-.424-.18.597.597 0 0 1 .195-.972.59.59 0 0 1 .23-.043h5.973a.59.59 0 0 1 .599.593c0 .158-.063.31-.174.421Zm-4.434 3.598a.597.597 0 0 1 .195-.971.59.59 0 0 1 .23-.044h8.4a.591.591 0 0 1 .598.594c0 .158-.063.31-.174.421a.57.57 0 0 1-.425.18h-8.399a.567.567 0 0 1-.425-.194v.014Zm10.444-3.599a.598.598 0 0 1-.425.18h-3.599a.596.596 0 0 1-.424-.18.597.597 0 0 1 0-.842.59.59 0 0 1 .439-.194h3.599a.592.592 0 0 1 .598.594c0 .158-.063.309-.174.42l-.014.023Z" fill="currentColor"/></svg>