<svg xmlns="http://www.w3.org/2000/svg" aria-hidden="true" viewBox="0 0 48 48"><path fill="currentColor" d="M39.036 14.598a.68.68 0 0 1 .172.425v24.004a3 3 0 0 1-3.023 2.972H11.023a2.93 2.93 0 0 1-2.159-.878A2.88 2.88 0 0 1 8 39.027V9.013a2.88 2.88 0 0 1 .878-2.109 2.88 2.88 0 0 1 2.145-.892h16.763a.61.61 0 0 1 .59.366.6.6 0 0 1 .043.231.56.56 0 0 1-.18.418.6.6 0 0 1-.453.18H11.023a1.76 1.76 0 0 0-1.303.525A1.72 1.72 0 0 0 9.195 9v30.013a1.7 1.7 0 0 0 .525 1.26 1.77 1.77 0 0 0 1.303.532h25.191a1.77 1.77 0 0 0 1.296-.518 1.7 1.7 0 0 0 .525-1.26v-23.75l-7.197-7.198v4.556a1.75 1.75 0 0 0 1.792 1.792h2.36a.59.59 0 0 1 .599.594.6.6 0 0 1-.174.42.57.57 0 0 1-.424.18H32.6a2.95 2.95 0 0 1-3.008-2.986v-6.01a.7.7 0 0 1 .086-.339.53.53 0 0 1 .266-.23.605.605 0 0 1 .684.13l8.407 8.414Zm-24.853 2.037a.597.597 0 0 1 .195-.971.6.6 0 0 1 .23-.043h6.01a.59.59 0 0 1 .598.593c0 .158-.063.31-.174.421a.57.57 0 0 1-.425.18h-6.01a.57.57 0 0 1-.424-.18m19.008 3.203v8.364a.61.61 0 0 1-.367.586.6.6 0 0 1-.23.047H21.798a.6.6 0 0 1-.558-.389.6.6 0 0 1-.04-.244.58.58 0 0 1 .368-.554.6.6 0 0 1 .23-.044h10.206v-7.197H15.198v7.197h2.742l4.038-4.009a.61.61 0 0 1 .849 0l1.367 1.368 2.563-2.563a.61.61 0 0 1 .85 0l3.022 2.988a.597.597 0 0 1 0 .842.59.59 0 0 1-.85 0l-2.598-2.563-2.555 2.563a.59.59 0 0 1-.849 0l-1.382-1.368-3.793 3.793a.66.66 0 0 1-.425.18H14.58a.6.6 0 0 1-.558-.389.6.6 0 0 1-.04-.244v-8.364a.63.63 0 0 1 .173-.46.6.6 0 0 1 .425-.173h17.993a.6.6 0 0 1 .425.173.63.63 0 0 1 .194.46ZM14.183 32.24a.597.597 0 0 1 0-.842.6.6 0 0 1 .425-.194h3.598a.59.59 0 0 1 .599.594.6.6 0 0 1-.368.553.6.6 0 0 1-.23.048h-3.6a.6.6 0 0 1-.424-.159m0 3.6a.597.597 0 0 1 0-.843.6.6 0 0 1 .425-.194h6.01a.59.59 0 0 1 .598.594.6.6 0 0 1-.174.42.57.57 0 0 1-.425.18h-6.01a.57.57 0 0 1-.424-.172zm2.57-13.849a1.187 1.187 0 1 1-.353.85 1.15 1.15 0 0 1 .352-.864v.014Zm10.263 10.25a.6.6 0 0 1-.425.18h-5.974a.6.6 0 0 1-.424-.18.597.597 0 0 1 .195-.972.6.6 0 0 1 .23-.043h5.973a.59.59 0 0 1 .599.593c0 .158-.063.31-.174.421Zm-4.434 3.598a.597.597 0 0 1 .195-.971.6.6 0 0 1 .23-.044h8.4a.59.59 0 0 1 .598.594c0 .158-.063.31-.174.421a.57.57 0 0 1-.425.18h-8.399a.57.57 0 0 1-.425-.194zm10.444-3.599a.6.6 0 0 1-.425.18h-3.599a.6.6 0 0 1-.424-.18.597.597 0 0 1 0-.842.6.6 0 0 1 .439-.194h3.599a.59.59 0 0 1 .598.594.6.6 0 0 1-.174.42z"/></svg>