<svg xmlns="http://www.w3.org/2000/svg" viewBox="0 0 24 24" role="presentation" aria-hidden="true"><path fill-rule="evenodd" clip-rule="evenodd" d="M20.292 6.995a.553.553 0 0 0-.612-.052l-1.164.64A7.875 7.875 0 0 0 11.909 4c-4.347 0-7.883 3.536-7.883 7.883a.862.862 0 0 0 1.723 0 6.167 6.167 0 0 1 6.16-6.16 6.155 6.155 0 0 1 5.093 2.694l-1.09.6a.553.553 0 0 0 .113 1.016l2.922.847a.55.55 0 0 0 .42-.047.554.554 0 0 0 .265-.33l.846-2.922a.553.553 0 0 0-.186-.586Zm-9.028 7.544c-.413-.111-.783-.315-1.041-.573a.589.589 0 0 0-.838 0l-.045.045a.597.597 0 0 0 .006.845c.505.489 1.217.842 1.956.97l.071.012v.56c0 .326.266.592.593.592h.067a.593.593 0 0 0 .592-.593v-.572l.07-.013c1.226-.234 1.957-1 1.957-2.048.01-1.426-1.045-1.946-1.967-2.24l-.06-.02v-1.92l.105.022c.271.06.514.15.701.263a.592.592 0 0 0 .807-.194l.03-.048a.596.596 0 0 0-.195-.821 3.834 3.834 0 0 0-1.375-.475l-.073-.011v-.423a.593.593 0 0 0-.592-.593h-.067a.593.593 0 0 0-.593.593v.454l-.069.014c-1.132.228-1.808.939-1.808 1.9 0 1.03.595 1.73 1.819 2.146l.058.02v2.137l-.108-.029Zm1.361-1.708.121.053c.48.21.658.446.654.872 0 .355-.223.608-.662.752l-.113.037v-1.714Zm-1.379-1.812c-.358-.192-.498-.403-.498-.754 0-.266.171-.465.51-.59l.115-.042v1.453l-.127-.067Zm7.005 1.553a.861.861 0 1 1 1.723 0c0 4.347-3.537 7.883-7.883 7.883a7.875 7.875 0 0 1-6.607-3.583l-1.164.64a.553.553 0 0 1-.798-.638l.847-2.921a.553.553 0 0 1 .685-.378l2.921.847a.553.553 0 0 1 .113 1.016l-1.09.6a6.155 6.155 0 0 0 5.093 2.694 6.167 6.167 0 0 0 6.16-6.16Z" fill="currentColor"/></svg>