<svg xmlns="http://www.w3.org/2000/svg" width="20" height="20" fill="none" viewBox="0 0 20 20"><path fill="currentColor" d="M18.25 10a.75.75 0 0 0-1.5 0h1.5Zm-1.32 2.87-.694-.287.693.287Zm-1.627 2.433.53.53-.53-.53ZM12.87 16.93l.287.693-.287-.693ZM10 17.5v.75-.75Zm-2.87-.57-.287.692.287-.693Zm-2.433-1.627.53-.53-.53.53ZM3.07 12.87l.693-.287-.693.287ZM3.25 10a.75.75 0 0 0-1.5 0h1.5ZM10 12.1l-.53.53a.75.75 0 0 0 1.06 0L10 12.1Zm.75-9.6a.75.75 0 0 0-1.5 0h1.5ZM6.53 7.57a.75.75 0 0 0-1.06 1.061l.53-.53.53-.53Zm8 1.061a.75.75 0 0 0-1.06-1.06l.53.53.53.53ZM17.5 10h-.75a6.75 6.75 0 0 1-.514 2.583l.693.287.693.287A8.25 8.25 0 0 0 18.25 10h-.75Zm-.57 2.87-.694-.287a6.75 6.75 0 0 1-1.463 2.19l.53.53.53.53a8.25 8.25 0 0 0 1.789-2.676l-.693-.287Zm-1.627 2.433-.53-.53a6.75 6.75 0 0 1-2.19 1.463l.287.693.287.693a8.25 8.25 0 0 0 2.677-1.788l-.53-.53ZM12.87 16.93l-.287-.693A6.75 6.75 0 0 1 10 16.75v1.5a8.25 8.25 0 0 0 3.157-.628l-.287-.693ZM10 17.5v-.75a6.75 6.75 0 0 1-2.583-.514l-.287.693-.287.693A8.25 8.25 0 0 0 10 18.25v-.75Zm-2.87-.57.287-.694a6.75 6.75 0 0 1-2.19-1.463l-.53.53-.53.53a8.25 8.25 0 0 0 2.676 1.789l.287-.693Zm-2.433-1.627.53-.53a6.75 6.75 0 0 1-1.463-2.19l-.693.287-.693.287a8.25 8.25 0 0 0 1.788 2.677l.53-.53ZM3.07 12.87l.693-.287A6.75 6.75 0 0 1 3.25 10h-1.5a8.25 8.25 0 0 0 .628 3.157l.693-.287ZM10 12.1h.75V2.5h-1.5v9.6H10ZM6 8.1l-.53.531 4 4L10 12.1l.53-.53-4-4L6 8.1Zm4 4 .53.53 4-3.999-.53-.53-.53-.53-4 3.999.53.53Z"/></svg>