<svg width="20" height="20" viewBox="0 0 20 20" fill="none" xmlns="http://www.w3.org/2000/svg">
<path d="M9.99983 17.7565L7.03483 14.7915L7.62983 14.1973L9.58316 16.1498V10.4165H3.854L5.80733 12.3657L5.20816 12.9648L2.24316 9.99983L5.20316 7.03983L5.79816 7.63483L3.849 9.58316H9.58316V3.84983L7.62983 5.80233L7.03483 5.20733L9.99983 2.24316L12.9648 5.20816L12.3698 5.80316L10.4165 3.84816V9.58316H16.1457L14.1923 7.634L14.7915 7.03483L17.7565 9.99983L14.7915 12.9648L14.1973 12.3698L16.1498 10.4165H10.4165V16.1457L12.3657 14.1923L12.9648 14.7915L9.99983 17.7565Z" fill="currentColor"/>
</svg>
