<svg xmlns="http://www.w3.org/2000/svg" viewBox="0 0 24 24" role="presentation" aria-hidden="true"><path d="M12 23c6.075 0 11-4.925 11-11S18.075 1 12 1 1 5.925 1 12s4.925 11 11 11Z" fill="#B061FF"/><path d="M14.912 5.653a3.095 3.095 0 0 0-.699 1.985v1.2H11.19c-3.04.117-5.152 2.286-5.152 5.274 0 2.99 2.27 5.29 5.39 5.29 2.857 0 5.015-1.815 5.365-4.515.03-.243.04-.47.04-.714l.015-9.574h-.141a3.03 3.03 0 0 0-1.794 1.059v-.005Zm-.714 5.846-.015 2.613c0 .259-.03.517-.086.77-.335 1.328-1.429 2.199-2.786 2.199-1.697 0-2.873-1.272-2.873-3.07 0-1.798 1.176-2.928 2.873-2.928h2.882v.415h.005Z" fill="#fff"/></svg>