<svg xmlns="http://www.w3.org/2000/svg" viewBox="0 0 48 48" role="presentation" aria-hidden="true"><path d="M32.745 11.042a5.27 5.27 0 0 0-3.147 1.838 5.413 5.413 0 0 0-1.238 3.464v2.095h-5.304c-5.331.204-9.056 3.988-9.056 9.21 0 5.366 3.988 9.26 9.482 9.26 5.023 0 8.809-3.175 9.421-7.901.05-.416.073-.835.07-1.254L33 11l-.255.042Zm-4.39 12.075-.03 4.574c.003.45-.048.9-.151 1.339-.58 2.334-2.5 3.84-4.895 3.84-2.975 0-5.057-2.213-5.057-5.382 0-3.17 2.078-5.383 5.057-5.383h5.081v1.005l-.005.007Z" fill="currentColor"/></svg>