<svg xmlns="http://www.w3.org/2000/svg" aria-hidden="true" viewBox="0 0 16 16"><path fill="currentColor" fill-rule="evenodd" d="M8.055 2c.174 0 .336.088.43.234l3.355 5.164.015.023a4.387 4.387 0 1 1-7.588-.023l3.356-5.164A.51.51 0 0 1 8.055 2M5.142 7.938a3.359 3.359 0 1 0 5.828.009L8.054 3.458z" clip-rule="evenodd"/><path fill="currentColor" fill-rule="evenodd" d="M3.668 9.615c0-.284.23-.514.514-.514h7.746a.514.514 0 0 1 0 1.028H4.182a.514.514 0 0 1-.514-.514" clip-rule="evenodd"/><path fill="currentColor" fill-rule="evenodd" d="M7.773 9.251a.514.514 0 0 1 0 .727l-2.385 2.386a.514.514 0 0 1-.727-.728l2.385-2.385c.2-.2.526-.2.727 0m3.227 0a.51.51 0 0 1 0 .727l-3.704 3.706a.514.514 0 1 1-.728-.728l3.705-3.705c.201-.2.527-.2.728 0" clip-rule="evenodd"/></svg>