<svg xmlns="http://www.w3.org/2000/svg" aria-hidden="true" viewBox="0 0 20 20"><path fill="none" stroke="currentColor" stroke-linecap="round" stroke-linejoin="round" stroke-width="1.5" d="M13.125 14.375v2.813c0 .517-.42.937-.938.937H4.063a.94.94 0 0 1-.938-.938V6.563c0-.517.42-.937.938-.937h1.562q.63 0 1.25.103m6.25 8.647h2.813c.517 0 .937-.42.937-.938V9.375a7.5 7.5 0 0 0-7.5-7.5H7.812a.94.94 0 0 0-.937.938v2.916m6.25 8.646H7.812a.94.94 0 0 1-.937-.938V5.73m10 5.521V9.687a2.81 2.81 0 0 0-2.813-2.812h-1.25a.937.937 0 0 1-.937-.938v-1.25a2.81 2.81 0 0 0-2.813-2.812h-.937"/></svg>