<svg xmlns="http://www.w3.org/2000/svg" viewBox="0 0 48 48" role="presentation" aria-hidden="true"><path fill-rule="evenodd" clip-rule="evenodd" d="m37.59 13.564-.478-.478-6.267-6.266h-.001l-.477-.477A1.171 1.171 0 0 0 29.542 6H11.53C10.793 6 10 6.569 10 7.816V40.76c0 .52.523 1.026 1.141 1.185a.748.748 0 0 1 .037.011c.018.006.036.012.055.015.098.02.196.03.296.03h24.873c.1 0 .198-.01.295-.03.019-.003.037-.01.055-.015.012-.004.024-.008.037-.01.619-.16 1.142-.666 1.142-1.186V14.676c0-.475-.057-.827-.341-1.112Zm-7.107-5.351 5.235 5.235h-5.235V8.213ZM11.408 40.729h-.002a.286.286 0 0 1-.165-.258v-9.023H36.69v9.023c0 .114-.068.21-.165.257l-.002.001a.335.335 0 0 1-.12.03H11.528a.336.336 0 0 1-.12-.03Zm-.167-10.522V7.817c0-.136.02-.576.288-.576h17.748a.956.956 0 0 0-.036.244v7.205h7.206a.954.954 0 0 0 .242-.036v15.552H11.242Zm6.942 3.972a2.876 2.876 0 0 0-.994-.666c-.399-.166-.861-.25-1.387-.25h-1.884v6.254h2.368c.078 0 .2-.01.365-.03a2.5 2.5 0 0 0 .543-.135c.198-.071.402-.177.615-.319.212-.141.403-.335.573-.581.17-.247.31-.552.42-.917.11-.365.166-.805.166-1.32 0-.373-.066-.737-.195-1.09a2.764 2.764 0 0 0-.59-.946Zm-.744 3.93c-.305.44-.803.661-1.493.661h-1.01v-4.735h.594c.487 0 .883.064 1.188.191.306.127.548.294.726.5.178.208.298.438.36.692.063.255.094.512.094.772 0 .838-.152 1.478-.459 1.918Zm7.418-4.846 1.103 5.397 1.196-5.397h1.154l-1.689 6.288h-1.323l-1.027-4.718-1.094 4.718h-1.333l-1.587-6.288h1.154l1.103 5.397 1.188-5.397h1.155Zm7.323 3.726h1.06v1.544a.423.423 0 0 1-.212.144c-.096.033-.196.06-.3.08a3.507 3.507 0 0 1-.564.055c-.204 0-.399-.047-.582-.143a1.44 1.44 0 0 1-.493-.442 2.276 2.276 0 0 1-.34-.763 4.609 4.609 0 0 1-.13-1.103c.005-.436.05-.803.135-1.103.085-.3.203-.544.352-.734.15-.19.32-.324.51-.403.189-.08.388-.119.598-.119.186 0 .368.038.543.11.175.074.33.193.466.357l.705-.628a2.316 2.316 0 0 0-.79-.509 2.626 2.626 0 0 0-.95-.17c-.367 0-.71.07-1.026.209-.316.139-.593.34-.827.607a2.847 2.847 0 0 0-.552.996c-.133.4-.2.862-.2 1.388 0 .525.067.99.2 1.391.133.402.316.736.552 1.001.234.267.509.467.823.603.314.136.658.204 1.03.204.188 0 .376-.014.565-.042a2.682 2.682 0 0 0 1.06-.403 1.85 1.85 0 0 0 .438-.403v-2.418H32.18v.694Zm-2.939-17.954h2.483v2.482h3.724v1.242h-3.724v2.482h-2.483v3.724H28v-3.724h-2.483V22.76h-1.241v1.902H13.724V14.069h10.552v7.448h1.241v-2.482H28V15.31h1.241v3.725ZM14.966 23.42h8.069v-.661h-1.242v-1.242h1.242V15.31h-8.07v8.11Zm11.793.58h3.724v-3.724h-3.724V24Z" fill="currentColor"/></svg>