<svg xmlns="http://www.w3.org/2000/svg" aria-hidden="true" viewBox="0 0 48 48"><path fill="currentColor" fill-rule="evenodd" d="m37.59 13.564-.478-.478-6.267-6.266h-.001l-.477-.477A1.17 1.17 0 0 0 29.542 6H11.53C10.793 6 10 6.569 10 7.816V40.76c0 .52.523 1.026 1.141 1.185l.037.011a.3.3 0 0 0 .055.015q.146.03.296.03h24.873q.15 0 .295-.03.028-.006.055-.015.018-.007.037-.01c.619-.16 1.142-.666 1.142-1.186V14.676c0-.475-.057-.827-.341-1.112m-7.107-5.351 5.235 5.235h-5.235zM11.408 40.729h-.002a.29.29 0 0 1-.165-.258v-9.023H36.69v9.023c0 .114-.068.21-.165.257l-.002.001a.3.3 0 0 1-.12.03H11.528a.3.3 0 0 1-.12-.03m-.167-10.522V7.817c0-.136.02-.576.288-.576h17.748a1 1 0 0 0-.036.244v7.205h7.206a1 1 0 0 0 .242-.036v15.552H11.242Zm6.942 3.972a2.9 2.9 0 0 0-.994-.666q-.598-.25-1.387-.25h-1.884v6.254h2.368q.117 0 .365-.03a2.5 2.5 0 0 0 .543-.135q.296-.106.615-.319.318-.212.573-.581.255-.37.42-.917.166-.547.166-1.32 0-.56-.195-1.09a2.8 2.8 0 0 0-.59-.946m-.744 3.93q-.458.66-1.493.661h-1.01v-4.735h.594q.73 0 1.188.191.459.19.726.5.267.312.36.692.094.382.094.772 0 1.258-.459 1.918Zm7.418-4.846 1.103 5.397 1.196-5.397h1.154l-1.689 6.288h-1.323l-1.027-4.718-1.094 4.718h-1.333l-1.587-6.288h1.154l1.103 5.397 1.188-5.397zm7.323 3.726h1.06v1.544a.42.42 0 0 1-.212.144 2 2 0 0 1-.3.08 3.5 3.5 0 0 1-.564.055q-.307 0-.582-.143a1.44 1.44 0 0 1-.493-.442 2.3 2.3 0 0 1-.34-.763 4.6 4.6 0 0 1-.13-1.103q.008-.654.135-1.103.128-.45.352-.734.225-.285.51-.403.283-.12.598-.119.28.001.543.11.262.111.466.357l.705-.628a2.3 2.3 0 0 0-.79-.509 2.6 2.6 0 0 0-.95-.17q-.551 0-1.026.209a2.34 2.34 0 0 0-.827.607 2.85 2.85 0 0 0-.552.996q-.2.6-.2 1.388t.2 1.391.552 1.001q.352.4.823.603.471.204 1.03.204.282 0 .565-.042a2.7 2.7 0 0 0 1.06-.403 1.9 1.9 0 0 0 .438-.403v-2.418H32.18zm-2.939-17.954h2.483v2.482h3.724v1.242h-3.724v2.482h-2.483v3.724H28v-3.724h-2.483V22.76h-1.241v1.902H13.724V14.069h10.552v7.448h1.241v-2.482H28V15.31h1.241zM14.966 23.42h8.069v-.661h-1.242v-1.242h1.242V15.31h-8.07zm11.793.58h3.724v-3.724h-3.724z" clip-rule="evenodd"/></svg>