<svg xmlns="http://www.w3.org/2000/svg" width="24" height="24" fill="none" viewBox="0 0 24 24"><path fill="currentColor" d="M12 21.6a9.6 9.6 0 1 0 0-19.199 9.6 9.6 0 0 0 0 19.2"/><path fill="currentColor" d="M14.514 9.374a1.965 1.965 0 0 0-1.858-1.313h-1.524a1.758 1.758 0 0 0-.376 3.475l2.32.508a1.97 1.97 0 0 1-.42 3.894h-1.312a1.96 1.96 0 0 1-1.858-1.314M12 8.061V6.09Zm0 9.846v-1.97Z"/><path stroke="#fff" stroke-linecap="round" stroke-linejoin="round" stroke-width="1.3" d="M14.514 9.374a1.965 1.965 0 0 0-1.858-1.313h-1.524a1.758 1.758 0 0 0-.376 3.475l2.32.508a1.97 1.97 0 0 1-.42 3.894h-1.312a1.96 1.96 0 0 1-1.858-1.314M12 8.061V6.09m0 11.816v-1.97"/></svg>