<svg width="24" height="24" viewBox="0 0 24 24" fill="none" xmlns="http://www.w3.org/2000/svg">
<path d="M12.0004 21.6004C14.5465 21.6004 16.9883 20.589 18.7886 18.7886C20.589 16.9883 21.6004 14.5465 21.6004 12.0004C21.6004 9.45431 20.589 7.01252 18.7886 5.21217C16.9883 3.41182 14.5465 2.40039 12.0004 2.40039C9.45431 2.40039 7.01252 3.41182 5.21217 5.21217C3.41182 7.01252 2.40039 9.45431 2.40039 12.0004C2.40039 14.5465 3.41182 16.9883 5.21217 18.7886C7.01252 20.589 9.45431 21.6004 12.0004 21.6004Z" fill="currentColor"/>
<path d="M14.5137 9.37352C14.3785 8.98893 14.127 8.65592 13.7941 8.42066C13.4612 8.1854 13.0634 8.05954 12.6557 8.06054H11.1315C10.6976 8.05982 10.2787 8.21969 9.95552 8.50935C9.63238 8.79901 9.42782 9.19799 9.38125 9.62945C9.33467 10.0609 9.44937 10.4943 9.70326 10.8463C9.95714 11.1982 10.3323 11.4438 10.7564 11.5357L13.0766 12.0438C13.551 12.1479 13.9702 12.4235 14.2538 12.8178C14.5374 13.212 14.6653 13.6971 14.6132 14.1799C14.561 14.6628 14.3323 15.1093 13.971 15.4339C13.6098 15.7584 13.1414 15.9381 12.6557 15.9384H11.3442C10.9364 15.9393 10.5384 15.8133 10.2054 15.5777C9.87251 15.3422 9.62115 15.0088 9.48623 14.624M12 8.06054V6.0918ZM12 17.9072V15.937Z" fill="currentColor"/>
<path d="M14.5137 9.37352C14.3785 8.98893 14.127 8.65592 13.7941 8.42066C13.4612 8.1854 13.0634 8.05954 12.6557 8.06054H11.1315C10.6976 8.05982 10.2787 8.21969 9.95552 8.50935C9.63238 8.79901 9.42782 9.19799 9.38125 9.62945C9.33467 10.0609 9.44937 10.4943 9.70326 10.8463C9.95714 11.1982 10.3323 11.4438 10.7564 11.5357L13.0766 12.0438C13.551 12.1479 13.9702 12.4235 14.2538 12.8178C14.5374 13.212 14.6653 13.6971 14.6132 14.1799C14.561 14.6628 14.3323 15.1093 13.971 15.4339C13.6098 15.7584 13.1414 15.9381 12.6557 15.9384H11.3442C10.9364 15.9393 10.5384 15.8133 10.2054 15.5777C9.87251 15.3422 9.62115 15.0088 9.48623 14.624M12 8.06054V6.0918M12 17.9072V15.937" stroke="white" stroke-width="1.3" stroke-linecap="round" stroke-linejoin="round"/>
</svg>
