<svg xmlns="http://www.w3.org/2000/svg" width="20" height="20" fill="none" viewBox="0 0 20 20"><path stroke="currentColor" stroke-linejoin="round" stroke-width="1.3" d="M11.659 3.508c.596-.646.894-.968 1.21-1.157a2.49 2.49 0 0 1 2.483-.037c.322.179.63.493 1.244 1.12s.922.942 1.097 1.27a2.63 2.63 0 0 1-.037 2.537c-.184.323-.5.628-1.133 1.237L9 15.723c-1.198 1.155-1.797 1.732-2.546 2.024s-1.571.27-3.218.228l-.224-.006c-.5-.013-.751-.02-.897-.185s-.126-.42-.086-.931l.021-.277c.112-1.437.168-2.156.449-2.801.28-.646.765-1.17 1.733-2.22zM10.8 3.6l5.6 5.6"/><path stroke="currentColor" stroke-linecap="round" stroke-linejoin="round" stroke-width="1.3" d="M11.6 17.999H18"/></svg>