<svg xmlns="http://www.w3.org/2000/svg" aria-hidden="true" viewBox="0 0 24 24"><rect width="24" height="24" fill="transparent" rx="3"/><path fill="currentColor" fill-rule="evenodd" d="M6.13 6.994a.76.76 0 0 0-.762.76v10.117a.76.76 0 0 0 .761.76h10.116a.76.76 0 0 0 .76-.76v-3.859a.684.684 0 0 1 1.37 0v3.858a2.13 2.13 0 0 1-2.13 2.13H6.129A2.13 2.13 0 0 1 4 17.87V7.756a2.13 2.13 0 0 1 2.13-2.13h3.858a.684.684 0 0 1 0 1.369z" clip-rule="evenodd"/><path fill="currentColor" fill-rule="evenodd" d="M15.929 4.2a.684.684 0 0 1 .967 0L19.8 7.104c.267.267.267.7 0 .967l-7.258 7.258a.7.7 0 0 1-.484.2H9.155a.684.684 0 0 1-.684-.684v-2.903c0-.181.072-.356.2-.484zm-6.09 8.025v1.936h1.936l6.573-6.574-1.935-1.935z" clip-rule="evenodd"/></svg>