<svg width="20" height="20" viewBox="0 0 20 20" fill="none" xmlns="http://www.w3.org/2000/svg">
<path d="M17.7087 8.95547V13.7513C17.7087 14.6354 17.3575 15.4832 16.7323 16.1083C16.1072 16.7334 15.2594 17.0846 14.3753 17.0846H5.62533C4.74127 17.0846 3.89342 16.7334 3.2683 16.1083C2.64318 15.4832 2.29199 14.6354 2.29199 13.7513V6.2513C2.29199 5.36725 2.64318 4.5194 3.2683 3.89428C3.89342 3.26916 4.74127 2.91797 5.62533 2.91797H11.5845" stroke="currentColor" stroke-width="1.5" stroke-linecap="round" stroke-linejoin="round"/>
<path d="M2.29199 6.32617L8.33366 9.76784C8.83869 10.0654 9.41416 10.2223 10.0003 10.2223C10.5865 10.2223 11.162 10.0654 11.667 9.76784L13.5162 8.72034" stroke="currentColor" stroke-width="1.5" stroke-linecap="round" stroke-linejoin="round"/>
<path d="M15.8333 6.25065C16.9839 6.25065 17.9167 5.31791 17.9167 4.16732C17.9167 3.01672 16.9839 2.08398 15.8333 2.08398C14.6827 2.08398 13.75 3.01672 13.75 4.16732C13.75 5.31791 14.6827 6.25065 15.8333 6.25065Z" stroke="currentColor" stroke-width="1.5"/>
</svg>
