<svg width="20" height="20" viewBox="0 0 20 20" fill="none" xmlns="http://www.w3.org/2000/svg">
<path d="M7.68006 2.29192H13.7184C13.7912 2.29166 13.8629 2.30956 13.927 2.344C13.9911 2.37844 14.0456 2.42833 14.0855 2.48915C14.1255 2.54996 14.1497 2.61979 14.1558 2.6923C14.162 2.76481 14.15 2.83772 14.1209 2.90442L11.7584 8.41858H15.7409C15.7742 8.41892 15.8068 8.42878 15.8347 8.44701C15.8627 8.46523 15.8848 8.49105 15.8985 8.52143C15.9123 8.55182 15.9171 8.5855 15.9123 8.6185C15.9076 8.65151 15.8935 8.68248 15.8717 8.70775L7.75006 17.6336C7.72789 17.6667 7.69459 17.6908 7.65618 17.7015C7.61777 17.7122 7.57681 17.7087 7.54073 17.6918C7.50464 17.6749 7.47582 17.6455 7.45949 17.6092C7.44316 17.5728 7.4404 17.5318 7.45172 17.4936L8.25756 11.0436H4.52922C4.45682 11.0446 4.38529 11.0276 4.32105 10.9942C4.2568 10.9608 4.20183 10.912 4.16106 10.8521C4.12028 10.7923 4.09497 10.7233 4.08738 10.6512C4.07979 10.5792 4.09015 10.5064 4.11756 10.4394L7.26756 2.56275C7.30095 2.48119 7.3582 2.41161 7.4318 2.36314C7.50541 2.31466 7.59194 2.29038 7.68006 2.29192Z" fill="currentColor"/>
</svg>
