<svg xmlns="http://www.w3.org/2000/svg" width="20" height="20" fill="none" viewBox="0 0 20 20"><path stroke="currentColor" stroke-linecap="round" stroke-linejoin="round" stroke-width="1.5" d="M16.666 18.334H5c-.92 0-1.667-.747-1.667-1.667m0 0C3.333 15.747 4.079 15 5 15h11.666V5c0-1.571 0-2.357-.488-2.845s-1.274-.488-2.845-.488h-5c-2.357 0-3.536 0-4.268.732s-.732 1.911-.732 4.268z"/><path stroke="currentColor" stroke-linecap="round" stroke-linejoin="round" stroke-width="1.5" d="M16.25 15s-.833.636-.833 1.667c0 1.03.833 1.666.833 1.666M7.5 1.667v6.667l2.5-2.5 2.5 2.5V1.667"/></svg>