<svg xmlns="http://www.w3.org/2000/svg" viewBox="0 0 24 24" role="presentation" aria-hidden="true"><path fill-rule="evenodd" clip-rule="evenodd" d="M6.5 12.56 4.56 14.5c.966.963 2.973 2.967 3.766 3.75h3.863L6.5 12.56Zm-.532-1.589-2.645 2.645a1.25 1.25 0 0 0 0 1.768c.905.903 3.3 3.294 4.059 4.04A.75.75 0 0 0 8 19.75h11.5a.75.75 0 0 0 0-1.5h-4.858l6.03-5.872a1.25 1.25 0 0 0 .044-1.747l-6.064-6.513a1.25 1.25 0 0 0-1.799-.032l-6.882 6.882-.001.001-.002.002Zm1.593.529 5.852 5.852 6.038-5.878-5.72-6.144-6.17 6.17Z" fill="currentColor"/></svg>