<svg xmlns="http://www.w3.org/2000/svg" viewBox="0 0 48 48" role="presentation" aria-hidden="true"><path fill-rule="evenodd" clip-rule="evenodd" d="m37.111 13.086.479.478c.284.285.341.636.341 1.112V40.759c0 .52-.523 1.026-1.14 1.185a.752.752 0 0 0-.037.01.529.529 0 0 1-.057.016c-.097.02-.195.03-.295.03H11.53c-.1 0-.198-.01-.295-.03a.529.529 0 0 1-.057-.015.752.752 0 0 0-.036-.01c-.618-.16-1.141-.667-1.141-1.186V7.817C10 6.568 10.793 6 11.529 6h18.013c.308 0 .608.125.825.341l.478.479 6.266 6.266Zm-6.628.362h5.235l-5.235-5.235v5.235ZM11.416 40.732c.036.013.072.027.113.027h24.873c.04 0 .077-.014.113-.027l.01-.004a.285.285 0 0 0 .165-.257v-9.023H11.24v9.023c0 .114.068.211.165.257l.01.004ZM11.24 7.816v22.39H36.69v-15.53l-.001-.022a.954.954 0 0 1-.242.036h-7.206V7.484c0-.084.016-.164.036-.243H11.53c-.267 0-.288.44-.288.575Zm8.825 31.701h-3.912v-6.254h3.912v.772h-2.877v1.97h2.614v.695h-2.614v2.045h2.877v.772Zm4.786-6.254-1.197 2.546h-.085l-1.103-2.546h-1.162l1.689 3.216-1.587 3.038h1.179l1.07-2.359h.084l.993 2.36h1.18l-1.587-3.039 1.689-3.216h-1.163Zm6.5 6.254H27.44v-6.254h3.912v.772h-2.877v1.97h2.614v.695h-2.614v2.045h2.877v.772Zm-.684-24.179a.62.62 0 0 0-.778.408l-3.104 9.93a.62.62 0 0 0 1.185.371l3.104-9.931a.62.62 0 0 0-.407-.778Zm-5.15 3.386a.931.931 0 1 1-1.863 0 .931.931 0 0 1 1.862 0ZM24.585 24a.931.931 0 1 0 0-1.862.931.931 0 0 0 0 1.862Zm-3.413-6.207H19.93a3.107 3.107 0 0 0-3.103 3.104A3.107 3.107 0 0 0 19.93 24h1.241a.62.62 0 0 1 0 1.241h-1.24a4.35 4.35 0 0 1-4.346-4.345 4.35 4.35 0 0 1 4.345-4.344h1.241a.62.62 0 0 1 0 1.241Z" fill="currentColor"/></svg>