<svg xmlns="http://www.w3.org/2000/svg" width="20" height="20" fill="none" viewBox="0 0 20 20"><path fill="currentColor" d="m7.257 13.196 3.787-1.22q.343-.116.58-.353.235-.237.352-.579L13.2 7.252a.34.34 0 0 0-.094-.36.34.34 0 0 0-.362-.09L8.956 8.025q-.341.116-.58.353a1.5 1.5 0 0 0-.352.579L6.8 12.748a.34.34 0 0 0 .094.36.34.34 0 0 0 .362.09m2.74-2.207a.95.95 0 0 1-.7-.29.97.97 0 0 1-.288-.705q0-.415.29-.7a.97.97 0 0 1 .706-.288.95.95 0 0 1 .702.29q.285.292.286.706a.95.95 0 0 1-.29.702.97.97 0 0 1-.706.285M10.003 18a7.8 7.8 0 0 1-3.12-.63 8.1 8.1 0 0 1-2.542-1.71 8.1 8.1 0 0 1-1.71-2.538A7.8 7.8 0 0 1 2 10.002q0-1.659.63-3.12.63-1.46 1.708-2.54a8 8 0 0 1 2.54-1.712A7.8 7.8 0 0 1 9.997 2q1.658 0 3.12.63 1.46.63 2.54 1.709 1.082 1.08 1.712 2.54T18 9.996q0 1.659-.63 3.12a8.1 8.1 0 0 1-1.71 2.542 8.1 8.1 0 0 1-2.538 1.71q-1.458.633-3.12.631M10 17.111q2.972 0 5.042-2.07T17.112 10t-2.07-5.042T10 2.888t-5.042 2.07T2.888 10t2.07 5.042T10 17.112"/></svg>