<svg xmlns="http://www.w3.org/2000/svg" width="20" height="20" fill="none" viewBox="0 0 20 20"><path fill="currentColor" d="m7.1 13.4 4.04-1.16a1.62 1.62 0 0 0 1.1-1.1L13.4 7.1a.38.38 0 0 0-.11-.39.38.38 0 0 0-.39-.11L8.86 7.76q-.4.12-.69.41a1.6 1.6 0 0 0-.41.69L6.6 12.9a.38.38 0 0 0 .11.39q.171.17.39.11m2.9-2.2q-.5 0-.85-.35A1.16 1.16 0 0 1 8.8 10q0-.5.35-.85.352-.348.85-.35.498-.001.85.35.353.352.35.85a1.18 1.18 0 0 1-.35.85 1.14 1.14 0 0 1-.85.35m0 6.8a7.8 7.8 0 0 1-3.12-.63 8.1 8.1 0 0 1-2.54-1.71 8.1 8.1 0 0 1-1.71-2.54A7.8 7.8 0 0 1 2 10q0-1.659.63-3.12.632-1.46 1.71-2.54a8.1 8.1 0 0 1 2.54-1.71A7.8 7.8 0 0 1 10 2q1.659 0 3.12.63t2.54 1.71a8.1 8.1 0 0 1 1.71 2.54q.633 1.461.63 3.12a7.8 7.8 0 0 1-.63 3.12 8 8 0 0 1-1.71 2.54 8.1 8.1 0 0 1-2.54 1.71A7.75 7.75 0 0 1 10 18"/></svg>