<svg xmlns="http://www.w3.org/2000/svg" width="20" height="20" fill="none" viewBox="0 0 20 20"><path stroke="currentColor" stroke-linecap="round" stroke-linejoin="round" stroke-width="1.5" d="M4.542 14.1a9 9 0 0 1-2.125-3.092 1.54 1.54 0 0 1 0-1.216 8.83 8.83 0 0 1 3.1-3.875A7.5 7.5 0 0 1 10 4.567a7.3 7.3 0 0 1 3.333.708m2.134 1.433a9 9 0 0 1 2.116 3.084 1.54 1.54 0 0 1 0 1.216 8.83 8.83 0 0 1-3.1 3.875A7.5 7.5 0 0 1 10 16.233a7.3 7.3 0 0 1-3.333-.708"/><path stroke="currentColor" stroke-linecap="round" stroke-linejoin="round" stroke-width="1.5" d="M7.258 11.375a2.8 2.8 0 0 1-.175-.975A2.917 2.917 0 0 1 10 7.483c.333-.001.663.059.975.175m1.767 1.767c.116.312.176.642.175.975A2.917 2.917 0 0 1 10 13.317a2.8 2.8 0 0 1-.975-.175M2.5 16.667 15.833 3.333"/></svg>