<svg width="20" height="20" viewBox="0 0 20 20" fill="none" xmlns="http://www.w3.org/2000/svg">
<path d="M1.71602 10.278C1.64935 10.0984 1.64935 9.90083 1.71602 9.72123C2.36534 8.14679 3.46754 6.80061 4.88287 5.85334C6.29821 4.90608 7.96294 4.40039 9.66602 4.40039C11.3691 4.40039 13.0338 4.90608 14.4492 5.85334C15.8645 6.80061 16.9667 8.14679 17.616 9.72123C17.6827 9.90083 17.6827 10.0984 17.616 10.278C16.9667 11.8524 15.8645 13.1986 14.4492 14.1459C13.0338 15.0932 11.3691 15.5988 9.66602 15.5988C7.96294 15.5988 6.29821 15.0932 4.88287 14.1459C3.46754 13.1986 2.36534 11.8524 1.71602 10.278Z" stroke="currentColor" stroke-width="1.5" stroke-linecap="round" stroke-linejoin="round"/>
<path d="M9.66602 12.3995C10.9914 12.3995 12.0659 11.325 12.0659 9.99961C12.0659 8.6742 10.9914 7.59974 9.66602 7.59974C8.3406 7.59974 7.26614 8.6742 7.26614 9.99961C7.26614 11.325 8.3406 12.3995 9.66602 12.3995Z" stroke="currentColor" stroke-width="1.5" stroke-linecap="round" stroke-linejoin="round"/>
</svg>
