<svg xmlns="http://www.w3.org/2000/svg" aria-hidden="true" viewBox="0 0 32 32"><path fill="currentColor" d="M16 18.667a2.65 2.65 0 0 0 1.878-.781 2.673 2.673 0 0 0 0-3.772 2.65 2.65 0 0 0-3.755 0 2.673 2.673 0 0 0 0 3.772 2.65 2.65 0 0 0 1.878.78"/><path fill="currentColor" fill-rule="evenodd" d="M3.334 16c1.691-5.41 6.722-9.333 12.667-9.333S26.976 10.59 28.667 16c-1.69 5.41-6.722 9.333-12.666 9.333-5.945 0-10.976-3.924-12.667-9.333m17.977 0c0 1.415-.56 2.771-1.556 3.771a5.3 5.3 0 0 1-3.754 1.562 5.3 5.3 0 0 1-3.755-1.562A5.35 5.35 0 0 1 10.691 16c0-1.415.56-2.771 1.555-3.771a5.3 5.3 0 0 1 3.755-1.562c1.408 0 2.758.562 3.754 1.562A5.35 5.35 0 0 1 21.311 16" clip-rule="evenodd"/></svg>