<svg xmlns="http://www.w3.org/2000/svg" width="21" height="21" fill="none" viewBox="0 0 21 21"><path fill="currentColor" d="M19.007 2.166S12.64 1.858 7.622 8.733c-3.85 5.275-5.283 10.1-5.283 10.1L3.957 18c1.2-2.084 1.825-2.942 3-4.167 2.108.617 4.308.541 6.216-1.667-1.666-.466-3-.358-4.966-.158 2.208-1.508 3.716-1.842 5.8-1.508l.833-1.667c-1.5-.284-2.5-.309-3.983.033 1.641-1.158 2.783-1.808 4.816-1.7l1.008-1.608c-1.3-.092-2.083.05-3.575.416 1.342-1.216 2.567-1.766 4.35-1.875 0 0 .875-1.575 1.55-1.933"/></svg>