<svg xmlns="http://www.w3.org/2000/svg" width="20" height="20" fill="none" viewBox="0 0 20 20"><path stroke="currentColor" stroke-width="1.3" d="M11.604 3.6H8.396c-3.024 0-4.536 0-5.476.938-.648.645-.849 1.56-.912 3.053-.012.296-.018.445.037.543.056.099.276.223.718.47a1.6 1.6 0 0 1 0 2.793c-.442.247-.663.37-.718.469s-.049.246-.036.542c.062 1.494.264 2.41.911 3.054.94.938 2.451.938 5.476.938h3.208c3.024 0 4.536 0 5.476-.938.648-.644.849-1.56.912-3.053.012-.296.018-.445-.037-.543-.056-.099-.276-.222-.718-.47a1.6 1.6 0 0 1 0-2.793c.442-.246.663-.37.718-.469s.049-.246.036-.543c-.062-1.493-.264-2.408-.911-3.053-.94-.938-2.451-.938-5.476-.938Z"/><path stroke="currentColor" stroke-linecap="round" stroke-width="1.3" d="m7.6 12.4 4.8-4.8"/><path fill="currentColor" d="M12.8 12a.8.8 0 1 1-1.6 0 .8.8 0 0 1 1.6 0m-4-4a.8.8 0 1 1-1.6 0 .8.8 0 0 1 1.6 0"/></svg>