<svg xmlns="http://www.w3.org/2000/svg" width="20" height="20" fill="none" viewBox="0 0 20 20"><path stroke="currentColor" stroke-linecap="round" stroke-linejoin="round" stroke-width="1.2" d="M3.6 10v2.036c0 2.596 0 3.894.71 4.773q.215.267.482.482c.88.71 2.177.71 4.773.71.564 0 .847 0 1.105-.092q.08-.027.158-.065c.248-.118.447-.318.846-.717l3.789-3.79c.463-.462.693-.693.816-.987.121-.294.121-.621.121-1.275V8.4c0-3.016 0-4.524-.937-5.462-.847-.848-2.161-.928-4.634-.936M10.8 17.6v-.4c0-2.262 0-3.393.704-4.096.702-.704 1.834-.704 4.096-.704h.4"/><path stroke="currentColor" stroke-linecap="round" stroke-linejoin="round" stroke-width="1.2" d="M3.6 6.984V4.769C3.6 3.24 4.855 2 6.4 2c1.547 0 2.8 1.24 2.8 2.768v3.048A1.39 1.39 0 0 1 7.8 9.2a1.39 1.39 0 0 1-1.4-1.384V4.768"/></svg>