<svg xmlns="http://www.w3.org/2000/svg" aria-hidden="true" viewBox="0 0 48 48"><path fill="currentColor" d="M38.621 14.403a.59.59 0 0 1 .598.597v24.011a2.88 2.88 0 0 1-.879 2.11 2.94 2.94 0 0 1-2.16.878H11.024a2.93 2.93 0 0 1-2.16-.878A2.88 2.88 0 0 1 8 39.01V8.988a2.88 2.88 0 0 1 .879-2.11A2.93 2.93 0 0 1 11.024 6H30.22a.46.46 0 0 1 .209.05l.216.123 5.976 6.012a.6.6 0 1 1-.85.85l-5.76-5.84H11.024a1.76 1.76 0 0 0-1.303.526 1.73 1.73 0 0 0-.525 1.267v30.023a1.73 1.73 0 0 0 .525 1.267 1.76 1.76 0 0 0 1.303.526h25.2a1.79 1.79 0 0 0 1.792-1.793V15.598H32.61a2.88 2.88 0 0 1-2.11-.879 2.88 2.88 0 0 1-.9-2.11V9.6a.598.598 0 0 1 1.196 0v3.024a1.793 1.793 0 0 0 1.793 1.793l6.033-.014Z"/></svg>