<svg xmlns="http://www.w3.org/2000/svg" width="20" height="20" fill="none" viewBox="0 0 20 20"><path fill="currentColor" d="M10.693 18.168c2.605-.522 5.974-2.396 5.974-7.242 0-4.41-3.228-7.346-5.549-8.695-.516-.3-1.118.094-1.118.69v1.523c0 1.202-.505 3.395-1.908 4.308-.717.465-1.492-.232-1.579-1.082l-.071-.698c-.084-.812-.91-1.305-1.559-.81C3.717 7.05 2.5 8.608 2.5 10.925c0 5.926 4.408 7.408 6.61 7.408q.194 0 .404-.012c.372-.047 0 .082 1.18-.154" opacity=".5"/><path fill="currentColor" d="M6.667 15.37c0 2.184 1.76 2.859 2.847 2.952.372-.047 0 .082 1.18-.154.865-.306 1.806-1.091 1.806-2.798 0-1.08-.682-1.748-1.216-2.06-.164-.097-.354.024-.368.213-.046.598-.622 1.075-1.012.62-.346-.402-.492-.99-.492-1.365v-.492c0-.295-.298-.492-.553-.34-.946.56-2.192 1.716-2.192 3.424"/></svg>