<svg xmlns="http://www.w3.org/2000/svg" width="20" height="20" fill="none" viewBox="0 0 20 20"><path fill="#fd9c03" d="M10.693 18.168c2.605-.522 5.974-2.396 5.974-7.242 0-4.41-3.228-7.346-5.549-8.695-.516-.3-1.118.094-1.118.69v1.523c0 1.202-.505 3.395-1.908 4.308-.717.466-1.492-.232-1.579-1.082l-.071-.698c-.084-.812-.91-1.304-1.559-.81C3.717 7.05 2.5 8.609 2.5 10.926c0 5.926 4.408 7.409 6.61 7.409q.194 0 .404-.013c.372-.047 0 .082 1.18-.154"/><path fill="#ffdb01" d="M6.667 15.37c0 2.184 1.759 2.859 2.847 2.952.372-.047 0 .082 1.18-.154.865-.306 1.806-1.091 1.806-2.798 0-1.08-.682-1.748-1.217-2.06-.163-.096-.353.024-.367.213-.047.598-.622 1.075-1.013.62-.345-.402-.491-.99-.491-1.365v-.492c0-.295-.298-.492-.553-.34-.946.561-2.192 1.716-2.192 3.424"/></svg>