<svg xmlns="http://www.w3.org/2000/svg" viewBox="0 0 48 48" role="presentation" aria-hidden="true"><path fill-rule="evenodd" clip-rule="evenodd" d="m37.11 13.086.479.478c.221.22.342.514.342.825V40.47A1.53 1.53 0 0 1 36.402 42H11.53A1.53 1.53 0 0 1 10 40.471V7.53A1.53 1.53 0 0 1 11.529 6h18.013c.311 0 .604.121.825.342l.479.479 6.265 6.265Zm-6.627.362h5.235l-5.235-5.235v5.235Zm5.92 27.31c.158 0 .287-.129.287-.287v-9.023H11.24v9.023c0 .159.13.288.288.288h24.873ZM11.24 7.529v22.679H36.69V14.654a.97.97 0 0 1-.244.036h-7.205V7.485c0-.085.016-.165.036-.244H11.53a.288.288 0 0 0-.288.288ZM19.904 36.7h-2.613v2.817h-1.036v-6.254h3.913v.772H17.29v1.97h2.613v.695Zm5.261 2.045h-2.877v-5.482h-1.035v6.254h3.912v-.772Zm4.659-.526h-2.35l-.459 1.298h-1.06l2.189-6.246h1.01l2.172 6.246h-1.052l-.45-1.298Zm-.246-.687-.925-2.7-.942 2.7h1.867Zm-1.277-22.266-.438-.439a6.836 6.836 0 0 0-9.657 0 6.836 6.836 0 0 0 0 9.656 6.806 6.806 0 0 0 4.828 1.997 6.804 6.804 0 0 0 4.828-1.997l.439-.439-4.388-4.389 4.388-4.389Zm-1.78 8.754a5.593 5.593 0 0 1-7.436-.415 5.594 5.594 0 0 1 0-7.9 5.569 5.569 0 0 1 3.95-1.634c1.236 0 2.47.406 3.487 1.219l-4.365 4.365 4.365 4.365Zm-2.866-7.468a1.241 1.241 0 1 1-2.483 0 1.241 1.241 0 0 1 2.483 0Zm4.966 2.483H26.76a.62.62 0 1 0 0 1.241h1.862a.62.62 0 1 0 0-1.241Zm2.483 0h1.241a.62.62 0 1 1 0 1.241h-1.241a.62.62 0 1 1 0-1.241Z" fill="currentColor"/></svg>