<svg xmlns="http://www.w3.org/2000/svg" viewBox="0 0 26 19" role="presentation" aria-hidden="true"><path d="M5.91 18.91c-.986 0-1.823-.346-2.512-1.035-.69-.69-1.034-1.526-1.034-2.511-.65 0-1.207-.232-1.67-.694A2.277 2.277 0 0 1 0 13V2.364c0-.65.232-1.207.695-1.67A2.273 2.273 0 0 1 2.364 0h14.181c.65 0 1.207.232 1.67.695.463.462.694 1.019.694 1.669v2.363h2.955c.197 0 .374.04.531.118.158.08.296.197.414.355l2.955 3.93c.078.098.137.206.177.325.04.118.059.246.059.384v4.343c0 .335-.113.615-.34.841a1.14 1.14 0 0 1-.842.34h-1.182c0 .986-.344 1.823-1.034 2.512-.69.69-1.526 1.034-2.511 1.034-.985 0-1.822-.345-2.512-1.034-.689-.69-1.034-1.526-1.034-2.511h-7.09c0 .985-.345 1.822-1.035 2.511-.689.69-1.526 1.034-2.51 1.034Zm0-2.364c.334 0 .615-.114.842-.34.226-.227.339-.508.339-.842 0-.335-.113-.616-.34-.842a1.145 1.145 0 0 0-.842-.34c-.335 0-.616.113-.843.34-.226.226-.339.507-.339.842 0 .334.113.615.34.841.226.227.507.34.842.34Zm14.18 0c.336 0 .616-.114.842-.34a1.14 1.14 0 0 0 .34-.842 1.14 1.14 0 0 0-.34-.842 1.14 1.14 0 0 0-.841-.34 1.14 1.14 0 0 0-.841.34 1.14 1.14 0 0 0-.34.842c0 .334.113.615.34.841.226.227.506.34.84.34Zm-1.18-5.91h5.022l-2.66-3.545H18.91v3.545Z" fill="#36F"/></svg>