<svg xmlns="http://www.w3.org/2000/svg" aria-hidden="true" viewBox="0 0 26 19"><path fill="#36f" d="M5.91 18.91q-1.479 0-2.512-1.035-1.034-1.034-1.034-2.511a2.28 2.28 0 0 1-1.67-.694A2.28 2.28 0 0 1 0 13V2.364q0-.975.695-1.67A2.27 2.27 0 0 1 2.364 0h14.181q.975 0 1.67.695.694.694.694 1.669v2.363h2.955q.295 0 .531.118.237.119.414.355l2.955 3.93q.117.147.177.325.06.177.059.384v4.343q0 .502-.34.841a1.14 1.14 0 0 1-.842.34h-1.182q0 1.479-1.034 2.512-1.034 1.035-2.511 1.034t-2.512-1.034q-1.034-1.034-1.034-2.511h-7.09q0 1.477-1.035 2.511t-2.51 1.034Zm0-2.364q.501 0 .842-.34.339-.34.339-.842a1.14 1.14 0 0 0-.34-.842 1.15 1.15 0 0 0-.842-.34q-.502 0-.843.34a1.14 1.14 0 0 0-.339.842q0 .502.34.841.34.34.842.34Zm14.18 0q.503 0 .842-.34a1.14 1.14 0 0 0 .34-.842 1.14 1.14 0 0 0-.34-.842 1.14 1.14 0 0 0-.841-.34 1.14 1.14 0 0 0-.841.34 1.14 1.14 0 0 0-.34.842q0 .502.34.841.339.34.84.34Zm-1.18-5.91h5.022l-2.66-3.545H18.91z"/></svg>