<svg xmlns="http://www.w3.org/2000/svg" width="24" height="25" fill="none" viewBox="0 0 24 25"><path stroke="currentColor" stroke-linecap="round" stroke-linejoin="round" stroke-width="1.2" d="M5.685 11.594v6.316a1.58 1.58 0 0 0 1.579 1.578h9.473a1.58 1.58 0 0 0 1.58-1.578v-6.316"/><path stroke="currentColor" stroke-linejoin="round" stroke-width="1.2" d="M12 7.251a2.763 2.763 0 0 0-2.764-2.763 1.974 1.974 0 0 0 0 3.948H12m0-1.185v1.185m0-1.185a2.764 2.764 0 0 1 2.764-2.763 1.974 1.974 0 0 1 0 3.948H12"/><path stroke="currentColor" stroke-linecap="round" stroke-linejoin="round" stroke-width="1.2" d="M12 11.593v7.895M4.895 8.436h14.21v3.157H4.895z"/></svg>