<svg xmlns="http://www.w3.org/2000/svg" viewBox="0 0 22 16" role="presentation" aria-hidden="true"><path d="M3.5.5h3v3.127A2.25 2.25 0 0 0 3.627 6.5H.5v-3a3 3 0 0 1 3-3ZM8 9.06l1.719 1.721a.751.751 0 0 0 1.062-1.062L9.061 8H21.5v4.5a3 3 0 0 1-3 3H8V9.06ZM5.44 8 3.718 9.719a.75.75 0 1 0 1.062 1.062L6.5 9.061V15.5h-3a3 3 0 0 1-3-3V8h4.94Zm5.433-1.5A2.25 2.25 0 0 0 8 3.627V.5h10.5a3 3 0 0 1 3 3v3H10.873ZM8 5.75v.75h.75A.75.75 0 1 0 8 5.75Zm-1.5 0v.75h-.75a.75.75 0 1 1 .75-.75Z" fill="#F2B300"/></svg>