<svg width="20" height="20" viewBox="0 0 20 20" fill="none" xmlns="http://www.w3.org/2000/svg"><g clip-path="url(#a)"><path fill-rule="evenodd" clip-rule="evenodd" d="M10.008 0C4.474 0 0 4.507 0 10.083c0 4.457 2.867 8.23 6.843 9.565.498.1.68-.217.68-.484 0-.234-.017-1.035-.017-1.87-2.784.601-3.364-1.202-3.364-1.202-.447-1.168-1.11-1.469-1.11-1.469-.911-.617.067-.617.067-.617 1.01.066 1.54 1.034 1.54 1.034.895 1.536 2.337 1.102 2.917.835.083-.651.348-1.102.63-1.352-2.22-.234-4.557-1.102-4.557-4.975 0-1.101.397-2.003 1.027-2.704-.1-.25-.447-1.285.1-2.67 0 0 .845-.268 2.75 1.034a9.622 9.622 0 0 1 2.502-.334c.845 0 1.707.117 2.502.334 1.906-1.302 2.75-1.035 2.75-1.035.548 1.386.2 2.42.1 2.671.647.701 1.028 1.603 1.028 2.704 0 3.873-2.337 4.725-4.574 4.975.365.317.68.918.68 1.87 0 1.352-.017 2.437-.017 2.77 0 .268.183.585.68.485A10.075 10.075 0 0 0 20 10.083C20.016 4.507 15.526 0 10.008 0Z" fill="#24292F"/></g><defs><clipPath id="a"><path fill="#fff" d="M0 0h20v20H0z"/></clipPath></defs></svg>