<svg xmlns="http://www.w3.org/2000/svg" width="40" height="40" fill="none" viewBox="0 0 40 40"><g clip-path="url(#a)"><path fill="#fff" d="M30.526 9.474 21.053 8.42 9.473 9.474 8.422 20l1.053 10.526L20 31.842l10.526-1.316 1.053-10.79z"/><path fill="#1a73e8" d="M13.792 25.806q-1.182-.796-1.629-2.335l1.826-.752q.25.946.869 1.468.616.52 1.495.519.895 0 1.54-.545a1.74 1.74 0 0 0 .644-1.387 1.72 1.72 0 0 0-.68-1.405q-.679-.545-1.7-.545h-1.054v-1.808h.947q.876 0 1.476-.473.6-.474.6-1.298 0-.734-.537-1.17-.535-.44-1.36-.44-.805 0-1.28.429-.472.431-.688 1.055l-1.808-.753q.358-1.02 1.323-1.797.968-.778 2.469-.779 1.11 0 1.994.429.886.43 1.387 1.19.5.76.5 1.707 0 .967-.466 1.637-.465.67-1.144 1.029v.108q.894.375 1.468 1.145.574.769.574 1.842 0 1.074-.545 1.916a3.8 3.8 0 0 1-1.503 1.323q-.96.483-2.155.484a4.46 4.46 0 0 1-2.563-.794M25 16.742l-1.994 1.45-1.003-1.521 3.597-2.595h1.38v12.24H25z"/><path fill="#ea4335" d="M30.526 40 40 30.526l-4.737-2.105-4.737 2.105-2.105 4.737z"/><path fill="#34a853" d="M7.368 35.263 9.473 40h21.053v-9.474H9.473z"/><path fill="#4285f4" d="M3.158 0A3.157 3.157 0 0 0 0 3.158v27.368l4.737 2.105 4.737-2.105V9.474h21.052l2.105-4.737L30.526 0z"/><path fill="#188038" d="M0 30.526v6.316A3.157 3.157 0 0 0 3.158 40h6.316v-9.474z"/><path fill="#fbbc04" d="M30.526 9.473v21.053H40V9.473l-4.737-2.105z"/><path fill="#1967d2" d="M40 9.474V3.158A3.157 3.157 0 0 0 36.842 0h-6.316v9.474z"/></g><defs><clipPath id="a"><path fill="#fff" d="M0 0h40v40H0z"/></clipPath></defs></svg>