<svg xmlns="http://www.w3.org/2000/svg" viewBox="0 0 24 24" role="presentation" aria-hidden="true"><path d="m13.26 12.01 1.851 2.114 2.503 1.603.44-3.7-.44-3.613-2.538 1.41-1.815 2.185Z" fill="#00832D"/><path d="M2.476 15.375v3.154c0 .723.581 1.304 1.304 1.304h3.154l.652-2.379-.634-2.08-2.168-.651-2.308.652Z" fill="#0066DA"/><path d="M6.952 4.167 2.476 8.626l2.29.652 2.168-.652.635-2.045-.617-2.414Z" fill="#E94235"/><path d="M6.952 8.626H2.476v6.75h4.458v-6.75h.018Z" fill="#2684FC"/><path d="m20.451 6.053-2.855 2.344v7.33l2.855 2.345a.654.654 0 0 0 1.058-.512V6.564c.017-.547-.617-.864-1.058-.511Zm-7.19 5.956v3.366H6.952v4.459h9.358c.722 0 1.304-.582 1.304-1.304v-2.802l-4.353-3.719Z" fill="#00AC47"/><path d="M16.31 4.167H6.952v4.459h6.31v3.366l4.352-3.613V5.47c0-.722-.582-1.304-1.304-1.304Z" fill="#FFBA00"/></svg>