<svg xmlns="http://www.w3.org/2000/svg" aria-hidden="true" viewBox="0 0 24 24"><path fill="#00832d" d="m13.26 12.01 1.851 2.114 2.503 1.603.44-3.7-.44-3.613-2.538 1.41-1.815 2.185Z"/><path fill="#0066da" d="M2.476 15.375v3.154a1.3 1.3 0 0 0 1.304 1.304h3.154l.652-2.379-.634-2.08-2.168-.651z"/><path fill="#e94235" d="M6.952 4.167 2.476 8.626l2.29.652 2.168-.652.635-2.045z"/><path fill="#2684fc" d="M6.952 8.626H2.476v6.75h4.458v-6.75z"/><path fill="#00ac47" d="m20.451 6.053-2.855 2.344v7.33l2.855 2.345a.654.654 0 0 0 1.058-.512V6.564c.017-.547-.617-.864-1.058-.511m-7.19 5.956v3.366H6.952v4.459h9.358c.722 0 1.304-.582 1.304-1.304v-2.802z"/><path fill="#ffba00" d="M16.31 4.167H6.952v4.459h6.31v3.366l4.352-3.613V5.47c0-.722-.582-1.304-1.304-1.304Z"/></svg>