<svg xmlns="http://www.w3.org/2000/svg" width="20" height="20" fill="none" viewBox="0 0 20 20"><path stroke="currentColor" stroke-linecap="round" stroke-linejoin="round" stroke-width="1.3" d="M16.667 18.333H5c-.92 0-1.667-.746-1.667-1.666m0 0C3.333 15.747 4.08 15 5 15h11.667V5c0-1.571 0-2.357-.489-2.845-.488-.488-1.273-.488-2.845-.488h-5c-2.357 0-3.535 0-4.267.732s-.733 1.91-.733 4.268z"/><path stroke="currentColor" stroke-width="1.3" d="M9.34 6.332c.409-.734.613-1.1.92-1.1.305 0 .51.366.919 1.1l.106.19c.116.209.174.313.265.382.09.069.203.094.43.145l.205.047c.795.18 1.192.27 1.286.574s-.176.62-.718 1.254l-.14.164c-.154.18-.231.27-.266.38-.034.112-.022.232 0 .472l.022.22c.082.845.123 1.267-.125 1.455-.247.188-.62.016-1.363-.326l-.193-.089c-.211-.097-.317-.146-.429-.146s-.218.049-.429.146l-.192.089c-.744.342-1.116.514-1.364.326-.247-.188-.206-.61-.125-1.456l.022-.218c.023-.24.035-.36 0-.472-.034-.111-.112-.201-.265-.381l-.14-.164c-.542-.633-.813-.95-.719-1.254.095-.304.492-.394 1.287-.574l.205-.047c.226-.05.339-.076.43-.145s.148-.173.265-.382z"/><path stroke="currentColor" stroke-linecap="round" stroke-linejoin="round" stroke-width="1.3" d="M16.25 15s-.833.636-.833 1.667c0 1.03.833 1.666.833 1.666"/></svg>