<svg xmlns="http://www.w3.org/2000/svg" viewBox="0 0 24 24" role="presentation" aria-hidden="true"><mask id="a" style="mask-type:luminance" maskUnits="userSpaceOnUse" x="3" y="3" width="18" height="18"><path d="M20.249 3H3.752v18h16.497V3Z" fill="#fff"/></mask><g mask="url(#a)"><path d="M14.242 12.883c-1.24.09-2.163.677-2.867 1.628-.174.234-.302.498-.465.742-.171.258-.623.348-.91.194-.298-.16-.48-.61-.343-.887.678-1.377 1.714-2.386 3.17-2.883.568-.194 1.203-.218 1.812-.27 1.31-.113 2.533-.443 3.547-1.319.284-.246.525-.548.762-.846a.672.672 0 0 1 .802-.226.939.939 0 0 1 .48.488c.06.153-.029.413-.135.57A5.603 5.603 0 0 1 17.4 12.24c-.348.133-.709.232-1.056.365-.07.027-.14.131-.156.21-.027.124-.01.258-.012.389-.027 1.205-.031 2.41-.085 3.616-.052 1.146-.637 2.04-1.488 2.763-.711.602-1.542.964-2.456 1.19a7.578 7.578 0 0 1-2.659.184c-2.208-.241-3.887-1.32-4.923-3.322-.413-.797-.693-1.64-.718-2.535-.052-1.924-.136-3.85-.072-5.768.047-1.458.503-2.846 1.44-4.004.752-.928 1.684-1.623 2.858-1.982.954-.29 1.925-.409 2.907-.314 1.47.142 2.838.578 3.919 1.655a4.14 4.14 0 0 1 1.208 2.36c.07.443.08.818-.265 1.136-.476.44-1.27.23-1.444-.395-.1-.359-.129-.736-.228-1.092-.244-.88-.89-1.404-1.68-1.757-.941-.417-1.96-.494-2.95-.343-1.63.25-2.801 1.152-3.434 2.718a6.61 6.61 0 0 0-.47 2.573c.014 1.648-.04 3.298.03 4.942.057 1.323.52 2.523 1.522 3.456.584.544 1.248.948 2.056 1.034.6.063 1.212.144 1.806.09 1.045-.097 2.016-.436 2.707-1.3.316-.398.528-.85.532-1.37.007-1.2.005-2.398 0-3.596 0-.093-.031-.183-.045-.26h-.002Z" fill="#000"/></g></svg>