<svg xmlns="http://www.w3.org/2000/svg" width="20" height="20" fill="none" viewBox="0 0 20 20"><g clip-path="url(#a)"><path fill="#94969c" d="M16.875 10.938v2.812c0 2-.663 3.348-.691 3.405a.626.626 0 0 1-1.117-.56c.004-.01.559-1.157.559-2.845v-2.812a.938.938 0 0 0-1.875 0v.312a.625.625 0 0 1-1.25 0V9.688a.938.938 0 0 0-1.875 0v.937a.625.625 0 0 1-1.25 0V5.313a.937.937 0 1 0-1.875 0v8.437a.625.625 0 0 1-1.155.33l-1.46-2.343-.01-.018a.938.938 0 1 0-1.626.937l2.288 3.906a.625.625 0 1 1-1.078.625l-2.291-3.906a2.188 2.188 0 0 1 3.782-2.2l.3.482v-6.25a2.187 2.187 0 1 1 4.374 0V7.71a2.188 2.188 0 0 1 3.02 1.304 2.188 2.188 0 0 1 3.23 1.922m2.942-7.005-2.5-2.5a.625.625 0 0 0-.883.884l1.432 1.433H13.75a.625.625 0 0 0 0 1.25h4.117l-1.434 1.433a.626.626 0 0 0 .884.884l2.5-2.5a.624.624 0 0 0 0-.884"/></g><defs><clipPath id="a"><path fill="#fff" d="M0 0h20v20H0z"/></clipPath></defs></svg>