<svg width="20" height="20" viewBox="0 0 20 20" fill="none" xmlns="http://www.w3.org/2000/svg">
<path d="M10 18C7.87827 18 5.84344 17.1571 4.34315 15.6569C2.84285 14.1566 2 12.1217 2 10C2 7.87827 2.84285 5.84344 4.34315 4.34315C5.84344 2.84285 7.87827 2 10 2C12.1217 2 14.1566 2.84285 15.6569 4.34315C17.1571 5.84344 18 7.87827 18 10C18 12.1217 17.1571 14.1566 15.6569 15.6569C14.1566 17.1571 12.1217 18 10 18ZM7.2 9.2C7.51826 9.2 7.82348 9.07357 8.04853 8.84853C8.27357 8.62348 8.4 8.31826 8.4 8C8.4 7.68174 8.27357 7.37652 8.04853 7.15147C7.82348 6.92643 7.51826 6.8 7.2 6.8C6.88174 6.8 6.57652 6.92643 6.35147 7.15147C6.12643 7.37652 6 7.68174 6 8C6 8.31826 6.12643 8.62348 6.35147 8.84853C6.57652 9.07357 6.88174 9.2 7.2 9.2ZM12.8 9.2C13.1183 9.2 13.4235 9.07357 13.6485 8.84853C13.8736 8.62348 14 8.31826 14 8C14 7.68174 13.8736 7.37652 13.6485 7.15147C13.4235 6.92643 13.1183 6.8 12.8 6.8C12.4817 6.8 12.1765 6.92643 11.9515 7.15147C11.7264 7.37652 11.6 7.68174 11.6 8C11.6 8.31826 11.7264 8.62348 11.9515 8.84853C12.1765 9.07357 12.4817 9.2 12.8 9.2ZM14.528 11.6H5.472C5.80182 12.5376 6.41456 13.3497 7.22563 13.9241C8.0367 14.4986 9.00609 14.8071 10 14.8071C10.9939 14.8071 11.9633 14.4986 12.7744 13.9241C13.5854 13.3497 14.1982 12.5376 14.528 11.6Z" fill="currentColor"/>
</svg>
