<svg width="20" height="20" viewBox="0 0 20 20" fill="none" xmlns="http://www.w3.org/2000/svg">
<path d="M2 7.60627C2.00002 6.71603 2.27007 5.84674 2.7745 5.11321C3.27893 4.37967 3.99401 3.81641 4.82528 3.4978C5.65655 3.17919 6.56491 3.12024 7.43039 3.32872C8.29587 3.5372 9.07776 4.0033 9.67278 4.66548C9.71469 4.71029 9.76535 4.74601 9.82164 4.77044C9.87792 4.79486 9.93862 4.80746 9.99998 4.80746C10.0613 4.80746 10.122 4.79486 10.1783 4.77044C10.2346 4.74601 10.2853 4.71029 10.3272 4.66548C10.9203 3.999 11.7024 3.52898 12.5693 3.31796C13.4362 3.10695 14.3468 3.16496 15.1799 3.48427C16.013 3.80358 16.7291 4.36904 17.2328 5.1054C17.7366 5.84175 18.0042 6.71408 18 7.60627C18 9.43826 16.8 10.8063 15.6 12.0063L11.2064 16.2566C11.0573 16.4278 10.8735 16.5654 10.6672 16.6601C10.4609 16.7548 10.2368 16.8045 10.0098 16.806C9.7828 16.8074 9.55809 16.7605 9.35061 16.6684C9.14312 16.5763 8.9576 16.4411 8.80638 16.2718L4.39999 12.0063C3.2 10.8063 2 9.44626 2 7.60627Z" stroke="currentColor" stroke-width="1.5" stroke-linecap="round" stroke-linejoin="round"/>
</svg>
