<svg xmlns="http://www.w3.org/2000/svg" aria-hidden="true" viewBox="0 0 48 48"><path fill="currentColor" fill-rule="evenodd" d="m37.589 13.564-.845-.844-5.899-5.9-.479-.48a1.16 1.16 0 0 0-.824-.34H11.53C10.792 6 10 6.569 10 7.816V40.76c0 .52.522 1.025 1.14 1.184l.034.01.06.017q.145.03.295.03h24.873q.15 0 .295-.03a.5.5 0 0 0 .094-.026c.618-.16 1.14-.666 1.14-1.185V14.676c0-.476-.058-.828-.342-1.112m-7.106-5.351 5.235 5.235h-5.235zM11.408 40.729h-.002a.28.28 0 0 1-.165-.258v-9.023H36.69v9.023a.28.28 0 0 1-.165.257l-.002.001a.3.3 0 0 1-.12.03H11.528a.3.3 0 0 1-.12-.03m-.167-10.522V7.817c0-.136.02-.576.288-.576h17.748a1 1 0 0 0-.036.243v7.206h7.205a1 1 0 0 0 .243-.036v15.552H11.242Zm5.161 5.797h-2.707v-2.74H12.66v6.253h1.035V36.7h2.707v2.817h1.019v-6.254h-1.019zm4.115-2.045h-1.866v-.696h4.76v.696h-1.867v5.558h-1.027zm7.002 3.58-1.86-4.276h-1.034v6.254h1.035v-4.302l1.409 3.48h.899l1.4-3.48v4.302h1.036v-6.254h-1.036zm4.455-4.276h1.036v5.482h2.877v.772h-3.913zm-10.983-16.53a.62.62 0 0 0-.878 0l-3.724 3.725a.62.62 0 0 0 0 .878l3.724 3.724a.62.62 0 0 0 .878 0 .62.62 0 0 0 0-.878l-3.286-3.285 3.286-3.286a.62.62 0 0 0 0-.877Zm6.57 0a.62.62 0 0 1 .878 0l3.724 3.725a.62.62 0 0 1 0 .878l-3.724 3.724a.62.62 0 0 1-.878 0 .62.62 0 0 1 0-.878l3.285-3.285-3.285-3.286a.62.62 0 0 1 0-.877Z" clip-rule="evenodd"/></svg>