<svg xmlns="http://www.w3.org/2000/svg" viewBox="0 0 48 48" role="presentation" aria-hidden="true"><path fill-rule="evenodd" clip-rule="evenodd" d="m37.589 13.564-.845-.844-5.899-5.9-.479-.48c-.22-.219-.513-.34-.824-.34H11.53C10.792 6 10 6.569 10 7.816V40.76c0 .52.522 1.025 1.14 1.184l.034.01c.02.007.04.013.06.017.097.02.195.03.295.03h24.873c.1 0 .198-.01.295-.03a.544.544 0 0 0 .094-.026c.618-.16 1.14-.666 1.14-1.185V14.676c0-.476-.058-.828-.342-1.112Zm-7.106-5.351 5.235 5.235h-5.235V8.213ZM11.408 40.729h-.002a.285.285 0 0 1-.165-.258v-9.023H36.69v9.023a.285.285 0 0 1-.165.257l-.002.001a.335.335 0 0 1-.12.03H11.528a.336.336 0 0 1-.12-.03Zm-.167-10.522V7.817c0-.136.02-.576.288-.576h17.748a.955.955 0 0 0-.036.243v7.206h7.205a.96.96 0 0 0 .243-.036v15.552H11.242Zm5.161 5.797h-2.707v-2.74H12.66v6.253h1.035V36.7h2.707v2.817h1.019v-6.254h-1.019v2.741Zm4.115-2.045h-1.866v-.696h4.76v.696h-1.867v5.558h-1.027V33.96Zm7.002 3.58-1.86-4.276h-1.034v6.254h1.035v-4.302l1.409 3.48h.899l1.4-3.48v4.302h1.036v-6.254h-1.036l-1.85 4.277Zm4.455-4.276h1.036v5.482h2.877v.772h-3.913v-6.254Zm-10.983-16.53a.62.62 0 0 0-.878 0l-3.724 3.725a.62.62 0 0 0 0 .878l3.724 3.724a.619.619 0 0 0 .878 0 .62.62 0 0 0 0-.878l-3.286-3.285 3.286-3.286a.62.62 0 0 0 0-.877Zm6.57 0a.62.62 0 0 1 .878 0l3.724 3.725a.62.62 0 0 1 0 .878l-3.724 3.724a.619.619 0 0 1-.878 0 .62.62 0 0 1 0-.878l3.285-3.285-3.285-3.286a.62.62 0 0 1 0-.877Z" fill="currentColor"/></svg>