<svg xmlns="http://www.w3.org/2000/svg" aria-hidden="true" viewBox="0 0 48 48"><path fill="currentColor" d="M38.621 14.403a.59.59 0 0 1 .598.597v24.011a2.88 2.88 0 0 1-.879 2.11 2.94 2.94 0 0 1-2.16.878H11.024a2.93 2.93 0 0 1-2.16-.878A2.88 2.88 0 0 1 8 39.01V8.988a2.88 2.88 0 0 1 .879-2.11A2.93 2.93 0 0 1 11.024 6H30.22a.46.46 0 0 1 .209.05l.216.123 5.976 6.012a.6.6 0 1 1-.85.85l-5.76-5.84H11.024a1.76 1.76 0 0 0-1.303.526 1.73 1.73 0 0 0-.525 1.267v30.023a1.73 1.73 0 0 0 .525 1.267 1.76 1.76 0 0 0 1.303.526h25.2a1.77 1.77 0 0 0 1.296-.526 1.73 1.73 0 0 0 .525-1.267V15.598h-5.436a2.88 2.88 0 0 1-2.11-.879 2.88 2.88 0 0 1-.9-2.11V9.6a.598.598 0 0 1 1.196 0v3.024a1.793 1.793 0 0 0 1.793 1.793zM22.587 32.229l-2.563-2.57-5.17 5.14H32.61a.598.598 0 1 1 0 1.196H13.415a.7.7 0 0 1-.339-.087.48.48 0 0 1-.223-.266.6.6 0 0 1 0-.353.6.6 0 0 1 .173-.317l6.61-6.61a.61.61 0 0 1 .849 0l2.563 2.607 4.953-4.996a.655.655 0 0 1 .886 0l4.183 4.219a.6.6 0 0 1-.85.85l-3.758-3.802-4.99 4.996a.61.61 0 0 1-.849 0zm-8.013-7.92a.6.6 0 0 1-.072-.475.72.72 0 0 1 .28-.367l1.138-.626c0-.094-.05-.195-.072-.303a1.5 1.5 0 0 1 0-.662c0-.108.043-.209.072-.303l-1.137-.669a.54.54 0 0 1-.303-.353.54.54 0 0 1 .072-.453.52.52 0 0 1 .353-.281.5.5 0 0 1 .454.072l1.13.633q.207-.25.49-.41.282-.155.597-.223v-1.303a.598.598 0 0 1 1.195 0v1.303q.334.063.634.223c.186.106.352.245.49.41l1.13-.633a.47.47 0 0 1 .432-.072c.156.042.29.143.374.28.07.14.089.302.05.454a.48.48 0 0 1-.259.353l-1.13.67c0 .093.05.194.072.302a1.5 1.5 0 0 1 0 .662c0 .108-.05.21-.072.303l1.13.633c.13.085.224.216.26.367a.72.72 0 0 1-.05.476.5.5 0 0 1-.21.208.7.7 0 0 1-.316.072h-.144a.5.5 0 0 1-.137-.057l-1.13-.634q-.219.223-.49.375a3.6 3.6 0 0 1-.634.259v1.267a.598.598 0 0 1-1.195 0v-1.282a4 4 0 0 1-.597-.259 2.2 2.2 0 0 1-.49-.374l-1.13.633a.6.6 0 0 1-.137.058h-.144a.66.66 0 0 1-.317-.072.45.45 0 0 1-.187-.194zm2.786-2.944a1.195 1.195 0 0 0 .843 2.037 1.18 1.18 0 0 0 .878-.353 1.18 1.18 0 0 0 0-1.684 1.18 1.18 0 0 0-.878-.353 1.12 1.12 0 0 0-.843.353"/></svg>