<svg xmlns="http://www.w3.org/2000/svg" viewBox="0 0 24 24" role="presentation" aria-hidden="true"><path fill-rule="evenodd" clip-rule="evenodd" d="M3.5 7.032C3.5 5.082 5.066 3.5 6.999 3.5h9.609c1.932 0 3.498 1.581 3.498 3.532v7.56a.646.646 0 0 1-.642.648.646.646 0 0 1-.643-.649v-7.56c0-1.233-.99-2.234-2.213-2.234h-9.61c-1.222 0-2.213 1-2.213 2.235v9.7c0 1.235.991 2.235 2.214 2.235h7.494c.355 0 .643.29.643.649a.646.646 0 0 1-.643.649H7c-1.933 0-3.499-1.582-3.499-3.532V7.032ZM16.428 19.4c0-.359.287-.649.642-.649h4.788c.355 0 .642.29.642.649a.646.646 0 0 1-.642.648H17.07a.646.646 0 0 1-.642-.648Z" fill="currentColor"/><path fill-rule="evenodd" clip-rule="evenodd" d="M19.562 16.339c.355 0 .643.29.643.649v4.863a.646.646 0 0 1-.643.649.646.646 0 0 1-.643-.65v-4.862c0-.359.288-.65.643-.65Z" fill="currentColor"/><path d="M6.773 12.869a.483.483 0 0 0-.133.334v3.245c0 .398.32.72.714.72h9.043a.717.717 0 0 0 .714-.72v-3.243a.483.483 0 0 0-.136-.337l-2.628-2.7a.682.682 0 0 0-.969-.01l-3.347 3.303a.227.227 0 0 1-.321-.002l-1.282-1.303a.682.682 0 0 0-.98.008l-.675.705ZM11.265 8.084c0 .854-.686 1.546-1.531 1.546a1.539 1.539 0 0 1-1.531-1.546c0-.854.685-1.546 1.53-1.546.846 0 1.532.692 1.532 1.546Z" fill="currentColor"/></svg>