<svg xmlns="http://www.w3.org/2000/svg" aria-hidden="true" viewBox="0 0 48 48"><path fill="currentColor" fill-rule="evenodd" d="M9 15.273A3.27 3.27 0 0 1 12.273 12h24a3.273 3.273 0 0 1 3.272 3.273v17.454A3.273 3.273 0 0 1 36.274 36h-24A3.27 3.27 0 0 1 9 32.727zm2.182 14.633v2.821a1.09 1.09 0 0 0 1.09 1.091h24a1.09 1.09 0 0 0 1.092-1.09v-2.823l-3.913-3.91a2.18 2.18 0 0 0-3.084 0l-1.28 1.278 1.411 1.41a1.092 1.092 0 1 1-1.542 1.543l-7.505-7.504a2.18 2.18 0 0 0-3.084 0zm14.727-11.36a1.636 1.636 0 1 1 3.272 0 1.636 1.636 0 0 1-3.272 0" clip-rule="evenodd"/></svg>