<svg xmlns="http://www.w3.org/2000/svg" viewBox="0 0 42 34" role="presentation" aria-hidden="true"><path d="m.85 24.75 10.662-10.662a4.648 4.648 0 0 1 6.576 0L28.75 24.75m-3.1-3.1 2.912-2.912a4.648 4.648 0 0 1 6.576 0l6.012 6.012M3.95 32.5h34.1a3.1 3.1 0 0 0 3.1-3.1V4.6a3.1 3.1 0 0 0-3.1-3.1H3.95a3.1 3.1 0 0 0-3.1 3.1v24.8a3.1 3.1 0 0 0 3.1 3.1Zm21.7-23.25h.017v.017h-.017V9.25Zm.775 0a.775.775 0 1 1-1.55 0 .775.775 0 0 1 1.55 0Z" stroke="currentColor" stroke-opacity=".4" stroke-width="1.5" stroke-linecap="round" stroke-linejoin="round"/></svg>