<svg xmlns="http://www.w3.org/2000/svg" aria-hidden="true" viewBox="0 0 48 48"><path fill="#446ef5" fill-rule="evenodd" d="M9.5 25.5A1.5 1.5 0 0 1 11 27v8a.5.5 0 0 0 .5.5h24a.5.5 0 0 0 .5-.5v-8a1.5 1.5 0 0 1 3 0v8a3.5 3.5 0 0 1-3.5 3.5h-24A3.5 3.5 0 0 1 8 35v-8a1.5 1.5 0 0 1 1.5-1.5" clip-rule="evenodd"/><path fill="#446ef5" fill-rule="evenodd" d="M23.5 7.5A1.5 1.5 0 0 1 25 9v14.379l4.44-4.44a1.5 1.5 0 0 1 2.12 2.122l-6.999 6.999a1.496 1.496 0 0 1-2.118.003l-.004-.002v-.001l-7-7a1.5 1.5 0 0 1 2.122-2.12L22 23.378V9a1.5 1.5 0 0 1 1.5-1.5" clip-rule="evenodd"/></svg>