<svg xmlns="http://www.w3.org/2000/svg" viewBox="0 0 20 20" role="presentation" aria-hidden="true"><path fill-rule="evenodd" clip-rule="evenodd" d="M2.91699 10.0004C2.91699 6.09462 6.09458 2.91699 10.0003 2.91699C13.9061 2.91699 17.0837 6.09462 17.0837 10.0004C17.0837 13.9061 13.9061 17.0837 10.0003 17.0837C6.09458 17.0837 2.91699 13.9061 2.91699 10.0004ZM4.20448 10.0006C4.20448 13.1962 6.80428 15.796 9.99993 15.796C13.1955 15.796 15.7954 13.1962 15.7954 10.0006C15.7954 6.80501 13.1956 4.20513 9.99993 4.20513C6.80428 4.20513 4.20448 6.80501 4.20448 10.0006ZM10.0001 5.92213C9.52679 5.92213 9.14171 6.30747 9.14171 6.78111C9.14171 7.25432 9.52679 7.63931 10.0001 7.63931C10.4735 7.63931 10.8585 7.25432 10.8585 6.78111C10.8585 6.30747 10.4735 5.92213 10.0001 5.92213ZM9.35615 9.571C9.35615 9.21537 9.64446 8.92706 10.0001 8.92706C10.3557 8.92706 10.644 9.21537 10.644 9.571V13.4346C10.644 13.7903 10.3557 14.0786 10.0001 14.0786C9.64446 14.0786 9.35615 13.7903 9.35615 13.4346V9.571Z" fill="currentColor"/></svg>