<svg xmlns="http://www.w3.org/2000/svg" aria-hidden="true" viewBox="0 0 20 20"><path fill="currentColor" fill-rule="evenodd" d="M2.917 10A7.09 7.09 0 0 1 10 2.917 7.09 7.09 0 0 1 17.084 10 7.09 7.09 0 0 1 10 17.084 7.09 7.09 0 0 1 2.917 10m1.287 0c0 3.196 2.6 5.796 5.796 5.796 3.195 0 5.795-2.6 5.795-5.795 0-3.196-2.6-5.796-5.795-5.796a5.8 5.8 0 0 0-5.796 5.796M10 5.923a.86.86 0 0 0 0 1.717.86.86 0 0 0 0-1.717m-.644 3.649a.644.644 0 0 1 1.288 0v3.864a.644.644 0 1 1-1.288 0z" clip-rule="evenodd"/></svg>