<svg xmlns="http://www.w3.org/2000/svg" viewBox="0 0 48 48" role="presentation" aria-hidden="true"><path fill-rule="evenodd" clip-rule="evenodd" d="M26.995 5.371a1.25 1.25 0 0 1 1.28-1.22c9.21.225 16.324 6.482 17.72 15.589a1.25 1.25 0 0 1-2.472.379c-1.212-7.91-7.31-13.274-15.309-13.468a1.25 1.25 0 0 1-1.219-1.28Zm-.767 5.867a1.25 1.25 0 0 1 1.28-1.219c6.341.154 11.804 4.96 12.765 11.23a1.25 1.25 0 0 1-2.471.379c-.778-5.073-5.224-8.985-10.355-9.11a1.25 1.25 0 0 1-1.22-1.28ZM18.556 12.679a1.944 1.944 0 0 0-1.944 1.943v1.723a3.223 3.223 0 0 1-3.223 3.222H8.223A.222.222 0 0 0 8 19.79v5.166a.221.221 0 0 0 .222.222h1.722a4.945 4.945 0 0 1 0 9.89H8.223a.222.222 0 0 0-.222.221v5.167a.221.221 0 0 0 .222.221h5.166a.221.221 0 0 0 .222-.221v-1.722a4.945 4.945 0 0 1 9.89 0v1.722a.221.221 0 0 0 .221.221h5.167a.221.221 0 0 0 .221-.221v-5.167a3.223 3.223 0 0 1 3.223-3.222h1.722a1.944 1.944 0 0 0 0-3.888h-1.722a3.223 3.223 0 0 1-3.223-3.223V19.79a.222.222 0 0 0-.221-.222h-5.167a3.223 3.223 0 0 1-3.223-3.223v-1.722a1.944 1.944 0 0 0-1.943-1.943ZM8.223 16.566A3.223 3.223 0 0 0 5 19.789v5.166a3.223 3.223 0 0 0 3.223 3.223h1.722a1.944 1.944 0 0 1 0 3.887H8.223A3.223 3.223 0 0 0 5 35.288v5.167a3.223 3.223 0 0 0 3.223 3.222h5.166a3.223 3.223 0 0 0 3.223-3.222v-1.722a1.944 1.944 0 0 1 3.887 0v1.722a3.223 3.223 0 0 0 3.223 3.222h5.167a3.223 3.223 0 0 0 3.222-3.222v-5.167a.221.221 0 0 1 .222-.221h1.722a4.945 4.945 0 1 0 0-9.89h-1.722a.221.221 0 0 1-.222-.222V19.79a3.223 3.223 0 0 0-3.222-3.223h-5.167a.222.222 0 0 1-.221-.221v-1.723a4.945 4.945 0 0 0-9.89 0v1.723a.222.222 0 0 1-.222.221H8.223Z" fill="currentColor"/></svg>