<svg xmlns="http://www.w3.org/2000/svg" aria-hidden="true" viewBox="0 0 48 48"><path fill="currentColor" fill-rule="evenodd" d="m36.744 12.72.845.844c.284.284.342.636.342 1.112v26.083c0 .52-.522 1.025-1.14 1.184a.5.5 0 0 1-.094.027q-.145.03-.295.03H11.53q-.15 0-.295-.03l-.06-.016-.034-.01c-.618-.16-1.14-.666-1.14-1.185V7.817C10 6.568 10.792 6 11.529 6h18.013c.311 0 .604.121.824.34l.479.48 5.9 5.9Zm-10.729 7.67 4.204 1.127a6.83 6.83 0 0 0-1.736-6.69 6.8 6.8 0 0 0-6.593-1.76l1.125 4.2c.208-.056.42-.095.64-.095.663 0 1.287.26 1.755.728.47.469.728 1.092.728 1.755 0 .255-.05.5-.123.736Zm3.565 2.645q.091-.16.177-.326l.004-.009.01-.018-3.748-1.005 1.04 3.887.025-.015.026-.015c.21-.123.412-.26.607-.402l.058-.043q.04-.028.079-.059c.218-.17.43-.351.625-.547a6.8 6.8 0 0 0 1.097-1.448m-8.314-4.02-4.198-1.125a6.83 6.83 0 0 0 1.759 6.593c1.915 1.915 4.692 2.445 7.091 1.605l-1.134-4.233a2.46 2.46 0 0 1-1.129.283 2.47 2.47 0 0 1-1.755-.728 2.47 2.47 0 0 1-.728-1.755c0-.22.039-.432.094-.64m-3.545-2.725q-.107.189-.201.385l-.008.016-.015.029L21.9 17.9l-1.18-4.401-.044.02a7 7 0 0 0-1.231.768 4 4 0 0 0-.143.112 7 7 0 0 0-.474.428 7 7 0 0 0-.43.475l-.109.141a7 7 0 0 0-.258.35 7 7 0 0 0-.309.497Zm5.272 2.317-.04.028a1.4 1.4 0 0 0-.16.13l-.015.012-.017.021a1.4 1.4 0 0 0-.125.155l-.029.041a1.23 1.23 0 0 0 .17 1.539c.47.47 1.287.47 1.756 0a1.24 1.24 0 0 0 0-1.756 1.23 1.23 0 0 0-1.54-.17m12.725-5.159-5.235-5.235v5.235zM11.408 40.73c.039.015.078.03.12.03h24.874a.3.3 0 0 0 .12-.03h.003a.28.28 0 0 0 .165-.258v-9.023H11.24v9.023c0 .114.069.211.165.257zm-.167-32.913v22.39h25.447V14.653a1 1 0 0 1-.244.036h-6.439a8.08 8.08 0 0 1 1.41 7.148l.028.008-.24.64-.003.009-.005.01-.008.018a8 8 0 0 1-.297.683l-.008.017-.013.029-.023.05a8 8 0 0 1-.387.68l-.037.062a8 8 0 0 1-.397.551l-.047.064q-.026.037-.054.073a8 8 0 0 1-1.14 1.149q-.123.099-.25.19l-.093.067-.03.024-.049.036q-.088.067-.178.13a8 8 0 0 1-.544.334l-.086.05a8 8 0 0 1-.597.297l-.046.023-.123.054-.049.022-.071.031-.42.185-.01-.035a8.04 8.04 0 0 1-8.29-1.927c-2.107-2.109-2.795-5.1-2.079-7.792l-.028-.008.227-.634.01-.023a8.3 8.3 0 0 1 .708-1.467l.033-.057.048-.081a8 8 0 0 1 .399-.559l.044-.06q.03-.045.064-.087a8 8 0 0 1 1.218-1.218q.042-.033.085-.063l.067-.048q.27-.212.555-.396l.077-.046a8 8 0 0 1 .746-.412l.055-.025q.345-.165.702-.295l.025-.01.023-.01.634-.228.008.03a8.06 8.06 0 0 1 7.672 1.97V7.485c0-.084.016-.164.036-.243H11.53c-.267 0-.288.44-.288.575Zm7.005 25.447h1.035v6.254h-1.035zm5.452 3.19a3.4 3.4 0 0 0-.632-.36 8 8 0 0 1-.628-.305 1.9 1.9 0 0 1-.484-.365.77.77 0 0 1-.195-.548.7.7 0 0 1 .068-.284.9.9 0 0 1 .187-.268q.119-.119.272-.199a.9.9 0 0 1 .322-.097q.305-.026.501-.009.195.017.314.06.12.042.183.085.063.042.115.067a1 1 0 0 0 .05-.085q.043-.076.102-.191l.083-.16.045-.086q.067-.131.118-.242a1.7 1.7 0 0 0-.645-.233 4.5 4.5 0 0 0-.789-.072q-.381 0-.725.118-.344.12-.603.344a1.64 1.64 0 0 0-.564 1.286q0 .458.195.763.195.306.492.53.296.225.636.39.339.165.633.331.292.165.488.37.194.204.194.492 0 .475-.275.717-.277.241-.793.242-.171 0-.365-.034a4 4 0 0 1-.39-.09 7 7 0 0 1-.378-.118 2 2 0 0 1-.301-.132l-.178.73q.143.127.343.217t.42.14.438.072q.216.021.42.021.475 0 .848-.144.373-.143.629-.386.254-.242.394-.56.14-.317.14-.658 0-.501-.194-.818a1.9 1.9 0 0 0-.49-.53Zm5.253-3.084q.47.208.823.607.351.399.551.997t.2 1.387c0 .789-.067.99-.2 1.391a2.85 2.85 0 0 1-.551 1.002 2.3 2.3 0 0 1-.823.602 2.6 2.6 0 0 1-1.031.204q-.56 0-1.031-.204a2.3 2.3 0 0 1-.823-.602 2.8 2.8 0 0 1-.552-1.002 4.4 4.4 0 0 1-.2-1.391q0-.79.2-1.387a2.8 2.8 0 0 1 .552-.997q.352-.4.823-.607a2.5 2.5 0 0 1 1.03-.208q.561 0 1.032.208m.051 4.833a2.1 2.1 0 0 0 .352-.734q.127-.454.136-1.108a4.4 4.4 0 0 0-.132-1.081 2.2 2.2 0 0 0-.34-.735 1.3 1.3 0 0 0-.491-.415 1.4 1.4 0 0 0-.582-.128q-.315 0-.598.119-.285.119-.51.403a2.1 2.1 0 0 0-.351.734q-.127.45-.136 1.103.009.636.131 1.086.124.45.34.734.216.285.492.416.276.132.582.132.314 0 .598-.123.285-.122.51-.403Z" clip-rule="evenodd"/></svg>