<svg xmlns="http://www.w3.org/2000/svg" viewBox="0 0 48 48" role="presentation" aria-hidden="true"><path fill-rule="evenodd" clip-rule="evenodd" d="m36.744 12.72.845.844c.284.284.342.636.342 1.112V40.759c0 .52-.522 1.025-1.14 1.184a.544.544 0 0 1-.094.027c-.097.02-.195.03-.295.03H11.53c-.1 0-.198-.01-.295-.03a.543.543 0 0 1-.06-.016l-.034-.01c-.618-.16-1.14-.666-1.14-1.185V7.817C10 6.568 10.792 6 11.529 6h18.013c.311 0 .604.121.824.34l.479.48 5.9 5.9Zm-10.729 7.67 4.204 1.127a6.83 6.83 0 0 0-1.736-6.69 6.806 6.806 0 0 0-6.593-1.76l1.125 4.2c.208-.056.42-.095.64-.095.663 0 1.287.26 1.755.728.47.469.728 1.092.728 1.755 0 .255-.05.5-.123.736Zm3.565 2.645c.06-.107.121-.215.177-.326l.004-.009a.203.203 0 0 1 .01-.018l-3.748-1.005 1.04 3.887.025-.015.026-.015c.21-.123.412-.26.607-.402l.058-.043c.026-.019.053-.038.079-.059.218-.17.43-.351.625-.547a6.818 6.818 0 0 0 1.097-1.448Zm-8.314-4.02-4.198-1.125a6.827 6.827 0 0 0 1.759 6.593c1.915 1.915 4.692 2.445 7.091 1.605l-1.134-4.233a2.464 2.464 0 0 1-1.129.283 2.467 2.467 0 0 1-1.755-.728 2.465 2.465 0 0 1-.728-1.755c0-.22.039-.432.094-.64Zm-3.545-2.725c-.07.126-.139.254-.201.385l-.008.016a.332.332 0 0 1-.015.029L21.9 17.9l-1.18-4.401-.044.02a6.87 6.87 0 0 0-1.231.768 4.008 4.008 0 0 0-.143.112 6.824 6.824 0 0 0-.474.428 6.962 6.962 0 0 0-.43.475 3.866 3.866 0 0 0-.109.141 6.62 6.62 0 0 0-.258.35 6.507 6.507 0 0 0-.309.497Zm5.272 2.317-.04.028a1.382 1.382 0 0 0-.16.13l-.015.012a.214.214 0 0 0-.017.021 1.354 1.354 0 0 0-.125.155l-.029.041a1.233 1.233 0 0 0 .17 1.539c.47.47 1.287.47 1.756 0 .234-.235.364-.546.364-.878 0-.331-.13-.643-.364-.878a1.233 1.233 0 0 0-1.54-.17Zm12.725-5.159-5.235-5.235v5.235h5.235ZM11.408 40.73c.039.015.078.03.12.03h24.874a.335.335 0 0 0 .12-.03h.003a.285.285 0 0 0 .165-.258v-9.023H11.24v9.023c0 .114.069.211.165.257l.002.001Zm-.167-32.913v22.39h25.447V14.653a.955.955 0 0 1-.244.036h-6.439a8.079 8.079 0 0 1 1.41 7.148l.028.008-.24.64a.345.345 0 0 1-.003.009l-.005.01-.008.018a7.868 7.868 0 0 1-.297.683l-.008.017-.013.029-.023.05a7.803 7.803 0 0 1-.387.68l-.037.062c-.122.189-.258.371-.397.551l-.047.064c-.017.024-.035.05-.054.073a8.001 8.001 0 0 1-1.14 1.149c-.082.067-.166.128-.25.19l-.093.067-.03.024-.049.036c-.059.044-.117.089-.178.13a8.212 8.212 0 0 1-.544.334l-.086.05a8.266 8.266 0 0 1-.597.297.768.768 0 0 1-.046.023l-.123.054-.049.022-.071.031-.42.185-.01-.035a8.044 8.044 0 0 1-8.29-1.927c-2.107-2.109-2.795-5.1-2.079-7.792l-.028-.008.227-.634.01-.023a8.263 8.263 0 0 1 .708-1.467l.033-.057.048-.081c.123-.191.258-.376.399-.559l.044-.06c.02-.03.041-.059.064-.087a7.966 7.966 0 0 1 1.218-1.218c.028-.022.056-.043.085-.063l.067-.048c.18-.14.365-.274.555-.396l.077-.046a8.068 8.068 0 0 1 .746-.412l.055-.025c.23-.11.464-.208.702-.295l.025-.01.023-.01.634-.228.008.03a8.063 8.063 0 0 1 7.672 1.97V7.485c0-.084.016-.164.036-.243H11.53c-.267 0-.288.44-.288.575Zm7.005 25.447h1.035v6.254h-1.035v-6.254Zm5.452 3.19a3.35 3.35 0 0 0-.632-.36 7.917 7.917 0 0 1-.628-.305 1.882 1.882 0 0 1-.484-.365c-.13-.14-.195-.322-.195-.548a.68.68 0 0 1 .068-.284.906.906 0 0 1 .187-.268c.079-.08.17-.145.272-.199a.864.864 0 0 1 .322-.097c.204-.017.37-.02.501-.009.13.012.235.031.314.06.08.028.14.056.183.085.042.028.08.05.115.067a.76.76 0 0 0 .05-.085c.028-.05.063-.115.102-.191l.083-.16.045-.086c.044-.088.085-.168.118-.242a1.738 1.738 0 0 0-.645-.233 4.46 4.46 0 0 0-.789-.072c-.254 0-.496.039-.725.118-.23.08-.43.195-.603.344a1.638 1.638 0 0 0-.564 1.286c0 .305.064.56.195.763.13.204.294.38.492.53.197.15.41.28.636.39.226.111.437.22.633.331.195.11.357.234.488.37.13.136.194.3.194.492 0 .317-.091.556-.275.717-.184.16-.449.242-.793.242-.114 0-.236-.012-.365-.034a3.67 3.67 0 0 1-.39-.09 7.134 7.134 0 0 1-.378-.118 1.779 1.779 0 0 1-.301-.132l-.178.73c.095.085.21.157.343.217.133.06.273.106.42.14.147.034.294.058.438.072.144.014.284.021.42.021.316 0 .6-.048.848-.144.249-.096.458-.224.629-.386.17-.161.3-.348.394-.56.094-.211.14-.431.14-.658 0-.334-.065-.607-.194-.818a1.865 1.865 0 0 0-.49-.53Zm5.253-3.084c.314.139.588.34.823.607.234.266.418.598.551.997.133.398.2.861.2 1.387s-.067.99-.2 1.391a2.845 2.845 0 0 1-.551 1.002 2.31 2.31 0 0 1-.823.602 2.569 2.569 0 0 1-1.031.204c-.373 0-.717-.068-1.031-.204a2.317 2.317 0 0 1-.823-.602 2.838 2.838 0 0 1-.552-1.002 4.434 4.434 0 0 1-.2-1.391c0-.526.067-.989.2-1.387.133-.399.317-.731.552-.997.234-.267.509-.468.823-.607a2.52 2.52 0 0 1 1.03-.208c.374 0 .718.069 1.032.208Zm.051 4.833c.15-.187.267-.432.352-.734.084-.303.13-.672.136-1.108a4.362 4.362 0 0 0-.132-1.081 2.183 2.183 0 0 0-.34-.735 1.303 1.303 0 0 0-.491-.415 1.368 1.368 0 0 0-.582-.128c-.21 0-.409.04-.598.119-.19.08-.36.213-.51.403a2.1 2.1 0 0 0-.351.734c-.085.3-.13.667-.136 1.103.005.424.05.786.131 1.086.082.3.196.544.34.734.144.19.308.328.492.416.184.088.378.132.582.132.209 0 .409-.042.598-.123.19-.081.36-.216.51-.403Z" fill="currentColor"/></svg>