<svg xmlns="http://www.w3.org/2000/svg" viewBox="0 0 48 48" role="presentation" aria-hidden="true"><path fill-rule="evenodd" clip-rule="evenodd" d="m36.744 12.72.845.844c.284.284.342.636.342 1.112V40.759c0 .52-.522 1.025-1.14 1.184a.544.544 0 0 1-.094.027c-.097.02-.195.03-.295.03H11.53c-.1 0-.198-.01-.295-.03a.543.543 0 0 1-.06-.016l-.034-.01c-.618-.16-1.14-.666-1.14-1.185V7.817C10 6.568 10.792 6 11.529 6h18.013c.311 0 .604.121.824.34l.479.48 5.9 5.9Zm-1.026.728-5.235-5.235v5.235h5.235ZM11.408 40.73c.039.015.078.03.12.03h24.874a.335.335 0 0 0 .12-.03h.003a.285.285 0 0 0 .165-.258v-9.023H11.24v9.023c0 .114.069.211.165.257l.002.001Zm-.167-32.913v22.39h25.45V14.669l-.001-.003v-.011a.96.96 0 0 1-.243.036h-7.07c.298.33.485.763.485 1.241v2.483c0 .684.557 1.241 1.241 1.241a.62.62 0 1 1 0 1.242c-.684 0-1.24.556-1.24 1.24v2.484A1.864 1.864 0 0 1 28 26.483a.62.62 0 1 1 0-1.242c.343 0 .62-.278.62-.62v-2.483c0-.745.337-1.407.858-1.862a2.467 2.467 0 0 1-.857-1.862V15.93a.621.621 0 0 0-.621-.62.62.62 0 1 1 0-1.242c.479 0 .911.186 1.241.484V7.484c0-.084.016-.164.036-.243H11.53c-.267 0-.288.44-.288.575Zm10.177 30.696c.178-.116.273-.313.284-.59v-4.785h1.036v4.87c0 .294-.054.543-.162.743-.108.2-.252.362-.432.484-.182.121-.39.206-.624.254a3.632 3.632 0 0 1-.726.072c-.125 0-.27-.013-.437-.038a3.72 3.72 0 0 1-.517-.119 5.581 5.581 0 0 1-.514-.182 1.876 1.876 0 0 1-.416-.23l.433-.687c.057.04.137.081.242.123.105.043.22.082.344.119.124.037.255.069.39.097.136.029.264.043.382.043.3 0 .539-.059.717-.174Zm5.702-2.058a3.35 3.35 0 0 0-.632-.361 7.936 7.936 0 0 1-.629-.305 1.882 1.882 0 0 1-.483-.365c-.13-.14-.195-.322-.195-.548a.68.68 0 0 1 .068-.284.906.906 0 0 1 .187-.268c.078-.08.169-.145.271-.199a.863.863 0 0 1 .323-.097c.204-.017.37-.02.501-.009.13.012.235.031.314.06.079.028.14.056.183.085.042.028.08.05.114.067a.76.76 0 0 0 .051-.085c.028-.05.062-.115.102-.191l.082-.159.045-.087c.045-.088.085-.168.119-.242a1.74 1.74 0 0 0-.645-.233 4.461 4.461 0 0 0-.789-.072c-.254 0-.497.039-.726.118-.229.08-.429.195-.602.344-.173.15-.31.332-.412.548a1.71 1.71 0 0 0-.154.738c0 .306.065.56.195.764.13.203.294.38.492.53.198.15.41.28.637.39.226.11.437.22.632.331.196.11.358.233.488.37.13.135.195.3.195.492 0 .317-.092.556-.276.716-.183.161-.448.242-.793.242-.114 0-.235-.011-.365-.034a3.675 3.675 0 0 1-.39-.089 7.1 7.1 0 0 1-.378-.119 1.79 1.79 0 0 1-.3-.131l-.179.73c.096.085.211.157.344.216.133.06.273.107.42.14.147.035.293.059.437.073.144.013.285.02.42.02.317 0 .6-.047.849-.143.248-.096.458-.225.628-.386.17-.162.301-.349.395-.56a1.61 1.61 0 0 0 .14-.658c0-.334-.065-.607-.195-.819a1.855 1.855 0 0 0-.489-.53ZM18.69 15.93v2.483c0 .745-.336 1.406-.858 1.862.522.455.858 1.117.858 1.862v2.483c0 .342.278.62.62.62a.62.62 0 1 1 0 1.242 1.864 1.864 0 0 1-1.861-1.862v-2.483c0-.685-.557-1.242-1.242-1.242a.62.62 0 1 1 0-1.24c.685 0 1.242-.558 1.242-1.242V15.93c0-1.027.835-1.862 1.862-1.862a.62.62 0 1 1 0 1.241.621.621 0 0 0-.62.621Zm4.965 3.104a.931.931 0 1 0 0-1.863.931.931 0 0 0 0 1.863Zm-.62 3.103a.62.62 0 1 1 1.241 0V24a.62.62 0 1 1-1.241 0v-1.862Z" fill="currentColor"/></svg>