<svg xmlns="http://www.w3.org/2000/svg" aria-hidden="true" viewBox="0 0 48 48"><path fill="currentColor" fill-rule="evenodd" d="m36.744 12.72.845.844c.284.284.342.636.342 1.112v26.083c0 .52-.522 1.025-1.14 1.184a.5.5 0 0 1-.094.027q-.145.03-.295.03H11.53q-.15 0-.295-.03l-.06-.016-.034-.01c-.618-.16-1.14-.666-1.14-1.185V7.817C10 6.568 10.792 6 11.529 6h18.013c.311 0 .604.121.824.34l.479.48 5.9 5.9Zm-1.026.728-5.235-5.235v5.235zM11.408 40.73c.039.015.078.03.12.03h24.874a.3.3 0 0 0 .12-.03h.003a.28.28 0 0 0 .165-.258v-9.023H11.24v9.023c0 .114.069.211.165.257zm-.167-32.913v22.39h25.45V14.669l-.001-.003v-.011a1 1 0 0 1-.243.036h-7.07c.298.33.485.763.485 1.241v2.483c0 .684.557 1.241 1.241 1.241a.62.62 0 1 1 0 1.242c-.684 0-1.24.556-1.24 1.24v2.484A1.864 1.864 0 0 1 28 26.483a.62.62 0 1 1 0-1.242.62.62 0 0 0 .62-.62v-2.483c0-.745.337-1.407.858-1.862a2.47 2.47 0 0 1-.857-1.862V15.93a.62.62 0 0 0-.621-.62.62.62 0 1 1 0-1.242c.479 0 .911.186 1.241.484V7.484c0-.084.016-.164.036-.243H11.53c-.267 0-.288.44-.288.575Zm10.177 30.696q.267-.174.284-.59v-4.785h1.036v4.87q0 .442-.162.743-.162.3-.432.484a1.8 1.8 0 0 1-.624.254 3.6 3.6 0 0 1-.726.072q-.187 0-.437-.038a4 4 0 0 1-.517-.119 6 6 0 0 1-.514-.182 2 2 0 0 1-.416-.23l.433-.687q.085.06.242.123.158.064.344.119.187.055.39.097t.382.043q.45 0 .717-.174m5.702-2.058a3.4 3.4 0 0 0-.632-.361 8 8 0 0 1-.629-.305 1.9 1.9 0 0 1-.483-.365.77.77 0 0 1-.195-.548.7.7 0 0 1 .068-.284.9.9 0 0 1 .187-.268q.118-.119.271-.199a.9.9 0 0 1 .323-.097q.305-.026.501-.009.195.017.314.06.118.042.183.085.063.042.114.067a1 1 0 0 0 .051-.085q.042-.076.102-.191l.082-.159.045-.087q.068-.132.119-.242a1.7 1.7 0 0 0-.645-.233 4.5 4.5 0 0 0-.789-.072q-.382 0-.726.118-.343.12-.602.344-.26.224-.412.548a1.7 1.7 0 0 0-.154.738q0 .459.195.764t.492.53.637.39.632.331q.294.165.488.37.195.203.195.492 0 .476-.276.716-.275.242-.793.242-.17 0-.365-.034a4 4 0 0 1-.39-.089 7 7 0 0 1-.378-.119 2 2 0 0 1-.3-.131l-.179.73q.144.127.344.216.2.09.42.14.22.052.437.073t.42.02q.476 0 .849-.143.372-.144.628-.386a1.8 1.8 0 0 0 .395-.56 1.6 1.6 0 0 0 .14-.658q0-.501-.195-.819a1.9 1.9 0 0 0-.489-.53M18.69 15.93v2.483c0 .745-.336 1.406-.858 1.862.522.455.858 1.117.858 1.862v2.483c0 .342.278.62.62.62a.62.62 0 1 1 0 1.242 1.864 1.864 0 0 1-1.861-1.862v-2.483c0-.685-.557-1.242-1.242-1.242a.62.62 0 1 1 0-1.24c.685 0 1.242-.558 1.242-1.242V15.93c0-1.027.835-1.862 1.862-1.862a.62.62 0 1 1 0 1.241.62.62 0 0 0-.62.621Zm4.965 3.104a.931.931 0 1 0 0-1.863.931.931 0 0 0 0 1.863m-.62 3.103a.62.62 0 1 1 1.241 0V24a.62.62 0 1 1-1.241 0z" clip-rule="evenodd"/></svg>