<svg xmlns="http://www.w3.org/2000/svg" aria-hidden="true" viewBox="0 0 48 48"><path fill="currentColor" fill-rule="evenodd" d="m37.589 13.564-3.611-3.61-3.133-3.134-.478-.478A1.17 1.17 0 0 0 29.542 6H11.53C10.793 6 10 6.569 10 7.816V40.76c0 .52.523 1.026 1.14 1.185l.037.01.057.016q.145.03.295.03h24.873q.15 0 .295-.03a.5.5 0 0 0 .094-.026c.618-.16 1.14-.666 1.14-1.185V14.676c0-.476-.058-.828-.342-1.112m-1.87-.116h-5.236V8.213l2.636 2.637zm-24.19-6.207h17.748a1 1 0 0 0-.036.243v7.206h7.205a1 1 0 0 0 .243-.036v7.9l-5.158-4.9a.623.623 0 0 0-.886.032l-6.08 6.657-2.944-2.944a.62.62 0 0 0-.84-.034l-9.54 8.12V7.815c0-.135.02-.575.288-.575Zm-.113 33.49-.01-.003a.28.28 0 0 1-.165-.257v-9.023H36.69v9.023a.28.28 0 0 1-.165.257l-.002.001a.3.3 0 0 1-.12.03H11.528c-.04 0-.077-.014-.113-.027Zm.892-10.524 8.841-7.525 6.402 6.401a.62.62 0 1 0 .877-.877l-2.983-2.984 5.69-6.232 5.555 5.276v5.94zm5.67 7.715q-.017.416-.284.59-.267.173-.717.174a2 2 0 0 1-.381-.043 5 5 0 0 1-.39-.097 4 4 0 0 1-.345-.119 1.3 1.3 0 0 1-.242-.123l-.432.688q.169.127.416.229.246.1.513.182.267.08.518.119.25.038.436.038.374 0 .726-.072t.624-.254q.271-.183.432-.484.162-.301.162-.742v-4.871h-1.035zm5.142-4.531q.39.127.7.381.311.255.502.615.19.361.191.811 0 .476-.161.861a1.8 1.8 0 0 1-.45.65 2 2 0 0 1-.696.407 2.7 2.7 0 0 1-.9.144h-.755v2.257h-1.018v-6.254h1.799q.398 0 .788.128m.069 2.85q.152-.144.246-.402a1.9 1.9 0 0 0 .05-.994 1 1 0 0 0-.173-.381 1 1 0 0 0-.37-.306q-.238-.123-.628-.123h-.763v2.478h.933q.186 0 .37-.064a.9.9 0 0 0 .335-.208m4.972.748h1.061v1.544a.42.42 0 0 1-.212.144q-.145.05-.301.08a3 3 0 0 1-.564.055 1.24 1.24 0 0 1-.582-.143 1.44 1.44 0 0 1-.492-.442 2.3 2.3 0 0 1-.34-.763 4.6 4.6 0 0 1-.131-1.103q.007-.653.136-1.103.127-.45.352-.734.225-.285.508-.403.285-.12.599-.119.28.001.543.11.262.111.467.357l.704-.628a2.3 2.3 0 0 0-.789-.509 2.6 2.6 0 0 0-.95-.17q-.552 0-1.027.209a2.34 2.34 0 0 0-.827.607 2.85 2.85 0 0 0-.552.996q-.2.6-.199 1.388 0 .789.2 1.391.198.603.551 1.001.352.4.823.603.471.204 1.031.204.28 0 .564-.042a2.7 2.7 0 0 0 1.061-.403 1.9 1.9 0 0 0 .437-.403v-2.418h-2.07zm-6.903-19.774a3.46 3.46 0 0 1-3.456 3.457 3.46 3.46 0 0 1-3.457-3.457 3.46 3.46 0 0 1 3.457-3.457 3.46 3.46 0 0 1 3.456 3.457m-1.241 0A2.22 2.22 0 0 0 17.802 15a2.22 2.22 0 0 0-2.216 2.215c0 1.222.994 2.215 2.216 2.215a2.22 2.22 0 0 0 2.215-2.215" clip-rule="evenodd"/></svg>