<svg xmlns="http://www.w3.org/2000/svg" viewBox="0 0 48 48" role="presentation" aria-hidden="true"><path fill-rule="evenodd" clip-rule="evenodd" d="m37.589 13.564-3.611-3.61-3.133-3.134-.478-.478A1.174 1.174 0 0 0 29.542 6H11.53C10.793 6 10 6.569 10 7.816V40.76c0 .52.523 1.026 1.14 1.185a.752.752 0 0 1 .037.01.529.529 0 0 0 .057.016c.097.02.195.03.295.03h24.873c.1 0 .198-.01.295-.03a.544.544 0 0 0 .094-.026c.618-.16 1.14-.666 1.14-1.185V14.676c0-.476-.058-.828-.342-1.112Zm-1.87-.116h-5.236V8.213l2.636 2.637 2.6 2.598Zm-24.19-6.207h17.748a.955.955 0 0 0-.036.243v7.206h7.205a.96.96 0 0 0 .243-.036v7.9l-5.158-4.9a.623.623 0 0 0-.886.032l-6.08 6.657-2.944-2.944a.62.62 0 0 0-.84-.034l-9.54 8.12V7.815c0-.135.02-.575.288-.575Zm-.113 33.49-.01-.003a.284.284 0 0 1-.165-.257v-9.023H36.69v9.023a.285.285 0 0 1-.165.257l-.002.001a.335.335 0 0 1-.12.03H11.528c-.04 0-.077-.014-.113-.027Zm.892-10.524 8.841-7.525 6.402 6.401a.62.62 0 1 0 .877-.877l-2.983-2.984 5.69-6.232 5.555 5.276v5.94H12.308Zm5.67 7.715c-.011.277-.106.474-.284.59-.178.115-.417.174-.717.174-.118 0-.245-.014-.381-.043a5.036 5.036 0 0 1-.39-.097 3.931 3.931 0 0 1-.345-.119 1.263 1.263 0 0 1-.242-.123l-.432.688c.113.085.251.161.416.229.164.067.335.128.513.182.178.054.35.093.518.119.166.025.312.038.436.038.25 0 .491-.024.726-.072.235-.048.443-.133.624-.254.181-.122.325-.283.432-.484.108-.2.162-.449.162-.742v-4.871h-1.035v4.785Zm5.142-4.531c.26.084.494.212.7.381.207.17.375.375.502.615.127.241.191.511.191.811 0 .317-.054.604-.161.861a1.808 1.808 0 0 1-.45.65 2.027 2.027 0 0 1-.696.407 2.678 2.678 0 0 1-.9.144h-.755v2.257h-1.018v-6.254h1.799c.265 0 .528.043.788.128Zm.069 2.85c.102-.096.183-.23.246-.402a1.909 1.909 0 0 0 .05-.994 1.015 1.015 0 0 0-.173-.381 1.027 1.027 0 0 0-.37-.306c-.159-.082-.368-.123-.628-.123h-.763v2.478h.933c.124 0 .248-.021.37-.064a.93.93 0 0 0 .335-.208Zm4.972.748h1.061v1.544a.423.423 0 0 1-.212.144c-.096.034-.197.06-.301.08a3.182 3.182 0 0 1-.564.055c-.204 0-.398-.047-.582-.143a1.44 1.44 0 0 1-.492-.442 2.276 2.276 0 0 1-.34-.763 4.609 4.609 0 0 1-.131-1.103c.005-.436.05-.803.136-1.103.085-.3.202-.544.352-.734.15-.19.32-.324.508-.403.19-.08.39-.119.599-.119.187 0 .367.038.543.11.175.074.33.193.467.357l.704-.628a2.316 2.316 0 0 0-.789-.509 2.616 2.616 0 0 0-.95-.17c-.368 0-.71.07-1.027.209-.317.139-.592.34-.827.607a2.847 2.847 0 0 0-.552.996c-.133.4-.199.862-.199 1.388 0 .525.066.99.2 1.391.132.402.316.736.551 1.001.235.267.509.467.823.603.314.136.658.204 1.031.204.187 0 .375-.014.564-.042a2.682 2.682 0 0 0 1.061-.403 1.85 1.85 0 0 0 .437-.403v-2.418h-2.07v.694Zm-6.903-19.774a3.46 3.46 0 0 1-3.456 3.457 3.46 3.46 0 0 1-3.457-3.457 3.46 3.46 0 0 1 3.457-3.457 3.46 3.46 0 0 1 3.456 3.457Zm-1.241 0A2.218 2.218 0 0 0 17.802 15a2.218 2.218 0 0 0-2.216 2.215c0 1.222.994 2.215 2.216 2.215a2.218 2.218 0 0 0 2.215-2.215Z" fill="currentColor"/></svg>