<svg xmlns="http://www.w3.org/2000/svg" width="40" height="40" fill="none" viewBox="0 0 40 40"><path stroke="currentColor" stroke-width="1.5" d="m26.35 10.602-.022-.505c-.105-2.617-.16-3.929.702-4.315.87-.386 1.824.533 3.726 2.386l1.585 1.53c1.228 1.192 1.838 1.781 1.488 2.658s-1.137.877-2.695.884c-.771 0-1.529-.014-2.203-.042-1.15-.042-1.726-.056-2.111-.449-.393-.386-.421-.968-.47-2.147Z"/><path stroke="currentColor" stroke-width="1.5" d="M22.54 4h-1.789c-5.29 0-7.935 0-9.584 1.642-1.642 1.641-1.642 4.294-1.642 9.584v9.548c0 5.29 0 7.935 1.642 9.584C12.816 36 15.467 36 20.751 36h3.045c5.29 0 7.935 0 9.577-1.642 1.649-1.648 1.649-4.293 1.649-9.584v-8.3c0-2.308 0-3.458-.435-4.49-.428-1.038-1.25-1.852-2.877-3.473l-1.263-1.249C28.833 5.65 28.02 4.85 26.995 4.421 25.964 4 24.82 4 22.54 4Z"/><path fill="currentColor" d="M25.213 19.582H6.206a2.105 2.105 0 0 0-2.104 2.105v4.848c0 1.162.942 2.105 2.104 2.105h19.007a2.105 2.105 0 0 0 2.104-2.105v-4.848a2.105 2.105 0 0 0-2.104-2.105"/><path fill="#fff" d="M7.918 26.78c1.06 0 1.67-.61 1.67-1.662v-3.41H8.571v3.403c0 .498-.232.772-.66.772-.407 0-.631-.28-.645-.66v-.02H6.27v.027c.028.94.638 1.544 1.648 1.544zm4.308 0c1.228 0 1.965-.61 1.965-1.564 0-.786-.456-1.214-1.474-1.417l-.526-.112c-.561-.113-.807-.295-.807-.61 0-.352.316-.604.842-.604.498 0 .85.239.905.631v.036h.961v-.07c-.049-.87-.743-1.446-1.873-1.446-1.08 0-1.86.603-1.86 1.516 0 .75.492 1.22 1.453 1.417l.512.105c.61.126.842.295.842.631 0 .386-.35.632-.912.632-.561 0-.961-.239-1.024-.625l-.007-.035h-.968v.056c.063.912.806 1.46 1.964 1.46zm4.792 0c1.452 0 2.357-.995 2.357-2.574v-.007c0-1.586-.912-2.575-2.357-2.575-1.438 0-2.35.982-2.35 2.575 0 1.585.905 2.582 2.35 2.582m0-.883c-.8 0-1.312-.653-1.312-1.691V24.2c0-1.046.52-1.684 1.312-1.684.807 0 1.312.645 1.312 1.684s-.491 1.698-1.312 1.698m3.017.793h1.017v-3.263h.021l2.21 3.263h.891v-4.982H23.15v3.242h-.014l-2.21-3.242h-.891z"/></svg>