<svg xmlns="http://www.w3.org/2000/svg" viewBox="0 0 48 48" role="presentation" aria-hidden="true"><path fill-rule="evenodd" clip-rule="evenodd" d="m36.744 12.72.845.844c.284.284.342.636.342 1.112V40.759c0 .52-.522 1.025-1.14 1.184a.544.544 0 0 1-.094.027c-.097.02-.195.03-.295.03H11.53c-.1 0-.198-.01-.295-.03a.543.543 0 0 1-.06-.016l-.034-.01c-.618-.16-1.14-.666-1.14-1.185V7.817C10 6.568 10.792 6 11.529 6h18.013c.311 0 .604.121.824.34l.478.48h.001l5.9 5.9Zm-1.026.728-5.235-5.235v5.235h5.235ZM11.408 40.73c.039.015.078.03.12.03h24.874a.335.335 0 0 0 .12-.03h.003a.285.285 0 0 0 .165-.258v-9.023H11.24v9.023c0 .114.069.211.165.257l.002.001Zm-.167-32.913v22.39h25.45V14.669l-.001-.003v-.011a.96.96 0 0 1-.243.036h-7.07c.298.33.485.763.485 1.241v2.483c0 .684.557 1.241 1.241 1.241a.62.62 0 1 1 0 1.242c-.684 0-1.24.556-1.24 1.24v2.484A1.864 1.864 0 0 1 28 26.483a.62.62 0 1 1 0-1.242c.343 0 .62-.278.62-.62v-2.483c0-.745.337-1.407.858-1.862a2.467 2.467 0 0 1-.857-1.862V15.93a.621.621 0 0 0-.621-.62.62.62 0 1 1 0-1.242c.479 0 .911.186 1.241.484V7.484c0-.084.016-.164.036-.243H11.53c-.267 0-.288.44-.288.575Zm4.59 30.696c.179-.116.273-.313.285-.59v-4.785h1.035v4.87c0 .294-.054.543-.161.743-.108.2-.252.362-.433.484-.181.121-.39.206-.624.254a3.626 3.626 0 0 1-.725.072c-.124 0-.27-.013-.437-.038a3.722 3.722 0 0 1-.518-.119 5.667 5.667 0 0 1-.513-.182 1.886 1.886 0 0 1-.416-.23l.433-.687c.056.04.137.081.242.123.104.043.22.082.343.119.125.037.255.069.39.097.137.029.264.043.383.043.3 0 .538-.059.716-.174Zm5.703-2.058a3.346 3.346 0 0 0-.632-.361 7.933 7.933 0 0 1-.628-.305 1.902 1.902 0 0 1-.484-.365c-.13-.14-.195-.322-.195-.548a.68.68 0 0 1 .068-.284.915.915 0 0 1 .187-.268c.08-.08.17-.145.271-.199a.864.864 0 0 1 .323-.097c.204-.017.37-.02.501-.009.13.011.235.031.314.06.08.028.14.056.183.085.042.028.08.05.115.067a5.921 5.921 0 0 0 .153-.276l.082-.16.044-.086c.046-.087.086-.168.119-.242a1.734 1.734 0 0 0-.645-.233 4.46 4.46 0 0 0-.789-.072c-.254 0-.496.039-.725.118-.23.08-.43.195-.603.344-.173.15-.31.332-.412.548a1.71 1.71 0 0 0-.153.738c0 .306.064.56.194.764.13.203.295.38.493.53.198.15.41.28.636.39.226.11.437.22.632.331a2.1 2.1 0 0 1 .488.37c.13.135.195.3.195.492 0 .317-.092.556-.275.716-.184.161-.45.242-.794.242a2.17 2.17 0 0 1-.365-.034 3.703 3.703 0 0 1-.39-.089 7.042 7.042 0 0 1-.378-.119 1.809 1.809 0 0 1-.3-.131l-.179.73c.096.085.211.157.344.216.133.06.273.107.42.14.148.035.293.059.437.073.144.013.285.02.42.02.318 0 .6-.047.849-.143.249-.096.458-.225.628-.386a1.73 1.73 0 0 0 .395-.56c.094-.212.14-.431.14-.658 0-.334-.064-.607-.195-.819a1.845 1.845 0 0 0-.489-.53Zm5.253-3.085c.314.139.588.34.823.607.235.266.419.598.552.997.133.398.199.861.199 1.387s-.067.99-.2 1.391a2.845 2.845 0 0 1-.551 1.002 2.31 2.31 0 0 1-.823.602 2.569 2.569 0 0 1-1.031.204c-.373 0-.717-.068-1.031-.204a2.317 2.317 0 0 1-.823-.602 2.837 2.837 0 0 1-.552-1.002 4.43 4.43 0 0 1-.2-1.391c0-.526.067-.989.2-1.387.133-.399.317-.731.552-.997.235-.267.509-.468.823-.607a2.52 2.52 0 0 1 1.03-.208c.374 0 .718.069 1.032.208Zm.05 4.833c.15-.187.268-.432.353-.734.085-.303.13-.672.136-1.108a4.338 4.338 0 0 0-.132-1.081 2.183 2.183 0 0 0-.34-.735 1.303 1.303 0 0 0-.492-.415 1.368 1.368 0 0 0-.581-.128c-.21 0-.41.04-.599.119-.189.08-.359.213-.509.403a2.1 2.1 0 0 0-.351.734c-.086.3-.13.667-.136 1.103.005.424.05.786.131 1.086.082.3.196.544.34.734.144.19.308.328.492.416.184.088.378.132.581.132.21 0 .41-.042.599-.123.19-.081.36-.216.509-.403Zm6.446-.628-2.452-4.31h-1.036v6.253h1.036v-4.31l2.452 4.31h1.035v-6.254h-1.035v4.311ZM18.69 15.931v2.483c0 .745-.336 1.406-.858 1.862.522.455.858 1.117.858 1.862v2.483c0 .342.278.62.62.62a.62.62 0 1 1 0 1.242 1.864 1.864 0 0 1-1.861-1.862v-2.483c0-.685-.557-1.242-1.242-1.242a.62.62 0 1 1 0-1.24c.685 0 1.242-.558 1.242-1.242V15.93c0-1.027.835-1.862 1.862-1.862a.62.62 0 1 1 0 1.241.621.621 0 0 0-.62.621Zm4.965 3.104a.931.931 0 1 0 0-1.863.931.931 0 0 0 0 1.863Zm-.62 3.103a.62.62 0 1 1 1.241 0V24a.62.62 0 1 1-1.241 0v-1.862Z" fill="currentColor"/></svg>