<svg xmlns="http://www.w3.org/2000/svg" aria-hidden="true" viewBox="0 0 48 48"><path fill="currentColor" fill-rule="evenodd" d="m36.744 12.72.845.844c.284.284.342.636.342 1.112v26.083c0 .52-.522 1.025-1.14 1.184a.5.5 0 0 1-.094.027q-.145.03-.295.03H11.53q-.15 0-.295-.03l-.06-.016-.034-.01c-.618-.16-1.14-.666-1.14-1.185V7.817C10 6.568 10.792 6 11.529 6h18.013c.311 0 .604.121.824.34l.478.48h.001l5.9 5.9Zm-1.026.728-5.235-5.235v5.235zM11.408 40.73c.039.015.078.03.12.03h24.874a.3.3 0 0 0 .12-.03h.003a.28.28 0 0 0 .165-.258v-9.023H11.24v9.023c0 .114.069.211.165.257zm-.167-32.913v22.39h25.45V14.669l-.001-.003v-.011a1 1 0 0 1-.243.036h-7.07c.298.33.485.763.485 1.241v2.483c0 .684.557 1.241 1.241 1.241a.62.62 0 1 1 0 1.242c-.684 0-1.24.556-1.24 1.24v2.484A1.864 1.864 0 0 1 28 26.483a.62.62 0 1 1 0-1.242.62.62 0 0 0 .62-.62v-2.483c0-.745.337-1.407.858-1.862a2.47 2.47 0 0 1-.857-1.862V15.93a.62.62 0 0 0-.621-.62.62.62 0 1 1 0-1.242c.479 0 .911.186 1.241.484V7.484c0-.084.016-.164.036-.243H11.53c-.267 0-.288.44-.288.575Zm4.59 30.696q.268-.174.285-.59v-4.785h1.035v4.87q0 .442-.161.743a1.34 1.34 0 0 1-.433.484q-.272.182-.624.254a3.6 3.6 0 0 1-.725.072q-.186 0-.437-.038a4 4 0 0 1-.518-.119 6 6 0 0 1-.513-.182 2 2 0 0 1-.416-.23l.433-.687q.084.06.242.123.157.064.343.119.188.055.39.097.205.043.383.043.45 0 .716-.174m5.703-2.058a3.4 3.4 0 0 0-.632-.361 8 8 0 0 1-.628-.305 1.9 1.9 0 0 1-.484-.365.77.77 0 0 1-.195-.548.7.7 0 0 1 .068-.284.9.9 0 0 1 .187-.268q.12-.119.271-.199a.9.9 0 0 1 .323-.097q.305-.026.501-.009.195.017.314.06.12.042.183.085.063.042.115.067a6 6 0 0 0 .153-.276l.082-.16.044-.086a4 4 0 0 0 .119-.242 1.7 1.7 0 0 0-.645-.233 4.5 4.5 0 0 0-.789-.072q-.381 0-.725.118-.344.12-.603.344-.26.224-.412.548a1.7 1.7 0 0 0-.153.738q0 .458.194.764.195.305.493.53.297.225.636.39.34.165.632.331a2.1 2.1 0 0 1 .488.37q.195.203.195.492 0 .476-.275.716-.277.242-.794.242a2 2 0 0 1-.365-.034 4 4 0 0 1-.39-.089 7 7 0 0 1-.378-.119 2 2 0 0 1-.3-.131l-.179.73q.144.127.344.216.2.09.42.14.221.052.437.073.217.02.42.02.476 0 .849-.143.373-.144.628-.386a1.7 1.7 0 0 0 .395-.56q.14-.318.14-.658 0-.501-.195-.819a1.9 1.9 0 0 0-.489-.53m5.253-3.085q.47.208.823.607t.552.997q.2.597.199 1.387c-.001.79-.067.99-.2 1.391a2.85 2.85 0 0 1-.551 1.002 2.3 2.3 0 0 1-.823.602 2.6 2.6 0 0 1-1.031.204q-.56 0-1.031-.204a2.3 2.3 0 0 1-.823-.602 2.8 2.8 0 0 1-.552-1.002 4.4 4.4 0 0 1-.2-1.391q0-.79.2-1.387a2.8 2.8 0 0 1 .552-.997q.352-.4.823-.607a2.5 2.5 0 0 1 1.03-.208q.561 0 1.032.208m.05 4.833a2.1 2.1 0 0 0 .353-.734q.127-.454.136-1.108a4.3 4.3 0 0 0-.132-1.081 2.2 2.2 0 0 0-.34-.735 1.3 1.3 0 0 0-.492-.415 1.4 1.4 0 0 0-.581-.128q-.315 0-.599.119a1.3 1.3 0 0 0-.509.403 2.1 2.1 0 0 0-.351.734q-.128.45-.136 1.103.008.636.131 1.086.124.45.34.734t.492.416.581.132q.315 0 .599-.123.285-.122.509-.403Zm6.446-.628-2.452-4.31h-1.036v6.253h1.036v-4.31l2.452 4.31h1.035v-6.254h-1.035zM18.69 15.931v2.483c0 .745-.336 1.406-.858 1.862.522.455.858 1.117.858 1.862v2.483c0 .342.278.62.62.62a.62.62 0 1 1 0 1.242 1.864 1.864 0 0 1-1.861-1.862v-2.483c0-.685-.557-1.242-1.242-1.242a.62.62 0 1 1 0-1.24c.685 0 1.242-.558 1.242-1.242V15.93c0-1.027.835-1.862 1.862-1.862a.62.62 0 1 1 0 1.241.62.62 0 0 0-.62.621Zm4.965 3.104a.931.931 0 1 0 0-1.863.931.931 0 0 0 0 1.863m-.62 3.103a.62.62 0 1 1 1.241 0V24a.62.62 0 1 1-1.241 0z" clip-rule="evenodd"/></svg>