<svg xmlns="http://www.w3.org/2000/svg" width="20" height="20" fill="none" viewBox="0 0 20 20"><path stroke="currentColor" stroke-linejoin="round" d="M12.944 12.07C15.736 12.07 18 9.815 18 7.034S15.736 2 12.944 2 7.89 4.254 7.89 7.034a4.6 4.6 0 0 0 .587 2.225l-6.113 6.088c-.275.274-.659.984 0 1.64l.705.703c.275.234.964.562 1.528 0l.824-.82c.823.82 1.763.352 2.116-.117.588-.82-.117-1.64-.117-1.64l.235-.234c1.128 1.125 2.116.47 2.469 0 .588-.819 0-1.639 0-1.639-.235-.468-.706-.468-.118-1.054l.706-.702c.564.468 1.724.586 2.233.586z"/><path stroke="currentColor" d="M14.708 7.035a1.76 1.76 0 0 1-1.763 1.756 1.76 1.76 0 0 1-1.764-1.756 1.76 1.76 0 0 1 2.437-1.624 1.76 1.76 0 0 1 1.09 1.624Z"/></svg>