<svg xmlns="http://www.w3.org/2000/svg" aria-hidden="true" viewBox="0 0 32 32"><path fill="currentColor" fill-rule="evenodd" d="M7.346 8.925h17.33a1 1 0 0 1 1 1v9.953c-.446-.43-.964-.922-1.457-1.38-.38-.352-.747-.687-1.055-.956-.299-.261-.57-.486-.745-.598a2.3 2.3 0 0 0-1.01-.337c-.696-.068-1.261.331-1.635.685l-1.446 1.368c-1.425-1.44-3-3.031-3.497-3.54a2.84 2.84 0 0 0-1.644-.817c-.78-.112-1.432.326-1.864.752l-4.977 4.903V9.925a1 1 0 0 1 1-1m-1 12.437v1.323a1 1 0 0 0 1 1h17.33a1 1 0 0 0 1-1v-1.422l-.053-.045a131 131 0 0 0-2.085-1.987c-.376-.35-.735-.676-1.032-.936a7 7 0 0 0-.626-.509 1.3 1.3 0 0 0-.567-.184q-.376-.035-.852.416l-1.423 1.347 1.138 1.111c.452.441-.128 1.153-.651.8a.5.5 0 0 1-.078-.065l-1.486-1.5c-1.504-1.52-3.304-3.34-3.845-3.892a1.84 1.84 0 0 0-1.071-.526c-.313-.045-.665.124-1.02.474l-5.68 5.595Zm-1-11.437a2 2 0 0 1 2-2h17.33a2 2 0 0 1 2 2v12.76a2 2 0 0 1-2 2H7.346a2 2 0 0 1-2-2z" clip-rule="evenodd"/><path fill="currentColor" d="M17.491 12.071a1.143 1.143 0 1 0 1.616 1.616 1.143 1.143 0 0 0-1.616-1.616"/></svg>