<svg xmlns="http://www.w3.org/2000/svg" aria-hidden="true" viewBox="0 0 32 32"><path fill="currentColor" fill-rule="evenodd" d="M5.333 10.286A2.286 2.286 0 0 1 7.62 8h16.762a2.286 2.286 0 0 1 2.286 2.286v12.19a2.286 2.286 0 0 1-2.286 2.286H7.62a2.286 2.286 0 0 1-2.285-2.286v-12.19Zm1.524 10.22v1.97c0 .42.342.762.762.762h16.762a.76.76 0 0 0 .762-.762v-1.97l-2.733-2.732a1.524 1.524 0 0 0-2.153 0l-.894.893.985.985a.76.76 0 0 1 .02 1.096.76.76 0 0 1-1.097-.02l-5.242-5.24a1.524 1.524 0 0 0-2.153 0zm10.286-7.935a1.143 1.143 0 1 1 2.285 0 1.143 1.143 0 0 1-2.285 0" clip-rule="evenodd"/></svg>