<svg xmlns="http://www.w3.org/2000/svg" aria-hidden="true" viewBox="0 0 24 24"><path fill="currentColor" fill-rule="evenodd" d="m7.265 4.988-.003.018v13.988q0 .013.003.018l.006.01h10.57l.007-.01.003-.018V5.006l-.003-.018-.007-.01H7.271zm-1.503.018c0-.824.654-1.527 1.505-1.527h10.578c.851 0 1.506.703 1.506 1.527v13.988c0 .824-.655 1.527-1.506 1.527H7.267c-.851 0-1.505-.703-1.505-1.527z" clip-rule="evenodd"/><path fill="currentColor" fill-rule="evenodd" d="M15.578 3.479a.75.75 0 0 1 .75.75v15.543a.75.75 0 0 1-1.5 0V4.229a.75.75 0 0 1 .75-.75M4.25 8.114a.75.75 0 0 1 .75-.75h3.022a.75.75 0 1 1 0 1.5H5a.75.75 0 0 1-.75-.75m0 3.886a.75.75 0 0 1 .75-.75h3.022a.75.75 0 0 1 0 1.5H5a.75.75 0 0 1-.75-.75m0 3.886a.75.75 0 0 1 .75-.75h3.022a.75.75 0 0 1 0 1.5H5a.75.75 0 0 1-.75-.75" clip-rule="evenodd"/></svg>