<svg xmlns="http://www.w3.org/2000/svg" width="40" height="40" fill="none" viewBox="0 0 40 40"><path fill="#fff" d="M24.705 34.923a5.946 5.946 0 0 1-8.886.155l-.16-.173a5.95 5.95 0 0 0-4.158-1.914l-.235-.009a5.946 5.946 0 0 1-5.662-6.85l.036-.233a5.95 5.95 0 0 0-1.096-4.444l-.14-.19a5.946 5.946 0 0 1 1.826-8.697l.204-.117a5.95 5.95 0 0 0 2.791-3.628l.06-.227a5.946 5.946 0 0 1 7.94-3.996l.218.087a5.95 5.95 0 0 0 4.577-.08l.216-.094a5.946 5.946 0 0 1 8.073 3.716l.068.224a5.95 5.95 0 0 0 2.917 3.53l.208.109a5.946 5.946 0 0 1 2.128 8.629l-.133.193a5.95 5.95 0 0 0-.94 4.48l.043.232a5.946 5.946 0 0 1-5.419 7.044l-.234.016a5.95 5.95 0 0 0-4.09 2.058z"/><path stroke="#1c7731" stroke-linecap="round" stroke-linejoin="round" stroke-width="2" d="m13.75 20 4.167 4.166 8.333-8.333"/></svg>