<svg width="20" height="20" viewBox="0 0 20 20" fill="none" xmlns="http://www.w3.org/2000/svg">
<path d="M7.60011 14.0002H6.00008C4.93919 14.0002 3.92176 13.5787 3.1716 12.8286C2.42144 12.0784 2 11.061 2 10.0001C2 8.93919 2.42144 7.92176 3.1716 7.1716C3.92176 6.42144 4.93919 6 6.00008 6H7.60011" stroke="currentColor" stroke-width="1.5" stroke-linecap="round" stroke-linejoin="round"/>
<path d="M12.3994 6H13.9994C15.0603 6 16.0778 6.42144 16.8279 7.1716C17.5781 7.92176 17.9995 8.93919 17.9995 10.0001C17.9995 11.061 17.5781 12.0784 16.8279 12.8286C16.0778 13.5787 15.0603 14.0002 13.9994 14.0002H12.3994" stroke="currentColor" stroke-width="1.5" stroke-linecap="round" stroke-linejoin="round"/>
<path d="M6.7998 10H13.1999" stroke="currentColor" stroke-width="1.5" stroke-linecap="round" stroke-linejoin="round"/>
</svg>
