<svg xmlns="http://www.w3.org/2000/svg" viewBox="0 0 24 24" role="presentation" aria-hidden="true"><path fill-rule="evenodd" clip-rule="evenodd" d="M13.2 6.6a.6.6 0 0 1 .6-.6h3.6a.6.6 0 0 1 .6.6v3.6a.6.6 0 1 1-1.2 0V8.049l-4.976 4.975a.6.6 0 1 1-.848-.848L15.95 7.2H13.8a.6.6 0 0 1-.6-.6Zm-5.743.6C6.652 7.2 6 7.852 6 8.657v7.886C6 17.348 6.652 18 7.457 18h7.886c.805 0 1.457-.652 1.457-1.457V12.6a.6.6 0 1 0-1.2 0v3.943a.257.257 0 0 1-.257.257H7.457a.257.257 0 0 1-.257-.257V8.657c0-.142.115-.257.257-.257H11.4a.6.6 0 1 0 0-1.2H7.457Z" fill="currentColor"/></svg>