<svg xmlns="http://www.w3.org/2000/svg" aria-hidden="true" viewBox="0 0 16 14"><path fill="currentColor" fill-rule="evenodd" d="M3.889 1.5a1 1 0 0 1 1-1h10a1 1 0 1 1 0 2h-10a1 1 0 0 1-1-1m0 5.5a1 1 0 0 1 1-1h10a1 1 0 1 1 0 2h-10a1 1 0 0 1-1-1m0 5.5a1 1 0 0 1 1-1h10a1 1 0 1 1 0 2h-10a1 1 0 0 1-1-1M0 1.5a1 1 0 0 1 .998-1h.004a1 1 0 0 1 0 2H.998A1 1 0 0 1 0 1.5M0 7a1 1 0 0 1 .998-1h.004a1 1 0 0 1 0 2H.998A1 1 0 0 1 0 7m0 5.5a1 1 0 0 1 .998-1h.004a1 1 0 0 1 0 2H.998a1 1 0 0 1-.998-1" clip-rule="evenodd"/></svg>