<svg xmlns="http://www.w3.org/2000/svg" width="12" height="12" fill="none" viewBox="0 0 12 12"><rect width="12" height="12" fill="currentColor" rx="6"/><path fill="#fff" stroke="#fff" stroke-width=".075" d="M6.003 2.963a1.37 1.37 0 0 1 1.37 1.37v.63h.852a.48.48 0 0 1 .482.481v3.112a.483.483 0 0 1-.482.481H3.78a.48.48 0 0 1-.481-.481V5.444a.48.48 0 0 1 .481-.481h.852v-.63a1.37 1.37 0 0 1 1.37-1.37ZM3.818 8.518h4.37V5.482h-4.37zm2.185-1.89a.371.371 0 1 1-.001.743.371.371 0 0 1 0-.742Zm0-3.146a.85.85 0 0 0-.852.851v.63h1.703v-.63a.85.85 0 0 0-.851-.85Z"/></svg>