<svg xmlns="http://www.w3.org/2000/svg" aria-hidden="true" viewBox="0 0 24 24"><path fill="currentColor" fill-rule="evenodd" d="M7.656 10.957c-.69 0-1.25.56-1.25 1.25v6c0 .69.56 1.25 1.25 1.25h10c.69 0 1.25-.56 1.25-1.25v-6c0-.69-.56-1.25-1.25-1.25zm-2.75 1.25a2.75 2.75 0 0 1 2.75-2.75h10a2.75 2.75 0 0 1 2.75 2.75v6a2.75 2.75 0 0 1-2.75 2.75h-10a2.75 2.75 0 0 1-2.75-2.75z" clip-rule="evenodd"/><path fill="currentColor" fill-rule="evenodd" d="M12.656 16.286a.214.214 0 1 0 0 .428.214.214 0 0 0 0-.428m-1.5.214a1.5 1.5 0 1 1 3 0 1.5 1.5 0 0 1-3 0m1.5-11.959a3.284 3.284 0 0 0-3.283 3.283v1.834a.75.75 0 0 1-1.5 0V7.824a4.783 4.783 0 1 1 9.567 0v1.834a.75.75 0 0 1-1.5 0V7.824a3.283 3.283 0 0 0-3.284-3.283" clip-rule="evenodd"/></svg>