<svg xmlns="http://www.w3.org/2000/svg" aria-hidden="true" viewBox="0 0 16 16"><path fill="currentColor" d="M11.215 6.107a1.077 1.077 0 0 1 1.065 1.075v5.399a1.077 1.077 0 0 1-1.065 1.086H4.74a1.03 1.03 0 0 1-.759-.316 1.03 1.03 0 0 1-.315-.77v-5.4a1.03 1.03 0 0 1 .315-.768 1.03 1.03 0 0 1 .76-.315h.541V5.033a2.6 2.6 0 0 1 .21-1.06 2.7 2.7 0 0 1 .57-.853 2.7 2.7 0 0 1 1.91-.786 2.6 2.6 0 0 1 1.063.21c.322.133.615.329.86.576.241.246.435.535.57.852.144.336.215.697.212 1.061v1.074zM9.644 5.033a1.664 1.664 0 0 0-1.67-1.67 1.62 1.62 0 0 0-1.18.487 1.6 1.6 0 0 0-.491 1.183v1.074h3.34zm-.907 5.608a1.07 1.07 0 0 0 0-1.517 1.05 1.05 0 0 0-.77-.317 1.074 1.074 0 0 0-.407 2.065c.131.053.272.078.413.075a1.06 1.06 0 0 0 .769-.306z"/></svg>