<svg width="20" height="20" viewBox="0 0 20 20" fill="none" xmlns="http://www.w3.org/2000/svg">
<path d="M13.5328 6.9834H6.46777C5.08706 6.9834 3.96777 8.10269 3.96777 9.4834V15.2084C3.96777 16.5891 5.08706 17.7084 6.46777 17.7084H13.5328C14.9135 17.7084 16.0328 16.5891 16.0328 15.2084V9.4834C16.0328 8.10269 14.9135 6.9834 13.5328 6.9834Z" stroke="currentColor" stroke-width="1.5" stroke-linecap="round" stroke-linejoin="round"/>
<path d="M12.681 6.98366V4.97283C12.681 4.26182 12.3986 3.57994 11.8958 3.07719C11.3931 2.57444 10.7112 2.29199 10.0002 2.29199C9.28917 2.29199 8.60729 2.57444 8.10453 3.07719C7.60178 3.57994 7.31934 4.26182 7.31934 4.97283V6.98366" stroke="currentColor" stroke-width="1.5" stroke-linecap="round" stroke-linejoin="round"/>
<path d="M10 13.5957C10.6904 13.5957 11.25 13.0361 11.25 12.3457C11.25 11.6553 10.6904 11.0957 10 11.0957C9.30964 11.0957 8.75 11.6553 8.75 12.3457C8.75 13.0361 9.30964 13.5957 10 13.5957Z" fill="currentColor"/>
</svg>
