<svg xmlns="http://www.w3.org/2000/svg" width="20" height="20" fill="none" viewBox="0 0 20 20"><path stroke="currentColor" stroke-linecap="round" stroke-linejoin="round" stroke-width="1.5" d="M13.533 6.983H6.468a2.5 2.5 0 0 0-2.5 2.5v5.725a2.5 2.5 0 0 0 2.5 2.5h7.065a2.5 2.5 0 0 0 2.5-2.5V9.483a2.5 2.5 0 0 0-2.5-2.5"/><path stroke="currentColor" stroke-linecap="round" stroke-linejoin="round" stroke-width="1.5" d="M12.681 6.984V4.973a2.68 2.68 0 1 0-5.362 0v2.01"/><path fill="currentColor" d="M10 13.596a1.25 1.25 0 1 0 0-2.5 1.25 1.25 0 0 0 0 2.5"/></svg>