<svg xmlns="http://www.w3.org/2000/svg" viewBox="0 0 24 24" role="presentation" aria-hidden="true"><path d="M4.75 7a.625.625 0 0 1 .626-.625h1.25v-1.25a.625.625 0 0 1 1.25 0v1.25h1.25a.625.625 0 0 1 0 1.25h-1.25v1.25a.625.625 0 1 1-1.25 0v-1.25h-1.25A.625.625 0 0 1 4.75 7Zm10.626 10h-.625v-.625a.625.625 0 0 0-1.25 0V17h-.625a.624.624 0 1 0 0 1.25h.625v.625a.624.624 0 1 0 1.25 0v-.625h.625a.624.624 0 1 0 0-1.25Zm4.375-3.75H18.5V12a.625.625 0 0 0-1.25 0v1.25H16a.624.624 0 1 0 0 1.25h1.25v1.25a.624.624 0 1 0 1.25 0V14.5h1.25a.624.624 0 1 0 0-1.25Zm-1.617-5L7.251 19.134a1.25 1.25 0 0 1-1.768 0l-1.617-1.616a1.25 1.25 0 0 1 0-1.768L14.751 4.866a1.25 1.25 0 0 1 1.768 0l1.615 1.616a1.25 1.25 0 0 1 0 1.768Zm-4.268 2.5-1.615-1.616-7.5 7.5 1.615 1.616 7.5-7.5Zm3.385-3.384L15.634 5.75l-2.5 2.5 1.617 1.616 2.5-2.5Z" fill="currentColor"/></svg>