<svg xmlns="http://www.w3.org/2000/svg" viewBox="0 0 32 32" role="presentation" aria-hidden="true"><path fill-rule="evenodd" clip-rule="evenodd" d="M13.427 9.572a.643.643 0 0 1 .618.466l.697 2.44a3.214 3.214 0 0 0 2.208 2.208l2.44.697a.642.642 0 0 1 0 1.236l-2.44.697a3.214 3.214 0 0 0-2.208 2.208l-.697 2.44a.643.643 0 0 1-1.236 0l-.697-2.44a3.216 3.216 0 0 0-2.208-2.208l-2.44-.697a.643.643 0 0 1 0-1.236l2.44-.697a3.215 3.215 0 0 0 2.208-2.208l.697-2.44a.643.643 0 0 1 .618-.466ZM21.142 7a.643.643 0 0 1 .624.487l.221.888a2.254 2.254 0 0 0 1.638 1.637l.888.221a.642.642 0 0 1 0 1.248l-.888.222a2.254 2.254 0 0 0-1.638 1.637l-.22.888a.643.643 0 0 1-1.249 0l-.221-.888a2.25 2.25 0 0 0-1.637-1.637l-.889-.221a.643.643 0 0 1 0-1.249l.889-.22a2.25 2.25 0 0 0 1.637-1.638l.221-.888A.643.643 0 0 1 21.142 7Zm-1.286 11.572a.642.642 0 0 1 .61.44l.338 1.014c.129.383.429.685.813.813l1.014.338a.643.643 0 0 1 0 1.22l-1.014.338a1.287 1.287 0 0 0-.813.813l-.338 1.014a.643.643 0 0 1-1.22 0l-.338-1.014a1.287 1.287 0 0 0-.813-.813l-1.014-.339a.644.644 0 0 1 0-1.219l1.015-.338c.383-.129.684-.429.812-.813l.339-1.014a.642.642 0 0 1 .61-.44Z" fill="url(#a)"/><defs><linearGradient id="a" x1="8.5" y1="16" x2="25.658" y2="10.783" gradientUnits="userSpaceOnUse"><stop stop-color="#FF9645"/><stop offset=".153" stop-color="#FF6471"/><stop offset=".468" stop-color="#CF6EBD"/><stop offset=".671" stop-color="#A477D1"/><stop offset="1" stop-color="#3E64DE"/></linearGradient></defs></svg>