<svg width="20" height="20" viewBox="0 0 20 20" fill="none" xmlns="http://www.w3.org/2000/svg">
<path d="M8.54501 12.9091L4.90865 9.27273L5.227 8.95211C5.61712 8.55923 6.25221 8.55811 6.64371 8.94961L8.54501 10.8509L13.3554 6.04052C13.7469 5.64902 14.382 5.65014 14.7721 6.04302L15.0905 6.36364M15.0905 2H4.90865C4.10137 2 3.4541 2.64727 3.4541 3.45455V12.8582C3.4541 13.36 3.70865 13.8036 4.0941 14.0655L8.88995 17.2607C9.56187 17.7084 10.4371 17.7081 11.1087 17.2601L15.8977 14.0655C16.2832 13.8036 16.545 13.36 16.545 12.8582V3.45455C16.545 3.06878 16.3918 2.69881 16.119 2.42603C15.8462 2.15325 15.4762 2 15.0905 2Z" fill="currentColor"/>
</svg>
