<svg xmlns="http://www.w3.org/2000/svg" aria-hidden="true" viewBox="0 0 16 16"><path fill="currentColor" fill-rule="evenodd" d="M8 13.667A5.667 5.667 0 1 0 8 2.333a5.667 5.667 0 0 0 0 11.334M5.189 8.285a.3.3 0 0 0 .063.097l2.007 2q.041.046.097.073a.32.32 0 0 0 .247 0 .3.3 0 0 0 .096-.073l3.555-3.537a.3.3 0 0 0 .063-.096.36.36 0 0 0 0-.247.3.3 0 0 0-.063-.096l-.447-.435a.28.28 0 0 0-.21-.096.3.3 0 0 0-.223.096L7.482 8.864l-1.348-1.35a.3.3 0 0 0-.102-.072.29.29 0 0 0-.334.072l-.446.428a.3.3 0 0 0-.063.097.36.36 0 0 0 0 .246" clip-rule="evenodd"/></svg>