<svg xmlns="http://www.w3.org/2000/svg" aria-hidden="true" viewBox="0 0 16 16"><path fill="currentColor" fill-rule="evenodd" d="M5.333 3.556A.444.444 0 0 0 4.89 4v8c0 .245.199.444.444.444h5.334A.444.444 0 0 0 11.11 12V6.667H9.333A1.333 1.333 0 0 1 8 5.333V3.556zm3.556.628 1.594 1.594h-1.15a.444.444 0 0 1-.444-.445zM4 4c0-.736.597-1.333 1.333-1.333h3.111c.118 0 .231.046.315.13l3.11 3.11a.45.45 0 0 1 .131.315V12c0 .736-.597 1.333-1.333 1.333H5.333A1.333 1.333 0 0 1 4 12zm2.222 4.889c0-.246.2-.445.445-.445H8a.444.444 0 0 1 0 .89H6.667a.444.444 0 0 1-.445-.445m0 1.778c0-.246.2-.445.445-.445h2.666a.444.444 0 1 1 0 .89H6.667a.444.444 0 0 1-.445-.445" clip-rule="evenodd"/></svg>