<svg width="20" height="20" viewBox="0 0 20 20" fill="none" xmlns="http://www.w3.org/2000/svg">
<path d="M8.33594 13.3333C8.7526 13.5833 9.33594 13.75 10.0026 13.75C10.6693 13.75 11.2526 13.5833 11.6693 13.3333M12.5026 10H12.5109" stroke="currentColor" stroke-width="1.4" stroke-linecap="round" stroke-linejoin="round"/>
<path d="M16.1481 5.6775C16.7324 6.527 17.1352 7.48783 17.3315 8.5C17.6132 8.63647 17.8509 8.84956 18.0172 9.11485C18.1835 9.38014 18.2716 9.68691 18.2716 10C18.2716 10.3131 18.1835 10.6199 18.0172 10.8851C17.8509 11.1504 17.6132 11.3635 17.3315 11.5C16.9717 13.1779 16.0474 14.6817 14.7129 15.7604C13.3783 16.8392 11.7142 17.4277 9.99813 17.4277C8.28209 17.4277 6.61795 16.8392 5.28339 15.7604C3.94882 14.6817 3.02455 13.1779 2.66479 11.5C2.38301 11.3635 2.14536 11.1504 1.97908 10.8851C1.8128 10.6199 1.72461 10.3131 1.72461 10C1.72461 9.68691 1.8128 9.38014 1.97908 9.11485C2.14536 8.84956 2.38301 8.63647 2.66479 8.5C3.01001 6.80875 3.92804 5.28835 5.26398 4.19531C6.59993 3.10226 8.27201 2.50348 9.99813 2.5C11.6648 2.5 12.9148 3.41667 12.9148 4.58333C12.9148 5.75 12.1648 6.66667 11.2481 6.66667C10.5815 6.66667 9.99813 6.33333 9.99813 5.83333M7.49813 10H7.50646" stroke="currentColor" stroke-width="1.4" stroke-linecap="round" stroke-linejoin="round"/>
</svg>
