<svg xmlns="http://www.w3.org/2000/svg" width="20" height="20" fill="none" viewBox="0 0 20 20"><path stroke="currentColor" stroke-linecap="round" stroke-linejoin="round" stroke-width="1.4" d="M8.336 13.333c.417.25 1 .417 1.667.417.666 0 1.25-.167 1.666-.417M12.503 10h.008"/><path stroke="currentColor" stroke-linecap="round" stroke-linejoin="round" stroke-width="1.4" d="M16.148 5.678A7.5 7.5 0 0 1 17.331 8.5a1.667 1.667 0 0 1 0 3 7.5 7.5 0 0 1-14.666 0 1.667 1.667 0 0 1 0-3 7.5 7.5 0 0 1 7.333-6c1.667 0 2.917.917 2.917 2.083s-.75 2.084-1.667 2.084c-.666 0-1.25-.334-1.25-.834M7.498 10h.008"/></svg>