<svg xmlns="http://www.w3.org/2000/svg" width="20" height="20" fill="none" viewBox="0 0 20 20"><path fill="currentColor" d="M3.333 15a.8.8 0 0 1-.593-.24.8.8 0 0 1-.24-.593q0-.354.24-.594t.593-.24h13.334q.354 0 .594.24t.239.594-.24.594a.8.8 0 0 1-.593.239zm0-4.167a.8.8 0 0 1-.593-.24A.8.8 0 0 1 2.5 10q0-.354.24-.593.24-.24.593-.24h13.334q.354 0 .594.24T17.5 10t-.24.594a.8.8 0 0 1-.593.24zm0-4.166a.8.8 0 0 1-.593-.24.8.8 0 0 1-.24-.594q0-.353.24-.593T3.333 5h13.334q.354 0 .594.24t.239.593-.24.595a.8.8 0 0 1-.593.239z"/></svg>