<svg xmlns="http://www.w3.org/2000/svg" viewBox="0 0 24 24" role="presentation" aria-hidden="true"><path d="M14.75 17.958a.542.542 0 0 1-.542.542H9.875a.542.542 0 0 1 0-1.083h4.333a.542.542 0 0 1 .542.541Zm4.333-10.833v7.583a1.625 1.625 0 0 1-1.625 1.625H6.625A1.625 1.625 0 0 1 5 14.708V7.125A1.625 1.625 0 0 1 6.625 5.5h10.833a1.625 1.625 0 0 1 1.625 1.625Zm-4.604 3.792a.543.543 0 0 0-.251-.457l-2.98-1.896a.542.542 0 0 0-.831.457v3.791a.541.541 0 0 0 .832.458l2.979-1.896a.542.542 0 0 0 .251-.457Z" fill="currentColor"/></svg>