<svg xmlns="http://www.w3.org/2000/svg" aria-hidden="true" viewBox="0 0 48 48"><path fill="currentColor" fill-rule="evenodd" d="m37.589 13.564-.478-.478-6.265-6.265-.479-.479A1.16 1.16 0 0 0 29.542 6H11.53A1.53 1.53 0 0 0 10 7.529V40.47A1.53 1.53 0 0 0 11.529 42h24.873a1.53 1.53 0 0 0 1.529-1.529V14.39c0-.311-.121-.604-.342-.825Zm-1.87-.116h-5.236V8.213zm.97 27.023a.287.287 0 0 1-.287.288H11.53a.29.29 0 0 1-.288-.288v-9.023H36.69zM11.242 30.207V7.529c0-.159.13-.288.288-.288h17.748a1 1 0 0 0-.036.244v7.205h7.205a1 1 0 0 0 .244-.036v15.553H11.24Zm5.54 5.008 1.41 3.48h.9l1.399-3.48v4.302h1.035v-6.254H20.49l-1.85 4.277-1.858-4.277h-1.036v6.254h1.036zm8.071 2.045h-.755v2.257h-1.019v-6.254h1.8q.398 0 .788.128.39.127.7.381.31.255.501.615a1.7 1.7 0 0 1 .192.811q0 .475-.162.861a1.8 1.8 0 0 1-.45.65 2 2 0 0 1-.696.407 2.7 2.7 0 0 1-.899.144m.008-3.225h-.763v2.478h.933q.187 0 .37-.064a.9.9 0 0 0 .335-.208q.152-.144.245-.403a1.9 1.9 0 0 0 .051-.993 1 1 0 0 0-.543-.687q-.238-.123-.628-.123m4.761 4.795a5 5 0 0 1-.628-.03 1.7 1.7 0 0 1-.356-.076.8.8 0 0 1-.195-.097 1 1 0 0 0-.144-.094l-.23.73q.162.102.574.2.412.096 1.124.097.102 0 .285-.017a2.5 2.5 0 0 0 .402-.076q.221-.06.454-.182a1.54 1.54 0 0 0 .73-.84 2 2 0 0 0 .123-.734 1.5 1.5 0 0 0-.416-1.07 1.4 1.4 0 0 0-.386-.288 1.3 1.3 0 0 0-.403-.127q.153-.035.331-.14a1.38 1.38 0 0 0 .56-.645q.094-.216.094-.48 0-.45-.157-.78a1.5 1.5 0 0 0-.425-.543 1.7 1.7 0 0 0-.624-.31 3 3 0 0 0-.755-.098q-.57 0-.87.068t-.504.127l.297.764q.119-.043.352-.115a2.2 2.2 0 0 1 .624-.072q.39 0 .61.09.221.088.336.233.114.143.14.314.025.17.025.322 0 .382-.11.586a.66.66 0 0 1-.28.288.9.9 0 0 1-.36.093 10 10 0 0 1-.378.01h-.577l.008.686h.858q.51 0 .772.314.263.314.263.773 0 .484-.289.801-.288.319-.875.318m-5.345-28.548c.065.286.588 2.238 3.018 4.182.625.5 1.08.964 1.432 1.458.847 1.188 2.12 3.68 1.11 7.017a.62.62 0 1 1-1.189-.36c.606-2.001-1.798-3.774-3.238-4.835l-.004-.003c-.41-.301-.733-.54-.944-.748l-.185-.15v7.12a3.91 3.91 0 0 1-3.907 3.907c-2.151 0-3.541-1.39-3.541-3.542 0-1.959 1.497-3.176 3.906-3.176h2.3V9.725a.62.62 0 1 1 1.242 0zM20.37 26.629a2.67 2.67 0 0 0 2.665-2.666v-1.57h-2.3c-1.216 0-2.665.337-2.665 1.935 0 1.462.838 2.3 2.3 2.3Zm5.742-9.908.03.022c.77.567 1.86 1.37 2.684 2.37a6.7 6.7 0 0 0-1.11-2.47c-.284-.398-.665-.783-1.197-1.21a11.5 11.5 0 0 1-2.242-2.348v2.155l1.014.832c.184.178.48.396.82.649Z" clip-rule="evenodd"/></svg>