<svg xmlns="http://www.w3.org/2000/svg" aria-hidden="true" viewBox="0 0 48 48"><path fill="currentColor" fill-rule="evenodd" d="m37.59 13.564-.478-.478-6.267-6.266h-.001l-.477-.477A1.17 1.17 0 0 0 29.542 6H11.53C10.793 6 10 6.569 10 7.816V40.76c0 .52.523 1.026 1.141 1.185l.037.011q.027.01.055.015.147.03.296.03h24.873q.15 0 .295-.03.028-.006.055-.015.018-.007.037-.01c.619-.16 1.142-.666 1.142-1.186V14.676c0-.475-.057-.827-.341-1.112m-5.245 5.47c0 4.45-3.62 8.07-8.07 8.07-4.448 0-8.068-3.62-8.068-8.07 0-4.449 3.62-8.068 8.069-8.068a8.07 8.07 0 0 1 4.965 1.713v2.01h1.831a8 8 0 0 1 1.273 4.346m-.943-5.586h-.92V8.213l5.236 5.235zM11.409 40.73h-.003a.29.29 0 0 1-.165-.258v-9.023H36.69v9.023c0 .114-.068.21-.165.257l-.002.001a.3.3 0 0 1-.12.03H11.528a.3.3 0 0 1-.12-.03m-.168-10.522V7.817c0-.136.02-.576.288-.576h17.748a1 1 0 0 0-.036.244v3.688a9.3 9.3 0 0 0-4.965-1.449c-5.134 0-9.31 4.177-9.31 9.31s4.176 9.31 9.31 9.31 9.31-4.176 9.31-9.31c0-1.53-.377-3.01-1.085-4.344h3.945a1 1 0 0 0 .242-.036v.01l.001.012v15.53zm7.4 7.333-1.86-4.277h-1.035v6.254h1.036v-4.302l1.408 3.48h.9l1.4-3.48v4.302h1.035v-6.254H20.49zm7.025-4.15q.39.128.7.382.31.255.501.615.192.361.192.811 0 .476-.162.861a1.8 1.8 0 0 1-.45.65 2 2 0 0 1-.696.407 2.7 2.7 0 0 1-.899.144h-.755v2.257h-1.019v-6.254h1.8q.398 0 .788.128m.069 2.851q.152-.144.245-.402a1.9 1.9 0 0 0 .051-.994 1 1 0 0 0-.173-.381 1 1 0 0 0-.37-.306q-.238-.123-.628-.123h-.763v2.478h.933q.187 0 .37-.064a.9.9 0 0 0 .335-.208m5.769-2.978h-1.035l-2.707 3.989v.806h2.707v1.46h1.035v-1.46h.654v-.806h-.654zm-1.035 3.989H28.67l1.799-2.8zm-8.343-23.086 6.828 4.345a.622.622 0 0 1 0 1.047l-6.828 4.345a.62.62 0 0 1-.631.02.62.62 0 0 1-.323-.544v-8.69a.622.622 0 0 1 .954-.523m.288 1.654v6.43l5.05-3.215z" clip-rule="evenodd"/></svg>