<svg xmlns="http://www.w3.org/2000/svg" viewBox="0 0 48 48" role="presentation" aria-hidden="true"><path fill-rule="evenodd" clip-rule="evenodd" d="m37.589 13.564-.478-.478-6.265-6.265-.479-.479A1.159 1.159 0 0 0 29.542 6H11.53A1.53 1.53 0 0 0 10 7.529V40.47A1.53 1.53 0 0 0 11.529 42h24.873a1.53 1.53 0 0 0 1.529-1.529V14.39c0-.311-.121-.604-.342-.825Zm-1.87-.116h-5.236V8.213l5.235 5.235Zm.97 27.023c0 .159-.128.288-.287.288H11.53a.288.288 0 0 1-.288-.288v-9.023H36.69v9.023ZM11.242 30.207V7.529c0-.159.13-.288.288-.288h17.748a.956.956 0 0 0-.036.244v7.205h7.205a.97.97 0 0 0 .244-.036v15.553H11.24Zm5.54 5.008 1.41 3.48h.9l1.399-3.48v4.302h1.035v-6.254H20.49l-1.85 4.277-1.858-4.277h-1.036v6.254h1.036v-4.302Zm8.071 2.045h-.755v2.257h-1.019v-6.254h1.8c.265 0 .528.043.788.128.26.084.494.212.7.381.207.17.374.375.501.615.128.241.192.511.192.811 0 .317-.054.604-.162.861a1.808 1.808 0 0 1-.45.65 2.02 2.02 0 0 1-.696.407 2.677 2.677 0 0 1-.899.144Zm.008-3.225h-.763v2.478h.933c.124 0 .248-.022.37-.064a.932.932 0 0 0 .335-.208c.102-.096.183-.23.245-.403a1.91 1.91 0 0 0 .051-.993 1.008 1.008 0 0 0-.543-.687c-.158-.082-.368-.123-.628-.123Zm4.761 4.795a5.15 5.15 0 0 1-.628-.03 1.727 1.727 0 0 1-.356-.076.797.797 0 0 1-.195-.097 1.355 1.355 0 0 0-.144-.094l-.23.73c.108.068.299.135.574.2.275.064.649.097 1.124.097.068 0 .163-.006.285-.017a2.47 2.47 0 0 0 .402-.076c.148-.04.298-.1.454-.182a1.543 1.543 0 0 0 .73-.84c.082-.207.123-.452.123-.734a1.495 1.495 0 0 0-.416-1.07 1.378 1.378 0 0 0-.386-.288 1.283 1.283 0 0 0-.403-.127c.102-.023.212-.07.331-.14a1.38 1.38 0 0 0 .56-.645c.063-.144.094-.304.094-.48 0-.3-.052-.56-.157-.78a1.498 1.498 0 0 0-.425-.543 1.715 1.715 0 0 0-.624-.31 2.867 2.867 0 0 0-.755-.098c-.379 0-.67.023-.87.068-.2.045-.369.088-.504.127l.297.764c.08-.029.196-.067.352-.115a2.17 2.17 0 0 1 .624-.072c.26 0 .463.03.61.09.147.059.26.136.336.233.076.096.123.2.14.314.017.113.025.22.025.322 0 .255-.037.45-.11.586a.66.66 0 0 1-.28.288.877.877 0 0 1-.36.093 9.834 9.834 0 0 1-.378.01h-.577l.008.686h.858c.34 0 .597.105.772.314.175.21.263.467.263.773 0 .322-.096.59-.289.801-.192.213-.484.318-.875.318Zm-5.345-28.548c.065.286.588 2.238 3.018 4.182.625.5 1.08.964 1.432 1.458.847 1.188 2.12 3.68 1.11 7.017a.62.62 0 1 1-1.189-.36c.606-2.001-1.798-3.774-3.238-4.835l-.004-.003c-.41-.301-.733-.54-.944-.748l-.185-.15v7.12a3.91 3.91 0 0 1-3.907 3.907c-2.151 0-3.541-1.39-3.541-3.542 0-1.959 1.497-3.176 3.906-3.176h2.3V9.725a.62.62 0 1 1 1.242 0v.557Zm-3.907 16.347a2.668 2.668 0 0 0 2.665-2.666v-1.57h-2.3c-1.216 0-2.665.337-2.665 1.935 0 1.462.838 2.3 2.3 2.3Zm5.742-9.908.03.022c.77.567 1.86 1.37 2.684 2.37a6.722 6.722 0 0 0-1.11-2.47c-.284-.398-.665-.783-1.197-1.21-1.009-.807-1.729-1.62-2.242-2.348v2.155l1.014.832c.184.178.48.396.82.649Z" fill="currentColor"/></svg>