<svg width="12" height="12" viewBox="0 0 12 12" fill="none" xmlns="http://www.w3.org/2000/svg">
<path d="M2.86523 5.94983C3.23903 5.86303 3.47843 5.88153 3.82129 5.94983L3.81836 5.95178C4.32526 6.04328 4.79773 6.28111 5.18359 6.64026C5.06544 6.7352 4.95259 6.83821 4.8457 6.94885C4.36258 7.44903 4.03213 8.08568 3.88184 8.76917H0.821289C0.69434 8.76911 0.590672 8.66527 0.600586 8.5387C0.653453 7.86515 0.936845 7.22174 1.40039 6.74182C1.80234 6.3258 2.31596 6.05364 2.86816 5.95276L2.86523 5.94983ZM3.3457 2.95374C4.08041 2.95374 4.67676 3.5491 4.67676 4.28381C4.67673 5.0185 4.08039 5.61389 3.3457 5.61389C2.61115 5.61373 2.01565 5.0184 2.01562 4.28381C2.01562 3.5492 2.61113 2.9539 3.3457 2.95374Z" fill="currentColor"/>
<path d="M7.81513 5.67691C6.85454 5.67691 6.07583 4.8982 6.07583 3.93761C6.07583 2.97702 6.85454 2.1983 7.81513 2.1983C8.77572 2.1983 9.55444 2.97702 9.55444 3.93761C9.55444 4.8982 8.77572 5.67691 7.81513 5.67691Z" fill="currentColor"/>
<path d="M11.1097 9.80168C11.2758 9.80168 11.4116 9.66687 11.3988 9.50132C11.3308 8.62047 10.9658 7.77915 10.3596 7.15154C9.68476 6.4529 8.7695 6.0604 7.81517 6.0604C6.86083 6.0604 5.94559 6.4529 5.27077 7.15154C4.66456 7.77915 4.29446 8.62047 4.22547 9.50133C4.2125 9.66686 4.34831 9.80168 4.51435 9.80168L11.1097 9.80168Z" fill="currentColor"/>
<path d="M7.18652 6.11568L7.60302 6.53218L7.29065 8.74169L7.81127 9.26232L8.3319 8.74169L8.01952 6.53218L8.43602 6.11568C7.98775 6.02639 7.67525 6.00219 7.18652 6.11568Z" fill="white"/>
</svg>
