<svg xmlns="http://www.w3.org/2000/svg" width="12" height="12" fill="none" viewBox="0 0 12 12"><path fill="currentColor" d="M2.865 5.95c.374-.087.613-.068.956 0l-.003.002c.507.091.98.33 1.366.688a4 4 0 0 0-.338.309 3.8 3.8 0 0 0-.964 1.82H.822A.217.217 0 0 1 .6 8.54a2.93 2.93 0 0 1 .8-1.797 2.72 2.72 0 0 1 1.467-.79zm.48-2.996a1.33 1.33 0 1 1 .001 2.661 1.33 1.33 0 0 1 0-2.661m4.469 2.723a1.74 1.74 0 1 1 0-3.479 1.74 1.74 0 0 1 0 3.479m3.295 4.125a.283.283 0 0 0 .289-.3 3.8 3.8 0 0 0-1.04-2.35A3.54 3.54 0 0 0 7.816 6.06c-.954 0-1.87.393-2.544 1.092a3.82 3.82 0 0 0-1.046 2.35c-.012.165.123.3.29.3z"/><path fill="#fff" d="m7.187 6.116.416.416-.312 2.21.52.52.52-.52-.311-2.21.416-.416c-.448-.09-.76-.114-1.25 0"/></svg>