<svg xmlns="http://www.w3.org/2000/svg" width="20" height="20" fill="none" viewBox="0 0 20 20"><path fill="currentColor" d="M4.776 9.916c.623-.145 1.022-.114 1.593 0l-.003.002a4.53 4.53 0 0 1 2.28 1.146q-.3.24-.57.518a6.3 6.3 0 0 0-1.61 3.033H1.37a.36.36 0 0 1-.368-.383 4.88 4.88 0 0 1 1.333-2.995A4.54 4.54 0 0 1 4.78 9.92zm.801-4.993a2.217 2.217 0 1 1 0 4.433 2.217 2.217 0 0 1 0-4.433M14.058 10.195a5.93 5.93 0 0 1 3.209 1.725c1.01 1.046 1.618 2.448 1.732 3.916a.47.47 0 0 1-.482.5H7.525a.47.47 0 0 1-.482-.5 6.37 6.37 0 0 1 1.743-3.916 5.93 5.93 0 0 1 3.196-1.723l.69.69-.52 3.682.868.868.867-.868-.52-3.683zm-1.032-6.531a2.899 2.899 0 1 1 0 5.797 2.899 2.899 0 0 1 0-5.797"/></svg>