<svg xmlns="http://www.w3.org/2000/svg" width="20" height="20" fill="none" viewBox="0 0 20 20"><path stroke="currentColor" stroke-linecap="round" stroke-linejoin="round" stroke-width="1.25" d="M4.585 8.75v2.5c0 3.142 0 4.714.977 5.69.976.976 2.547.976 5.69.976 3.142 0 4.714 0 5.69-.976.976-.977.976-2.548.976-5.69v-2.5c0-3.143 0-4.714-.976-5.69-.977-.976-2.548-.977-5.69-.977s-4.715 0-5.69.977c-.976.976-.977 2.547-.977 5.69"/><path stroke="currentColor" stroke-linecap="round" stroke-linejoin="round" stroke-width="1.25" d="M4.585 8.75h-1.25a1.25 1.25 0 0 1 0-2.5h2.917m-1.667 8.333h-1.25a1.25 1.25 0 0 1 0-2.5h2.917m2.916-3.334h3.334M9.168 5.416h5.417"/></svg>