<svg xmlns="http://www.w3.org/2000/svg" width="20" height="20" fill="none" viewBox="0 0 20 20"><path fill="currentColor" d="M10.875 1.042c1.534 0 2.749 0 3.7.128.976.131 1.766.408 2.39 1.032.624.623.9 1.414 1.032 2.39.128.951.128 2.166.128 3.7v3.417c0 1.534 0 2.749-.128 3.7-.131.976-.408 1.766-1.032 2.39s-1.414.9-2.39 1.032c-.951.128-2.166.128-3.7.128h-.292c-1.534 0-2.749 0-3.7-.128-.976-.131-1.767-.408-2.39-1.032s-.9-1.414-1.032-2.39c-.128-.951-.128-2.167-.128-3.7V8.292c0-1.534 0-2.749.128-3.7.131-.976.408-1.767 1.032-2.39.623-.624 1.414-.9 2.39-1.032.951-.128 2.166-.128 3.7-.128zm-2.542 7.5a.625.625 0 0 0 0 1.25h2.917a.625.625 0 0 0 0-1.25zm0-3.333a.625.625 0 1 0 0 1.25h5.833a.625.625 0 1 0 0-1.25z"/><path fill="currentColor" d="M5.625 12.274c0-.443-.336-.803-.75-.803H2.679a.804.804 0 0 0 0 1.607h2.196c.414 0 .75-.36.75-.804m0-4.609c0-.444-.336-.804-.75-.804H2.679a.804.804 0 1 0 0 1.607h2.196c.414 0 .75-.36.75-.803"/></svg>