<svg xmlns="http://www.w3.org/2000/svg" aria-hidden="true" viewBox="0 0 48 48"><path fill="currentColor" fill-rule="evenodd" d="M14.529 9.977a.1.1 0 0 0-.006.034V37.99q0 .024.005.034l.012.02h21.142l.012-.02a.1.1 0 0 0 .006-.034V10.01a.1.1 0 0 0-.006-.034l-.012-.02H14.54l-.011.02m-3.006.034c0-1.646 1.308-3.054 3.01-3.054H35.69c1.703 0 3.011 1.408 3.011 3.054v27.98c0 1.646-1.308 3.054-3.01 3.054H14.533c-1.703 0-3.011-1.408-3.011-3.054z" clip-rule="evenodd"/><path fill="currentColor" fill-rule="evenodd" d="M31.156 6.957a1.5 1.5 0 0 1 1.5 1.5v31.086a1.5 1.5 0 0 1-3 0V8.457a1.5 1.5 0 0 1 1.5-1.5M8.5 16.229a1.5 1.5 0 0 1 1.5-1.5h6.044a1.5 1.5 0 0 1 0 3H10a1.5 1.5 0 0 1-1.5-1.5M8.5 24a1.5 1.5 0 0 1 1.5-1.5h6.044a1.5 1.5 0 0 1 0 3H10A1.5 1.5 0 0 1 8.5 24m0 7.772a1.5 1.5 0 0 1 1.5-1.5h6.044a1.5 1.5 0 0 1 0 3H10a1.5 1.5 0 0 1-1.5-1.5" clip-rule="evenodd"/></svg>