<svg xmlns="http://www.w3.org/2000/svg" width="17" height="16" fill="none" viewBox="0 0 17 16"><path stroke="currentColor" stroke-linecap="round" stroke-linejoin="round" d="M4.146 7v2c0 2.513 0 3.77.782 4.551.781.781 2.038.782 4.552.782s3.771 0 4.552-.782c.78-.781.781-2.038.781-4.552V7c0-2.514 0-3.771-.781-4.552s-2.038-.781-4.552-.781-3.772 0-4.552.781c-.78.782-.782 2.038-.782 4.552"/><path stroke="currentColor" stroke-linecap="round" stroke-linejoin="round" d="M4.146 6.999h-1a1 1 0 0 1 0-2H5.48m-1.334 6.666h-1a1 1 0 0 1 0-2H5.48M7.813 7h2.667M7.813 4.332h4.334"/></svg>