<svg width="20" height="20" viewBox="0 0 20 20" fill="none" xmlns="http://www.w3.org/2000/svg">
<path d="M8.61426 17.2002C8.75469 17.4434 8.95666 17.6454 9.19987 17.7858C9.44309 17.9262 9.71897 18.0001 9.99981 18.0001C10.2806 18.0001 10.5565 17.9262 10.7997 17.7858C11.043 17.6454 11.2449 17.4434 11.3854 17.2002" stroke="currentColor" stroke-width="1.5" stroke-linecap="round" stroke-linejoin="round"/>
<path d="M11.5326 2.25131C10.8106 2.00801 10.0411 1.94008 9.28762 2.05314C8.53417 2.16619 7.81846 2.45698 7.19966 2.90145C6.58087 3.34592 6.07677 3.93132 5.72905 4.60922C5.38134 5.28713 5.19999 6.03807 5.20001 6.79995C5.20001 10.399 4.07125 11.5646 3.00808 12.6613C2.90375 12.776 2.83498 12.9185 2.81014 13.0716C2.7853 13.2246 2.80546 13.3815 2.86818 13.5233C2.93089 13.6651 3.03345 13.7856 3.16339 13.8702C3.29332 13.9548 3.44503 13.9998 3.60006 13.9997H16.3996C16.5547 13.9998 16.7064 13.9548 16.8363 13.8702C16.9662 13.7856 17.0688 13.6651 17.1315 13.5233C17.1942 13.3815 17.2144 13.2246 17.1895 13.0716C17.1647 12.9185 17.0959 12.776 16.9916 12.6613C16.827 12.4918 16.6708 12.3143 16.5236 12.1294" stroke="currentColor" stroke-width="1.5" stroke-linecap="round" stroke-linejoin="round"/>
<path d="M14.7993 9.20022C16.1248 9.20022 17.1992 8.12575 17.1992 6.80031C17.1992 5.47487 16.1248 4.40039 14.7993 4.40039C13.4739 4.40039 12.3994 5.47487 12.3994 6.80031C12.3994 8.12575 13.4739 9.20022 14.7993 9.20022Z" stroke="currentColor" stroke-width="1.5" stroke-linecap="round" stroke-linejoin="round"/>
</svg>
