<svg xmlns="http://www.w3.org/2000/svg" width="20" height="20" fill="none" viewBox="0 0 20 20"><path stroke="currentColor" stroke-linecap="round" stroke-linejoin="round" stroke-width="1.5" d="M8.614 17.2a1.6 1.6 0 0 0 2.771 0m.148-14.949A4.8 4.8 0 0 0 5.2 6.8c0 3.599-1.129 4.765-2.192 5.861A.8.8 0 0 0 3.6 14h12.8a.8.8 0 0 0 .592-1.339 7 7 0 0 1-.468-.532"/><path stroke="currentColor" stroke-linecap="round" stroke-linejoin="round" stroke-width="1.5" d="M14.8 9.2a2.4 2.4 0 1 0 0-4.8 2.4 2.4 0 0 0 0 4.8"/></svg>