<svg xmlns="http://www.w3.org/2000/svg" viewBox="0 0 49 49" role="presentation" aria-hidden="true"><path d="M24.617 7.741c4.04.034 7.642 1.306 10.79 3.849.159.128.236.124.373-.017 1.078-1.092 2.165-2.17 3.247-3.258.313-.313.65-.552 1.108-.578a1.48 1.48 0 0 1 1.438.847 1.456 1.456 0 0 1-.253 1.632c-.406.436-.843.852-1.266 1.275-2.464 2.462-4.933 4.928-7.397 7.394-2.46 2.461-4.925 4.919-7.385 7.38-3.324 3.322-6.644 6.649-9.969 9.971-1.724 1.725-3.448 3.45-5.177 5.172-.517.518-1.176.637-1.758.342-.928-.47-1.12-1.648-.385-2.397.77-.784 1.553-1.554 2.327-2.33.368-.367.732-.74 1.104-1.104.116-.111.103-.18.009-.295a16.875 16.875 0 0 1-3.521-7.39 16.741 16.741 0 0 1-.159-5.912c.544-3.613 2.088-6.742 4.625-9.366 2.602-2.689 5.76-4.342 9.438-4.984a15.069 15.069 0 0 1 2.811-.23ZM10.524 24.784c0 1.413.201 2.787.612 4.131a14.085 14.085 0 0 0 2.409 4.615c.098.125.154.125.257.013.21-.222.432-.436.65-.65 3.86-3.858 7.714-7.715 11.573-11.572 2.439-2.44 4.882-4.88 7.325-7.317.115-.115.137-.175-.009-.287-.45-.342-.907-.667-1.39-.958-3-1.79-6.226-2.406-9.674-1.846-2.755.45-5.168 1.627-7.205 3.528-2.995 2.787-4.475 6.263-4.548 10.343ZM41.697 24.565c-.009 3.258-.723 6.088-2.246 8.683-2.576 4.396-6.354 7.209-11.346 8.262-4.668.98-9.01.077-12.994-2.547-.308-.202-.295-.142-.034-.407.582-.587 1.172-1.169 1.754-1.755.111-.111.184-.124.32-.039a13.675 13.675 0 0 0 5.473 2.012c2.674.373 5.262.039 7.73-1.07 3.107-1.391 5.43-3.63 6.94-6.687 1.109-2.239 1.562-4.615 1.4-7.11a13.81 13.81 0 0 0-2.14-6.598c-.06-.099-.077-.158.017-.253.647-.633 1.284-1.275 1.922-1.922.102-.103.15-.081.222.026 1.365 2.008 2.28 4.2 2.708 6.593.069.394.128.788.171 1.186.073.625.112 1.25.103 1.626Z" fill="currentColor"/></svg>