<svg width="20" height="20" viewBox="0 0 20 20" fill="none" xmlns="http://www.w3.org/2000/svg">
<path d="M18 7.54357V11.3303M2.23122 7.18857L9.18455 4.09862C9.42656 3.9911 9.68844 3.93555 9.95325 3.93555C10.2181 3.93555 10.4799 3.9911 10.722 4.09862L17.6753 7.18857C17.7441 7.21897 17.8026 7.26871 17.8436 7.33174C17.8847 7.39476 17.9065 7.46836 17.9065 7.54357C17.9065 7.61878 17.8847 7.69238 17.8436 7.7554C17.8026 7.81842 17.7441 7.86816 17.6753 7.89857L10.722 10.9885C10.4799 11.096 10.2181 11.1516 9.95325 11.1516C9.68844 11.1516 9.42656 11.096 9.18455 10.9885L2.23122 7.89857C2.16243 7.86816 2.10395 7.81842 2.0629 7.7554C2.02185 7.69238 2 7.61878 2 7.54357C2 7.46836 2.02185 7.39476 2.0629 7.33174C2.10395 7.26871 2.16243 7.21897 2.23122 7.18857Z" stroke="currentColor" stroke-linecap="round" stroke-linejoin="round"/>
<path d="M4.74609 9.43652V14.1699C4.74609 14.1699 5.21943 16.0633 9.95281 16.0633C14.6862 16.0633 15.1595 14.1699 15.1595 14.1699V9.43652" stroke="currentColor" stroke-linecap="round" stroke-linejoin="round"/>
</svg>
