<svg xmlns="http://www.w3.org/2000/svg" width="24" height="24" fill="none" viewBox="0 0 24 24"><path fill="currentColor" d="M5.695 11.324v5.68s.568 2.272 6.248 2.272 6.248-2.272 6.248-2.272v-5.68"/><path fill="#fff" d="m2.678 8.626 8.344-3.708a2.27 2.27 0 0 1 1.845 0l8.344 3.708a.465.465 0 0 1 0 .852l-8.344 3.708a2.27 2.27 0 0 1-1.845 0L2.678 9.478a.466.466 0 0 1 0-.852m18.922.426v4.544z"/><path stroke="currentColor" stroke-linecap="round" stroke-linejoin="round" d="M21.6 9.052v4.544M2.678 8.626l8.344-3.708a2.27 2.27 0 0 1 1.845 0l8.344 3.708a.465.465 0 0 1 0 .852l-8.344 3.708a2.27 2.27 0 0 1-1.845 0L2.678 9.478a.466.466 0 0 1 0-.852"/></svg>