<svg width="20" height="20" viewBox="0 0 20 20" fill="none" xmlns="http://www.w3.org/2000/svg">
<path d="M18 7.54406V11.3308M2.23122 7.18905L9.18455 4.0991C9.42656 3.99159 9.68844 3.93604 9.95325 3.93604C10.2181 3.93604 10.4799 3.99159 10.722 4.0991L17.6753 7.18905C17.7441 7.21946 17.8026 7.2692 17.8436 7.33223C17.8847 7.39525 17.9065 7.46884 17.9065 7.54406C17.9065 7.61927 17.8847 7.69286 17.8436 7.75589C17.8026 7.81891 17.7441 7.86865 17.6753 7.89906L10.722 10.989C10.4799 11.0965 10.2181 11.1521 9.95325 11.1521C9.68844 11.1521 9.42656 11.0965 9.18455 10.989L2.23122 7.89906C2.16243 7.86865 2.10395 7.81891 2.0629 7.75589C2.02185 7.69286 2 7.61927 2 7.54406C2 7.46884 2.02185 7.39525 2.0629 7.33223C2.10395 7.2692 2.16243 7.21946 2.23122 7.18905Z" stroke="currentColor" stroke-width="1.2" stroke-linecap="round" stroke-linejoin="round"/>
<path d="M4.74609 9.4375V14.1709C4.74609 14.1709 5.21943 16.0642 9.95281 16.0642C14.6862 16.0642 15.1595 14.1709 15.1595 14.1709V9.4375" stroke="currentColor" stroke-width="1.2" stroke-linecap="round" stroke-linejoin="round"/>
</svg>
