<svg xmlns="http://www.w3.org/2000/svg" viewBox="0 0 48 48" role="presentation" aria-hidden="true"><path fill-rule="evenodd" clip-rule="evenodd" d="m37.59 13.564-.479-.478-6.266-6.266-.478-.479A1.174 1.174 0 0 0 29.542 6H11.53C10.793 6 10 6.569 10 7.816V40.76c0 .52.523 1.026 1.14 1.185a.752.752 0 0 1 .037.01.529.529 0 0 0 .057.016c.097.02.195.03.295.03h24.873c.1 0 .198-.01.295-.03a.529.529 0 0 0 .057-.015.752.752 0 0 1 .036-.01c.618-.16 1.141-.667 1.141-1.186V14.676c0-.476-.057-.827-.341-1.112Zm-1.872-.116h-5.235V8.213l5.235 5.235ZM11.416 40.732l-.01-.004a.284.284 0 0 1-.165-.257v-9.023H36.69v9.023c0 .114-.068.21-.165.257l-.01.004c-.036.013-.072.027-.113.027H11.53c-.04 0-.077-.014-.113-.027Zm-.175-10.525V7.817c0-.136.02-.576.288-.576h17.748a.955.955 0 0 0-.036.243v7.206h7.206a.954.954 0 0 0 .242-.036v15.552H11.242Zm8.405 3.565a2.135 2.135 0 0 0-.7-.381 2.525 2.525 0 0 0-.789-.128h-1.799v6.254h1.019V37.26h.755c.328 0 .629-.048.9-.144.271-.096.503-.232.696-.407.192-.175.342-.392.45-.65.107-.257.161-.544.161-.861 0-.3-.064-.57-.191-.81a1.995 1.995 0 0 0-.502-.616Zm-.386 2.067a1.023 1.023 0 0 1-.246.402.93.93 0 0 1-.335.208 1.122 1.122 0 0 1-.37.064h-.933v-2.478h.764c.26 0 .47.041.628.123.158.082.281.184.37.306.087.121.145.249.173.381a1.909 1.909 0 0 1-.05.993Zm5.545-2.326c.4.167.73.39.994.666.263.278.459.593.59.946.13.353.195.717.195 1.09 0 .515-.055.955-.166 1.32-.11.365-.25.67-.42.917-.17.246-.36.44-.573.581a2.842 2.842 0 0 1-.615.319 2.5 2.5 0 0 1-.543.136c-.165.02-.286.03-.365.03h-2.368v-6.255h1.884c.526 0 .988.084 1.387.25Zm-1.242 5.257c.69 0 1.188-.22 1.493-.662.306-.44.458-1.08.458-1.918 0-.26-.03-.517-.093-.772a1.652 1.652 0 0 0-.36-.691 1.903 1.903 0 0 0-.726-.501c-.305-.127-.701-.191-1.188-.191h-.594v4.735h1.01Zm4.498.747h1.035V36.7h2.614v-.696h-2.614v-1.969h2.876v-.772h-3.911v6.254Zm-.328-19.043c.814-.148 1.514-.222 2.084-.222.972 0 1.561.227 1.8.692.2.386.117.837-.242 1.34-.345.484-.822.74-1.378.74-.755 0-1.633-.477-2.614-1.419a29.744 29.744 0 0 0-5.48 1.752c-.518 1.101-1.015 1.988-1.478 2.638-.635.892-1.184 1.308-1.727 1.308a.996.996 0 0 1-.6-.202c-.646-.485-.733-1.024-.692-1.392.113-1.01 1.362-2.068 3.715-3.145.933-2.046 1.821-4.567 2.35-6.673-.619-1.348-1.22-3.097-.782-4.123.154-.36.346-.635.704-.754.142-.047.5-.107.63-.107.282 0 .533.326.722.572l.061.08.004.004c.185.236.588.75-.235 4.217.836 1.728 2.022 3.488 3.158 4.694Zm-9.289 5.352c-.006.057-.023.207.268.43.092-.03.632-.276 1.638-2.133-1.327.745-1.867 1.358-1.906 1.703Zm5.357-13.798c.027-.009.649.683.06 1.996-.885-.905-.12-1.975-.06-1.996Zm.377 5.252a44.246 44.246 0 0 1-1.66 4.695 30.919 30.919 0 0 1 4.032-1.254c-.838-.973-1.675-2.188-2.372-3.44Zm5.597 4.672c.145 0 .56-.007.75-.274a.961.961 0 0 0 .143-.257l-.017-.01c-.076-.043-.2-.112-.712-.112-.314 0-.707.013-1.124.067.128.099.232.185.321.26.26.216.392.326.639.326Z" fill="currentColor"/></svg>