<svg xmlns="http://www.w3.org/2000/svg" aria-hidden="true" viewBox="0 0 48 48"><path fill="currentColor" fill-rule="evenodd" d="m37.59 13.564-.479-.478-6.266-6.266-.478-.479A1.17 1.17 0 0 0 29.542 6H11.53C10.793 6 10 6.569 10 7.816V40.76c0 .52.523 1.026 1.14 1.185l.037.01.057.016q.145.03.295.03h24.873q.15 0 .295-.03l.057-.015.036-.01c.618-.16 1.141-.667 1.141-1.186V14.676c0-.476-.057-.827-.341-1.112m-1.872-.116h-5.235V8.213zM11.416 40.732l-.01-.004a.28.28 0 0 1-.165-.257v-9.023H36.69v9.023c0 .114-.068.21-.165.257l-.01.004c-.036.013-.072.027-.113.027H11.53c-.04 0-.077-.014-.113-.027Zm-.175-10.525V7.817c0-.136.02-.576.288-.576h17.748a1 1 0 0 0-.036.243v7.206h7.206a1 1 0 0 0 .242-.036v15.552H11.242Zm8.405 3.565a2.1 2.1 0 0 0-.7-.381 2.5 2.5 0 0 0-.789-.128h-1.799v6.254h1.019V37.26h.755q.493 0 .9-.144t.696-.407q.288-.263.45-.65a2.2 2.2 0 0 0 .161-.861q0-.45-.191-.81a2 2 0 0 0-.502-.616m-.386 2.067a1 1 0 0 1-.246.402.9.9 0 0 1-.335.208 1.1 1.1 0 0 1-.37.064h-.933v-2.478h.764q.39 0 .628.123.237.123.37.306.13.182.173.381a1.9 1.9 0 0 1-.05.993Zm5.545-2.326q.599.251.994.666.394.417.59.946.195.53.195 1.09 0 .773-.166 1.32-.165.547-.42.917-.254.37-.573.581a2.8 2.8 0 0 1-.615.319 2.5 2.5 0 0 1-.543.136 3 3 0 0 1-.365.03h-2.368v-6.255h1.884q.789 0 1.387.25m-1.242 5.257q1.035 0 1.493-.662.459-.66.458-1.918 0-.39-.093-.772a1.65 1.65 0 0 0-.36-.691 1.9 1.9 0 0 0-.726-.501q-.457-.19-1.188-.191h-.594v4.735zm4.498.747h1.035V36.7h2.614v-.696h-2.614v-1.969h2.876v-.772h-3.911zm-.328-19.043c.814-.148 1.514-.222 2.084-.222.972 0 1.561.227 1.8.692.2.386.117.837-.242 1.34-.345.484-.822.74-1.378.74-.755 0-1.633-.477-2.614-1.419a29.7 29.7 0 0 0-5.48 1.752c-.518 1.101-1.015 1.988-1.478 2.638-.635.892-1.184 1.308-1.727 1.308a1 1 0 0 1-.6-.202c-.646-.485-.733-1.024-.692-1.392.113-1.01 1.362-2.068 3.715-3.145.933-2.046 1.821-4.567 2.35-6.673-.619-1.348-1.22-3.097-.782-4.123.154-.36.346-.635.704-.754.142-.047.5-.107.63-.107.282 0 .533.326.722.572l.061.08.004.004c.185.236.588.75-.235 4.217.836 1.728 2.022 3.488 3.158 4.694m-9.289 5.352c-.006.057-.023.207.268.43.092-.03.632-.276 1.638-2.133-1.327.745-1.867 1.358-1.906 1.703m5.357-13.798c.027-.009.649.683.06 1.996-.885-.905-.12-1.975-.06-1.996m.377 5.252a44 44 0 0 1-1.66 4.695 31 31 0 0 1 4.032-1.254c-.838-.973-1.675-2.188-2.372-3.44Zm5.597 4.672c.145 0 .56-.007.75-.274a1 1 0 0 0 .143-.257l-.017-.01c-.076-.043-.2-.112-.712-.112a9 9 0 0 0-1.124.067c.128.099.232.185.321.26.26.216.392.326.639.326" clip-rule="evenodd"/></svg>