<svg xmlns="http://www.w3.org/2000/svg" viewBox="0 0 32 32" role="presentation" aria-hidden="true"><path d="M14.6666 6.66678H7.99992C7.29268 6.66678 6.6144 6.94773 6.1143 7.44783C5.6142 7.94793 5.33325 8.6262 5.33325 9.33345V24.0001C5.33325 24.7074 5.6142 25.3856 6.1143 25.8857C6.6144 26.3858 7.29268 26.6668 7.99992 26.6668H22.6666C23.3738 26.6668 24.0521 26.3858 24.5522 25.8857C25.0523 25.3856 25.3333 24.7074 25.3333 24.0001V17.3334M23.4479 4.78145C23.6939 4.52675 23.9882 4.3236 24.3135 4.18384C24.6389 4.04409 24.9888 3.97052 25.3429 3.96745C25.6969 3.96437 26.0481 4.03184 26.3758 4.16592C26.7035 4.30001 27.0013 4.49801 27.2517 4.74839C27.502 4.99877 27.7 5.29651 27.8341 5.62424C27.9682 5.95196 28.0357 6.30311 28.0326 6.65718C28.0295 7.01126 27.956 7.36118 27.8162 7.68653C27.6764 8.01187 27.4733 8.30612 27.2186 8.55211L15.7706 20.0001H11.9999V16.2294L23.4479 4.78145Z" stroke="currentColor" stroke-width="2" stroke-linecap="round" stroke-linejoin="round" fill="none"/></svg>