<svg width="20" height="20" viewBox="0 0 20 20" fill="none" xmlns="http://www.w3.org/2000/svg">
<path d="M4.16699 4.16618C4.16691 3.87293 4.2442 3.58484 4.39106 3.33101C4.53793 3.07718 4.74917 2.86659 5.00345 2.72051C5.25774 2.57444 5.54606 2.49804 5.83932 2.49903C6.13257 2.50003 6.42037 2.57838 6.67366 2.72618L16.6712 8.55785C16.9235 8.70425 17.1329 8.91431 17.2786 9.16702C17.4243 9.41974 17.5011 9.70626 17.5014 9.99797C17.5016 10.2897 17.4253 10.5763 17.2801 10.8293C17.1348 11.0823 16.9257 11.2927 16.6737 11.4395L6.67366 17.2729C6.42037 17.4207 6.13257 17.499 5.83932 17.5C5.54606 17.501 5.25774 17.4246 5.00345 17.2785C4.74917 17.1324 4.53793 16.9219 4.39106 16.668C4.2442 16.4142 4.16691 16.1261 4.16699 15.8329V4.16618Z" fill="currentColor"/>
</svg>
