<svg xmlns="http://www.w3.org/2000/svg" width="20" height="20" fill="none" viewBox="0 0 20 20"><path stroke="currentColor" stroke-width="1.5" d="M11.617 5.28c1.361.774 2.43 1.381 3.192 1.938.767.56 1.335 1.146 1.538 1.918a3.4 3.4 0 0 1 0 1.728c-.203.772-.77 1.358-1.538 1.918-.761.557-1.83 1.164-3.191 1.937-1.315.747-2.424 1.377-3.265 1.735-.848.36-1.622.543-2.373.33a3.34 3.34 0 0 1-1.46-.862c-.55-.554-.77-1.32-.874-2.242-.104-.916-.104-2.114-.104-3.638v-.084c0-1.524 0-2.722.104-3.637.104-.923.324-1.689.874-2.243a3.34 3.34 0 0 1 1.46-.862c.751-.213 1.525-.03 2.373.33.841.358 1.95.988 3.264 1.735Z"/></svg>