<svg xmlns="http://www.w3.org/2000/svg" width="21" height="21" fill="none" viewBox="0 0 21 21"><path fill="currentColor" d="m10.593 6.341-.056-.033c-.623-.38-1.171-.714-1.641-.882a2 2 0 0 0-.813-.13 1.5 1.5 0 0 0-.803.308c-.482.361-.69.894-.805 1.483-.11.57-.153 1.314-.206 2.22l-.002.046a27 27 0 0 0-.052 1.563c0 .486.02 1.023.052 1.564l.002.046c.053.905.095 1.648.206 2.218.114.59.323 1.122.805 1.485.238.179.506.285.803.308.285.02.558-.04.813-.13.47-.17 1.018-.503 1.641-.882l.055-.033c.355-.217.704-.44 1.015-.658q.57-.407 1.112-.852l.042-.034c.637-.52 1.177-.96 1.55-1.394.406-.475.654-.985.654-1.638s-.248-1.164-.655-1.638c-.373-.434-.912-.875-1.548-1.394l-.042-.034A20 20 0 0 0 11.607 7q-.497-.345-1.014-.659"/></svg>