<svg xmlns="http://www.w3.org/2000/svg" viewBox="0 0 25 24" role="presentation" aria-hidden="true"><path d="M19.253 5.238a.796.796 0 0 1 .247.602v12.32a.796.796 0 0 1-.247.596.817.817 0 0 1-.593.244H6.34a.816.816 0 0 1-.84-.84V5.84a.795.795 0 0 1 .247-.602A.823.823 0 0 1 6.34 5h12.32a.818.818 0 0 1 .593.238Zm-2.52 7.35a.84.84 0 0 0 0-1.176.776.776 0 0 0-.568-.252H13.34v-2.8a.793.793 0 0 0-.246-.594.84.84 0 0 0-1.176 0 .79.79 0 0 0-.258.594v2.8h-2.8a.79.79 0 0 0-.593.246.84.84 0 0 0 0 1.176.792.792 0 0 0 .593.258h2.8v2.825a.777.777 0 0 0 .247.58.84.84 0 0 0 1.176 0 .776.776 0 0 0 .257-.58V12.84h2.825a.777.777 0 0 0 .58-.252h-.011Z" fill="currentColor"/></svg>