<svg xmlns="http://www.w3.org/2000/svg" aria-hidden="true" viewBox="0 0 25 24"><path fill="currentColor" d="M19.253 5.238a.8.8 0 0 1 .247.602v12.32a.8.8 0 0 1-.247.596.82.82 0 0 1-.593.244H6.34a.816.816 0 0 1-.84-.84V5.84a.8.8 0 0 1 .247-.602A.82.82 0 0 1 6.34 5h12.32a.82.82 0 0 1 .593.238m-2.52 7.35a.84.84 0 0 0 0-1.176.78.78 0 0 0-.568-.252H13.34v-2.8a.8.8 0 0 0-.246-.594.84.84 0 0 0-1.176 0 .8.8 0 0 0-.258.594v2.8h-2.8a.8.8 0 0 0-.593.246.84.84 0 0 0 0 1.176.8.8 0 0 0 .593.258h2.8v2.825a.78.78 0 0 0 .247.58.84.84 0 0 0 1.176 0 .78.78 0 0 0 .257-.58V12.84h2.825a.78.78 0 0 0 .58-.252z"/></svg>