<svg xmlns="http://www.w3.org/2000/svg" viewBox="0 0 48 48" role="presentation" aria-hidden="true"><path fill-rule="evenodd" clip-rule="evenodd" d="m37.59 13.564-.479-.478-6.266-6.266-.478-.479A1.174 1.174 0 0 0 29.542 6H11.53C10.793 6 10 6.569 10 7.816V40.76c0 .52.523 1.026 1.14 1.185a.752.752 0 0 1 .037.01.529.529 0 0 0 .057.016c.097.02.195.03.295.03h24.873c.1 0 .198-.01.295-.03a.529.529 0 0 0 .057-.015.752.752 0 0 1 .036-.01c.618-.16 1.141-.667 1.141-1.186V14.676c0-.476-.057-.827-.341-1.112Zm-1.872-.116h-5.235V8.213l5.235 5.235ZM13.103 7.241a.62.62 0 0 0 1.242 0h1.241a.62.62 0 0 0 1.242 0h1.241a.62.62 0 0 0 1.241 0h1.242a.62.62 0 0 0 1.241 0h1.242a.62.62 0 0 0 1.24 0h1.242a.62.62 0 0 0 1.242 0H28a.62.62 0 0 0 1.241 0h.036a.955.955 0 0 0-.036.243v2.24a.62.62 0 1 0-1.241 0 .62.62 0 0 0 1.241 0v2.483a.62.62 0 1 0-1.241 0 .62.62 0 0 0 1.241 0v2.483a.62.62 0 1 0-1.241 0 .62.62 0 0 0 1.241 0h1.242a.62.62 0 0 0 1.241 0h1.241a.62.62 0 0 0 1.242 0h1.241a.62.62 0 0 0 1.242 0v2.474a.62.62 0 1 0 0 .017v2.466a.62.62 0 1 0 0 .017v2.474a.621.621 0 0 0-.621-.62.608.608 0 0 0-.346.118l-.402-.382a.605.605 0 0 0 .127-.357.62.62 0 0 0-.62-.621.608.608 0 0 0-.384.145l-.39-.37a.613.613 0 0 0 .153-.396.621.621 0 0 0-.62-.62.615.615 0 0 0-.423.17l-.377-.358a.62.62 0 0 0-.443-1.054c-.18 0-.339.08-.452.203l-.36-.343-.015-.009a.066.066 0 0 1-.012-.007.612.612 0 0 0 .22-.465.62.62 0 0 0-1.242 0c0 .19.09.354.224.468-.008.007-.018.013-.027.019-.012.007-.025.015-.035.026l-.31.34a.612.612 0 0 0-1.094.389.61.61 0 0 0 .279.504l-.381.416a.61.61 0 0 0-.518-.3.616.616 0 0 0-.276 1.17l-.401.44a.62.62 0 0 0-1.185.253c0 .273.178.497.424.58l-.457.5a.613.613 0 0 0-.588-.46.621.621 0 0 0-.62.62c0 .306.224.548.514.6l-.527.578a.616.616 0 0 0-1.23.064c0 .338.272.61.607.618l-.316.346-2.944-2.944a.62.62 0 0 0-.841-.034l-3.98 3.387.01-.037c.008-.03.017-.061.017-.094a.621.621 0 1 0-.621.62c.005 0 .009 0 .013-.002.004-.001.008-.003.013-.003l-.66.561a.614.614 0 0 0-1.228.065c0 .286.197.517.461.589l-.506.43a.619.619 0 0 0-1.197.222c0 .23.13.421.315.529l-.432.368a.612.612 0 0 0-.503-.276.62.62 0 0 0-.428 1.068l-.814.692v-1.76a.62.62 0 0 0 0-1.241V25.24a.621.621 0 0 0 0-1.241v-1.241a.62.62 0 0 0 0-1.242v-1.241a.621.621 0 0 0 0-1.241v-1.242a.621.621 0 0 0 0-1.241V15.31a.62.62 0 0 0 0-1.241v-1.241a.621.621 0 0 0 0-1.242v-1.241a.62.62 0 0 0 0-1.242v-1.24a.62.62 0 0 0 .621-.622h1.241ZM36.69 22.138v.416l-.101-.096a.606.606 0 0 0 .1-.32Zm0-7.448a.064.064 0 0 0-.004-.019c-.001-.005-.003-.01-.003-.017h.003l.003-.001v.037ZM11.416 40.732l-.01-.004a.284.284 0 0 1-.165-.257v-9.023H36.69v9.023c0 .114-.068.21-.165.257l-.01.004c-.036.013-.072.027-.113.027H11.53c-.04 0-.077-.014-.113-.027Zm.892-10.525 8.773-7.467a.33.33 0 0 1 .036.009c.018.005.036.01.055.01a.082.082 0 0 0 .024-.005c.007-.002.013-.004.02-.004l6.335 6.333a.62.62 0 1 0 .877-.877l-2.983-2.984 5.69-6.232 5.555 5.277v5.94H12.308Zm7.338 3.565a2.135 2.135 0 0 0-.7-.381 2.525 2.525 0 0 0-.789-.128h-1.799v6.254h1.019V37.26h.755c.328 0 .629-.048.9-.144.271-.096.503-.232.696-.407.192-.175.342-.392.45-.65.107-.257.161-.544.161-.861 0-.3-.064-.57-.191-.81a1.995 1.995 0 0 0-.502-.616Zm-.386 2.067a1.023 1.023 0 0 1-.246.402.93.93 0 0 1-.335.208 1.122 1.122 0 0 1-.37.064h-.933v-2.478h.764c.26 0 .47.041.628.123.158.082.281.184.37.306.087.121.145.249.173.381a1.909 1.909 0 0 1-.05.993Zm3.276-2.576 2.452 4.311v-4.31h1.036v6.253h-1.036l-2.452-4.31v4.31h-1.035v-6.254h1.035Zm7.527 3.726h1.06v1.544a.424.424 0 0 1-.212.144c-.096.034-.197.06-.3.08a3.182 3.182 0 0 1-.564.055c-.205 0-.399-.047-.583-.143a1.44 1.44 0 0 1-.492-.442 2.278 2.278 0 0 1-.34-.763 4.604 4.604 0 0 1-.131-1.103c.005-.436.05-.803.136-1.103.085-.3.202-.544.352-.734.15-.19.32-.324.509-.403.19-.08.388-.119.598-.119.187 0 .368.038.543.11.175.074.331.193.467.357l.704-.628a2.317 2.317 0 0 0-.788-.509 2.616 2.616 0 0 0-.95-.17c-.369 0-.71.07-1.027.209-.318.139-.593.34-.828.607a2.849 2.849 0 0 0-.551.996c-.133.4-.2.862-.2 1.388 0 .525.067.99.2 1.391.132.402.316.736.551 1.001.235.267.51.467.823.603a2.57 2.57 0 0 0 1.031.204c.187 0 .375-.014.564-.042a2.68 2.68 0 0 0 1.061-.403 1.85 1.85 0 0 0 .437-.403v-2.418h-2.07v.694ZM13.103 8.483a.62.62 0 1 1-1.241 0 .62.62 0 0 1 1.241 0Zm1.863.62a.62.62 0 1 0 0-1.24.62.62 0 0 0 0 1.24Zm3.103-.62a.62.62 0 1 1-1.241 0 .62.62 0 0 1 1.24 0Zm1.862.62a.62.62 0 1 0 0-1.24.62.62 0 0 0 0 1.24Zm3.104-.62a.62.62 0 1 1-1.242 0 .62.62 0 0 1 1.242 0Zm1.861.62a.62.62 0 1 0 0-1.24.62.62 0 0 0 0 1.24ZM28 8.483a.62.62 0 1 1-1.242 0 .62.62 0 0 1 1.242 0Zm-1.242 1.241a.62.62 0 1 1-1.241 0 .62.62 0 0 1 1.241 0Zm-3.102.62a.62.62 0 1 0 0-1.24.62.62 0 0 0 0 1.24Zm-1.863-.62a.62.62 0 1 1-1.241 0 .62.62 0 0 1 1.241 0Zm-3.103.62a.62.62 0 1 0 0-1.24.62.62 0 0 0 0 1.24Zm-1.862-.62a.62.62 0 1 1-1.241 0 .62.62 0 0 1 1.241 0Zm-3.104.62a.62.62 0 1 0 0-1.24.62.62 0 0 0 0 1.24Zm-.62.622a.62.62 0 1 1-1.242 0 .62.62 0 0 1 1.241 0Zm1.862.62a.62.62 0 1 0 0-1.241.62.62 0 0 0 0 1.241Zm3.103-.62a.62.62 0 1 1-1.242 0 .62.62 0 0 1 1.242 0Zm1.862.62a.62.62 0 1 0 0-1.241.62.62 0 0 0 0 1.241Zm3.104-.62a.62.62 0 1 1-1.242 0 .62.62 0 0 1 1.242 0Zm1.861.62a.62.62 0 1 0 0-1.241.62.62 0 0 0 0 1.241Zm3.104-.62a.62.62 0 1 1-1.242 0 .62.62 0 0 1 1.242 0Zm-1.242 1.24a.62.62 0 1 1-1.241 0 .62.62 0 0 1 1.241 0Zm-3.102.622a.62.62 0 1 0 0-1.242.62.62 0 0 0 0 1.242Zm-1.863-.621a.62.62 0 1 1-1.241 0 .62.62 0 0 1 1.241 0Zm-3.103.62a.62.62 0 1 0 0-1.24.62.62 0 0 0 0 1.24Zm-1.862-.62a.62.62 0 1 1-1.241 0 .62.62 0 0 1 1.241 0Zm-3.104.62a.62.62 0 1 0 0-1.24.62.62 0 0 0 0 1.24Zm-.62.621a.62.62 0 1 1-1.242 0 .62.62 0 0 1 1.241 0Zm6.827.62a.62.62 0 1 0 0-1.24.62.62 0 0 0 0 1.24Zm3.104-.62a.62.62 0 1 1-1.242 0 .62.62 0 0 1 1.242 0Zm1.861.62a.62.62 0 1 0 0-1.24.62.62 0 0 0 0 1.24Zm3.104-.62a.62.62 0 1 1-1.242 0 .62.62 0 0 1 1.242 0Zm-1.242 1.242a.62.62 0 1 1-1.241 0 .62.62 0 0 1 1.241 0Zm-3.102.62a.62.62 0 1 0 0-1.241.62.62 0 0 0 0 1.241Zm-1.863-.62a.62.62 0 1 1-1.241 0 .62.62 0 0 1 1.241 0Zm.621 1.862a.62.62 0 1 0 0-1.242.62.62 0 0 0 0 1.242Zm3.103-.62a.62.62 0 1 1-1.241 0 .62.62 0 0 1 1.241 0Zm1.862.62a.62.62 0 1 0 0-1.242.62.62 0 0 0 0 1.242Zm3.104-.62a.62.62 0 1 1-1.241 0 .62.62 0 0 1 1.241 0Zm1.862.62a.62.62 0 1 0 0-1.241.62.62 0 0 0 0 1.24Zm1.861.62a.62.62 0 1 1-1.24 0 .62.62 0 0 1 1.24 0Zm1.242 1.242a.62.62 0 1 1-1.241 0 .62.62 0 0 1 1.241 0Zm0-2.483a.62.62 0 1 1-1.241 0 .62.62 0 0 1 1.241 0Zm-6.827 1.862a.62.62 0 1 0 0-1.241.62.62 0 0 0 0 1.241Zm-1.863-.62a.62.62 0 1 1-1.241 0 .62.62 0 0 1 1.241 0Zm-3.102.62a.62.62 0 1 0 0-1.241.62.62 0 0 0 0 1.241Zm-1.863-.62a.62.62 0 1 1-1.241 0 .62.62 0 0 1 1.241 0Zm-9.31 1.861a.618.618 0 0 0 .575-.4c.085.188.184.366.299.533a.61.61 0 0 0-.254.488c0 .343.278.62.62.62.2 0 .37-.1.484-.246.16.114.33.214.51.3a.62.62 0 1 0 .869.567.607.607 0 0 0-.087-.298 3.45 3.45 0 0 0 1.415 0 .607.607 0 0 0-.087.299.621.621 0 1 0 .87-.568c.178-.086.35-.185.51-.3a.608.608 0 0 0 .482.247c.343 0 .621-.278.621-.62a.608.608 0 0 0-.254-.488c.115-.168.214-.346.299-.533a.618.618 0 0 0 1.196-.221.62.62 0 0 0-.62-.621.606.606 0 0 0-.337.113c.045-.223.07-.454.07-.691 0-.274-.036-.54-.097-.795a.601.601 0 0 0 .364.132.62.62 0 0 0 0-1.242.613.613 0 0 0-.589.46 3.425 3.425 0 0 0-.329-.564.612.612 0 0 0 .297-.516.621.621 0 0 0-.62-.621.61.61 0 0 0-.521.303 3.422 3.422 0 0 0-.593-.33.612.612 0 0 0 .493-.594.621.621 0 0 0-1.242 0 .61.61 0 0 0 .157.402 3.46 3.46 0 0 0-.778-.091 3.46 3.46 0 0 0-.777.09.61.61 0 0 0 .157-.4.62.62 0 0 0-1.242 0c0 .296.214.533.493.594-.21.09-.407.2-.592.33a.61.61 0 0 0-.521-.304.62.62 0 0 0-.62.62c0 .222.121.406.296.517a3.495 3.495 0 0 0-.33.564.613.613 0 0 0-1.208.161c0 .343.278.62.62.62.139 0 .26-.053.364-.13a3.458 3.458 0 0 0-.027 1.486.602.602 0 0 0-.337-.114.621.621 0 0 0 0 1.241ZM16.205 15c1.222 0 2.216.994 2.216 2.215a2.218 2.218 0 0 1-2.216 2.215 2.218 2.218 0 0 1-2.215-2.215c0-1.221.994-2.215 2.215-2.215Zm6.829 3.414a.62.62 0 1 1-1.242 0 .62.62 0 0 1 1.242 0Zm1.861.62a.62.62 0 1 0 0-1.24.62.62 0 0 0 0 1.24Zm3.104-.62a.62.62 0 1 1-1.242 0 .62.62 0 0 1 1.242 0Zm-1.863 1.862a.62.62 0 1 0 0-1.241.62.62 0 0 0 0 1.241Zm-1.86-.62a.62.62 0 1 1-1.242 0 .62.62 0 0 1 1.241 0Zm-3.105.62a.62.62 0 1 0 0-1.241.62.62 0 0 0 0 1.241Zm-8.069.62a.62.62 0 1 1-1.241 0 .62.62 0 0 1 1.241 0Zm6.828.621a.62.62 0 1 0 0-1.241.62.62 0 0 0 0 1.241Zm3.104-.62a.62.62 0 1 1-1.242 0 .62.62 0 0 1 1.242 0Zm1.861.62a.62.62 0 1 0 0-1.241.62.62 0 0 0 0 1.241Zm-.62.621a.62.62 0 1 1-1.241 0 .62.62 0 0 1 1.241 0Zm-5.586.62a.62.62 0 1 0 0-1.24.62.62 0 0 0 0 1.24Zm-1.862-.62a.62.62 0 1 1-1.241 0 .62.62 0 0 1 1.241 0Zm-3.104.62a.62.62 0 1 0 0-1.24.62.62 0 0 0 0 1.24Zm-.62.621a.62.62 0 1 1-1.242 0 .62.62 0 0 1 1.241 0Zm1.862.62a.62.62 0 1 0 0-1.24.62.62 0 0 0 0 1.24Zm3.103-.62a.62.62 0 1 1-1.242 0 .62.62 0 0 1 1.242 0Zm-4.345 1.862a.62.62 0 1 0 0-1.241.62.62 0 0 0 0 1.241Zm-.62.621a.62.62 0 1 1-1.242 0 .62.62 0 0 1 1.241 0Z" fill="currentColor"/></svg>