<svg xmlns="http://www.w3.org/2000/svg" aria-hidden="true" viewBox="0 0 48 48"><path fill="currentColor" fill-rule="evenodd" d="m37.59 13.564-.479-.478-6.266-6.266-.478-.479A1.17 1.17 0 0 0 29.542 6H11.53C10.793 6 10 6.569 10 7.816V40.76c0 .52.523 1.026 1.14 1.185l.037.01.057.016q.145.03.295.03h24.873q.15 0 .295-.03l.057-.015.036-.01c.618-.16 1.141-.667 1.141-1.186V14.676c0-.476-.057-.827-.341-1.112m-1.872-.116h-5.235V8.213zM13.103 7.241a.62.62 0 0 0 1.242 0h1.241a.62.62 0 0 0 1.242 0h1.241a.62.62 0 0 0 1.241 0h1.242a.62.62 0 0 0 1.241 0h1.242a.62.62 0 0 0 1.24 0h1.242a.62.62 0 0 0 1.242 0H28a.62.62 0 0 0 1.241 0h.036a1 1 0 0 0-.036.243v2.24a.62.62 0 1 0-1.241 0 .62.62 0 0 0 1.241 0v2.483a.62.62 0 1 0-1.241 0 .62.62 0 0 0 1.241 0v2.483a.62.62 0 1 0-1.241 0 .62.62 0 0 0 1.241 0h1.242a.62.62 0 0 0 1.241 0h1.241a.62.62 0 0 0 1.242 0h1.241a.62.62 0 0 0 1.242 0v2.474a.62.62 0 1 0 0 .017v2.466a.62.62 0 1 0 0 .017v2.474a.62.62 0 0 0-.621-.62.6.6 0 0 0-.346.118l-.402-.382a.6.6 0 0 0 .127-.357.62.62 0 0 0-.62-.621.6.6 0 0 0-.384.145l-.39-.37a.6.6 0 0 0 .153-.396.62.62 0 0 0-.62-.62.62.62 0 0 0-.423.17l-.377-.358a.62.62 0 0 0-.443-1.054c-.18 0-.339.08-.452.203l-.36-.343-.015-.009-.012-.007a.61.61 0 0 0 .22-.465.62.62 0 0 0-1.242 0c0 .19.09.354.224.468l-.027.019a.1.1 0 0 0-.035.026l-.31.34a.612.612 0 0 0-1.094.389.61.61 0 0 0 .279.504l-.381.416a.61.61 0 0 0-.518-.3.616.616 0 0 0-.276 1.17l-.401.44a.62.62 0 0 0-1.185.253c0 .273.178.497.424.58l-.457.5a.61.61 0 0 0-.588-.46.62.62 0 0 0-.62.62c0 .306.224.548.514.6l-.527.578a.616.616 0 0 0-1.23.064c0 .338.272.61.607.618l-.316.346-2.944-2.944a.62.62 0 0 0-.841-.034l-3.98 3.387.01-.037c.008-.03.017-.061.017-.094a.621.621 0 1 0-.621.62q.007 0 .013-.002t.013-.003l-.66.561a.614.614 0 0 0-1.228.065c0 .286.197.517.461.589l-.506.43a.619.619 0 0 0-1.197.222c0 .23.13.421.315.529l-.432.368a.61.61 0 0 0-.503-.276.62.62 0 0 0-.428 1.068l-.814.692v-1.76a.62.62 0 0 0 0-1.241V25.24a.621.621 0 0 0 0-1.241v-1.241a.62.62 0 0 0 0-1.242v-1.241a.621.621 0 0 0 0-1.241v-1.242a.621.621 0 0 0 0-1.241V15.31a.62.62 0 0 0 0-1.241v-1.241a.621.621 0 0 0 0-1.242v-1.241a.62.62 0 0 0 0-1.242v-1.24a.62.62 0 0 0 .621-.622zM36.69 22.138v.416l-.101-.096a.6.6 0 0 0 .1-.32Zm0-7.448-.004-.019-.003-.017h.003l.003-.001zM11.416 40.732l-.01-.004a.28.28 0 0 1-.165-.257v-9.023H36.69v9.023c0 .114-.068.21-.165.257l-.01.004c-.036.013-.072.027-.113.027H11.53c-.04 0-.077-.014-.113-.027Zm.892-10.525 8.773-7.467.036.009q.027.009.055.01l.024-.005.02-.004 6.335 6.333a.62.62 0 1 0 .877-.877l-2.983-2.984 5.69-6.232 5.555 5.277v5.94zm7.338 3.565a2.1 2.1 0 0 0-.7-.381 2.5 2.5 0 0 0-.789-.128h-1.799v6.254h1.019V37.26h.755q.493 0 .9-.144t.696-.407q.288-.263.45-.65a2.2 2.2 0 0 0 .161-.861q0-.45-.191-.81a2 2 0 0 0-.502-.616m-.386 2.067a1 1 0 0 1-.246.402.9.9 0 0 1-.335.208 1.1 1.1 0 0 1-.37.064h-.933v-2.478h.764q.39 0 .628.123.237.123.37.306.13.182.173.381a1.9 1.9 0 0 1-.05.993Zm3.276-2.576 2.452 4.311v-4.31h1.036v6.253h-1.036l-2.452-4.31v4.31h-1.035v-6.254zm7.527 3.726h1.06v1.544a.42.42 0 0 1-.212.144q-.145.05-.3.08a3 3 0 0 1-.564.055q-.307 0-.583-.143a1.44 1.44 0 0 1-.492-.442 2.3 2.3 0 0 1-.34-.763 4.6 4.6 0 0 1-.131-1.103q.007-.653.136-1.103.127-.45.352-.734.225-.285.509-.403.284-.12.598-.119.28.001.543.11.263.111.467.357l.704-.628a2.3 2.3 0 0 0-.788-.509 2.6 2.6 0 0 0-.95-.17q-.553 0-1.027.209-.476.208-.828.607a2.85 2.85 0 0 0-.551.996q-.2.6-.2 1.388 0 .789.2 1.391.198.603.551 1.001.353.4.823.603a2.6 2.6 0 0 0 1.031.204q.28 0 .564-.042a2.7 2.7 0 0 0 1.061-.403 1.9 1.9 0 0 0 .437-.403v-2.418h-2.07zM13.103 8.483a.62.62 0 1 1-1.241 0 .62.62 0 0 1 1.241 0m1.863.62a.62.62 0 1 0 0-1.24.62.62 0 0 0 0 1.24m3.103-.62a.62.62 0 1 1-1.241 0 .62.62 0 0 1 1.24 0Zm1.862.62a.62.62 0 1 0 0-1.24.62.62 0 0 0 0 1.24m3.104-.62a.62.62 0 1 1-1.242 0 .62.62 0 0 1 1.242 0m1.861.62a.62.62 0 1 0 0-1.24.62.62 0 0 0 0 1.24M28 8.483a.62.62 0 1 1-1.242 0 .62.62 0 0 1 1.242 0m-1.242 1.241a.62.62 0 1 1-1.241 0 .62.62 0 0 1 1.241 0m-3.102.62a.62.62 0 1 0 0-1.24.62.62 0 0 0 0 1.24m-1.863-.62a.62.62 0 1 1-1.241 0 .62.62 0 0 1 1.241 0m-3.103.62a.62.62 0 1 0 0-1.24.62.62 0 0 0 0 1.24m-1.862-.62a.62.62 0 1 1-1.241 0 .62.62 0 0 1 1.241 0m-3.104.62a.62.62 0 1 0 0-1.24.62.62 0 0 0 0 1.24m-.62.622a.62.62 0 1 1-1.242 0 .62.62 0 0 1 1.241 0Zm1.862.62a.62.62 0 1 0 0-1.241.62.62 0 0 0 0 1.241m3.103-.62a.62.62 0 1 1-1.242 0 .62.62 0 0 1 1.242 0m1.862.62a.62.62 0 1 0 0-1.241.62.62 0 0 0 0 1.241m3.104-.62a.62.62 0 1 1-1.242 0 .62.62 0 0 1 1.242 0m1.861.62a.62.62 0 1 0 0-1.241.62.62 0 0 0 0 1.241m3.104-.62a.62.62 0 1 1-1.242 0 .62.62 0 0 1 1.242 0m-1.242 1.24a.62.62 0 1 1-1.241 0 .62.62 0 0 1 1.241 0m-3.102.622a.62.62 0 1 0 0-1.242.62.62 0 0 0 0 1.242m-1.863-.621a.62.62 0 1 1-1.241 0 .62.62 0 0 1 1.241 0m-3.103.62a.62.62 0 1 0 0-1.24.62.62 0 0 0 0 1.24m-1.862-.62a.62.62 0 1 1-1.241 0 .62.62 0 0 1 1.241 0m-3.104.62a.62.62 0 1 0 0-1.24.62.62 0 0 0 0 1.24m-.62.621a.62.62 0 1 1-1.242 0 .62.62 0 0 1 1.241 0Zm6.827.62a.62.62 0 1 0 0-1.24.62.62 0 0 0 0 1.24m3.104-.62a.62.62 0 1 1-1.242 0 .62.62 0 0 1 1.242 0m1.861.62a.62.62 0 1 0 0-1.24.62.62 0 0 0 0 1.24m3.104-.62a.62.62 0 1 1-1.242 0 .62.62 0 0 1 1.242 0m-1.242 1.242a.62.62 0 1 1-1.241 0 .62.62 0 0 1 1.241 0m-3.102.62a.62.62 0 1 0 0-1.241.62.62 0 0 0 0 1.241m-1.863-.62a.62.62 0 1 1-1.241 0 .62.62 0 0 1 1.241 0m.621 1.862a.62.62 0 1 0 0-1.242.62.62 0 0 0 0 1.242m3.103-.62a.62.62 0 1 1-1.241 0 .62.62 0 0 1 1.241 0m1.862.62a.62.62 0 1 0 0-1.242.62.62 0 0 0 0 1.242m3.104-.62a.62.62 0 1 1-1.241 0 .62.62 0 0 1 1.241 0m1.862.62a.62.62 0 1 0 0-1.241.62.62 0 0 0 0 1.24Zm1.861.62a.62.62 0 1 1-1.24 0 .62.62 0 0 1 1.24 0m1.242 1.242a.62.62 0 1 1-1.241 0 .62.62 0 0 1 1.241 0m0-2.483a.62.62 0 1 1-1.241 0 .62.62 0 0 1 1.241 0m-6.827 1.862a.62.62 0 1 0 0-1.241.62.62 0 0 0 0 1.241m-1.863-.62a.62.62 0 1 1-1.241 0 .62.62 0 0 1 1.241 0m-3.102.62a.62.62 0 1 0 0-1.241.62.62 0 0 0 0 1.241m-1.863-.62a.62.62 0 1 1-1.241 0 .62.62 0 0 1 1.241 0m-9.31 1.861a.62.62 0 0 0 .575-.4q.127.282.299.533a.61.61 0 0 0-.254.488c0 .343.278.62.62.62.2 0 .37-.1.484-.246q.24.171.51.3a.62.62 0 1 0 .869.567.6.6 0 0 0-.087-.298 3.45 3.45 0 0 0 1.415 0 .6.6 0 0 0-.087.299.621.621 0 1 0 .87-.568q.269-.128.51-.3a.6.6 0 0 0 .482.247.62.62 0 0 0 .621-.62.6.6 0 0 0-.254-.488q.172-.252.299-.533a.618.618 0 0 0 1.196-.221.62.62 0 0 0-.62-.621.6.6 0 0 0-.337.113 3.4 3.4 0 0 0-.027-1.486.6.6 0 0 0 .364.132.62.62 0 0 0 0-1.242.61.61 0 0 0-.589.46 3.4 3.4 0 0 0-.329-.564.61.61 0 0 0 .297-.516.62.62 0 0 0-.62-.621.61.61 0 0 0-.521.303 3.4 3.4 0 0 0-.593-.33.61.61 0 0 0 .493-.594.621.621 0 0 0-1.242 0 .6.6 0 0 0 .157.402 3.5 3.5 0 0 0-.778-.091 3.5 3.5 0 0 0-.777.09.6.6 0 0 0 .157-.4.62.62 0 0 0-1.242 0c0 .296.214.533.493.594q-.315.135-.592.33a.61.61 0 0 0-.521-.304.62.62 0 0 0-.62.62.61.61 0 0 0 .296.517 3.5 3.5 0 0 0-.33.564.613.613 0 0 0-1.208.161c0 .343.278.62.62.62.139 0 .26-.053.364-.13a3.5 3.5 0 0 0-.027 1.486.6.6 0 0 0-.337-.114.621.621 0 0 0 0 1.241ZM16.205 15c1.222 0 2.216.994 2.216 2.215a2.22 2.22 0 0 1-2.216 2.215 2.22 2.22 0 0 1-2.215-2.215c0-1.221.994-2.215 2.215-2.215m6.829 3.414a.62.62 0 1 1-1.242 0 .62.62 0 0 1 1.242 0m1.861.62a.62.62 0 1 0 0-1.24.62.62 0 0 0 0 1.24m3.104-.62a.62.62 0 1 1-1.242 0 .62.62 0 0 1 1.242 0m-1.863 1.862a.62.62 0 1 0 0-1.241.62.62 0 0 0 0 1.241m-1.86-.62a.62.62 0 1 1-1.242 0 .62.62 0 0 1 1.241 0Zm-3.105.62a.62.62 0 1 0 0-1.241.62.62 0 0 0 0 1.241m-8.069.62a.62.62 0 1 1-1.241 0 .62.62 0 0 1 1.241 0m6.828.621a.62.62 0 1 0 0-1.241.62.62 0 0 0 0 1.241m3.104-.62a.62.62 0 1 1-1.242 0 .62.62 0 0 1 1.242 0m1.861.62a.62.62 0 1 0 0-1.241.62.62 0 0 0 0 1.241m-.62.621a.62.62 0 1 1-1.241 0 .62.62 0 0 1 1.241 0m-5.586.62a.62.62 0 1 0 0-1.24.62.62 0 0 0 0 1.24m-1.862-.62a.62.62 0 1 1-1.241 0 .62.62 0 0 1 1.241 0m-3.104.62a.62.62 0 1 0 0-1.24.62.62 0 0 0 0 1.24m-.62.621a.62.62 0 1 1-1.242 0 .62.62 0 0 1 1.241 0Zm1.862.62a.62.62 0 1 0 0-1.24.62.62 0 0 0 0 1.24m3.103-.62a.62.62 0 1 1-1.242 0 .62.62 0 0 1 1.242 0m-4.345 1.862a.62.62 0 1 0 0-1.241.62.62 0 0 0 0 1.241m-.62.621a.62.62 0 1 1-1.242 0 .62.62 0 0 1 1.241 0Z" clip-rule="evenodd"/></svg>