<svg xmlns="http://www.w3.org/2000/svg" aria-hidden="true" viewBox="0 0 32 32"><rect width="17" height="21" x="7.508" y="5.5" fill="none" stroke="currentColor" rx="1.5"/><path fill="none" stroke="currentColor" stroke-linecap="round" stroke-linejoin="round" d="M7.66 13.97a3.28 3.28 0 0 1 3.578-.713c.398.165.76.408 1.065.713l7.527 7.543m-2.189-2.193 2.056-2.06a3.28 3.28 0 0 1 3.578-.713c.398.165.76.407 1.065.713m-6.151-6.713a.549.549 0 0 1-.934.388.549.549 0 0 1 .773-.775c.103.102.16.242.16.387Z"/></svg>