<svg xmlns="http://www.w3.org/2000/svg" viewBox="0 0 32 33" role="presentation" aria-hidden="true"><path fill-rule="evenodd" clip-rule="evenodd" d="M9.008 5.25a2 2 0 0 0-2 2v18a2 2 0 0 0 2 2h14a2 2 0 0 0 2-2v-18a2 2 0 0 0-2-2h-14Zm9.422 5.769c0 .632-.508 1.145-1.14 1.145a1.12 1.12 0 0 1-.797-.329 1.144 1.144 0 0 1 .797-1.962c.632 0 1.14.513 1.14 1.146Zm4.86 6.686.21.223v6.88a1 1 0 0 1-1 .937H9.508a1.003 1.003 0 0 1-1-1v-9.922a2.544 2.544 0 0 1 3.89-.233l4.93 5.225.102.11.14.142 1.641 1.69a.504.504 0 0 0 .711.01.495.495 0 0 0 .008-.708l-1.672-1.724 1.446-1.527a2.535 2.535 0 0 1 3.586-.103Z" fill="currentColor"/></svg>