<svg xmlns="http://www.w3.org/2000/svg" aria-hidden="true" viewBox="0 0 48 48"><path fill="currentColor" fill-rule="evenodd" d="m37.112 13.086.478.478c.22.221.341.514.341.825V40.47A1.53 1.53 0 0 1 36.402 42H11.53A1.53 1.53 0 0 1 10 40.471V7.53A1.53 1.53 0 0 1 11.529 6h18.013c.308 0 .609.125.825.343l.477.476h.001zm-6.63.362h5.236l-5.235-5.235v5.235Zm5.92 27.31a.29.29 0 0 0 .288-.287v-9.023H11.24v9.023c0 .159.13.288.288.288zm-25.16-33.23v22.679H36.69V14.654a1 1 0 0 1-.243.036h-7.206V7.485c0-.085.016-.165.036-.244H11.53a.29.29 0 0 0-.288.288Zm7.012 29.732H17.5v2.257h-1.02v-6.254h1.8q.398 0 .789.128.39.127.7.381.31.255.5.615a1.7 1.7 0 0 1 .192.811q0 .476-.162.861a1.8 1.8 0 0 1-.45.65 2 2 0 0 1-.695.407 2.7 2.7 0 0 1-.9.144m.008-3.225H17.5v2.478h.933q.187 0 .37-.064a.9.9 0 0 0 .335-.208 1 1 0 0 0 .246-.403 1.9 1.9 0 0 0 .05-.993 1 1 0 0 0-.173-.381 1 1 0 0 0-.37-.306q-.238-.123-.628-.123Zm4.371 3.225h.755q.492 0 .9-.144.406-.144.695-.407a1.8 1.8 0 0 0 .45-.65q.162-.386.162-.861 0-.45-.192-.81a2 2 0 0 0-.5-.616 2.1 2.1 0 0 0-.7-.381 2.5 2.5 0 0 0-.79-.128h-1.798v6.254h1.018zm0-3.225h.763q.39 0 .628.123.237.123.37.306.13.182.173.381a1.9 1.9 0 0 1-.05.992 1 1 0 0 1-.246.404.9.9 0 0 1-.335.208 1.1 1.1 0 0 1-.37.064h-.933zm6.67 5.482h-1.027V33.96H26.41v-.696h4.76v.696h-1.867zM18.69 18.414a.62.62 0 1 0 0-1.242.62.62 0 0 0 0 1.242m.62 4.345a.62.62 0 1 1-1.24 0 .62.62 0 0 1 1.24 0m-.62-1.862a.62.62 0 1 0 0-1.242.62.62 0 0 0 0 1.242m1.862-1.863a.62.62 0 1 1-1.242 0 .62.62 0 0 1 1.242 0m.62-.62a.62.62 0 1 0 0-1.241.62.62 0 0 0 0 1.24Zm-.62 3.103a.62.62 0 1 1-1.242 0 .62.62 0 0 1 1.242 0m.62 1.862a.62.62 0 1 0 0-1.24.62.62 0 0 0 0 1.24m.621-3.103a.62.62 0 1 1-1.241 0 .62.62 0 0 1 1.241 0m.62-.62a.62.62 0 1 0 0-1.242.62.62 0 0 0 0 1.241Zm1.863-1.863a.62.62 0 1 1-1.241 0 .62.62 0 0 1 1.241 0m-1.862 4.345a.62.62 0 1 0 0-1.242.62.62 0 0 0 0 1.242m1.862.62a.62.62 0 1 1-1.241 0 .62.62 0 0 1 1.241 0m-.62-1.861a.62.62 0 1 0 0-1.242.62.62 0 0 0 0 1.242m1.861-1.863a.62.62 0 1 1-1.241 0 .62.62 0 0 1 1.241 0m.62-.62a.62.62 0 1 0 0-1.242.62.62 0 0 0 0 1.242m-.62 3.103a.62.62 0 1 1-1.241 0 .62.62 0 0 1 1.241 0m.62 1.862a.62.62 0 1 0 0-1.241.62.62 0 0 0 0 1.241m.622-3.103a.62.62 0 1 1-1.242 0 .62.62 0 0 1 1.242 0m.62-.62a.62.62 0 1 0 0-1.242.62.62 0 0 0 0 1.241Zm1.862-1.863a.62.62 0 1 1-1.241 0 .62.62 0 0 1 1.241 0m-1.862 4.345a.62.62 0 1 0 0-1.242.62.62 0 0 0 0 1.242m1.862.62a.62.62 0 1 1-1.241 0 .62.62 0 0 1 1.241 0m-.62-1.861a.62.62 0 1 0 0-1.242.62.62 0 0 0 0 1.242m-4.966-7.449a.62.62 0 0 1 .621.621v1.241h6.828v9.931h-3.87l1.299 2.163a.62.62 0 0 1-1.065.64l-1.681-2.803h-4.263l-1.681 2.803a.62.62 0 1 1-1.064-.64l1.297-2.163h-3.869v-9.93h6.828v-1.242a.62.62 0 0 1 .62-.62Zm3.724 3.724a.62.62 0 0 1-.62-.62h-1.242a.62.62 0 0 1-1.241 0h-1.241a.621.621 0 0 1-1.242 0h-1.241a.621.621 0 0 1-1.241 0h-1.242a.62.62 0 0 1-.62.62v1.242a.62.62 0 0 1 0 1.241v1.242a.62.62 0 0 1 0 1.241v1.241a.62.62 0 0 1 .62.621h1.242a.62.62 0 0 1 1.24 0h1.242a.62.62 0 0 1 1.242 0h1.241a.62.62 0 0 1 1.241 0h1.242A.62.62 0 0 1 28 24h1.242a.62.62 0 0 1 .62-.62v-1.242a.62.62 0 0 1 0-1.241v-1.242a.62.62 0 0 1 0-1.241v-1.242a.62.62 0 0 1-.62-.62H28a.62.62 0 0 1-.62.62Z" clip-rule="evenodd"/></svg>