<svg xmlns="http://www.w3.org/2000/svg" viewBox="0 0 48 48" role="presentation" aria-hidden="true"><path fill-rule="evenodd" clip-rule="evenodd" d="m37.112 13.086.478.478c.22.221.341.514.341.825V40.47A1.53 1.53 0 0 1 36.402 42H11.53A1.53 1.53 0 0 1 10 40.471V7.53A1.53 1.53 0 0 1 11.529 6h18.013c.308 0 .609.125.825.343l.477.476h.001l6.267 6.267Zm-6.63.362h5.236l-5.235-5.235v5.235Zm5.92 27.31c.159 0 .288-.129.288-.287v-9.023H11.24v9.023c0 .159.13.288.288.288h24.873Zm-25.16-33.23v22.679H36.69V14.654a.96.96 0 0 1-.243.036h-7.206V7.485c0-.085.016-.165.036-.244H11.53a.288.288 0 0 0-.288.288Zm7.012 29.732H17.5v2.257H16.48v-6.254h1.8c.265 0 .528.043.789.128.26.084.493.212.7.381.206.17.373.375.5.615.128.241.192.511.192.811 0 .317-.054.604-.162.861a1.806 1.806 0 0 1-.45.65 2.026 2.026 0 0 1-.695.407 2.677 2.677 0 0 1-.9.144Zm.008-3.225H17.5v2.478h.933c.125 0 .248-.022.37-.064a.932.932 0 0 0 .335-.208c.102-.096.183-.23.246-.403a1.91 1.91 0 0 0 .05-.993 1.017 1.017 0 0 0-.173-.381 1.029 1.029 0 0 0-.37-.306c-.158-.082-.368-.123-.628-.123Zm4.371 3.225h.755c.328 0 .628-.048.9-.144.27-.096.503-.232.695-.407.193-.175.342-.392.45-.65.108-.257.162-.544.162-.861 0-.3-.064-.57-.192-.81a1.986 1.986 0 0 0-.5-.616 2.133 2.133 0 0 0-.7-.381 2.526 2.526 0 0 0-.79-.128h-1.798v6.254h1.018V37.26Zm0-3.225h.763c.26 0 .47.041.628.123.159.082.281.184.37.306.087.121.145.249.173.381a1.91 1.91 0 0 1-.05.992 1.024 1.024 0 0 1-.246.404.932.932 0 0 1-.335.208 1.123 1.123 0 0 1-.37.064h-.933v-2.478Zm6.67 5.482h-1.027V33.96H26.41v-.696h4.76v.696h-1.867v5.558ZM18.69 18.414a.62.62 0 1 0 0-1.242.62.62 0 0 0 0 1.242Zm.62 4.345a.62.62 0 1 1-1.24 0 .62.62 0 0 1 1.24 0Zm-.62-1.862a.62.62 0 1 0 0-1.242.62.62 0 0 0 0 1.242Zm1.862-1.863a.62.62 0 1 1-1.242 0 .62.62 0 0 1 1.242 0Zm.62-.62a.62.62 0 1 0 0-1.241.62.62 0 0 0 0 1.24Zm-.62 3.103a.62.62 0 1 1-1.242 0 .62.62 0 0 1 1.242 0Zm.62 1.862a.62.62 0 1 0 0-1.24.62.62 0 0 0 0 1.24Zm.621-3.103a.62.62 0 1 1-1.241 0 .62.62 0 0 1 1.241 0Zm.62-.62a.62.62 0 1 0 0-1.242.62.62 0 0 0 0 1.241Zm1.863-1.863a.62.62 0 1 1-1.241 0 .62.62 0 0 1 1.241 0Zm-1.862 4.345a.62.62 0 1 0 0-1.242.62.62 0 0 0 0 1.242Zm1.862.62a.62.62 0 1 1-1.241 0 .62.62 0 0 1 1.241 0Zm-.62-1.861a.62.62 0 1 0 0-1.242.62.62 0 0 0 0 1.242Zm1.861-1.863a.62.62 0 1 1-1.241 0 .62.62 0 0 1 1.241 0Zm.62-.62a.62.62 0 1 0 0-1.242.62.62 0 0 0 0 1.242Zm-.62 3.103a.62.62 0 1 1-1.241 0 .62.62 0 0 1 1.241 0Zm.62 1.862a.62.62 0 1 0 0-1.241.62.62 0 0 0 0 1.241Zm.622-3.103a.62.62 0 1 1-1.242 0 .62.62 0 0 1 1.242 0Zm.62-.62a.62.62 0 1 0 0-1.242.62.62 0 0 0 0 1.241Zm1.862-1.863a.62.62 0 1 1-1.241 0 .62.62 0 0 1 1.241 0Zm-1.862 4.345a.62.62 0 1 0 0-1.242.62.62 0 0 0 0 1.242Zm1.862.62a.62.62 0 1 1-1.241 0 .62.62 0 0 1 1.241 0Zm-.62-1.861a.62.62 0 1 0 0-1.242.62.62 0 0 0 0 1.242Zm-4.966-7.449a.62.62 0 0 1 .621.621v1.241h6.828v9.931h-3.87l1.299 2.163a.62.62 0 0 1-1.065.64l-1.681-2.803h-4.263l-1.681 2.803a.62.62 0 1 1-1.064-.64l1.297-2.163h-3.869v-9.93h6.828v-1.242a.62.62 0 0 1 .62-.62Zm3.724 3.724a.621.621 0 0 1-.62-.62h-1.242a.62.62 0 0 1-1.241 0h-1.241a.621.621 0 0 1-1.242 0h-1.241a.621.621 0 0 1-1.241 0h-1.242a.62.62 0 0 1-.62.62v1.242a.62.62 0 0 1 0 1.241v1.242a.62.62 0 0 1 0 1.241v1.241a.62.62 0 0 1 .62.621h1.242a.62.62 0 0 1 1.24 0h1.242a.62.62 0 0 1 1.242 0h1.241a.62.62 0 0 1 1.241 0h1.242A.62.62 0 0 1 28 24h1.242a.62.62 0 0 1 .62-.62v-1.242a.62.62 0 0 1 0-1.241v-1.242a.62.62 0 0 1 0-1.241v-1.242a.62.62 0 0 1-.62-.62H28c0 .342-.278.62-.62.62Z" fill="currentColor"/></svg>