<svg width="20" height="20" viewBox="0 0 20 20" fill="none" xmlns="http://www.w3.org/2000/svg">
<path d="M11.667 14.167H4.16699" stroke="currentColor" stroke-width="1.5" stroke-linecap="round" stroke-linejoin="round"/>
<path d="M15.833 5.83301H8.33301" stroke="currentColor" stroke-width="1.5" stroke-linecap="round" stroke-linejoin="round"/>
<path d="M14.167 16.667C15.5477 16.667 16.667 15.5477 16.667 14.167C16.667 12.7863 15.5477 11.667 14.167 11.667C12.7863 11.667 11.667 12.7863 11.667 14.167C11.667 15.5477 12.7863 16.667 14.167 16.667Z" stroke="currentColor" stroke-width="1.5" stroke-linecap="round" stroke-linejoin="round"/>
<path d="M5.83301 8.33301C7.21372 8.33301 8.33301 7.21372 8.33301 5.83301C8.33301 4.4523 7.21372 3.33301 5.83301 3.33301C4.4523 3.33301 3.33301 4.4523 3.33301 5.83301C3.33301 7.21372 4.4523 8.33301 5.83301 8.33301Z" stroke="currentColor" stroke-width="1.5" stroke-linecap="round" stroke-linejoin="round"/>
</svg>
