<svg xmlns="http://www.w3.org/2000/svg" viewBox="0 0 20 20" role="presentation" aria-hidden="true"><path stroke="currentColor" stroke-linecap="round" stroke-linejoin="round" stroke-width="1.5" d="M16.25 11.875V9.687a2.812 2.812 0 0 0-2.813-2.812h-1.25a.937.937 0 0 1-.937-.938v-1.25a2.812 2.812 0 0 0-2.813-2.812H6.875m4.36 11.234 1.265 1.266m-3.75-12.5H4.687a.938.938 0 0 0-.937.938v13.75c0 .517.42.937.938.937h10.625c.517 0 .937-.42.937-.938V9.375a7.5 7.5 0 0 0-7.5-7.5v0Zm3.125 9.688a2.188 2.188 0 1 1-4.376 0 2.188 2.188 0 0 1 4.376 0v0Z" fill="none"/></svg>