<svg xmlns="http://www.w3.org/2000/svg" width="24" height="24" fill="none" viewBox="0 0 24 24"><path fill="currentColor" fill-rule="evenodd" d="M2 4a.5.5 0 0 1 .5-.5h4a.5.5 0 0 1 0 1H3V8a.5.5 0 0 1-1 0zm15 0a.5.5 0 0 1 .5-.5h4a.5.5 0 0 1 .5.5v4a.5.5 0 0 1-1 0V4.5h-3.5A.5.5 0 0 1 17 4M2.5 15.5a.5.5 0 0 1 .5.5v3.5h3.5a.5.5 0 0 1 0 1h-4A.5.5 0 0 1 2 20v-4a.5.5 0 0 1 .5-.5m19 0a.5.5 0 0 1 .5.5v4a.5.5 0 0 1-.5.5h-4a.5.5 0 0 1 0-1H21V16a.5.5 0 0 1 .5-.5" clip-rule="evenodd"/><path stroke="currentColor" d="M12 10.825c.236 0 .463.095.633.268.17.172.266.409.266.657a.94.94 0 0 1-.266.657.89.89 0 0 1-.633.268.9.9 0 0 1-.634-.268.94.94 0 0 1-.266-.657c0-.248.097-.485.266-.657a.9.9 0 0 1 .634-.268Z"/><path fill="currentColor" stroke="currentColor" d="M12 7.5c3.02 0 5.554 1.796 6.468 4.25C17.554 14.204 15.02 16 12 16s-5.554-1.796-6.468-4.25C6.446 9.296 8.98 7.5 12 7.5Zm0 1.036c-.899 0-1.767.33-2.414.928-.648.6-1.02 1.42-1.02 2.286s.372 1.687 1.02 2.286a3.56 3.56 0 0 0 2.414.928c.899 0 1.768-.33 2.414-.928.648-.6 1.02-1.42 1.02-2.286s-.372-1.687-1.02-2.286A3.56 3.56 0 0 0 12 8.536Z"/></svg>