<svg xmlns="http://www.w3.org/2000/svg" aria-hidden="true" viewBox="0 0 32 32"><path fill="none" stroke="currentColor" stroke-linecap="round" stroke-width="1.333" d="M20.077 11.92c-1.226-1.227-.913-3.528.7-5.14s3.915-1.926 5.14-.7c1.227 1.226.914 3.527-.7 5.14m-13.34 5.758a1.737 1.737 0 0 0 0 2.457l.912.912a1.761 1.761 0 0 0 2.49-2.49l-.88-.88a1.781 1.781 0 1 1 2.52-2.52l.85.85a1.804 1.804 0 0 1 0 2.551m.422-3.802-.835.835m-4.89 5.137-.836.835M21.507 9.27l-6.432-.89a2.87 2.87 0 0 0-2.425.815l-6.475 6.473a2.87 2.87 0 0 0 0 4.063l6.095 6.093a2.874 2.874 0 0 0 4.064 0l6.475-6.473a2.87 2.87 0 0 0 .814-2.425l-.89-6.43a1.436 1.436 0 0 0-1.226-1.226Z"/></svg>