<svg xmlns="http://www.w3.org/2000/svg" viewBox="0 0 16 16" role="presentation" aria-hidden="true"><path d="M7 10.167a.493.493 0 0 1-.333-.166l-2-2a.5.5 0 0 1 .666-.667L6.98 8.981l5.687-5.647a.5.5 0 0 1 .666.667l-6 6a.493.493 0 0 1-.333.166Z" fill="currentColor"/><path d="M8 14a6 6 0 0 1-5.247-3.107A5.8 5.8 0 0 1 2.04 8.62a6 6 0 0 1 3.067-5.873 5.8 5.8 0 0 1 2.273-.714 5.933 5.933 0 0 1 2.367.227.5.5 0 1 1-.287.953 5.067 5.067 0 0 0-2-.186 5 5 0 0 0-3.36 1.82A4.946 4.946 0 0 0 3.007 8.52a5 5 0 0 0 1.82 3.36A4.946 4.946 0 0 0 8.5 12.973a4.998 4.998 0 0 0 3.36-1.82 4.948 4.948 0 0 0 1.093-3.673.526.526 0 0 1 1.047-.1 6 6 0 0 1-3.073 5.873A5.798 5.798 0 0 1 8.62 14H8Z" fill="currentColor"/></svg>