<svg xmlns="http://www.w3.org/2000/svg" aria-hidden="true" viewBox="0 0 16 16"><path fill="currentColor" d="M7 10.167a.5.5 0 0 1-.333-.166l-2-2a.5.5 0 0 1 .666-.667L6.98 8.981l5.687-5.647a.5.5 0 0 1 .666.667l-6 6a.5.5 0 0 1-.333.166"/><path fill="currentColor" d="M8 14a6 6 0 0 1-5.247-3.107A5.8 5.8 0 0 1 2.04 8.62a6 6 0 0 1 3.067-5.873 5.8 5.8 0 0 1 2.273-.714 5.9 5.9 0 0 1 2.367.227.5.5 0 1 1-.287.953 5.1 5.1 0 0 0-2-.186 5 5 0 0 0-3.36 1.82A4.95 4.95 0 0 0 3.007 8.52a5 5 0 0 0 1.82 3.36A4.95 4.95 0 0 0 8.5 12.973a5 5 0 0 0 3.36-1.82 4.95 4.95 0 0 0 1.093-3.673.526.526 0 0 1 1.047-.1 6 6 0 0 1-3.073 5.873A5.8 5.8 0 0 1 8.62 14z"/></svg>