<svg xmlns="http://www.w3.org/2000/svg" width="20" height="20" fill="none" viewBox="0 0 20 20"><path stroke="currentColor" stroke-linecap="round" stroke-linejoin="round" stroke-width="1.5" d="M5.2 14.8H3.6A1.6 1.6 0 0 1 2 13.2v-4a1.6 1.6 0 0 1 1.6-1.6h12.8A1.6 1.6 0 0 1 18 9.2v4a1.6 1.6 0 0 1-1.6 1.6h-1.6M5.2 7.6V2.8A.8.8 0 0 1 6 2h8a.8.8 0 0 1 .8.8v4.8"/><path stroke="currentColor" stroke-linecap="round" stroke-linejoin="round" stroke-width="1.5" d="M14 11.6H6a.8.8 0 0 0-.8.8v4.8a.8.8 0 0 0 .8.8h8a.8.8 0 0 0 .8-.8v-4.8a.8.8 0 0 0-.8-.8"/></svg>