<svg xmlns="http://www.w3.org/2000/svg" aria-hidden="true" viewBox="0 0 48 48"><path fill="currentColor" fill-rule="evenodd" d="m33.978 9.953 3.611 3.611c.217.216.342.517.342.825V40.47A1.53 1.53 0 0 1 36.402 42H11.53A1.53 1.53 0 0 1 10 40.471V7.53A1.53 1.53 0 0 1 11.529 6h18.013c.308 0 .608.125.825.342l.478.478zm-3.495 1.573v1.922h5.235l-5.235-5.235zm-9.931 13.715a.6.6 0 0 1 .324.105q.227-.17.412-.384a.6.6 0 0 1-.116-.341.62.62 0 0 1 .631-.619l.01.002a2.5 2.5 0 0 0 .113-.71 2.6 2.6 0 0 0-.045-.444l-.003-.016q-.005-.024-.012-.047l-.011-.04-.027.005a.1.1 0 0 1-.035.007.62.62 0 0 1-.441-1.056l-.039-.046a2.6 2.6 0 0 0-.327-.319.619.619 0 0 1-1.055-.441.1.1 0 0 1 .007-.037q.004-.014.006-.029l-.066-.015a2 2 0 0 0-.178-.035l-.104-.014-.08-.01a1 1 0 0 0-.14-.012c-.242 0-.473.044-.695.108q0 .01.004.02l.005.024a.62.62 0 0 1-.621.62.6.6 0 0 1-.368-.134q-.207.185-.37.413c.068.1.117.213.117.342 0 .311-.234.56-.534.603l-.014.064a2 2 0 0 0-.044.234l-.05.312c-.016.19-.045.421-.09.671q.02-.003.04-.01.034-.01.072-.012a.621.621 0 0 1 0 1.241.6.6 0 0 1-.403-.157 4 4 0 0 1-.391.778l1.416-.008a.62.62 0 0 1 1.237-.007l.69-.004c.197 0 .387-.027.572-.07a.61.61 0 0 1 .603-.532m1.86-4.207.012.016q.186.25.327.53l1.286-1.285-1.755-1.755-1.318 1.318a3.8 3.8 0 0 1 1.447 1.176Zm.748-3.372 1.756 1.755 1.73-1.73c.597-.597 1.715-1.88 2.595-3.065v-2.136c-1.334.787-3.433 2.527-4.35 3.445zM36.403 40.76c.159 0 .288-.13.288-.288v-9.023H11.24v9.023c0 .159.13.288.288.288h24.873ZM11.243 7.53v22.678H36.69V14.654a1 1 0 0 1-.244.036h-5.731c-.962 1.407-2.432 3.115-3.191 3.875l-4.375 4.374a3.795 3.795 0 0 1-3.773 4.146l-1.307.018h-4.332l-.1-.57a.656.656 0 0 1 .492-.716c1.267-.306 1.433-2.237 1.454-2.821l.012-.333.068-.045a3.77 3.77 0 0 1 3.713-3.114q.056.001.11.005l.067.004 4.46-4.46c.866-.866 3.631-3.24 5.228-3.966V7.484c0-.084.016-.164.036-.243H11.53a.29.29 0 0 0-.288.288Zm6.89 29.73h-.755v2.258H16.36v-6.254h1.798q.4 0 .79.128.39.127.7.381.31.255.5.615.19.361.191.811 0 .475-.161.861a1.8 1.8 0 0 1-.45.65 2 2 0 0 1-.696.407 2.7 2.7 0 0 1-.9.144Zm.008-3.224h-.764v2.478h.934q.187 0 .37-.064a.9.9 0 0 0 .334-.208 1 1 0 0 0 .246-.403 1.9 1.9 0 0 0 .051-.993 1 1 0 0 0-.174-.381 1 1 0 0 0-.369-.306q-.238-.123-.628-.123m4.88 4.71q-.17 0-.365-.034a4 4 0 0 1-.39-.09 7 7 0 0 1-.378-.118 2 2 0 0 1-.3-.132l-.179.73q.144.127.344.217t.42.14q.22.052.437.072.216.021.42.021.476 0 .849-.144.373-.143.628-.386a1.7 1.7 0 0 0 .395-.56 1.6 1.6 0 0 0 .14-.657q0-.502-.195-.82a1.8 1.8 0 0 0-.488-.53 3.4 3.4 0 0 0-.632-.36 8 8 0 0 1-.628-.305 1.9 1.9 0 0 1-.484-.365.77.77 0 0 1-.195-.548.7.7 0 0 1 .068-.284.9.9 0 0 1 .187-.267q.119-.12.272-.2a.9.9 0 0 1 .322-.097q.306-.026.501-.009t.314.06q.12.042.183.085.063.042.115.067a1 1 0 0 0 .05-.085q.043-.075.102-.19l.083-.16.045-.087q.068-.131.118-.242a1.7 1.7 0 0 0-.645-.233 4.5 4.5 0 0 0-.789-.072q-.381 0-.725.119t-.603.343a1.64 1.64 0 0 0-.564 1.286q0 .458.195.763.195.306.492.53t.636.39.633.332a2.1 2.1 0 0 1 .488.369q.194.204.194.492 0 .475-.275.717-.28.242-.796.242m6.39.607q-.298.106-.543.136t-.365.03h-2.367v-6.255h1.884q.789 0 1.387.25.6.25.993.666c.393.416.46.593.59.946q.195.53.195 1.09 0 .773-.166 1.32-.165.547-.42.917-.254.37-.573.581a2.8 2.8 0 0 1-.615.319m-2.257-5.317v4.736h1.01q1.035 0 1.493-.662.459-.661.458-1.918 0-.39-.093-.772a1.65 1.65 0 0 0-.36-.691 1.9 1.9 0 0 0-.726-.501q-.457-.192-1.188-.192zM19.311 22.76a.62.62 0 1 0 0-1.242.62.62 0 0 0 0 1.242m1.861.62a.62.62 0 1 1-1.241 0 .62.62 0 0 1 1.241 0M18.07 24a.62.62 0 1 0 0-1.24.62.62 0 0 0 0 1.24m1.862.622a.62.62 0 1 1-1.241 0 .62.62 0 0 1 1.241 0" clip-rule="evenodd"/></svg>