<svg xmlns="http://www.w3.org/2000/svg" viewBox="0 0 48 48" role="presentation" aria-hidden="true"><path fill-rule="evenodd" clip-rule="evenodd" d="m33.978 9.953 3.611 3.611c.217.216.342.517.342.825V40.47A1.53 1.53 0 0 1 36.402 42H11.53A1.53 1.53 0 0 1 10 40.471V7.53A1.53 1.53 0 0 1 11.529 6h18.013c.308 0 .608.125.825.342l.478.478 3.133 3.133Zm-3.495 1.573v1.922h5.235l-5.235-5.235v3.313Zm-9.931 13.715c.121 0 .228.044.324.105.152-.112.288-.242.412-.384a.602.602 0 0 1-.116-.341c0-.343.279-.621.621-.621.003 0 .006 0 .01.002a.034.034 0 0 0 .01.002 2.51 2.51 0 0 0 .113-.71c0-.152-.02-.299-.045-.444l-.003-.016c-.003-.016-.008-.032-.012-.047a.425.425 0 0 1-.011-.04.165.165 0 0 0-.027.005.129.129 0 0 1-.035.007.62.62 0 0 1-.441-1.056l-.039-.046a2.55 2.55 0 0 0-.327-.319.619.619 0 0 1-1.055-.441.13.13 0 0 1 .007-.037c.002-.01.005-.018.006-.029a4.874 4.874 0 0 1-.066-.015 1.672 1.672 0 0 0-.178-.035l-.104-.014a1.696 1.696 0 0 1-.08-.01 1.02 1.02 0 0 0-.14-.012c-.242 0-.473.044-.695.108 0 .007.002.014.004.02.003.008.005.015.005.024a.62.62 0 0 1-.621.62.608.608 0 0 1-.368-.134c-.139.123-.26.262-.37.413.068.1.117.213.117.342 0 .311-.234.56-.534.603a6.51 6.51 0 0 1-.014.064 1.89 1.89 0 0 0-.044.234l-.05.312c-.016.19-.045.421-.09.671.014-.002.027-.006.04-.01.023-.006.046-.012.072-.012a.621.621 0 0 1 0 1.241.614.614 0 0 1-.403-.157 4.01 4.01 0 0 1-.391.778l1.416-.008a.62.62 0 0 1 1.237-.007l.69-.004c.197 0 .387-.027.572-.07a.613.613 0 0 1 .603-.532Zm1.86-4.207.012.016c.123.167.234.344.327.53l1.286-1.285-1.755-1.755-1.318 1.318a3.804 3.804 0 0 1 1.447 1.176Zm.748-3.372 1.756 1.755 1.73-1.73c.597-.597 1.715-1.88 2.595-3.065v-2.136c-1.334.787-3.433 2.527-4.35 3.445l-1.73 1.731ZM36.403 40.76c.159 0 .288-.13.288-.288v-9.023H11.24v9.023c0 .159.13.288.288.288h24.873Zm-25.16-33.23v22.678H36.69V14.654a.97.97 0 0 1-.244.036h-5.731c-.962 1.407-2.432 3.115-3.191 3.875l-4.375 4.374a3.795 3.795 0 0 1-3.773 4.146l-1.307.018h-4.332l-.1-.57a.656.656 0 0 1 .492-.716c1.267-.306 1.433-2.237 1.454-2.821l.012-.333.068-.045a3.769 3.769 0 0 1 3.713-3.114c.037 0 .074.003.11.005l.067.004 4.46-4.46c.866-.866 3.631-3.24 5.228-3.966V7.484c0-.084.016-.164.036-.243H11.53a.288.288 0 0 0-.288.288Zm6.89 29.73h-.755v2.258h-1.018v-6.254h1.798c.266 0 .53.043.79.128.26.084.493.212.7.381.206.17.373.375.5.615.127.241.191.511.191.811 0 .317-.054.604-.161.861a1.808 1.808 0 0 1-.45.65 2.027 2.027 0 0 1-.696.407 2.678 2.678 0 0 1-.9.144Zm.008-3.224h-.764v2.478h.934c.124 0 .248-.022.37-.064a.932.932 0 0 0 .334-.208c.102-.096.184-.23.246-.403a1.908 1.908 0 0 0 .051-.993 1.015 1.015 0 0 0-.174-.381 1.027 1.027 0 0 0-.369-.306c-.159-.082-.368-.123-.628-.123Zm4.88 4.71c-.113 0-.235-.012-.365-.034a3.703 3.703 0 0 1-.39-.09 6.962 6.962 0 0 1-.378-.118 1.784 1.784 0 0 1-.3-.132l-.179.73c.096.085.21.157.344.217.133.06.273.106.42.14.147.034.293.059.437.072.144.014.284.021.42.021.317 0 .6-.047.849-.144.249-.096.458-.224.628-.386a1.73 1.73 0 0 0 .395-.56 1.61 1.61 0 0 0 .14-.657c0-.334-.065-.608-.195-.82a1.822 1.822 0 0 0-.488-.53 3.387 3.387 0 0 0-.632-.36 7.92 7.92 0 0 1-.628-.305 1.892 1.892 0 0 1-.484-.365c-.13-.14-.195-.322-.195-.548a.68.68 0 0 1 .068-.284.917.917 0 0 1 .187-.267c.079-.08.17-.146.272-.2a.863.863 0 0 1 .322-.097c.204-.017.371-.02.501-.009.13.012.235.031.314.06.08.028.14.056.183.085.042.028.08.05.115.067a.777.777 0 0 0 .05-.085c.028-.05.063-.114.102-.19l.083-.16.045-.087c.045-.088.085-.168.118-.242a1.74 1.74 0 0 0-.645-.233 4.461 4.461 0 0 0-.789-.072c-.254 0-.496.04-.725.119-.23.079-.43.194-.603.343a1.644 1.644 0 0 0-.564 1.286c0 .305.064.56.195.763.13.204.294.38.492.53.198.15.41.28.636.39.226.111.437.221.633.332a2.1 2.1 0 0 1 .488.369c.13.136.194.3.194.492 0 .317-.091.556-.275.717-.187.161-.451.242-.796.242Zm6.39.607c-.198.071-.38.116-.543.136-.164.02-.286.03-.365.03h-2.367v-6.255h1.884c.526 0 .988.084 1.387.25.4.166.73.389.993.666s.46.593.59.946c.13.353.195.717.195 1.09 0 .515-.055.955-.166 1.32-.11.365-.25.67-.42.917-.17.246-.36.44-.573.581a2.844 2.844 0 0 1-.615.319Zm-2.257-5.317v4.736h1.01c.69 0 1.188-.22 1.493-.662.306-.441.458-1.08.458-1.918 0-.26-.03-.518-.093-.772a1.652 1.652 0 0 0-.36-.691 1.903 1.903 0 0 0-.726-.501c-.305-.128-.701-.192-1.188-.192h-.594ZM19.311 22.76a.62.62 0 1 0 0-1.242.62.62 0 0 0 0 1.242Zm1.861.62a.62.62 0 1 1-1.241 0 .62.62 0 0 1 1.241 0ZM18.07 24a.62.62 0 1 0 0-1.24.62.62 0 0 0 0 1.24Zm1.862.622a.62.62 0 1 1-1.241 0 .62.62 0 0 1 1.241 0Z" fill="currentColor"/></svg>