<svg xmlns="http://www.w3.org/2000/svg" width="20" height="20" fill="none" viewBox="0 0 20 20"><path stroke="currentColor" stroke-linecap="round" stroke-linejoin="round" stroke-width="1.3" d="M10.002 17.709a7.709 7.709 0 1 0-6.923-4.314c.09.183.12.39.075.588l-.68 2.947a.5.5 0 0 0 .6.6l2.945-.681a.88.88 0 0 1 .589.075 7.7 7.7 0 0 0 3.394.785"/><path stroke="currentColor" stroke-linecap="round" stroke-linejoin="round" stroke-width="1.3" d="M7.753 8.091a2.25 2.25 0 1 1 4.042 1.359 3 3 0 0 1-.267.264 2 2 0 0 1-.19.142l-.815.563a1.51 1.51 0 0 0-.653 1.244"/><path fill="currentColor" d="M9.859 14.784a.833.833 0 1 0 0-1.667.833.833 0 0 0 0 1.667"/></svg>