<svg xmlns="http://www.w3.org/2000/svg" width="20" height="20" fill="none" viewBox="0 0 20 20"><path fill="currentColor" fill-rule="evenodd" d="M10 3.333a6.667 6.667 0 1 0 0 13.334 6.667 6.667 0 0 0 0-13.334M2 10a8 8 0 1 1 16 0 8 8 0 0 1-16 0" clip-rule="evenodd"/><path fill="currentColor" fill-rule="evenodd" d="M10.2 7.019A1.53 1.53 0 0 0 8.496 8.02a.667.667 0 0 1-1.258-.443 2.867 2.867 0 0 1 5.571.955c0 1.087-.807 1.811-1.397 2.205a5.8 5.8 0 0 1-1.246.623l-.008.003h-.003v.001h-.001l-.212-.632.211.633A.667.667 0 0 1 9.73 10.1l.013-.005.056-.02c.05-.02.125-.05.215-.09.184-.081.423-.201.658-.358.51-.34.803-.716.803-1.095v-.001A1.53 1.53 0 0 0 10.2 7.019m2.608 1.514-.667-.001zm-3.475 5.134c0-.368.298-.667.667-.667h.007a.667.667 0 0 1 0 1.333H10a.667.667 0 0 1-.667-.666" clip-rule="evenodd"/></svg>