<svg xmlns="http://www.w3.org/2000/svg" aria-hidden="true" viewBox="0 0 48 48"><path fill="currentColor" fill-rule="evenodd" d="M24.195 9c-8.284 0-15 6.716-15 15s6.716 15 15 15c8.285 0 15-6.716 15-15s-6.715-15-15-15m-18 15c0-9.941 8.06-18 18-18 9.941 0 18 8.059 18 18s-8.059 18-18 18c-9.94 0-18-8.059-18-18" clip-rule="evenodd"/><path fill="currentColor" fill-rule="evenodd" d="M24.647 17.292a3.45 3.45 0 0 0-3.838 2.256 1.5 1.5 0 1 1-2.83-.996 6.45 6.45 0 0 1 12.535 2.149c-.001 2.446-1.816 4.074-3.143 4.96a13 13 0 0 1-2.805 1.402l-.018.006-.006.003h-.003l-.476-1.422.475 1.423a1.5 1.5 0 0 1-.952-2.845h.002l.002-.001.026-.01.126-.046a10 10 0 0 0 1.964-1.006c1.147-.765 1.807-1.611 1.807-2.465v-.002a3.45 3.45 0 0 0-2.866-3.406m5.866 3.409v.001l-1.5-.002zM22.695 32.25a1.5 1.5 0 0 1 1.5-1.5h.017a1.5 1.5 0 0 1 0 3h-.017a1.5 1.5 0 0 1-1.5-1.5" clip-rule="evenodd"/></svg>