<svg xmlns="http://www.w3.org/2000/svg" width="32" height="32" fill="none" viewBox="0 0 32 32"><rect width="32" height="32" fill="#c9e3ff" rx="4"/><path fill="#0049f8" d="M15.133 11.266a1 1 0 0 0 1.732 0l3.013-5.22a1 1 0 0 0-.866-1.5h-6.026a1 1 0 0 0-.866 1.5zm2.34 11.297a1.469 1.469 0 1 1-2.938 0 1.469 1.469 0 0 1 2.938 0"/><path fill="#0049f8" d="M5.625 25.984a1.469 1.469 0 1 1-2.937 0 1.469 1.469 0 0 1 2.937 0m3.938 0a1.469 1.469 0 1 1-2.938 0 1.469 1.469 0 0 1 2.938 0m3.937 0a1.469 1.469 0 1 1-2.938 0 1.469 1.469 0 0 1 2.938 0m7.938 0a1.469 1.469 0 1 1-2.938 0 1.469 1.469 0 0 1 2.938 0m3.937 0a1.469 1.469 0 1 1-2.938 0 1.469 1.469 0 0 1 2.938 0m3.938 0a1.469 1.469 0 1 1-2.938 0 1.469 1.469 0 0 1 2.938 0" opacity=".5"/></svg>