<svg xmlns="http://www.w3.org/2000/svg" width="32" height="32" fill="none" viewBox="0 0 32 32"><rect width="32" height="32" fill="#FFEB98" rx="4"/><path fill="#BE4C1A" d="M10.227 12.441a1 1 0 0 1 1-1h9.539a1 1 0 0 1 1 1v9.54a1 1 0 0 1-1 1h-9.54a1 1 0 0 1-1-1v-9.54Z"/><path fill="#BE4C1A" d="M20.766 21.98v1h-9.54v-1h9.54Zm0-9.539h-9.54v10.54a1 1 0 0 1-1-1v-9.54a1 1 0 0 1 .898-.995l.103-.005h9.539l.102.005a1 1 0 0 1 .898.995v9.54l-.005.102a1 1 0 0 1-.995.898V12.44Z"/><path fill="#BE4C1A" d="M5.688 16.73a2.605 2.605 0 1 1 5.21 0 2.605 2.605 0 0 1-5.21 0ZM21.11 16.602a2.605 2.605 0 1 1 5.21 0 2.605 2.605 0 0 1-5.21 0Z"/><path fill="#FFEB98" d="M15.996 25.586a2.605 2.605 0 1 1 0-5.211 2.605 2.605 0 0 1 0 5.21Z"/><path fill="#BE4C1A" d="M15.879 11.621a2.605 2.605 0 1 1 0-5.21 2.605 2.605 0 0 1 0 5.21Z"/></svg>