<svg width="32" height="32" viewBox="0 0 32 32" fill="none" xmlns="http://www.w3.org/2000/svg">
<rect width="32" height="32" rx="4" fill="#EAE4FF"/>
<path d="M24.5596 18.4473C25.17 18.5679 25.7371 18.8085 26.2363 19.1426H26.2373L25.959 19.5576C26.4119 19.8608 26.8022 20.2512 27.1055 20.7041L27.5205 20.4268C27.8547 20.9259 28.0941 21.4932 28.2148 22.1035H28.2158L27.7256 22.2002C27.7774 22.4621 27.8047 22.7338 27.8047 23.0117C27.8047 23.2895 27.7774 23.5605 27.7256 23.8223L28.2148 23.918C28.0941 24.5289 27.854 25.0962 27.5195 25.5957L27.1055 25.3184C26.8022 25.7713 26.4119 26.1616 25.959 26.4648L26.2363 26.8789C25.7371 27.2131 25.1701 27.4535 24.5596 27.5742L24.4629 27.085C24.2012 27.1367 23.9301 27.1641 23.6523 27.1641C23.3745 27.1641 23.1035 27.1367 22.8418 27.085L22.7441 27.5742C22.1337 27.4534 21.5666 27.2132 21.0674 26.8789L21.3457 26.4648C20.8928 26.1616 20.5025 25.7713 20.1992 25.3184L19.7842 25.5957C19.4498 25.0962 19.2095 24.5287 19.0889 23.918L19.5791 23.8223C19.5403 23.626 19.515 23.4244 19.5049 23.2188L19.5 23.0117C19.5 22.7338 19.5273 22.4621 19.5791 22.2002L19.0889 22.1035C19.2096 21.4933 19.4492 20.9258 19.7832 20.4268L20.1992 20.7041C20.5025 20.2512 20.8928 19.8608 21.3457 19.5576L21.0674 19.1426C21.5665 18.8084 22.1338 18.568 22.7441 18.4473L22.8418 18.9385C23.1036 18.8867 23.3745 18.8594 23.6523 18.8594C23.9302 18.8594 24.2011 18.8867 24.4629 18.9385L24.5596 18.4473ZM10.9307 4.92969C11.7571 5.093 12.5253 5.41774 13.2012 5.87012L12.9238 6.28613C13.5559 6.70938 14.1002 7.25365 14.5234 7.88574L14.9385 7.60742C15.391 8.28323 15.7154 9.05148 15.8789 9.87793L15.3896 9.97461C15.462 10.3403 15.5 10.7187 15.5 11.1064C15.5 11.4942 15.462 11.8726 15.3896 12.2383L15.8789 12.334C15.7155 13.1605 15.391 13.9286 14.9385 14.6045L14.5234 14.3271C14.1002 14.9592 13.5559 15.5035 12.9238 15.9268L13.2012 16.3418C12.5253 16.7943 11.7572 17.1189 10.9307 17.2822L10.835 16.793C10.4693 16.8653 10.0909 16.9033 9.70312 16.9033C9.31535 16.9033 8.93695 16.8653 8.57129 16.793L8.47461 17.2822C7.64816 17.1187 6.87991 16.7944 6.2041 16.3418L6.48242 15.9268C5.85033 15.5035 5.30606 14.9592 4.88281 14.3271L4.4668 14.6045C4.01441 13.9287 3.68968 13.1604 3.52637 12.334L4.0166 12.2383C3.94426 11.8726 3.90625 11.4942 3.90625 11.1064C3.90625 10.7187 3.94426 10.3403 4.0166 9.97461L3.52637 9.87793C3.6898 9.05159 4.01435 8.28317 4.4668 7.60742L4.88281 7.88574C5.30606 7.25365 5.85033 6.70938 6.48242 6.28613L6.2041 5.87012C6.87985 5.41767 7.64827 5.09312 8.47461 4.92969L8.57129 5.41992C8.93695 5.34759 9.31535 5.30957 9.70312 5.30957C10.0909 5.30957 10.4693 5.34759 10.835 5.41992L10.9307 4.92969Z" stroke="#7C5BFF" stroke-dasharray="2 2"/>
</svg>
