<svg xmlns="http://www.w3.org/2000/svg" viewBox="0 0 32 32" role="presentation" aria-hidden="true"><rect width="32" height="32" rx="4" fill="#ABC4FF"/><path d="M8.46162 8.44666C9.1239 7.80443 9.86028 7.24331 10.6552 6.77515C11.4522 6.31025 12.306 5.95044 13.1954 5.70468C14.5377 5.33579 15.9406 5.24046 17.3205 5.42435C18.7004 5.60824 20.0293 6.0676 21.2283 6.77515C22.0309 7.24052 22.7685 7.80993 23.4219 8.46859C24.0724 9.12584 24.637 9.86291 25.1021 10.6622C25.5714 11.47 25.9327 12.3358 26.177 13.2374C26.6626 15.0555 26.6626 16.9692 26.177 18.7872C25.9304 19.679 25.5706 20.5357 25.1065 21.3362C24.6433 22.1367 24.0785 22.874 23.4262 23.5297C22.7686 24.186 22.0317 24.7578 21.2327 25.232C20.4338 25.6993 19.5767 26.0592 18.6837 26.3024C16.8805 26.788 14.981 26.788 13.1778 26.3024C12.2909 26.0616 11.4408 25.7015 10.6508 25.232C9.85848 24.7396 9.12284 24.1614 8.45723 23.5078C7.79826 22.8547 7.22882 22.1171 6.76378 21.3142C6.30154 20.501 5.94337 19.6328 5.6977 18.7302C5.21209 16.9196 5.21209 15.013 5.6977 13.2023C5.94579 12.3041 6.30542 11.4404 6.76817 10.6315C7.23108 9.82985 7.80078 9.09486 8.46162 8.44666ZM19.9209 22.7971C20.513 22.4636 21.0575 22.0519 21.5398 21.5731C22.0202 21.0901 22.4347 20.5457 22.7726 19.9542C23.1249 19.3633 23.395 18.7272 23.5754 18.0633C23.9264 16.7141 23.9264 15.2974 23.5754 13.9482C23.4 13.2825 23.1265 12.6467 22.7638 12.0617C22.4227 11.4696 22.0085 10.9228 21.531 10.434C21.0505 9.94828 20.5059 9.53055 19.9121 9.19248C19.3187 8.85371 18.6849 8.59133 18.0256 8.41156C17.3518 8.23092 16.6569 8.14092 15.9593 8.14394V23.8939C16.657 23.8788 17.3506 23.7816 18.0256 23.6043C18.6881 23.4237 19.3249 23.1599 19.9209 22.819V22.7971Z" fill="#3E64DE"/></svg>