<svg xmlns="http://www.w3.org/2000/svg" width="32" height="32" fill="none" viewBox="0 0 32 32"><rect width="32" height="32" fill="#C9E3FF" rx="4"/><path fill="#0049F8" d="M15.133 11.266a1 1 0 0 0 1.732 0l3.013-5.22a1 1 0 0 0-.866-1.5h-6.026a1 1 0 0 0-.866 1.5l3.013 5.22ZM17.473 22.563a1.469 1.469 0 1 1-2.938 0 1.469 1.469 0 0 1 2.938 0Z"/><g fill="#0049F8" opacity=".5"><path d="M5.625 25.984a1.469 1.469 0 1 1-2.937 0 1.469 1.469 0 0 1 2.937 0ZM9.563 25.984a1.469 1.469 0 1 1-2.938 0 1.469 1.469 0 0 1 2.938 0ZM13.5 25.984a1.469 1.469 0 1 1-2.938 0 1.469 1.469 0 0 1 2.938 0ZM21.438 25.984a1.469 1.469 0 1 1-2.938 0 1.469 1.469 0 0 1 2.938 0ZM25.375 25.984a1.469 1.469 0 1 1-2.938 0 1.469 1.469 0 0 1 2.938 0ZM29.313 25.984a1.469 1.469 0 1 1-2.938 0 1.469 1.469 0 0 1 2.938 0Z"/></g></svg>