<svg width="32" height="32" viewBox="0 0 32 32" fill="none" xmlns="http://www.w3.org/2000/svg">
<rect width="32" height="32" rx="4" fill="#ABC4FF"/>
<path d="M10.8962 6.87796C10.9462 6.8115 11.0123 6.75887 11.0883 6.72502C11.1711 6.68404 11.2626 6.66385 11.355 6.6662C11.4485 6.66429 11.5412 6.68445 11.6256 6.72502C11.7009 6.75998 11.7668 6.81241 11.8177 6.87796L15.1471 10.1956C15.2492 10.28 15.323 10.3936 15.3589 10.5211C15.3833 10.6529 15.3697 10.7889 15.3196 10.9132C15.2815 11.0395 15.1994 11.148 15.0883 11.2191C14.9698 11.2891 14.8336 11.3232 14.6961 11.3171H12.7157V24.6268C12.7188 24.7244 12.7028 24.8216 12.6687 24.9131C12.6351 24.9928 12.5858 25.0648 12.5236 25.1248C12.4652 25.1862 12.3924 25.232 12.3118 25.2582C12.2259 25.2865 12.1356 25.2998 12.0452 25.2974H10.7236C10.6293 25.299 10.5354 25.2857 10.4452 25.2582C10.3623 25.2321 10.2869 25.1864 10.2256 25.1248C10.1641 25.0658 10.1171 24.9933 10.0883 24.9131C10.061 24.8202 10.0478 24.7237 10.0491 24.6268V11.3211H8.0256C7.88823 11.3262 7.75223 11.2922 7.63344 11.223C7.52345 11.1507 7.44174 11.0427 7.40207 10.9171C7.33549 10.7978 7.31548 10.658 7.3459 10.5247C7.37631 10.3915 7.455 10.2742 7.56678 10.1956L10.8962 6.87796ZM20.0216 14.4387C19.9884 14.4916 19.9458 14.5381 19.8961 14.5759C19.8611 14.6108 19.8179 14.6364 19.7706 14.6504C19.7246 14.6633 19.6771 14.6699 19.6294 14.67H18.1157C18.036 14.672 17.9569 14.6559 17.8843 14.623C17.8211 14.5895 17.7682 14.5393 17.7314 14.4779C17.6813 14.4172 17.6487 14.344 17.6373 14.2661C17.6263 14.1817 17.64 14.0959 17.6765 14.0191L20.049 7.0309C20.0792 6.92615 20.1442 6.83484 20.2333 6.77208C20.3196 6.71262 20.4227 6.68239 20.5274 6.68581H22.1745C22.2769 6.68118 22.3779 6.71161 22.4607 6.77208C22.5467 6.83632 22.6088 6.9274 22.6372 7.0309L25.0293 14.0191C25.0461 14.0979 25.0461 14.1794 25.0293 14.2583C25.0132 14.3347 24.9868 14.4085 24.9509 14.4779C24.9042 14.5378 24.8454 14.5873 24.7784 14.623C24.7125 14.6551 24.6399 14.6712 24.5666 14.67H23.0764C22.9654 14.6756 22.8558 14.6423 22.7666 14.5759C22.6855 14.4983 22.6319 14.3965 22.6137 14.2857L22.2215 13.1093H20.4529L20.0882 14.2857C20.0744 14.34 20.0519 14.3916 20.0216 14.4387ZM24.3784 18.9798C24.4044 18.9375 24.4229 18.8911 24.4333 18.8425C24.4475 18.7928 24.4541 18.7413 24.4529 18.6896V17.8308C24.4536 17.7647 24.4402 17.6992 24.4137 17.6386C24.3885 17.5737 24.3497 17.5149 24.2999 17.4661C24.2559 17.4196 24.2042 17.3811 24.147 17.3524C24.0873 17.3232 24.0212 17.3097 23.9548 17.3132H18.8059C18.7398 17.3125 18.6743 17.3258 18.6137 17.3524C18.5488 17.3776 18.49 17.4164 18.4412 17.4661C18.3899 17.5175 18.3499 17.5789 18.3235 17.6465C18.2956 17.7107 18.2822 17.7804 18.2843 17.8504V19.0543C18.2866 19.11 18.2999 19.1646 18.3235 19.2151C18.3811 19.3352 18.4779 19.4321 18.598 19.4896C18.6623 19.5176 18.7319 19.531 18.802 19.5288H21.1353L18.2647 23.6072C18.2256 23.6456 18.1937 23.6908 18.1706 23.7405C18.1453 23.789 18.1318 23.8427 18.1314 23.8974V24.815C18.1315 24.8811 18.1448 24.9464 18.1706 25.0072C18.1958 25.0721 18.2346 25.131 18.2843 25.1797C18.3313 25.2262 18.3856 25.2646 18.4451 25.2935C18.5099 25.3196 18.5792 25.3329 18.649 25.3327H24.0529C24.1175 25.331 24.1812 25.3177 24.2411 25.2935C24.3058 25.2677 24.3645 25.229 24.4137 25.1797C24.4622 25.1322 24.502 25.0764 24.5313 25.015C24.5561 24.9513 24.5681 24.8834 24.5666 24.815V23.6111C24.5659 23.5455 24.554 23.4805 24.5313 23.419C24.5032 23.3558 24.4632 23.2986 24.4137 23.2503C24.3675 23.2019 24.313 23.1621 24.2529 23.1327C24.1894 23.1069 24.1215 23.0936 24.0529 23.0935H21.5235L21.6019 22.9798L24.3784 18.9798ZM21.6333 11.0505L21.3666 10.0936L21.0686 11.0505H21.6333Z" fill="#3E64DE"/>
</svg>
