<svg width="20" height="20" viewBox="0 0 20 20" fill="none" xmlns="http://www.w3.org/2000/svg">
<path d="M12.8241 3.65873C12.9288 3.76359 13.0596 3.83861 13.2031 3.87606C13.3465 3.91352 13.4973 3.91204 13.6399 3.8718C13.7826 3.83155 13.9119 3.75399 14.0146 3.6471C14.1173 3.54022 14.1896 3.40788 14.2241 3.26373C14.3106 2.90365 14.4915 2.57313 14.7482 2.30621C15.0049 2.0393 15.3281 1.84564 15.6846 1.74517C16.041 1.6447 16.4178 1.64106 16.7761 1.73462C17.1344 1.82819 17.4613 2.01557 17.7232 2.27748C17.985 2.53938 18.1722 2.86634 18.2657 3.22469C18.3591 3.58304 18.3554 3.95982 18.2548 4.31623C18.1542 4.67263 17.9604 4.99579 17.6934 5.25241C17.4264 5.50903 17.0959 5.68985 16.7357 5.77623C16.5916 5.81073 16.4593 5.88305 16.3524 5.98573C16.2455 6.08841 16.1679 6.21775 16.1277 6.36039C16.0874 6.50304 16.086 6.65384 16.1234 6.79725C16.1609 6.94066 16.2359 7.07148 16.3407 7.17623L17.7432 8.5779C17.9301 8.7647 18.0782 8.98647 18.1793 9.23054C18.2804 9.47462 18.3325 9.73621 18.3325 10.0004C18.3325 10.2646 18.2804 10.5262 18.1793 10.7703C18.0782 11.0143 17.9301 11.2361 17.7432 11.4229L16.3407 12.8254C16.236 12.9303 16.1052 13.0053 15.9618 13.0427C15.8184 13.0802 15.6675 13.0787 15.5249 13.0385C15.3823 12.9982 15.2529 12.9207 15.1502 12.8138C15.0476 12.7069 14.9752 12.5745 14.9407 12.4304C14.8542 12.0703 14.6733 11.7398 14.4166 11.4729C14.1599 11.206 13.8367 11.0123 13.4802 10.9118C13.1238 10.8114 12.747 10.8077 12.3887 10.9013C12.0304 10.9949 11.7035 11.1822 11.4417 11.4441C11.1798 11.706 10.9926 12.033 10.8991 12.3914C10.8057 12.7497 10.8094 13.1265 10.91 13.4829C11.0106 13.8393 11.2044 14.1625 11.4714 14.4191C11.7384 14.6757 12.069 14.8565 12.4291 14.9429C12.5732 14.9774 12.7056 15.0497 12.8124 15.1524C12.9193 15.2551 12.9969 15.3844 13.0371 15.5271C13.0774 15.6697 13.0789 15.8205 13.0414 15.9639C13.004 16.1073 12.9289 16.2381 12.8241 16.3429L11.4216 17.7446C11.2348 17.9314 11.013 18.0796 10.7689 18.1807C10.5249 18.2818 10.2633 18.3338 9.99907 18.3338C9.73489 18.3338 9.47329 18.2818 9.22922 18.1807C8.98514 18.0796 8.76337 17.9314 8.57657 17.7446L7.17407 16.3421C7.06932 16.2372 6.9385 16.1622 6.79509 16.1247C6.65168 16.0873 6.50088 16.0888 6.35824 16.129C6.21559 16.1692 6.08626 16.2468 5.98357 16.3537C5.88089 16.4606 5.80857 16.5929 5.77407 16.7371C5.68757 17.0971 5.50665 17.4277 5.24993 17.6946C4.99322 17.9615 4.67 18.1552 4.31356 18.2556C3.95712 18.3561 3.58034 18.3597 3.22202 18.2662C2.86371 18.1726 2.53681 17.9852 2.27499 17.7233C2.01317 17.4614 1.82589 17.1345 1.73245 16.7761C1.63901 16.4178 1.64277 16.041 1.74336 15.6846C1.84394 15.3282 2.03771 15.005 2.30471 14.7484C2.57171 14.4918 2.90229 14.311 3.26241 14.2246C3.40655 14.1901 3.53889 14.1178 3.64577 14.0151C3.75266 13.9124 3.83022 13.7831 3.87047 13.6404C3.91072 13.4978 3.91219 13.347 3.87474 13.2035C3.83729 13.0601 3.76226 12.9293 3.65741 12.8246L2.25491 11.4229C2.06809 11.2361 1.91991 11.0143 1.8188 10.7703C1.7177 10.5262 1.66567 10.2646 1.66567 10.0004C1.66567 9.73621 1.7177 9.47462 1.8188 9.23054C1.91991 8.98647 2.06809 8.7647 2.25491 8.5779L3.65741 7.1754C3.76216 7.07054 3.89298 6.99552 4.03639 6.95807C4.17979 6.92061 4.3306 6.92209 4.47324 6.96234C4.61589 7.00258 4.74522 7.08015 4.84791 7.18703C4.95059 7.29392 5.02291 7.42625 5.05741 7.5704C5.14391 7.93048 5.32483 8.261 5.58154 8.52792C5.83826 8.79483 6.16148 8.9885 6.51792 9.08896C6.87436 9.18943 7.25114 9.19307 7.60945 9.09951C7.96777 9.00594 8.29467 8.81856 8.55649 8.55666C8.81831 8.29475 9.00558 7.96779 9.09903 7.60944C9.19247 7.25109 9.18871 6.87431 9.08812 6.51791C8.98754 6.1615 8.79377 5.83834 8.52677 5.58172C8.25977 5.3251 7.92919 5.14428 7.56907 5.0579C7.42493 5.0234 7.29259 4.95108 7.1857 4.8484C7.07882 4.74572 7.00126 4.61638 6.96101 4.47374C6.92076 4.33109 6.91929 4.18029 6.95674 4.03688C6.99419 3.89347 7.06921 3.76265 7.17407 3.6579L8.57657 2.25623C8.76337 2.06942 8.98514 1.92123 9.22922 1.82013C9.47329 1.71903 9.73489 1.66699 9.99907 1.66699C10.2633 1.66699 10.5249 1.71903 10.7689 1.82013C11.013 1.92123 11.2348 2.06942 11.4216 2.25623L12.8241 3.65873Z" stroke="currentColor" stroke-width="1.25" stroke-linecap="round" stroke-linejoin="round"/>
</svg>
