<svg width="32" height="32" viewBox="0 0 32 32" fill="none" xmlns="http://www.w3.org/2000/svg">
<rect width="32" height="32" rx="4" fill="#F9DCC4"/>
<path d="M19.7878 15.012C19.2612 15.4492 18.6571 15.7835 18.007 15.9974C18.6557 16.2145 19.2593 16.5484 19.7878 16.9827C20.3412 17.4485 20.8191 17.9972 21.2045 18.6092C21.6149 19.2475 21.927 19.9439 22.1305 20.6749C22.3403 21.43 22.4455 22.2103 22.4431 22.9939C22.556 22.9944 22.6676 23.0173 22.7716 23.0612C22.8793 23.1105 22.9772 23.1789 23.0605 23.263C23.1448 23.3477 23.2131 23.4469 23.2623 23.5558C23.3069 23.6596 23.3298 23.7714 23.3296 23.8843V24.4423C23.3295 24.5552 23.3066 24.6669 23.2623 24.7707C23.214 24.879 23.1455 24.977 23.0605 25.0596C22.9773 25.1449 22.8794 25.2146 22.7716 25.2654C22.6676 25.3093 22.556 25.3322 22.4431 25.3327H10.223C10.11 25.3329 9.99824 25.31 9.8945 25.2654C9.78486 25.2157 9.68553 25.1459 9.60165 25.0596C9.51666 24.977 9.44816 24.879 9.39983 24.7707C9.35553 24.6669 9.33265 24.5552 9.33256 24.4423V23.8447C9.33265 23.7318 9.35553 23.6201 9.39983 23.5163C9.44816 23.408 9.51666 23.31 9.60165 23.2274C9.68351 23.1416 9.78359 23.0754 9.8945 23.0335C9.99931 22.9933 10.1107 22.9732 10.223 22.9741C10.2155 22.1912 10.3153 21.4109 10.5198 20.6551C10.724 19.9244 11.0361 19.2281 11.4458 18.5894C11.8305 17.9722 12.3115 17.4205 12.8704 16.955C13.3895 16.5199 13.9854 16.1856 14.6274 15.9697C13.9879 15.7518 13.3927 15.4207 12.8704 14.9922C12.3128 14.5288 11.8355 13.9766 11.4576 13.3578C11.0449 12.7235 10.7288 12.0313 10.5198 11.304C10.3105 10.5422 10.2067 9.75525 10.2111 8.96522C10.0988 8.96612 9.98744 8.94599 9.88262 8.90586C9.77209 8.86512 9.67204 8.80023 9.58978 8.71591C9.5055 8.63118 9.43714 8.53198 9.38796 8.42307C9.34741 8.31847 9.32856 8.20672 9.33256 8.09461V7.55641C9.33232 7.44348 9.35522 7.3317 9.39983 7.22796C9.44902 7.11904 9.51738 7.01985 9.60165 6.93511C9.68671 6.85123 9.78583 6.78292 9.8945 6.73329C9.99824 6.68868 10.11 6.66578 10.223 6.66602H22.4352C22.5481 6.66654 22.6597 6.6894 22.7637 6.73329C22.8706 6.78399 22.9682 6.8522 23.0526 6.93511C23.1369 7.01985 23.2052 7.11904 23.2544 7.22796C23.299 7.3317 23.3219 7.44348 23.3217 7.55641V8.15397C23.3216 8.26687 23.2987 8.37858 23.2544 8.48243C23.2051 8.59011 23.1367 8.68798 23.0526 8.77131C22.9711 8.8557 22.8726 8.9218 22.7637 8.96522C22.6587 9.00474 22.5474 9.02485 22.4352 9.02458C22.4368 9.80168 22.3316 10.5753 22.1226 11.3238C21.9204 12.0552 21.611 12.7526 21.2045 13.3935C20.8198 14.0037 20.3417 14.5498 19.7878 15.012ZM18.9963 12.7128C19.2404 12.3676 19.4499 11.9991 19.6216 11.6127C19.7927 11.2079 19.9252 10.7879 20.0173 10.3582C20.1083 9.91284 20.1534 9.45934 20.1519 9.00479H12.5419C12.54 9.45543 12.5851 9.90504 12.6765 10.3463C12.769 10.7797 12.9015 11.2037 13.0722 11.6127C13.2311 11.9945 13.4329 12.3569 13.6737 12.693C13.8986 13.0105 14.1648 13.2966 14.4652 13.5438C14.737 13.7751 15.0479 13.956 15.3833 14.0781C15.6967 14.185 16.0256 14.2399 16.3568 14.2403C16.6878 14.2407 17.0162 14.1817 17.3263 14.0662C17.6538 13.9403 17.9595 13.7641 18.2326 13.5438C18.5305 13.3077 18.7908 13.0274 19.0042 12.7128H18.9963Z" fill="#FF9770"/>
</svg>
