<svg xmlns="http://www.w3.org/2000/svg" viewBox="0 0 32 32" role="presentation" aria-hidden="true"><rect width="32" height="32" rx="4" fill="#DADAC8"/><path d="M22.6726 21.8975C22.6771 22.1177 22.636 22.3365 22.5518 22.5401C22.4677 22.7436 22.3423 22.9276 22.1836 23.0803C22.0264 23.2277 21.8437 23.3453 21.6444 23.4273C21.4403 23.5111 21.2215 23.5537 21.0008 23.5526H7.67188C7.45102 23.5551 7.23199 23.5124 7.02821 23.4273C6.8271 23.3464 6.64283 23.2288 6.48486 23.0803C6.33881 22.9221 6.22142 22.7397 6.13794 22.5412C6.05039 22.3377 6.00354 22.119 6.00002 21.8975V13.0157C5.99907 12.7954 6.04021 12.577 6.12123 12.3721C6.20778 12.1702 6.3327 11.9871 6.48903 11.8329C6.63405 11.6734 6.81243 11.5478 7.01149 11.4651C7.22135 11.3811 7.44587 11.3399 7.67188 11.3439H8.22359V13.0157H7.87668C7.85036 13.0117 7.82358 13.0117 7.79727 13.0157C7.78315 13.0173 7.76976 13.0229 7.75867 13.0318C7.74757 13.0406 7.73922 13.0525 7.73457 13.0659C7.71122 13.0873 7.6902 13.1111 7.67188 13.137C7.66567 13.1602 7.66567 13.1847 7.67188 13.208V21.6718C7.66512 21.6964 7.66512 21.7224 7.67188 21.747L7.73457 21.8181C7.74764 21.8446 7.76993 21.8654 7.79727 21.8766C7.8232 21.8842 7.85075 21.8842 7.87668 21.8766H20.796C20.819 21.8846 20.844 21.8846 20.867 21.8766C20.8928 21.8598 20.9166 21.8402 20.9381 21.8181C20.9492 21.7929 20.9632 21.769 20.9799 21.747C20.9864 21.7224 20.9864 21.6964 20.9799 21.6718V21.3249H22.6517L22.6726 21.8975ZM24.3487 8.00016C24.5677 7.99828 24.785 8.03947 24.9882 8.12137C25.1876 8.20539 25.3714 8.3227 25.5315 8.46828C25.6871 8.62223 25.8081 8.80742 25.8868 9.01164C25.9659 9.22264 26.0042 9.44674 25.9996 9.67202V18.5496C26.0014 18.77 25.9603 18.9886 25.8784 19.1933C25.795 19.393 25.6776 19.5769 25.5315 19.7366C25.3765 19.8939 25.1918 20.0189 24.9882 20.1044C24.785 20.1863 24.5677 20.2275 24.3487 20.2256H11.0156C10.7908 20.2341 10.5665 20.1986 10.3552 20.1212C10.0493 19.9897 9.78958 19.7699 9.60937 19.4899C9.42917 19.2099 9.33667 18.8825 9.34374 18.5496V9.67202C9.34196 9.45163 9.38313 9.23301 9.46495 9.02836C9.55141 8.82524 9.6763 8.64074 9.83276 8.485C9.98579 8.33596 10.1623 8.21311 10.3552 8.12137C10.5653 8.03824 10.7897 7.99706 11.0156 8.00016H24.3487ZM11.2037 9.67202C11.1804 9.66582 11.1559 9.66582 11.1326 9.67202L11.0616 9.73472C11.0495 9.75944 11.0355 9.7832 11.0198 9.80577C11.0138 9.82907 11.0138 9.85352 11.0198 9.87683V18.349C11.0138 18.3723 11.0138 18.3967 11.0198 18.42C11.0355 18.4426 11.0495 18.4664 11.0616 18.4911C11.0817 18.5123 11.1059 18.5294 11.1326 18.5412C11.1561 18.5456 11.1802 18.5456 11.2037 18.5412H24.123C24.1493 18.5453 24.1761 18.5453 24.2024 18.5412C24.2158 18.5379 24.2284 18.5317 24.2392 18.523C24.25 18.5144 24.2589 18.5035 24.2651 18.4911L24.3278 18.42C24.3338 18.3967 24.3338 18.3723 24.3278 18.349V9.87683C24.3334 9.85066 24.3334 9.82358 24.3278 9.79741C24.3149 9.76979 24.2927 9.74759 24.2651 9.73472L24.194 9.67202C24.1708 9.66582 24.1463 9.66582 24.123 9.67202H11.2037ZM15.1618 11.8956C15.1648 12.0843 15.1307 12.2717 15.0615 12.4473C14.9909 12.6053 14.8948 12.7508 14.7773 12.8778C14.6473 13.0088 14.4904 13.1101 14.3175 13.1746C14.1427 13.2351 13.9591 13.2661 13.7742 13.2665C13.5877 13.2677 13.4025 13.2365 13.2266 13.1746C13.0564 13.1096 12.9023 13.0084 12.7752 12.8778C12.6561 12.7457 12.56 12.5945 12.491 12.4306C12.4184 12.2559 12.3828 12.068 12.3865 11.8789C12.3834 11.6952 12.419 11.5129 12.491 11.3439C12.56 11.1787 12.656 11.0261 12.7752 10.8925C12.9041 10.762 13.0575 10.6583 13.2266 10.5874C13.4023 10.5256 13.5882 10.4986 13.7742 10.508C13.96 10.5069 14.1443 10.5409 14.3175 10.6083C14.4892 10.679 14.6454 10.7827 14.7773 10.9134C14.8946 11.0407 14.9905 11.186 15.0615 11.3439C15.1301 11.5138 15.1642 11.6957 15.1618 11.8789V11.8956ZM14.0626 13.8517C14.0888 13.8119 14.1291 13.7835 14.1754 13.7723C14.278 13.7444 14.3863 13.7444 14.4889 13.7723C14.5359 13.7895 14.5786 13.8166 14.6143 13.8517L16.0019 15.2435L19.6131 11.6281C19.6461 11.5917 19.6878 11.5644 19.7343 11.5487C19.7884 11.5409 19.8433 11.5409 19.8974 11.5487C19.9487 11.5423 20.0006 11.5423 20.052 11.5487C20.098 11.5606 20.1381 11.5889 20.1649 11.6281L22.6726 14.1359V16.9321H12.6875V15.2602L14.0626 13.8517Z" fill="#6B705C"/></svg>