<svg width="32" height="32" viewBox="0 0 32 32" fill="none" xmlns="http://www.w3.org/2000/svg">
<rect width="32" height="32" rx="4" fill="#FFD4E5"/>
<path d="M19.1387 8.94824C16.813 8.94824 14.9277 10.8335 14.9277 13.1592C14.9277 14.0375 15.1973 14.8525 15.6572 15.5273C13.4698 17.8972 11.2821 20.2669 9.09473 22.6367C8.92265 22.8231 8.7502 23.0099 8.57812 23.1963C8.77305 23.0341 8.96816 22.8721 9.16309 22.71C11.6431 20.6465 14.1234 18.5831 16.6035 16.5195C17.3089 17.0526 18.1864 17.3701 19.1387 17.3701C21.4643 17.3701 23.3496 15.4848 23.3496 13.1592C23.3496 10.8335 21.4643 8.94824 19.1387 8.94824Z" fill="#BD0002"/>
</svg>
