<svg xmlns="http://www.w3.org/2000/svg" viewBox="0 0 32 32" role="presentation" aria-hidden="true"><rect width="32" height="32" rx="4" fill="#F9DCC4"/><path d="M19.7893 15.0127C19.2627 15.4499 18.6586 15.7842 18.0085 15.998C18.6572 16.2151 19.2607 16.5491 19.7893 16.9834C20.3426 17.4492 20.8205 17.9978 21.206 18.6099C21.6163 19.2482 21.9285 19.9445 22.132 20.6756C22.3418 21.4307 22.4469 22.2109 22.4446 22.9946C22.5575 22.9951 22.6691 23.018 22.7731 23.0619C22.8808 23.1111 22.9786 23.1795 23.062 23.2637C23.1462 23.3484 23.2146 23.4476 23.2638 23.5565C23.3084 23.6603 23.3313 23.772 23.3311 23.885V24.443C23.331 24.5559 23.3081 24.6676 23.2638 24.7714C23.2154 24.8796 23.1469 24.9777 23.062 25.0603C22.9787 25.1456 22.8809 25.2153 22.7731 25.2661C22.6691 25.31 22.5575 25.3328 22.4446 25.3334H10.2244C10.1115 25.3336 9.99971 25.3107 9.89596 25.2661C9.78633 25.2164 9.687 25.1466 9.60312 25.0603C9.51812 24.9777 9.44963 24.8796 9.4013 24.7714C9.357 24.6676 9.33412 24.5559 9.33402 24.443V23.8454C9.33412 23.7325 9.357 23.6208 9.4013 23.5169C9.44963 23.4087 9.51812 23.3107 9.60312 23.2281C9.68498 23.1423 9.78506 23.076 9.89596 23.0342C10.0008 22.994 10.1122 22.9739 10.2244 22.9748C10.2169 22.1919 10.3168 21.4116 10.5212 20.6558C10.7255 19.925 11.0376 19.2288 11.4472 18.5901C11.832 17.9729 12.3129 17.4211 12.8719 16.9557C13.391 16.5205 13.9869 16.1863 14.6289 15.9703C13.9894 15.7525 13.3942 15.4214 12.8719 14.9929C12.3143 14.5295 11.837 13.9773 11.4591 13.3585C11.0464 12.7242 10.7303 12.032 10.5212 11.3047C10.312 10.5428 10.2082 9.75592 10.2125 8.96589C10.1003 8.9668 9.9889 8.94666 9.88409 8.90653C9.77356 8.8658 9.67351 8.8009 9.59125 8.71658C9.50697 8.63185 9.43861 8.53266 9.38942 8.42374C9.34887 8.31914 9.33002 8.20739 9.33402 8.09528V7.55709C9.33379 7.44415 9.35668 7.33237 9.4013 7.22863C9.45048 7.11971 9.51884 7.02052 9.60312 6.93579C9.68817 6.8519 9.78729 6.78359 9.89596 6.73396C9.99971 6.68935 10.1115 6.66645 10.2244 6.66669H22.4367C22.5496 6.66721 22.6612 6.69008 22.7652 6.73396C22.872 6.78466 22.9697 6.85287 23.054 6.93579C23.1383 7.02052 23.2067 7.11971 23.2559 7.22863C23.3005 7.33237 23.3234 7.44415 23.3231 7.55709V8.15464C23.323 8.26754 23.3002 8.37925 23.2559 8.4831C23.2066 8.59078 23.1382 8.68865 23.054 8.77198C22.9726 8.85637 22.8741 8.92247 22.7652 8.96589C22.6602 9.00541 22.5489 9.02552 22.4367 9.02525C22.4382 9.80235 22.333 10.576 22.1241 11.3245C21.9218 12.0559 21.6125 12.7533 21.206 13.3941C20.8212 14.0044 20.3432 14.5505 19.7893 15.0127ZM18.9978 12.7135C19.2419 12.3682 19.4513 11.9997 19.623 11.6133C19.7941 11.2086 19.9266 10.7885 20.0188 10.3589C20.1097 9.91351 20.1548 9.46001 20.1533 9.00546H12.5434C12.5415 9.4561 12.5866 9.90571 12.678 10.347C12.7705 10.7804 12.903 11.2043 13.0737 11.6133C13.2325 11.9951 13.4343 12.3576 13.6752 12.6937C13.9001 13.0112 14.1662 13.2973 14.4667 13.5445C14.7385 13.7758 15.0494 13.9567 15.3848 14.0787C15.6982 14.1857 16.0271 14.2405 16.3583 14.241C16.6892 14.2413 17.0176 14.1824 17.3278 14.0669C17.6552 13.941 17.961 13.7648 18.234 13.5445C18.532 13.3083 18.7922 13.0281 19.0057 12.7135H18.9978Z" fill="#FF9770"/></svg>