<svg width="32" height="32" viewBox="0 0 32 32" fill="none" xmlns="http://www.w3.org/2000/svg">
<rect width="32" height="32" rx="4" fill="#FFCCCD"/>
<path d="M25.089 20.8507C25.155 20.9005 25.2058 20.9678 25.2357 21.0449C25.2754 21.1348 25.2956 21.232 25.2951 21.3303C25.2968 21.4236 25.2807 21.5164 25.2476 21.6037C25.2166 21.6791 25.1659 21.7448 25.1009 21.794L21.7283 25.1072C21.6493 25.204 21.5407 25.2722 21.4191 25.3014C21.286 25.3282 21.148 25.3144 21.0228 25.2617C20.8962 25.2233 20.787 25.142 20.7137 25.0319C20.6418 24.9126 20.6073 24.7746 20.6146 24.6356V22.654H11.313V24.6356C11.3203 24.7746 11.2858 24.9126 11.2139 25.0319C11.1406 25.142 11.0314 25.2233 10.9048 25.2617C10.7908 25.3271 10.6568 25.3483 10.5283 25.3212C10.3995 25.2921 10.2864 25.2157 10.2112 25.1072L6.86235 21.7781C6.80157 21.7202 6.75188 21.6517 6.71571 21.576C6.68389 21.498 6.66773 21.4145 6.66815 21.3303C6.66605 21.2382 6.68222 21.1466 6.71571 21.0608C6.74708 20.9845 6.79758 20.9176 6.86235 20.8666L10.2112 17.5177C10.2892 17.4204 10.3984 17.3532 10.5204 17.3274C10.653 17.2984 10.7914 17.3109 10.9167 17.3631C11.0435 17.4032 11.1527 17.4858 11.2258 17.5969C11.2981 17.716 11.3327 17.8542 11.3249 17.9933V19.9749H20.6384V17.9933C20.6306 17.8542 20.6652 17.716 20.7375 17.5969C20.8106 17.4858 20.9197 17.4032 21.0466 17.3631C21.1588 17.301 21.2896 17.2814 21.4152 17.3076C21.5445 17.3406 21.6598 17.4142 21.7441 17.5177L25.089 20.8507ZM7.34585 6.66648C7.2498 6.663 7.15404 6.67918 7.06447 6.71404C6.99181 6.74723 6.92384 6.78987 6.86235 6.84086C6.79378 6.89761 6.74632 6.97579 6.7276 7.0628C6.6995 7.15389 6.68612 7.24888 6.68797 7.34418V11.3311C6.68629 11.4161 6.69971 11.5006 6.7276 11.5808C6.75404 11.6623 6.80035 11.7358 6.86235 11.7948C6.91186 11.8585 6.97961 11.9055 7.05654 11.9296C7.15003 11.9591 7.24787 11.9725 7.34585 11.9692H8.8162C8.90111 11.9709 8.98565 11.9575 9.06588 11.9296C9.1473 11.9032 9.22085 11.8568 9.27989 11.7948C9.34351 11.7453 9.39052 11.6776 9.41464 11.6006C9.4433 11.5138 9.45671 11.4226 9.45427 11.3311V9.34956H14.3884V14.6761H12.9775C12.8905 14.6767 12.8043 14.6942 12.7239 14.7276C12.6453 14.7611 12.5739 14.8095 12.5138 14.8703C12.4467 14.9223 12.3981 14.9946 12.3751 15.0764C12.3511 15.1615 12.3391 15.2495 12.3395 15.3379V16.6537C12.3391 16.7382 12.3511 16.8224 12.3751 16.9034C12.404 16.9846 12.4515 17.0579 12.5138 17.1174C12.5644 17.1801 12.6298 17.2291 12.7041 17.2601C12.7911 17.2946 12.8839 17.3121 12.9775 17.3116H18.9738C19.0609 17.311 19.1471 17.2935 19.2275 17.2601C19.3068 17.2257 19.3793 17.1774 19.4415 17.1174C19.5031 17.066 19.5497 16.9989 19.5762 16.9232C19.6028 16.8358 19.6161 16.745 19.6159 16.6537V15.2785C19.6153 15.1924 19.6019 15.107 19.5762 15.0248C19.5473 14.9458 19.5013 14.8741 19.4415 14.8148C19.3894 14.7477 19.3172 14.699 19.2354 14.6761C19.1503 14.652 19.0623 14.64 18.9738 14.6404H17.5629V9.29803H22.5566V11.2796C22.5549 11.3645 22.5683 11.4491 22.5962 11.5293C22.6211 11.6114 22.6677 11.6853 22.7309 11.7433C22.782 11.8081 22.8489 11.8586 22.9251 11.89C23.0109 11.9235 23.1025 11.9396 23.1946 11.9375H24.6452C24.7318 11.9399 24.818 11.9239 24.8979 11.8904C24.9779 11.8569 25.0498 11.8068 25.1088 11.7433C25.1739 11.6944 25.2224 11.6266 25.2476 11.5491C25.2729 11.4616 25.2849 11.3707 25.2832 11.2796V7.31644C25.2834 7.23063 25.2714 7.14523 25.2476 7.0628C25.2195 6.98118 25.1719 6.90769 25.1088 6.84879C25.0564 6.77948 24.9826 6.72934 24.8988 6.70611C24.8143 6.67884 24.726 6.66545 24.6372 6.66648H7.34585Z" fill="#FF686B"/>
</svg>
