<svg xmlns="http://www.w3.org/2000/svg" viewBox="0 0 32 32" role="presentation" aria-hidden="true"><rect width="32" height="32" rx="4" fill="#FBC4AB"/><path d="M12.9524 13.4614C12.8395 13.511 12.7172 13.5355 12.5939 13.5331H7.80709C7.74434 13.5337 7.68212 13.5215 7.62423 13.4972C7.56812 13.4705 7.51714 13.4341 7.47363 13.3897C7.42931 13.3483 7.39392 13.2982 7.36965 13.2427C7.34588 13.1884 7.33367 13.1298 7.3338 13.0706V11.5287C7.33138 11.4658 7.34365 11.4032 7.36965 11.3459C7.39376 11.2892 7.42914 11.2379 7.47363 11.1953C7.51628 11.1508 7.56751 11.1154 7.62423 11.0913C7.68157 11.0653 7.74418 11.053 7.80709 11.0555H11.0341V7.82842C11.0317 7.76551 11.044 7.7029 11.07 7.64556C11.0941 7.58884 11.1295 7.53761 11.174 7.49496C11.2175 7.44144 11.2727 7.39853 11.3353 7.36947C11.3927 7.34347 11.4553 7.33119 11.5182 7.33361H13.0707C13.1336 7.33194 13.196 7.34419 13.2536 7.36947C13.3092 7.39374 13.3592 7.42913 13.4006 7.47345C13.445 7.51696 13.4814 7.56793 13.5082 7.62404C13.5324 7.68194 13.5446 7.74415 13.544 7.80691V12.5865C13.5453 12.7097 13.5209 12.8318 13.4723 12.9451C13.3647 13.1672 13.1853 13.3466 12.9632 13.4542L12.9524 13.4614ZM13.2428 24.6305C13.1853 24.6558 13.1228 24.668 13.06 24.6663H11.5182C11.4553 24.6688 11.3927 24.6565 11.3353 24.6305C11.2223 24.5795 11.1318 24.4889 11.0807 24.3759C11.0547 24.3186 11.0425 24.256 11.0449 24.193V20.9588H7.81785C7.75494 20.9613 7.69233 20.949 7.63498 20.923C7.57827 20.8989 7.52703 20.8635 7.48439 20.819C7.4399 20.7764 7.40452 20.7251 7.38041 20.6684C7.35441 20.6111 7.34213 20.5485 7.34455 20.4856V18.9437C7.34288 18.8809 7.35513 18.8185 7.38041 18.7609C7.40468 18.7053 7.44006 18.6553 7.48439 18.6139C7.5279 18.5695 7.57887 18.5331 7.63498 18.5063C7.69288 18.4821 7.75509 18.4699 7.81785 18.4704H12.5867C12.7098 18.47 12.8318 18.4944 12.9452 18.5422C13.0597 18.592 13.1633 18.6639 13.25 18.7537C13.3379 18.8378 13.4074 18.9391 13.4544 19.0513C13.4972 19.1659 13.5179 19.2876 13.5153 19.4099V24.1859C13.5324 24.2456 13.5324 24.309 13.5153 24.3687C13.4886 24.4249 13.4522 24.4758 13.4078 24.5193C13.3619 24.5684 13.3055 24.6064 13.2428 24.6305ZM24.6307 13.2427C24.656 13.1851 24.6682 13.1226 24.6665 13.0598V11.518C24.6689 11.4551 24.6567 11.3925 24.6307 11.3351C24.5797 11.2221 24.4891 11.1316 24.3761 11.0806C24.3188 11.0546 24.2561 11.0423 24.1932 11.0447H20.959V7.81767C20.9614 7.75475 20.9492 7.69214 20.9232 7.6348C20.8993 7.57392 20.8626 7.51889 20.8156 7.47345C20.773 7.42896 20.7217 7.39358 20.665 7.36947C20.6077 7.34347 20.5451 7.33119 20.4821 7.33361H18.9403C18.8775 7.33194 18.815 7.34419 18.7575 7.36947C18.7019 7.39374 18.6519 7.42913 18.6105 7.47345C18.565 7.51602 18.5284 7.56721 18.5029 7.62404C18.4787 7.68194 18.4665 7.74415 18.467 7.80691V12.5865C18.4666 12.7096 18.491 12.8316 18.5388 12.9451C18.5886 13.0595 18.6605 13.1631 18.7503 13.2498C18.8274 13.3407 18.926 13.411 19.0372 13.4542C19.1523 13.4947 19.2736 13.5153 19.3957 13.5152H24.1861C24.2458 13.5322 24.3092 13.5322 24.3689 13.5152C24.425 13.4884 24.476 13.452 24.5195 13.4076C24.5686 13.3617 24.6066 13.3053 24.6307 13.2427ZM20.665 24.6305C20.6077 24.6565 20.5451 24.6688 20.4821 24.6663H18.9403C18.8775 24.668 18.815 24.6558 18.7575 24.6305C18.7019 24.6062 18.6519 24.5708 18.6105 24.5265C18.565 24.4839 18.5284 24.4327 18.5029 24.3759C18.4787 24.318 18.4665 24.2558 18.467 24.193V19.3955C18.4643 19.2722 18.4888 19.1498 18.5388 19.037C18.5898 18.9253 18.6616 18.8243 18.7503 18.7394C18.8277 18.647 18.9261 18.5745 19.0372 18.5278C19.1506 18.48 19.2726 18.4556 19.3957 18.4561H24.1861C24.2484 18.4567 24.31 18.4697 24.3672 18.4943C24.4245 18.5189 24.4762 18.5547 24.5195 18.5995C24.5638 18.6409 24.5992 18.691 24.6235 18.7465C24.6488 18.8041 24.661 18.8666 24.6594 18.9294V20.4712C24.6618 20.5341 24.6495 20.5967 24.6235 20.6541C24.5994 20.7108 24.564 20.762 24.5195 20.8047C24.4749 20.8501 24.4211 20.8856 24.3618 20.9087C24.3073 20.9375 24.2475 20.9546 24.1861 20.9588H20.9375V24.1859C20.9562 24.2454 20.9562 24.3092 20.9375 24.3687C20.8865 24.4818 20.796 24.5723 20.6829 24.6233L20.665 24.6305Z" fill="#F37512"/></svg>