<svg width="32" height="32" viewBox="0 0 32 32" fill="none" xmlns="http://www.w3.org/2000/svg">
<rect width="32" height="32" rx="4" fill="#C9E3FF"/>
<path d="M15.129 11.2656C15.5139 11.9323 16.4761 11.9323 16.861 11.2656L19.8741 6.04687C20.259 5.38021 19.7779 4.54688 19.0081 4.54688H12.982C12.2122 4.54688 11.731 5.38021 12.1159 6.04688L15.129 11.2656Z" fill="#0049F8"/>
<path d="M17.4687 22.5625C17.4687 23.3737 16.8111 24.0312 15.9999 24.0312C15.1887 24.0312 14.5312 23.3737 14.5312 22.5625C14.5312 21.7513 15.1887 21.0938 15.9999 21.0938C16.8111 21.0938 17.4687 21.7513 17.4687 22.5625Z" fill="#0049F8"/>
<g opacity="0.5">
<path d="M5.625 25.9844C5.625 26.7955 4.96742 27.4531 4.15625 27.4531C3.34508 27.4531 2.6875 26.7955 2.6875 25.9844C2.6875 25.1732 3.34508 24.5156 4.15625 24.5156C4.96742 24.5156 5.625 25.1732 5.625 25.9844Z" fill="#0049F8"/>
<path d="M9.5625 25.9844C9.5625 26.7955 8.90492 27.4531 8.09375 27.4531C7.28258 27.4531 6.625 26.7955 6.625 25.9844C6.625 25.1732 7.28258 24.5156 8.09375 24.5156C8.90492 24.5156 9.5625 25.1732 9.5625 25.9844Z" fill="#0049F8"/>
<path d="M13.5 25.9844C13.5 26.7955 12.8424 27.4531 12.0312 27.4531C11.2201 27.4531 10.5625 26.7955 10.5625 25.9844C10.5625 25.1732 11.2201 24.5156 12.0312 24.5156C12.8424 24.5156 13.5 25.1732 13.5 25.9844Z" fill="#0049F8"/>
<path d="M21.4375 25.9844C21.4375 26.7955 20.7799 27.4531 19.9688 27.4531C19.1576 27.4531 18.5 26.7955 18.5 25.9844C18.5 25.1732 19.1576 24.5156 19.9688 24.5156C20.7799 24.5156 21.4375 25.1732 21.4375 25.9844Z" fill="#0049F8"/>
<path d="M25.375 25.9844C25.375 26.7955 24.7174 27.4531 23.9062 27.4531C23.0951 27.4531 22.4375 26.7955 22.4375 25.9844C22.4375 25.1732 23.0951 24.5156 23.9062 24.5156C24.7174 24.5156 25.375 25.1732 25.375 25.9844Z" fill="#0049F8"/>
<path d="M29.3125 25.9844C29.3125 26.7955 28.6549 27.4531 27.8438 27.4531C27.0326 27.4531 26.375 26.7955 26.375 25.9844C26.375 25.1732 27.0326 24.5156 27.8438 24.5156C28.6549 24.5156 29.3125 25.1732 29.3125 25.9844Z" fill="#0049F8"/>
</g>
</svg>
