<svg xmlns="http://www.w3.org/2000/svg" width="32" height="32" fill="none" viewBox="0 0 32 32"><rect width="32" height="32" fill="#EAE4FF" rx="4"/><path fill="#7C5BFF" d="M10.635 11.764c1.796 0 4.269 2.315 5.549 3.651l.144.151.115.12.001-.001c.498.507 1.098 1.082 1.282 1.265l.05.05-.003.003c.288.288.614.603.964.915.617.55 1.285 1.076 1.927 1.46.666.397 1.192.572 1.552.572a3.573 3.573 0 0 0 0-7.145c-.36 0-.886.175-1.552.573-.643.384-1.31.91-1.927 1.46-.319.284-.618.57-.886.836a46.017 46.017 0 0 1-.708-.704c1.353-1.344 3.48-3.165 5.073-3.165l.235.007a4.572 4.572 0 0 1 4.337 4.566l-.006.235a4.573 4.573 0 0 1-4.566 4.337l-.24-.012c-1.905-.203-4.442-2.7-5.57-3.91l-.003.001a19.496 19.496 0 0 0-1.128-1.139 7.455 7.455 0 0 0-.2-.18h.001a23.09 23.09 0 0 0-.963-.912c-.616-.55-1.284-1.076-1.926-1.46-.666-.398-1.192-.573-1.552-.573a3.573 3.573 0 0 0 0 7.145c.36 0 .886-.176 1.552-.573.642-.384 1.31-.91 1.926-1.46.325-.289.628-.58.9-.85l.08.076c.238.238.457.47.61.643-1.353 1.344-3.476 3.164-5.068 3.164l-.236-.006a4.574 4.574 0 0 1 .236-9.14Z"/></svg>