<svg width="32" height="32" viewBox="0 0 32 32" fill="none" xmlns="http://www.w3.org/2000/svg">
<rect width="32" height="32" rx="4" fill="#FFEB98"/>
<path d="M6.99219 17.4985H14.7031C14.9663 17.4985 15.1797 17.7119 15.1797 17.9751C15.1796 18.2382 14.9663 18.4517 14.7031 18.4517H6.99219C6.72905 18.4517 6.51573 18.2382 6.51562 17.9751C6.51562 17.7119 6.72899 17.4985 6.99219 17.4985ZM6.99023 13.5483H25.0098C25.2718 13.5486 25.4842 13.7609 25.4844 14.0229C25.4844 14.2852 25.2719 14.4983 25.0098 14.4985H6.99023C6.72808 14.4983 6.51562 14.2852 6.51562 14.0229C6.51584 13.7609 6.72821 13.5486 6.99023 13.5483Z" fill="#BE4C1A" stroke="#BE4C1A"/>
</svg>
