<svg width="32" height="32" viewBox="0 0 32 32" fill="none" xmlns="http://www.w3.org/2000/svg">
<rect width="32" height="32" rx="4" fill="#FBC4AB"/>
<path d="M12.9509 13.4621C12.838 13.5117 12.7157 13.5362 12.5924 13.5338H7.80563C7.74287 13.5343 7.68065 13.5221 7.62276 13.4979C7.56665 13.4712 7.51568 13.4347 7.47217 13.3903C7.42784 13.3489 7.39246 13.2989 7.36819 13.2433C7.34442 13.1891 7.33221 13.1305 7.33233 13.0712V11.5294C7.32991 11.4665 7.34219 11.4039 7.36819 11.3466C7.3923 11.2898 7.42767 11.2386 7.47217 11.196C7.51481 11.1515 7.56605 11.1161 7.62276 11.092C7.6801 11.066 7.74271 11.0537 7.80563 11.0561H11.0327V7.82909C11.0302 7.76618 11.0425 7.70357 11.0685 7.64623C11.0926 7.58951 11.128 7.53828 11.1725 7.49563C11.2161 7.44212 11.2712 7.3992 11.3338 7.37014C11.3912 7.34414 11.4538 7.33187 11.5167 7.33428H13.0693C13.1321 7.33262 13.1946 7.34486 13.2521 7.37014C13.3077 7.39441 13.3577 7.4298 13.3991 7.47412C13.4435 7.51763 13.48 7.5686 13.5067 7.62472C13.5309 7.68261 13.5431 7.74482 13.5426 7.80758V12.5872C13.5439 12.7104 13.5194 12.8325 13.4709 12.9457C13.3632 13.1679 13.1839 13.3473 12.9617 13.4549L12.9509 13.4621ZM13.2414 24.6312C13.1838 24.6564 13.1214 24.6687 13.0585 24.667H11.5167C11.4538 24.6694 11.3912 24.6572 11.3338 24.6312C11.2208 24.5801 11.1303 24.4896 11.0793 24.3766C11.0533 24.3192 11.041 24.2566 11.0434 24.1937V20.9595H7.81638C7.75347 20.9619 7.69086 20.9497 7.63352 20.9237C7.5768 20.8996 7.52557 20.8642 7.48292 20.8197C7.43843 20.777 7.40306 20.7258 7.37894 20.6691C7.35295 20.6117 7.34067 20.5491 7.34309 20.4862V18.9444C7.34142 18.8816 7.35366 18.8191 7.37894 18.7616C7.40321 18.706 7.4386 18.6559 7.48292 18.6145C7.52644 18.5701 7.57741 18.5337 7.63352 18.507C7.69141 18.4827 7.75363 18.4705 7.81638 18.4711H12.5852C12.7083 18.4706 12.8303 18.495 12.9438 18.5428C13.0582 18.5927 13.1618 18.6646 13.2486 18.7544C13.3364 18.8385 13.406 18.9398 13.4529 19.052C13.4957 19.1666 13.5164 19.2882 13.5139 19.4105V24.1865C13.5309 24.2463 13.5309 24.3096 13.5139 24.3694C13.4871 24.4255 13.4507 24.4765 13.4063 24.52C13.3604 24.569 13.304 24.607 13.2414 24.6312ZM24.6292 13.2433C24.6545 13.1858 24.6667 13.1233 24.6651 13.0605V11.5187C24.6675 11.4558 24.6552 11.3931 24.6292 11.3358C24.5782 11.2228 24.4877 11.1322 24.3746 11.0812C24.3173 11.0552 24.2547 11.0429 24.1918 11.0454H20.9576V7.81834C20.96 7.75542 20.9477 7.69281 20.9217 7.63547C20.8979 7.57459 20.8612 7.51956 20.8141 7.47412C20.7715 7.42963 20.7203 7.39425 20.6635 7.37014C20.6062 7.34414 20.5436 7.33187 20.4807 7.33428H18.9389C18.876 7.33262 18.8136 7.34486 18.756 7.37014C18.7004 7.39441 18.6504 7.4298 18.609 7.47412C18.5635 7.51669 18.527 7.56788 18.5014 7.62472C18.4772 7.68261 18.465 7.74482 18.4656 7.80758V12.5872C18.4651 12.7103 18.4895 12.8323 18.5373 12.9457C18.5872 13.0602 18.6591 13.1637 18.7488 13.2505C18.826 13.3414 18.9246 13.4117 19.0357 13.4549C19.1509 13.4954 19.2721 13.516 19.3942 13.5158H24.1846C24.2444 13.5329 24.3077 13.5329 24.3675 13.5158C24.4236 13.4891 24.4745 13.4527 24.5181 13.4083C24.5671 13.3624 24.6051 13.306 24.6292 13.2433ZM20.6635 24.6312C20.6062 24.6572 20.5436 24.6694 20.4807 24.667H18.9389C18.876 24.6687 18.8136 24.6564 18.756 24.6312C18.7004 24.6069 18.6504 24.5715 18.609 24.5272C18.5635 24.4846 18.527 24.4334 18.5014 24.3766C18.4772 24.3187 18.465 24.2565 18.4656 24.1937V19.3962C18.4628 19.2729 18.4873 19.1504 18.5373 19.0376C18.5883 18.9259 18.6601 18.8249 18.7488 18.74C18.8262 18.6477 18.9246 18.5752 19.0357 18.5285C19.1492 18.4807 19.2711 18.4563 19.3942 18.4568H24.1846C24.2469 18.4574 24.3085 18.4704 24.3657 18.495C24.423 18.5196 24.4748 18.5554 24.5181 18.6002C24.5624 18.6416 24.5978 18.6916 24.622 18.7472C24.6473 18.8048 24.6596 18.8672 24.6579 18.9301V20.4719C24.6603 20.5348 24.648 20.5974 24.622 20.6547C24.5979 20.7115 24.5625 20.7627 24.5181 20.8053C24.4735 20.8508 24.4197 20.8863 24.3603 20.9093C24.3059 20.9381 24.246 20.9552 24.1846 20.9595H20.9361V24.1865C20.9548 24.2461 20.9548 24.3099 20.9361 24.3694C20.885 24.4824 20.7945 24.573 20.6815 24.624L20.6635 24.6312Z" fill="#F37512"/>
</svg>
