<svg xmlns="http://www.w3.org/2000/svg" width="24" height="24" fill="none" viewBox="0 0 24 24"><rect width="24" height="24" fill="#eae4ff" rx="3"/><path fill="#7c5bff" d="M12.102 8.409a4.409 4.409 0 1 1-8.817 0 4.409 4.409 0 0 1 8.817 0"/><path fill="#7c5bff" fill-rule="evenodd" d="M16.04 18.87a2.6 2.6 0 0 1-.707-.707l-.582.389c.238.355.544.661.899.899zm3.229.581c.355-.238.66-.544.899-.9l-.581-.388c-.187.279-.428.52-.707.707zm-5.004-3.344a3.3 3.3 0 0 0 0 1.271l.686-.135a2.6 2.6 0 0 1 0-1zm6.389 1.271a3.3 3.3 0 0 0 0-1.271l-.686.136a2.6 2.6 0 0 1 0 1zm-5.321-2.055c.187-.28.428-.52.707-.707l-.39-.582a3.3 3.3 0 0 0-.9.9zm4.835-.39a3.3 3.3 0 0 0-.9-.899l-.388.582c.279.187.52.428.707.707l.58-.39Zm-2.073-1.385a3.3 3.3 0 0 0-1.271 0l.136.686a2.6 2.6 0 0 1 1 0z" clip-rule="evenodd"/><path fill="#7c5bff" d="M17.46 19.3a2.6 2.6 0 0 1-.5-.049l-.136.686a3.3 3.3 0 0 0 1.27 0l-.135-.686a2.6 2.6 0 0 1-.5.049Z"/></svg>