<svg width="32" height="32" viewBox="0 0 32 32" fill="none" xmlns="http://www.w3.org/2000/svg">
<rect width="32" height="32" rx="4" fill="#ABC4FF"/>
<path d="M8.46015 8.44733C9.12244 7.8051 9.85881 7.24398 10.6537 6.77582C11.4507 6.31093 12.3046 5.95111 13.1939 5.70535C14.5363 5.33646 15.9391 5.24113 17.319 5.42502C18.699 5.60891 20.0279 6.06827 21.2268 6.77582C22.0294 7.24119 22.767 7.81061 23.4204 8.46926C24.0709 9.12651 24.6355 9.86358 25.1007 10.6628C25.5699 11.4706 25.9312 12.3364 26.1755 13.2381C26.6611 15.0562 26.6611 16.9698 26.1755 18.7879C25.9289 19.6797 25.5692 20.5363 25.1051 21.3368C24.6418 22.1373 24.077 22.8746 23.4248 23.5304C22.7671 24.1867 22.0302 24.7585 21.2312 25.2326C20.4323 25.6999 19.5753 26.0599 18.6823 26.3031C16.8791 26.7887 14.9795 26.7887 13.1764 26.3031C12.2895 26.0622 11.4394 25.7021 10.6493 25.2326C9.85702 24.7403 9.12138 24.1621 8.45577 23.5085C7.7968 22.8554 7.22735 22.1177 6.76232 21.3149C6.30007 20.5016 5.9419 19.6335 5.69624 18.7308C5.21063 16.9202 5.21063 15.0136 5.69624 13.203C5.94433 12.3047 6.30395 11.441 6.76671 10.6321C7.22962 9.83052 7.79931 9.09553 8.46015 8.44733ZM19.9194 22.7978C20.5115 22.4642 21.056 22.0525 21.5383 21.5737C22.0187 21.0907 22.4332 20.5464 22.7711 19.9549C23.1234 19.364 23.3935 18.7278 23.5739 18.064C23.9249 16.7147 23.9249 15.2981 23.5739 13.9488C23.3986 13.2832 23.125 12.6474 22.7623 12.0624C22.4212 11.4703 22.007 10.9234 21.5295 10.4347C21.0491 9.94895 20.5044 9.53122 19.9107 9.19315C19.3173 8.85439 18.6834 8.592 18.0242 8.41223C17.3503 8.23159 16.6554 8.14159 15.9578 8.14461V23.8945C16.6556 23.8794 17.3491 23.7823 18.0242 23.605C18.6866 23.4244 19.3234 23.1605 19.9194 22.8197V22.7978Z" fill="#3E64DE"/>
</svg>
