<svg xmlns="http://www.w3.org/2000/svg" viewBox="0 0 32 32" role="presentation" aria-hidden="true"><rect width="32" height="32" rx="4" fill="#CDB4DB"/><path d="M23.945 14.2611C23.9114 14.3545 23.8535 14.4372 23.7773 14.5007L14.5519 23.7466C14.4769 23.8232 14.3888 23.8858 14.2918 23.9315C14.1958 23.978 14.0903 24.0014 13.9837 23.9999C13.8772 24.0004 13.7719 23.977 13.6756 23.9315C13.5817 23.8889 13.4986 23.8257 13.4326 23.7466L8.24994 18.5298C8.17529 18.4538 8.11395 18.3659 8.06851 18.2696C8.02221 18.176 7.99875 18.0728 8.00005 17.9684C8.00064 17.8587 8.02395 17.7503 8.06851 17.65C8.10968 17.5543 8.17166 17.4689 8.24994 17.4001L9.36931 16.2568C9.44167 16.1828 9.52769 16.1235 9.62262 16.0822C9.71185 16.042 9.80889 16.0221 9.90674 16.024C10.0067 16.0232 10.1058 16.043 10.1977 16.0822C10.2997 16.1237 10.3935 16.1828 10.475 16.2568L13.9837 19.7826L21.4872 12.2517C21.5634 12.1743 21.6557 12.1147 21.7576 12.0772C21.8582 12.0388 21.9649 12.0191 22.0726 12.019C22.1759 12.0178 22.2784 12.0376 22.3738 12.0772C22.4649 12.1164 22.5458 12.1761 22.61 12.2517L23.7773 13.3711C23.8443 13.4488 23.8986 13.5366 23.9382 13.6313C23.9781 13.735 23.9978 13.8453 23.9964 13.9565C23.9967 14.0602 23.9793 14.1632 23.945 14.2611ZM9.24607 12.7926C9.19129 12.6588 9.19129 12.5088 9.24607 12.375C9.27431 12.3116 9.31642 12.2555 9.36931 12.2107L10.6735 10.8927C10.7334 10.8397 10.8017 10.7969 10.8755 10.7661C10.9417 10.7443 11.0113 10.735 11.0809 10.7387C11.1505 10.7367 11.2196 10.7507 11.2828 10.7798C11.3452 10.8127 11.4019 10.8555 11.4506 10.9064L13.6243 13.063L18.5296 8.16793C18.5787 8.11733 18.6353 8.07461 18.6973 8.04127C18.7606 8.01221 18.8297 7.99815 18.8993 8.0002C18.9732 7.99956 19.0465 8.01352 19.115 8.04127C19.1858 8.06626 19.2485 8.11004 19.2964 8.16793L20.6177 9.48926C20.671 9.54313 20.7109 9.60881 20.7341 9.68096C20.756 9.75429 20.7676 9.83034 20.7683 9.90688C20.7678 9.98008 20.7563 10.0528 20.7341 10.1225C20.7122 10.1884 20.6718 10.2467 20.6177 10.2903L13.9837 16.8593C13.8723 16.9554 13.7303 17.0088 13.5832 17.0099C13.5143 17.012 13.4456 17.0003 13.3812 16.9757C13.3183 16.9481 13.2613 16.9086 13.2135 16.8593L9.36931 12.9637C9.31815 12.9147 9.27638 12.8567 9.24607 12.7926Z" fill="#9034A9"/></svg>