<svg xmlns="http://www.w3.org/2000/svg" aria-hidden="true" viewBox="0 0 32 32"><g clip-path="url(#a)"><path d="M-.085 16.067v-16h32.156v32H-.085zm9.647 2.4v-1.44h2.573v2.88l2.966-.002-.08-.037-.318-.136c-.39-.164-.59-.3-.866-.59a3 3 0 0 1-.44-.625c-.08-.162-.213-.502-.22-.57l-.005-.046 1.02-.148a60 60 0 0 1 1.062-.148c.031-.001.05.016.088.08a1.1 1.1 0 0 0 .783.494 1.074 1.074 0 0 0 1.215-1.016c.022-.501-.261-.91-.751-1.083a1.3 1.3 0 0 0-.57-.022c-.265.059-.545.256-.669.47a.4.4 0 0 1-.07.099c-.03 0-2.106-.288-2.112-.294s.9-4.015.944-4.182l.014-.052h-1.991v3.328H9.562V12.1H7.118v7.808h2.444v-1.44Zm11.062.002V17.03l.977-.007c.802-.006 1.01-.012 1.16-.034.729-.106 1.203-.32 1.583-.715.37-.382.56-.831.622-1.455a4 4 0 0 0-.025-.848c-.16-.972-.738-1.577-1.705-1.785-.358-.077-.332-.076-2.166-.082l-1.733-.006v1.601h-3.533l-.052.22-.144.61c-.076.32-.088.387-.067.38l.195-.071a5 5 0 0 1 .764-.21c.157-.021.622-.021.852 0q.724.067 1.269.426c.206.136.525.45.663.653.525.773.563 1.8.101 2.757a4 4 0 0 1-.18.328c-.305.464-.772.849-1.162.956-.129.035-.302.112-.321.143-.007.011.458.016 1.446.016h1.456zm0-3.906V13.7h.486c.773 0 1.021.049 1.226.241a.81.81 0 0 1 .265.62c0 .257-.059.4-.232.572-.237.237-.494.295-1.302.295h-.443z"/><path fill="#fff" d="M7.132 16.005v-3.893h2.413v3.348h2.609v-3.348h1.948l-.021.087c-.04.17-.753 3.325-.84 3.718-.048.22-.079.409-.067.42s.488.086 1.06.164l1.038.144.158-.186c.447-.523 1.207-.531 1.645-.019.575.672.076 1.72-.817 1.717-.317-.002-.57-.118-.809-.372l-.188-.2-1.037.146c-.57.081-1.046.156-1.056.166-.04.041.168.553.335.824.308.497.68.813 1.222 1.04.138.059.258.113.267.121.01.009-.626.016-1.41.016h-1.428v-2.881H9.545v2.88H7.132z"/><path fill="#fff" d="M17.82 19.864c.02-.019.126-.063.235-.099.932-.302 1.65-1.455 1.65-2.652 0-.691-.208-1.228-.662-1.706a2.47 2.47 0 0 0-1.07-.675c-.286-.094-.366-.103-.973-.106-.621-.003-.683.004-1.003.106-.188.06-.367.118-.4.13q-.057.022-.04-.03a29 29 0 0 0 .14-.588l.122-.536h3.536v-1.605l1.82.02c1.697.017 1.841.024 2.131.101.807.215 1.283.647 1.526 1.387.09.273.103.378.106.856.002.407-.014.61-.066.798-.222.823-.816 1.4-1.663 1.618-.312.08-1.05.13-1.937.133l-.671.001v2.881h-1.41c-.81 0-1.393-.014-1.372-.034Zm4.185-4.506c.272-.08.515-.315.581-.56a.85.85 0 0 0-.58-1.051c-.077-.022-.425-.051-.773-.065l-.632-.025v1.815l.597-.025c.36-.016.68-.051.807-.089"/></g><defs><clipPath id="a"><rect width="32" height="32" fill="#fff" rx="4"/></clipPath></defs></svg>