<svg xmlns="http://www.w3.org/2000/svg" width="40" height="32" fill="none"><g clip-path="url(#a)"><rect width="40" height="32" fill="#fff" rx="4"/><path fill="#d0dcf8" d="M5.5 10.92a2.54 2.54 0 1 1 5.08 0v10.16a2.54 2.54 0 1 1-5.08 0z"/><path fill="#3e64de" d="M13.78 10.92a2.54 2.54 0 1 1 5.079 0v10.16a2.54 2.54 0 1 1-5.08 0z"/><g clip-path="url(#b)"><path fill="#2b49ca" d="M24.598 6.757a.62.62 0 0 0 .527-.297l1.716-2.865a.618.618 0 0 0-.525-.928h-3.434a.617.617 0 0 0-.53.925L24.07 6.46a.62.62 0 0 0 .527.298"/></g><g clip-path="url(#c)"><path fill="#2b49ca" d="M24.598 25.243a.62.62 0 0 1 .527.297l1.716 2.865a.617.617 0 0 1-.525.928h-3.434a.617.617 0 0 1-.53-.925l1.718-2.867a.62.62 0 0 1 .527-.298"/></g><path fill="#2b49ca" d="M22.057 10.92a2.54 2.54 0 1 1 5.08 0v10.16a2.54 2.54 0 1 1-5.08 0z"/><path fill="#d0dcf8" d="M30.336 10.92a2.54 2.54 0 1 1 5.08 0v10.16a2.54 2.54 0 1 1-5.08 0zM38.613 10.92a2.54 2.54 0 1 1 5.08 0v10.16a2.54 2.54 0 1 1-5.08 0z"/></g><defs><clipPath id="a"><rect width="40" height="32" fill="#fff" rx="4"/></clipPath><clipPath id="b"><path fill="#fff" d="M27.137 7.11h-5.08V2.03h5.08z"/></clipPath><clipPath id="c"><path fill="#fff" d="M27.137 24.89h-5.08v5.08h5.08z"/></clipPath></defs></svg>