<svg width="32" height="32" viewBox="0 0 32 32" fill="none" xmlns="http://www.w3.org/2000/svg">
<rect width="32" height="32" rx="4" fill="#C6EBD9"/>
<path d="M12.2869 16.3437C12.6718 15.6771 13.634 15.6771 14.0189 16.3437L18.4438 24.0078C18.8287 24.6745 18.3476 25.5078 17.5778 25.5078H8.72805C7.95825 25.5078 7.47713 24.6745 7.86203 24.0078L12.2869 16.3437Z" fill="#004F33"/>
<path d="M19.3907 18.7891C19.7756 18.1224 20.7379 18.1224 21.1228 18.7891L24.1358 24.0078C24.5207 24.6745 24.0396 25.5078 23.2698 25.5078H17.2437C16.4739 25.5078 15.9928 24.6745 16.3777 24.0078L19.3907 18.7891Z" fill="#004F33"/>
<path d="M19.3085 16C19.3085 16.8112 18.6509 17.4688 17.8398 17.4688C17.0286 17.4688 16.371 16.8112 16.371 16C16.371 15.1888 17.0286 14.5312 17.8398 14.5312C18.6509 14.5312 19.3085 15.1888 19.3085 16Z" fill="#004F33"/>
</svg>
