<svg xmlns="http://www.w3.org/2000/svg" width="40" height="32" fill="none"><g clip-path="url(#a)"><rect width="40" height="32" fill="#fff" rx="4"/><path fill="#fff" d="M12.348 8.033H51.24a7.967 7.967 0 0 1 0 15.934H12.348a7.967 7.967 0 0 1 0-15.934"/><path stroke="#ececed" stroke-width=".59" d="M12.348 8.033H51.24a7.967 7.967 0 0 1 0 15.934H12.348a7.967 7.967 0 0 1 0-15.934Z"/><path fill="#3e64de" d="M8.807 11.87a7.082 7.082 0 0 1 14.163 0v8.261a7.082 7.082 0 0 1-14.163 0z"/><path fill="#fff" d="M16.969 12.491V18.5h-1.27v-4.803h-.036l-1.376.863v-1.127l1.488-.942z"/><path fill="#3e64de" d="M30.457 18.5v-.657l2.033-2.107q.325-.344.537-.601.214-.261.32-.496.105-.235.105-.499 0-.3-.14-.516a.9.9 0 0 0-.385-.338 1.2 1.2 0 0 0-.549-.12q-.323 0-.563.132a.9.9 0 0 0-.37.373q-.129.24-.129.563h-.865q0-.548.252-.96.253-.41.692-.636a2.14 2.14 0 0 1 1.001-.229q.566 0 .998.226.434.223.677.61.244.385.244.869 0 .334-.126.654-.124.319-.432.713-.307.39-.856.948l-1.195 1.25v.044h2.706v.777z"/></g><defs><clipPath id="a"><rect width="40" height="32" fill="#fff" rx="4"/></clipPath></defs></svg>