<svg xmlns="http://www.w3.org/2000/svg" width="20" height="20" fill="none" viewBox="0 0 20 20"><path fill="currentColor" d="M12.824 3.659a.833.833 0 0 0 1.4-.395 2.083 2.083 0 1 1 2.512 2.512.833.833 0 0 0-.395 1.4l1.402 1.402a2.01 2.01 0 0 1 0 2.845l-1.402 1.402a.832.832 0 0 1-1.4-.395 2.083 2.083 0 1 0-2.512 2.513.833.833 0 0 1 .395 1.4l-1.402 1.402a2.01 2.01 0 0 1-2.845 0l-1.403-1.403a.833.833 0 0 0-1.4.395 2.084 2.084 0 1 1-2.512-2.512.833.833 0 0 0 .395-1.4l-1.402-1.402a2.01 2.01 0 0 1 0-2.845l1.402-1.403a.833.833 0 0 1 1.4.395A2.083 2.083 0 1 0 7.57 5.058a.833.833 0 0 1-.395-1.4l1.403-1.402a2.01 2.01 0 0 1 2.845 0z"/></svg>