<svg xmlns="http://www.w3.org/2000/svg" width="32" height="32" fill="none" viewBox="0 0 32 32"><rect width="32" height="32" fill="#EAE4FF" rx="4"/><path fill="#7C5BFF" d="M24.348 10.633a1.469 1.469 0 0 1 .247 2.914 17.63 17.63 0 0 1-.373 2.66c-.237 1.04-.611 2.104-1.205 2.913-.34.461-.753.842-1.253 1.087a1.467 1.467 0 0 1-2.843-.081c-.46-.241-.87-.582-1.245-.983-.74-.794-1.363-1.844-1.962-2.865-.606-1.032-1.188-2.033-1.857-2.78a4.862 4.862 0 0 0-.627-.594 1.466 1.466 0 0 1-2.638-.396c-.426.191-.789.505-1.102.905-.538.689-.915 1.62-1.178 2.574a16.45 16.45 0 0 0-.45 2.386 1.468 1.468 0 1 1-.5-.025c.081-.706.222-1.599.468-2.493.27-.983.67-1.986 1.267-2.75.388-.496.863-.895 1.441-1.116a1.468 1.468 0 1 1 2.894.44c.285.208.55.458.798.735.71.792 1.318 1.843 1.915 2.861.605 1.031 1.2 2.032 1.896 2.777.275.294.563.545.868.74a1.467 1.467 0 0 1 2.897.066c.307-.199.574-.465.808-.784.536-.73.89-1.718 1.12-2.73.207-.908.308-1.82.36-2.548a1.467 1.467 0 0 1 .254-2.913Z"/></svg>