<svg width="32" height="32" viewBox="0 0 32 32" fill="none" xmlns="http://www.w3.org/2000/svg">
<rect width="32" height="32" rx="4" fill="#FFD4E5"/>
<path d="M14 12.5312C14 13.3424 13.3424 14 12.5312 14C11.7201 14 11.0625 13.3424 11.0625 12.5312C11.0625 11.7201 11.7201 11.0625 12.5312 11.0625C13.3424 11.0625 14 11.7201 14 12.5312Z" fill="#BD0002"/>
<path d="M20.9375 12.5312C20.9375 13.3424 20.2799 14 19.4688 14C18.6576 14 18 13.3424 18 12.5312C18 11.7201 18.6576 11.0625 19.4688 11.0625C20.2799 11.0625 20.9375 11.7201 20.9375 12.5312Z" fill="#BD0002"/>
<path d="M14 19.4688C14 20.2799 13.3424 20.9375 12.5312 20.9375C11.7201 20.9375 11.0625 20.2799 11.0625 19.4688C11.0625 18.6576 11.7201 18 12.5312 18C13.3424 18 14 18.6576 14 19.4688Z" fill="#BD0002"/>
<path d="M20.9375 19.4688C20.9375 20.2799 20.2799 20.9375 19.4688 20.9375C18.6576 20.9375 18 20.2799 18 19.4688C18 18.6576 18.6576 18 19.4688 18C20.2799 18 20.9375 18.6576 20.9375 19.4688Z" fill="#BD0002"/>
</svg>
