<svg width="32" height="32" viewBox="0 0 32 32" fill="none" xmlns="http://www.w3.org/2000/svg">
<rect width="32" height="32" rx="4" fill="#B7E4C7"/>
<path d="M26.6654 23.3248C26.6659 23.5854 26.6155 23.8437 26.5168 24.0849C26.4095 24.3253 26.2617 24.5455 26.0799 24.7359C25.8949 24.9243 25.6734 25.073 25.429 25.1728C25.1808 25.2676 24.917 25.3151 24.6513 25.3126H7.33742C7.07173 25.3151 6.80795 25.2676 6.55976 25.1728C6.31969 25.0767 6.10457 24.9273 5.93064 24.7359C5.74455 24.549 5.59622 24.328 5.49375 24.0849C5.38855 23.8452 5.33354 23.5865 5.3321 23.3248V11.3147C5.32987 11.0553 5.38041 10.7981 5.48064 10.5589C5.58311 10.3158 5.73145 10.0948 5.91753 9.90791C6.09147 9.71654 6.30658 9.56716 6.54665 9.47102C6.79895 9.37455 7.06734 9.3271 7.33742 9.33122H11.0117L11.501 7.94628C11.5804 7.75842 11.6847 7.58208 11.8112 7.42202C11.9394 7.26643 12.0861 7.12706 12.248 7.00697C12.4058 6.89908 12.5778 6.81379 12.7592 6.75358C12.9588 6.69286 13.1666 6.66338 13.3752 6.6662H18.6179C18.8162 6.66678 19.0134 6.69621 19.2033 6.75358C19.3971 6.81002 19.5812 6.89545 19.7494 7.00697C20.0764 7.24927 20.334 7.57318 20.4965 7.94628L20.9902 9.33122H24.66C24.9227 9.33122 25.1831 9.37858 25.429 9.47102C25.6723 9.56585 25.8905 9.71533 26.0668 9.90791C26.2529 10.0948 26.4012 10.3158 26.5037 10.5589C26.6019 10.7988 26.6524 11.0555 26.6523 11.3147L26.6654 23.3248ZM20.9858 17.3132C20.988 16.8712 20.9336 16.4307 20.8242 16.0025C20.7174 15.5786 20.5497 15.1724 20.3261 14.7967C20.1066 14.424 19.8409 14.0805 19.5353 13.7744C19.2283 13.4698 18.885 13.2042 18.513 12.9836C18.1326 12.7719 17.7276 12.6076 17.3072 12.4943C16.4481 12.2678 15.545 12.2678 14.6859 12.4943C14.2655 12.6076 13.8605 12.7719 13.4801 12.9836C13.1054 13.2042 12.7592 13.4697 12.449 13.7744C12.1388 14.0726 11.8751 14.4157 11.667 14.7923C11.443 15.1693 11.271 15.575 11.1558 15.9981C11.0413 16.4256 10.984 16.8663 10.9854 17.3088C10.9831 17.7586 11.0404 18.2066 11.1558 18.6413C11.271 19.0645 11.443 19.4701 11.667 19.8471C11.8758 20.2246 12.1393 20.5691 12.449 20.8694C12.7592 21.1741 13.1054 21.4397 13.4801 21.6602C13.8614 21.8701 14.2661 22.0343 14.6859 22.1495C15.545 22.376 16.4481 22.376 17.3072 22.1495C17.727 22.0343 18.1317 21.8701 18.513 21.6602C19.2618 21.22 19.8859 20.596 20.3261 19.8471C20.5497 19.4714 20.7174 19.0652 20.8242 18.6413C20.9356 18.2074 20.9914 17.7611 20.9902 17.3132H20.9858ZM19.6751 17.3132C19.6806 17.796 19.5869 18.2748 19.3999 18.72C19.2054 19.158 18.9296 19.5553 18.5873 19.8908C18.2569 20.2472 17.8529 20.5275 17.4033 20.7122C16.5067 21.0676 15.5082 21.0676 14.6116 20.7122C14.1657 20.5308 13.7625 20.2585 13.4276 19.9127C13.0861 19.5681 12.8107 19.1639 12.615 18.72C12.422 18.2761 12.3224 17.7972 12.3223 17.3132C12.3183 16.8361 12.412 16.3633 12.5976 15.9239C12.7925 15.4796 13.068 15.0752 13.4102 14.7312C13.745 14.3853 14.1482 14.113 14.5941 13.9317C15.4908 13.5762 16.4892 13.5762 17.3859 13.9317C17.8318 14.113 18.235 14.3853 18.5698 14.7312C18.9109 15.0761 19.1862 15.4802 19.3824 15.9239C19.571 16.3627 19.6677 16.8355 19.6664 17.3132H19.6751Z" fill="#52796F"/>
</svg>
