<svg xmlns="http://www.w3.org/2000/svg" viewBox="0 0 32 32" role="presentation" aria-hidden="true"><rect width="32" height="32" rx="4" fill="#B7E4C7"/><path d="M26.6668 23.3254C26.6674 23.5861 26.6169 23.8443 26.5183 24.0856C26.4109 24.326 26.2632 24.5462 26.0814 24.7366C25.8964 24.925 25.6749 25.0737 25.4304 25.1735C25.1822 25.2683 24.9185 25.3157 24.6528 25.3133H7.33888C7.0732 25.3157 6.80941 25.2683 6.56122 25.1735C6.32115 25.0773 6.10604 24.9279 5.9321 24.7366C5.74602 24.5497 5.59769 24.3286 5.49522 24.0856C5.39002 23.8459 5.33501 23.5872 5.33357 23.3254V11.3154C5.33134 11.056 5.38188 10.7988 5.48211 10.5595C5.58458 10.3165 5.73291 10.0955 5.919 9.90858C6.09293 9.71721 6.30804 9.56783 6.54812 9.47169C6.80041 9.37522 7.0688 9.32777 7.33888 9.33189H11.0131L11.5024 7.94695C11.5819 7.75909 11.6862 7.58276 11.8126 7.42269C11.9408 7.26711 12.0876 7.12773 12.2495 7.00764C12.4072 6.89976 12.5793 6.81446 12.7607 6.75425C12.9603 6.69353 13.1681 6.66405 13.3767 6.66687H18.6193C18.8177 6.66745 19.0149 6.69688 19.2048 6.75425C19.3985 6.81069 19.5827 6.89612 19.7509 7.00764C20.0778 7.24994 20.3355 7.57385 20.498 7.94695L20.9916 9.33189H24.6615C24.9241 9.33189 25.1846 9.37925 25.4304 9.47169C25.6737 9.56653 25.892 9.716 26.0683 9.90858C26.2544 10.0955 26.4027 10.3165 26.5052 10.5595C26.6034 10.7994 26.6538 11.0562 26.6537 11.3154L26.6668 23.3254ZM20.9873 17.3138C20.9894 16.8719 20.9351 16.4314 20.8256 16.0032C20.7189 15.5792 20.5511 15.1731 20.3276 14.7974C20.1081 14.4247 19.8424 14.0812 19.5368 13.775C19.2298 13.4705 18.8864 13.2049 18.5145 12.9843C18.134 12.7726 17.7291 12.6082 17.3087 12.495C16.4496 12.2685 15.5464 12.2685 14.6873 12.495C14.2669 12.6082 13.862 12.7726 13.4815 12.9843C13.1069 13.2048 12.7606 13.4704 12.4505 13.775C12.1402 14.0732 11.8766 14.4164 11.6684 14.793C11.4444 15.17 11.2725 15.5756 11.1573 15.9988C11.0428 16.4262 10.9855 16.867 10.9869 17.3095C10.9845 17.7592 11.0418 18.2073 11.1573 18.642C11.2725 19.0651 11.4444 19.4708 11.6684 19.8478C11.8772 20.2253 12.1408 20.5698 12.4505 20.8701C12.7606 21.1748 13.1069 21.4403 13.4815 21.6609C13.8629 21.8708 14.2676 22.035 14.6873 22.1502C15.5464 22.3766 16.4496 22.3766 17.3087 22.1502C17.7284 22.035 18.1332 21.8708 18.5145 21.6609C19.2633 21.2207 19.8874 20.5966 20.3276 19.8478C20.5511 19.4721 20.7189 19.0659 20.8256 18.642C20.9371 18.2081 20.9929 17.7618 20.9916 17.3138H20.9873ZM19.6766 17.3138C19.682 17.7967 19.5884 18.2755 19.4014 18.7206C19.2068 19.1587 18.9311 19.556 18.5888 19.8915C18.2583 20.2479 17.8543 20.5281 17.4048 20.7128C16.5082 21.0683 15.5097 21.0683 14.6131 20.7128C14.1672 20.5315 13.7639 20.2592 13.4291 19.9133C13.0876 19.5688 12.8122 19.1645 12.6165 18.7206C12.4235 18.2767 12.3239 17.7979 12.3238 17.3138C12.3198 16.8368 12.4134 16.364 12.599 15.9245C12.794 15.4802 13.0695 15.0759 13.4116 14.7318C13.7465 14.386 14.1497 14.1137 14.5956 13.9323C15.4922 13.5769 16.4907 13.5769 17.3873 13.9323C17.8332 14.1137 18.2365 14.386 18.5713 14.7318C18.9123 15.0767 19.1877 15.4809 19.3839 15.9245C19.5725 16.3634 19.6691 16.8362 19.6679 17.3138H19.6766Z" fill="#52796F"/></svg>