<svg width="20" height="20" viewBox="0 0 20 20" fill="none" xmlns="http://www.w3.org/2000/svg">
<path d="M7.72245 4.72634C8.73603 2.90878 9.24242 2 10 2C10.7576 2 11.264 2.90878 12.2775 4.72634L12.5399 5.19672C12.8279 5.71351 12.9719 5.97191 13.1959 6.1423C13.4199 6.3127 13.6999 6.3759 14.2599 6.50229L14.7687 6.61749C16.7366 7.06308 17.7198 7.28548 17.9542 8.03826C18.1878 8.79024 17.5174 9.57502 16.1759 11.1438L15.8287 11.5494C15.4479 11.995 15.2567 12.2182 15.1711 12.4934C15.0855 12.7693 15.1143 13.0669 15.1719 13.6613L15.2247 14.2029C15.4271 16.2965 15.5287 17.3428 14.9159 17.8076C14.3031 18.2724 13.3815 17.8484 11.54 17.0004L11.0624 16.7813C10.5392 16.5397 10.2776 16.4197 10 16.4197C9.72241 16.4197 9.46081 16.5397 8.93762 16.7813L8.46084 17.0004C6.61848 17.8484 5.6969 18.2724 5.08492 17.8084C4.47133 17.3428 4.57293 16.2965 4.77532 14.2029L4.82812 13.6621C4.88572 13.0669 4.91452 12.7693 4.82812 12.4942C4.74332 12.2182 4.55213 11.995 4.17134 11.5502L3.82415 11.1438C2.48258 9.57582 1.81219 8.79104 2.04579 8.03826C2.27938 7.28548 3.26416 7.06228 5.23211 6.61749L5.7409 6.50229C6.30009 6.3759 6.57928 6.3127 6.80408 6.1423C7.02887 5.97191 7.17207 5.71351 7.46006 5.19672L7.72245 4.72634Z" stroke="currentColor" stroke-width="1.3"/>
</svg>
