<svg width="20" height="20" viewBox="0 0 20 20" fill="none" xmlns="http://www.w3.org/2000/svg">
<path d="M17.1583 7.6662L10.6958 10.6345C10.4776 10.7348 10.2402 10.7867 9.99999 10.7867C9.75979 10.7867 9.52242 10.7348 9.30416 10.6345L2.84166 7.66703M15.2083 17.0837H4.79166C4.12862 17.0837 3.49273 16.8203 3.02389 16.3515C2.55505 15.8826 2.29166 15.2467 2.29166 14.5837V8.5712C2.29139 8.21676 2.38156 7.86811 2.55363 7.55823C2.7257 7.24836 2.97398 6.98751 3.27499 6.80036L9.11999 3.16703C9.38413 3.00281 9.68896 2.91577 9.99999 2.91577C10.311 2.91577 10.6158 3.00281 10.88 3.16703L16.725 6.80036C17.0259 6.98744 17.2741 7.24815 17.4462 7.55787C17.6182 7.86758 17.7084 8.21606 17.7083 8.57037V14.5829C17.7083 15.2459 17.4449 15.8818 16.9761 16.3506C16.5073 16.8195 15.8714 17.0837 15.2083 17.0837Z" stroke="currentColor" stroke-width="1.2" stroke-linecap="round" stroke-linejoin="round"/>
</svg>
