<svg xmlns="http://www.w3.org/2000/svg" aria-hidden="true" viewBox="0 0 32 32"><path fill="currentColor" fill-rule="evenodd" d="M16.526 5q-3.144.001-6.196.343c-1.633.182-2.804 1.53-2.804 3.07v17.802a.76.76 0 0 0 .096.368.8.8 0 0 0 .264.282.84.84 0 0 0 .763.079l3.787-1.454 3.787 1.454a.85.85 0 0 0 .607 0l3.787-1.454 3.787 1.454a.85.85 0 0 0 .763-.079.8.8 0 0 0 .264-.282.76.76 0 0 0 .095-.368V8.412c0-1.54-1.17-2.887-2.803-3.07A56 56 0 0 0 16.526 5m3.851 7.627a.77.77 0 0 0 .22-.55.77.77 0 0 0-.24-.541.84.84 0 0 0-.564-.23.84.84 0 0 0-.572.21l-6.546 6.286a.8.8 0 0 0-.26.561.76.76 0 0 0 .24.57.85.85 0 0 0 .912.162q.151-.066.265-.182zm-7.532.23c0-.312.129-.612.359-.833s.542-.345.868-.345.638.124.868.345.36.52.36.833-.13.613-.36.834-.543.345-.868.345c-.326 0-.638-.124-.868-.345s-.36-.521-.36-.834m6.136 3.536c-.326 0-.638.124-.868.345s-.36.521-.36.834.13.612.36.833.542.345.868.345.638-.124.868-.345.36-.52.36-.834c0-.312-.13-.612-.36-.833a1.25 1.25 0 0 0-.868-.345" clip-rule="evenodd"/></svg>