<svg xmlns="http://www.w3.org/2000/svg" aria-hidden="true" viewBox="0 0 24 24"><path fill="currentColor" fill-rule="evenodd" d="M15.209 6.524a6.6 6.6 0 0 0-4.18-.422 6.57 6.57 0 0 0-3.579 2.19 6.52 6.52 0 0 0-1.513 3.9.75.75 0 1 1-1.499-.064A8.02 8.02 0 0 1 6.3 7.33a8.07 8.07 0 0 1 4.397-2.69 8.09 8.09 0 0 1 8 2.702V5.237a.75.75 0 0 1 1.5 0V9.61a.75.75 0 0 1-.75.75H15.06a.75.75 0 0 1 0-1.5h2.902a6.56 6.56 0 0 0-2.752-2.336m4.643 5.616a.75.75 0 0 1 .71.788 8.03 8.03 0 0 1-1.895 4.769 8.07 8.07 0 0 1-4.4 2.655 8.1 8.1 0 0 1-5.113-.537 8.06 8.06 0 0 1-2.85-2.178v2.175a.75.75 0 0 1-1.5 0V15.44a.75.75 0 0 1 .75-.75H9.94a.75.75 0 0 1 0 1.5H7.088a6.56 6.56 0 0 0 2.689 2.26 6.585 6.585 0 0 0 7.746-1.723 6.52 6.52 0 0 0 1.54-3.877.75.75 0 0 1 .789-.71" clip-rule="evenodd"/></svg>