<svg xmlns="http://www.w3.org/2000/svg" viewBox="0 0 24 24" role="presentation" aria-hidden="true"><path d="M19.188 12.432a.312.312 0 0 0-.313.311c0 3.77-3.085 6.234-6.875 6.234-3.228 0-5.206-2.273-6.34-4.35h1.652c.173 0 .313-.14.313-.31 0-.172-.14-.311-.313-.311h-2.5a.312.312 0 0 0-.312.31v2.46c0 .172.14.31.312.31a.311.311 0 0 0 .313-.31v-1.833C6.79 17.989 9.157 19.599 12 19.599c4.136 0 7.5-2.744 7.5-6.856 0-.171-.14-.31-.313-.31Zm0-5.236a.312.312 0 0 0-.313.31V9.34C17.209 6.293 14.842 4.684 12 4.684c-4.136 0-7.5 3.345-7.5 7.457a.312.312 0 0 0 .625 0c0-3.769 3.084-6.836 6.875-6.836 3.228 0 5.206 2.273 6.34 4.35h-1.653a.312.312 0 0 0-.312.311c0 .172.14.31.312.31h2.5c.173 0 .313-.138.313-.31v-2.46c0-.171-.14-.31-.313-.31Z" fill="currentColor"/><path fill-rule="evenodd" clip-rule="evenodd" d="M4.274 12.142c0-4.238 3.467-7.683 7.726-7.683 2.708 0 4.984 1.415 6.65 4.054V7.507a.537.537 0 0 1 1.075 0v2.46a.537.537 0 0 1-.538.535h-2.5a.537.537 0 1 1 0-1.071h1.266c-1.142-1.948-3.017-3.9-5.953-3.9-3.668 0-6.65 2.967-6.65 6.61a.537.537 0 0 1-1.076 0ZM12 4.909c-4.013 0-7.276 3.246-7.276 7.233 0 .046.038.085.088.085.05 0 .087-.04.087-.085C4.9 8.247 8.086 5.08 12 5.08c3.353 0 5.39 2.365 6.538 4.468l.181.333h-2.03c-.05 0-.088.04-.088.085 0 .046.038.086.087.086h2.5c.05 0 .088-.04.088-.086v-2.46a.087.087 0 0 0-.088-.085c-.05 0-.087.04-.087.086V9.34l-.423.108C17.041 6.454 14.74 4.909 12 4.909Zm6.65 7.835a.537.537 0 0 1 1.075 0c0 4.262-3.492 7.08-7.725 7.08-2.709 0-4.984-1.416-6.65-4.054v1.006a.536.536 0 0 1-1.076 0v-2.46c0-.296.242-.535.538-.535h2.5a.537.537 0 1 1 0 1.071H6.046c1.142 1.948 3.017 3.9 5.954 3.9 3.696 0 6.65-2.391 6.65-6.008Zm.537-.086c-.05 0-.087.04-.087.086 0 3.92-3.215 6.459-7.1 6.459-3.353 0-5.39-2.365-6.537-4.468l-.182-.332h2.031c.05 0 .088-.04.088-.086a.087.087 0 0 0-.088-.086h-2.5c-.05 0-.088.04-.088.086v2.46c0 .046.038.085.088.085.05 0 .087-.04.087-.085v-1.834l.423-.108c1.637 2.994 3.937 4.54 6.678 4.54 4.038 0 7.275-2.669 7.275-6.631a.087.087 0 0 0-.088-.086Z" fill="currentColor"/></svg>