<svg xmlns="http://www.w3.org/2000/svg" aria-hidden="true" viewBox="0 0 24 24"><g fill="currentColor" clip-path="url(#a)"><path fill-rule="evenodd" d="M3.5 7.032C3.5 5.082 5.066 3.5 6.999 3.5h9.609c1.932 0 3.498 1.581 3.498 3.532v7.56a.646.646 0 0 1-.642.648.646.646 0 0 1-.643-.649v-7.56c0-1.233-.99-2.234-2.213-2.234h-9.61c-1.222 0-2.213 1-2.213 2.235v9.7c0 1.235.991 2.235 2.214 2.235h7.494c.355 0 .643.29.643.649a.646.646 0 0 1-.643.649H7c-1.933 0-3.499-1.582-3.499-3.532z" clip-rule="evenodd"/><path d="M6.773 12.87a.48.48 0 0 0-.134.333v3.246c0 .398.32.72.714.72h9.044a.717.717 0 0 0 .714-.72v-3.243a.48.48 0 0 0-.136-.337l-2.628-2.701a.68.68 0 0 0-.969-.01l-3.347 3.304a.227.227 0 0 1-.322-.003l-1.281-1.302a.68.68 0 0 0-.98.007zm4.492-4.786c0 .854-.686 1.546-1.532 1.546a1.54 1.54 0 0 1-1.53-1.546c0-.853.685-1.545 1.53-1.545.846 0 1.531.692 1.531 1.545"/><path fill-rule="evenodd" d="M14 17.649c0-.359.288-.649.643-.649h4.787c.355 0 .643.29.643.649a.646.646 0 0 1-.643.648h-4.787A.646.646 0 0 1 14 17.65" clip-rule="evenodd"/></g><defs><clipPath id="a"><path fill="currentColor" d="M0 0h24v24H0z"/></clipPath></defs></svg>