<svg xmlns="http://www.w3.org/2000/svg" aria-hidden="true" viewBox="0 0 24 24"><path fill="currentColor" fill-rule="evenodd" d="M4.264 5.12a2.6 2.6 0 0 1 1.843-.764h1.857a.75.75 0 1 1 0 1.5H6.107A1.107 1.107 0 0 0 5 6.963v11.14a1.107 1.107 0 0 0 1.107 1.108h5.289a.75.75 0 0 1 0 1.5h-5.29A2.607 2.607 0 0 1 3.5 18.104V6.964c0-.692.275-1.355.764-1.844m12.983 7.592a.75.75 0 0 1 .75.75v2.964h2.964a.75.75 0 1 1 0 1.5h-3.714a.75.75 0 0 1-.75-.75v-3.714a.75.75 0 0 1 .75-.75m-4.463-7.606a.75.75 0 0 1 .75-.75h1.857a2.607 2.607 0 0 1 2.606 2.607v3.714a.75.75 0 0 1-1.5 0V6.963a1.107 1.107 0 0 0-1.106-1.107h-1.857a.75.75 0 0 1-.75-.75" clip-rule="evenodd"/><path fill="currentColor" fill-rule="evenodd" d="M9.82 4a1.107 1.107 0 0 0 0 2.214h1.857a1.107 1.107 0 0 0 0-2.214zM7.214 5.107A2.607 2.607 0 0 1 9.82 2.5h1.857a2.607 2.607 0 0 1 0 5.214H9.82a2.607 2.607 0 0 1-2.606-2.607m10.034 9.105a2.964 2.964 0 1 0 0 5.927 2.964 2.964 0 0 0 0-5.927m-4.464 2.964a4.464 4.464 0 1 1 8.927 0 4.464 4.464 0 0 1-8.927 0m-5.57-6.499a.75.75 0 0 1 .75-.75h3.713a.75.75 0 1 1 0 1.5H7.964a.75.75 0 0 1-.75-.75m0 3.713a.75.75 0 0 1 .75-.75h2.785a.75.75 0 0 1 0 1.5H7.964a.75.75 0 0 1-.75-.75" clip-rule="evenodd"/></svg>