<svg xmlns="http://www.w3.org/2000/svg" width="20" height="20" fill="none" viewBox="0 0 20 20"><path stroke="currentColor" stroke-width="1.2" d="M2 10c0-3.771 0-5.657 1.171-6.829C4.344 2 6.23 2 10 2s5.657 0 6.828 1.171C18 4.344 18 6.23 18 10s0 5.657-1.172 6.828C15.658 18 13.771 18 10 18s-5.657 0-6.829-1.172C2 15.658 2 13.771 2 10Z"/><path stroke="currentColor" stroke-linecap="round" stroke-linejoin="round" stroke-width="1.2" d="m5.2 13.04.914.96L8.4 11.6M5.2 7.44l.914.96L8.4 6"/><path stroke="currentColor" stroke-linecap="round" stroke-width="1.2" d="M10.8 7.6h4m-4 5.6h4"/></svg>