<svg width="20" height="20" viewBox="0 0 20 20" fill="none" xmlns="http://www.w3.org/2000/svg">
<path d="M11.8213 2.29395V5.29061C11.8213 5.69645 11.9838 6.08645 12.2713 6.37395C12.5604 6.66175 12.9517 6.82327 13.3596 6.82311H16.7971" stroke="currentColor" stroke-width="1.5" stroke-linecap="round" stroke-linejoin="round"/>
<path d="M6.3725 6.37269H9.09333M6.3725 10.0002H13.6275M6.3725 13.6277H13.6275M16.875 7.14019V14.2802C16.8585 14.7472 16.7496 15.2063 16.5548 15.6311C16.3601 16.0559 16.0831 16.4379 15.74 16.7552C15.3966 17.0739 14.9938 17.3219 14.5545 17.4849C14.1153 17.6479 13.6482 17.7227 13.18 17.7052H6.855C6.38395 17.7267 5.91328 17.6551 5.46998 17.4943C5.02668 17.3336 4.61946 17.0869 4.27167 16.7685C3.92522 16.4504 3.64545 16.0666 3.44861 15.6394C3.25176 15.2123 3.14176 14.7502 3.125 14.2802V5.71852C3.14155 5.2515 3.25035 4.79237 3.44515 4.36759C3.63995 3.94281 3.91688 3.56078 4.26 3.24352C4.6034 2.92479 5.00623 2.67684 5.44549 2.51383C5.88474 2.35083 6.35181 2.27597 6.82 2.29352H11.5817C12.3086 2.29095 13.0102 2.55991 13.5492 3.04769L16.0158 5.31602C16.279 5.54275 16.4916 5.82236 16.6396 6.13664C16.7876 6.45093 16.8678 6.79286 16.875 7.14019Z" stroke="currentColor" stroke-width="1.5" stroke-linecap="round" stroke-linejoin="round"/>
</svg>
