<svg width="24" height="24" viewBox="0 0 24 24" fill="none" xmlns="http://www.w3.org/2000/svg"><path d="M14.185 2.753v3.596a1.84 1.84 0 0 0 1.847 1.839h4.125" stroke="currentColor" stroke-width="1.3" stroke-linecap="round" stroke-linejoin="round"/><path d="M7.647 7.647h3.265M7.647 12h8.706m-8.706 4.353h8.706m3.897-7.785v8.568a4.25 4.25 0 0 1-1.362 2.97 4.282 4.282 0 0 1-3.072 1.14h-7.59a4.298 4.298 0 0 1-3.1-1.124 4.26 4.26 0 0 1-1.376-2.986V6.862a4.25 4.25 0 0 1 1.362-2.97 4.28 4.28 0 0 1 3.072-1.14h5.714a3.5 3.5 0 0 1 2.361.905l2.96 2.722a2.969 2.969 0 0 1 1.031 2.189Z" stroke="currentColor" stroke-width="1.3" stroke-linecap="round" stroke-linejoin="round"/></svg>