<svg xmlns="http://www.w3.org/2000/svg" aria-hidden="true" viewBox="0 0 26 26"><path fill="currentColor" d="m21.964 12.101-3.025 3.07a.88.88 0 0 1-.636.262.88.88 0 0 1-.635-.263l-3.025-3.069a.915.915 0 0 1 0-1.25.915.915 0 0 1 1.249 0l1.688 1.71c-.22-3.178-2.828-5.699-6.006-5.699-3.332 0-6.029 2.762-6.029 6.138s2.697 6.138 6.029 6.138a5.85 5.85 0 0 0 3.397-1.074c.395-.285.943-.175 1.228.22.285.394.175.942-.22 1.227a7.7 7.7 0 0 1-4.405 1.38c-4.297 0-7.782-3.529-7.782-7.89 0-4.363 3.485-7.893 7.782-7.893 4.033 0 7.365 3.135 7.738 7.147l1.38-1.403a.873.873 0 0 1 1.25 0c.351.35.351.899.022 1.25"/></svg>