<svg xmlns="http://www.w3.org/2000/svg" viewBox="0 0 48 48" role="presentation" aria-hidden="true"><path fill-rule="evenodd" clip-rule="evenodd" d="m36.744 12.72.845.844c.284.284.342.636.342 1.112V40.759c0 .52-.522 1.025-1.14 1.184a.544.544 0 0 1-.094.027c-.097.02-.195.03-.295.03H11.53c-.1 0-.198-.01-.295-.03a.543.543 0 0 1-.06-.016l-.034-.01c-.618-.16-1.14-.666-1.14-1.185V7.817C10 6.568 10.792 6 11.529 6h18.013c.311 0 .604.121.824.34l.479.48 5.9 5.9Zm-1.026.728-5.235-5.235v5.235h5.235ZM11.408 40.73c.039.015.078.03.12.03h24.874a.335.335 0 0 0 .12-.03h.003a.285.285 0 0 0 .165-.258v-9.023H11.24v9.023c0 .114.069.211.165.257l.002.001Zm-.167-32.913v22.39H36.69v-15.53l-.001-.022a.96.96 0 0 1-.243.036h-7.205V7.484c0-.084.016-.164.036-.243H11.53c-.267 0-.288.44-.288.575Zm9.09 27.382c0 .452-.105.837-.314 1.154-.21.317-.492.552-.85.704l1.426 2.46h-1.077l-1.18-2.265a.634.634 0 0 0-.067.005 1.321 1.321 0 0 1-.131.004h-.769v2.257h-1.018v-6.254h1.799c.265 0 .528.043.789.128.26.084.493.212.7.381.207.17.374.375.5.615.128.241.192.511.192.811Zm-2.037 1.316c.125 0 .249-.022.373-.064a.935.935 0 0 0 .34-.209c.102-.096.183-.23.246-.402a1.923 1.923 0 0 0 .05-.993 1.005 1.005 0 0 0-.542-.687c-.16-.082-.368-.123-.628-.123h-.764v2.478h.925Zm3.326-2.555h1.867v5.558h1.027V33.96h1.867v-.696H21.62v.696Zm7.035 5.558H27.62v-6.254h3.911v.772h-2.876v1.97h2.614v.695h-2.614v2.817ZM14.345 14.69h3.724a.62.62 0 1 0 0-1.242h-3.724a.62.62 0 1 0 0 1.242Zm5.586 3.103h-5.586a.62.62 0 1 1 0-1.241h5.586a.62.62 0 1 1 0 1.241Zm2.483 0a.653.653 0 0 0 .44-.18.653.653 0 0 0 .18-.44.653.653 0 0 0-.18-.441.65.65 0 0 0-.88 0 .638.638 0 0 0-.18.44c0 .168.067.323.18.441.117.112.279.18.44.18Zm7.448 0h-4.965a.62.62 0 1 1 0-1.241h4.965a.62.62 0 1 1 0 1.241Zm-15.958 8.25a.638.638 0 0 0-.18.44c0 .167.068.323.18.44.117.112.273.18.44.18a.641.641 0 0 0 .442-.18.652.652 0 0 0 .18-.44.652.652 0 0 0-.18-.44.65.65 0 0 0-.882 0Zm2.923-.18h4.966a.62.62 0 1 1 0 1.24h-4.966a.62.62 0 1 1 0-1.24Zm16.76-9.311h-1.242a.62.62 0 1 0 0 1.241h1.241a.62.62 0 1 0 0-1.241ZM28 20.897H14.345a.62.62 0 1 1 0-1.242H28a.62.62 0 1 1 0 1.242Zm5.587-1.242h-3.725a.62.62 0 1 0 0 1.242h3.725a.62.62 0 1 0 0-1.242ZM16.826 24h-2.482a.62.62 0 1 1 0-1.241h2.483a.62.62 0 1 1 0 1.24Zm8.69-1.241h-6.206a.62.62 0 1 0 0 1.24h6.207a.62.62 0 1 0 0-1.24Zm2.483 0h5.586a.62.62 0 1 1 0 1.24H28a.62.62 0 1 1 0-1.24Z" fill="currentColor"/></svg>