<svg xmlns="http://www.w3.org/2000/svg" aria-hidden="true" viewBox="0 0 48 48"><path fill="currentColor" fill-rule="evenodd" d="m36.744 12.72.845.844c.284.284.342.636.342 1.112v26.083c0 .52-.522 1.025-1.14 1.184a.5.5 0 0 1-.094.027q-.145.03-.295.03H11.53q-.15 0-.295-.03l-.06-.016-.034-.01c-.618-.16-1.14-.666-1.14-1.185V7.817C10 6.568 10.792 6 11.529 6h18.013c.311 0 .604.121.824.34l.479.48 5.9 5.9Zm-1.026.728-5.235-5.235v5.235zM11.408 40.73c.039.015.078.03.12.03h24.874a.3.3 0 0 0 .12-.03h.003a.28.28 0 0 0 .165-.258v-9.023H11.24v9.023c0 .114.069.211.165.257zm-.167-32.913v22.39H36.69v-15.53l-.001-.022a1 1 0 0 1-.243.036h-7.205V7.484c0-.084.016-.164.036-.243H11.53c-.267 0-.288.44-.288.575Zm9.09 27.382q0 .678-.314 1.154t-.85.704l1.426 2.46h-1.077l-1.18-2.265-.067.005a1 1 0 0 1-.131.004h-.769v2.257h-1.018v-6.254h1.799q.398 0 .789.128.39.127.7.381.31.255.5.615a1.7 1.7 0 0 1 .192.811m-2.037 1.316q.187 0 .373-.064a.9.9 0 0 0 .34-.209q.152-.144.246-.402a1.9 1.9 0 0 0 .05-.993 1 1 0 0 0-.542-.687q-.239-.123-.628-.123h-.764v2.478zm3.326-2.555h1.867v5.558h1.027V33.96h1.867v-.696H21.62zm7.035 5.558H27.62v-6.254h3.911v.772h-2.876v1.97h2.614v.695h-2.614zM14.345 14.69h3.724a.62.62 0 1 0 0-1.242h-3.724a.62.62 0 1 0 0 1.242m5.586 3.103h-5.586a.62.62 0 1 1 0-1.241h5.586a.62.62 0 1 1 0 1.241m2.483 0a.65.65 0 0 0 .44-.18.65.65 0 0 0 .18-.44.65.65 0 0 0-.18-.441.65.65 0 0 0-.88 0 .64.64 0 0 0-.18.44c0 .168.067.323.18.441.117.112.279.18.44.18m7.448 0h-4.965a.62.62 0 1 1 0-1.241h4.965a.62.62 0 1 1 0 1.241m-15.958 8.25a.64.64 0 0 0-.18.44c0 .167.068.323.18.44.117.112.273.18.44.18a.64.64 0 0 0 .442-.18.65.65 0 0 0 .18-.44.65.65 0 0 0-.18-.44.65.65 0 0 0-.882 0m2.923-.18h4.966a.62.62 0 1 1 0 1.24h-4.966a.62.62 0 1 1 0-1.24m16.76-9.311h-1.242a.62.62 0 1 0 0 1.241h1.241a.62.62 0 1 0 0-1.241ZM28 20.897H14.345a.62.62 0 1 1 0-1.242H28a.62.62 0 1 1 0 1.242m5.587-1.242h-3.725a.62.62 0 1 0 0 1.242h3.725a.62.62 0 1 0 0-1.242M16.826 24h-2.482a.62.62 0 1 1 0-1.241h2.483a.62.62 0 1 1 0 1.24Zm8.69-1.241H19.31a.62.62 0 1 0 0 1.24h6.207a.62.62 0 1 0 0-1.24Zm2.483 0h5.586a.62.62 0 1 1 0 1.24H28a.62.62 0 1 1 0-1.24Z" clip-rule="evenodd"/></svg>