<svg xmlns="http://www.w3.org/2000/svg" width="20" height="20" fill="none" viewBox="0 0 20 20"><path stroke="currentColor" stroke-linecap="round" stroke-linejoin="round" stroke-width="1.2" d="M14.4 4.4a1.2 1.2 0 1 1 0 2.4 1.2 1.2 0 0 1 0-2.4"/><path stroke="currentColor" stroke-width="1.2" d="M2.619 9.315c-.803.896-.82 2.248-.083 3.2a27.2 27.2 0 0 0 4.948 4.949c.953.736 2.305.719 3.2-.083a74 74 0 0 0 6.813-6.959 1.56 1.56 0 0 0 .376-.875c.132-1.437.403-5.576-.721-6.7-1.124-1.123-5.263-.852-6.7-.72a1.56 1.56 0 0 0-.875.376A74 74 0 0 0 2.62 9.315Z"/><path stroke="currentColor" stroke-linecap="round" stroke-linejoin="round" stroke-width="1.2" d="M11.43 10.294c.018-.321.107-.909-.38-1.355a1.8 1.8 0 0 0-.638-.36c-1.006-.355-2.24.83-1.367 1.916.47.584.832.763.797 1.426-.024.465-.481.953-1.085 1.138-.524.162-1.102-.052-1.468-.46-.447-.5-.401-.97-.405-1.175M11.05 8.94l.55-.551M7.328 12.66l-.523.522"/></svg>