<svg xmlns="http://www.w3.org/2000/svg" viewBox="0 0 26 26" role="presentation" aria-hidden="true"><path d="M13.235 1.073A3.88 3.88 0 0 1 15.908 0h6.668c.908 0 1.779.367 2.421 1.02A3.508 3.508 0 0 1 26 3.48v6.717c0 .522-.101 1.04-.298 1.522a3.98 3.98 0 0 1-.849 1.29L13.287 24.763A4.125 4.125 0 0 1 10.347 26a4.125 4.125 0 0 1-2.94-1.237l-6.189-6.29a4.232 4.232 0 0 1-.914-1.402 4.285 4.285 0 0 1 .053-3.299c.226-.518.553-.984.96-1.371L13.235 1.074v-.001Zm6.406 7.874c.649 0 1.27-.262 1.73-.728a2.506 2.506 0 0 0 .716-1.757c0-.66-.258-1.291-.717-1.758a2.426 2.426 0 0 0-1.73-.727c-.648 0-1.27.261-1.729.727a2.506 2.506 0 0 0-.716 1.758c0 .659.258 1.291.716 1.757.46.466 1.081.728 1.73.728Z" fill="#36F"/></svg>