<svg xmlns="http://www.w3.org/2000/svg" aria-hidden="true" viewBox="0 0 26 26"><path fill="#36f" d="M13.235 1.073A3.88 3.88 0 0 1 15.908 0h6.668c.908 0 1.779.367 2.421 1.02A3.5 3.5 0 0 1 26 3.48v6.717c0 .522-.101 1.04-.298 1.522a4 4 0 0 1-.849 1.29L13.287 24.763A4.13 4.13 0 0 1 10.347 26a4.13 4.13 0 0 1-2.94-1.237l-6.189-6.29a4.2 4.2 0 0 1-.914-1.402 4.3 4.3 0 0 1 .053-3.299c.226-.518.553-.984.96-1.371zm6.406 7.874a2.43 2.43 0 0 0 1.73-.728 2.5 2.5 0 0 0 .716-1.757c0-.66-.258-1.291-.717-1.758a2.43 2.43 0 0 0-1.73-.727c-.648 0-1.27.261-1.729.727a2.5 2.5 0 0 0-.716 1.758c0 .659.258 1.291.716 1.757a2.43 2.43 0 0 0 1.73.728"/></svg>