<svg xmlns="http://www.w3.org/2000/svg" aria-hidden="true" viewBox="0 0 24 24"><path fill="currentColor" fill-rule="evenodd" d="M6.556 5.75a.806.806 0 0 0-.806.806v10.888a.806.806 0 0 0 .806.806h.805v-5.472a.75.75 0 0 1 .75-.75h7.778a.75.75 0 0 1 .75.75v5.472h.805a.806.806 0 0 0 .806-.806V9.2L14.8 5.75H8.862v2.389h5.473a.75.75 0 0 1 0 1.5H8.11a.75.75 0 0 1-.75-.75V5.75zm1.555-1.5H6.556A2.306 2.306 0 0 0 4.25 6.556v10.888a2.306 2.306 0 0 0 2.306 2.306h10.888a2.306 2.306 0 0 0 2.306-2.306V8.89a.75.75 0 0 0-.22-.53l-3.889-3.89a.75.75 0 0 0-.53-.219zm7.028 14H8.861v-4.722h6.278z" clip-rule="evenodd"/></svg>