<svg xmlns="http://www.w3.org/2000/svg" viewBox="0 0 24 24" role="presentation" aria-hidden="true"><path fill-rule="evenodd" clip-rule="evenodd" d="M10.8575 5.5239C7.91185 5.5239 5.5239 7.91185 5.5239 10.8575C5.5239 13.8032 7.91185 16.1912 10.8575 16.1912C12.3306 16.1912 13.663 15.595 14.629 14.629C15.595 13.663 16.1912 12.3306 16.1912 10.8575C16.1912 7.91185 13.8032 5.5239 10.8575 5.5239ZM4 10.8575C4 7.07023 7.07023 4 10.8575 4C14.6449 4 17.7151 7.07023 17.7151 10.8575C17.7151 12.4764 17.1534 13.9651 16.2155 15.1379L19.7768 18.6993C20.0744 18.9968 20.0744 19.4793 19.7768 19.7768C19.4793 20.0744 18.9968 20.0744 18.6993 19.7768L15.1379 16.2155C13.9651 17.1534 12.4764 17.7151 10.8575 17.7151C7.07023 17.7151 4 14.6449 4 10.8575Z" fill="currentColor"/></svg>