<svg width="20" height="20" viewBox="0 0 20 20" fill="none" xmlns="http://www.w3.org/2000/svg">
<path d="M16.6663 10.8331C16.6663 14.9997 13.7497 17.0831 10.283 18.2914C10.1015 18.3529 9.90429 18.35 9.72467 18.2831C6.24967 17.0831 3.33301 14.9997 3.33301 10.8331V4.99972C3.33301 4.77871 3.42081 4.56675 3.57709 4.41047C3.73337 4.25419 3.94533 4.16639 4.16634 4.16639C5.83301 4.16639 7.91634 3.16639 9.36634 1.89972C9.54289 1.74889 9.76747 1.66602 9.99967 1.66602C10.2319 1.66602 10.4565 1.74889 10.633 1.89972C12.0913 3.17472 14.1663 4.16639 15.833 4.16639C16.054 4.16639 16.266 4.25419 16.4223 4.41047C16.5785 4.56675 16.6663 4.77871 16.6663 4.99972V10.8331Z" stroke="currentColor" stroke-width="1.5" stroke-linecap="round" stroke-linejoin="round"/>
<path d="M7.5 9.99967L9.16667 11.6663L12.5 8.33301" stroke="currentColor" stroke-width="1.5" stroke-linecap="round" stroke-linejoin="round"/>
</svg>
