<svg xmlns="http://www.w3.org/2000/svg" width="20" height="20" fill="none" viewBox="0 0 20 20"><path stroke="currentColor" stroke-linecap="round" stroke-linejoin="round" stroke-width="1.5" d="M16.666 10.833c0 4.167-2.916 6.25-6.383 7.458a.83.83 0 0 1-.558-.008c-3.475-1.2-6.392-3.283-6.392-7.45V5a.833.833 0 0 1 .833-.834c1.667 0 3.75-1 5.2-2.266a.975.975 0 0 1 1.267 0c1.458 1.275 3.533 2.266 5.2 2.266a.833.833 0 0 1 .833.834z"/><path stroke="currentColor" stroke-linecap="round" stroke-linejoin="round" stroke-width="1.5" d="m7.5 10 1.667 1.666L12.5 8.333"/></svg>