<svg xmlns="http://www.w3.org/2000/svg" viewBox="0 0 21 21" role="presentation" aria-hidden="true"><path d="M3.833 14.388V15.5c0 .919 2.24 1.666 5 1.666s5-.747 5-1.666v-1.112c-1.075.758-3.041 1.112-5 1.112-1.958 0-3.924-.354-5-1.112Zm8.334-7.222c2.76 0 5-.747 5-1.666 0-.92-2.24-1.667-5-1.667s-5 .747-5 1.667c0 .919 2.24 1.666 5 1.666Zm-8.333 4.49V13c0 .919 2.24 1.666 5 1.666s5-.747 5-1.666v-1.344c-1.076.885-3.045 1.344-5 1.344-1.956 0-3.925-.459-5-1.344Zm10.833.286c1.492-.289 2.5-.825 2.5-1.442V9.388c-.604.427-1.492.718-2.5.898v1.656ZM8.834 8c-2.76 0-5 .932-5 2.083 0 1.151 2.24 2.083 5 2.083s5-.932 5-2.083c0-1.151-2.24-2.083-5-2.083Zm5.71 1.466c1.563-.281 2.623-.834 2.623-1.466V6.888c-.925.653-2.513 1.005-4.185 1.088.768.373 1.333.873 1.562 1.49Z" fill="currentColor"/></svg>