<svg width="20" height="20" viewBox="0 0 20 20" fill="none" xmlns="http://www.w3.org/2000/svg">
<path d="M8.13367 3.6979C8.17783 3.23334 8.39361 2.80193 8.73884 2.48796C9.08408 2.17398 9.53397 2 10.0006 2C10.4673 2 10.9172 2.17398 11.2624 2.48796C11.6076 2.80193 11.8234 3.23334 11.8676 3.6979C11.8941 3.998 11.9926 4.28729 12.1546 4.54129C12.3166 4.79528 12.5375 5.0065 12.7984 5.15706C13.0594 5.30762 13.3527 5.3931 13.6537 5.40626C13.9547 5.41942 14.2544 5.35987 14.5275 5.23265C14.9516 5.04013 15.4321 5.01227 15.8756 5.1545C16.319 5.29673 16.6937 5.59887 16.9267 6.00212C17.1596 6.40536 17.2342 6.88087 17.1359 7.33608C17.0376 7.7913 16.7735 8.19365 16.3949 8.46485C16.1483 8.63784 15.9471 8.86766 15.8082 9.13487C15.6692 9.40208 15.5967 9.69883 15.5967 10C15.5967 10.3012 15.6692 10.5979 15.8082 10.8651C15.9471 11.1323 16.1483 11.3622 16.3949 11.5352C16.7735 11.8063 17.0376 12.2087 17.1359 12.6639C17.2342 13.1191 17.1596 13.5946 16.9267 13.9979C16.6937 14.4011 16.319 14.7033 15.8756 14.8455C15.4321 14.9877 14.9516 14.9599 14.5275 14.7673C14.2544 14.6401 13.9547 14.5806 13.6537 14.5937C13.3527 14.6069 13.0594 14.6924 12.7984 14.8429C12.5375 14.9935 12.3166 15.2047 12.1546 15.4587C11.9926 15.7127 11.8941 16.002 11.8676 16.3021C11.8234 16.7667 11.6076 17.1981 11.2624 17.512C10.9172 17.826 10.4673 18 10.0006 18C9.53397 18 9.08408 17.826 8.73884 17.512C8.39361 17.1981 8.17783 16.7667 8.13367 16.3021C8.10718 16.0019 8.00873 15.7125 7.84665 15.4584C7.68458 15.2043 7.46365 14.993 7.20259 14.8425C6.94153 14.6919 6.64803 14.6064 6.34694 14.5934C6.04584 14.5803 5.74604 14.64 5.4729 14.7673C5.04886 14.9599 4.56834 14.9877 4.12489 14.8455C3.68143 14.7033 3.30676 14.4011 3.07379 13.9979C2.84082 13.5946 2.76622 13.1191 2.86452 12.6639C2.96281 12.2087 3.22696 11.8063 3.60556 11.5352C3.8521 11.3622 4.05334 11.1323 4.19228 10.8651C4.33122 10.5979 4.40375 10.3012 4.40375 10C4.40375 9.69883 4.33122 9.40208 4.19228 9.13487C4.05334 8.86766 3.8521 8.63784 3.60556 8.46485C3.22749 8.19352 2.96381 7.79132 2.86575 7.33641C2.7677 6.8815 2.84228 6.40639 3.07499 6.00341C3.30771 5.60042 3.68194 5.29835 4.12496 5.15591C4.56798 5.01346 5.04813 5.04082 5.4721 5.23265C5.7452 5.35987 6.04493 5.41942 6.34591 5.40626C6.6469 5.3931 6.94028 5.30762 7.20123 5.15706C7.46218 5.0065 7.68302 4.79528 7.84505 4.54129C8.00708 4.28729 8.10553 3.998 8.13207 3.6979" stroke="currentColor" stroke-width="1.3" stroke-linecap="round" stroke-linejoin="round"/>
<path d="M10 12.4043C11.3279 12.4043 12.4043 11.3279 12.4043 10C12.4043 8.67215 11.3279 7.5957 10 7.5957C8.67215 7.5957 7.5957 8.67215 7.5957 10C7.5957 11.3279 8.67215 12.4043 10 12.4043Z" stroke="currentColor" stroke-width="1.3" stroke-linecap="round" stroke-linejoin="round"/>
</svg>
