<svg xmlns="http://www.w3.org/2000/svg" width="20" height="20" fill="none" viewBox="0 0 20 20"><path stroke="currentColor" stroke-linecap="round" stroke-linejoin="round" stroke-width="1.3" d="M8.134 3.698a1.875 1.875 0 0 1 3.734 0 1.875 1.875 0 0 0 2.66 1.535 1.876 1.876 0 0 1 1.867 3.232 1.874 1.874 0 0 0 0 3.07 1.875 1.875 0 0 1-1.867 3.232 1.876 1.876 0 0 0-2.66 1.535 1.875 1.875 0 0 1-3.734 0 1.875 1.875 0 0 0-2.661-1.535 1.875 1.875 0 0 1-1.867-3.232 1.876 1.876 0 0 0 0-3.07 1.875 1.875 0 0 1 1.866-3.232 1.875 1.875 0 0 0 2.66-1.535"/><path stroke="currentColor" stroke-linecap="round" stroke-linejoin="round" stroke-width="1.3" d="M10 12.404a2.404 2.404 0 1 0 0-4.808 2.404 2.404 0 0 0 0 4.808"/></svg>