<svg xmlns="http://www.w3.org/2000/svg" aria-hidden="true" viewBox="0 0 42 38"><path fill="none" stroke="currentColor" stroke-linecap="round" stroke-linejoin="round" d="M31.237 14.167c.802-.902 2.185-2.265 2.112-2.82.056-.54-.236-1.048-.82-2.062l-.826-1.432c-.623-1.082-.936-1.624-1.465-1.838-.532-.217-1.132-.046-2.331.294l-2.039.573a3.33 3.33 0 0 1-2.27-.282l-.563-.324a3.34 3.34 0 0 1-1.317-1.617l-.558-1.666c-.368-1.103-.552-1.654-.986-1.972-.438-.314-1.02-.314-2.179-.314h-1.861c-1.161 0-1.741 0-2.177.316-.438.316-.62.867-.988 1.97l-.558 1.666a3.34 3.34 0 0 1-1.316 1.617l-.563.324a3.34 3.34 0 0 1-2.271.284L6.223 6.31c-1.2-.34-1.8-.51-2.331-.295-.53.217-.842.757-1.466 1.84l-.825 1.431c-.585 1.014-.877 1.52-.819 2.062.055.54.446.974 1.23 1.845l1.72 1.926c.424.533.723 1.462.723 2.297s-.301 1.765-.72 2.298L2.01 21.639c-.783.87-1.174 1.305-1.231 1.845s.236 1.047.82 2.062l.826 1.432c.623 1.082.935 1.624 1.465 1.838.531.217 1.131.046 2.33-.294l2.04-.574a3.34 3.34 0 0 1 2.272.283l.561.324c.6.384 1.061.952 1.317 1.617l.558 1.668c.367 1.103.568 1.676.904 1.916.1.072 1.28.03 2.262 0"/><path fill="none" stroke="currentColor" stroke-linecap="round" d="M10.797 16.998a6.266 6.266 0 1 1 1.975 4.566"/><path fill="none" stroke="currentColor" stroke-linecap="round" stroke-width=".8" d="M21.772 17.207a4.5 4.5 0 0 0-4.5-4.5"/><path fill="none" stroke="currentColor" stroke-linecap="round" d="M11.01 18.62a6.2 6.2 0 0 0 .6 1.466"/><path fill="none" stroke="currentColor" stroke-width="1.5" d="M36.872 35.29a3.36 3.36 0 0 0 1.733-.44c.483-.3.885-.71 1.172-1.194.282-.49.436-1.042.45-1.604a3 3 0 0 0-.45-1.702l-1.172-1.993"/><path fill="#ffb505" d="M40.226 32.051a3 3 0 0 0-.45-1.701l-7.858-13.363a3.1 3.1 0 0 0-1.275-1.247 3.5 3.5 0 0 0-3.287 0c-.53.289-.964.722-1.249 1.247L18.222 30.35a3.27 3.27 0 0 0 0 3.305c.298.487.71.897 1.203 1.195.524.3 1.122.452 1.73.44H36.87a3.36 3.36 0 0 0 1.734-.44c.482-.3.884-.71 1.172-1.195.281-.49.435-1.041.449-1.604"/><path fill="currentColor" d="m28.596 28.842-.192-8.272h1.44l-.192 8.272zm.528 1.28q.288 0 .48.048.208.033.32.208.112.177.112.624 0 .448-.112.64a.44.44 0 0 1-.32.208 2 2 0 0 1-.48.048q-.272 0-.48-.048a.44.44 0 0 1-.32-.208q-.112-.192-.112-.64 0-.447.112-.624a.44.44 0 0 1 .32-.208q.208-.048.48-.048"/></svg>