<svg xmlns="http://www.w3.org/2000/svg" aria-hidden="true" viewBox="0 0 24 24"><path fill="currentColor" fill-rule="evenodd" d="M13.583 4.743c-.404-1.657-2.763-1.657-3.166 0a1.628 1.628 0 0 1-2.43 1.007c-1.457-.888-3.125.78-2.237 2.238.574.941.065 2.17-1.006 2.43-1.659.403-1.659 2.763 0 3.164a1.628 1.628 0 0 1 1.006 2.43c-.888 1.458.78 3.126 2.238 2.238a1.626 1.626 0 0 1 2.43 1.006c.402 1.659 2.762 1.659 3.164 0a1.63 1.63 0 0 1 2.43-1.006c1.458.888 3.126-.78 2.238-2.238a1.63 1.63 0 0 1 1.006-2.43c1.658-.402 1.658-2.762 0-3.164a1.628 1.628 0 0 1-1.006-2.43c.888-1.458-.78-3.126-2.238-2.238a1.627 1.627 0 0 1-2.43-1.006zM12 15.188a3.187 3.187 0 1 0 0-6.375 3.187 3.187 0 0 0 0 6.375" clip-rule="evenodd"/></svg>