<svg xmlns="http://www.w3.org/2000/svg" aria-hidden="true" viewBox="0 0 16 12"><path fill="none" stroke="currentColor" stroke-linecap="round" stroke-linejoin="round" d="M10.25 9.75a1.5 1.5 0 1 1 3 0M8.75 9V1.5A.75.75 0 0 0 8 .75H2a.75.75 0 0 0-.75.75V9a.75.75 0 0 0 .75.75h.75zm0 0a.75.75 0 0 1-.75.75H5.75zm0 0V3a.75.75 0 0 1 .75-.75h1.94c.198 0 .39.08.53.22l2.56 2.56c.14.14.22.332.22.53V9a.75.75 0 0 1-.75.75h-.75zm0 0a.75.75 0 0 0 .75.75h.75zm-6 .75a1.5 1.5 0 0 0 3 0zm0 0a1.5 1.5 0 0 1 3 0zm7.5 0a1.5 1.5 0 1 0 3 0z"/></svg>