<svg width="20" height="20" viewBox="0 0 20 20" fill="none" xmlns="http://www.w3.org/2000/svg">
<path d="M14.8005 6.80019C16.126 6.80019 17.2006 5.72563 17.2006 4.40009C17.2006 3.07456 16.126 2 14.8005 2C13.4749 2 12.4004 3.07456 12.4004 4.40009C12.4004 5.72563 13.4749 6.80019 14.8005 6.80019Z" stroke="currentColor" stroke-width="1.5" stroke-linecap="round" stroke-linejoin="round"/>
<path d="M5.1999 12.3998C6.52543 12.3998 7.59999 11.3252 7.59999 9.9997C7.59999 8.67417 6.52543 7.59961 5.1999 7.59961C3.87436 7.59961 2.7998 8.67417 2.7998 9.9997C2.7998 11.3252 3.87436 12.3998 5.1999 12.3998Z" stroke="currentColor" stroke-width="1.5" stroke-linecap="round" stroke-linejoin="round"/>
<path d="M14.8005 18.0004C16.126 18.0004 17.2006 16.9258 17.2006 15.6003C17.2006 14.2748 16.126 13.2002 14.8005 13.2002C13.4749 13.2002 12.4004 14.2748 12.4004 15.6003C12.4004 16.9258 13.4749 18.0004 14.8005 18.0004Z" stroke="currentColor" stroke-width="1.5" stroke-linecap="round" stroke-linejoin="round"/>
<path d="M7.27148 11.208L12.7357 14.3921" stroke="currentColor" stroke-width="1.5" stroke-linecap="round" stroke-linejoin="round"/>
<path d="M12.7277 5.60742L7.27148 8.79155" stroke="currentColor" stroke-width="1.5" stroke-linecap="round" stroke-linejoin="round"/>
</svg>
