<svg xmlns="http://www.w3.org/2000/svg" viewBox="0 0 48 48" role="presentation" aria-hidden="true"><path fill-rule="evenodd" clip-rule="evenodd" d="M27.858 8.543a1.5 1.5 0 0 1 1.099 1.815l-7 28.5a1.5 1.5 0 0 1-2.914-.716l7-28.5a1.5 1.5 0 0 1 1.815-1.099ZM8 13a1.5 1.5 0 0 1 1.5-1.5h5a1.5 1.5 0 0 1 0 3H11v19h3.5a1.5 1.5 0 0 1 0 3h-5A1.5 1.5 0 0 1 8 35V13Zm24 0a1.5 1.5 0 0 1 1.5-1.5h5A1.5 1.5 0 0 1 40 13v22a1.5 1.5 0 0 1-1.5 1.5h-5a1.5 1.5 0 0 1 0-3H37v-19h-3.5A1.5 1.5 0 0 1 32 13Z" fill="currentColor"/></svg>