<svg xmlns="http://www.w3.org/2000/svg" width="20" height="20" fill="none" viewBox="0 0 20 20"><path stroke="currentColor" stroke-width="1.3" d="M2.5 10c0-3.535 0-5.303 1.098-6.402C4.698 2.5 6.465 2.5 10 2.5s5.303 0 6.401 1.098C17.5 4.698 17.5 6.465 17.5 10s0 5.303-1.099 6.401C15.304 17.5 13.536 17.5 10 17.5s-5.303 0-6.402-1.099C2.5 15.304 2.5 13.536 2.5 10Z"/><path stroke="currentColor" stroke-width="1.3" d="M14.214 7.674a1.239 1.239 0 1 0 0-2.477 1.239 1.239 0 0 0 0 2.477Z"/><path stroke="currentColor" stroke-linecap="round" stroke-linejoin="round" stroke-width="1.3" d="M3.674 16.224c1.302-3.329 2.43-10.197 5.43-9.77 3 .428-2.39 9.336-.22 9.336 1.52 0 2.605-4.56 3.69-4.56 1.086 0-.433 3.909.435 3.909 1.085 0 1.737-1.737 1.737-1.737"/></svg>