<svg xmlns="http://www.w3.org/2000/svg" viewBox="0 0 20 20" role="presentation" aria-hidden="true"><path fill-rule="evenodd" clip-rule="evenodd" d="M5.29289 2.29289C5.47386 2.11193 5.72386 2 6 2C6.27614 2 6.52614 2.11193 6.70711 2.29289L9.70711 5.29289C10.0976 5.68342 10.0976 6.31658 9.70711 6.70711C9.31658 7.09763 8.68342 7.09763 8.29289 6.70711L7 5.41421V13C7 13.5523 6.55228 14 6 14C5.44772 14 5 13.5523 5 13V5.41421L3.70711 6.70711C3.31658 7.09763 2.68342 7.09763 2.29289 6.70711C1.90237 6.31658 1.90237 5.68342 2.29289 5.29289L5.29289 2.29289ZM13 7C13 6.448 13.448 6 14 6C14.553 6 15 6.448 15 7V14.585L16.293 13.293C16.683 12.902 17.317 12.902 17.707 13.293C17.903 13.488 18 13.744 18 14.001C18 14.256 17.903 14.512 17.707 14.707L14.707 17.707C14.527 17.888 14.277 18 14 18C13.724 18 13.474 17.888 13.293 17.707L10.293 14.707C10.098 14.512 10 14.256 10 14.001C10 13.744 10.098 13.488 10.293 13.293C10.684 12.902 11.316 12.902 11.707 13.293L13 14.585V7Z" fill="currentColor"/></svg>