<svg xmlns="http://www.w3.org/2000/svg" viewBox="0 0 48 48" role="presentation" aria-hidden="true"><path d="M38.621 14.403a.59.59 0 0 1 .598.597v24.011a2.88 2.88 0 0 1-.879 2.11 2.93 2.93 0 0 1-2.16.878H11.024a2.93 2.93 0 0 1-2.16-.878A2.88 2.88 0 0 1 8 39.01V8.988a2.88 2.88 0 0 1 .879-2.11A2.93 2.93 0 0 1 11.024 6H30.22c.073 0 .144.017.209.05l.216.123 5.976 6.012a.6.6 0 1 1-.85.85l-5.76-5.84H11.024a1.764 1.764 0 0 0-1.303.526 1.728 1.728 0 0 0-.525 1.267v30.023a1.728 1.728 0 0 0 .525 1.267 1.764 1.764 0 0 0 1.303.526h25.2a1.765 1.765 0 0 0 1.296-.526 1.73 1.73 0 0 0 .525-1.267V15.598h-5.436a2.879 2.879 0 0 1-2.11-.879 2.881 2.881 0 0 1-.9-2.11V9.6a.598.598 0 0 1 1.196 0v3.024a1.793 1.793 0 0 0 1.793 1.793l6.033-.014Zm-6.437 21.412a.591.591 0 0 1-.172-.425v-2.988H26V34.8h4.219a.598.598 0 1 1 0 1.195h-15.61a.59.59 0 0 1-.597-.598V23.402a.59.59 0 0 1 .598-.597h18a.59.59 0 0 1 .597.597V35.39a.598.598 0 0 1-1.023.425ZM17.598 24H15.2v3.6h2.39l.008-3.6Zm0 4.817H15.2V31.2h2.39l.008-2.383Zm0 3.6H15.2V34.8h2.39l.008-2.384ZM24.805 24H18.8v3.6h6.012l-.007-3.6Zm0 4.817H18.8V31.2h6.012l-.007-2.383Zm0 3.6H18.8V34.8h6.012l-.007-2.384ZM26 24v3.6h6.012V24H26Zm0 7.2h6.012v-2.383H26V31.2Z" fill="currentColor"/></svg>