<svg width="20" height="20" viewBox="0 0 20 20" fill="none" xmlns="http://www.w3.org/2000/svg">
<path d="M9.99999 1.34985C10.6904 1.34985 11.1745 1.78493 11.5586 2.28637C11.9423 2.78746 12.3495 3.52066 12.8457 4.4104L13.1074 4.88012C13.4237 5.44761 13.4995 5.55653 13.5898 5.62524C13.6539 5.67389 13.733 5.7078 14.0283 5.78051L14.4033 5.8684L14.9121 5.98364C15.874 6.20142 16.6712 6.38051 17.25 6.60864C17.8041 6.82709 18.3046 7.14631 18.5332 7.72582L18.5752 7.84497C18.7765 8.49341 18.5478 9.08814 18.206 9.6311C17.9529 10.0333 17.585 10.4892 17.1396 11.0159L16.6699 11.5666L16.3223 11.9709C15.9058 12.4582 15.8287 12.5688 15.792 12.6868C15.7544 12.8085 15.7556 12.9515 15.8184 13.5989L15.8721 14.1399C15.9712 15.1653 16.0538 16.0064 16.0254 16.6448C15.9969 17.2843 15.8511 17.9139 15.3086 18.3254C14.7557 18.7448 14.1146 18.695 13.5098 18.5217C13.0622 18.3935 12.5313 18.1669 11.9141 17.887L10.791 17.3723L10.79 17.3713C10.2136 17.1052 10.1016 17.0696 9.99999 17.0696C9.89835 17.0696 9.78636 17.1052 9.20995 17.3713L9.20898 17.3723L8.73241 17.5911C7.83195 18.0055 7.08676 18.3507 6.49023 18.5217C5.88583 18.6949 5.24503 18.7454 4.69237 18.3264C4.14975 17.9147 4.00325 17.2856 3.9746 16.6457C3.94605 16.0071 4.02876 15.1665 4.12792 14.1409L4.18066 13.5998L4.21679 13.2004C4.24202 12.8807 4.23622 12.7786 4.208 12.6887L4.20702 12.6858C4.17103 12.569 4.09371 12.4588 3.67773 11.9729L3.33007 11.5666C2.67321 10.7989 2.13152 10.1684 1.79394 9.63207C1.45197 9.0888 1.22353 8.49471 1.4248 7.84594C1.62848 7.18954 2.1588 6.84069 2.74999 6.60766C3.32914 6.3794 4.12687 6.20106 5.08886 5.98364L5.59765 5.8684L5.97167 5.78149C6.26679 5.70873 6.34599 5.67362 6.41112 5.62426C6.50129 5.55592 6.57565 5.44882 6.89257 4.88012L7.15429 4.4104L7.51073 3.77368C7.85247 3.16861 8.15351 2.66227 8.4414 2.28637C8.82548 1.78493 9.30963 1.34985 9.99999 1.34985Z" fill="currentColor"/>
</svg>
