<svg width="20" height="20" viewBox="0 0 20 20" fill="none" xmlns="http://www.w3.org/2000/svg"><path d="M10 1.35c.69 0 1.175.435 1.559.936.383.501.79 1.235 1.287 2.124l.261.47c.317.568.393.677.483.745.064.049.143.083.438.156l.375.087.51.116c.961.217 1.758.397 2.337.625.554.218 1.055.537 1.283 1.117l.042.119c.201.648-.027 1.243-.369 1.786-.253.402-.621.858-1.066 1.385l-.47.55-.348.405c-.416.487-.493.598-.53.716-.038.122-.036.264.026.912l.054.54c.1 1.026.182 1.867.153 2.506-.028.64-.174 1.269-.716 1.68-.553.42-1.194.37-1.8.197-.447-.128-.978-.355-1.595-.635l-1.123-.515h-.001c-.576-.267-.688-.302-.79-.302-.102 0-.214.035-.79.301l-.001.001-.477.22c-.9.414-1.645.759-2.242.93-.604.173-1.245.223-1.798-.196-.542-.411-.689-1.04-.717-1.68-.029-.639.054-1.48.153-2.505l.053-.541.036-.4c.025-.32.02-.421-.009-.511l-.001-.003c-.036-.117-.113-.227-.53-.713l-.347-.406c-.657-.768-1.198-1.399-1.536-1.935-.342-.543-.57-1.137-.37-1.786.204-.656.735-1.005 1.326-1.238.58-.229 1.377-.407 2.339-.624l.509-.116.374-.087c.295-.072.374-.107.44-.157.09-.068.164-.175.48-.744l.262-.47.357-.636c.341-.605.643-1.112.93-1.488.384-.501.869-.936 1.559-.936Z" fill="currentColor"/></svg>