<svg xmlns="http://www.w3.org/2000/svg" width="20" height="20" fill="none" viewBox="0 0 20 20"><path stroke="currentColor" stroke-linecap="round" stroke-linejoin="round" stroke-width="1.1" d="M17.273 10H18m-8-7.273V2m0 16v-.727m5.818-1.455-.727-.727m.727-10.91-.727.728M4.18 15.82l.728-.728M4.182 4.18l.727.728M2 10h.727m5.527-2.026 1.33-2.817a.456.456 0 0 1 .833 0l1.329 2.817 2.97.454c.381.058.533.55.258.83l-2.15 2.191.507 3.095c.066.398-.333.7-.674.513L10 13.595l-2.657 1.462c-.34.188-.74-.115-.674-.513l.507-3.094-2.15-2.192c-.275-.28-.123-.772.258-.83z"/></svg>