<svg width="20" height="20" viewBox="0 0 20 20" fill="none" xmlns="http://www.w3.org/2000/svg"><path d="M7.722 4.727C8.736 2.909 9.242 2 10 2s1.264.909 2.277 2.727l.263.47c.288.517.432.775.656.946.224.17.504.233 1.064.36l.509.115c1.968.445 2.95.668 3.185 1.42.234.752-.437 1.537-1.778 3.106l-.347.406c-.381.445-.572.668-.658.944-.085.276-.057.573 0 1.168l.054.541c.202 2.094.304 3.14-.31 3.605-.612.465-1.533.04-3.375-.807l-.478-.22c-.523-.241-.784-.361-1.062-.361s-.54.12-1.062.361l-.477.22c-1.843.848-2.764 1.272-3.376.808-.614-.466-.512-1.512-.31-3.606l.053-.54c.058-.596.087-.893 0-1.169-.085-.276-.276-.499-.657-.944l-.347-.406C2.483 9.576 1.812 8.791 2.046 8.039c.233-.753 1.218-.976 3.186-1.421l.509-.115c.56-.127.838-.19 1.063-.36.225-.17.368-.43.656-.946l.262-.47Z" stroke="currentColor" stroke-width="1.3"/><path d="m7.724 4.724-.002.003-.262.47-.005.01c-.285.51-.428.766-.65.936-.226.17-.505.233-1.064.36l-.509.115c-1.968.445-2.953.668-3.186 1.42-.234.753.437 1.538 1.778 3.106l.347.406.001.001c.38.444.571.668.656.943.087.276.058.573 0 1.168l-.053.541v.004c-.202 2.091-.303 3.136.31 3.602.612.464 1.533.04 3.376-.808l3.816-12.274-.001-.003C11.263 2.908 10.757 2 10 2c-.757 0-1.263.908-2.276 2.724Z" fill="currentColor"/></svg>
