<svg width="20" height="20" viewBox="0 0 20 20" fill="none" xmlns="http://www.w3.org/2000/svg"><path d="M7.722 4.726C8.736 2.91 9.242 2 10 2s1.264.909 2.277 2.726l.263.47c.288.518.432.776.656.946.224.17.504.234 1.064.36l.509.115c1.968.446 2.95.668 3.185 1.421.234.752-.437 1.537-1.778 3.106l-.347.405c-.381.446-.572.67-.658.944-.085.276-.057.574 0 1.168l.054.542c.202 2.094.304 3.14-.31 3.605-.612.464-1.533.04-3.375-.808l-.478-.219c-.523-.241-.784-.361-1.062-.361s-.54.12-1.062.361l-.477.22c-1.843.847-2.764 1.271-3.376.807-.614-.465-.512-1.511-.31-3.605l.053-.54c.058-.596.087-.894 0-1.169-.085-.276-.276-.499-.657-.944l-.347-.406C2.483 9.576 1.812 8.79 2.046 8.038c.233-.753 1.218-.976 3.186-1.42l.509-.116c.56-.126.838-.19 1.063-.36.225-.17.368-.428.656-.945l.262-.47Z" stroke="currentColor" stroke-width="1.3"/></svg>