<svg xmlns="http://www.w3.org/2000/svg" aria-hidden="true" viewBox="0 0 32 26"><path fill="#8c8f96" d="m17.299 19.869 2.595 2.005c-1.25.325-2.55.525-3.895.525-6.145 0-11.515-3.58-14.225-8.87-.23-.46-.23-1 0-1.46.51-1 1.145-1.915 1.835-2.78l5.245 4.055c.28 3.72 3.35 6.655 7.145 6.655q.654-.009 1.3-.13m14.53 4.16-.98 1.26a.803.803 0 0 1-1.125.14L.31 2.694a.803.803 0 0 1-.14-1.125l.98-1.26a.803.803 0 0 1 1.125-.14l6.36 4.915A15.4 15.4 0 0 1 16 3.199c6.145 0 11.515 3.58 14.225 8.87.23.46.23 1 0 1.46-1 1.955-2.385 3.69-4.06 5.105l5.525 4.27c.35.27.415.775.14 1.125ZM23.2 12.79A7.19 7.19 0 0 0 16 5.6c-1.665 0-3.28.585-4.56 1.655l3.68 2.845q.068-.246.075-.5c0-.51-.165-1-.465-1.41a4.74 4.74 0 0 1 5.805 6.095l1.965 1.52c.43-.915.695-1.925.695-3.005.005-.005.005-.005.005-.01"/></svg>