<svg xmlns="http://www.w3.org/2000/svg" width="20" height="20" fill="none" viewBox="0 0 20 20"><path stroke="currentColor" stroke-linecap="round" stroke-linejoin="round" stroke-width="1.4" d="M11.662 7.917a1.44 1.44 0 0 0-1.354-.957h-1.11a1.28 1.28 0 0 0-.275 2.533l1.692.37a1.436 1.436 0 0 1-.308 2.838h-.956a1.435 1.435 0 0 1-1.353-.956M9.83 6.96V5.524m0 8.613v-1.435m-5.984 5.294V14.92H6.92"/><path stroke="currentColor" stroke-linecap="round" stroke-linejoin="round" stroke-width="1.4" d="M17.86 8.529A7.997 7.997 0 0 1 3.846 15.11m-1.705-3.64a7.997 7.997 0 0 1 14.013-6.58"/><path stroke="currentColor" stroke-linecap="round" stroke-linejoin="round" stroke-width="1.4" d="M16.155 2.005V5.08h-3.076"/></svg>