<svg width="20" height="20" viewBox="0 0 20 20" fill="none" xmlns="http://www.w3.org/2000/svg">
<path d="M8.39956 7.73463C8.03766 7.60733 7.65052 7.56863 7.27059 7.62178C6.89066 7.67494 6.529 7.8184 6.21594 8.04013C5.90288 8.26187 5.64754 8.55543 5.47131 8.89619C5.29509 9.23696 5.20313 9.615 5.20312 9.99863C5.20313 10.3823 5.29509 10.7603 5.47131 11.1011C5.64754 11.4418 5.90288 11.7354 6.21594 11.9571C6.529 12.1789 6.89066 12.3223 7.27059 12.3755C7.65052 12.4286 8.03766 12.3899 8.39956 12.2626" stroke="currentColor" stroke-linecap="round" stroke-linejoin="round"/>
<path d="M13.9992 7.73463C13.6373 7.60733 13.2501 7.56863 12.8702 7.62178C12.4903 7.67494 12.1286 7.8184 11.8155 8.04013C11.5025 8.26187 11.2471 8.55543 11.0709 8.89619C10.8947 9.23696 10.8027 9.615 10.8027 9.99863C10.8027 10.3823 10.8947 10.7603 11.0709 11.1011C11.2471 11.4418 11.5025 11.7354 11.8155 11.9571C12.1286 12.1789 12.4903 12.3223 12.8702 12.3755C13.2501 12.4286 13.6373 12.3899 13.9992 12.2626" stroke="currentColor" stroke-linecap="round" stroke-linejoin="round"/>
<path d="M16.4 4.39941H3.6C2.71634 4.39941 2 5.11576 2 5.99941V13.9994C2 14.8831 2.71634 15.5994 3.6 15.5994H16.4C17.2837 15.5994 18 14.8831 18 13.9994V5.99941C18 5.11576 17.2837 4.39941 16.4 4.39941Z" stroke="currentColor" stroke-linecap="round" stroke-linejoin="round"/>
</svg>
