<svg xmlns="http://www.w3.org/2000/svg" aria-hidden="true" viewBox="0 0 48 48"><path fill="currentColor" fill-rule="evenodd" d="m37.589 13.564-.845-.844-5.899-5.9h-.001l-.478-.48a1.16 1.16 0 0 0-.824-.34H11.53A1.53 1.53 0 0 0 10 7.529V40.47A1.53 1.53 0 0 0 11.529 42h24.873a1.53 1.53 0 0 0 1.529-1.529V14.39a1.17 1.17 0 0 0-.342-.825Zm-1.87-.116h-5.236V8.213zm.97 27.023a.287.287 0 0 1-.287.288H11.53a.29.29 0 0 1-.288-.288v-9.023H36.69zM11.242 30.207V7.529c0-.159.13-.288.288-.288h17.748a1 1 0 0 0-.036.243v7.206h7.205a1 1 0 0 0 .244-.036v15.553H11.24Zm6.645 8.538q-.17 0-.365-.034a4 4 0 0 1-.39-.09 7 7 0 0 1-.378-.118 2 2 0 0 1-.301-.132l-.178.73q.144.127.344.217t.42.14q.221.052.437.072.216.021.42.021.476 0 .849-.144.373-.143.628-.386a1.7 1.7 0 0 0 .394-.56 1.6 1.6 0 0 0 .14-.657q0-.502-.194-.82a1.8 1.8 0 0 0-.488-.53 3.4 3.4 0 0 0-.633-.36 8 8 0 0 1-.628-.305 1.9 1.9 0 0 1-.483-.365.77.77 0 0 1-.195-.548.7.7 0 0 1 .068-.284.9.9 0 0 1 .186-.267q.12-.12.272-.2a.9.9 0 0 1 .323-.097q.306-.026.5-.009.196.017.315.06.12.042.182.085.064.042.115.067a6 6 0 0 0 .153-.276l.082-.16.045-.086q.069-.13.119-.242a1.7 1.7 0 0 0-.645-.233 4.5 4.5 0 0 0-.789-.072q-.382 0-.726.119t-.602.343a1.64 1.64 0 0 0-.564 1.286q0 .458.194.763.195.306.493.53.297.225.636.39.34.166.632.332a2.1 2.1 0 0 1 .488.369q.195.204.195.492 0 .475-.276.717-.278.242-.795.242M26 33.263l-2.037 6.288h-1.324l-1.943-6.288h1.163l1.45 5.397 1.537-5.397zm1.913 5.49q.352.4.823.603.471.204 1.031.204.28 0 .564-.042a2.7 2.7 0 0 0 1.061-.403 1.9 1.9 0 0 0 .437-.403v-2.418h-2.07v.696h1.06v1.544a.42.42 0 0 1-.212.144q-.144.05-.301.08a3.5 3.5 0 0 1-.564.055 1.24 1.24 0 0 1-.582-.143 1.44 1.44 0 0 1-.492-.441 2.3 2.3 0 0 1-.34-.764 4.6 4.6 0 0 1-.131-1.103q.007-.653.136-1.103a2.1 2.1 0 0 1 .352-.734q.225-.284.509-.403a1.5 1.5 0 0 1 .598-.118q.28 0 .543.11.262.11.467.356l.704-.628a2.3 2.3 0 0 0-.789-.509 2.6 2.6 0 0 0-.95-.17q-.552 0-1.026.209-.476.208-.828.607a2.85 2.85 0 0 0-.552.997q-.2.597-.199 1.387c.001.79.066.99.2 1.391q.198.601.551 1Zm-.533-20.96h3.724v-1.241h3.725v3.724h-3.725v-1.241h-2.202c2.834 1.636 4.685 4.71 4.685 8.069a.62.62 0 1 1-1.241 0c0-3.256-2.004-6.206-4.966-7.446v1.86h-6.207v-1.86c-2.96 1.24-4.965 4.19-4.965 7.445a.62.62 0 1 1-1.242 0c0-3.359 1.851-6.432 4.686-8.068h-2.203v1.24h-3.724v-3.723h3.724v1.241h3.724V15.31h6.207zm-12.414 1.242h1.242v-1.242h-1.242zm7.449 1.24h3.724v-3.723h-3.724v3.724Zm11.172-2.482h-1.241v1.242h1.241z" clip-rule="evenodd"/></svg>