<svg xmlns="http://www.w3.org/2000/svg" viewBox="0 0 48 48" role="presentation" aria-hidden="true"><path fill-rule="evenodd" clip-rule="evenodd" d="m37.589 13.564-.845-.844-5.899-5.9h-.001l-.478-.48c-.22-.219-.513-.34-.824-.34H11.53A1.53 1.53 0 0 0 10 7.529V40.47A1.53 1.53 0 0 0 11.529 42h24.873a1.53 1.53 0 0 0 1.529-1.529V14.39a1.17 1.17 0 0 0-.342-.825Zm-1.87-.116h-5.236V8.213l5.235 5.235Zm.97 27.023c0 .159-.128.288-.287.288H11.53a.288.288 0 0 1-.288-.288v-9.023H36.69v9.023ZM11.242 30.207V7.529c0-.159.13-.288.288-.288h17.748a.955.955 0 0 0-.036.243v7.206h7.205a.97.97 0 0 0 .244-.036v15.553H11.24Zm6.645 8.538c-.114 0-.235-.012-.365-.034a3.71 3.71 0 0 1-.39-.09 7.159 7.159 0 0 1-.378-.118 1.805 1.805 0 0 1-.301-.132l-.178.73c.096.085.21.157.344.217.133.06.272.106.42.14.148.034.293.059.437.072.144.014.284.021.42.021.317 0 .6-.047.849-.144.248-.096.458-.224.628-.386a1.73 1.73 0 0 0 .394-.56 1.61 1.61 0 0 0 .14-.657c0-.334-.064-.608-.194-.82a1.832 1.832 0 0 0-.488-.53 3.385 3.385 0 0 0-.633-.36 7.933 7.933 0 0 1-.628-.305 1.902 1.902 0 0 1-.483-.365c-.13-.14-.195-.322-.195-.548a.68.68 0 0 1 .068-.284.917.917 0 0 1 .186-.267c.08-.08.17-.146.272-.2a.864.864 0 0 1 .323-.097c.204-.017.37-.02.5-.009.131.011.235.031.315.06.08.028.14.056.182.085.043.028.081.05.115.067a5.899 5.899 0 0 0 .153-.276l.082-.16.045-.086c.046-.087.085-.168.119-.242a1.735 1.735 0 0 0-.645-.233 4.461 4.461 0 0 0-.789-.072c-.255 0-.497.04-.726.119-.229.079-.43.194-.602.343a1.636 1.636 0 0 0-.564 1.286c0 .305.064.56.194.763.13.204.295.38.493.53.198.15.41.28.636.39.226.111.437.221.632.332a2.1 2.1 0 0 1 .488.369c.13.136.195.3.195.492 0 .317-.092.556-.276.717-.186.161-.45.242-.795.242Zm8.113-5.482-2.037 6.288h-1.324l-1.943-6.288h1.163l1.45 5.397 1.537-5.397h1.154Zm1.913 5.49c.235.267.509.468.823.603.314.136.658.204 1.031.204.187 0 .375-.014.564-.042a2.675 2.675 0 0 0 1.061-.403 1.85 1.85 0 0 0 .437-.403v-2.418h-2.07v.696h1.06v1.544a.423.423 0 0 1-.212.144c-.096.034-.196.06-.301.08a3.507 3.507 0 0 1-.564.055c-.204 0-.398-.047-.582-.143a1.44 1.44 0 0 1-.492-.441 2.278 2.278 0 0 1-.34-.764 4.609 4.609 0 0 1-.131-1.103c.005-.436.05-.803.136-1.103a2.1 2.1 0 0 1 .352-.734c.15-.19.32-.323.509-.403.189-.08.389-.118.598-.118.187 0 .368.037.543.11.175.073.33.193.467.356l.704-.628a2.317 2.317 0 0 0-.789-.509 2.627 2.627 0 0 0-.95-.17c-.368 0-.71.07-1.026.209-.317.139-.593.34-.828.607a2.849 2.849 0 0 0-.552.997c-.133.398-.199.861-.199 1.387s.066.99.2 1.391c.132.402.316.733.551 1Zm-.533-20.96h3.724v-1.241h3.725v3.724h-3.725v-1.241h-2.202c2.834 1.636 4.685 4.71 4.685 8.069a.62.62 0 1 1-1.241 0c0-3.256-2.004-6.206-4.966-7.446v1.86h-6.207v-1.86c-2.96 1.24-4.965 4.19-4.965 7.445a.62.62 0 1 1-1.242 0c0-3.359 1.851-6.432 4.686-8.068h-2.203v1.24h-3.724v-3.723h3.724v1.241h3.724V15.31h6.207v2.483Zm-12.414 1.242h1.242v-1.242h-1.242v1.242Zm7.449 1.24h3.724v-3.723h-3.724v3.724Zm11.172-2.482h-1.241v1.242h1.241v-1.242Z" fill="currentColor"/></svg>