<svg width="20" height="20" viewBox="0 0 20 20" fill="none" xmlns="http://www.w3.org/2000/svg">
<path d="M2 10C2 6.2288 2 4.3432 3.1712 3.1712C4.344 2 6.2288 2 10 2C13.7712 2 15.6568 2 16.828 3.1712C18 4.344 18 6.2288 18 10C18 13.7712 18 15.6568 16.828 16.828C15.6576 18 13.7712 18 10 18C6.2288 18 4.3432 18 3.1712 16.828C2 15.6576 2 13.7712 2 10Z" stroke="currentColor" stroke-width="1.2"/>
<path d="M7.77779 6.44446V13.5556M12.2222 6.44446V13.5556M6.44446 7.77779H13.5556M6.44446 12.2222H13.5556" stroke="currentColor" stroke-width="1.3" stroke-linecap="round" stroke-linejoin="round"/>
</svg>
