<svg xmlns="http://www.w3.org/2000/svg" aria-hidden="true" viewBox="0 0 48 48"><path fill="currentColor" d="M38.62 14.403a.59.59 0 0 1 .598.597v24.011a2.88 2.88 0 0 1-.878 2.11 2.94 2.94 0 0 1-2.16.878H11.024a2.93 2.93 0 0 1-2.16-.878A2.88 2.88 0 0 1 8 39.01V8.988a2.88 2.88 0 0 1 .878-2.11A2.93 2.93 0 0 1 11.024 6h19.194q.111 0 .21.05l.215.123 5.976 6.012a.6.6 0 1 1-.85.85l-5.76-5.84H11.025a1.76 1.76 0 0 0-1.303.526 1.73 1.73 0 0 0-.526 1.267v30.023a1.73 1.73 0 0 0 .526 1.267 1.76 1.76 0 0 0 1.303.526h25.199a1.77 1.77 0 0 0 1.296-.526 1.73 1.73 0 0 0 .526-1.267V15.598H32.61a2.88 2.88 0 0 1-2.11-.879 2.88 2.88 0 0 1-.9-2.11V9.6a.598.598 0 0 1 1.195 0v3.024a1.793 1.793 0 0 0 1.793 1.793l6.033-.014ZM14.186 16.62a.597.597 0 0 1 .424-1.022h6.012a.598.598 0 0 1 0 1.195H14.61a.6.6 0 0 1-.424-.173m.424 4.99a.596.596 0 0 1-.228-1.15.6.6 0 0 1 .228-.046h10.8a.596.596 0 0 1 .229 1.15.6.6 0 0 1-.229.046zm-.424 3.412A.597.597 0 0 1 14.609 24h4.817a.597.597 0 1 1 0 1.195h-4.817a.6.6 0 0 1-.424-.173Zm0 3.6a.64.64 0 0 1-.173-.46.59.59 0 0 1 .597-.562h4.817a.593.593 0 0 1 .598.597.64.64 0 0 1-.173.461.6.6 0 0 1-.425.173H14.61a.6.6 0 0 1-.424-.187zm.424 3.758a.598.598 0 0 1 0-1.195h3.6a.598.598 0 0 1 0 1.195zm-.424 3.413a.597.597 0 0 1 .424-.993h7.2a.598.598 0 1 1 0 1.195h-7.2a.6.6 0 0 1-.424-.18zm12.837-3.6a.6.6 0 0 1-.425.173H20.62a.598.598 0 0 1 0-1.195h5.976a.598.598 0 0 1 .425 1.022Zm-5.63-7.2a.597.597 0 0 1 .424-.993h2.39a.598.598 0 1 1 0 1.195h-2.39a.6.6 0 0 1-.424-.173zm0 3.6a.64.64 0 0 1-.173-.46.593.593 0 0 1 .597-.598h9.598a.59.59 0 0 1 .597.598.64.64 0 0 1-.173.46.6.6 0 0 1-.424.173h-9.598a.6.6 0 0 1-.424-.122zm2.39 7.2a.597.597 0 0 1 .425-.993h6.011a.598.598 0 1 1 0 1.195h-6.011a.6.6 0 0 1-.425-.18zM30.218 24a.598.598 0 1 1 0 1.195h-3.6a.598.598 0 1 1 0-1.195zm2.815-3.413a.598.598 0 0 1-.424 1.023h-4.817a.596.596 0 0 1-.229-1.15.6.6 0 0 1 .23-.046h4.816a.6.6 0 0 1 .424.173m0 11.642a.6.6 0 0 1-.424.173h-3.6a.598.598 0 0 1 0-1.195h3.6a.598.598 0 0 1 .424 1.022"/></svg>