<svg width="20" height="20" viewBox="0 0 20 20" fill="none" xmlns="http://www.w3.org/2000/svg">
<path d="M6.06836 8.4V18M12.4684 5.104L11.6684 8.4H16.3324C16.5808 8.4 16.8257 8.45783 17.0479 8.56892C17.2701 8.68 17.4633 8.84129 17.6124 9.04C17.7614 9.23871 17.8621 9.4694 17.9066 9.71378C17.951 9.95817 17.9379 10.2095 17.8684 10.448L16.0044 16.848C15.9074 17.1803 15.7053 17.4723 15.4284 17.68C15.1514 17.8877 14.8146 18 14.4684 18H3.66836C3.24401 18 2.83705 17.8314 2.53699 17.5314C2.23693 17.2313 2.06836 16.8243 2.06836 16.4V10C2.06836 9.57565 2.23693 9.16869 2.53699 8.86863C2.83705 8.56857 3.24401 8.4 3.66836 8.4H5.87636C6.17403 8.39984 6.46575 8.31665 6.71872 8.15978C6.9717 8.0029 7.1759 7.77857 7.30836 7.512L10.0684 2C10.4456 2.00467 10.817 2.09454 11.1546 2.26288C11.4923 2.43122 11.7875 2.67369 12.0183 2.97216C12.2491 3.27064 12.4094 3.61741 12.4873 3.98656C12.5653 4.35571 12.5588 4.73771 12.4684 5.104Z" stroke="currentColor" stroke-width="1.5" stroke-linecap="round" stroke-linejoin="round"/>
</svg>
