<svg width="20" height="20" viewBox="0 0 20 20" fill="none" xmlns="http://www.w3.org/2000/svg">
<path d="M10 18C14.4182 18 18 14.4182 18 10C18 5.58172 14.4182 2 10 2C5.58172 2 2 5.58172 2 10C2 14.4182 5.58172 18 10 18Z" stroke="currentColor" stroke-width="1.3"/>
<path d="M10.0066 8.80539C9.34392 8.80539 8.80664 9.34267 8.80664 10.0054C8.80664 10.6681 9.34392 11.2054 10.0066 11.2054C10.6694 11.2054 11.2066 10.6681 11.2066 10.0054C11.2066 9.34267 10.6694 8.80539 10.0066 8.80539ZM10.0066 8.80539V5.99805M12.4122 12.4147L10.8533 10.8558" stroke="currentColor" stroke-width="1.3" stroke-linecap="round" stroke-linejoin="round"/>
</svg>
