<svg xmlns="http://www.w3.org/2000/svg" viewBox="0 0 24 24" role="presentation" aria-hidden="true"><path d="m20.275 11.17-2.793 2.833a.81.81 0 0 1-.586.243.81.81 0 0 1-.587-.243l-2.793-2.833a.844.844 0 0 1 0-1.153.844.844 0 0 1 1.154 0l1.558 1.578c-.203-2.934-2.61-5.26-5.545-5.26C7.608 6.334 5.12 8.883 5.12 12s2.489 5.666 5.564 5.666a5.398 5.398 0 0 0 3.137-.992c.364-.263.87-.162 1.133.203.263.364.162.87-.202 1.133a7.121 7.121 0 0 1-4.068 1.274C6.717 19.285 3.5 16.027 3.5 12c0-4.027 3.217-7.285 7.183-7.285 3.724 0 6.8 2.894 7.143 6.597l1.275-1.295a.806.806 0 0 1 1.154 0c.323.324.323.83.02 1.153Z" fill="currentColor"/></svg>