<svg xmlns="http://www.w3.org/2000/svg" viewBox="0 0 48 48" role="presentation" aria-hidden="true"><path fill-rule="evenodd" clip-rule="evenodd" d="m36.744 12.72.845.844c.284.284.342.636.342 1.112V40.759c0 .52-.522 1.025-1.14 1.184a.544.544 0 0 1-.094.027c-.097.02-.195.03-.295.03H11.53c-.1 0-.198-.01-.295-.03a.543.543 0 0 1-.06-.016l-.034-.01c-.618-.16-1.14-.666-1.14-1.185V7.817C10 6.568 10.792 6 11.529 6h18.013c.311 0 .604.121.824.34l.478.48h.001l5.9 5.9Zm-1.026.728-5.235-5.235v5.235h5.235ZM11.408 40.73c.039.015.078.03.12.03h24.874a.335.335 0 0 0 .12-.03h.003a.285.285 0 0 0 .165-.258v-9.023H11.24v9.023c0 .114.069.211.165.257l.002.001Zm-.167-32.913v22.39H36.69v-15.53l-.001-.022a.96.96 0 0 1-.243.036h-7.205V7.484c0-.084.016-.164.036-.243H11.53c-.267 0-.288.44-.288.575Zm6.024 26.143h-1.867v-.696h4.76v.696h-1.866v5.558h-1.027V33.96Zm7.502-.696L23.57 35.81h-.084l-1.104-2.546H21.22l1.689 3.216-1.588 3.038h1.18l1.07-2.359h.084l.993 2.36h1.18l-1.587-3.039 1.688-3.216h-1.162Zm4.082.696h-1.867v-.696h4.76v.696h-1.866v5.558h-1.027V33.96ZM14.345 14.69h3.724a.62.62 0 1 0 0-1.24h-3.724a.62.62 0 1 0 0 1.24Zm5.586 3.104h-5.586a.62.62 0 1 1 0-1.241h5.586a.62.62 0 1 1 0 1.241Zm2.483 0a.653.653 0 0 0 .44-.18.653.653 0 0 0 .18-.44.653.653 0 0 0-.18-.441c-.229-.23-.651-.23-.874 0a.62.62 0 0 0-.007.881c.118.112.28.18.441.18Zm7.448 0h-4.965a.62.62 0 1 1 0-1.241h4.965a.62.62 0 1 1 0 1.241Zm-15.958 8.249a.65.65 0 0 0-.18.44.65.65 0 0 0 .18.441c.117.112.28.18.44.18a.653.653 0 0 0 .442-.18.652.652 0 0 0 .18-.44.626.626 0 0 0-.18-.435.643.643 0 0 0-.882-.006Zm2.923-.18h4.966a.62.62 0 1 1 0 1.242h-4.966a.62.62 0 1 1 0-1.242Zm16.76-9.31h-1.242a.62.62 0 1 0 0 1.241h1.241a.62.62 0 1 0 0-1.241ZM28 20.897H14.345a.62.62 0 1 1 0-1.242H28a.62.62 0 1 1 0 1.242Zm5.587-1.242h-3.725a.62.62 0 1 0 0 1.242h3.725a.62.62 0 1 0 0-1.242ZM16.826 24h-2.482a.62.62 0 1 1 0-1.241h2.483a.62.62 0 1 1 0 1.24Zm8.69-1.241h-6.206a.62.62 0 1 0 0 1.24h6.207a.62.62 0 1 0 0-1.24Zm2.483 0h5.586a.62.62 0 1 1 0 1.24H28a.62.62 0 1 1 0-1.24Z" fill="currentColor"/></svg>