<svg xmlns="http://www.w3.org/2000/svg" aria-hidden="true" viewBox="0 0 24 24"><path fill="currentColor" d="M19.188 12.434a.31.31 0 0 0-.313.31c0 3.77-3.085 6.234-6.875 6.234-3.228 0-5.206-2.273-6.34-4.35h1.652c.173 0 .313-.14.313-.31a.31.31 0 0 0-.313-.311h-2.5a.31.31 0 0 0-.312.31v2.46c0 .172.14.31.312.31a.31.31 0 0 0 .313-.31v-1.833C6.79 17.99 9.157 19.6 12 19.6c4.136 0 7.5-2.744 7.5-6.856 0-.171-.14-.31-.312-.31m0-5.237a.31.31 0 0 0-.313.31v1.834C17.209 6.294 14.842 4.685 12 4.685c-4.136 0-7.5 3.345-7.5 7.457a.312.312 0 0 0 .625 0c0-3.769 3.084-6.836 6.875-6.836 3.228 0 5.206 2.273 6.34 4.35h-1.653a.31.31 0 0 0-.312.311c0 .172.14.31.312.31h2.5a.31.31 0 0 0 .313-.31v-2.46c0-.171-.14-.31-.312-.31"/><path fill="currentColor" fill-rule="evenodd" d="M4.274 12.142C4.274 7.904 7.741 4.46 12 4.46c2.708 0 4.984 1.416 6.65 4.054V7.507a.537.537 0 0 1 1.075 0v2.46a.537.537 0 0 1-.538.536h-2.5a.537.537 0 1 1 0-1.072h1.266c-1.142-1.947-3.017-3.9-5.953-3.9-3.668 0-6.65 2.967-6.65 6.611a.537.537 0 0 1-1.076 0M12 4.91c-4.013 0-7.276 3.246-7.276 7.233 0 .046.038.086.088.086s.087-.04.087-.086c0-3.895 3.187-7.061 7.1-7.061 3.353 0 5.39 2.365 6.538 4.467l.181.333h-2.03c-.05 0-.088.04-.088.086s.038.086.087.086h2.5c.05 0 .088-.04.088-.086v-2.46a.087.087 0 0 0-.088-.086c-.05 0-.087.04-.087.086v1.834l-.423.107C17.041 6.454 14.74 4.91 12 4.91m6.65 7.835a.537.537 0 0 1 1.075 0c0 4.262-3.492 7.08-7.725 7.08-2.709 0-4.984-1.415-6.65-4.053v1.006a.536.536 0 0 1-1.076 0v-2.46c0-.297.242-.536.538-.536h2.5a.537.537 0 1 1 0 1.072H6.046c1.142 1.948 3.017 3.9 5.954 3.9 3.696 0 6.65-2.392 6.65-6.009m.537-.086c-.05 0-.087.04-.087.086 0 3.921-3.215 6.46-7.1 6.46-3.353 0-5.39-2.366-6.537-4.468l-.182-.333h2.031c.05 0 .088-.04.088-.086a.087.087 0 0 0-.088-.085h-2.5c-.05 0-.088.04-.088.085v2.46c0 .046.038.086.088.086s.087-.04.087-.086v-1.833l.423-.108C6.959 17.83 9.259 19.376 12 19.376c4.038 0 7.275-2.668 7.275-6.63a.087.087 0 0 0-.088-.087" clip-rule="evenodd"/></svg>