<svg xmlns="http://www.w3.org/2000/svg" aria-hidden="true" viewBox="0 0 48 48"><path fill="currentColor" d="M37.456 18.66a9.8 9.8 0 0 1 3.724.81 9.7 9.7 0 0 1 3.034 2.087 9.5 9.5 0 0 1 2.023 3.025 9.6 9.6 0 0 1 0 7.503 9.9 9.9 0 0 1-2.07 3.07 9.35 9.35 0 0 1-3.125 2.106 9.1 9.1 0 0 1-3.678.763h-8.036a.975.975 0 0 1-.984-.983.98.98 0 0 1 .285-.7.92.92 0 0 1 .7-.284h7.99a7.705 7.705 0 0 0 7.676-7.724 7.66 7.66 0 0 0-7.677-7.677h-.404q-.206 0-.405.046a1.5 1.5 0 0 1-.405-.074.92.92 0 0 1-.607-.58 1.3 1.3 0 0 1-.064-.43v-.746a10.5 10.5 0 0 0-.855-4.21 10.97 10.97 0 0 0-5.792-5.793 10.1 10.1 0 0 0-4.22-.92 10.6 10.6 0 0 0-3.862.718 11.7 11.7 0 0 0-3.365 2.022 11.6 11.6 0 0 0-2.382 3.025 10.7 10.7 0 0 0-1.204 3.678.97.97 0 0 1-.679.822.9.9 0 0 1-.36.033 3 3 0 0 0-.47 0h-.376a9.1 9.1 0 0 0-6.27 2.52 9.2 9.2 0 0 0-1.931 2.877 9.2 9.2 0 0 0 0 6.914 9.1 9.1 0 0 0 1.93 2.87 8.5 8.5 0 0 0 2.832 1.884 8.6 8.6 0 0 0 3.503.726h7.586a.92.92 0 0 1 .69.285.98.98 0 0 1 .218 1.079 1 1 0 0 1-.219.319.92.92 0 0 1-.69.285h-7.603a10.6 10.6 0 0 1-4.266-.846 11.7 11.7 0 0 1-3.457-2.363 10.4 10.4 0 0 1-2.336-3.475 10.84 10.84 0 0 1 0-8.44 10.3 10.3 0 0 1 2.336-3.476c1-.993 2.171-1.796 3.457-2.372 1.348-.577 2.8-.868 4.266-.856h.12c.29-1.337.786-2.621 1.47-3.806A12.87 12.87 0 0 1 24.612 6a12.7 12.7 0 0 1 9.002 3.678 13.3 13.3 0 0 1 2.758 4.018 12.7 12.7 0 0 1 1.085 4.965m-12.164-7.787a1.04 1.04 0 0 1 0 1.389.92.92 0 0 1-.68.294 6.1 6.1 0 0 0-4.147 1.544 6.03 6.03 0 0 0-2.087 3.853 1 1 0 0 1-.993.846h-.13a1.1 1.1 0 0 1-.652-.396.82.82 0 0 1-.156-.726 8.275 8.275 0 0 1 8.164-7.08.92.92 0 0 1 .68.276m3.77 19.033a.92.92 0 0 1 .33.67 1 1 0 0 1-.239.718q-.16.16-.367.248-.192.07-.396.065a.8.8 0 0 1-.34-.065 2 2 0 0 1-.294-.156l-2.381-2.115v12.017a.973.973 0 0 1-.984.984.92.92 0 0 1-.671-.285 1 1 0 0 1-.276-.699V29.253l-2.372 2.114c-.203.172-.462.26-.727.249a.92.92 0 0 1-.671-.34 1.04 1.04 0 0 1-.248-.718.92.92 0 0 1 .34-.67l3.549-3.191a1.68 1.68 0 0 1 1.094-.405c.391-.005.77.14 1.058.405z"/></svg>