<svg xmlns="http://www.w3.org/2000/svg" viewBox="0 0 32 32" role="presentation" aria-hidden="true"><path d="M24.127 11.02c.03.05.058.104.08.158.03.061.045.129.043.197v12.522a2.65 2.65 0 0 1-.823 1.967 2.709 2.709 0 0 1-1.95.802h-11.29a2.76 2.76 0 0 1-2-.823 2.645 2.645 0 0 1-.854-1.946V8.111a2.645 2.645 0 0 1 .854-1.954 2.76 2.76 0 0 1 2-.824H18.5c.07 0 .138.014.2.043a.48.48 0 0 1 .154.102l5.273 5.543Zm-2.65 14.648a1.735 1.735 0 0 0 1.28-.512 1.708 1.708 0 0 0 .52-1.28V11.874h-2.986A2.245 2.245 0 0 1 18 9.6V6.332h-7.812a1.745 1.745 0 0 0-1.28.512 1.707 1.707 0 0 0-.52 1.28v15.688a1.779 1.779 0 0 0 1.791 1.792h11.298v.064Zm-5.184-4.548a.483.483 0 0 1-.15.354.47.47 0 0 1-.353.145.484.484 0 0 1-.354-.145.494.494 0 0 1-.146-.354v-3.704H11.52a.512.512 0 0 1-.346-.136.477.477 0 0 1-.145-.363.496.496 0 0 1 .145-.354.481.481 0 0 1 .346-.137h3.712v-3.699a.483.483 0 0 1 .145-.354.494.494 0 0 1 .354-.145.499.499 0 0 1 .5.5v3.698h3.685a.496.496 0 0 1 .5.5.465.465 0 0 1-.145.362.504.504 0 0 1-.355.137h-3.622v3.695ZM18.998 9.6a1.147 1.147 0 0 0 .367.853c.228.222.535.345.853.341h2.262L18.998 7.19V9.6Z" fill="currentColor"/></svg>