<svg xmlns="http://www.w3.org/2000/svg" aria-hidden="true" viewBox="0 0 32 32"><path fill="currentColor" d="M24.127 11.02q.046.076.08.158a.4.4 0 0 1 .043.197v12.522a2.65 2.65 0 0 1-.823 1.967 2.7 2.7 0 0 1-1.95.802h-11.29a2.76 2.76 0 0 1-2-.823 2.65 2.65 0 0 1-.854-1.946V8.111a2.65 2.65 0 0 1 .854-1.954 2.76 2.76 0 0 1 2-.824H18.5a.5.5 0 0 1 .2.043.5.5 0 0 1 .154.102l5.273 5.543Zm-2.65 14.648a1.74 1.74 0 0 0 1.28-.512 1.7 1.7 0 0 0 .52-1.28V11.874h-2.986A2.245 2.245 0 0 1 18 9.6V6.332h-7.812a1.75 1.75 0 0 0-1.28.512 1.7 1.7 0 0 0-.52 1.28v15.688a1.78 1.78 0 0 0 1.791 1.792h11.298zm-5.184-4.548a.48.48 0 0 1-.15.354.47.47 0 0 1-.353.145.48.48 0 0 1-.354-.145.5.5 0 0 1-.146-.354v-3.704h-3.77a.5.5 0 0 1-.346-.136.48.48 0 0 1-.145-.363.5.5 0 0 1 .145-.354.48.48 0 0 1 .346-.137h3.712v-3.699a.48.48 0 0 1 .145-.354.5.5 0 0 1 .354-.145.5.5 0 0 1 .5.5v3.698h3.685a.496.496 0 0 1 .5.5.47.47 0 0 1-.145.362.5.5 0 0 1-.355.137h-3.622zM18.998 9.6a1.15 1.15 0 0 0 .367.853c.228.222.535.345.853.341h2.262L18.998 7.19z"/></svg>