<svg xmlns="http://www.w3.org/2000/svg" viewBox="0 0 20 20" role="presentation" aria-hidden="true"><path fill-rule="evenodd" clip-rule="evenodd" d="M10.0001 4.90384C9.48641 4.90384 8.9938 5.10788 8.63059 5.47109C8.26739 5.83429 8.06335 6.3269 8.06335 6.84055C8.06335 7.35419 8.26739 7.8468 8.63059 8.21C8.9938 8.57321 9.48641 8.77725 10.0001 8.77725C10.5137 8.77725 11.0063 8.57321 11.3695 8.21C11.7327 7.8468 11.9368 7.35419 11.9368 6.84055C11.9368 6.3269 11.7327 5.83429 11.3695 5.47109C11.0063 5.10788 10.5137 4.90384 10.0001 4.90384ZM7.795 4.63549C8.37982 4.05067 9.173 3.72213 10.0001 3.72213C10.8271 3.72213 11.6203 4.05067 12.2051 4.63549C12.7899 5.22031 13.1185 6.01349 13.1185 6.84055C13.1185 7.6676 12.7899 8.46078 12.2051 9.0456C11.6203 9.63042 10.8271 9.95896 10.0001 9.95896C9.173 9.95896 8.37982 9.63042 7.795 9.0456C7.21018 8.46078 6.88163 7.6676 6.88163 6.84055C6.88163 6.01349 7.21018 5.22031 7.795 4.63549ZM6.45456 12.1415C7.39488 11.2012 8.67023 10.6729 10.0001 10.6729C11.3299 10.6729 12.6052 11.2012 13.5456 12.1415C14.4859 13.0818 15.0141 14.3572 15.0141 15.687C15.0141 16.0133 14.7496 16.2779 14.4233 16.2779H5.57682C5.42011 16.2779 5.26983 16.2156 5.15902 16.1048C5.04821 15.994 4.98596 15.8437 4.98596 15.687C4.98596 14.3572 5.51423 13.0818 6.45456 12.1415ZM10.0001 11.8546C8.98364 11.8546 8.00886 12.2584 7.29015 12.9771C6.71222 13.5551 6.33793 14.2986 6.21348 15.0962H13.7866C13.6622 14.2986 13.2879 13.555 12.71 12.9771C11.9912 12.2584 11.0165 11.8546 10.0001 11.8546Z" fill="currentColor"/></svg>