<svg xmlns="http://www.w3.org/2000/svg" width="20" height="20" fill="none" viewBox="0 0 20 20"><path fill="currentColor" d="M10 18.334a8.333 8.333 0 1 0 0-16.667 8.333 8.333 0 0 0 0 16.667"/><mask id="a" width="18" height="18" x="1" y="1" maskUnits="userSpaceOnUse" style="mask-type:alpha"><path fill="currentColor" d="M10 18.334a8.333 8.333 0 1 0 0-16.667 8.333 8.333 0 0 0 0 16.667"/></mask><g stroke="#fff" stroke-linecap="round" stroke-linejoin="round" stroke-width="1.2" mask="url(#a)"><path d="M15 16.667a5 5 0 1 0-10 0"/><path d="M10 11.667A3.333 3.333 0 1 0 10 5a3.333 3.333 0 0 0 0 6.667"/></g></svg>