<svg xmlns="http://www.w3.org/2000/svg" viewBox="0 0 40 40" role="presentation" aria-hidden="true"><path d="M31.97 29.09a.909.909 0 0 1-.91.91H9.242a.91.91 0 0 1 0-1.818H31.06a.909.909 0 0 1 .91.909Zm0-17.272v12.728a1.818 1.818 0 0 1-1.819 1.818h-20a1.818 1.818 0 0 1-1.818-1.819V11.819A1.818 1.818 0 0 1 10.151 10h20a1.818 1.818 0 0 1 1.818 1.818Zm-7.728 6.364a.909.909 0 0 0-.422-.767l-5-3.182a.907.907 0 0 0-1.396.767v6.364a.909.909 0 0 0 1.396.767l5-3.182a.91.91 0 0 0 .422-.767Z" fill="currentColor"/></svg>