<svg width="20" height="20" viewBox="0 0 20 20" fill="none" xmlns="http://www.w3.org/2000/svg">
<path d="M13.125 8.75L17.0583 4.81667C17.1457 4.72937 17.2571 4.66993 17.3782 4.64586C17.4994 4.62179 17.625 4.63417 17.7391 4.68143C17.8532 4.72869 17.9508 4.80871 18.0195 4.91139C18.0882 5.01407 18.1249 5.1348 18.125 5.25833V14.7417C18.1249 14.8652 18.0882 14.9859 18.0195 15.0886C17.9508 15.1913 17.8532 15.2713 17.7391 15.3186C17.625 15.3658 17.4994 15.3782 17.3782 15.3541C17.2571 15.3301 17.1457 15.2706 17.0583 15.1833L13.125 11.25M3.75 15.625H11.25C11.7473 15.625 12.2242 15.4275 12.5758 15.0758C12.9275 14.7242 13.125 14.2473 13.125 13.75V6.25C13.125 5.75272 12.9275 5.27581 12.5758 4.92417C12.2242 4.57254 11.7473 4.375 11.25 4.375H3.75C3.25272 4.375 2.77581 4.57254 2.42417 4.92417C2.07254 5.27581 1.875 5.75272 1.875 6.25V13.75C1.875 14.2473 2.07254 14.7242 2.42417 15.0758C2.77581 15.4275 3.25272 15.625 3.75 15.625Z" stroke="currentColor" stroke-width="1.5" stroke-linecap="round" stroke-linejoin="round"/>
</svg>
