<svg width="20" height="20" viewBox="0 0 20 20" fill="currentColor" xmlns="http://www.w3.org/2000/svg">
<path d="M14.038 8.19209L17.3126 4.91751C17.4028 4.82741 17.5177 4.76607 17.6427 4.74123C17.7678 4.71638 17.8974 4.72916 18.0152 4.77793C18.133 4.82671 18.2337 4.9093 18.3046 5.01528C18.3755 5.12125 18.4134 5.24586 18.4135 5.37335V15.161C18.4134 15.2885 18.3755 15.4131 18.3046 15.5191C18.2337 15.6251 18.133 15.7077 18.0152 15.7565C17.8974 15.8052 17.7678 15.818 17.6427 15.7932C17.5177 15.7683 17.4028 15.707 17.3126 15.6169L14.038 12.3423" fill="currentColor"/>
<path d="M3.68042 4.96889H11.4207C11.7286 4.96889 12.0242 5.09099 12.2419 5.30874C12.4596 5.52647 12.5818 5.82215 12.5818 6.13003V13.8703C12.5818 14.1782 12.4597 14.4738 12.2419 14.6916C12.0242 14.9093 11.7286 15.0314 11.4207 15.0314H3.68042C3.37254 15.0314 3.07687 14.9092 2.85913 14.6916C2.64138 14.4738 2.51929 14.1782 2.51929 13.8703V6.13003C2.51929 5.82208 2.64138 5.52649 2.85913 5.30874C3.07688 5.09099 3.37248 4.96889 3.68042 4.96889Z" fill="currentColor" stroke="currentColor" stroke-width="1.54814" stroke-linecap="round" stroke-linejoin="round"/>
</svg>
