<svg xmlns="http://www.w3.org/2000/svg" aria-hidden="true" viewBox="0 0 48 48"><path fill="currentColor" d="M38.621 14.403a.59.59 0 0 1 .598.597v24.011a2.88 2.88 0 0 1-.879 2.11 2.94 2.94 0 0 1-2.16.878H11.024a2.93 2.93 0 0 1-2.16-.878A2.88 2.88 0 0 1 8 39.01V8.988a2.88 2.88 0 0 1 .879-2.11A2.93 2.93 0 0 1 11.024 6H30.22a.46.46 0 0 1 .209.05l.216.123 5.976 6.012a.6.6 0 1 1-.85.85l-5.76-5.84H11.024a1.76 1.76 0 0 0-1.303.526 1.73 1.73 0 0 0-.525 1.267v30.023a1.73 1.73 0 0 0 .525 1.267 1.76 1.76 0 0 0 1.303.526h25.2a1.77 1.77 0 0 0 1.296-.526 1.73 1.73 0 0 0 .525-1.267V15.598h-5.436a2.88 2.88 0 0 1-2.11-.879 2.88 2.88 0 0 1-.9-2.11V9.6a.598.598 0 0 1 1.196 0v3.024a1.793 1.793 0 0 0 1.793 1.793zM15.201 27.6a8.1 8.1 0 0 1 .669-3.269 8.7 8.7 0 0 1 1.807-2.657 8.8 8.8 0 0 1 2.657-1.807 8.32 8.32 0 0 1 6.537 0 8.6 8.6 0 0 1 4.464 4.464 8.1 8.1 0 0 1 .677 3.269 8 8 0 0 1-.67 3.268 8.7 8.7 0 0 1-1.807 2.693 8.8 8.8 0 0 1-2.657 1.807 8.75 8.75 0 0 1-6.537 0 8.8 8.8 0 0 1-2.657-1.807 8.6 8.6 0 0 1-1.807-2.693A8 8 0 0 1 15.2 27.6Zm8.409-7.2a7.2 7.2 0 0 0-2.816.562 7.5 7.5 0 0 0-2.282 1.526 7.1 7.1 0 0 0-1.548 2.304 6.95 6.95 0 0 0-.561 2.808 7.05 7.05 0 0 0 .561 2.815 7.32 7.32 0 0 0 3.83 3.83 7.34 7.34 0 0 0 5.63 0 7.32 7.32 0 0 0 3.83-3.83c.38-.89.57-1.848.563-2.815a6.95 6.95 0 0 0-.562-2.78 7.1 7.1 0 0 0-1.548-2.303 7.5 7.5 0 0 0-2.282-1.527 7.2 7.2 0 0 0-2.816-.59ZM21.5 30.48a.42.42 0 0 1-.209-.21.6.6 0 0 1-.072-.28v-4.795a.6.6 0 0 1 .072-.28.7.7 0 0 1 .209-.246.6.6 0 0 1 .302-.072.6.6 0 0 1 .296.072l4.219 2.427a.42.42 0 0 1 .208.209.66.66 0 0 1 0 .598.42.42 0 0 1-.208.208l-4.22 2.369a.33.33 0 0 1-.143.093h-.296a.3.3 0 0 1-.158-.093m.9-1.527 2.405-1.353-2.405-1.354z"/></svg>