<svg xmlns="http://www.w3.org/2000/svg" width="20" height="20" fill="none" viewBox="0 0 20 20"><path fill="currentColor" d="M13.6 6h-3.066v8H13.6a1.735 1.735 0 0 0 1.734-1.733V7.733A1.736 1.736 0 0 0 13.6 6m.667 6.267a.667.667 0 0 1-.667.666h-2V7.067h2a.667.667 0 0 1 .667.666zM8.4 9.467H5.734V6H4.667v8h1.067v-3.467H8.4V14h1.067V6H8.4z"/><path fill="currentColor" d="M16.933 2H3.067A1.07 1.07 0 0 0 2 3.067v13.866A1.07 1.07 0 0 0 3.067 18h13.866A1.07 1.07 0 0 0 18 16.933V3.067A1.07 1.07 0 0 0 16.933 2m0 14.933H3.067V3.067h13.866l.001 13.866"/></svg>