<svg xmlns="http://www.w3.org/2000/svg" viewBox="0 0 48 48" role="presentation" aria-hidden="true"><path d="M38.621 14.403a.59.59 0 0 1 .598.597v24.011a2.88 2.88 0 0 1-.879 2.11 2.937 2.937 0 0 1-2.16.878H11.024a2.93 2.93 0 0 1-2.16-.878A2.88 2.88 0 0 1 8 39.01V8.988a2.88 2.88 0 0 1 .879-2.11A2.93 2.93 0 0 1 11.024 6H30.22c.073 0 .144.017.209.05l.216.123 5.976 6.012a.6.6 0 1 1-.85.85l-5.76-5.84H11.024a1.764 1.764 0 0 0-1.303.526 1.728 1.728 0 0 0-.525 1.267v30.023a1.728 1.728 0 0 0 .525 1.267 1.764 1.764 0 0 0 1.303.526h25.2a1.765 1.765 0 0 0 1.296-.526 1.73 1.73 0 0 0 .525-1.267V15.598h-5.436a2.879 2.879 0 0 1-2.11-.879 2.881 2.881 0 0 1-.9-2.11V9.6a.598.598 0 0 1 1.196 0v3.024a1.793 1.793 0 0 0 1.793 1.793l6.033-.014ZM15.201 27.6a8.144 8.144 0 0 1 .669-3.269 8.686 8.686 0 0 1 1.807-2.657 8.814 8.814 0 0 1 2.657-1.807 8.315 8.315 0 0 1 6.537 0 8.59 8.59 0 0 1 4.464 4.464 8.142 8.142 0 0 1 .677 3.269 7.969 7.969 0 0 1-.67 3.268 8.718 8.718 0 0 1-1.807 2.693 8.811 8.811 0 0 1-2.657 1.807 8.748 8.748 0 0 1-6.537 0 8.814 8.814 0 0 1-2.657-1.807 8.597 8.597 0 0 1-1.807-2.693A7.971 7.971 0 0 1 15.2 27.6Zm8.409-7.2a7.199 7.199 0 0 0-2.816.562 7.51 7.51 0 0 0-2.282 1.526 7.092 7.092 0 0 0-1.548 2.304 6.947 6.947 0 0 0-.561 2.808 7.048 7.048 0 0 0 .561 2.815 7.322 7.322 0 0 0 3.83 3.83 7.337 7.337 0 0 0 5.63 0 7.322 7.322 0 0 0 3.83-3.83c.38-.89.57-1.848.563-2.815a6.949 6.949 0 0 0-.562-2.78 7.092 7.092 0 0 0-1.548-2.303 7.51 7.51 0 0 0-2.282-1.527 7.198 7.198 0 0 0-2.816-.59ZM21.5 30.48a.418.418 0 0 1-.209-.21.584.584 0 0 1-.072-.28v-4.795c0-.098.025-.195.072-.28a.67.67 0 0 1 .209-.246.627.627 0 0 1 .302-.072.62.62 0 0 1 .296.072l4.219 2.427a.418.418 0 0 1 .208.209.661.661 0 0 1 0 .598.417.417 0 0 1-.208.208l-4.22 2.369a.331.331 0 0 1-.143.093H21.658a.303.303 0 0 1-.158-.093Zm.9-1.527 2.405-1.353-2.405-1.354v2.707Z" fill="currentColor"/></svg>