<svg width="20" height="20" viewBox="0 0 20 20" fill="none" xmlns="http://www.w3.org/2000/svg">
<path d="M14.0381 8.19174L17.3127 4.91717C17.4029 4.82707 17.5178 4.76572 17.6428 4.74088C17.7679 4.71604 17.8975 4.72881 18.0153 4.77759C18.1331 4.82636 18.2338 4.90895 18.3047 5.01493C18.3756 5.1209 18.4135 5.24551 18.4136 5.37301V15.1607C18.4135 15.2882 18.3756 15.4128 18.3047 15.5188C18.2338 15.6247 18.1331 15.7073 18.0153 15.7561C17.8975 15.8049 17.7679 15.8177 17.6428 15.7928C17.5178 15.768 17.4029 15.7066 17.3127 15.6165L14.0381 12.3419" fill="currentColor"/>
<path d="M3.68029 15.8054H11.421C11.9342 15.8054 12.4264 15.6015 12.7894 15.2386C13.1523 14.8757 13.3562 14.3834 13.3562 13.8702V6.12951C13.3562 5.61627 13.1523 5.12405 12.7894 4.76114C12.4264 4.39822 11.9342 4.19434 11.421 4.19434H3.68029C3.16705 4.19434 2.67483 4.39822 2.31192 4.76114C1.949 5.12405 1.74512 5.61627 1.74512 6.12951V13.8702C1.74512 14.3834 1.949 14.8757 2.31192 15.2386C2.67483 15.6015 3.16705 15.8054 3.68029 15.8054Z" fill="currentColor"/>
</svg>
