<svg xmlns="http://www.w3.org/2000/svg" aria-hidden="true" viewBox="0 0 48 48"><path fill="currentColor" d="M40.674 10.552q1.318 1.483 1.318 4.391v.389q.015.195 0 .389a9.6 9.6 0 0 1-.526 2.706 21 21 0 0 1-1.404 3.11A38 38 0 0 1 37.81 25.1a106 106 0 0 1-3.167 4.06 50 50 0 0 1-3.513 3.865 28 28 0 0 1-3.268 2.793 14 14 0 0 1-2.951 1.67 7.5 7.5 0 0 1-2.707.562 3.95 3.95 0 0 1-2.879-1.368 12.2 12.2 0 0 1-2.368-4.081l-1.483-4.953-1.497-4.967a17 17 0 0 0-1.663-4.03c-.554-.936-1.18-1.39-1.814-1.39-.32.076-.623.205-.9.382q-.702.387-1.9 1.194L6 16.807l2.635-2.216 2.634-2.16c.97-.797 2-1.519 3.081-2.16a6 6 0 0 1 2.231-.878q.13.012.26 0h.23a3.84 3.84 0 0 1 3.06 1.354 8.4 8.4 0 0 1 1.619 4.016c.187 1.03.345 1.958.49 2.793.143.835.266 1.562.388 2.16.122.597.187 1.209.28 1.655q.105.536.281 1.051a17.6 17.6 0 0 0 1.26 3.858c.446.857.914 1.282 1.44 1.282a2.37 2.37 0 0 0 1.39-.828c.74-.76 1.405-1.589 1.986-2.476q.946-1.456 1.706-3.016a6.2 6.2 0 0 0 .72-2.073 2.4 2.4 0 0 1 0-.332q.01-.15 0-.302a2.16 2.16 0 0 0-.612-1.612 2.72 2.72 0 0 0-1.843-.54q-.64 0-1.267.122a9 9 0 0 0-1.375.367 16.2 16.2 0 0 1 1.548-3.412 10.5 10.5 0 0 1 2.16-2.462 8.5 8.5 0 0 1 2.72-1.44 10.8 10.8 0 0 1 3.312-.553h.417a5.2 5.2 0 0 1 3.923 1.547"/></svg>