<svg xmlns="http://www.w3.org/2000/svg" viewBox="0 0 48 48" role="presentation" aria-hidden="true"><path d="M40.674 10.552c.878.989 1.318 2.452 1.318 4.391v.389c.01.13.01.26 0 .389a9.563 9.563 0 0 1-.526 2.706 21.035 21.035 0 0 1-1.404 3.11A37.805 37.805 0 0 1 37.81 25.1a106.413 106.413 0 0 1-3.167 4.06 49.75 49.75 0 0 1-3.513 3.865 27.853 27.853 0 0 1-3.268 2.793 14.02 14.02 0 0 1-2.951 1.67 7.464 7.464 0 0 1-2.707.562 3.95 3.95 0 0 1-2.879-1.368 12.237 12.237 0 0 1-2.368-4.081l-1.483-4.953-1.497-4.967a16.967 16.967 0 0 0-1.663-4.03c-.554-.936-1.18-1.39-1.814-1.39-.32.076-.623.205-.9.382-.468.259-1.101.655-1.9 1.194L6 16.807l2.635-2.216 2.634-2.16c.97-.797 2-1.519 3.081-2.16a6.018 6.018 0 0 1 2.231-.878c.087.008.173.008.26 0h.23a3.844 3.844 0 0 1 3.06 1.354 8.372 8.372 0 0 1 1.619 4.016c.187 1.03.345 1.958.49 2.793.143.835.266 1.562.388 2.16.122.597.187 1.209.28 1.655.07.357.164.708.281 1.051a17.58 17.58 0 0 0 1.26 3.858c.446.857.914 1.282 1.44 1.282a2.368 2.368 0 0 0 1.39-.828c.74-.76 1.405-1.589 1.986-2.476.63-.97 1.2-1.977 1.706-3.016a6.184 6.184 0 0 0 .72-2.073 2.407 2.407 0 0 1 0-.332c.007-.1.007-.201 0-.302a2.16 2.16 0 0 0-.612-1.612 2.72 2.72 0 0 0-1.843-.54c-.425 0-.85.04-1.267.122a8.676 8.676 0 0 0-1.375.367 16.234 16.234 0 0 1 1.548-3.412 10.465 10.465 0 0 1 2.16-2.462 8.458 8.458 0 0 1 2.72-1.44 10.747 10.747 0 0 1 3.312-.553h.417a5.197 5.197 0 0 1 3.923 1.547Z" fill="currentColor"/></svg>