<svg xmlns="http://www.w3.org/2000/svg" width="20" height="20" fill="none" viewBox="0 0 20 20"><path stroke="currentColor" stroke-linecap="round" stroke-linejoin="round" stroke-width="1.25" d="M2.083 6.824c.087-1.75.346-2.842 1.123-3.617.775-.776 1.866-1.035 3.616-1.122m11.094 4.74c-.086-1.75-.346-2.843-1.122-3.618-.775-.776-1.867-1.035-3.617-1.122m0 15.833c1.75-.086 2.842-.345 3.617-1.122.776-.775 1.036-1.867 1.122-3.617M6.822 17.92c-1.75-.087-2.841-.346-3.616-1.123-.777-.775-1.036-1.867-1.123-3.617"/><path stroke="currentColor" stroke-width="1.25" d="M16.362 9.433c.203.254.304.381.304.569s-.101.315-.304.568c-.91 1.14-3.236 3.598-6.362 3.598S4.548 11.71 3.637 10.57c-.202-.253-.304-.38-.304-.568s.102-.315.304-.569C4.548 8.293 6.874 5.835 10 5.835s5.451 2.458 6.362 3.598Z"/><path stroke="currentColor" stroke-width="1.25" d="M11.666 10.002a1.667 1.667 0 1 0-3.333 0 1.667 1.667 0 0 0 3.333 0Z"/></svg>