<svg width="20" height="20" viewBox="0 0 20 20" fill="none" xmlns="http://www.w3.org/2000/svg">
<path d="M15.8333 16.6667H4.16667C3.72464 16.6667 3.30072 16.4911 2.98816 16.1785C2.67559 15.8659 2.5 15.442 2.5 15V7.49999C2.5 7.05797 2.67559 6.63404 2.98816 6.32148C3.30072 6.00892 3.72464 5.83333 4.16667 5.83333H15.8333C16.2754 5.83333 16.6993 6.00892 17.0118 6.32148C17.3244 6.63404 17.5 7.05797 17.5 7.49999V15C17.5 15.442 17.3244 15.8659 17.0118 16.1785C16.6993 16.4911 16.2754 16.6667 15.8333 16.6667Z" stroke="currentColor" stroke-width="1.25"/>
<path d="M13.75 11.6667C13.6395 11.6667 13.5335 11.6228 13.4554 11.5446C13.3772 11.4665 13.3333 11.3605 13.3333 11.25C13.3333 11.1395 13.3772 11.0335 13.4554 10.9554C13.5335 10.8772 13.6395 10.8333 13.75 10.8333C13.8605 10.8333 13.9665 10.8772 14.0446 10.9554C14.1227 11.0335 14.1666 11.1395 14.1666 11.25C14.1666 11.3605 14.1227 11.4665 14.0446 11.5446C13.9665 11.6228 13.8605 11.6667 13.75 11.6667Z" fill="currentColor" stroke="currentColor" stroke-width="1.25" stroke-linecap="round" stroke-linejoin="round"/>
<path d="M15 5.83333V4.66916C14.9999 4.41375 14.9412 4.16177 14.8282 3.93268C14.7153 3.70359 14.5512 3.50352 14.3487 3.34792C14.1461 3.19233 13.9105 3.08536 13.66 3.0353C13.4096 2.98523 13.151 2.99339 12.9042 3.05916L3.7375 5.50333C3.38254 5.59792 3.06878 5.80713 2.84499 6.09844C2.6212 6.38974 2.49992 6.74682 2.5 7.11416V7.5" stroke="currentColor" stroke-width="1.25"/>
</svg>
