<svg xmlns="http://www.w3.org/2000/svg" viewBox="0 0 24 24" role="presentation" aria-hidden="true"><path d="M19.678 15.534c.226.36.337.774.32 1.194-.01.394-.119.78-.32 1.125-.204.34-.49.627-.835.837-.374.211-.802.318-1.235.31H6.41a2.419 2.419 0 0 1-1.232-.31 2.539 2.539 0 0 1-.858-.837 2.265 2.265 0 0 1 0-2.319L9.94 6.162c.203-.368.512-.672.89-.875a2.523 2.523 0 0 1 2.341 0c.385.2.701.504.91.875l5.598 9.372Zm-6.866-4.179c0-.213.023-.426.039-.643.015-.216.028-.436.041-.655 0-.077-.005-.153-.016-.229a.93.93 0 0 0-.064-.21.89.89 0 0 0-.429-.423.906.906 0 0 0-1.117.287.981.981 0 0 0-.188.59c0 .14.022.279.032.415.01.136.02.275.032.414.029.522.06 1.042.093 1.545.032.504.06 1.033.093 1.546a.615.615 0 0 0 .203.443.66.66 0 0 0 .468.175.66.66 0 0 0 .47-.18.657.657 0 0 0 .202-.454v-.618c.023-.33.042-.667.064-1.004.023-.337.058-.668.077-.999ZM12 16.922a.896.896 0 0 0 .618-.247.712.712 0 0 0 .26-.581.828.828 0 0 0-.248-.608.885.885 0 0 0-.62-.26.91.91 0 0 0-.63.238.854.854 0 0 0-.27.599c0 .228.095.446.261.608a.905.905 0 0 0 .63.251Z" fill="currentColor"/></svg>