<svg width="80" height="80" viewBox="0 0 80 80" fill="none" xmlns="http://www.w3.org/2000/svg">
<rect width="80" height="80" fill="var(--tutor-surface-l1)"/>
<path fill-rule="evenodd" clip-rule="evenodd" d="M35.4893 8.1543C46.0604 7.7783 49.0269 11.2921 58.2354 27.1318C69.7458 46.9312 74.8261 51.6636 74.8262 57.8164C74.8262 60.7068 74.308 63.637 72.6729 66.041C76.8131 66.6628 79.4999 67.6642 79.5 68.794C79.5 70.6805 72.0078 72.21 62.7656 72.21C53.5235 72.21 46.0312 70.6805 46.0312 68.794C46.0313 67.7014 48.5445 66.7288 52.4551 66.1035C44.8885 54.0783 38.5354 24.8369 35.4893 8.1543Z" fill="#6B84FF"/>
<mask id="path-2-outside-1_13770_147822" maskUnits="userSpaceOnUse" x="0.111328" y="8.18896" width="72" height="65" fill="black">
<rect fill="white" x="0.111328" y="8.18896" width="72" height="65"/>
<path d="M25.763 15.0393C30.2666 7.23885 41.5255 7.23884 46.0291 15.0393L68.0957 53.2602C72.5993 61.0607 66.9698 70.8113 57.9627 70.8113H13.8294C4.82226 70.8113 -0.8072 61.0607 3.69637 53.2602L25.763 15.0393Z"/>
</mask>
<path d="M25.763 15.0393C30.2666 7.23885 41.5255 7.23884 46.0291 15.0393L68.0957 53.2602C72.5993 61.0607 66.9698 70.8113 57.9627 70.8113H13.8294C4.82226 70.8113 -0.8072 61.0607 3.69637 53.2602L25.763 15.0393Z" fill="var(--tutor-surface-l1)"/>
<path d="M46.5487 14.7393C46.2023 14.9393 45.8559 15.1393 45.5095 15.3393C47.1103 18.3788 48.7228 21.4116 50.3467 24.4378C55.6824 34.3805 61.1428 44.2512 66.7278 54.05C67.7936 55.9112 68.256 58.0571 68.0228 60.1624C67.5593 65.1389 63.0024 69.3495 57.9627 69.2236C43.2516 69.2448 28.5405 69.2932 13.8294 69.3687C6.31562 69.7898 0.734314 60.3701 4.81472 53.9059C12.0786 41.1127 19.319 28.3059 26.5357 15.4855C28.6335 11.5829 33.3068 9.34156 37.7302 10.069C40.9278 10.5363 43.8577 12.5099 45.5095 15.3393C45.8559 15.1393 46.2023 14.9393 46.5487 14.7393C44.8148 11.574 41.5698 9.24255 37.9692 8.63097C33.0087 7.6774 27.5213 10.1165 24.9903 14.5932C17.496 27.2534 10.0252 39.9271 2.57802 52.6145C-2.63827 60.6094 4.1728 72.6544 13.8294 72.2538C28.5405 72.3294 43.2516 72.3778 57.9627 72.3989C64.5576 72.582 70.611 67.0477 71.2041 60.5076C71.5168 57.7288 70.8702 54.8541 69.4637 52.4704C63.7703 42.7342 57.9522 33.07 52.0095 23.4778C50.2008 20.5583 48.3805 17.6455 46.5487 14.7393ZM45.5095 15.3393L46.5487 14.7393L45.5095 15.3393V15.3393Z" fill="#6B84FF" mask="url(#path-2-outside-1_13770_147822)"/>
<path d="M35.8975 47.8857C37.7033 47.8859 39.167 49.3504 39.167 51.1562C39.167 52.9621 37.7033 54.4266 35.8975 54.4268C34.0914 54.4268 32.627 52.9623 32.627 51.1562C32.627 49.3502 34.0914 47.8857 35.8975 47.8857ZM35.8936 30.4268C37.3265 30.4269 38.4881 31.5885 38.4883 33.0215V43.4717C38.4883 44.9048 37.3267 46.0672 35.8936 46.0674C34.4603 46.0674 33.2979 44.9049 33.2979 43.4717V33.0215C33.298 31.5884 34.4604 30.4268 35.8936 30.4268Z" fill="#D92D20"/>
<path d="M18.6008 14.7922C18.8281 14.4321 18.8941 14.0075 18.7664 13.6024C18.6397 13.1979 18.3298 12.846 17.9226 12.6335C17.5155 12.421 17.0495 12.368 16.6452 12.4954C16.2399 12.6224 15.9293 12.9193 15.7639 13.3117C15.7639 13.3117 15.7639 13.3117 15.7639 13.3117C15.6356 13.6151 15.5074 13.9185 15.3791 14.222C13.0702 19.6837 10.7613 25.1455 8.45245 30.6073C8.32418 30.9107 8.19591 31.2141 8.06763 31.5176C8.24319 31.2388 8.41874 30.96 8.59429 30.6813C11.7543 25.6637 14.9142 20.6461 18.0742 15.6284C18.2497 15.3497 18.4253 15.0709 18.6008 14.7922Z" fill="#6B84FF"/>
</svg>
