<svg xmlns="http://www.w3.org/2000/svg" aria-hidden="true" viewBox="0 0 24 24"><path fill="currentColor" d="M19.678 15.534c.226.36.337.774.32 1.194a2.35 2.35 0 0 1-.32 1.125c-.204.34-.49.627-.835.837a2.4 2.4 0 0 1-1.235.31H6.41a2.4 2.4 0 0 1-1.232-.31 2.54 2.54 0 0 1-.858-.837 2.27 2.27 0 0 1 0-2.319l5.62-9.372c.203-.368.512-.672.89-.875a2.52 2.52 0 0 1 2.341 0c.385.2.701.504.91.875zm-6.866-4.179c0-.213.023-.426.039-.643q.022-.325.041-.655 0-.115-.016-.229a1 1 0 0 0-.064-.21.9.9 0 0 0-.429-.423.906.906 0 0 0-1.117.287.98.98 0 0 0-.188.59c0 .14.022.279.032.415q.014.205.032.414c.029.522.06 1.042.093 1.545.032.504.06 1.033.093 1.546a.62.62 0 0 0 .203.443.66.66 0 0 0 .468.175.66.66 0 0 0 .47-.18.66.66 0 0 0 .202-.454v-.618q.033-.497.064-1.004c.023-.337.058-.668.077-.999M12 16.922a.9.9 0 0 0 .618-.247.71.71 0 0 0 .26-.581.83.83 0 0 0-.248-.608.9.9 0 0 0-.62-.26.9.9 0 0 0-.63.238.85.85 0 0 0-.27.599.85.85 0 0 0 .261.608.9.9 0 0 0 .63.251Z"/></svg>