<svg width="20" height="20" viewBox="0 0 20 20" fill="none" xmlns="http://www.w3.org/2000/svg">
<path d="M10 11.1877V7.43772M3.97376 16.8127H16.0263C16.9738 16.8127 17.5763 15.8002 17.1256 14.9671L11.0994 3.8421C10.6263 2.96897 9.37376 2.96897 8.90064 3.8421L2.87501 14.9671C2.42314 15.8002 3.02626 16.8127 3.97376 16.8127Z" stroke="#333741" stroke-linecap="round"/>
<mask id="mask0_9183_103843" style="mask-type:luminance" maskUnits="userSpaceOnUse" x="9" y="12" width="2" height="3">
<path d="M10.9375 13.3752C10.9375 13.6239 10.8387 13.8623 10.6629 14.0381C10.4871 14.2139 10.2486 14.3127 10 14.3127C9.75136 14.3127 9.5129 14.2139 9.33709 14.0381C9.16127 13.8623 9.0625 13.6239 9.0625 13.3752C9.0625 13.1266 9.16127 12.8881 9.33709 12.7123C9.5129 12.5365 9.75136 12.4377 10 12.4377C10.2486 12.4377 10.4871 12.5365 10.6629 12.7123C10.8387 12.8881 10.9375 13.1266 10.9375 13.3752Z" fill="white"/>
</mask>
<g mask="url(#mask0_9183_103843)">
<path d="M10.9375 13.3752C10.9375 13.6239 10.8387 13.8623 10.6629 14.0381C10.4871 14.2139 10.2486 14.3127 10 14.3127C9.75136 14.3127 9.5129 14.2139 9.33709 14.0381C9.16127 13.8623 9.0625 13.6239 9.0625 13.3752C9.0625 13.1266 9.16127 12.8881 9.33709 12.7123C9.5129 12.5365 9.75136 12.4377 10 12.4377C10.2486 12.4377 10.4871 12.5365 10.6629 12.7123C10.8387 12.8881 10.9375 13.1266 10.9375 13.3752Z" fill="#333741"/>
</g>
</svg>
