<svg xmlns="http://www.w3.org/2000/svg" aria-hidden="true" viewBox="0 0 34 48"><path fill="#376cfb" d="M20 18h-6a.75.75 0 0 0-.75.75v3.75c0 .414.336.75.75.75h6a.75.75 0 0 0 .75-.75v-3.75A.75.75 0 0 0 20 18"/><path fill="#e6ecff" d="M26 0H8a.75.75 0 0 0-.75.75v15c0 .414.336.75.75.75h18a.75.75 0 0 0 .75-.75v-15A.75.75 0 0 0 26 0"/><path fill="#4294ff" d="M13.25 0v5.25A.75.75 0 0 0 14 6h6a.75.75 0 0 0 .75-.75V0zM32 15H2a.75.75 0 0 0-.75.75v1.5A2.25 2.25 0 0 0 3.5 19.5h27a2.25 2.25 0 0 0 2.25-2.25v-1.5A.75.75 0 0 0 32 15"/><path fill="#376cfb" d="M28.25 42.75H5.75a.75.75 0 0 0-.75.75v3.75c0 .414.336.75.75.75h22.5a.75.75 0 0 0 .75-.75V43.5a.75.75 0 0 0-.75-.75"/><path fill="#4294ff" d="M28.984 22.343a.75.75 0 0 0-.734-.593H5.75a.75.75 0 0 0-.733.593l-4.5 21a.75.75 0 0 0 .733.907h31.5a.75.75 0 0 0 .734-.907z"/><path fill="#376cfb" d="M17 41.25a8.25 8.25 0 1 0 0-16.5 8.25 8.25 0 0 0 0 16.5"/><path fill="#2946ed" d="M17 33.749a.75.75 0 0 1-.53-1.28l1.5-1.5a.75.75 0 0 1 1.06 1.06l-1.5 1.5a.75.75 0 0 1-.53.22m0-5.249a.75.75 0 0 1-.75-.75V27a.75.75 0 1 1 1.5 0v.75a.75.75 0 0 1-.75.75m-3.182 1.317a.75.75 0 0 1-1.06 0l-.53-.53a.75.75 0 0 1 1.06-1.06l.53.53a.75.75 0 0 1 0 1.06M12.5 33a.75.75 0 0 1-.75.75H11a.75.75 0 1 1 0-1.5h.75a.75.75 0 0 1 .75.75m1.318 3.18a.75.75 0 0 1 0 1.061l-.53.53a.75.75 0 0 1-1.06-1.06l.53-.53a.75.75 0 0 1 1.06 0ZM17 37.5a.75.75 0 0 1 .75.75V39a.75.75 0 1 1-1.5 0v-.75a.75.75 0 0 1 .75-.75m3.183-1.32a.75.75 0 0 1 1.06 0l.53.53a.75.75 0 0 1-1.06 1.061l-.53-.53a.75.75 0 0 1 0-1.06ZM21.5 33a.75.75 0 0 1 .75-.75H23a.75.75 0 1 1 0 1.5h-.75a.75.75 0 0 1-.75-.75m-1.317-3.183a.75.75 0 0 1 0-1.06l.53-.53a.75.75 0 0 1 1.06 1.06l-.53.53a.75.75 0 0 1-1.06 0"/><path fill="#4294ff" d="M16.25 11.25H9.5a.75.75 0 1 1 0-1.5h6.75a.75.75 0 1 1 0 1.5m-3 2.25H9.5a.75.75 0 1 1 0-1.5h3.75a.75.75 0 1 1 0 1.5"/></svg>