<svg xmlns="http://www.w3.org/2000/svg" viewBox="0 0 34 48" role="presentation" aria-hidden="true"><path d="M20 18h-6a.75.75 0 0 0-.75.75v3.75c0 .414.336.75.75.75h6a.75.75 0 0 0 .75-.75v-3.75A.75.75 0 0 0 20 18Z" fill="#376CFB"/><path d="M26 0H8a.75.75 0 0 0-.75.75v15c0 .414.336.75.75.75h18a.75.75 0 0 0 .75-.75v-15A.75.75 0 0 0 26 0Z" fill="#E6ECFF"/><path d="M13.25 0v5.25A.75.75 0 0 0 14 6h6a.75.75 0 0 0 .75-.75V0h-7.5ZM32 15H2a.75.75 0 0 0-.75.75v1.5A2.25 2.25 0 0 0 3.5 19.5h27a2.25 2.25 0 0 0 2.25-2.25v-1.5A.75.75 0 0 0 32 15Z" fill="#4294FF"/><path d="M28.25 42.75H5.75a.75.75 0 0 0-.75.75v3.75c0 .414.336.75.75.75h22.5a.75.75 0 0 0 .75-.75V43.5a.75.75 0 0 0-.75-.75Z" fill="#376CFB"/><path d="M28.984 22.343a.75.75 0 0 0-.734-.593H5.75a.75.75 0 0 0-.733.593l-4.5 21a.75.75 0 0 0 .733.907h31.5a.75.75 0 0 0 .734-.907l-4.5-21Z" fill="#4294FF"/><path d="M17 41.25a8.25 8.25 0 1 0 0-16.5 8.25 8.25 0 0 0 0 16.5Z" fill="#376CFB"/><path d="M17 33.749a.75.75 0 0 1-.53-1.28l1.5-1.5a.75.75 0 0 1 1.06 1.06l-1.5 1.5a.75.75 0 0 1-.53.22ZM17 28.5a.75.75 0 0 1-.75-.75V27a.75.75 0 1 1 1.5 0v.75a.75.75 0 0 1-.75.75ZM13.818 29.817a.75.75 0 0 1-1.06 0l-.53-.53a.75.75 0 0 1 1.06-1.06l.53.53a.75.75 0 0 1 0 1.06ZM12.5 33a.75.75 0 0 1-.75.75H11a.75.75 0 1 1 0-1.5h.75a.75.75 0 0 1 .75.75ZM13.818 36.18a.75.75 0 0 1 0 1.061l-.53.53a.75.75 0 0 1-1.06-1.06l.53-.53a.75.75 0 0 1 1.06 0ZM17 37.5a.75.75 0 0 1 .75.75V39a.75.75 0 1 1-1.5 0v-.75a.75.75 0 0 1 .75-.75ZM20.183 36.18a.75.75 0 0 1 1.06 0l.53.53a.75.75 0 0 1-1.06 1.061l-.53-.53a.75.75 0 0 1 0-1.06ZM21.5 33a.75.75 0 0 1 .75-.75H23a.75.75 0 1 1 0 1.5h-.75a.75.75 0 0 1-.75-.75ZM20.183 29.817a.75.75 0 0 1 0-1.06l.53-.53a.75.75 0 0 1 1.06 1.06l-.53.53a.75.75 0 0 1-1.06 0Z" fill="#2946ED"/><path d="M16.25 11.25H9.5a.75.75 0 1 1 0-1.5h6.75a.75.75 0 1 1 0 1.5ZM13.25 13.5H9.5a.75.75 0 1 1 0-1.5h3.75a.75.75 0 1 1 0 1.5Z" fill="#4294FF"/></svg>