<svg width="20" height="20" viewBox="0 0 20 20" fill="none" xmlns="http://www.w3.org/2000/svg">
<path d="M9.99998 14.1608C10.9208 14.1608 11.6666 13.6017 11.6666 12.9125C11.6666 12.2225 10.9208 11.6633 9.99998 11.6633C9.07915 11.6633 8.33331 11.1042 8.33331 10.415C8.33331 9.72418 9.07915 9.16584 9.99998 9.16584V8.33334M9.99998 14.1608C9.27498 14.1608 8.65665 13.8133 8.42831 13.3283M9.99998 14.1608L10.0025 15M9.99998 9.16668C10.725 9.16668 11.3433 9.51418 11.5716 9.99918" stroke="currentColor" stroke-width="1.2" stroke-linecap="round"/>
<path d="M17.5 9.16667C17.6288 9.10243 17.7455 9.01645 17.845 8.9125C18.3333 8.4075 18.3333 7.59167 18.3333 5.96C18.3333 4.32833 18.3333 3.51333 17.845 3.00667C17.3567 2.5 16.5717 2.5 15 2.5H4.99999C3.42832 2.5 2.64332 2.5 2.15499 3.00667C1.66666 3.51333 1.66666 4.32917 1.66666 5.96C1.66666 7.59083 1.66666 8.40667 2.15499 8.9125C2.25499 9.01694 2.36999 9.10167 2.49999 9.16667" stroke="currentColor" stroke-width="1.2" stroke-linecap="round"/>
<path d="M9.99996 17.5C13.2216 17.5 15.8333 14.8883 15.8333 11.6667C15.8333 8.44502 13.2216 5.83334 9.99996 5.83334C6.7783 5.83334 4.16663 8.44502 4.16663 11.6667C4.16663 14.8883 6.7783 17.5 9.99996 17.5Z" stroke="currentColor" stroke-width="1.2"/>
<path d="M4.16663 5.83334H15.8333" stroke="currentColor" stroke-width="1.2" stroke-linecap="round" stroke-linejoin="round"/>
</svg>
