<svg width="20" height="20" viewBox="0 0 20 20" fill="none" xmlns="http://www.w3.org/2000/svg"><path d="M10 14.16c.92 0 1.667-.558 1.667-1.248S10.92 11.663 10 11.663c-.92 0-1.667-.559-1.667-1.248 0-.69.746-1.25 1.667-1.25v-.832m0 5.828c-.725 0-1.343-.348-1.572-.833m1.572.833.002.839M10 9.167c.725 0 1.343.347 1.572.832" stroke="currentColor" stroke-width="1.2" stroke-linecap="round"/><path d="M17.5 9.167a1.25 1.25 0 0 0 .345-.255c.488-.505.488-1.32.488-2.952s0-2.447-.488-2.953C17.357 2.5 16.572 2.5 15 2.5H5c-1.572 0-2.357 0-2.845.507-.488.506-.488 1.322-.488 2.953 0 1.63 0 2.447.488 2.952.1.105.215.19.345.255" stroke="currentColor" stroke-width="1.2" stroke-linecap="round"/><path d="M10 17.5a5.833 5.833 0 1 0 0-11.667A5.833 5.833 0 0 0 10 17.5Z" stroke="currentColor" stroke-width="1.2"/><path d="M4.167 5.833h11.666" stroke="currentColor" stroke-width="1.2" stroke-linecap="round" stroke-linejoin="round"/></svg>