<svg xmlns="http://www.w3.org/2000/svg" aria-hidden="true" viewBox="0 0 48 48"><path fill="currentColor" fill-rule="evenodd" d="m37.59 13.564-.479-.478-6.266-6.266-.478-.479A1.17 1.17 0 0 0 29.542 6H11.53C10.793 6 10 6.569 10 7.816V40.76c0 .52.523 1.026 1.14 1.185l.037.01.057.016q.145.03.295.03h24.873q.15 0 .295-.03l.057-.015.036-.01c.618-.16 1.141-.667 1.141-1.186V14.676c0-.476-.057-.827-.341-1.112m-1.872-.116h-5.235V8.213zM11.416 40.732l-.01-.004a.28.28 0 0 1-.165-.257v-9.023H36.69v9.023c0 .114-.068.21-.165.257l-.01.004c-.036.013-.072.027-.113.027H11.53c-.04 0-.077-.014-.113-.027Zm-.175-10.525V7.817c0-.136.02-.576.288-.576h17.748a1 1 0 0 0-.036.243v7.206h7.206a1 1 0 0 0 .242-.036v15.552H11.242Zm8.52 3.056-1.196 2.546h-.085l-1.103-2.546h-1.162l1.688 3.216-1.586 3.038h1.179l1.07-2.359h.084l.993 2.36h1.18l-1.587-3.039 1.688-3.216zm2.572 0h1.035v5.482h2.877v.772h-3.912zm7.803 3.19a3.4 3.4 0 0 0-.633-.36 8 8 0 0 1-.628-.305 1.9 1.9 0 0 1-.483-.365.77.77 0 0 1-.195-.548.7.7 0 0 1 .068-.284.9.9 0 0 1 .186-.268q.12-.119.272-.199a.9.9 0 0 1 .323-.097q.306-.026.5-.009.196.017.315.06t.182.085q.064.042.115.067a1 1 0 0 0 .051-.085q.042-.076.102-.191l.108-.208.02-.038q.067-.132.118-.242a1.7 1.7 0 0 0-.645-.233 4.5 4.5 0 0 0-.79-.072q-.381 0-.725.118-.344.12-.602.344-.26.224-.412.548a1.7 1.7 0 0 0-.153.738q0 .458.195.763.195.306.492.53t.637.39.632.331q.294.166.488.37.195.204.195.492 0 .475-.276.717-.275.242-.793.242a2 2 0 0 1-.365-.034 4 4 0 0 1-.39-.09 7 7 0 0 1-.378-.118 2 2 0 0 1-.3-.132l-.179.73q.144.127.344.217t.42.14a3 3 0 0 0 .437.072q.217.021.42.021.476 0 .849-.144.373-.143.628-.386a1.7 1.7 0 0 0 .395-.56q.14-.317.14-.658 0-.501-.195-.818a1.9 1.9 0 0 0-.49-.53ZM13.724 14.07h7.448v2.483h13.035v11.172H13.724zm6.207 3.724h-4.966v1.242h4.966zm0 2.483h-4.966v1.241h4.966zm0 2.483h-4.966V24h4.966v-1.241Zm-4.966 3.724h4.966V25.24h-4.966v1.242Zm6.207 0h11.793V25.24H21.172v1.242Zm0-2.483h11.793V22.76H21.172V24Zm0-2.483h11.793v-1.241H21.172zm11.793-2.482v-1.242H21.172v1.242zm-18-3.725v1.242h4.966V15.31z" clip-rule="evenodd"/></svg>