<svg xmlns="http://www.w3.org/2000/svg" viewBox="0 0 48 48" role="presentation" aria-hidden="true"><path fill-rule="evenodd" clip-rule="evenodd" d="m37.59 13.564-.479-.478-6.266-6.266-.478-.479A1.174 1.174 0 0 0 29.542 6H11.53C10.793 6 10 6.569 10 7.816V40.76c0 .52.523 1.026 1.14 1.185a.752.752 0 0 1 .037.01.529.529 0 0 0 .057.016c.097.02.195.03.295.03h24.873c.1 0 .198-.01.295-.03a.529.529 0 0 0 .057-.015.752.752 0 0 1 .036-.01c.618-.16 1.141-.667 1.141-1.186V14.676c0-.476-.057-.827-.341-1.112Zm-1.872-.116h-5.235V8.213l5.235 5.235ZM11.416 40.732l-.01-.004a.284.284 0 0 1-.165-.257v-9.023H36.69v9.023c0 .114-.068.21-.165.257l-.01.004c-.036.013-.072.027-.113.027H11.53c-.04 0-.077-.014-.113-.027Zm-.175-10.525V7.817c0-.136.02-.576.288-.576h17.748a.955.955 0 0 0-.036.243v7.206h7.206a.954.954 0 0 0 .242-.036v15.552H11.242Zm8.52 3.056-1.196 2.546h-.085l-1.103-2.546h-1.162l1.688 3.216-1.586 3.038h1.179l1.07-2.359h.084l.993 2.36h1.18l-1.587-3.039 1.688-3.216h-1.162Zm2.572 0h1.035v5.482h2.877v.772h-3.912v-6.254Zm7.803 3.19a3.35 3.35 0 0 0-.633-.36 7.936 7.936 0 0 1-.628-.305 1.894 1.894 0 0 1-.483-.365c-.13-.14-.195-.322-.195-.548a.68.68 0 0 1 .068-.284.917.917 0 0 1 .186-.268c.08-.08.17-.145.272-.199a.863.863 0 0 1 .323-.097c.204-.017.37-.02.5-.009.13.012.236.031.315.06.079.028.14.056.182.085.043.028.081.05.115.067a.76.76 0 0 0 .051-.085c.028-.05.062-.115.102-.191l.108-.208.02-.038c.044-.088.084-.168.118-.242a1.74 1.74 0 0 0-.645-.233 4.461 4.461 0 0 0-.79-.072c-.254 0-.496.039-.725.118-.229.08-.43.195-.602.344-.173.15-.31.332-.412.548a1.706 1.706 0 0 0-.153.738c0 .305.065.56.195.763.13.204.294.38.492.53.198.15.41.28.637.39.226.111.437.22.632.331.196.11.358.234.488.37.13.136.195.3.195.492 0 .317-.092.556-.276.717-.183.161-.448.242-.793.242a2.17 2.17 0 0 1-.365-.034 3.703 3.703 0 0 1-.39-.09 6.962 6.962 0 0 1-.378-.118 1.784 1.784 0 0 1-.3-.132l-.179.73c.096.085.21.157.344.217.133.06.273.106.42.14.147.034.293.058.437.072.144.014.285.021.42.021.317 0 .6-.048.849-.144.249-.096.458-.224.628-.386a1.73 1.73 0 0 0 .395-.56c.094-.211.14-.431.14-.658 0-.334-.065-.607-.195-.818a1.865 1.865 0 0 0-.49-.53ZM13.724 14.07h7.448v2.483h13.035v11.172H13.724V14.07Zm6.207 3.724h-4.966v1.242h4.966v-1.242Zm0 2.483h-4.966v1.241h4.966v-1.241Zm0 2.483h-4.966V24h4.966v-1.241Zm-4.966 3.724h4.966V25.24h-4.966v1.242Zm6.207 0h11.793V25.24H21.172v1.242Zm0-2.483h11.793v-1.241H21.172V24Zm0-2.483h11.793v-1.241H21.172v1.241Zm11.793-2.482v-1.242H21.172v1.242h11.793Zm-18-3.725v1.242h4.966V15.31h-4.966Z" fill="currentColor"/></svg>