<svg xmlns="http://www.w3.org/2000/svg" aria-hidden="true" viewBox="0 0 48 48"><path fill="currentColor" fill-rule="evenodd" d="m37.589 13.564-.845-.844-5.899-5.9h-.001l-.478-.48a1.16 1.16 0 0 0-.824-.34H11.53C10.792 6 10 6.569 10 7.816V40.76c0 .52.522 1.025 1.14 1.184l.034.01.06.017q.145.03.295.03h24.873q.15 0 .295-.03a.5.5 0 0 0 .094-.026c.618-.16 1.14-.666 1.14-1.185V14.676c0-.476-.058-.828-.342-1.112m-7.106-5.351 5.235 5.235h-5.235zM11.408 40.729h-.002a.28.28 0 0 1-.165-.258v-9.023H36.69v9.023a.28.28 0 0 1-.165.257l-.002.001a.3.3 0 0 1-.12.03H11.528a.3.3 0 0 1-.12-.03m-.167-10.522V7.817c0-.136.02-.576.288-.576h17.748a1 1 0 0 0-.036.243v7.206h7.205a1 1 0 0 0 .243-.036v15.552H11.242Zm7.9 3.056-1.197 2.546h-.085l-1.103-2.546h-1.163l1.688 3.216-1.586 3.038h1.18l1.069-2.359h.085l.992 2.36h1.18l-1.587-3.039 1.689-3.216zm3.598 0 1.86 4.277 1.849-4.277h1.035v6.254h-1.035v-4.302l-1.4 3.48h-.9l-1.409-3.48v4.302h-1.035v-6.254zm7.349 0h-1.036v6.254h3.913v-.772h-2.877zm-10.595-16.53a.62.62 0 1 1 .878.878l-3.286 3.286 3.285 3.285a.62.62 0 1 1-.877.878l-3.724-3.724a.62.62 0 0 1 0-.878zm8.325 0a.62.62 0 1 0-.878.878l3.286 3.286-3.286 3.285a.62.62 0 1 0 .878.878l3.724-3.724a.62.62 0 0 0 0-.878zm-2.886-1.63a.62.62 0 1 1 1.17.414L22.38 26.07a.621.621 0 0 1-1.17-.414l3.723-10.551Z" clip-rule="evenodd"/></svg>