<svg xmlns="http://www.w3.org/2000/svg" aria-hidden="true" viewBox="0 0 48 48"><path fill="currentColor" d="M41.647 16.257s.058.677.18 1.951c.123 1.274.173 2.678.173 4.205v2.88c0 1.497-.115 3.542-.353 6.12 0 .072-.137.605-.353 1.613a5.04 5.04 0 0 1-1.195 2.462 4.27 4.27 0 0 1-2.001 1.404q-.797.243-1.62.353h-.238c-1.217.093-2.542.18-3.974.245-1.433.064-2.75.086-3.968.108-1.216.021-2.239 0-3.06 0h-2.88l-3.398-.072c-1.289 0-2.578-.058-3.866-.101a43 43 0 0 1-2.952-.18l-.267-.05h-.23a13 13 0 0 1-1.757-.404 4.05 4.05 0 0 1-1.987-1.375A4.9 4.9 0 0 1 6.72 32.99c-.26-1.008-.367-1.534-.367-1.577s-.058-.684-.18-1.973A45 45 0 0 1 6 25.257v-2.88c0-1.527.058-2.923.173-4.205s.18-1.894.18-1.915.108-.576.331-1.584a5.13 5.13 0 0 1 1.217-2.455 4.24 4.24 0 0 1 2.001-1.44 12 12 0 0 1 1.65-.324l.208-.03a102 102 0 0 1 3.946-.215l3.974-.123c1.231 0 2.254-.05 3.074-.05L24 10l1.267.036c.821 0 1.836 0 3.06.05l3.967.123c1.44.05 2.722.122 3.939.216h.216q.819.12 1.613.353a4.4 4.4 0 0 1 2.037 1.44 5 5 0 0 1 1.181 2.455c.23 1.008.346 1.54.367 1.584m-9.929 8.474a.6.6 0 0 0 .087-.317.53.53 0 0 0-.087-.28.8.8 0 0 0-.23-.245L20.098 17.2a.6.6 0 0 0-.296-.072.6.6 0 0 0-.302.072.9.9 0 0 0-.23.245.53.53 0 0 0-.087.28V30.78a.6.6 0 0 0 .087.317.58.58 0 0 0 .374.26.6.6 0 0 0 .173 0 .5.5 0 0 0 .137 0 .6.6 0 0 0 .144-.051l11.39-6.365a.53.53 0 0 0 .23-.209Z"/></svg>