<svg xmlns="http://www.w3.org/2000/svg" viewBox="0 0 48 48" role="presentation" aria-hidden="true"><path d="M41.647 16.257s.058.677.18 1.951c.123 1.274.173 2.678.173 4.205v2.88c0 1.497-.115 3.542-.353 6.12 0 .072-.137.605-.353 1.613a5.04 5.04 0 0 1-1.195 2.462 4.27 4.27 0 0 1-2.001 1.404c-.53.162-1.072.28-1.62.353h-.238c-1.217.093-2.542.18-3.974.245-1.433.064-2.75.086-3.968.108-1.216.021-2.239 0-3.06 0h-2.88l-3.398-.072c-1.289 0-2.578-.058-3.866-.101a43.138 43.138 0 0 1-2.952-.18l-.267-.05h-.23c-.594-.095-1.181-.23-1.757-.404a4.047 4.047 0 0 1-1.987-1.375A4.91 4.91 0 0 1 6.72 32.99c-.26-1.008-.367-1.534-.367-1.577 0-.043-.058-.684-.18-1.973A44.598 44.598 0 0 1 6 25.257v-2.88c0-1.527.058-2.923.173-4.205.115-1.282.18-1.894.18-1.915 0-.022.108-.576.331-1.584a5.134 5.134 0 0 1 1.217-2.455 4.24 4.24 0 0 1 2.001-1.44 11.751 11.751 0 0 1 1.65-.324l.208-.03a102 102 0 0 1 3.946-.215l3.974-.123c1.231 0 2.254-.05 3.074-.05L24 10l1.267.036c.821 0 1.836 0 3.06.05l3.967.123c1.44.05 2.722.122 3.939.216h.216c.545.08 1.084.198 1.613.353a4.392 4.392 0 0 1 2.037 1.44 4.99 4.99 0 0 1 1.181 2.455c.23 1.008.346 1.54.367 1.584Zm-9.929 8.474a.598.598 0 0 0 .087-.317.533.533 0 0 0-.087-.28.83.83 0 0 0-.23-.245L20.098 17.2a.62.62 0 0 0-.296-.072.627.627 0 0 0-.302.072.929.929 0 0 0-.23.245.533.533 0 0 0-.087.28V30.78a.598.598 0 0 0 .087.317.583.583 0 0 0 .374.26.563.563 0 0 0 .173 0 .455.455 0 0 0 .137 0 .576.576 0 0 0 .144-.051l11.39-6.365a.532.532 0 0 0 .23-.209Z" fill="currentColor"/></svg>