<svg xmlns="http://www.w3.org/2000/svg" viewBox="0 0 48 48" role="presentation" aria-hidden="true"><path fill-rule="evenodd" clip-rule="evenodd" d="m37.112 13.086.478.478c.284.285.341.637.341 1.112V40.759c0 .52-.523 1.026-1.142 1.185a.815.815 0 0 0-.037.011c-.018.006-.036.012-.055.015-.097.02-.195.03-.295.03H11.53c-.1 0-.198-.01-.296-.03-.019-.003-.037-.01-.055-.015a.748.748 0 0 0-.037-.01c-.618-.16-1.141-.666-1.141-1.186V7.817C10 6.568 10.793 6 11.529 6h18.013c.308 0 .609.125.825.343l.477.476h.001l6.267 6.267Zm-1.394.362-5.235-5.235v5.235h5.235ZM11.408 40.73c.039.015.078.03.12.03h24.874a.335.335 0 0 0 .12-.03h.003a.286.286 0 0 0 .165-.258v-9.023H11.24v9.023c0 .114.068.21.165.257l.002.001Zm-.167-32.913v22.39H36.69v-15.53l-.001-.022a.954.954 0 0 1-.242.036h-7.206V7.485c0-.085.016-.165.036-.244H11.53c-.267 0-.288.44-.288.575Zm10.026 26.27H18.11v-.823h4.159v.823l-2.98 4.472-.17.136h3.15v.823h-4.16v-.823l2.98-4.472.178-.136Zm3.488-.823h-1.036v6.254h1.036v-6.254Zm4.14.128c.26.084.494.212.7.381.208.17.375.375.502.615.128.241.192.511.192.811 0 .317-.054.604-.162.861a1.808 1.808 0 0 1-.45.65 2.026 2.026 0 0 1-.696.407 2.677 2.677 0 0 1-.899.144h-.755v2.257h-1.019v-6.254h1.799c.265 0 .529.043.789.128Zm.069 2.85c.102-.096.183-.23.246-.402a1.891 1.891 0 0 0 .05-.994 1.015 1.015 0 0 0-.173-.381 1.027 1.027 0 0 0-.37-.306c-.158-.082-.367-.123-.627-.123h-.764v2.478h.934c.124 0 .247-.021.369-.064a.93.93 0 0 0 .335-.208Zm-4.688-15.965h1.241v-1.242h-1.241v-1.24h1.241v-1.242h-1.241V15.31h1.241V14.07h-1.241v-1.241h1.241v-1.242h-1.241v-1.241h-1.242v1.241h-1.241v1.242h1.241v1.24h-1.241v1.242h1.241v1.242h-1.241v1.241h1.241v1.241h-1.241v1.242h1.241v1.241h-2.482v3.104a3.107 3.107 0 0 0 3.103 3.103 3.107 3.107 0 0 0 3.104-3.103v-3.104h-2.483v-1.241Zm1.241 4.345a1.864 1.864 0 0 1-1.862 1.862 1.864 1.864 0 0 1-1.862-1.862v-1.862h3.724v1.862Zm-1.241.62h-1.242a.62.62 0 1 1 0-1.241h1.242a.62.62 0 1 1 0 1.241Z" fill="currentColor"/></svg>