<svg xmlns="http://www.w3.org/2000/svg" aria-hidden="true" viewBox="0 0 48 48"><path fill="currentColor" fill-rule="evenodd" d="m37.112 13.086.478.478c.284.285.341.637.341 1.112v26.083c0 .52-.523 1.026-1.142 1.185l-.037.011q-.027.01-.055.015-.145.03-.295.03H11.53q-.15 0-.296-.03-.028-.006-.055-.015l-.037-.01c-.618-.16-1.141-.666-1.141-1.186V7.817C10 6.568 10.793 6 11.529 6h18.013c.308 0 .609.125.825.343l.477.476h.001zm-1.394.362-5.235-5.235v5.235zM11.408 40.73c.039.015.078.03.12.03h24.874a.3.3 0 0 0 .12-.03h.003a.29.29 0 0 0 .165-.258v-9.023H11.24v9.023c0 .114.068.21.165.257zm-.167-32.913v22.39H36.69v-15.53l-.001-.022a1 1 0 0 1-.242.036h-7.206V7.485c0-.085.016-.165.036-.244H11.53c-.267 0-.288.44-.288.575Zm10.026 26.27H18.11v-.823h4.159v.823l-2.98 4.472-.17.136h3.15v.823h-4.16v-.823l2.98-4.472zm3.488-.823h-1.036v6.254h1.036zm4.14.128q.39.127.7.381.312.255.502.615a1.7 1.7 0 0 1 .192.811q0 .476-.162.861a1.8 1.8 0 0 1-.45.65 2 2 0 0 1-.696.407 2.7 2.7 0 0 1-.899.144h-.755v2.257h-1.019v-6.254h1.799q.398 0 .789.128Zm.069 2.85q.152-.144.246-.402a1.9 1.9 0 0 0 .05-.994 1 1 0 0 0-.173-.381 1 1 0 0 0-.37-.306q-.237-.123-.627-.123h-.764v2.478h.934q.186 0 .369-.064a.9.9 0 0 0 .335-.208m-4.688-15.965h1.241v-1.242h-1.241v-1.24h1.241v-1.242h-1.241V15.31h1.241v-1.24h-1.241v-1.241h1.241v-1.242h-1.241v-1.241h-1.242v1.241h-1.241v1.242h1.241v1.24h-1.241v1.242h1.241v1.242h-1.241v1.241h1.241v1.241h-1.241v1.242h1.241v1.241h-2.482v3.104a3.107 3.107 0 0 0 3.103 3.103 3.107 3.107 0 0 0 3.104-3.103v-3.104h-2.483zm1.241 4.345a1.864 1.864 0 0 1-1.862 1.862 1.864 1.864 0 0 1-1.862-1.862V22.76h3.724zm-1.241.62h-1.242a.62.62 0 1 1 0-1.241h1.242a.62.62 0 1 1 0 1.241" clip-rule="evenodd"/></svg>